<?xml version="1.0" encoding="utf-8"?>
<!-- Generator: Adobe Illustrator 19.2.1, SVG Export Plug-In . SVG Version: 6.00 Build 0)  -->
<svg version="1.1" xmlns="http://www.w3.org/2000/svg" xmlns:xlink="http://www.w3.org/1999/xlink" x="0px" y="0px"
	 viewBox="0 0 70 70" style="enable-background:new 0 0 70 70;" xml:space="preserve">
<style type="text/css">
	.st0{display:none;}
	.st1{display:inline;}
	.st2{fill:#FF936B;}
	.st3{fill:#F2F6FC;}
	.st4{fill:#CDD2E1;}
	.st5{fill:#9196AA;}
	.st6{fill:#E9EDF5;}
	.st7{fill:#FF7045;}
	.st8{fill:#A37862;}
	.st9{fill:#FFAC5A;}
	.st10{fill:#FC9942;}
	.st11{fill:#FFCDBE;}
	.st12{fill:#FAA68E;}
	.st13{fill:#966857;}
	.st14{fill:#8D5C4D;}
	.st15{fill:#BF947A;}
	.st16{fill:#E3B79D;}
	.st17{fill:#CFA388;}
	.st18{fill:#19CFFC;}
	.st19{fill:#AAC864;}
	.st20{fill:#CDDC73;}
	.st21{fill:#98BA5C;}
	.st22{fill:#80DBFF;}
	.st23{fill:#DCE1EB;}
	.st24{fill:#7E8596;}
	.st25{fill:#707789;}
	.st26{fill:#FFBEAA;}
</style>
<g id="focussed" class="st0">
	<g id="_16-Target" class="st1">
		<rect x="22.2" y="2.1" transform="matrix(0.7071 -0.7071 0.7071 0.7071 3.8362 18.0374)" class="st2" width="3" height="4.6"/>
		<polygon class="st3" points="58.6,56.5 58.6,60.8 30.7,60.8 30.7,56.5 33.9,56.5 55.4,56.5 		"/>
		<polygon class="st4" points="55.4,53.3 55.4,56.5 33.9,56.5 33.9,53.3 40.3,53.3 48.9,53.3 		"/>
		<path class="st5" d="M48.9,48.6v4.7h-8.6v-4.7c1.4,0.3,2.9,0.4,4.3,0.4C46.1,49,47.5,48.9,48.9,48.6z"/>
		<circle class="st2" cx="44.6" cy="25.3" r="23.6"/>
		<circle class="st6" cx="44.6" cy="25.3" r="18.3"/>
		<circle class="st2" cx="44.6" cy="25.3" r="12.9"/>
		<circle class="st6" cx="44.6" cy="25.3" r="7.5"/>
		<circle class="st2" cx="44.6" cy="25.3" r="2.1"/>
		<path class="st7" d="M26.4,25.3c0-10.1,8.2-18.3,18.3-18.3V1.7C31.6,1.7,21,12.3,21,25.3S31.6,49,44.6,49v-5.4
			C34.6,43.6,26.4,35.4,26.4,25.3z"/>
		<path class="st4" d="M26.4,25.3c0,10.1,8.2,18.3,18.3,18.3v-5.4c-7.1,0-12.9-5.8-12.9-12.9s5.8-12.9,12.9-12.9V7.1
			C34.6,7.1,26.4,15.3,26.4,25.3z"/>
		<path class="st7" d="M37.1,25.3c0-4.2,3.4-7.5,7.5-7.5v-5.4c-7.1,0-12.9,5.8-12.9,12.9s5.8,12.9,12.9,12.9v-5.4
			C40.5,32.9,37.1,29.5,37.1,25.3z"/>
		<path class="st4" d="M37.1,25.3c0,4.2,3.4,7.5,7.5,7.5v-5.4c-1.2,0-2.1-1-2.1-2.1s1-2.1,2.1-2.1v-5.4
			C40.5,17.8,37.1,21.2,37.1,25.3z"/>
		<path class="st7" d="M42.5,25.3c0,1.2,1,2.1,2.1,2.1v-4.3C43.5,23.2,42.5,24.2,42.5,25.3z"/>
		<rect x="33.9" y="2" transform="matrix(0.7071 -0.7071 0.7071 0.7071 -0.8375 29.3211)" class="st5" width="2.1" height="27.4"/>
		<path class="st8" d="M12.4,55.4c-3.2,0-4-1.8-4.2-2.7l-6.5,1.6v14h18.3c0-2.1,1.1-3.2,1.1-5.4c0-3.2-1.1-3.2-1.1-3.2l1.1-3.2h5.4
			l8.6-8.6l-3.2-3.2l-7.5,7.5h-7.5C16.7,52.2,16.7,55.4,12.4,55.4z"/>
		<path class="st9" d="M3.8,38.2c-0.2,3.3-0.9,6.6-2.1,9.7c0,0,2.1,3.2,8.6,3.2v-2.6c-0.6-0.3-1.2-0.7-1.7-1.1c-1-1-1.6-2.4-1.6-3.8
			v-3.2c1.2,0,2.1-0.9,2.1-2.1c0,0,0-0.1,0-0.1c0,0,0,2.1,8.6,2.1v3.2c0,2.1-1.3,4.1-3.2,4.9v2.6c6.4,0,8.6-3.2,8.6-3.2
			c-1.2-3.1-1.9-6.4-2.1-9.7c0-4.7-3.8-8.6-8.6-8.6S3.8,33.5,3.8,38.2z"/>
		<path class="st10" d="M22.3,48.8c-0.8-2.4-1.2-4.8-1.3-7.3c0-4.7-3.8-8.6-8.6-8.6s-8.6,3.8-8.6,8.6c-0.1,2.5-0.5,4.9-1.3,7.3
			c-0.3-0.3-0.6-0.5-0.8-0.9c1.2-3.1,1.9-6.4,2.1-9.7c0-4.7,3.8-8.6,8.6-8.6s8.6,3.8,8.6,8.6c0.2,3.3,0.9,6.6,2.1,9.7
			C22.9,48.2,22.6,48.5,22.3,48.8z"/>
		<path class="st10" d="M17.8,43.6v3.2c0,1.7-0.8,3.3-2.1,4.3c-0.3,0-0.7,0-1.1,0v-2.6C16.5,47.7,17.8,45.7,17.8,43.6z"/>
		<path class="st10" d="M7,46.8v-3.2c0,1.4,0.6,2.8,1.6,3.8c0.5,0.5,1,0.9,1.7,1.1v2.6c-0.4,0-0.7,0-1.1,0C9,51,8.8,50.8,8.6,50.6
			C7.6,49.6,7,48.3,7,46.8z"/>
		<path class="st11" d="M10.3,48.5c1.4,0.6,2.9,0.6,4.3,0c2-0.9,3.2-2.8,3.2-4.9v-3.2c-8.6,0-8.6-2.1-8.6-2.1c0,1.2-0.9,2.1-2.1,2.1
			c0,0-0.1,0-0.1,0v3.2c0,1.4,0.6,2.8,1.6,3.8C9.1,47.9,9.6,48.3,10.3,48.5z"/>
		<path class="st12" d="M10.3,52.2l-2.1,0.5c0.2,0.9,1,2.7,4.2,2.7c4.3,0,4.3-3.2,4.3-3.2h-2.1v-3.7c-1.4,0.6-2.9,0.6-4.3,0V52.2z"
			/>
		<polygon class="st11" points="31.8,44.7 35,47.9 37.1,45.8 36,44.7 38.2,42.5 36,40.4 		"/>
		<path class="st13" d="M4.4,66c-0.4-1-0.6-2-0.6-3c-0.1-1.3,0.2-2.6,0.9-3.6l-0.8-2.5l2-0.7L7,59.4c0.2,0.6-0.1,1.2-0.7,1.4
			C6,61.4,5.9,62.2,6,63c0,0.8,0.2,1.6,0.5,2.3c0.4,1,0.6,2,0.6,3H4.9C4.9,67.5,4.7,66.7,4.4,66z M6,60.8L6,60.8z M6,60.8L6,60.8z"
			/>
		<path d="M37.9,46.5c0.4-0.4,0.4-1.1,0-1.5l-0.3-0.3l1.4-1.4c0.4-0.4,0.4-1.1,0-1.5l-2.1-2.1c-0.4-0.4-1.1-0.4-1.5,0L31,43.9
			l-7.2,7.2h-3.3c1.4-0.5,2.7-1.4,3.6-2.6c0.2-0.3,0.2-0.7,0.1-1c-1.2-3-1.9-6.1-2.1-9.3c0-5.3-4.3-9.7-9.7-9.7s-9.7,4.3-9.7,9.7
			c-0.2,3.2-0.9,6.3-2.1,9.3c-0.1,0.3-0.1,0.7,0.1,1c0.1,0.1,1.8,2.6,6.2,3.4l-5.6,1.4c-0.5,0.1-0.8,0.5-0.8,1v14
			c0,0.6,0.5,1.1,1.1,1.1h18.3c0.6,0,1.1-0.5,1.1-1.1c0-0.8,0.2-1.6,0.5-2.3c0.4-1,0.6-2,0.6-3c0.1-1.3-0.2-2.6-0.9-3.6l0.6-1.7h4.6
			c0.3,0,0.6-0.1,0.8-0.3l8.6-8.6L37.9,46.5z M36,41.9l0.6,0.6l-1.4,1.4c-0.4,0.4-0.4,1.1,0,1.5l0.3,0.3L35,46.4l-1.7-1.7L36,41.9z
			 M12.4,54.4c-1,0.1-2-0.2-2.7-0.9l0.8-0.2c0.5-0.1,0.8-0.5,0.8-1V50c0.7,0.1,1.4,0.1,2.1,0v2.2c0,0.6,0.5,1.1,1.1,1.1h0.7
			C14.5,54.1,13.5,54.5,12.4,54.4z M12.4,47.9c-2.4,0-4.3-1.9-4.3-4.3v-2.3c0.6-0.2,1.1-0.6,1.5-1.1c1.2,0.6,3.4,1.1,7.1,1.2v2.2
			C16.7,46,14.8,47.9,12.4,47.9z M4.9,38.2c0-4.2,3.4-7.5,7.5-7.5s7.5,3.4,7.5,7.5c0.2,3.2,0.8,6.4,2,9.5c-0.7,0.7-2.6,2.1-6.3,2.3
			v-0.8c2-1.2,3.2-3.3,3.2-5.6v-3.2c0-0.6-0.5-1.1-1.1-1.1c-6.1,0-7.4-1.1-7.5-1.3c-0.1-0.6-0.7-0.9-1.3-0.8
			c-0.5,0.1-0.8,0.5-0.8,1.1c0.1,0.5-0.3,1-0.9,1.1c-0.1,0-0.1,0-0.2,0c-0.6,0-1.1,0.5-1.1,1.1v3.2c0,2.3,1.2,4.4,3.2,5.6V50
			c-3.7-0.2-5.6-1.6-6.3-2.3C4,44.7,4.7,41.5,4.9,38.2z M25.9,55.4H21c-0.5,0-0.9,0.3-1,0.7l-1.1,3.2c-0.2,0.6,0.1,1.2,0.7,1.4
			c0.3,0.7,0.4,1.5,0.3,2.2c0,0.8-0.2,1.6-0.5,2.3c-0.2,0.6-0.4,1.3-0.5,2h-12c-0.1-0.7-0.3-1.3-0.5-2C6.1,64.6,6,63.8,6,63
			c-0.1-0.8,0-1.5,0.3-2.2C6.9,60.6,7.2,60,7,59.4l-1.1-3.2l-2,0.7l0.8,2.5c-0.7,1.1-1,2.4-0.9,3.6c0,1,0.2,2.1,0.6,3
			c0.1,0.4,0.3,0.8,0.4,1.3h-2V55.2L7.5,54c0.8,1.4,2.2,2.3,3.8,2.4v3.3h2.1v-3.3c1.9-0.1,3.5-1.3,4.1-3.1h6.6
			c0.3,0,0.6-0.1,0.8-0.3l6.8-6.8l1.7,1.7L25.9,55.4z"/>
		<path d="M69.4,25.3c0-13.6-11-24.7-24.7-24.7c-6.2,0-12.2,2.3-16.7,6.5L26.8,6l0.3-0.3c0.4-0.4,0.4-1.1,0-1.5l-3.2-3.2
			c-0.4-0.4-1.1-0.4-1.5,0l-2.1,2.1c-0.4,0.4-0.4,1.1,0,1.5l3.2,3.2c0.4,0.4,1.1,0.4,1.5,0l0.3-0.3l1.1,1.1
			c-9.2,10-8.6,25.5,1.4,34.8l1.5-1.6c-9-8.4-9.6-22.5-1.3-31.7l2.3,2.3c-7.1,7.9-6.5,20.1,1.4,27.2c0.2,0.1,0.3,0.3,0.5,0.4
			l1.4-1.6c-7.2-6.1-8.2-16.9-2.1-24.2c0.1-0.1,0.2-0.2,0.3-0.3l2.3,2.3C29,22.1,29.7,31,35.6,36s14.7,4.4,19.8-1.5
			s4.4-14.7-1.5-19.8c-5.2-4.5-13-4.5-18.2,0l-2.3-2.3c7.1-6.3,18-5.6,24.3,1.5s5.6,18-1.5,24.3c-3.1,2.8-7.2,4.3-11.4,4.3
			c-1.4,0-2.7-0.2-4-0.5l-0.5,2.1c10.4,2.5,20.9-3.8,23.4-14.2S59.7,9.1,49.3,6.6C43.1,5,36.5,6.7,31.8,10.9l-2.3-2.3
			C38.7,0.3,53,1,61.3,10.2c8.4,9.2,7.6,23.5-1.6,31.8c-5.8,5.2-13.8,7.1-21.3,5l-0.6,2.1c0.5,0.1,0.9,0.2,1.4,0.3v2.7h-5.4
			c-0.6,0-1.1,0.5-1.1,1.1v2.1h-2.1c-0.6,0-1.1,0.5-1.1,1.1v4.3c0,0.6,0.5,1.1,1.1,1.1h27.9c0.6,0,1.1-0.5,1.1-1.1v-4.3
			c0-0.6-0.5-1.1-1.1-1.1h-2.1v-2.1c0-0.6-0.5-1.1-1.1-1.1H50v-2.7C61.3,46.9,69.3,36.9,69.4,25.3z M22.5,3.9l0.6-0.6l1.7,1.7
			l-0.6,0.6L22.5,3.9z M44.6,13.5c6.5,0,11.8,5.3,11.9,11.8s-5.3,11.8-11.8,11.9c-6.5,0-11.8-5.3-11.9-11.8c0-2.8,1-5.5,2.7-7.6
			l2.3,2.3c-2.9,3.8-2.2,9.2,1.5,12.1s9.2,2.2,12.1-1.5c2.9-3.8,2.2-9.2-1.5-12.1c-3.1-2.4-7.5-2.4-10.6,0l-2.3-2.3
			C39.2,14.5,41.9,13.5,44.6,13.5z M41.7,24c-0.2,0.4-0.3,0.9-0.3,1.4c0,1.8,1.4,3.2,3.2,3.2s3.2-1.4,3.2-3.2s-1.4-3.2-3.2-3.2
			c-0.5,0-1,0.1-1.4,0.3l-2.3-2.3c2.9-2.1,6.9-1.4,9,1.5c2.1,2.9,1.4,6.9-1.5,9c-2.9,2.1-6.9,1.4-9-1.5c-1.6-2.2-1.6-5.3,0-7.5
			L41.7,24z M45.4,24.6c0.4,0.4,0.4,1.1,0,1.5c-0.4,0.4-1.1,0.4-1.5,0c0,0,0,0,0,0L45.4,24.6z M57.5,59.7H31.8v-2.1h25.8V59.7z
			 M54.3,55.4H35v-1.1h19.3V55.4z M47.9,52.2h-6.4v-2.4c2.1,0.3,4.3,0.3,6.4,0V52.2z"/>
	</g>
</g>
<g id="love">
	<g id="_27-Success">
		<polygon class="st4" points="34.9,26.3 37.1,24.1 46.8,24.1 54.3,16.6 57.6,19.8 48.9,28.4 43.5,28.4 43.5,42.4 34.9,42.4 		"/>
		<polygon class="st11" points="58.6,16.6 59.7,17.6 57.6,19.8 54.3,16.6 58.6,12.3 60.8,14.4 		"/>
		<path class="st12" d="M29.5,12.3v3.2h-1.1c-1.2,0-2.2-1-2.2-2.2v-1.1H29.5z"/>
		<path class="st12" d="M40.3,12.3h3.2v1.1c0,1.2-1,2.2-2.2,2.2h-1.1V12.3z"/>
		<path class="st12" d="M37.1,20.4v3.7l-2.2,2.2l-2.2-2.2v-3.7C34.1,21,35.7,21,37.1,20.4z"/>
		<path class="st11" d="M40.3,12.3v3.2c0,2.1-1.3,4.1-3.2,4.9c-2,0.9-4.4,0.4-6-1.1c-1-1-1.6-2.4-1.6-3.8v-3.2
			c1.2,0,2.1-0.9,2.2-2.1c0,0,0-0.1,0-0.1C31.7,10.1,31.7,12.3,40.3,12.3z"/>
		<path class="st13" d="M43.5,10.1v2.2h-3.2c-8.6,0-8.6-2.2-8.6-2.2c0,1.2-0.9,2.1-2.1,2.2c0,0-0.1,0-0.1,0h-3.2v-2.2
			c0-4.8,3.9-8.6,8.6-8.6S43.5,5.3,43.5,10.1z"/>
		<path class="st14" d="M34.9,1.5c-4.8,0-8.6,3.8-8.6,8.6c0,0,0,0,0,0v2.2c0-4.8,3.9-8.6,8.6-8.6s8.6,3.9,8.6,8.6v-2.2
			C43.5,5.3,39.7,1.5,34.9,1.5z"/>
		<polygon class="st6" points="34.9,26.3 32.8,24.1 23.1,24.1 15.5,16.6 12.3,19.8 20.9,28.4 26.3,28.4 26.3,42.4 34.9,42.4 		"/>
		<polygon class="st11" points="11.2,16.6 10.1,17.6 12.3,19.8 15.5,16.6 11.2,12.3 9,14.4 		"/>
		<polygon class="st15" points="52.2,64 52.2,68.3 17.7,68.3 17.7,64 20.9,64 48.9,64 		"/>
		<polygon class="st16" points="42.5,46.8 43.5,59.7 26.3,59.7 27.4,46.8 		"/>
		<polygon class="st17" points="27.4,46.8 26.3,59.7 29.5,59.7 30.6,46.8 		"/>
		<polygon class="st17" points="42.5,46.8 43.5,59.7 40.3,59.7 39.2,46.8 		"/>
		<path class="st13" d="M46.8,42.4L48.9,64h-28l2.2-21.6H46.8z M43.5,59.7l-1.1-12.9H27.4l-1.1,12.9H43.5z"/>
		<polygon class="st18" points="61.9,40.3 59.7,40.3 59.7,38.1 57.6,38.1 57.6,40.3 55.4,40.3 55.4,42.4 57.6,42.4 57.6,44.6 
			59.7,44.6 59.7,42.4 61.9,42.4 		"/>
		<rect x="57.6" y="46.8" class="st18" width="2.2" height="2.2"/>
		<polygon class="st18" points="12.3,38.1 10.1,38.1 10.1,40.3 8,40.3 8,42.4 10.1,42.4 10.1,44.6 12.3,44.6 12.3,42.4 14.4,42.4 
			14.4,40.3 12.3,40.3 		"/>
		<rect x="10.1" y="46.8" class="st18" width="2.2" height="2.2"/>
		<polygon class="st18" points="55.4,5.8 55.4,3.6 53.3,3.6 53.3,1.5 51.1,1.5 51.1,3.6 48.9,3.6 48.9,5.8 51.1,5.8 51.1,7.9 
			53.3,7.9 53.3,5.8 		"/>
		<rect x="51.1" y="10.1" class="st18" width="2.2" height="2.2"/>
		<polygon class="st18" points="18.7,1.5 16.6,1.5 16.6,3.6 14.4,3.6 14.4,5.8 16.6,5.8 16.6,7.9 18.7,7.9 18.7,5.8 20.9,5.8 
			20.9,3.6 18.7,3.6 		"/>
		<rect x="16.6" y="10.1" class="st18" width="2.2" height="2.2"/>
		<path d="M52.2,62.9h-2.3l-2.1-20.6c-0.1-0.6-0.5-1-1.1-1h-2.2V29.5h4.3c0.3,0,0.6-0.1,0.8-0.3l8.6-8.6l2.2-2.2
			c0.4-0.4,0.4-1.1,0-1.5l-0.3-0.3l1.4-1.4c0.4-0.4,0.4-1.1,0-1.5l-2.2-2.2c-0.4-0.4-1.1-0.4-1.5,0l-4.3,4.3L46.3,23h-8.2v-2
			c1.7-1,2.8-2.6,3.1-4.5h0.1c1.8,0,3.2-1.4,3.2-3.2v-3.2c0-5.4-4.3-9.7-9.7-9.7s-9.7,4.3-9.7,9.7v3.2c0,1.8,1.4,3.2,3.2,3.2h0.1
			c0.3,1.9,1.5,3.6,3.1,4.5v2h-8.2l-7.2-7.2L12,11.5c-0.4-0.4-1.1-0.4-1.5,0l-2.2,2.2c-0.4,0.4-0.4,1.1,0,1.5l1.4,1.4l-0.3,0.3
			c-0.4,0.4-0.4,1.1,0,1.5l2.2,2.2l8.6,8.6c0.2,0.2,0.5,0.3,0.8,0.3h4.3v11.9h-2.2c-0.6,0-1,0.4-1.1,1l-2,20.6h-2.3
			c-0.6,0-1.1,0.5-1.1,1.1v4.3c0,0.6,0.5,1.1,1.1,1.1h34.5c0.6,0,1.1-0.5,1.1-1.1V64C53.3,63.4,52.8,62.9,52.2,62.9z M58.6,13.8
			l0.6,0.6l-1.4,1.4c-0.4,0.4-0.4,1.1,0,1.5l0.3,0.3l-0.6,0.6l-1.7-1.7L58.6,13.8z M46.8,25.2c0.3,0,0.6-0.1,0.8-0.3l6.8-6.8
			l1.7,1.7l-7.5,7.5h-4.9c-0.6,0-1.1,0.5-1.1,1.1v12.9H36V26.7l1.5-1.5H46.8z M41.4,14.4v-1.1h1.1C42.5,13.9,42,14.4,41.4,14.4z
			 M27.4,13.3h1.1v1.1C27.9,14.4,27.4,13.9,27.4,13.3z M29.5,11.2h-2.2v-1.1c0-4.2,3.4-7.5,7.5-7.5s7.5,3.4,7.5,7.5v1.1h-2.2
			c-6.2,0-7.4-1.1-7.6-1.3C32.6,9.3,32,8.9,31.4,9c-0.5,0.1-0.8,0.5-0.8,1.1c0.1,0.5-0.3,1-0.9,1.1C29.7,11.2,29.6,11.2,29.5,11.2z
			 M30.6,13.1c0.6-0.2,1.1-0.6,1.5-1.1c1.2,0.6,3.4,1.1,7.1,1.2v2.2c0,2.4-1.9,4.3-4.3,4.3c-2.4,0-4.3-1.9-4.3-4.3V13.1z M34.9,22
			c0.4,0,0.7,0,1.1-0.1v1.8l-1.1,1.1l-1.1-1.1v-1.8C34.2,21.9,34.6,22,34.9,22z M11.2,13.8l2.8,2.8l-1.7,1.7l-0.6-0.6l0.3-0.3
			c0.4-0.4,0.4-1.1,0-1.5l-1.4-1.4L11.2,13.8z M26.3,27.3h-4.9l-7.5-7.5l1.7-1.7l6.8,6.8c0.2,0.2,0.5,0.3,0.8,0.3h9.3l1.5,1.5v14.7
			h-6.5V28.4C27.4,27.8,26.9,27.3,26.3,27.3z M24,43.5h21.8l1.9,19.4H22.1L24,43.5z M51.1,67.2H18.7v-2.2h32.4V67.2z"/>
		<path d="M42.5,45.7H27.4c-0.6,0-1,0.4-1.1,1l-1.1,12.9c0,0.6,0.4,1.1,1,1.2c0,0,0.1,0,0.1,0h17.3c0.6,0,1.1-0.5,1.1-1.1
			c0,0,0-0.1,0-0.1l-1.1-12.9C43.5,46.1,43,45.7,42.5,45.7z M27.5,58.6l0.9-10.8h13.1l0.9,10.8H27.5z"/>
		<polygon points="59.7,38.1 57.6,38.1 57.6,40.3 55.4,40.3 55.4,42.4 57.6,42.4 57.6,44.6 59.7,44.6 59.7,42.4 61.9,42.4 
			61.9,40.3 59.7,40.3 		"/>
		<rect x="57.6" y="46.8" width="2.2" height="2.2"/>
		<polygon points="12.3,38.1 10.1,38.1 10.1,40.3 8,40.3 8,42.4 10.1,42.4 10.1,44.6 12.3,44.6 12.3,42.4 14.4,42.4 14.4,40.3 
			12.3,40.3 		"/>
		<rect x="10.1" y="46.8" width="2.2" height="2.2"/>
		<polygon points="51.1,7.9 53.3,7.9 53.3,5.8 55.4,5.8 55.4,3.6 53.3,3.6 53.3,1.5 51.1,1.5 51.1,3.6 48.9,3.6 48.9,5.8 51.1,5.8 
					"/>
		<rect x="51.1" y="10.1" width="2.2" height="2.2"/>
		<polygon points="16.6,7.9 18.7,7.9 18.7,5.8 20.9,5.8 20.9,3.6 18.7,3.6 18.7,1.5 16.6,1.5 16.6,3.6 14.4,3.6 14.4,5.8 16.6,5.8 
					"/>
		<rect x="16.6" y="10.1" width="2.2" height="2.2"/>
	</g>
</g>
<g id="team_work" class="st0">
	<g id="_14-team" class="st1">
		<path class="st8" d="M57.9,38.5c3.2,0,4-1.8,4.3-2.7l6.6,1.6v14.1H47V37.4l6.6-1.6C53.8,36.7,54.6,38.5,57.9,38.5z"/>
		<path class="st12" d="M60,34.1v1.1l2.1,0.5c-0.2,0.9-1,2.7-4.3,2.7c-3.2,0-4-1.8-4.3-2.7l2.1-0.5v-3.7c1.4,0.6,2.9,0.6,4.3,0V34.1
			z"/>
		<path class="st13" d="M65.4,51.5h-2.2c0-1,0.2-2.1,0.6-3c0.3-0.8,0.5-1.6,0.5-2.4c0.1-0.8,0-1.5-0.3-2.2c-0.6-0.2-0.9-0.8-0.7-1.4
			l1.1-3.2l2.1,0.7l-0.8,2.5c0.7,1.1,1,2.4,0.9,3.7c0,1-0.2,2.1-0.6,3C65.6,49.8,65.5,50.6,65.4,51.5z M64.4,43.9L64.4,43.9z
			 M64.4,43.9L64.4,43.9z"/>
		<path class="st13" d="M52.4,51.5h-2.2c0-0.8-0.2-1.6-0.5-2.4c-0.4-1-0.6-2-0.6-3c-0.1-1.3,0.2-2.6,0.9-3.7l-0.8-2.5l2.1-0.7
			l1.1,3.2c0.2,0.6-0.1,1.2-0.7,1.4c-0.3,0.7-0.4,1.5-0.4,2.2c0,0.8,0.2,1.6,0.5,2.4C52.2,49.4,52.4,50.4,52.4,51.5z M51.4,43.9
			L51.4,43.9z M51.4,43.9L51.4,43.9z"/>
		<path class="st11" d="M63.3,23.3v3.2c0,3-2.4,5.4-5.4,5.4s-5.4-2.4-5.4-5.4v-3.2c8.7,0,8.7-2.2,8.7-2.2
			C61.1,22.3,62,23.3,63.3,23.3C63.2,23.3,63.2,23.3,63.3,23.3z"/>
		<path class="st9" d="M60,31.5c0.6-0.3,1.2-0.7,1.7-1.1c1-1,1.6-2.4,1.6-3.8v-3.2c-1.2,0-2.1-0.9-2.2-2.1c0,0,0-0.1,0-0.1
			c0,0,0,2.2-8.7,2.2v3.2c0,2.2,1.3,4.1,3.2,5v2.6c-6.5,0-8.7-3.2-8.7-3.2c1.2-3.1,2-6.4,2.2-9.7c0-4.8,3.9-8.7,8.7-8.7
			s8.7,3.9,8.7,8.7c0.2,3.3,0.9,6.6,2.2,9.7c0,0-2.2,3.2-8.7,3.2V31.5z"/>
		<path class="st10" d="M47.9,31.8c0.8-2.4,1.2-4.9,1.3-7.4c0-4.8,3.9-8.7,8.7-8.7s8.7,3.9,8.7,8.7c0.1,2.5,0.6,5,1.3,7.4
			c0.3-0.3,0.6-0.5,0.8-0.9c-1.2-3.1-2-6.4-2.2-9.7c0-4.8-3.9-8.7-8.7-8.7s-8.7,3.9-8.7,8.7c-0.2,3.3-0.9,6.6-2.2,9.7
			C47.3,31.2,47.6,31.5,47.9,31.8z"/>
		<path class="st10" d="M63.3,29.8v-3.2c0,1.4-0.6,2.8-1.6,3.8c-0.5,0.5-1,0.9-1.7,1.1v2.6c0.4,0,0.8,0,1.1,0
			c0.2-0.1,0.4-0.3,0.6-0.5C62.7,32.6,63.3,31.2,63.3,29.8z"/>
		<path class="st10" d="M52.4,26.6v3.2c0,1.7,0.8,3.3,2.1,4.3c0.4,0,0.7,0,1.1,0v-2.6C53.7,30.7,52.5,28.7,52.4,26.6z"/>
		<polygon class="st12" points="10.2,35.2 12.4,37.4 14.6,35.2 14.6,29.8 10.2,29.8 		"/>
		<polygon class="st19" points="14.6,35.2 23.2,37.4 23.2,51.5 12.4,51.5 12.4,37.4 		"/>
		<polygon class="st20" points="12.4,37.4 12.4,51.5 1.6,51.5 1.6,37.4 10.2,35.2 		"/>
		<path class="st13" d="M21.1,21.2v2.2h-3.2c-8.7,0-8.7-2.2-8.7-2.2c0,1.2-0.9,2.1-2.1,2.2c0,0-0.1,0-0.1,0H3.7v-2.2
			c0-4.8,3.9-8.7,8.7-8.7S21.1,16.4,21.1,21.2z"/>
		<path class="st12" d="M7,23.3v3.2H5.9c-1.2,0-2.2-1-2.2-2.2v-1.1H7z"/>
		<path class="st12" d="M17.8,23.3h3.2v1.1c0,1.2-1,2.2-2.2,2.2h-1.1V23.3z"/>
		<path class="st11" d="M17.8,23.3v3.2c0,3-2.4,5.4-5.4,5.4S7,29.6,7,26.6v-3.2c1.2,0,2.1-0.9,2.2-2.1c0,0,0-0.1,0-0.1
			C9.2,21.2,9.2,23.3,17.8,23.3z"/>
		<rect x="4.8" y="40.6" class="st21" width="2.2" height="10.8"/>
		<rect x="17.8" y="40.6" class="st21" width="2.2" height="10.8"/>
		<polygon class="st12" points="31.9,37.4 35.1,39.6 38.4,37.4 38.4,32 31.9,32 		"/>
		<polygon class="st18" points="38.4,42.8 36.2,45 34.1,45 31.9,42.8 35.1,39.6 		"/>
		<polygon class="st22" points="36.2,45 37.3,56.9 35.1,59 33,56.9 34.1,45 		"/>
		<polygon class="st23" points="35.1,39.6 31.9,42.8 29.7,39.6 29.7,37.9 31.9,37.4 		"/>
		<polygon class="st23" points="40.5,37.9 40.5,39.6 38.4,42.8 35.1,39.6 38.4,37.4 		"/>
		<polygon class="st3" points="34.1,45 33,56.9 35.1,59 37.3,56.9 36.2,45 38.4,42.8 40.5,39.6 40.5,37.9 51.4,40.6 51.4,63.4 
			18.9,63.4 18.9,40.6 29.7,37.9 29.7,39.6 31.9,42.8 		"/>
		<path class="st24" d="M44.9,16.8v4.3h-2.2c-7.6,0-7.6-2.2-7.6-2.2c0,2.2-7.6,2.2-7.6,2.2h-2.2v-4.3c0-5.4,4.4-9.7,9.7-9.7
			S44.9,11.4,44.9,16.8z"/>
		<path class="st25" d="M42,9.9c-3.8-3.8-10-3.8-13.8,0c-1.8,1.8-2.9,4.3-2.9,6.9v3.2c0-5.4,4.4-9.7,9.7-9.7s9.7,4.4,9.7,9.7v-3.2
			C44.9,14.2,43.8,11.8,42,9.9z"/>
		<path class="st12" d="M27.6,21.2v5.4h-1.1c-1.2,0-2.2-1-2.2-2.2v-3.2H27.6z"/>
		<path class="st12" d="M44.9,21.2H46v3.2c0,1.2-1,2.2-2.2,2.2h-1.1v-5.4H44.9z"/>
		<path class="st11" d="M42.7,21.2v5.4c0,4.2-3.4,7.6-7.6,7.6s-7.6-3.4-7.6-7.6v-5.4c0,0,7.6,0,7.6-2.2C35.1,19,35.1,21.2,42.7,21.2
			z"/>
		<path class="st26" d="M35.1,19c0,2.2-7.6,2.2-7.6,2.2v3.2c0,0,7.6,0,7.6-2.2c0,0,0,2.2,7.6,2.2v-3.2C35.1,21.2,35.1,19,35.1,19z"
			/>
		<rect x="23.2" y="47.1" class="st23" width="2.2" height="16.2"/>
		<rect x="44.9" y="47.1" class="st23" width="2.2" height="16.2"/>
		<path d="M68.9,36.3l-5.7-1.4c4.5-0.9,6.2-3.3,6.3-3.4c0.2-0.3,0.2-0.7,0.1-1c-1.2-3-1.9-6.1-2.1-9.3c0-5.4-4.4-9.7-9.7-9.7
			s-9.7,4.4-9.7,9.7c-0.2,3.2-0.9,6.4-2.1,9.3c-0.1,0.3-0.1,0.7,0.1,1c0.1,0.1,1.8,2.6,6.3,3.4l-5.7,1.4c-0.5,0.1-0.8,0.6-0.8,1.1
			v0.8l-6.5-1.6v-2.5c2.3-1.4,3.9-3.7,4.3-6.4h0.1c1.8,0,3.2-1.5,3.2-3.2v-3.2c0-0.6-0.5-1.1-1.1-1.1v-3.2C46,10.8,41.1,6,35.1,6
			s-10.8,4.8-10.8,10.8v3.2c-0.6,0-1.1,0.5-1.1,1.1v3.2c0,1.8,1.5,3.2,3.2,3.2h0.1c0.3,2.7,1.9,5.1,4.3,6.4v2.5l-6.5,1.6v-0.8
			c0-0.5-0.3-0.9-0.8-1l-7.8-2v-2.2c1.7-1,2.8-2.6,3.1-4.5h0.1c1.8,0,3.2-1.5,3.2-3.2v-3.2c0-5.4-4.4-9.7-9.7-9.7s-9.7,4.4-9.7,9.7
			v3.2c0,1.8,1.5,3.2,3.2,3.2H6c0.3,1.9,1.5,3.6,3.1,4.5v2.2l-7.8,2c-0.5,0.1-0.8,0.6-0.8,1v14.1c0,0.6,0.5,1.1,1.1,1.1h16.2v10.8
			c0,0.6,0.5,1.1,1.1,1.1h32.5c0.6,0,1.1-0.5,1.1-1.1V52.5h16.2c0.6,0,1.1-0.5,1.1-1.1V37.4C69.8,36.9,69.4,36.5,68.9,36.3z
			 M57.9,37.4c-1,0.1-2-0.2-2.7-0.9l0.8-0.2c0.5-0.1,0.8-0.6,0.8-1V33c0.7,0.1,1.4,0.1,2.2,0v2.3c0,0.5,0.3,0.9,0.8,1l0.8,0.2
			C59.8,37.2,58.9,37.5,57.9,37.4z M60.7,23.2c0.4,0.5,0.9,0.9,1.5,1.1v2.3c0,2.4-1.9,4.3-4.3,4.3c-2.4,0-4.3-1.9-4.3-4.3v-2.2
			C57.3,24.3,59.4,23.8,60.7,23.2z M50.3,21.2c0-4.2,3.4-7.6,7.6-7.6s7.6,3.4,7.6,7.6c0.2,3.3,0.8,6.5,2,9.5
			c-0.7,0.7-2.6,2.1-6.3,2.3v-0.8c2-1.2,3.2-3.3,3.2-5.6v-3.2c0-0.6-0.5-1.1-1.1-1.1c-0.5,0.1-1-0.3-1.1-0.9c0-0.1,0-0.1,0-0.2
			c0-0.6-0.5-1.1-1.1-1.1c-0.5,0-0.9,0.4-1.1,0.8c-0.2,0.2-1.4,1.3-7.6,1.3c-0.6,0-1.1,0.5-1.1,1.1v3.2c0,2.3,1.2,4.5,3.2,5.6V33
			c-3.7-0.2-5.6-1.6-6.3-2.3C49.4,27.6,50.1,24.4,50.3,21.2z M36.2,56.5l-1,1l-1-1L35,46h0.2L36.2,56.5z M35.8,43.9h-1.3l-1.1-1.1
			l1.7-1.7l1.7,1.7L35.8,43.9z M36.8,39.7l1.8-1.2l0.9,0.2v0.5l-1.3,1.9L36.8,39.7z M44.9,24.4c0,0.6-0.5,1.1-1.1,1.1v-3.2h1.1V24.4
			z M26.5,16.8c0-4.8,3.9-8.7,8.7-8.7s8.7,3.9,8.7,8.7v3.2h-1.1c-5.3,0-6.4-1.1-6.5-1.3c-0.1-0.5-0.5-0.9-1.1-0.9
			c-0.5,0-0.9,0.3-1.1,0.8c0,0.1,0,0.2,0,0.2c-0.5,0.6-3.5,1.1-6.5,1.1h-1.1V16.8z M25.4,24.4v-2.2h1.1v3.2
			C25.9,25.5,25.4,25,25.4,24.4z M28.6,26.6v-4.3c2.3-0.1,5-0.4,6.5-1.4c1,0.7,2.9,1.3,6.5,1.4v4.3c0,3.6-2.9,6.5-6.5,6.5
			C31.5,33.1,28.6,30.2,28.6,26.6z M35.1,35.2c0.7,0,1.5-0.1,2.2-0.3v1.9l-2.2,1.4L33,36.8v-1.9C33.7,35.1,34.4,35.2,35.1,35.2z
			 M31.7,38.6l1.8,1.2l-1.4,1.4l-1.3-1.9v-0.5L31.7,38.6z M18.9,25.5v-1.1H20C20,25,19.5,25.5,18.9,25.5z M4.8,24.4h1.1v1.1
			C5.3,25.5,4.8,25,4.8,24.4z M7,22.2H4.8v-1.1c0-4.2,3.4-7.6,7.6-7.6S20,17,20,21.2v1.1h-2.2c-6.2,0-7.4-1.1-7.6-1.3
			c-0.1-0.6-0.7-1-1.3-0.8c-0.5,0.1-0.8,0.5-0.8,1.1c0.1,0.5-0.3,1-0.9,1.1C7.1,22.2,7.1,22.2,7,22.2z M8.1,24.2
			c0.6-0.2,1.1-0.6,1.5-1.1c1.2,0.6,3.4,1.2,7.1,1.2v2.2c0,2.4-1.9,4.3-4.3,4.3S8.1,29,8.1,26.6V24.2z M12.4,33.1
			c0.4,0,0.7,0,1.1-0.1v1.8l-1.1,1.1l-1.1-1.1V33C11.7,33,12,33.1,12.4,33.1z M2.7,38.2l7.2-1.8l1.4,1.4v12.5H7v-9.7H4.8v9.7H2.7
			V38.2z M13.5,50.4V37.8l1.4-1.4l7.2,1.8v0.5l-3.5,0.9c-0.5,0.1-0.8,0.6-0.8,1v9.7H13.5z M50.3,62.3H47V47.1h-2.2v15.2H25.4V47.1
			h-2.2v15.2H20V41.5l8.7-2.2v0.2c0,0.2,0.1,0.4,0.2,0.6l2.2,3.2c0,0.1,0.1,0.1,0.2,0.1l0,0l1.8,1.8l-1,11.4c0,0.3,0.1,0.6,0.3,0.9
			l2.2,2.2c0.4,0.4,1.1,0.4,1.5,0l2.2-2.2c0.2-0.2,0.3-0.5,0.3-0.9l-1-11.4l1.8-1.8l0,0c0.1,0,0.1-0.1,0.2-0.1l2.2-3.2
			c0.1-0.2,0.2-0.4,0.2-0.6v-0.2l8.7,2.2V62.3z M67.6,50.4h-2c0.1-0.4,0.2-0.9,0.4-1.3c0.4-1,0.6-2,0.6-3c0.1-1.3-0.2-2.6-0.9-3.7
			l0.8-2.5l-2.1-0.7l-1.1,3.2c-0.2,0.6,0.1,1.2,0.7,1.4c0.3,0.7,0.4,1.5,0.3,2.2c0,0.8-0.2,1.6-0.5,2.4c-0.2,0.6-0.4,1.3-0.5,2H52.4
			v-9.7c0-0.5-0.3-0.9-0.8-1l-3.5-0.9v-0.5l4.8-1.2c0.8,1.4,2.2,2.3,3.9,2.4v3.3h2.2v-3.3c1.6-0.1,3.1-1,3.9-2.4l4.8,1.2V50.4z"/>
	</g>
</g>
</svg>
