<?xml version="1.0" encoding="UTF-8"?>
<!DOCTYPE svg PUBLIC "-//W3C//DTD SVG 1.1//EN" "http://www.w3.org/Graphics/SVG/1.1/DTD/svg11.dtd">
<!-- Creator: CorelDRAW X8 -->
<svg xmlns="http://www.w3.org/2000/svg" xml:space="preserve" width="10in" height="7.43055in" version="1.1" style="shape-rendering:geometricPrecision; text-rendering:geometricPrecision; image-rendering:optimizeQuality; fill-rule:evenodd; clip-rule:evenodd"
viewBox="0 0 10000 7431"
 xmlns:xlink="http://www.w3.org/1999/xlink">
 <defs>
  <style type="text/css">
   <![CDATA[
    .fil1 {fill:#FBDD10}
    .fil2 {fill:white}
    .fil0 {fill:#06183D;fill-rule:nonzero}
   ]]>
  </style>
 </defs>
 <g id="Layer_x0020_1">
  <metadata id="CorelCorpID_0Corel-Layer"/>
  <polygon class="fil0" points="0,7431 10000,7431 10000,0 0,0 "/>
  <path class="fil1" d="M3250 4449l7 -679 451 4 -2 89 -346 -3 -2 186 304 2 -1 92 -304 -3 -1 223 366 3 -2 90 -470 -4zm652 -259l4 -415 104 2 -4 403c-2,111 46,197 193,198 141,2 184,-77 184,-194l4 -403 104 1 -4 415c-1,159 -92,274 -301,273 -204,-3 -286,-132 -284,-280zm786 272l6 -680 192 2c185,1 283,66 282,199 -2,81 -49,147 -137,183l206 289 0 11 -115 -2 -180 -255 -147 -1 -3 255 -104 -1zm286 -343c47,-25 88,-62 90,-132 1,-84 -46,-112 -178,-113l-88 -2 -3 244 179 3zm339 10c2,-180 125,-350 355,-347 231,3 350,174 348,354 -1,181 -123,349 -353,346 -232,-2 -351,-173 -350,-353zm594 4c1,-148 -81,-261 -239,-262 -158,-1 -242,110 -244,258 -1,148 81,261 240,262 157,1 241,-110 243,-258zm231 311l2 -97 11 0c62,27 141,50 209,50 121,1 179,-37 181,-100 0,-64 -49,-93 -121,-118l-110 -38c-97,-34 -145,-93 -144,-176 2,-116 112,-180 269,-179 64,0 157,18 200,41l-2 90 -11 0c-61,-24 -140,-38 -188,-39 -101,-1 -162,18 -164,83 0,58 46,78 99,96l104 39c98,34 172,86 172,198 -2,122 -113,195 -286,194 -83,0 -158,-17 -221,-44zm856 40l5 -591 -239 -3 1 -88 582 5 -1 89 -237 -3 -6 591 -105 0zm345 3l0 -11 268 -666 132 1 239 671 0 12 -109 -2 -63 -181 -296 -3 -71 180 -100 -1zm436 -267l-110 -314 -121 313 231 1zm359 274l7 -680 194 2c184,1 283,66 281,199 -1,81 -48,147 -137,183l208 289 0 11 -117 -2 -181 -256 -146 -2 -3 256 -106 0zm287 -343c47,-25 88,-62 90,-132 1,-84 -46,-112 -178,-113l-88 -2 -3 246 179 1zm381 -161l1 -141 -47 0 0 -29 132 1 0 29 -47 0 -2 142 -37 -2zm261 3l1 -114 -44 70 -18 0 -43 -70 -2 113 -36 0 2 -171 41 0 50 82 51 -81 37 0 -2 171 -37 0z"/>
  <g>
   <path class="fil2" d="M3168 2916c42,-53 78,-114 103,-175 6,-15 8,-32 11,-47 3,-18 4,-36 4,-54 3,-229 -219,-418 -492,-419l-53 0c-357,-3 -606,216 -744,349 -287,278 -477,638 -530,1039 -71,26 -140,51 -212,72 -64,19 -129,37 -196,51 -56,13 -115,23 -174,25 -28,2 -57,3 -85,0 -12,-1 -18,27 -18,35 0,46 53,112 200,114 116,1 287,-35 470,-88 0,-5 0,-11 0,-16 -2,201 43,384 130,493 57,72 166,102 255,110 114,11 230,-10 340,-46 232,-76 441,-201 636,-344 27,-19 53,-40 79,-59 18,-14 36,-30 54,-43 21,-17 56,-46 75,-64 9,-9 17,-17 24,-25 10,-13 14,-29 14,-46 0,-7 0,-15 -4,-21 -2,-2 -3,-4 -6,-5 -4,-3 -7,0 -11,1 -18,8 -37,18 -55,28 -20,11 -41,21 -61,30 -20,9 -38,20 -57,28 -35,15 -70,33 -104,49 -17,8 -35,16 -53,23 -118,51 -236,103 -358,142 -126,40 -321,94 -405,-50 -31,-56 -33,-125 -31,-187 0,-52 4,-103 11,-154 77,-28 155,-59 231,-88 139,-55 280,-109 424,-165 78,-29 153,-61 233,-87 70,-22 138,-44 207,-65 78,-25 154,-43 234,-56 165,-23 328,-19 493,6 73,11 147,26 220,43 141,33 280,76 417,119 222,68 437,103 666,125 37,4 75,5 112,7 203,5 408,-24 602,-79 116,-34 229,-81 337,-136 6,-3 12,-7 18,-10 30,-16 61,-35 90,-54 46,-30 89,-64 130,-98 21,-18 41,-36 60,-56 17,-16 38,-33 44,-55 5,-14 2,-25 -1,-39 -1,-7 -5,-13 -12,-10 -23,10 -42,22 -64,32 -45,22 -89,42 -135,61 -97,40 -198,72 -299,90 -284,54 -592,72 -881,33 -287,-38 -565,-124 -850,-181 -87,-17 -176,-33 -264,-46 -91,-12 -181,-22 -271,-26 -90,-4 -180,-4 -270,3 -89,6 -176,22 -265,30 -1,0 -4,0 -6,-1 -1,-3 0,-6 3,-7 18,-10 29,-22 40,-36l0 0zm-313 43c-168,154 -305,195 -513,287 -122,52 -247,106 -370,159l0 0c68,-206 174,-403 305,-582 66,-92 123,-142 212,-214 112,-90 308,-180 428,-51 52,54 67,129 57,201 -15,89 -51,137 -119,200z"/>
  </g>
 </g>
</svg>
