<?xml version="1.0" encoding="utf-8"?>
<!-- Generator: Adobe Illustrator 19.2.1, SVG Export Plug-In . SVG Version: 6.00 Build 0)  -->
<svg version="1.1" id="Layer_1" xmlns="http://www.w3.org/2000/svg" xmlns:xlink="http://www.w3.org/1999/xlink" x="0px" y="0px"
	 viewBox="0 0 250 250" style="enable-background:new 0 0 250 250;" xml:space="preserve">
<style type="text/css">
	.st0{fill:#FF914F;}
	.st1{fill:#237EC1;}
</style>
<g>
	<path class="st0" d="M-183.4,177.4v-22.8c0-12.5,8.2-23.2,19.5-26.8c-3.7-3.8-5.9-9-5.9-14.4c0-0.8,0.1-1.6,0.2-2.4
		c-3.4-3.9-8.1-6.8-13.4-7.9c-3.4,2.2-7.3,3.4-11.3,3.4c-4,0-8-1.2-11.4-3.4c-11.1,2.3-19.3,12.1-19.3,23.8v22.8
		c0,4.7,3.8,8.5,8.5,8.5h2.1v47.6c0,4.6,3.7,8.3,8.3,8.3h1.5c4.6,0,8.3-3.7,8.3-8.3v-32.6c0-1.1,1-2.1,2.1-2.1s2.1,0.9,2.1,2.1v32.6
		c0,4.6,3.7,8.3,8.3,8.3h1.4c4.6,0,8.3-3.7,8.3-8.3v-16.6C-179.5,188-183.4,183.1-183.4,177.4z"/>
	<path class="st0" d="M-205.3,98.7c3,2.5,6.8,4,11,4c4.2,0,8-1.5,10.9-4c3.7-3.1,6.1-7.8,6.1-13c0-9.4-7.6-17-17-17
		c-9.4,0-17,7.6-17,17C-211.3,90.9-209,95.6-205.3,98.7z"/>
	<path class="st0" d="M-92.2,103.1L-92.2,103.1c-3.4,2.2-7.3,3.4-11.3,3.4s-8-1.2-11.4-3.4c-5.3,1.1-9.9,3.9-13.3,7.8
		c0.1,0.8,0.2,1.6,0.2,2.4c0,5.4-2.1,10.6-5.9,14.4c11.4,3.6,19.6,14.3,19.6,26.8v22.8c0,5.7-3.9,10.5-9.2,11.9v16.6
		c0,4.6,3.7,8.3,8.3,8.3h1.5c4.6,0,8.3-3.7,8.3-8.3v-32.6c0-1.1,0.9-2.1,2.1-2.1s2.1,0.9,2.1,2.1v32.6c0,4.6,3.7,8.3,8.3,8.3h1.4
		c4.6,0,8.3-3.7,8.3-8.3v-47.6h2.1c4.7,0,8.5-3.8,8.5-8.5v-22.8C-72.8,115.2-81.2,105.4-92.2,103.1z"/>
	<path class="st0" d="M-114.5,98.7c3,2.5,6.8,4,11,4c4.2,0,8-1.5,10.9-4c3.7-3.1,6.1-7.8,6.1-13c0-9.4-7.6-17-17-17
		c-9.4,0-17,7.6-17,17C-120.6,90.9-118.2,95.6-114.5,98.7z"/>
	<path class="st0" d="M-118.2,177.4v-22.8c0-10.5-6.7-19.5-16.1-22.9c-1.1-0.4-2.2-0.7-3.3-1h-0.1c-3.4,2.2-7.2,3.4-11.3,3.4
		s-8-1.2-11.3-3.4c-1.1,0.2-2.2,0.5-3.3,0.9c-9.4,3.4-16.1,12.4-16.1,22.9v22.8c0,3.6,2.3,6.7,5.4,7.9c1,0.4,2,0.6,3.1,0.6h2.1v47.6
		c0,4.6,3.7,8.3,8.3,8.3h1.5c4.6,0,8.3-3.7,8.3-8.3v-32.6c0-1.1,0.9-2.1,2.1-2.1c1.2,0,2.1,0.9,2.1,2.1v32.6c0,4.6,3.7,8.3,8.3,8.3
		h1.5c4.6,0,8.3-3.7,8.3-8.3V186h2.1c1.1,0,2.1-0.2,3.1-0.6C-120.5,184.2-118.2,181.1-118.2,177.4z"/>
	<path class="st0" d="M-159.9,126.4c3,2.5,6.8,4,11,4c4.2,0,8-1.5,10.9-4c3.7-3.1,6.1-7.8,6.1-13c0-9.4-7.6-17-17-17
		c-9.4,0-17,7.6-17,17C-166,118.6-163.6,123.3-159.9,126.4z"/>
	<g>
		<path class="st1" d="M230,72.1c-1-0.6-2.1-1.2-3.2-1.6c-0.7-0.3-1.5-0.6-2.3-0.8c-0.8-0.2-1.5-0.4-2.3-0.6
			c-3.4,2.2-7.3,3.4-11.4,3.4c-0.6,0-1.2,0-1.9-0.1c-1.3-0.1-2.5-0.4-3.8-0.7c-2-0.6-4-1.5-5.8-2.6c-5.5,1.2-10.4,4.2-13.9,8.4
			c2.4,3.4,3.8,7.5,3.8,11.9c0,5.5-2.1,10.7-5.9,14.5c4.2,1.3,8,3.7,11.1,6.7c1.4,1.4,2.7,2.8,3.8,4.5c3.1,4.5,4.9,10,4.9,15.9v23
			c0,6.3-4.7,11.5-10.7,12.3v11.5c1.5,2,3.9,3.3,6.6,3.3h1.5c4.6,0,8.3-3.7,8.3-8.3v-32.9c0-1.1,0.9-2.1,2.1-2.1
			c1.1,0,2.1,0.9,2.1,2.1v32.9c0,1.2,0.2,2.2,0.7,3.2c0.6,1.5,1.7,2.8,3,3.7c0.9,0.6,1.9,1,3,1.3c0.5,0.1,1.1,0.2,1.7,0.2h1.4
			c1.2,0,2.2-0.2,3.2-0.7c3-1.3,5.1-4.2,5.1-7.7v-47.9h2.1c1.2,0,2.3-0.2,3.3-0.7c1-0.4,2-1.1,2.7-1.8c0.4-0.4,0.7-0.8,1-1.3
			c0.2-0.3,0.4-0.7,0.6-1.1c0.5-1.1,0.8-2.4,0.8-3.7v-23C241.8,84.2,237.1,76.4,230,72.1z"/>
		<path class="st1" d="M47,153.9v-23c0-5.9,1.8-11.3,4.8-15.8c1.1-1.6,2.4-3.1,3.8-4.5c3.1-3,6.9-5.3,11.1-6.7
			c-3.8-3.9-5.9-9.1-5.9-14.5c0-4.4,1.4-8.6,3.8-11.9c-0.5-0.6-1-1.2-1.6-1.7c-1.1-1.1-2.3-2.1-3.6-3c-2.6-1.8-5.6-3-8.7-3.7
			c-1.8,1.2-3.7,2.1-5.8,2.6c-1.2,0.3-2.5,0.6-3.8,0.7c-0.6,0.1-1.2,0.1-1.9,0.1c-4.1,0-8-1.2-11.4-3.4c-2.4,0.5-4.6,1.3-6.7,2.4
			C13.5,75.7,8.4,83.8,8.4,93.1v23c0,3,1.5,5.6,3.8,7.1c1.4,0.9,3,1.5,4.8,1.5h2.1v47.9c0,4.6,3.7,8.3,8.3,8.3h1.5
			c4.6,0,8.3-3.7,8.3-8.3v-32.9c0-1.1,0.9-2.1,2.1-2.1c1.1,0,2.1,0.9,2.1,2.1v32.9c0,4.6,3.7,8.3,8.3,8.3h1.4c1.2,0,2.2-0.2,3.2-0.7
			c1.3-0.6,2.4-1.5,3.3-2.6v-11.5C51.7,165.3,47,160.2,47,153.9z"/>
		<path class="st0" d="M90.4,176.7v-23c0-4.7,1.2-9.1,3.2-13c1.5-2.9,3.6-5.5,6-7.8c3-2.8,6.6-4.9,10.6-6.2
			c-2.6-2.7-4.5-6.1-5.3-9.7c-0.4-1.5-0.6-3.1-0.6-4.7c-0.9-0.8-1.9-1.5-2.9-2.2c-0.4-0.3-0.9-0.6-1.4-0.8c-1.2-0.7-2.5-1.2-3.8-1.6
			c-1-0.3-1.9-0.6-3-0.8c-3.4,2.2-7.3,3.4-11.4,3.4c-1.3,0-2.5-0.1-3.8-0.4c-1.4-0.3-2.7-0.6-4-1.2c-0.1,0-0.1-0.1-0.2-0.1
			c-1.2-0.5-2.4-1.1-3.5-1.8c0,0-0.1,0-0.1,0c-2.3,0.5-4.6,1.3-6.6,2.4c-3.2,1.7-5.9,4.1-8,7c-1.7,2.2-3,4.7-3.8,7.4
			c-0.7,2.3-1.1,4.7-1.1,7.1v23c0,3,1.5,5.6,3.8,7.1c1.4,0.9,3,1.5,4.8,1.5h0.1h2v16.3v31.6c0,1.2,0.2,2.2,0.7,3.2
			c0.6,1.5,1.7,2.8,3,3.7c0.9,0.6,1.9,1,3,1.3c0.5,0.1,1.1,0.2,1.7,0.2h1.5c1.2,0,2.2-0.2,3.2-0.7c3-1.3,5.1-4.2,5.1-7.7v-32.9
			c0-1.1,0.9-2.1,2.1-2.1c1.1,0,2.1,0.9,2.1,2.1v32.9c0,4.6,3.7,8.3,8.3,8.3h1.4c1.2,0,2.2-0.2,3.2-0.7c1.8-0.8,3.3-2.2,4.2-4V189
			C95,188.2,90.4,183,90.4,176.7z"/>
		<path class="st0" d="M199.4,153.9v-23c0-2.5-0.4-5-1.1-7.2c-0.8-2.7-2.1-5.2-3.8-7.4c-3.5-4.7-8.6-8.1-14.6-9.4c0,0-0.1,0-0.1,0
			c-1.1,0.7-2.2,1.3-3.4,1.8c-0.1,0-0.1,0.1-0.2,0.1c-1.3,0.5-2.6,0.9-4,1.2c-1.2,0.2-2.5,0.4-3.8,0.4c-4.1,0-8-1.2-11.4-3.4
			c-1,0.2-2,0.5-3,0.8c-1.3,0.4-2.6,1-3.8,1.6c-0.5,0.3-0.9,0.5-1.4,0.8c-1,0.6-2,1.4-2.9,2.1c0,1.6-0.2,3.2-0.6,4.7
			c-0.9,3.7-2.7,7-5.4,9.8c4,1.3,7.5,3.4,10.5,6.1c2.4,2.2,4.5,4.9,6,7.8c2,3.9,3.2,8.3,3.2,13v23c0,6.3-4.7,11.5-10.7,12.3v25.1
			c1.4,2.7,4.2,4.6,7.4,4.6h1.5c1.2,0,2.2-0.2,3.2-0.7c1-0.4,1.9-1,2.7-1.8c0.4-0.4,0.7-0.8,1-1.2c0.2-0.3,0.4-0.7,0.6-1
			c0.5-1.1,0.8-2.3,0.8-3.6v-32.9c0-0.6,0.3-1.2,0.8-1.6c0.2-0.1,0.3-0.2,0.5-0.3c0.2-0.1,0.5-0.2,0.8-0.2c1.1,0,2.1,0.9,2.1,2.1
			v32.9c0,4.6,3.7,8.3,8.3,8.3h1.4c4.6,0,8.3-3.7,8.3-8.3v-31.6v-16.3h2h0.1C195.5,162.5,199.4,158.6,199.4,153.9z"/>
		<path class="st0" d="M153.5,182.8c0.4-0.4,0.7-0.8,1-1.3c0.2-0.3,0.4-0.7,0.6-1.1c0.5-1.1,0.8-2.4,0.8-3.7v-23
			c0-8.9-4.7-16.7-11.8-21c-1-0.6-2.1-1.2-3.2-1.6c-0.7-0.3-1.5-0.6-2.3-0.8c-0.4-0.1-0.9-0.2-1.3-0.3c-0.3-0.1-0.7-0.2-1-0.3
			c-0.9,0.6-1.8,1.1-2.8,1.6c-2.7,1.2-5.6,1.9-8.6,1.9c-3,0-5.9-0.7-8.6-1.9c-1-0.4-1.9-1-2.8-1.6c-0.3,0.1-0.7,0.2-1,0.3
			c-10.6,2.7-18.5,12.3-18.5,23.8v23c0,3,1.5,5.6,3.8,7.1c1.2,0.8,2.6,1.3,4.1,1.4c0.2,0,0.5,0.1,0.7,0.1h2.1V215v18.2
			c0,4.6,3.7,8.3,8.3,8.3h1.5c4.6,0,8.3-3.7,8.3-8.3v-32.9c0-1.1,0.9-2.1,2.1-2.1c1.1,0,2.1,0.9,2.1,2.1v32.9c0,1.2,0.2,2.2,0.7,3.2
			c0.6,1.5,1.7,2.8,3,3.7c0.9,0.6,1.9,1,3,1.3c0.5,0.1,1.1,0.2,1.7,0.2h1.4c1.2,0,2.2-0.2,3.2-0.7c3-1.3,5.1-4.2,5.1-7.7V215v-29.7
			h2.1c0.2,0,0.5-0.1,0.7-0.1c0.9-0.1,1.8-0.3,2.6-0.6C151.8,184.2,152.7,183.6,153.5,182.8z"/>
		<circle class="st1" cx="210.9" cy="51.6" r="17.1"/>
		<circle class="st0" cx="168.4" cy="89.4" r="17.1"/>
		<circle class="st0" cx="125.1" cy="112.2" r="17.1"/>
		<circle class="st0" cx="81.8" cy="89.4" r="17.1"/>
		<circle class="st1" cx="39.3" cy="51.6" r="17.1"/>
	</g>
</g>
</svg>
