<svg xmlns="http://www.w3.org/2000/svg" data-name="Layer 1" viewBox="0 0 250 250"><path fill="#1d1d1b" d="M59.62 99a24.41 24.41 0 0 1-.7-8.25c-3.24.74-11.05 2.89-15.08 4.06a24.75 24.75 0 0 1 3.34 7.81l3.71 12.8-13.62 4.26-4.6-13.27a20.76 20.76 0 0 1-1.39-7.78c-4.28 1.24-11.42 3.79-14.75 5a22.15 22.15 0 0 1 4.16 7.64l13 38a20.44 20.44 0 0 1 1.51 8.49C39 156.51 45.4 154.13 50 152.9a22.15 22.15 0 0 1-3.79-7.09L40.86 130l13-4.17 4.52 15.35c1 4.23 1.15 6.51.84 8.91 4-1.12 11.1-2.94 14.93-3.71a20.56 20.56 0 0 1-3.55-8.29zM118.82 132c0 3.26-.1 6.48-1.21 8.93 2-.05 4.77-.23 7.58-.23s5.65.14 7.58.18c-1-1.63-1.27-6.08-1.24-8.91V91a24.66 24.66 0 0 1 1.19-8.06c-4.94-.22-10.85-.28-15.25 0a28.47 28.47 0 0 1 1.28 8.3zM79.44 136.34a23 23 0 0 1 0 8.9c8.27-1.63 25.2-3.87 32.13-4.14l-.94-12.57a15.78 15.78 0 0 1-7.37 2.78l-12.43 1.54-1.8-13.53 7.7-.9a14.46 14.46 0 0 1 6.35.85l-1.55-13.7c-.71.38-1.54 1.37-6 1.76l-8.3 1L85.52 96.42s5.56-1 12.6-1.8c5.5-.63 8.47.49 8.47.49l-.78-11.59a350.32 350.32 0 0 0-35.26 4.85c1.48 2.54 2 4.68 2.6 8.38zM141.65 132.93c-.27 2.31-.87 5.87-2.21 8.22 3.8.29 10 .68 13.81 1.23-1-2.67-.64-6.18-.37-8.48l2.41-25.9c.09.28 9.54 31.72 11.14 36.23 2.6.46 8.22 1.59 11.59 2.34a19.79 19.79 0 0 1 .06-7.82h0s8.35-40.61 8.34-40.6c.84-3.67 1.23-5.67 3-7.93-3.51-.74-10.34-2.26-13.75-2.84.52 2.14.52 4.39-.47 8.72l-4.78 24.66L159.51 85c-3.17-.43-9.46-1.14-14-1.42a21.8 21.8 0 0 1 .25 8.41zM221.38 145.83A23.88 23.88 0 0 1 212 145l-12.19-3.94 33.62-28.23-2.09-10.23c-8.5-3.2-24.38-8.2-32.09-10L196 104.1c2.07-.62 6.15 0 8.35.59l14.93 4.55-34.17 28.48.73 10.71a290.93 290.93 0 0 1 30.89 9.78z"/><path fill="#c41230" d="M83.85 161.31a.31.31 0 0 0-.1.13 2.25 2.25 0 0 1-.49.73 2.43 2.43 0 0 1-1 .1c-.65 0-.8-.08-.82-.1a1.49 1.49 0 0 1-.09-.72v-1.2h.47a4 4 0 0 1 .61 0 .62.62 0 0 1 0 .1l.07.35a.61.61 0 0 0 .07.14.52.52 0 0 0 .79-.06.27.27 0 0 0 0-.16c0-.09 0-.22 0-.36s0-.34 0-.51 0-.38 0-.55 0-.27 0-.37a.33.33 0 0 0 0-.17.52.52 0 0 0-.79-.05.35.35 0 0 0-.07.15l-.06.37 0 .07a4.78 4.78 0 0 1-.63 0h-.47v-1.78h.57a4 4 0 0 1 .78.05c.25.06.3.18.44.64a.27.27 0 0 0 .06.12.52.52 0 0 0 .76 0 .5.5 0 0 0 0-.27 8.06 8.06 0 0 0-.15-1.23.37.37 0 0 0-.4-.23c-.1 0-.69 0-1.12 0H80.69l-1 0a.32.32 0 0 0-.17 0 .46.46 0 0 0-.23.41.43.43 0 0 0 .19.4l.13.05.15 0a1.46 1.46 0 0 0 .2 0 3.1 3.1 0 0 1 0 .78v3.29a2.74 2.74 0 0 1-.06.77.74.74 0 0 1-.19 0l-.29 0a.35.35 0 0 0-.23.12.52.52 0 0 0-.1.43.42.42 0 0 0 .22.31.25.25 0 0 0 .17 0l1.19 0h.8q1.19 0 2.37 0h0a.32.32 0 0 0 .3-.19 8 8 0 0 0 .43-1.36.31.31 0 0 0 0-.19.51.51 0 0 0-.73-.2M98 156.67a3.71 3.71 0 0 0-1.35-.19c-.46 0-.92 0-1.43.05a.31.31 0 0 0-.13 0s0 0 0 0a.65.65 0 0 0 0-.13.44.44 0 0 0-.41-.21l-.17 0a.33.33 0 0 0-.19.16l0 .06a2 2 0 0 1-.36 0h-4a.4.4 0 0 0-.08-.16.44.44 0 0 0-.33-.13.55.55 0 0 0-.28.08.33.33 0 0 0-.14.22 9.46 9.46 0 0 1-.32 1.3.17.17 0 0 0 0 .07 4.51 4.51 0 0 0-.2-1.13.35.35 0 0 0-.31-.21l-.21 0a3.36 3.36 0 0 0-.93-.14 2.17 2.17 0 0 0-1.61.61 1.78 1.78 0 0 0-.5 1.31A2.34 2.34 0 0 0 86 160.14l.86.57a1.09 1.09 0 0 1 .6 1 .7.7 0 0 1-.18.51.79.79 0 0 1-.57.2c-.59 0-1-.38-1.24-1.13a.2.2 0 0 0 0-.08.49.49 0 0 0-.76 0 .27.27 0 0 0-.06.21 4.81 4.81 0 0 0 .3 1.41.5.5 0 0 0 .12.13 3.11 3.11 0 0 0 1.57.39 2.2 2.2 0 0 0 1.65-.62 1.92 1.92 0 0 0 .54-1.42 2.41 2.41 0 0 0-1.31-2l-.71-.45c-.41-.28-.62-.56-.63-.86a.67.67 0 0 1 .16-.49.7.7 0 0 1 .54-.17c.57 0 .77.31.91.78a.24.24 0 0 0 .06.11.42.42 0 0 0 .35.16.53.53 0 0 0 .42-.2.37.37 0 0 0 0-.18.1.1 0 0 0 0 .07.51.51 0 0 0 .72.19.36.36 0 0 0 .12-.15 1.51 1.51 0 0 1 .31-.5 1.58 1.58 0 0 1 .86-.14h.43v4a3.32 3.32 0 0 1 0 .77.92.92 0 0 1-.2 0l-.32 0a.33.33 0 0 0-.15.05.46.46 0 0 0-.2.42.45.45 0 0 0 .22.39.29.29 0 0 0 .16 0h0l1.23 0 1.15 0a.28.28 0 0 0 .17 0 .45.45 0 0 0 .22-.39.44.44 0 0 0-.17-.41.38.38 0 0 0-.16-.06l-.29 0a1.63 1.63 0 0 0-.18 0 3.86 3.86 0 0 1 0-.78v-4h.55c.42 0 .67 0 .8.14a1.29 1.29 0 0 1 .12.46.31.31 0 0 0 .06.16.51.51 0 0 0 .8-.07.29.29 0 0 0 0-.18 3.84 3.84 0 0 1 .06-.82.31.31 0 0 0 .09.11.44.44 0 0 0 .16.06h.07a1.23 1.23 0 0 1 0 .23v2.2c0 .12 0 .29 0 .38h0l-.13 0a.34.34 0 0 0-.19.09.45.45 0 0 0-.11.37.39.39 0 0 0 .2.3.41.41 0 0 0 .17.05c.27 0 .46 0 .7 0l.3 0c.18 0 .4 0 .61 0a3 3 0 0 0 1.43-.33 2.23 2.23 0 0 0 1.15-2 2.09 2.09 0 0 0-1.36-2m.13 2c0 1-.42 1.47-1.25 1.47-.35 0-.39-.07-.41-.1a.93.93 0 0 1 0-.43v-2.31h.27a1.29 1.29 0 0 1 1.44 1.38"/><path fill="#c41230" d="M96.91 161.26a1 1 0 1 0 .93 1 1 1 0 0 0-.93-1M156.56 161.31a.35.35 0 0 0-.11.13 2.53 2.53 0 0 1-.48.73 2.5 2.5 0 0 1-1 .1c-.63 0-.79-.07-.82-.1a1.72 1.72 0 0 1-.08-.72v-1.2h.47a3.7 3.7 0 0 1 .6 0s0 0 0 .1l.08.36a.37.37 0 0 0 0 .11.51.51 0 0 0 .8 0 .42.42 0 0 0 0-.16c0-.09 0-.22 0-.36s0-.34 0-.51 0-.38 0-.55 0-.27 0-.38a.42.42 0 0 0 0-.15.51.51 0 0 0-.8 0 .43.43 0 0 0 0 .12l-.08.38a.56.56 0 0 1 0 .07 4.78 4.78 0 0 1-.63 0h-.47v-1.78h.58a4 4 0 0 1 .77.05c.24.06.29.18.44.64a.37.37 0 0 0 .07.14.54.54 0 0 0 .75-.07.4.4 0 0 0 .06-.22v-.08a9 9 0 0 0-.16-1.21.35.35 0 0 0-.39-.22c-.1 0-.67 0-1.13 0H153.4c-.36 0-.65 0-1 0a.33.33 0 0 0-.17 0 .5.5 0 0 0 0 .81l.14.05.15 0c.16 0 .19 0 .19 0a3.1 3.1 0 0 1 .05.78v3.29a3.32 3.32 0 0 1-.05.77.77.77 0 0 1-.2 0l-.29 0a.3.3 0 0 0-.22.12.48.48 0 0 0-.1.42.42.42 0 0 0 .22.32.26.26 0 0 0 .15 0h0l1.19 0h.8l2.37 0a.35.35 0 0 0 .31-.19 8 8 0 0 0 .42-1.36.31.31 0 0 0 0-.19.51.51 0 0 0-.72-.2M170.79 156.67a3.77 3.77 0 0 0-1.35-.19c-.49 0-.95 0-1.44.05l-.12 0 0 0a.65.65 0 0 0 0-.13.48.48 0 0 0-.41-.2l-.17 0a.3.3 0 0 0-.19.16.25.25 0 0 1 0 .06 1.89 1.89 0 0 1-.35 0h-4a.46.46 0 0 0-.07-.16.44.44 0 0 0-.33-.14.48.48 0 0 0-.29.08.3.3 0 0 0-.14.22 12.27 12.27 0 0 1-.32 1.3.17.17 0 0 0 0 .07 4.22 4.22 0 0 0-.21-1.13.35.35 0 0 0-.31-.21l-.2 0a3.09 3.09 0 0 0-.94-.14 2.19 2.19 0 0 0-1.61.61 1.82 1.82 0 0 0-.5 1.31 2.34 2.34 0 0 0 1.14 1.84l.86.57a1.07 1.07 0 0 1 .61 1 .7.7 0 0 1-.18.5.8.8 0 0 1-.57.21c-.58 0-1-.38-1.25-1.13a.3.3 0 0 0 0-.08.49.49 0 0 0-.76 0 .31.31 0 0 0-.05.21 5 5 0 0 0 .29 1.42.74.74 0 0 0 .13.12 3 3 0 0 0 1.57.39 2.26 2.26 0 0 0 1.66-.62 1.9 1.9 0 0 0 .53-1.42 2.43 2.43 0 0 0-1.31-2l-.71-.45c-.42-.27-.63-.56-.63-.86a.67.67 0 0 1 .16-.49.7.7 0 0 1 .54-.17c.56 0 .76.31.91.78a.19.19 0 0 0 0 .1.41.41 0 0 0 .35.18.51.51 0 0 0 .42-.22.26.26 0 0 0 0-.17s0 .05 0 .08a.53.53 0 0 0 .73.19.57.57 0 0 0 .12-.15 1.14 1.14 0 0 1 .32-.51 1.54 1.54 0 0 1 .86-.14h.41v4a4.08 4.08 0 0 1 0 .77.88.88 0 0 1-.19 0l-.33 0a.4.4 0 0 0-.35.48.46.46 0 0 0 .21.38.3.3 0 0 0 .18 0l1.23 0 1.14 0h0a.32.32 0 0 0 .16 0 .51.51 0 0 0 .22-.4.48.48 0 0 0-.17-.39.36.36 0 0 0-.17-.07l-.27 0a.58.58 0 0 1-.19 0 2.93 2.93 0 0 1-.05-.77v-4h.55c.42 0 .68 0 .8.14a1 1 0 0 1 .12.46.36.36 0 0 0 .07.17.51.51 0 0 0 .79-.07.28.28 0 0 0 0-.2 3.74 3.74 0 0 1 .06-.8.31.31 0 0 0 .07.09.41.41 0 0 0 .17.07h.08a1.42 1.42 0 0 1 0 .23v2.2c0 .13 0 .29 0 .38H168l-.13 0a.38.38 0 0 0-.17.08.45.45 0 0 0-.13.37.44.44 0 0 0 .21.32.35.35 0 0 0 .17 0l.69 0 .3 0c.18 0 .4 0 .62 0a3.07 3.07 0 0 0 1.42-.32 2.25 2.25 0 0 0 1.16-2 2.09 2.09 0 0 0-1.36-2m.12 2c0 1-.42 1.47-1.24 1.47-.35 0-.39-.07-.42-.1a1 1 0 0 1-.05-.43v-2.31h.27a1.29 1.29 0 0 1 1.44 1.38"/><path fill="#c41230" d="M169.7 161.26a1 1 0 1 0 .92 1 1 1 0 0 0-.92-1M110.19 166c-1.77 0-1.77-.33-1.77-2V152.94a.34.34 0 0 0-.33-.34h-.44a.28.28 0 0 0-.13 0l-4.09 1.6a.36.36 0 0 0-.2.2.34.34 0 0 0 0 .28l.18.31a.34.34 0 0 0 .42.14 3.13 3.13 0 0 1 1.17-.28c.36 0 .65 0 .65 1.58v8.09c0 1.29 0 1.39-1.83 1.43a.35.35 0 0 0-.33.34v.36a.34.34 0 0 0 .34.34h6.33a.34.34 0 0 0 .34-.34v-.36a.34.34 0 0 0-.34-.34M118.62 159.26c1.32-.67 3.15-1.76 3.15-3.39s-1.74-3.27-5-3.27c-2.36 0-4.86 1.23-4.86 3.51 0 1.77 1.39 2.8 2.83 3.76-1.52.9-3.06 2.13-3.06 3.8 0 1.19 1.26 3.63 5.17 3.63 2.59 0 5.22-1.31 5.22-3.83 0-1.93-1.82-3.15-3.5-4.21m.69-3.54c0 1.26-.77 1.87-2 2.72l-.65-.43c-1.13-.72-2.29-1.46-2.29-2.55s1.28-1.58 2.46-1.58c1.55 0 2.44.67 2.44 1.84m-3.33 5c2.75 1.78 3.69 2.71 3.69 3.66S118.35 166 117.1 166c-1.7 0-2.8-1-2.8-2.47a3.6 3.6 0 0 1 1.68-2.87M130.65 157.85a7.52 7.52 0 0 0-3 .64 7.76 7.76 0 0 1 6.93-4.85.34.34 0 0 0 .32-.33v-.37a.33.33 0 0 0-.33-.34h-.53c-5.39 0-10.11 4.1-10.11 8.78a5.78 5.78 0 0 0 5.69 5.92 5.37 5.37 0 0 0 5.61-5.11 4.38 4.38 0 0 0-4.61-4.34m-3.44 2.26a5.19 5.19 0 0 1 2.27-.74c2.29 0 2.9 2.49 2.9 3.81a2.54 2.54 0 0 1-2.52 2.84c-2.13 0-2.85-2.8-2.85-4.07a10 10 0 0 1 .2-1.84M142.19 152.6a5.39 5.39 0 0 0-5.6 5.15 4.38 4.38 0 0 0 4.61 4.36 7.46 7.46 0 0 0 3-.66 7.48 7.48 0 0 1-6.87 4.81.34.34 0 0 0-.34.34V167a.34.34 0 0 0 .34.33h.41c6 0 10.21-4.6 10.21-8.73a5.82 5.82 0 0 0-5.71-6m-2.73 4.18c0-.49.12-2.9 2.52-2.9 2.15 0 2.87 2.84 2.87 4.14a10.37 10.37 0 0 1-.19 1.82 5.17 5.17 0 0 1-2.45.71c-2.17 0-2.75-2.47-2.75-3.77"/></svg>