<svg xmlns="http://www.w3.org/2000/svg" viewBox="0 0 760 440" xmlns:v="https://vecta.io/nano"><style><![CDATA[.Bg{fill:#ffb27d}.Bh{fill:#233862}.Bi{fill:#f99746}.Bj{fill:#ed7d2b}.Bk{fill:#2a4e96}]]></style><path d="M66.4 437.8S-44.3 320.1 33.3 210.3c29-41 102.9-64 170.9-45.3 40.2 11 101.1 9.4 160.6-87.8C446-55.3 782.9 5 717.1 237.1c-27.7 97.8 75.6 102.2 24.4 200.8l-675.1-.1z" fill="#ebf3fa"/><path d="M523.6 94.6s5.7-10.1 0-12.2-8.3-.2-8.5 2.1c-.3 2.3 2.2 11.4 2.2 11.4l6.3-1.3z" class="Bg"/><path d="M519.1 159.3a181.08 181.08 0 0 0 28.5 2.9c8.2.2 15.5-.2 21.9-1 1.7-.2 3.4-.4 5-.7 16.8-2.5 26.1-7.1 26.1-7.1s-15.3-32.1-27.7-30.9c-14.5 1.4-39.2 14.5-41.6 10.8-2.8-4.1-5.1-39.5-5.1-39.5-6.4-4.4-10.3.2-10.3.2s-12.7 62.4 3.2 65.3z" class="Bi"/><path d="M519.1 159.3a181.08 181.08 0 0 0 28.5 2.9c8.2.2 15.5-.2 21.9-1 3.9-12.3 6.7-24.9-1.1-17.3-13.7 13.4-49.3 15.4-49.3 15.4z" class="Bj"/><path d="M601.7 418.6s1.1 12.8-1.6 14.1l-34.5-.1s0-4 5.5-4.9 15.3-4.1 16.9-11.4c1.7-7.1 13.7 2.3 13.7 2.3z" class="Bh"/><path d="M576.4 264.1c.2 8.4.6 17 1.4 24.7 3.7 36.7 5 81.1 5.6 89.7.9 14.9 3.9 38.6 3.9 38.6s5.8 5.5 17.2 2.9c0 0 9.4-34.2 11.5-70.2 0-.6.1-1.2.1-1.8l.8-16.1 3.6-97.7-43.4-10.2c-.2.1-1.2 19.2-.7 40.1z" class="Bk"/><path d="M576.4 264.1l40.3 67.8 3.6-97.7-43.4-10.2c0 .1-1 19.2-.5 40.1z" class="Bh"/><path d="M686.1 227.3s7.1 8.3 7.7 10.6 1.8 10.6 1.2 13.1-5.3-6.9-7-8c-1.7-1 1.3 3.8.7 4.5-.6.8-4-2.8-5.3-4s-1.2-7.7-2.8-11.6c-1.5-3.7 5.5-4.6 5.5-4.6z" class="Bg"/><path d="M687.8 404.1s6.1 5.6 4.9 9.6-6.7 6.6-7.5 11.5-3.7 7.5-6.4 7.5h-12.9s-2-3.4 2.8-4.5c4.8-1 6.6-6.8 6.3-12.1s.4-12.4.4-12.4l10.2-2.4 2.2 2.8z" class="Bh"/><path d="M583.8 235.1S624.4 321.9 646 360l28.3 48.7s12.4-4.9 13.5-8.2c0 0-8.3-73.6-22.7-91.5-8.2-10.1-17.8-40.5-18.2-51.2-.4-10.6-9.9-36-9.9-36l-53.2 13.3z" class="Bk"/><path d="M571.9 239.2s16.1 10.8 39 9.8c10-.4 29.9-3.3 33.1-11.3.8-1.9.2-4.2-.9-7.9-2.9-9.5-9.8-27.5-7.7-67.5.2-3.7.1-7.2-.3-10.5-2.2-19.7-13.4-31.4-24.4-35.2-26.6-9.3-35.5 3.6-35.5 3.6s-11.8 9.3-13.5 28.8c-3.6 38.9 10.2 90.2 10.2 90.2z" class="Bi"/><path d="M602.9 114.4s-12.2 7.4-25.5 5.3c0 0-2.6-.7-1.3-3.7l-1.2-4.1c-1.2-4.2-1.5-6.7-1.5-6.7l7.5-7.9 7.1-7.6c2.1 18.1 14.9 24.7 14.9 24.7z" class="Bg"/><path d="M589.2 96.6s-4.1 10.9-14.3 15.3c-1.2-4.2-1.9-8.7-1.9-8.7l7.9-5.9 8.3-.7z" fill="#ed985f"/><path d="M565 104.8s23.3 2.9 25-11.4c1.6-14.3 5.7-23.6-9.1-26.1s-18.3 2.7-20.1 7.3c-1.7 4.7-1.8 29.1 4.2 30.2z" class="Bg"/><path d="M597.3 65c.2-.2.7-.5 1.8-.6 0 0-.9-.5-2-.5-.3-1.5-1.2-4.1-3.8-4.7 0 0 1.4.7 1.7 2.3-3.1-3-9.6-5-27.3-2.9-23.3 2.7-15.1 17.4-12 19.1s10.5-3.5 16.2-3.3 7 8.4 9 9.4 1.1-.9 3.7-2.2c2.5-1.3 3 3 2.3 5.8-.6 2.8 3.1 6.4 3.1 6.4l3.5-4c3.5-4 6.2-20.6 4.5-24-.4-.2-.5-.5-.7-.8z" fill="#2c3a64"/><g class="Bk"><path d="M526.1 87.9l39.6.3.3-5.9-39.5-3.1z"/><path d="M496.2 88.9l43.1.6.5-10.8-43-3.4z"/></g><g class="Bh"><path d="M467.2 89.7l36.3.1.7-14.7-36.2-3.2z"/><path d="M466.6 92.2h0c-1.1-.1-2-1-1.9-2.1l.9-18.8c.1-1.1 1-2 2.1-1.9h0c1.1.1 2 1 1.9 2.1l-.9 18.8c0 1.1-.9 1.9-2.1 1.9z"/></g><path d="M565.8 89.5h0a1.86 1.86 0 0 0 1.9-1.7l.2-4.9a1.86 1.86 0 0 0-1.7-1.9h0a1.86 1.86 0 0 0-1.9 1.7l-.2 4.9c0 1 .7 1.9 1.7 1.9z" class="Bk"/><path d="M643.1 229.9c-2.9-9.5-9.8-27.5-7.7-67.5.2-3.7.1-7.2-.3-10.5h0c-8.8-.8-22.2 8.7-22.2 8.7s8.3 50.2 30.2 69.3z" class="Bj"/><path d="M602.9 114.4s22.5 3.9 34.2 18.2 30.6 34.5 35 41.5c4.5 7.1 16.8 55.1 16.8 55.1s-.8 1.5-4.2 2.4c-3.3.9-5.6-.5-5.6-.5S662.7 203 656.5 189c-2.6-5.8-46.9-28.9-63.6-26.5-6.5 1.1 10-48.1 10-48.1z" class="Bi"/><path d="M526.3 77.5s-4.8 3-7.7 1.7-2.6-2.4-2.6-2.4 8.7-2.4 10.3.7z" class="Bg"/><path d="M581.1 130.1s9.9 62.2 79.8 80.4l7.6 15-13.4 2.3s-79.6-23.1-78.6-98.8l4.6 1.1z" fill="#bc3f3f"/><path d="M582.7 120.1l3.2.4v4.6l-4.8 5-4.5-1.1v-6.5l3.3-2.4z" fill="#a02e2e"/><g class="Bj"><path d="M595.3 107.8s3.1.7 10.3 6.6c0 0-7.1 15.1-22.1 16.9 0 0 .2-7-.8-11.2 0 0 11.8-4.2 12.6-12.3z"/><path d="M582.7 120.1s-7.3 3.9-7.9 9.9c0 0-2.8-4.4-2-7.5s3.3-6.6 3.3-6.6-.2 3.8 6.6 4.2z"/></g><path d="M385.7 173.2c-.6-10.3-17.7-10.8-17.7-10.8s-14.8 14.7-18.2 14.5c-3.3-.3 10.2-15.1 10.2-15.1-6.2-1.9-23.9 2.4-23.9 2.4s-3.2 20.2-6.4 19.1 3.7-17.7 3.7-17.7c-6.5.5-13.7 6.5-13.7 6.5-9.6 10.1 3.9 21.9 3.9 21.9s-1.3 7-7.2 14c0 0-1.3 1.3-2.8 3.5l1.7.4c.2-.4.5-.8.7-1.2.2-.2.4-.6.7-1 .7-.9 1.2-1.6 1.5-2 2.2-2.8 5.2-6.4 6.9-7 0 0-.1-.3-.2-.8.1.3.1.5.2.8 1.6 6.7 15.6 10.7 23.9 10.8 8.3 0 5.3-2.9 1.8-7.5-3.5-4.5-12.7-5.5-15-7.5s1.8-2.6 7-1.1 6.7 7.4 15.1 10 18.3-12.1 18.3-12.1c-6.3.6-16.2-4.9-16.2-7s15.7 1.4 18.2 1.3c2.8-.1 8.1-4.1 7.5-14.4z" fill="#dfebfd"/><path d="M329.6 149.9s10.3-37 33.1-56.6c3-2.6 7.7.1 7 4v.2c-1.3 6.7-27.4 31.8-40.1 52.4zm-4 10.4s26.5-44.2 62.7-60c2.2-1 4.9-.1 5.9 2.1.7 1.4.8 3.5-.7 6.4-4 7.9-45 30.2-67.9 51.5zm-4.2 187.1s40.3-20.2 47.6-13.2-47.6 13.2-47.6 13.2zm-6.6 2.4s53.9-4.7 54.8 6.5-54.8-6.5-54.8-6.5z" opacity=".5" fill="#afcdfb"/><path d="M128.9 112.2c6.9-21.2 42.8-12.7 42.8-12.7s22.8 38.8 29.9 40.1c7.1 1.2-13-37-13-37 14-.7 48.5 18.1 48.5 18.1s-4.4 43.8 2.8 43.2c7.2-.5 1.9-39 1.9-39 13.2 4.7 25 21 25 21 14.4 26.3-20.1 43.5-20.1 43.5s-1.2 15.2 7.4 33.1h0s2 3.3 3.9 8.9l-3.7-.2c-.3-1-.5-2-.9-2.9-.2-.6-.5-1.4-.9-2.4-1-2.2-1.7-3.9-2.1-5.1-3-7-7.4-16.2-10.5-18.3 0 0 .4-.6.9-1.6-.3.5-.6 1.1-.9 1.6-6.9 13.1-38.4 13.8-55.7 9.4s-9.4-9 .4-16.5 29.4-4.5 35.4-7.3-2.4-6.4-14.1-6.1-18.1 11.7-37 12.6-31.5-35.2-31.5-35.2c12.8 4.7 36.4-1.4 37.6-5.8 1.1-4.4-33.4-5.7-38.7-7.3-5.4-1.7-14.3-12.9-7.4-34.1zm246.7 160.1c-3.4-12.6-24.8-8.7-24.8-8.7s-14.5 22.1-18.7 22.7c-4.2.5 8.7-21.3 8.7-21.3-8.2-.8-29 9.2-29 9.2s1.3 25.8-2.9 25.3 0-22.9 0-22.9c-7.9 2.4-15.3 11.6-15.3 11.6-9.2 15 10.5 26.1 10.5 26.1s.3 9-5.3 19.2h0s-1.2 1.9-2.5 5.1h2.2c.2-.6.4-1.1.6-1.7.1-.3.4-.8.6-1.4a33.84 33.84 0 0 0 1.4-2.9c2-4 4.8-9.3 6.7-10.4 0 0-.2-.3-.5-1 .1.3.3.6.5 1 3.7 7.9 22.1 9.2 32.4 7.1s5.8-5 .3-9.7-17.1-3.5-20.5-5.3 1.6-3.7 8.4-3.2 10.3 7.4 21.3 8.4c11.1 1.1 19.5-19.8 19.5-19.8-7.6 2.4-21.3-1.8-21.9-4.5-.5-2.6 19.8-2.4 22.9-3.2 3.3-.7 8.8-7.1 5.4-19.7z" fill="#dfebfd"/><path d="M154.4 257.5c7.6-14.4 32.3-3.8 32.3-3.8s11.5 30.7 16.5 32.5-4.7-28.2-4.7-28.2c10.1 1.3 32.6 19 32.6 19s-8.6 30.9-3.4 31.4 6.2-27.7 6.2-27.7c8.9 5 15.3 18.2 15.3 18.2 7.1 20.7-19.9 28.7-19.9 28.7s-2.8 10.8 1.1 24.7h0s1 2.6 1.7 6.9l-2.6-.6c-.1-.7-.1-1.5-.3-2.2-.1-.4-.2-1.1-.4-1.8l-.9-3.9c-1.3-5.4-3.3-12.6-5.3-14.4 0 0 .4-.3.8-1.1-.3.3-.5.7-.8 1.1-6.6 8.6-29.3 5.1-41.2-.2s-5.7-7.6 2.3-11.8 21.7.5 26.3-.8-.9-4.9-9.3-6.1-14.4 6.1-28.1 4.4-18.2-29.2-18.2-29.2c8.6 4.9 26.3 3.6 27.7.5 1.4-3-23.3-8.2-26.9-10.1-3.4-2-8.4-11.1-.8-25.5z" fill="#cde0fb"/><path d="M147.5 374.8c-4-8.7 9.8-16.5 9.8-16.5s18.5 5.6 21.1 3.9-14.9-7.9-14.9-7.9c4.2-4.3 20.6-8.4 20.6-8.4s11.4 15.1 13.5 12.8-10.8-12.9-10.8-12.9c5.5-2.4 14-.7 14-.7 12.2 4.1 6.3 19.6 6.3 19.6s4.1 5.1 12 8.3h0s1.6.5 3.8 1.7l-1.2 1c-.4-.2-.7-.5-1.1-.7l-1-.5c-1-.4-1.7-.7-2.1-1-3-1.3-7.1-3-8.7-2.7 0 0 0-.3-.2-.8.1.2.1.5.2.8 1.6 6.2-8.1 15.6-14.8 19.2-6.8 3.6-5.6-.1-4.7-5.3s8-10 9-12.6c1.1-2.6-2.6-1.3-6.2 2.2s-2.3 9-8 14.7c-5.7 5.8-20.2-1.9-20.2-1.9 5.4-2.3 11.1-11 10.2-12.8-.9-1.7-12.2 7.9-14.3 9-2.3 1.2-8.3.2-12.3-8.5z" fill="#d9e8fa"/><path d="M277.1 283.8c-.2.4-1.3 2 .1 3.9.1.1.1.2.2.3 16.2 9.7 64.9 49.2 64.9 77v57.6H195.4V365c0-28 49.3-68 65.2-77.2.5-.7.7-1.4.7-2 0-1.2-.7-2-.7-2-15.9-9.4-65.2-49.2-65.2-77.2V149h146.9v57.6c-.1 27.9-49.2 67.9-65.2 77.2z" fill="#b0d4ff"/><path d="M350.7,437.4H185.8v-3.1c0-6.5,5.3-11.8,11.8-11.8h141.8c6.2,0,11.3,5,11.3,11.3V437.4z" class="Bi"/><path d="M237.4 368.5c-.8 12.9 1.7 40.7 1.5 54h-43.5v-57.6c0-28 49.3-68 65.2-77.2.5-.7.7-1.4.7-2 0-1.2-.7-2-.7-2-15.9-9.4-65.2-49.2-65.2-77.2V149h29.1l20.8 5.7v45.5s-2.1 13.1 3.1 26 16.2 54.2 16 59.6c-.2 5.3-25.7 60.6-27 82.7z" fill="#a4c8fc"/><path d="M323.2 187.2c-8.9.1-24.2 1.7-49 8-17 4.3-46.2 1.1-61.6-1.2-5.4-.8-10.3 3.4-10.3 8.9v6.6c0 18.3 49.2 57.9 62.2 68 2 1.5 3.1 3.9 3.1 6.4v101.7c0 3.5-1.7 6.7-4.6 8.7-10.2 7.2-27.5 28.1-27.5 28.1h65.2s-17.5-20.2-27.3-27.7c-2.2-1.7-3.6-4.4-3.6-7.2V284c0-2.5 1.1-4.8 3.1-6.4 12.8-10.2 60.9-50 60.9-68.2v-11.6a10.42 10.42 0 0 0-10.6-10.6z" fill="#739af0"/><path d="M338.9 154.6H197.1a11.29 11.29 0 0 1-11.3-11.3v-3.5h164.9v3.1c0 6.5-5.3 11.7-11.8 11.7z" class="Bi"/><path d="M258.1 132.7c-3.4 6-7.8 8.3-7.8 8.3h-18s28.4-12.8 25.8-8.3z" class="Bh"/><path d="M244.2 179c-.5.5-.5 1.1-.3 1.8.4 1.2 1.8 2.5 3.5 3.8.2.2.4.3.6.5l.1.1.1.1c1.5 1.4 1 1.7 3.7 4.6 3.1 3.3 5.3 3.3 5.9 3 .5-.3-.5-2-1.7-3.9-.1-.1-.1-.2-.2-.3l-.5-.8c-1.4-2.3-1-3.5-.7-6.9.3-2.8 4.4-15.9 4.4-15.9l-6-1s-1.8 10.4-3.8 12c-1.1.9-2.3.9-3.3 1.5-.1 0-.1.1-.2.1-.5.4-1.1.8-1.6 1.3z" class="Bg"/><path d="M244.2 179c-.5.5-.5 1.1-.3 1.8.5 1.2 1.9 2.5 3.5 3.8.2.2.4.3.6.5l.1.1.1.1c1.5 1.4 1 1.7 3.7 4.6 3.1 3.3 5.3 3.3 5.9 3 .5-.3-.5-2-1.7-3.9-.6-.2-3.5-1.4-5.6-4.1-1.9-2.4-3.2-5.5-4.4-7.3-.1 0-.1.1-.2.1-.6.4-1.2.8-1.7 1.3z" class="Bh"/><path d="M292.9 175.3c.4 1.9 3 1.6 6 .8 3-.7 2.3.1 6.5-.3 4.2-.5 5.5-2 5.6-2.7.1-.6-2-.8-4.2-1-.3 0-.6-.1-.8-.1-2.5-.3-4.4-1.9-6.7-3.3-2.2-1.3-5.4-6.4-5.4-6.4l-5.8.5 4.2 6.6c.7 1.2.7 2.7.6 3.9-.1.7-.2 1.3 0 2z" class="Bg"/><path d="M298.8 176.1c3-.7 2.3.1 6.5-.3 4.2-.5 5.5-2 5.6-2.7.1-.6-2-.8-4.2-1h0s-2.5 1.8-6 1.9c-2.9.1-5.9-.8-7.9-.7 0 .7-.1 1.3 0 2 .4 1.8 3.1 1.5 6 .8zm-28.1-37.8l-5.4 14.6-7.1 19s-1.9.2-3.8-.3c-1.7-.5-3.6-1.8-3.6-1.8s2-20.4 5.6-32.1c.9-3 2-5.4 3.1-6.8 5.8-6.8 11.2 7.4 11.2 7.4z" class="Bh"/><path d="M265.2 115.2c-3.5-1.1-13.6.3-23.8 2.3l-2.1-3.5-21.9-1.7s-7.2 16-3.3 26.3c.6 1.5 2 2.1 4 2.2l17.3.3c10.9 0 23.1-7.5 24.6-7.8 2.6-.5 3.6 4.6 6.2 10.1 2.6 5.4 24.2 24 24.2 24s3.3 0 4.7-.5c1.5-.6 2-1.3 2-1.3s-23.9-47.8-31.9-50.4z" fill="#2b478b"/><path d="M236.9 49.6c-1.6-1-3.2-1.1-4.2-1.1-.7 0-1.4 0-2.1-.1-8.3-1.1-13.3 11-13.6 14.6-.5 6.7-4.1 7.8-9.1 12-10.1 8.5-7.1 18.3-1.6 22 3.3 2.2 9.1 0 9.1 0 .1.1 15.9-8.9 23.7-13.2 11.7-1.7 2.5-31.4-2.2-34.2z" class="Bh"/><path d="M232.6 80.1s-3.8 1.3-6.4.2c-2.4-1.1-4.3-5.1-4.2-5.1 1.1-.1 2.3-1 3.3-7.4l.5.2 7.9 2.9s-.6 2.5-.9 5c-.5 2-.6 3.9-.2 4.2z" class="Bg"/><path d="M233.6 70.9s-.6 2.5-.9 5c-4.6-.8-6.4-5.4-7-7.8l7.9 2.8z" fill="#ed975d"/><path d="M234.8 73.4s-10.9-1.5-9.9-8.2c1-6.8.3-11.5 7.3-10.8 7 .6 7.9 3.4 8.1 5.8.2 2.3-2.7 13.4-5.5 13.2z" class="Bg"/><g class="Bh"><path d="M239.9 56.4s-7 6-11.7 6.5-6.5-1-6.5-1 2.8-2.3 4.5-6.1c.5-1.1 1.5-1.9 2.7-2 3.4-.2 9.8-.4 11 2.6z"/><path d="M235.6 55.9s2.3 2.2 3.1 3.9c.7 1.6.9 5.5.4 7 0 0 3.6-7 1.6-10.5-2.3-3.6-5.1-.4-5.1-.4z"/></g><path d="M241.7 96.1c-.3 22-.1 17.4-2.5 19.5-.6.5-2.2.8-4.4.9-6.7.4-18.6-.7-19-1.9-1.6-4.3-.5-5.7-1.8-12.3-.1-.7-.3-1.5-.5-2.3-1.1-4.5-2.1-6.1 1.7-13.4 3.5-6.6 7.1-12 7.4-11.8 9.2 5.5 9.9.9 9.9.9s9.4 9.7 9.2 20.4z" fill="#fff"/><path d="M265.3 152.8l-7.1 19s-1.9.2-3.8-.3c-1.7-.5-3.6-1.8-3.6-1.8s2-20.4 5.6-32.1l8.9 15.2z" fill="#2b478b"/><path d="M232.6 75.9s9.5 1.6 10.6 5.7l7.6 28s-4.8.9-7-1.4c-2.2-2.2-7.7-20.6-7.7-20.6l-3.5-11.7z" fill="#fff"/><path d="M234.9 116.6c-6.7.4-18.6-.7-19-1.9-1.6-4.3-.5-5.7-1.8-12.3l3.3-9.2s-.5 10.2 2.5 12.9 12.3 5.2 13.8 7.4c.6 1.1 1.1 2.2 1.2 3.1z" fill="#ebf3ff"/><path d="M227.2 112.3s6.7-1.5 7.7-.9 3.7 2.7 4 3.5c.3.7-2.4-.6-3.3-.8-.6-.2-2.1.4-2.8.6-3.1 1-5.1.5-5.1.5l-.5-2.9z" class="Bg"/><path d="M222.7 75s-8.9.6-12 4.9c-4.4 6.1-13 31.9-8 35.4 5.6 3.9 25.4 1 25.4 1s.7-3.1-.3-4.6c-.9-1.5-15.8-3.9-16.5-4.6s8.6-13.4 8.6-15.5c-.1-2 2.8-16.6 2.8-16.6z" fill="#fff"/><g class="Bg"><path d="M235.2 113.2s1.4 1.8 1.9 2 .8.2.8.2l-.9-1.7-1.8-.5z"/><path d="M234.9 111.4l4.1 2s-.2.3-.7.3-1.8-.5-1.8-.5l-1.6-1.8z"/></g><path d="M237.1 118h32l9.7-24h-32z" class="Bi"/><path d="M269.5 117.1h-42.3v.9h41.9z" class="Bj"/><path d="M261 106c.2-.8-.2-1.5-1.1-1.5-.8 0-1.7.7-2 1.5-.2.8.2 1.5 1.1 1.5s1.8-.6 2-1.5z" fill="#fff"/></svg>