<svg xmlns="http://www.w3.org/2000/svg" viewBox="0 0 500 369" xmlns:v="https://vecta.io/nano"><style><![CDATA[.BG{fill:#ffb27d}.BH{fill:#233862}.BI{fill:#f99746}.BJ{fill:#ed7d2b}.BK{fill:#f9ddbf}.BL{fill:#163560}.BM{fill:#ebf3fa}.BN{fill:#f2ccaa}.BO{fill:#b5453c}]]></style><path d="M30.7 326.5s-35.4-39.8-17.9-116.6c11-48.3 57.8-78.1 119.4-70 57 7.5 56-22.6 105.9-51.4 106.7-61.5 261-35.4 224 103-17.9 67 56.2 68 19.4 135H30.7z" class="BM"/><path d="M333 76l-5-.2h-.1c-.6 0-1.1.4-1.2 1l-.6 4.1v.2c-.2.4-.5.8-1 .8-2.8.2-5.4 1-7.9 2.3-.1.1-.2.1-.3.1-.4.1-.8-.1-1.1-.4l-2.3-2.6c-.3-.3-.8-.5-1.2-.4a.76.76 0 0 0-.4.2l-4.2 2.9c-.5.4-.7 1.1-.4 1.6l2.3 4c.2.4.2.9-.1 1.3-.4.5-.7 1.1-1 1.7-.6 1.1-1.1 2.2-1.5 3.4h0c-.2.5-.6.8-1.1.8l-4.7.2h-.2a1.11 1.11 0 0 0-1.1 1.1l-.2 5.1c0 .6.4 1.2 1 1.3l4.6.7c.5.1.9.5 1 1 .4 2.1 1.1 4.2 2.1 6.1.3.5.1 1.1-.3 1.4l-3.1 2.7c-.5.4-.5 1.1-.2 1.6l2.9 4.2c.3.5 1 .6 1.5.3l4.7-2.7c.4-.2.9-.2 1.3 0l1.5.9c1 .5 1.9 1 2.9 1.3.5.2.8.6.8 1.1l.2 5.6a1.11 1.11 0 0 0 1.1 1.1l5.1.2a1.3 1.3 0 0 0 1.2-.8v-.2l.8-5.1c.1-.5.4-.9.9-1h.1c.1 0 .2 0 .4-.1 1.5-.2 2.9-.7 4.3-1.2.5-.2 1-.1 1.3.3l2.9 3.3c.4.5 1.1.5 1.6.2l.9-.6 3.2-2.3c.5-.4.7-1 .3-1.6l-2.3-3.9c-.2-.4-.2-.9.1-1.3.8-1 1.5-2.1 2.2-3.2a15.95 15.95 0 0 0 1.2-2.7h1l4-.2c.5 0 .9-.4 1.1-.8 0-.1 0-.2.1-.3l.2-5.1c0-.6-.4-1.1-1-1.2l-3.1-.5c-.5-.1-.9-.5-1-1.1-.2-2.2-.8-4.4-1.6-6.4-.2-.5-.1-1 .3-1.4l3.9-3.4c.4-.4.5-1 .2-1.5l-3-4.2c-.3-.5-1-.6-1.5-.3l-4.9 2.8c-.4.2-.9.2-1.3-.1-.8-.6-1.7-1.2-2.7-1.7-.5-.3-1-.5-1.6-.8-.4-.2-.7-.6-.7-1l-.2-5.4c0-.7-.5-1.2-1.1-1.2zm-15.5 20c.8-1.1 1.8-2.2 3.1-3.1l.9-.6c1.5-.8 3.6-1.2 5-1.2 11.2.6 15.2 13.9 6.4 20.6-.1.1-.3.2-.4.3-1.4 1-4 1.7-5.7 1.7-.9 0-1.8-.2-2.6-.3-8-1.9-11.2-11-6.7-17.4z" fill="#dfedfb"/><path d="M400.5 111.4l-7.6-1.3h-.2c-.9-.2-1.8.4-2.1 1.3l-1.8 6.2c0 .1-.1.2-.1.3-.3.6-1 1.1-1.7 1-4.3-.2-8.5.5-12.5 2-.2.1-.3.1-.5.1-.6 0-1.3-.3-1.6-.8l-3-4.4a1.84 1.84 0 0 0-1.8-.8c-.2 0-.4.1-.6.2l-6.9 3.7c-.9.4-1.2 1.5-.8 2.4l2.8 6.6c.3.6.2 1.4-.3 1.9-.7.8-1.3 1.6-1.9 2.4-1.1 1.6-2.1 3.2-2.9 4.9h0c-.3.7-1.1 1.1-1.8 1l-7.2-.6h-.4a1.77 1.77 0 0 0-1.9 1.5l-1.3 7.8c-.2.9.4 1.9 1.3 2.1l6.9 2c.8.2 1.3.9 1.3 1.7.2 3.3.8 6.6 2 9.7.3.8 0 1.7-.7 2.2l-5.3 3.6c-.8.5-1.1 1.6-.6 2.4l3.7 7c.4.8 1.4 1.2 2.3.8l7.7-3.3a1.84 1.84 0 0 1 2 .3c.7.6 1.4 1.1 2.1 1.6 1.4 1 2.8 1.9 4.2 2.6.7.3 1.1 1 1 1.8l-.7 8.7c-.1 1 .6 1.8 1.5 2l7.8 1.3c.8.1 1.6-.3 2-1.1 0-.1.1-.2.1-.2l2.2-7.6a1.83 1.83 0 0 1 1.5-1.3h.2.6c2.3-.1 4.6-.5 6.8-1 .7-.2 1.5.1 2 .7l3.8 5.6c.5.8 1.6 1 2.4.6l1.5-.8 5.4-2.9c.8-.4 1.2-1.5.8-2.4l-2.7-6.5c-.3-.7-.1-1.5.4-2 1.4-1.3 2.8-2.9 4-4.5.9-1.2 1.7-2.5 2.4-3.8l1.5.1 6.2.5c.8.1 1.5-.4 1.8-1 .1-.1.1-.3.1-.5l1.4-7.8c.2-.9-.4-1.8-1.3-2.1l-4.7-1.3c-.8-.2-1.3-1-1.3-1.8.1-3.4-.3-6.8-1.3-10.1-.2-.8.1-1.6.7-2l6.7-4.5c.7-.5 1-1.5.6-2.3l-3.7-7c-.4-.8-1.4-1.2-2.3-.8l-8 3.4c-.7.3-1.5.1-2-.4-1.1-1.1-2.4-2.2-3.8-3.2-.7-.5-1.5-1-2.2-1.5-.6-.4-.9-1-.9-1.7l.7-8.3c-.4-1.3-1.1-2.2-2-2.4zm-27.6 27.8c1.4-1.6 3.2-3 5.3-4.1.4-.2 1-.5 1.5-.7 2.5-.9 5.7-1.2 7.9-.8 17.1 3 20.7 24.2 5.8 32.8-.2.1-.5.3-.7.4-2.4 1.2-6.5 1.9-9.1 1.4-1.4-.2-2.7-.6-3.9-1-11.8-4.6-14.9-19.1-6.8-28z" fill="#cde3fd"/><path d="M148.5 166.5c-.4-10.6 8.4-15.3 17.5-15.3s18.9 2.3 19.8 16.4c.5 9-4.3 14.6-18.2 14.6-4.7 0-8.3-.7-11.1-2.1l-6.9 6.2 3.4-8.5c-3.1-2.7-4.4-6.7-4.5-11.3z" fill="#dfedfb"/><path d="M62.2 326s-.4-2.9-1.2-4.7c-.9-1.7-6.4-.6-6.4-.6s-1.1 1-1.3 5.4l8.9-.1zm18.9-.1c-1.3-.8-.6-6.7-.6-6.7s6.1-4.9 6.9-1.1c.8 3.7 5.8 5.4 8.6 5.8 1.9.3 2.5 1.4 2.7 2H81.1h0z" class="BH"/><path d="M68.5 282.8l.4 3.3c.6 11 9.3 36.2 10.8 36.8 2.4.9 6.2-1 8.2-1.7.8-.3 1.4-1.1 1.2-1.9-4.3-19.8-5.9-48.4-6.5-65.3-.3-8.5-1.8-14.4-1.8-14.4s-21.2-5.7-21.4 1.5c.1 6.3 7.2 31.2 9.1 41.7z" fill="#213f7a"/><path d="M68.5 282.8L82.7 254c-.3-8.5-1.8-14.4-1.8-14.4s-21.2-5.7-21.4 1.5c0 6.3 7.1 31.2 9 41.7z" class="BH"/><path d="M73.2 241.1L62 322.5s-4.9 1.2-8.8.2c0 0-3.3-43.3-3-53.7.3-10.5-2.4-28 .6-29.9 3-2 22.4 2 22.4 2z" fill="#213f7a"/><g class="BI"><path d="M50.1 220.2l-1.4 19.5c-.1.7.4 1.4 1.1 1.6 1.6.5 3.4.8 6.9 1.5 3.3.7 7.7 1.3 13.1 1.3 8.6.1 11.9-2.9 11.9-2.9.4 0-.2-1.8-.7-10.3-.2-2.9-.3-6.6-.5-11.2l-.2-15c0-7.1-11-14.7-11.2-14.7h0c0 1-1.6 2.9-4.1 3.1-2.9.2-6.5-1.3-6.5-3 0 0-5.3 8.5-7.2 17.6l-.6 3.6v.1c0 .2-.1.5-.1.7v.1c0 .2 0 .4-.1.7v.2c0 .2 0 .4-.1.6v.1.5.3.5.3.5.2.7.1.7.2.7.1c-.3.5-.3 1-.3 1.6h0 0z"/><path d="M69 190s10.2-.1 12.6 3.4c2.5 3.4 7.8 22 5 28.1-2.8 6.2-8.1-2.5-11-6.3C72.8 211.3 69 190 69 190z"/></g><path d="M69.1 188.4v1.1s.3 3.3-3.8 3.8-7.1-.6-7-3.2c.4-2 .7-4 .7-5.6 0-.6 0-1.2-.1-2l7.9-.2 2.3.4v5.7z" class="BG"/><path d="M69.2 182.7v5.7c-.8.4-1.8.6-2.8.6-3.6 0-6-2.7-7.2-4.6 0-.6 0-1.2-.1-2l7.9-.2 2.2.5z" fill="#e2915a"/><path d="M58.4 181.2c.9 4.9 7.2 4.7 10 4.4.8-.1 1.3-.2 1.3-.2.9-.2 1.4-1.6 1.6-3.4.4-3.5-.1-8.8-.7-10.1-.9-2-2.6-4.2-9-2.6-6.5 1.6-4.4 5.6-3.2 11.9z" class="BG"/><path d="M79.5 203.8s3.9 8.7 3.8 11.3c0 0-2-.1-3.8.5-3.1.9 0-11.8 0-11.8z" class="BJ"/><path d="M72.4 167.3s-2.8-.2-6.1-1.7c-2.7-1.2-6.1.1-7.2.7 0-.2.1-.4.3-.7 0 0-.5.4-.6.8-.1 0-.1.1-.1.1s-.6-.1-.9.1c0 0 .3 0 .3.1h0c-4.2 2-4.6 8.7-3.2 10.2 1.6 1.8 3.6 6 3.6 6s.7-1 .4-2.6 1.1-1.6 2.9-2.4c1.8-.7.3-2.8 1.8-4.1 1.6-1.3 7.2-.5 7.2-1.5 2.2-.5 1.6-4.8 1.6-5z" class="BH"/><path d="M57.1 220.1c1.7 6.7 19.7 10.1 23.8 10.8-.2-2.9-.3-6.6-.5-11.2l-23.3.4z" class="BJ"/><path d="M61.1 222.2c-.2 0-4-.6-4.7-.9s-3.8-4.8-1.8-5.9c2.1-1.1 7.6 3.4 7.6 3.4l-1.1 3.4z" class="BG"/><g class="BI"><path d="M84.4 223.6s-14.8.8-24.8-1.3c0 0-.3-2.9 2.9-4.1 0 0 15.5-3.3 19.2-2.4 3.7.8 2.7 7.8 2.7 7.8z"/><path d="M50.3 211.9c3.1 3.7 7.1 6.7 11.5 7.4h0c0-.1 1.3-2 1.1-4.9-.1-1.3-.6-2.9-1.6-4.5-.3-.5-.6-1.1-.9-1.8-2.4-6.2-2.1-18.1-2.1-18.1s-10.3 1.1-13.5 5.6c-1.8 2.9.7 10.5 5.5 16.3z"/></g><path d="M68.4 185.7l1.3-.2c.9-.2 1.4-1.6 1.6-3.4-1.6.4-2.4 1.7-2.7 2.2-.2.2-.2.8-.2 1.4z" fill="#e2915a"/><path d="M72.5 188.4s3.5-5.9.8-6.1c-2.8-.3-3.9 1.6-4.3 2.3s.1 3.8.1 3.8h3.4z" class="BG"/><path d="M59 214.2c.1.7.3 1.4.6 2 .9 1.9 2.3 3.1 2.3 3.1h0c9.2-4.2 11.1-18.4 11.4-26.3.1-3.2 0-5.3 0-5.3-4.2-1.4-5.3 1-5.3 1s-4.9 11.7-7.5 19.3c-1 3.1-1.6 5.4-1.5 6.2z" class="BI"/><path d="M50.3 211.9c3.1 3.7 7.1 6.7 11.5 7.4h0c9.2-4.2 11.1-18.4 11.4-26.3 0 0-4.4 15.8-10.3 21.3-1.1 1-2.2 1.7-3.4 1.8 0 0-7.5-2.1-9.2-4.2.1.1.1 0 0 0z" class="BJ"/><g fill="#c8dbf4"><path d="M344.6 262.9s5.9-6.9.3-11.2c0 0-4-2.4-7.3-2.2 0 0 4.7 7.8 3.2 8.6s-4.6-9.1-4.6-9.1-9.2-.9-12.1.6c0 0 7.9 6.4 6.2 6.8-1.6.4-10.1-5.9-10.1-5.9s-8.5 1.5-8.1 6.7c.5 5.2 3.4 6.8 4.7 6.7s8.8-3 9-2c.2 1.1-4.4 4.5-7.6 4.7 0 0 6 6.6 10 4.7s4.3-5 6.8-6.1 4.6-1.1 3.6 0c-1 1.2-5.5 2.3-6.9 4.8s-2.7 4.2 1.4 3.6 10.8-3.7 11.1-7.1l.4-3.6z"/><path d="M316.3 257.3s23.2-1 28.3 5.7c0 0 1.1 3.4 4.6 6.5l.5 1.5s-4-4.2-5.5-4.5c.1-.1 2.3-8.3-27.9-9.2z"/><path d="M349.2 269.4s5 3.7 5.3 10.2l-.9.1s-1.6-6.8-4.5-9.4c-2.8-2.7.1-.9.1-.9zm26.4-24.6s-9.4-5.2-5-12.3c0 0 3.5-4.4 7.2-5.5 0 0-2 10.6 0 10.8s1.3-12 1.3-12 9.8-4.8 13.7-4.4c0 0-6.1 10.4-4.1 10.1s8.8-10.7 8.8-10.7 10.1-1.9 11.7 4.1-1 9-2.5 9.4-11.1.3-10.8 1.5 6.7 3.2 10.3 2.1c0 0-4 9.9-9.2 9.4s-6.9-3.7-10.1-4c-3.2-.2-5.6.6-4 1.5s7.1.3 9.7 2.5 4.7 3.6-.1 4.6c-4.9 1-13.6.4-15.3-3.3l-1.6-3.8z"/><path d="M404.7 226.8s-26.1 8.5-29.1 18c0 0 .1 4.2-2.5 9.1v1.9s2.7-6.4 4.2-7.2c.1-.1-5.8-8.3 27.4-21.8z"/><path d="M373.2 253.9s-4 6.1-1.7 13.6l1-.3s-1-8.2 1.1-12.4c2.1-4.1-.4-.9-.4-.9z"/></g><g fill="#d4e4f8"><path d="M360.7 237.6s12.3-6.9 6.5-16.3c0 0-4.6-5.7-9.5-7.2 0 0 2.7 14 0 14.3-2.6.3-1.9-15.8-1.9-15.8s-13-6.2-18.1-5.7c0 0 8.1 13.6 5.5 13.3s-11.7-14.1-11.7-14.1-13.3-2.4-15.4 5.5 1.3 11.8 3.3 12.3 14.6.3 14.3 1.9-8.9 4.3-13.6 2.8c0 0 5.3 13 12.2 12.3s9-5 13.3-5.3 7.4.8 5.3 2-9.4.4-12.8 3.3-6.2 4.8.2 6.1 17.9.4 20.2-4.5l2.2-4.9z"/><path d="M322.2 214.1s34.5 11.1 38.5 23.5c0 0-.1 5.6 3.3 12v2.5s-3.6-8.4-5.6-9.5c.1-.1 7.7-10.9-36.2-28.5z"/><path d="M364.1 249.6s5.3 8.1 2.3 17.9l-1.4-.4s1.3-10.8-1.5-16.3c-2.8-5.4.6-1.2.6-1.2z"/></g><path d="M441 324.5l-101.1.3c-15-17.2-16.6-40.5 3.4-60.1 2.5-2.5 7.3-4.2 12.5-5.4 9.6-2.3 20.4-2.8 20.5-2.8 0 0 5.7-4.6 9.2-8.8 10.7-12.9 19.8-11.8 19.8-11.8 10.9-2.1 20.2-2.7 27 1.1h0c6.4 3.6 10.7 10.9 12.3 24.5.3 2.6.5 5.3.6 8.4.4 11 2.6 20.8 3.8 29.1h0c1.9 11.8 2 20.7-8 25.5z" class="BI"/><path d="M426.9 250.5c-6.6 3.6-7.3 15.4-17.7 18.5-10.3 3.1-27.9 2.8-37.8 13.6-9.6 10.4-20.2-16.1-15.6-23.5 9.6-2.3 20.4-2.8 20.5-2.8 0 0 5.7-4.6 9.2-8.8 10.7-12.9 19.8-11.8 19.8-11.8 10.9-2.1 20.2-2.7 27 1.1h0c3.5 3.7 1.2 10.1-5.4 13.7z" class="BJ"/><path d="M386.4 253.9s-33.1-.4-37.5 2.4 4.5 47.7 4.5 47.7 8.6.2 9.2-2c0 0-1.6-21-.3-24.7 1.3-3.6.5-8.7.5-8.7s16.8 2.5 22.1 1.2c5.4-1.3 1.5-15.9 1.5-15.9z" class="BH"/><path d="M394.1 230.7s-4.7 10.9-6.9 12c-2.3 1.2-10.5 10.6-12.3 10.4s2.1 1.4 2.1 1.4l15.2-7c.8-.4 5.2-7.7 5.8-11.3.6-3.7-3.9-5.5-3.9-5.5zm-30.4 76.6c-1.1 2.1-1.4 6-1.7 7.4-.3 1.3-6.1 5.8-6.6 5.6-1.3-.6-.1-2.8.7-4.4 0-.1.1-.1.1-.2.8-1.6.1-5.3.5-7.1.4-1.9-1.5-6.9-1.5-6.9l3.2-4s2.2 4.3 3.9 5.1c.3.1.5.3.8.5 1.1.7 1.5 2.2.6 4zm-11.2 12.4c-2.2.9-4.9 3.7-6 4.5s-8.4.5-8.7 0c-.6-1.3 1.9-2.2 3.6-3h.1 0c1.6-.8 3.4-3.9 4.9-5.1s3.3-6.3 3.3-6.3l5-1s-1 4.7-.3 6.3c.1.2.1.3.2.5.4 1.7-.1 3.3-2.1 4.1z" class="BG"/><path d="M403.6 225.9c-.7-.8 10-4 12.2 4.8 0 0 19.6-5.2 7.6-13.9-4.2-3-4.6-6.2-5.2-9.2s-4.8-11.4-12-7.2c0 0-3.3 0-5.4 1.8-4.7 4-9.9 30.1 2.8 23.7z" class="BL"/><path d="M400.3 255.4s-34.3 3.5-37.4 7c-3 3.5-14.9 49.1-14.9 49.1s3.5 2 6.7.1c0 0 9.1-15.5 13.1-20.3 4-4.9 5.5-19.8 6.2-20s22.2 3 29.6-2.7-3.3-13.2-3.3-13.2z" fill="#2a4e96"/><path d="M419.4 224.2s-8.2-3.7-18.6-2c-2.1.3-4 1-5.6 3.5l-3.1 5.4s.2 1.6 3.1 2.9c-.8 2.9.7 8-.7 10s-10.1 6.9-10.6 9.6c-.8 5 14.9 14.1 19.6 13.2 13.6-2.6 22.7-38.7 15.9-42.6z" class="BK"/><path d="M414.8 213.9s1.6-3.2 1.8-5.8c.2-1.9-1.4-8.6-8.1-6.9 0 0-2 .4-3.7 1.8-1.4 1.1-3.3 3.5-.4 9.2l.8 1.9 9.6-.2z" class="BL"/><path d="M405.5 224.6c-.7.7-.4 3.1 2.8 2.9 2.1-.1 6.6-2.7 6.1-4.5-.2-.8-1.8-3-2.2-8.1l-.4.1-6.4 1.8.5 3.9c.2 1.7-.1 3.6-.4 3.9z" class="BG"/><path d="M405.5 216.9l.5 3.9c3.6-.4 5.3-3.8 5.9-5.7l-6.4 1.8z" fill="#f4a269"/><path d="M405.4 219.8s8.3-2.1 7-7.3c-1.4-5.2-1.2-8.9-6.6-7.8s-5.9 3.4-5.8 5.2c-.1 1.9 3.2 10.3 5.4 9.9z" class="BG"/><g class="BL"><path d="M401.9 205.6s2.8 5.3 8.1 5.9c3.1.3 3.9 2.4 3.9 2.4s-.9-5.8-2.5-9.4c0 0-8.6-2.3-9.5 1.1z"/><path d="M402.8 206.3s-1.8 1.9-2.4 3.2c-.8 1.9.8 6.1 1.5 6.9 0 0-3.9-6.6-2.6-9.4 1.4-3 3.5-.7 3.5-.7z"/></g><path d="M377.4 254.4l-1.9 1.9c-1.1.5-2.5.2-3.2.4s-.6-.2-.1-.6c.5-.3 1.7-.2 1.2-.3s-3.2-.6-4.2-.4c-1.6.4-2.9-.1-3-.2-.1-.2 3.7-2 4.7-1.9 1.1.1 4.2-.1 4.2-.1l2.3 1.2zm44.8-26.9s1 24.5-1.9 27.9-20.4-.4-20.4-.4l-1.2-1.8 16.6-2.6c1.5-.4.5-17.3.5-17.3l6.4-5.8z" class="BG"/><path d="M418.4 223.8c.2 0 3.3 1 5.6 5.4l3 6.4s-9.7 7.5-13.5 4.7c-4-2.6 1.3-16.5 4.9-16.5z" class="BK"/><g class="BG"><path d="M400 255l-1.9 2.1c-.5.7-4.2 2-4.3 1.6s1.7-1.6 1.8-2c.2-.4 2.1-2.6 3.2-2.9 1.1-.2 1.2 1.2 1.2 1.2z"/><path d="M398.7 253.2l-6.7 1.7c-1 .4-3 3.3-2.2 3.7.5.3 2.8-.9 3.9-1.2 1.1-.2 4.4.3 5.9-2.6.2-.2-.9-1.6-.9-1.6z"/></g><path d="M352.5 319.7c-2.2.9-4.9 3.7-6 4.5s-8.4.5-8.7 0c-.6-1.3 1.9-2.2 3.6-3h.1 0l.2-.1s3.2 1.1 5.8 0c2.1-.9 5.1-4.1 7.1-5.5.4 1.7-.1 3.3-2.1 4.1zm11.2-12.4c-1.1 2.1-1.4 6-1.7 7.4-.3 1.3-6.1 5.8-6.6 5.6-1.3-.6-.1-2.8.7-4.4.5 0 1.1-.2 1.8-.7 1.4-1 3.9-4.6 4.1-6.7.2-1.7.1-4.3 1-5.3 1.2.8 1.6 2.3.7 4.1z" fill="#2e3552"/><path d="M391.4 259.4h-24.9l-7.5-18.6h24.9z" class="BI"/><path d="M366.2 258.7h32.9v.7h-32.6z" class="BJ"/><path d="M372.8 250.1c-.2-.7.2-1.2.8-1.2.7 0 1.3.5 1.5 1.2s-.2 1.2-.8 1.2c-.7 0-1.3-.5-1.5-1.2z" fill="#fff"/><path d="M419.9 259.3s-3.3 3-16.9 3.5-31.4 15.5-31.5 19.7c-.2 4.2 27.4 10.7 27.8 10.1s17.5-15.3 17.5-15.3l3.1-18z" class="BI"/><path d="M449.1 298.6c-7.3-13.2-24.1 5-28.2-1.2-4.2-6.2 5.9-14 14.9-20.7 8.9-6.6 8.8-15.2 8.8-15.6.3 2.6.5 5.3.6 8.4.4 11 2.6 20.8 3.9 29.1z" class="BJ"/><path d="M330.8 114.3c.1 14.4-5 27.6-13.4 37.9-7.3 8.9-11.4 19.9-11.4 31.4v16.5c0 4.7-1.7 9-4.5 12.3-3.2 3.8-8 6.4-13.3 6.8h-1.3-30.5-1.3c-9.9-.6-17.8-9-17.8-19.1v-16.5c0-11.5-4-22.5-11.3-31.3-8.4-10.2-13.5-23.3-13.5-37.6 0-32.8 26.6-59.2 59.2-59.2 32.5 0 58.9 26.2 59.1 58.8z" fill="#ffb93e"/><path d="M288.1 219.2c-.2 1.2-2.7 21-2.8 21.1-.4 3.3-4.2 5.8-8.6 5.8h-10.1c-4.4 0-8.1-2.5-8.6-5.7l-3-21.2h33.1 0z" class="BJ"/><path d="M284.1 219.2h0-5.7l-22.5 6.5.2 1.5h0l.2 1.6c3.4-.9 11.6-3.3 31.6-9.1l.1-.5h-3.9zm-26.6 17.1h0 0 0l.2 1.6 29-8.4.2-1.7h0l.2-1.7-29.9 8.6.3 1.6zm3.8 8.4h0c.8.4 1.5.8 2.4 1h0l21.8-6.3.2-1.7h0l.2-1.7-26.2 7.5 1.6 1.2z" class="BI"/><g fill="#ffeac5"><path d="M259.6 219.2l-12.7-75.5 2.6-.4 12.9 75.9zm22.8 0h-2.7l13.6-74.8 2.7.5z"/><path d="M278.7 157.2c-.3 0-.7 0-1.2-.1-.7-.2-1.2-.7-1.3-1.4-.3-1.7 1-4.7 2.8-7.3-1-1.7-2.2-3.1-3.6-3.5-2-.6-5 1.2-7.2 3.6.4.6.7 1.1 1 1.7 1.1 2.1 1.9 4.7.8 5.9-.4.4-1.2.9-2.8.3-2-.8-2.7-2.5-2-4.7.4-1.1 1-2.2 1.9-3.2-1.6-2.1-3.8-3.8-6-3.5-1.2.1-2.1.6-3 1.1 1.4 2.6 1.7 5.8.7 7.6-.7 1.2-1.8 1.6-3.2 1.1-1-.4-1.6-1.8-1.4-3.6.2-1.9 1.1-3.9 2.8-5.3-.4-.7-.9-1.3-1.5-1.7-3.7-2.9-6.8.2-6.9.3l-.6-.6s3.7-3.8 8-.4c.7.5 1.2 1.1 1.7 1.9.9-.6 2-1.1 3.3-1.2 2.4-.3 4.8 1.4 6.6 3.7 2.3-2.5 5.6-4.4 7.9-3.7 1.5.4 2.8 1.8 3.9 3.6 1-1.3 2.1-2.4 3.1-3.1 1.7-1.1 2.8-.9 3.4-.5a6.09 6.09 0 0 1 1.6 1.6c.5-.4 1-.7 1.6-1 2-1 3.8-.9 5.1.2l-.5.6c-1.4-1.2-3.2-.6-4.2-.1l-1.5 1c1.3 2.4 1.6 5.4.8 6.9-.5.9-1.3 1.3-2.3.9-1.8-.6-2.2-1.9-2.3-2.8-.1-1.7 1.1-3.7 2.7-5.2-.4-.6-.9-1.1-1.5-1.5-.8-.5-1.8 0-2.5.4-1.1.7-2.2 1.8-3.1 3.1 1.2 2.3 1.8 5 1.4 6.7-.1 1-.7 2.2-2.5 2.2zm.8-8.1c-1.6 2.3-2.7 5-2.5 6.4.1.5.3.7.7.8 1.6.4 2.6-.1 2.9-1.4.4-1.5-.1-3.8-1.1-5.8zm-11.7-.1c-.7.9-1.3 1.9-1.6 2.8-.6 1.8-.1 3 1.5 3.6.6.2 1.5.4 1.9 0 .6-.7.3-2.8-.9-5-.3-.4-.6-.9-.9-1.4zm-10.2-2.5c-1.4 1.3-2.2 3-2.4 4.7-.2 1.4.2 2.5.8 2.7 1 .4 1.8.1 2.2-.7.9-1.5.6-4.4-.6-6.7zm29.9.5c-1.4 1.4-2.4 3.1-2.3 4.4.1 1 .6 1.7 1.7 2.1.6.2 1 .1 1.3-.5.7-1.3.4-3.9-.7-6zm14.6-68.8c4.9 4.6 4.3 13-2 14.9-4.7 1.4-11.7-.5-15.2-6.5s-1.9-11 2.4-13.4c4.3-2.5 9.8.3 14.8 5z"/></g><path d="M119.7 203.7c-.6-1.1 12.4-5 12.6 5.8 0 0 24.3-.6 12.7-14.1-4-4.7-3.6-8.6-3.5-12.2s-2.5-14.1-11.5-13c0 0-2.4-1-5.3.6-6.7 3.4-21.6 36.9-5 32.9z" class="BL"/><path d="M159.4 215.8s1.6-2.4 2.9-2.5c1.3 0 3.6-.7 3.4-.2s-1.7.5-1.8.8 2.2.7 2.8.8c.7 0 2.2 0 2.2.3s-2.8 1.7-4.8 1.5c-1.9-.2-4.4.6-4.4.6l-.3-1.3z" class="BG"/><path d="M136.5 216.6s.9 1.7 2.4 3.7c1.9 2.4 4.8 5.1 8.4 5.6 1.7.3 3.4-.1 5-.8h0c4.4-2 7.7-6.5 7.7-6.5.8-2.1-.5-3.6-.5-3.6s-8.9 2-9.8 1.6c-.8-.4-5.8-14.7-7-16.5s-5.2-2.7-5.2-2.7l-1 19.2z" class="BK"/><path d="M139 220.2c1.9 2.4 4.8 5.1 8.4 5.6 1.7.3 3.4-.1 5-.8-.2 0-4.6.6-6.3-2.6-1.8-3.2-3.7-8.3-6.4-6.6-1.2.8-1.2 2.6-.7 4.4z" class="BN"/><path d="M103.3 312.9s-2.7 2.5-2.2 4.2c.5 1.8 3 2.9 3.3 5.1s1.7 3.3 2.9 3.3h5.7s.9-1.5-1.2-2-2.9-3-2.8-5.3c.1-2.4-.2-5.5-.2-5.5l-4.5-1-1 1.2zm23 1s-1 10.5.2 11.1h15.3s0-1.8-2.5-2.2-6.8-1.8-7.5-5-5.5-3.9-5.5-3.9z" class="BH"/><path d="M115.4 238.4c3.1-7.1 5.1-9.1 4.7-11.3-.3-1.6.8-30.4.8-30.4.4-.1 1.1-.2 1.5-.3 1.3-.3 2.4-1.2 2.8-2.4.5-1.5 1-3.7 1-6.5l.4.1 6.8 1.3s-.2 2.1-.2 4.1v.1c0 1.7 1.1 3.3 2.8 3.8.9.2 1.6.5 1.6.5s2.5 7.1 3 14.4-4.5 10.5 0 25.1c4.7 14.8-26.9 5.4-25.2 1.5z" class="BG"/><path d="M133.4 188.9l-.2 4.1c-3.8-.1-5.8-3.6-6.6-5.5l6.8 1.4z" fill="#e8945b"/><path d="M134.7 190.8s-9 .1-9-5.4c0-5.6-1.2-9.3 4.6-9.7 5.7-.3 6.8 1.8 7.3 3.7.4 1.9-.6 11.3-2.9 11.4z" class="BG"/><g class="BL"><path d="M134.3 175.6s-2.5 6.6-6.2 7.5c-3.8 1-5.4 0-5.4 0s2.9-2.3 3.5-6.3c0 0 6.3-4.3 8.1-1.2z"/><path d="M133.7 176.1s1.8.7 2.6 2c.7 1.3 1.4 3 1.2 5.1 0 0 1.9-4.5-.2-7-2.2-2.6-3.6-.1-3.6-.1z"/></g><path d="M132.7 187.4s.6.8 1.9.8c1 0 1.4-.9 1.4-.9s-1.9-.5-3.3.1z" class="BM"/><path d="M114.5 209.5s-.2 3.2 0 7.1c.2 2.6 2.7 6 3.1 6.8.9 2.1 2 2.5 2 2.5l8 2 2.8.7 8.9-2.7s4.1-11.3 2.4-17.7c-1.6-6.4-4.1-10.8-4.1-10.8s-7.3 7.1-16.7-.6l-6.4 12.7z" class="BK"/><path d="M116.9 217.6c.2 2.6.4 4.9.8 5.8.9 2.1 2 2.5 2 2.5l8 2 3.5-1s-11.6-1.8-10.4-11.8l-3.9 2.5z" class="BN"/><path d="M138.8 227.6s4.4 13.7 4.7 18.4-8.4 66.4-8.8 68.5c-.3 2-2.9 3.3-2.9 3.3s-1.2.7-2.8.2c-2.3-.6-3-1.4-3-1.4s-3.4-44-1.3-59.7 2.1-29.3 2.1-29.3h12 0z" class="BJ"/><path d="M120.1 227.2s-6.7 9-7.4 15.1c-.6 6.1-1 27.5-2.3 33.5-1.3 5.9-6.2 17.4-6.2 35.9 0 0 .5 1.1 2.1 1.6.5.2 1.2.4 1.8.5 1.3.3 2.6-.3 3.2-1.5 3.3-6.7 13.9-28.2 14.4-32.7.4-3.2 3.7-24.1 11-36.4 1.7-3-1.1-14.7-1.1-14.7l-15.5-1.3z" class="BI"/><path d="M132.9 187.5s.2.7 1.8.6c0 0 1.4-.1 1.3-.8 0 0-1.3-.5-3.1.2z" fill="#fff"/><path d="M139.5 225.4s-1.8 1.4-5.3 1.5c-4.2.1-14.6-1.1-14.6-1.1s-.5 1.3-.4 2.7c0 0 12.7 3.2 20.1.5-.1 0 .9-1.8.2-3.6z" class="BH"/><path d="M133.3 228.4c0-1.2.9-2.2 1.9-2.2 1.1 0 1.9 1 1.9 2.2s-.9 2.2-1.9 2.2c-1-.1-1.9-1-1.9-2.2zm.6 0c0 .8.6 1.5 1.3 1.5s1.3-.7 1.3-1.5-.6-1.5-1.3-1.5c-.7-.1-1.3.6-1.3 1.5z" fill="#fff"/><path d="M105.874 227.894l15.498-17.799 13.048 11.361-15.498 17.799z" class="BO"/><path d="M122.5 228s4.8.6 4.8 1.7-1.2 3.5-1.8 3.6-3.9-3.1-3.9-3.1l.9-2.2z" class="BG"/><path d="M120.9 196.8s-6.4.4-8.8 6.4c-2.4 5.9-7.1 15.9-7.1 17.6s2.6 6.8 16.5 9.8c0 0 1.4-1.5 1.4-2.7 0 0-8.7-7.5-8.7-8.3 0-1.6 1.4-3.8 9-11.4 2.1-2.2-2.3-11.4-2.3-11.4z" class="BK"/><path d="M176 325.2h0c-.4 0-.7-.3-.7-.6l1-41.7 2.8-.3-2.4 42c0 .3-.3.6-.7.6z" fill="#95c0f4"/><path d="M221.5 325.2h0c.4 0 .7-.3.7-.6l-1-41.7-2.8-.3 2.4 42c.1.3.4.6.7.6zm-47.4-44.9v-28.5c0-5 4.1-9.1 9.1-9.1h20.6c5 0 9.1 4.1 9.1 9.1v29.6l-38.8-1.1z" fill="#b0d4ff"/><path d="M216.6 284.8h-37.9a4.48 4.48 0 0 1-4.5-4.5h0 42.4v4.5z" fill="#95c0f4"/><path d="M221.1 284.8h-29.6c-1.2 0-2.3-1-2.3-2.3h0c0-1.2 1-2.3 2.3-2.3h29.6c1.2 0 2.3 1 2.3 2.3h0a2.26 2.26 0 0 1-2.3 2.3z" fill="#b0d4ff"/><path d="M220.2 273.2c-2.9 5.1-6.7 7.1-6.7 7.1h-15.4s24.3-11 22.1-7.1z" class="BH"/><path d="M208.3 312.9c-.4.5-.5 1-.3 1.5h0c.4 1 1.6 2.2 3 3.3.2.1.3.3.5.4l.1.1.1.1c1.3 1.2.8 1.5 3.2 4 2.7 2.8 4.6 2.9 5.1 2.6.4-.2-.5-1.7-1.5-3.4 0-.1-.1-.2-.1-.2-.1-.2-.3-.4-.4-.7-1.2-2-.9-3-.6-6 .2-2.4 3.8-13.6 3.8-13.6l-5.2-.9s-1.6 8.9-3.3 10.3c-.9.7-1.9.7-2.8 1.3-.1 0-.1.1-.2.1-.5.3-1 .6-1.4 1.1z" class="BG"/><path d="M208.3 312.9c-.4.5-.5 1-.3 1.5h0c.5 1 1.6 2.1 3 3.3.2.1.3.3.5.4l.1.1.1.1c1.3 1.2.8 1.5 3.2 4 2.7 2.8 4.6 2.9 5.1 2.6.4-.2-.5-1.7-1.5-3.4-.5-.2-3-1.2-4.8-3.5-1.6-2.1-2.7-4.7-3.8-6.3-.1 0-.1.1-.2.1-.5.3-1 .6-1.4 1.1z" class="BH"/><path d="M250 309.7c.3 1.6 2.6 1.3 5.1.7s1.9.1 5.6-.3c3.6-.4 4.7-1.7 4.8-2.3.1-.5-1.7-.6-3.6-.9-.2 0-.5-.1-.7-.1-2.2-.3-3.7-1.7-5.7-2.8-1.9-1.1-4.6-5.5-4.6-5.5l-5 .4 3.6 5.7c.6 1 .6 2.3.5 3.4-.1.5-.1 1.1 0 1.7z" class="BG"/><path d="M255.1 310.4c2.5-.6 1.9.1 5.6-.3 3.6-.4 4.7-1.7 4.8-2.3.1-.5-1.7-.6-3.6-.9h0s-2.2 1.5-5.2 1.6c-2.5.1-5-.6-6.7-.6 0 .6-.1 1.1 0 1.7.3 1.7 2.6 1.4 5.1.8zM231 278l-4.6 12.5-6 16.3s-1.6.2-3.2-.3c-1.4-.4-3.1-1.5-3.1-1.5s1.7-17.5 4.8-27.5c.8-2.6 1.7-4.7 2.7-5.8 4.8-5.9 9.4 6.3 9.4 6.3z" class="BH"/><path d="M226.3 258.2c-3-1-11.7.3-20.4 2l-1.8-3-18.8-1.5s-6.2 13.7-2.8 22.5c.5 1.3 1.5 2.1 3.2 2.1h.3 14.8c9.3 0 19.8-6.4 21.1-6.7 2.2-.4 3.1 4 5.3 8.6s20.8 20.5 20.8 20.5 2.9 0 4-.4c1.3-.5 1.7-1.1 1.7-1.1s-20.6-40.8-27.4-43z" fill="#2b478b"/><path d="M203.3 202.4c-2.4-1.3-6.1-1.4-6.7-1.5-7.1-1-11.4 9.4-11.7 12.5-.5 5.8-3.5 6.7-7.8 10.3-8.6 7.3-6.1 15.7-1.4 18.8 2.8 1.9 7.8 0 7.8 0 .1 0 13.6-7.6 20.3-11.3 10.2-1.4 5.7-25.5-.5-28.8z" class="BO"/><path d="M198.4 228.1s-3.3 1.2-5.5.2c-2.1-.9-3.7-4.4-3.6-4.4 1 0 2-.9 2.8-6.3l.4.1 6.8 2.4-.8 4.3c-.4 1.8-.5 3.5-.1 3.7z" class="BG"/><path d="M199.2 220.2l-.8 4.3c-3.9-.7-5.4-4.6-6-6.7l6.8 2.4z" fill="#ed975d"/><path d="M200.2 222.4s-9.3-1.2-8.4-7 .2-9.8 6.2-9.3c6 .6 6.8 2.9 7 4.9s-2.3 11.5-4.8 11.4z" class="BG"/><g class="BO"><path d="M204.6 207.8s-6 5.1-10 5.5c-4.1.4-5.6-.9-5.6-.9s2.4-2 3.8-5.2c.4-.9 1.3-1.6 2.3-1.7 3-.1 8.5-.3 9.5 2.3z"/><path d="M200.9 207.3s2 1.9 2.6 3.4c.6 1.4.8 4.7.3 6 0 0 3.1-6 1.3-9-1.8-3.1-4.2-.4-4.2-.4z"/></g><path d="M206.2 241.8c-.3 18.8-.1 14.9-2.1 16.7-.5.4-1.9.7-3.7.8-5.8.4-15.9-.6-16.3-1.6-1.3-3.7-.4-4.8-1.5-10.5-.1-.6-.3-1.3-.4-2-.9-3.9-1.8-5.2 1.5-11.4 3-5.7 6.1-10.2 6.4-10.1 7.9 4.7 8.5.7 8.5.7s7.7 8.2 7.6 17.4z" class="BK"/><path d="M226.4 290.4l-6 16.3s-1.6.2-3.2-.3c-1.4-.4-3.1-1.5-3.1-1.5s1.7-17.5 4.8-27.5l7.5 13z" fill="#2b478b"/><path d="M198.4 224.5s8.1 1.4 9 4.9l6.5 24s-4.1.7-6-1.2-6.6-17.6-6.6-17.6l-2.9-10.1z" class="BK"/><path d="M200.3 259.3c-5.8.4-15.9-.6-16.3-1.6-1.3-3.7-.4-4.8-1.5-10.5l2.8-7.8s-.5 8.7 2.1 11 10.6 4.4 11.8 6.4c.6.9 1 1.8 1.1 2.5z" class="BN"/><path d="M193.7 255.7s5.7-1.3 6.6-.8 3.2 2.3 3.4 3c.3.6-2-.5-2.8-.7-.5-.1-1.8.3-2.4.5-2.7.9-4.3.4-4.3.4l-.5-2.4z" class="BG"/><path d="M189.9 223.7s-7.7.5-10.3 4.2c-3.7 5.2-11.1 27.4-6.9 30.3 4.8 3.3 21.7.9 21.7.9s.6-2.6-.2-3.9-13.5-3.3-14.1-3.9 7.4-11.5 7.4-13.3c-.1-1.8 2.4-14.3 2.4-14.3z" class="BK"/><g class="BG"><path d="M200.6 256.5s1.2 1.5 1.6 1.7.6.1.6.1l-.8-1.4-1.4-.4z"/><path d="M200.3 254.9l3.5 1.7s-.1.2-.6.2c-.4 0-1.5-.4-1.5-.4l-1.4-1.5z"/></g><path d="M202.2 260.6h27.5l8.2-20.6h-27.4z" class="BI"/><path d="M230 259.8h-36.3v.8h36z" class="BJ"/><path d="M222.7 250.3c.2-.7-.2-1.3-.9-1.3s-1.5.6-1.7 1.3.2 1.3.9 1.3c.8 0 1.5-.6 1.7-1.3z" fill="#fff"/><g class="BH"><path d="M289.2 325.8h0c.6 0 .9-.4.9-.9l-1.3-60.8-3.7-.5 3.2 61.3c0 .5.4.9.9.9zm-94.6 0h0c-.6 0-.9-.4-.9-.9L195 264l3.7-.5-3.2 61.3c0 .6-.4 1-.9 1z"/><path d="M294.7 264.9H190.5a2.22 2.22 0 0 1-2.2-2.2h0a2.22 2.22 0 0 1 2.2-2.2h104.2a2.22 2.22 0 0 1 2.2 2.2h0c0 1.3-1 2.2-2.2 2.2z"/></g><path d="M371.5 93.3l20.6 3.3-13.5-9.6-.8 3-5 .9z" fill="#9ec3f6"/><g fill="#fff"><path d="M392.1 96.6l-17-9.1-16.8-1.1z"/><path d="M378.6 87l13.5 9.6-10.4-14.8z"/></g><path d="M174 113.6l-26.8 7.7 16.4-14.9 1.5 3.8 6.8.3z" fill="#9ec3f6"/><g class="BM"><path d="M147.2 121.3l21.1-14.9 22.2-4.3z"/><path d="M163.6 106.4l-16.4 14.9 11.3-21.3z"/></g></svg>