<svg xmlns="http://www.w3.org/2000/svg" xmlns:xlink="http://www.w3.org/1999/xlink" viewBox="0 0 500 369" xmlns:v="https://vecta.io/nano"><style><![CDATA[.BG{fill:#ed7d2b}.BH{fill:#3662c1}.BI{fill:#c1d4fa}.BJ{fill:#0b0754}.BK{fill:#c69e79}.BL{fill:#6d89cf}.BM{fill:#f99746}.BN{fill:#e75755}]]></style><g fill="#ebf3fa"><path d="M410.1 305.4s49.9 3.9 65.3-25.3c22.8-43.4-21.6-78.5-53.8-72.2-70.2 13.7-53.3-137.8-165.9-106.9-31.7 8.7-117.3-43-141.1 39.9-5.7 19.7-25.8 21.9-55 34.4-57.1 24.5-31 130.5 9.8 130.9l340.7-.8z"/><path d="M472.8 306.4H34.3c-.2 0-.4-.2-.4-.4h0c0-.2.2-.4.4-.4h438.5c.2 0 .4.2.4.4h0c0 .3-.2.4-.4.4z"/></g><path d="M195.8 164.4l-5.8-.1c1.8 2.4 2.3 4.6 1.1 6.5s-3.9 3.5-8 4.7a73.88 73.88 0 0 0 4.7-26c0-10-2-19.8-5.8-28.9-3.7-8.9-9.1-16.8-15.9-23.6s-14.8-12.2-23.6-15.9c-9.2-3.9-18.9-5.8-28.9-5.8s-19.8 2-28.9 5.8l-3.2 1.5h0c-3.2-1-6.3-1.8-9.3-2.4-15.2-3.1-25.9-1-30.3 6-4.2 6.6-1.9 16.5 6.4 28.1h0c-1.1 2.1-2.1 4.2-3 6.4-.7 1.6-1.3 3.3-1.9 5-15.5.9-23.8 3.7-26.8 8.6-3.5 5.8 1.3 13.5 16.6 21 2.1 1 4.4 2.1 6.8 3.1.8 7 2.6 13.7 5.3 20.2 3.7 8.9 9.1 16.8 15.9 23.6s14.8 12.2 23.6 15.9c9.2 3.9 18.9 5.8 28.9 5.8s19.8-2 28.9-5.8c8.9-3.8 16.8-9.1 23.6-15.9a74.48 74.48 0 0 0 15.6-22.9c7.6-1.6 12.5-4 14.5-7.3 1.3-2.5 1.1-5-.5-7.6zm-17.7 12.1c-5 .9-11.3 1.4-18.7 1.5-11.4.1-24.5-.8-38.3-2.6 1.2-2.5 2.3-5.1 3.4-7.8 4.3 1.4 8.4 2.6 12.4 3.4 4.5.9 8.7 1.4 12.4 1.4 8.7 0 14.9-2.5 17.9-7.4.5-.8.9-1.7 1.2-2.5H164a.76.76 0 0 0-.2.4c-2.3 3.6-7.4 5.5-14.5 5.5-3.4 0-7.3-.4-11.6-1.3-3.7-.8-7.6-1.8-11.7-3.2 1.1-2.7 2.1-5.4 3.1-8.1 2.7-7.4 5-14.8 6.9-21.8 8.5 1.3 17.6 1.9 27.3 1.9 6 0 12.3-.2 18.7-.7 1 4.6 1.4 9.4 1.4 14.2.1 9.4-1.7 18.5-5.3 27.1zm-92 36.9c-2.1-.8-3.2-3.9-3.8-6.3-.8-3.9-1-9.3-.4-15.7.3-3.2.7-6.7 1.3-10.3 8.8 2.3 17.5 5.4 26 9-1.9 3.3-3.8 6.4-5.8 9.1-3.7 5.3-7.3 9.4-10.4 11.8-2 1.5-4.8 3.2-6.9 2.4zm25.1-26.8c-8.9-3.8-18-7-27.2-9.4.3-1.7.7-3.4 1.1-5.1l7.8 1.7c7.7 1.6 15.4 2.9 22.9 4l-4.6 8.8zM94.5 171c-3-.6-5.9-1.3-8.8-1.9 1.4-5.7 3-11.5 5-17.5 10.1 6.2 20.4 11.3 30.2 14.9a167.12 167.12 0 0 1-3.8 8.5c-7.4-1.1-15-2.5-22.6-4zM69.8 94.7c.6 1.3 1.5 3 2.7 4.8 5.1 7.9 11.9 13.6 16.6 17.1 2.7 2 5.7 3.8 8.8 5.5-2.8 6.2-5.5 12.7-8 19.6-.5 1.3-.9 2.5-1.3 3.8-14.8-9.7-27.4-20.8-35.6-31.5h0c2.1-3.5 4.4-6.8 7.1-9.9 1.1-1.3 2.2-2.5 3.4-3.7l.5-.5c1.8-1.9 3.7-3.6 5.8-5.2zM133 84c2.1.8 3.2 3.9 3.8 6.3.8 3.9 1 9.3.4 15.7-.6 7-2 15-4.1 23.5-2.5-.4-5-.9-7.4-1.5-8.3-1.9-15.9-4.5-22.6-7.8 4-8.4 8.3-15.9 12.6-22 3.7-5.3 7.3-9.4 10.4-11.8 1.6-1.3 3.8-2.6 5.8-2.6.3 0 .7.1 1.1.2zm-8.4 47.8c2.5.6 5 1.1 7.6 1.5-1.8 6.8-4.1 13.9-6.7 21.1-1 2.8-2 5.5-3.1 8.2-9.8-3.6-20.2-8.7-30.4-15.1l1.6-4.6c2.4-6.7 5-13.1 7.8-19.1 6.9 3.4 14.7 6.1 23.2 8zM163 99.9c6.4 6.4 11.5 13.9 15 22.3 1.3 3 2.3 6 3.1 9.1-16.1 1.2-30.9.8-44.1-1.1 2.1-8.6 3.5-16.6 4.1-23.8.7-7.9.6-17.2-2.6-22.4.7.3 1.5.6 2.2.9 8.4 3.5 15.9 8.5 22.3 15zm-49.5-20.5c4.9 0 9.6.5 14.3 1.5-5.5 2.4-11.1 9.1-15.4 15.2-4.4 6.3-8.7 13.9-12.8 22.5-2.8-1.5-5.4-3.1-7.9-4.9-8.2-5.8-13.1-11.9-15.8-16-1.4-2.2-2.4-4-3-5.3 2.9-2 5.9-3.9 9.1-5.5h0c1.3-.6 2.6-1.3 3.9-1.8.1 0 .2-.1.3-.1h.1c.3-.1.6-.2.9-.4.1 0 .2-.1.2-.1 8.3-3.4 17.1-5.1 26.1-5.1zm-68.4 8.7c2.3-3.6 7.4-5.5 14.5-5.5 3.4 0 7.3.4 11.6 1.3 1.6.3 3.3.7 5 1.2h0c-5.5 3.2-10.6 7.1-15.2 11.7-1 .9-1.9 1.9-2.8 2.9-1.1 1.2-2.2 2.5-3.2 3.9-1.7 2.1-3.2 4.3-4.6 6.6h0c-6.4-9.3-8.3-17.3-5.3-22.1zm3.9 34c.6-1.4 1.3-2.8 2-4.2h0c8.6 10.8 21.4 21.9 36.3 31.4-2.1 6.4-3.9 12.7-5.4 18.8-10.8-2.6-20.9-5.6-29.7-8.8-1.8-.7-3.6-1.3-5.4-2l-3-1.2c-.2-1.5-.3-3-.3-4.6v-2.2-2.6c.2-6.4 1.3-12.6 3.2-18.6.3-1 .7-2 1-3l1.3-3zm-12.7 30.7C23 146.3 16.8 140 19.6 135.5c2.2-3.6 10.2-6.1 22.6-7-1.5 5.1-2.4 10.4-2.8 15.7-.1 1.6-.2 3.2-.2 4.8v.4c0 1.6.1 3.2.2 4.8-1.1-.5-2.1-.9-3.1-1.4zm10.2 8c1.8.7 3.7 1.4 5.6 2 8.8 3 18.6 5.9 29.1 8.4-.4 1.7-.7 3.4-1.1 5l-2.6-.6c-14.5-3.3-25.4-4-30.5-4.1-1.3-3.8-2.2-7.6-2.8-11.6l2.3.9zm2.5 15.8c-.2-.4-.3-.8-.5-1.1 5.4.2 15.4 1 28.1 3.9l2.7.6c-.7 3.8-1.1 7.5-1.4 10.9-.6 6.5-.6 14 1.2 19.4-5.5-3.1-10.6-7-15.2-11.5-6.4-6.3-11.4-13.8-14.9-22.2zm91.7 37.3c-8.6 3.7-17.8 5.5-27.2 5.5-7.3 0-14.4-1.1-21.2-3.3 5.2-2.7 10.4-9 14.4-14.7 2.1-3 4.1-6.2 6.2-9.8 11.8 5.3 23.1 11.9 33.7 19.5-2 1.1-3.9 2-5.9 2.8zm22.3-15c-3.9 3.9-8.1 7.3-12.7 10.1-11.2-8.2-23.1-15.1-35.5-20.8 1.7-3.1 3.4-6.4 5-9.9 11.4 1.5 22.3 2.4 32.3 2.6 2.6.1 5.1.1 7.6.1 6.4-.1 12-.5 16.9-1.1-3.5 7-8 13.4-13.6 19z" fill="#2b478b"/><path d="M338 155.1s14 13.8 14.6 19-6.3 13.3-6.3 13.3l-8.3-32.3z" class="BG"/><g fill="#060632"><path d="M332.9 298.2s-.5 7.3-1.9 7.4h-7.2l-8.9-.1s.1-2.2 2.7-2.6c2.6-.5 7-2.3 8.6-5.7 1.7-3.6 6.7 1 6.7 1zm19.9 0s-.5 7.3-1.9 7.4h-7.2l-8.9-.1s.1-2.2 2.7-2.6c2.6-.5 7-2.3 8.6-5.7 1.7-3.6 6.7 1 6.7 1z"/><path d="M323.1 219.5s2.3 14.9 11.1 41.5c8.7 26.5 9.9 38 9.9 38l9.4-.3s.1-29-3.9-42.3-.9-48.1-.9-48.1l-25.6 11.2z"/></g><path d="M318.5 209.1s-.3 22.5 3.6 50.2c3.9 27.6 2.6 39.4 2.6 39.4l9.3.3s5.6-27.7 4-41.5 7.6-47.5 7.6-47.5l-27.1-.9z" class="BJ"/><path d="M336.6 156.4l-4.4 3.3-6.4-1.3.9-5.2c0-.1 0-.3.1-.4l.6-3.4 5.9-3 2.2-1.1-.2 2.4c-.4 5.2 1.3 8.7 1.3 8.7z" fill="#fc9290"/><path d="M326.3 154.8c.1-.1 8.7-2.6 9.6-2.3s1.5 2.1 1.5 2.1l-13.9 3.1c-.1.1 1-2.1 2.8-2.9z" class="BG"/><path d="M349.2 211.9c-1.4 6.6-25.5 7.4-31.7 1.4-.7-.7-.7-3.9-.5-8.1.5-8.3 2.2-20.9 2.3-27.3 0-3.1.5-6.3 1-9.1 1.2-6.1 3-10.9 3-10.9s11.7-3.8 13.9-3.1c10.7 2.9 13.4 50.5 12 57.1z" class="BM"/><path d="M317.1 205.2c.5-8.3 2.2-20.9 2.3-27.3 0-3.1.5-6.3 1-9.1l7.1-1.2c-.1-.1 6.8 28.1-10.4 37.6z" class="BG"/><path d="M320.9 193.6s.5 1.1-.5 1.9-1.7 2-1.4 2.9c.2.9 2.4 2.4 3.2 2.2s2.3-1.4 2.2-1.9c-.2-.5 1.1-4.2-.8-5.7-2-1.5-2.7.6-2.7.6z" fill="#fc9290"/><path d="M328.7 156.3s-6.9 1.1-12.4 9.1c-5.5 8.1-9.1 14.1-8.1 17s10.2 13 11.8 13 4.1-1.2 4.3-3.8c0 0-6.5-9.7-5.2-11.2.5-.6 8.4-7 9.5-4.1 2 4.9.1-20 .1-20z" class="BM"/><path d="M334.9 147.8c-1.3 2.5-6.2 4.7-8.2 5.4 0-.1 0-.3.1-.4l.6-3.4 5.9-3c1.3 0 2.1.3 1.6 1.4z" fill="#ea8888"/><path d="M324.5 149s10.7 3.3 12.7-3.4 4.7-10.8-2.1-13.2-8.9-.3-10.1 1.8c-1.1 2.2-3.3 13.8-.5 14.8z" fill="#ffb27d"/><path d="M326.7 133.9s.6 8.1 2.2 7.7 3.1-.6 2.8 1.8-2.5 5.3 2.5 5.6c5 .4 12.3-12.9 10.9-15.4-3.8-7.2-24-8.5-18.4.3z" class="BJ"/><path d="M402.4 207.5s-4.1 1.1-6.7.3-7.1.5-7.8 1.5-.5 1.3.8 1.7c1.3.3 5.9 2.3 8.9 1.2s6.9-1.2 6.9-1.2l-2.1-3.5z" class="BK"/><path d="M437.9 171.8s-4.6 32.8-12.3 35.8c-3.8 1.5-20.4 4.7-25.4 5.1 0 0-1.2-1-.9-5 0 0 17.5-6.4 20-9.9 3.7-5.2-2.3-21.2 2.3-26.1 4.7-4.9 12.5-7 16.3.1z" class="BH"/><path d="M437.3 298.3v-7.2h11.3c.3 0 .6-.2.6-.6v-1.1c0-.3-.2-.6-.6-.6h-11.3v-40.7c0-1.1-.9-2.1-2.1-2.1H433c-1.1 0-2.1.9-2.1 2.1v40.7h-11.3c-.3 0-.6.2-.6.6v1.1c0 .3.2.6.6.6h11.3v7.2c-8.2.6-14.7 3.6-16.5 7.3h39.4c-1.8-3.7-8.3-6.7-16.5-7.3z" fill="#120e59"/><g fill="#060632"><path d="M436.4 240.9c-1.3 2.3-2.9 4.4-4.5 6.5-5 6.3-10.4 11.4-11.3 16.3-.2 1-.5 2-.9 3.1s-.9 2.3-1.4 3.5c-2.1 4.6-5.3 9.7-8.4 14.4-5.4 8.1-10.5 14.8-10.5 14.8l-9.4-.4c.4-.9 4.5-12.1 9.9-25.7l6.9-17 .9-2.3 2.1-5.1 9.2-22.9s20.5-7.8 22.7-2.7c1.6 4.1.2 8.2-5.3 17.5z"/><path d="M399 297.8s-.5 7.8-2 7.9h-17.1s.1-2.4 2.9-2.8c2.8-.5 7.4-2.4 9-6.1 1.8-3.9 7.2 1 7.2 1zm21.7-22.1s6.5 4.2 5.9 5.6l-3.7 6.6-4.6 8.2s-2-1.2-1-3.8c.9-2.6 1.5-7.6-.9-10.9-2.6-3.4 4.3-5.7 4.3-5.7z"/></g><path d="M412 222.3s-25.9 16.1-28.8 26.9 34.3 33.8 34.3 33.8 4.1-3.6 4.8-6.2l-20.4-24.6c-2.2-2.8 33.1-9.6 37.4-16.3s2.8-12.4 2.8-12.4l-30.1-1.2z" class="BJ"/><path d="M460.5 243h-52.7c-1.1 0-1.9.9-1.9 1.9v10.5c0 1.1.9 1.9 1.9 1.9h52.7c1.1 0 1.9-.9 1.9-1.9v-10.5a1.97 1.97 0 0 0-1.9-1.9z" class="BN"/><path d="M436.3 165.6s-10.2 5.7-16.4 4.1c0 0 1.4-2 3.9-3.6-.1-.6-.3-1.2-.4-1.7-.6-3-.7-4.8-.7-4.8l4.7-4.2 3.2.7c.1.3.1.6.2.9 1.5 5.9 5.5 8.6 5.5 8.6z" class="BK"/><path d="M442.8 195.3c-.9 11.9.3 30-.7 33.1-.9 2.7-10.7 1.1-14.7.2-1.5-.3-3.2-.8-5-1.4-5.1-1.6-10.6-3.8-11.2-5.5 0-.1 0-.1-.1-.2h0v-.1-.6c.2-.9 1-1.8 1.1-3.9.1-2.4.1-5.1.2-8.1v-1-.1-.2c.1-3.3.3-6.8.5-10.3.1-2.2.3-4.3.4-6.4.4-5.3 1-10.1 1.8-13.1 1.3-4.9 4.1-8.1 6.7-10.4l1.9-1.6c2.1.5 4.6.2 6.8-.9 2.4-1.2 3.3-2 3.7-1.7 5.6 4.4 9.6 17.7 8.6 32.2z" class="BL"/><path d="M422.4 227.2c-5.1-1.6-10.6-3.8-11.2-5.5 0-.1 0-.1-.1-.2h0v-.1-.6c.2-.9 1-1.8 1.1-3.9.1-2.4.1-5.1.2-8.1v-1-.1-.2l19.2-8.7c0 0 1.1 15.5-9.2 28.4z" class="BH"/><g class="BK"><path d="M430.8 157c-.7 1.8-2.8 5.9-7.4 7.4-.6-3-.7-4.8-.7-4.8l4.7-4.2c1.3.3 2.5.5 3.2.7.1.3.1.6.2.9z"/><path d="M420.9 159.6s10.1 1.1 10.7-5.2 2.3-10.4-4.1-11.4-7.9 1.3-8.6 3.3c-.8 2.2-.7 12.9 2 13.3z"/></g><path d="M431.6 154.9s-.6-8.4-9.8-9.2c-6.3-.6-2.8-6-2.1-6.9l9.8 1.5c10.3 1.7 3.1 13.3 2.1 14.6z" class="BJ"/><path d="M407.2 213.9l-25 .6-7.1-22-.9.3 7.5 23.2 25.6-.5z" class="BH"/><path d="M404.5 212.5s-4 1.5-6.7 1-7 1.3-7.6 2.3-.3 1.4 1 1.6 6.1 1.6 9 .2c2.9-1.5 6.8-1.9 6.8-1.9l-2.5-3.2z" class="BK"/><path d="M435.9 173.1s-1 33.1-8.2 36.9c-3.6 1.9-19.8 7-24.7 7.8 0 0-1.3-.8-1.5-4.8 0 0 16.7-8.3 18.7-12 3.1-5.6-4.6-20.8-.5-26.2s11.6-8.3 16.2-1.7z" class="BL"/><path d="M161.4 176l-10.3 122.2s-1.1 7.4 4.4 7.4h45.1s-6.8-1.5-6.7-5c.1-4.1 12-125.8 12-125.8l-44.5 1.2z" class="BG"/><g class="BM"><path d="M203.6 303.4h-45c-3.8 0-4.5-3.4-4.6-5.6 0-1 .1-1.8.1-1.8l.3-3.2.7-8.1.6-7.2.8-9.2.7-7.8 7.3-86.8 44.5-1.2-8.6 88-1.1 11.8-.3 3.5-.9 9.6-.4 4.2-.7 8.8c0 .4 0 .7.1 1 .6 3.9 5.8 4 6.5 4z"/><path d="M53.3 109.5l25 100.5 3.4 13.8 11.7 46.9H310l-42.9-161.2z"/><path d="M53.3 109.5l-3.5 1.1 39 163.6 4.6-3.5z"/></g><path d="M88.8 274.2h215.3l5.9-3.5H93.4z" class="BG"/><path d="M164.4 303.5H211v2.2h-46.6z" fill="#ea8888"/><path d="M299.5 241l-35.1-129.4H52.9v-2.1h214.2l35 131.2z" class="BL"/><path d="M199.2 274.2l-.3 1.7-43.8 8.8.6-7.1.3-3.4z" class="BG"/><path d="M203.6 303.4h-45c-3.8 0-4.5-3.4-4.6-5.6l43.6-8.2-.7 8.8c0 .4 0 .7.1 1 .7 3.9 5.9 4 6.6 4z" opacity=".4" enable-background="new" class="BN"/><path d="M188.6 238l-95.2 32.7-11.7-46.9z" class="BG"/><path d="M53.3 109.5h213.8L301.8 239H84.4z" fill="#233862"/><path d="M207.5 255.4c-.6-3.2-3.7-5.8-6.9-5.8s-5.3 2.6-4.6 5.8c.6 3.2 3.7 5.8 6.9 5.8 3.1-.1 5.2-2.6 4.6-5.8z" class="BN"/><path d="M291.7 233.4H91.5l-22.7-90.3-1.7-6.9-1.5-5.9-3.5-13.9h197.3l3.8 13.9 1.7 5.9 1.9 6.9z" fill="#fff"/><path d="M263.2 130.3H65.6l-3.5-13.9h197.3z" class="BI"/><path d="M71.6 120.9c-1 0-1.5.8-1.3 1.7.2 1 1.2 1.7 2.2 1.7s1.5-.8 1.3-1.7c-.3-.9-1.3-1.7-2.2-1.7zm5.7 0c-1 0-1.5.8-1.3 1.7.2 1 1.2 1.7 2.2 1.7s1.5-.8 1.3-1.7-1.2-1.7-2.2-1.7zm8.4 1.8c-.2-1-1.2-1.7-2.2-1.7s-1.5.8-1.3 1.7c.2 1 1.2 1.7 2.2 1.7.9 0 1.5-.8 1.3-1.7z" fill="#dee9fd"/><path d="M228.9 170.7c-1.4-5.8-7.3-10.5-13.1-10.5-2.8 0-5.2 1.1-6.7 3-1.6 2-2.1 4.8-1.3 7.7 1.4 5.8 7.3 10.5 13.1 10.5 2.8 0 5.2-1.1 6.7-3 1.6-2 2.1-4.8 1.3-7.7zm-2 7.2c-1.4 1.7-3.5 2.7-6 2.7-5.4 0-11-4.4-12.3-9.9-.7-2.7-.2-5.1 1.2-7 1.4-1.7 3.5-2.7 6-2.7 5.4 0 11 4.4 12.3 9.9.7 2.7.3 5.1-1.2 7zm-7.2-4.7l-1.1-7.4-.1-.3h-2.9v.3l2.7 7.4zm-1.8 1.3l.7 2.7h2.7l-.6-2.7zm17.5 21.3c-1.4-5.8-7.3-10.5-13.1-10.5-2.8 0-5.2 1.1-6.7 3-1.6 2-2.1 4.8-1.3 7.7 1.4 5.8 7.3 10.5 13.1 10.5 2.8 0 5.2-1.1 6.7-3 1.6-2 2-4.8 1.3-7.7zm-2 7.2c-1.4 1.7-3.5 2.7-6 2.7-5.4 0-11-4.4-12.3-9.9-.7-2.7-.2-5.1 1.2-7 1.4-1.7 3.5-2.7 6-2.7 5.4 0 11 4.4 12.3 9.9.6 2.7.2 5.1-1.2 7zm-7.3-4.7l-1-7.4-.1-.3h-3l.1.3 2.6 7.4zm-1.7 1.3l.7 2.7h2.7l-.7-2.7z" class="BG"/><g class="BI"><use xlink:href="#B"/><path d="M254.9 150.5c-.2-.7-.8-1.2-1.5-1.2h-21.3c-.7 0-1.1.5-.9 1.2s.8 1.2 1.5 1.2H254c.7 0 1.1-.5.9-1.2z"/><use xlink:href="#B" x="1.1" y="4.5"/><path d="M260.7 175.4c-.2-.7-.8-1.2-1.5-1.2h-21.3c-.7 0-1.1.5-.9 1.2s.8 1.2 1.5 1.2h21.3c.7 0 1.1-.5.9-1.2zm3.3 17.2c.7 0 1.1-.5.9-1.2s-.8-1.2-1.5-1.2h-21.3c-.7 0-1.1.5-.9 1.2s.8 1.2 1.5 1.2H264z"/><use xlink:href="#B" x="7.6" y="29.7"/><path d="M267.2 200.5c-.2-.7-.8-1.2-1.5-1.2h-21.3c-.7 0-1.1.5-.9 1.2s.8 1.2 1.5 1.2h21.3c.7 0 1.1-.5.9-1.2zm-13.2-55l-1.5-6c-.3-1.1-1.4-2-2.5-2H79.3c-1.1 0-1.8.9-1.5 2l1.5 6c.3 1.1 1.4 2 2.5 2h170.8c1 0 1.7-.9 1.4-2z"/></g><path d="M200.3 137.5l2.5 9.9h-121c-1.1 0-2.2-.9-2.5-2l-1.5-6c-.3-1.1.4-2 1.5-2h121v.1z" class="BG"/><path d="M222.1 140.7l.2.7h1.9l-1 3.3h1l.9-3.4-.1-.6zm5.1-.1c-1.1 0-1.6.9-1.3 2.1s1.2 2.1 2.3 2.1 1.6-.9 1.3-2.1-1.2-2.1-2.3-2.1zm.9 3.3c-.5 0-1-.5-1.2-1.3-.2-.7 0-1.3.6-1.3.5 0 1 .6 1.2 1.3.1.8-.1 1.3-.6 1.3zm6.7-.2c-.1-.6-.6-1-1.2-1s-.9.5-.7 1c.1.6.6 1 1.2 1s.9-.4.7-1zm-.8.5c-.2 0-.4-.2-.5-.5s0-.5.2-.5.4.2.5.5 0 .5-.2.5zm-1-3.5l-2 4h.7l2-4zm-1.2.9c-.1-.6-.6-1-1.2-1s-.9.5-.7 1c.1.6.6 1 1.2 1 .6.1.9-.4.7-1zm-1.3 0c-.1-.3 0-.5.2-.5s.4.2.5.5 0 .5-.2.5-.5-.2-.5-.5z" class="BH"/><g class="BI"><path d="M192.3 190.5c1.2 0 2-1 1.7-2.2h0c-.3-1.2-1.6-2.2-2.8-2.2H91.7c-1.2 0-2 1-1.7 2.2h0c.3 1.2 1.6 2.2 2.8 2.2h99.5zm1.9 7.5c1.2 0 2-1 1.7-2.2s-1.6-2.2-2.8-2.2H93.5c-1.2 0-2 1-1.7 2.2s1.6 2.2 2.8 2.2h99.6zm3.6 5.5c-.3-1.2-1.6-2.2-2.8-2.2H95.5c-1.2 0-2 1-1.7 2.2s1.6 2.2 2.8 2.2h99.6c1.2.1 1.9-.9 1.6-2.2z"/><use xlink:href="#C"/><use xlink:href="#C" x="19.2"/><use xlink:href="#C" x="38"/><path d="M134.1 176.5l-4.4-17.7c-.7-2.6-3.3-4.7-5.9-4.7H86.2c-2.6 0-4.2 2.1-3.6 4.7l4.4 17.7c.7 2.6 3.3 4.7 5.9 4.7h37.6c2.7 0 4.2-2.1 3.6-4.7z"/></g><path d="M123.3 160.9a.8.8 0 0 0 .8-1.1h0c-.1-.6-.8-1.1-1.3-1.1H87.6a.8.8 0 0 0-.8 1.1h0c.1.6.8 1.1 1.3 1.1h35.2zm1 4.1a.8.8 0 0 0 .8-1.1h0c-.1-.6-.8-1.1-1.3-1.1H88.7a.8.8 0 0 0-.8 1.1h0c.1.6.8 1.1 1.3 1.1h35.1zm1.9 3.1c-.1-.6-.8-1.1-1.3-1.1H89.7a.8.8 0 0 0-.8 1.1c.1.6.8 1.1 1.3 1.1h35.1c.7-.1 1-.5.9-1.1zm-27.1 3.5h-8.3a.8.8 0 0 0-.8 1.1c.1.6.8 1.1 1.3 1.1h8.3a.8.8 0 0 0 .8-1.1c-.1-.6-.7-1.1-1.3-1.1z" class="BH"/><path d="M280.6 223.8l-2.3-9.3c-.3-1.4-1.7-2.5-3.1-2.5h-19.7c-1.4 0-2.2 1.1-1.9 2.5l2.3 9.3c.3 1.4 1.7 2.5 3.1 2.5h19.7c1.4 0 2.2-1.1 1.9-2.5z" class="BI"/><path d="M274.9 215.6c.3 0 .5-.3.4-.6s-.4-.6-.7-.6h-18.4c-.3 0-.5.3-.4.6s.4.6.7.6h18.4zm.6 2.2c.3 0 .5-.3.4-.6s-.4-.6-.7-.6h-18.4c-.3 0-.5.3-.4.6s.4.6.7.6h18.4zm.9 1.6c-.1-.3-.4-.6-.7-.6h-18.4c-.3 0-.5.3-.4.6s.4.6.7.6H276c.3-.1.5-.3.4-.6zm-14.2 1.8h-4.3c-.3 0-.5.3-.4.6h0c.1.3.4.6.7.6h4.3c.3 0 .5-.3.4-.6 0-.3-.3-.6-.7-.6z" class="BH"/><g class="BG"><use xlink:href="#D"/><use xlink:href="#D" x="0.7" y="2.8"/><path d="M144.8 221.1h-37.6c-.5 0-.8.4-.6.8.1.5.6.8 1.1.8h37.6c.5 0 .8-.4.6-.8-.1-.5-.6-.8-1.1-.8z"/><use xlink:href="#D" x="48.5"/><path d="M193 219.8c.5 0 .8-.4.6-.8h0c-.1-.5-.6-.8-1.1-.8H155c-.5 0-.8.4-.6.8h0c.1.5.6.8 1.1.8H193zm.3 1.3h-37.6c-.5 0-.8.4-.6.8.1.5.6.8 1.1.8h37.6c.5 0 .8-.4.6-.8-.2-.5-.6-.8-1.1-.8z"/><use xlink:href="#D" x="95.5"/><path d="M240 219.8c.5 0 .8-.4.6-.8h0c-.1-.5-.6-.8-1.1-.8H202c-.5 0-.8.4-.6.8h0c.1.5.6.8 1.1.8H240zm1.3 2.1c-.1-.5-.6-.8-1.1-.8h-37.6c-.5 0-.8.4-.6.8.1.5.6.8 1.1.8h37.6c.5.1.8-.3.6-.8zm7.3 5.7H103.8c-1.3 0-2.6-1-2.9-2.3L98 213.7c-.2-.7 0-1.3.3-1.8.4-.5.9-.7 1.6-.7h144.8c1.3 0 2.6 1 2.9 2.3l2.9 11.6c.2.7 0 1.3-.3 1.8-.4.4-.9.7-1.6.7zM99.9 212c-.4 0-.7.1-.9.4a1.39 1.39 0 0 0-.2 1.1l2.9 11.6c.2.9 1.2 1.7 2.1 1.7h144.8c.4 0 .7-.1.9-.4s.3-.7.2-1.1l-2.9-11.6c-.2-.9-1.2-1.7-2.1-1.7H99.9z"/></g><path d="M104.9 92.1c0-.2-.2-.3-.3-.3l-3.2.5c-.1-1-.7-2-1.7-2.6l-.2-.1c-1-.6-2.2-.6-3.2-.1L95 86.3c-.1-.2-.2-.2-.4-.2-.2.1-.2.2-.2.4l1.3 3.3c-.2.2-.4.3-.6.5-.1.2-.3.3-.4.5l-.4.6-3-1.7c-.1-.1-.3 0-.4.1s0 .3.1.4l3 1.7v.5c-.2.3-.3.7-.4 1l-4.1.6c-.2 0-.3.2-.3.3s.1.3.3.3h0l3.9-.6c0 1.2.6 2.3 1.7 3l.2.1c1 .6 2.3.6 3.3.1l1.4 3.5c0 .1.2.2.3.2h.1c.2-.1.2-.2.2-.4l-1.4-3.6c.3-.3.6-.6.8-1l.2-.3 3 1.7h.1c.1 0 .2-.1.3-.1.1-.1 0-.3-.1-.4l-3-1.7.4-.6.3-.6c.1-.3.2-.6.2-.9l3.3-.5c.1-.1.2-.2.2-.4z" class="BI"/><path d="M100.9 94.4l-.9 1.5c-.9 1.6-3 2.2-4.6 1.2l-.2-.1c-1.6-.9-2.2-3-1.2-4.6l.9-1.5c.1-.2.2-.4.4-.5l6 3.5c-.2.1-.3.3-.4.5z" fill="#9e332e"/><path d="M36.8 131l-3.8-1.1c0-.4-.1-.8-.3-1.2l-.2-.4 3.2-1.3c.2-.1.2-.2.2-.4-.1-.2-.2-.2-.4-.2l-3.2 1.3-.3-.7-.3-.6c-.2-.3-.4-.5-.6-.7l1.7-2.9c.1-.1 0-.3-.1-.4s-.3 0-.4.1l-1.6 2.9c-.9-.5-2-.7-3-.2l-.2.1c-1.1.4-1.8 1.4-2 2.4l-3.3-.9c-.2 0-.3 0-.4.2 0 .2 0 .3.2.4l3.4 1c0 .3 0 .5.1.8 0 .2.1.4.2.6l.3.7-3.2 1.3c-.2.1-.2.2-.2.4 0 .1.2.2.3.2h.1l3.2-1.3.2.4c.1.4.3.7.6.9l-2 3.6c-.1.1 0 .3.1.4h.1c.1 0 .2-.1.3-.2l2-3.5c.9.7 2.2 1 3.4.5l.2-.1c1.1-.5 1.9-1.5 2.1-2.6l3.6 1h.1c.1 0 .2-.1.3-.2-.1-.1-.2-.2-.4-.3z" class="BI"/><path d="M32.2 127.2l.6 1.6a3.35 3.35 0 0 1-1.9 4.4l-.2.1a3.35 3.35 0 0 1-4.4-1.9l-.6-1.6c-.1-.2-.1-.4-.2-.6l6.4-2.6.3.6z" fill="#9e332e"/><path d="M74.5 238.1c-.1 0-.1 0 0 0-1.3 1-9.8 6.8-28.9 4.2-.1.7-.3 1.5-.4 2.2-.1.4-.1.7-.2 1.1s-.1.7-.2 1h0c0 .3-.1.7-.1 1s-.1.7-.1 1-.1.7-.1 1h0c0 .3-.1.7-.1 1s-.1.7-.1 1-.1.7-.1 1-.1.7-.1 1c0 .2 0 .5-.1.7v.6.5.3.8.9.2.6.5 1.6.7.9.1.8.7.6.2.6.6.7.8.1.8c0 .3 0 .5.1.8 0 .3 0 .5.1.8 0 .3 0 .5.1.8 0 .2 0 .5.1.7v.1c0 .2.1.5.1.7s.1.5.1.7h0c0 .2.1.5.1.7s.1.5.1.7h0c0 .2.1.5.1.7h0c0 .2.1.5.1.7s.1.5.1.7c.1.3.1.6.2.8 0 .2.1.3.1.5s.1.4.1.6v.1c0 .2.1.4.1.6s.1.4.2.6c.1.4.2.9.3 1.3.1.2.1.4.2.6s.1.4.2.6c0 .1.1.3.1.4s.1.3.1.4.1.2.1.3c.1.2.1.4.2.6.1.4.3.8.4 1.1.1.2.1.4.2.6s.1.4.2.5c.2.5.4 1 .6 1.4.1.1.1.3.2.4l.3.6c.1.2.1.3.2.5.4.8.7 1.6 1.1 2.4.1.2.2.3.2.4.2.3.4.7.6 1 .1.1.1.2.2.4.1.1.1.2.2.3s.1.2.2.4c.2.3.3.6.5.8.1.1.1.2.2.3.2.3.4.6.6.8.1.1.1.2.2.3.4.6.9 1.2 1.3 1.8.1.1.2.2.2.3l1.2 1.5.4.4h0c.1.1.2.2.2.3.5.5.9 1 1.4 1.4l.2.2.4.4c.1.1.3.2.4.4h0c.1.1.3.2.4.3.2.2.4.4.6.5.1 0 .1.1.2.1.4.3.7.5 1 .8.1.1.2.1.3.2.3.2.5.3.7.5.1 0 .1.1.2.1.1.1.2.1.3.2h.1.1l.4.2c1.2-.4 2.4-.8 3.5-1.3 7.2-3 12.9-7.6 17.4-12.9h0c9.7-11.5 13.9-26.3 15.7-36.1.2-1.1.4-2.1.5-3.1-19.4-4-25.1-12.7-25.7-13.7z" class="BH"/><path d="M96.7 256.7c-1.6 9-5.4 22.5-14.3 32.9h0c-4.1 4.8-9.3 9-15.9 11.8-1 .4-2.1.8-3.2 1.2 0 0-.1-.1-.3-.2h-.1-.1c-.1-.1-.2-.1-.3-.2-.1 0-.1-.1-.2-.1-.2-.1-.4-.3-.6-.4-.1-.1-.2-.1-.3-.2-.3-.2-.6-.4-.9-.7-.1 0-.1-.1-.2-.1-.2-.1-.4-.3-.6-.5l-.3-.3h0a1.38 1.38 0 0 0-.4-.3c-.1-.1-.3-.2-.4-.4l-.2-.2c-.4-.4-.8-.8-1.2-1.3-.1-.1-.1-.2-.2-.2h0c-.1-.1-.2-.3-.4-.4a7.55 7.55 0 0 1-1.1-1.4c-.1-.1-.1-.2-.2-.3-.4-.5-.8-1.1-1.2-1.6-.1-.1-.1-.2-.2-.3-.2-.2-.3-.5-.5-.8-.1-.1-.1-.2-.2-.3-.2-.2-.3-.5-.5-.7-.1-.1-.1-.2-.2-.3s-.1-.2-.2-.3-.1-.2-.2-.3c-.2-.3-.3-.6-.5-.9-.1-.1-.1-.3-.2-.4-.4-.7-.7-1.4-1-2.2-.1-.1-.1-.3-.2-.4-.1-.2-.2-.4-.2-.5-.1-.1-.1-.3-.2-.4-.2-.4-.3-.9-.5-1.3-.1-.2-.1-.3-.2-.5s-.1-.3-.2-.5c-.1-.3-.2-.7-.3-1-.1-.2-.1-.3-.2-.5 0-.1-.1-.2-.1-.3s-.1-.3-.1-.4-.1-.3-.1-.4c-.1-.2-.1-.4-.2-.5 0-.2-.1-.3-.1-.5l-.3-1.2c0-.2-.1-.4-.1-.6s-.1-.4-.1-.5v-.1c0-.2-.1-.4-.1-.6s-.1-.3-.1-.5c0-.3-.1-.5-.1-.8 0-.2-.1-.4-.1-.6s-.1-.4-.1-.6h0c0-.2-.1-.4-.1-.6h0c0-.2-.1-.4-.1-.7 0-.2-.1-.4-.1-.7h0c0-.2-.1-.4-.1-.7 0-.2 0-.4-.1-.6v-.1c0-.2 0-.4-.1-.7 0-.2 0-.5-.1-.7 0-.2 0-.5-.1-.7 0-.2 0-.5-.1-.7v-.7-.1-.7-.6-.6-.5-.2-.5-.6-.8-.1-.8-.7-1.5-.5-.6-.2-.8-.8-.2-.5-.5c0-.2 0-.4.1-.6 0-.3 0-.6.1-.9 0-.3.1-.6.1-.9s.1-.6.1-.9.1-.6.1-.9h0c0-.3.1-.6.1-.9s.1-.6.1-.9.1-.6.1-.9h0c0-.3.1-.6.1-1 0-.3.1-.6.2-1l.3-2c17.4 2.3 25.1-2.9 26.3-3.8 0 0 .1 0 .1-.1.5.9 5.8 8.8 23.3 12.8a14.87 14.87 0 0 1-.3 2.8z" class="BI"/><path d="M74 241l-11.1 61.4c-.1-.1-.3-.2-.4-.3-.1 0-.1-.1-.2-.1-.2-.1-.4-.3-.6-.4-.1-.1-.2-.1-.3-.2-.3-.2-.6-.4-.9-.7-.1 0-.1-.1-.2-.1-.2-.1-.4-.3-.6-.5l-.3-.3h0a1.38 1.38 0 0 0-.4-.3c-.1-.1-.3-.2-.4-.4l-.2-.2-1.2-1.3c-.1-.1-.1-.2-.2-.2h0c-.1-.1-.2-.3-.4-.4a7.55 7.55 0 0 1-1.1-1.4c-.1-.1-.1-.2-.2-.3l-1.2-1.6c-.1-.1-.1-.2-.2-.3-.2-.2-.3-.5-.5-.8-.1-.1-.1-.2-.2-.3-.2-.2-.3-.5-.5-.7-.1-.1-.1-.2-.2-.3s-.1-.2-.2-.3-.1-.2-.2-.3c-.2-.3-.3-.6-.5-.9-.1-.1-.1-.3-.2-.4-.4-.7-.7-1.4-1-2.2-.1-.1-.1-.3-.2-.4-.1-.2-.2-.4-.2-.5-.1-.1-.1-.3-.2-.4-.2-.4-.3-.9-.5-1.3-.1-.2-.1-.3-.2-.5s-.1-.3-.2-.5l-.3-1c-.1-.2-.1-.3-.2-.5 0-.1-.1-.2-.1-.3s-.1-.3-.1-.4-.1-.3-.1-.4c-.1-.2-.1-.4-.2-.5 0-.2-.1-.3-.1-.5l-.3-1.2c0-.2-.1-.4-.1-.6s-.1-.4-.1-.5v-.1c0-.2-.1-.4-.1-.6s-.1-.3-.1-.5c0-.3-.1-.5-.1-.8 0-.2-.1-.4-.1-.6s-.1-.4-.1-.6h0c0-.2-.1-.4-.1-.6h0c0-.2-.1-.4-.1-.7 0-.2-.1-.4-.1-.7h0c0-.2-.1-.4-.1-.7 0-.2 0-.4-.1-.6v-.1c0-.2 0-.4-.1-.7 0-.2 0-.5-.1-.7 0-.2 0-.5-.1-.7 0-.2 0-.5-.1-.7v-.7-.1-.7-.6-.6-.5-.2-.5-.6-.8-.1-.8-.7-1.5-.5-.6-.2-.8-.8-.2-.5-.5c0-.2 0-.4.1-.6 0-.3 0-.6.1-.9 0-.3.1-.6.1-.9s.1-.6.1-.9.1-.6.1-.9h0c0-.3.1-.6.1-.9s.1-.6.1-.9.1-.6.1-.9h0c0-.3.1-.6.1-1 0-.3.1-.6.2-1l.3-2C66.5 247.5 74 241 74 241z" class="BL"/><defs ><path id="B" d="M257.6 167.5c.7 0 1.1-.5.9-1.2s-.8-1.2-1.5-1.2h-21.3c-.7 0-1.1.5-.9 1.2s.8 1.2 1.5 1.2h21.3z"/><path id="C" d="M137.9 178.4c.4 1.6 2 2.8 3.5 2.8h11.1c1.6 0 2.5-1.3 2.1-2.8l-5.4-21.5c-.4-1.6-2-2.8-3.5-2.8h-11.1c-1.6 0-2.5 1.3-2.1 2.8l5.4 21.5z"/><path id="D" d="M143.8 217c.5 0 .8-.4.6-.8h0c-.1-.5-.6-.8-1.1-.8h-37.6c-.5 0-.8.4-.6.8h0c.1.5.6.8 1.1.8h37.6z"/></defs></svg>