<svg xmlns="http://www.w3.org/2000/svg" xmlns:xlink="http://www.w3.org/1999/xlink" viewBox="0 0 500 369" xmlns:v="https://vecta.io/nano"><style><![CDATA[.Bg{fill:#ffa347}.Bh{fill:#ff9841}.Bi{fill:#a2cdfc}.Bj{fill:#fa9960}.Bk{fill:#f46700}.Bl{fill:#469df0}.Bm{fill:#ff862e}.Bn{fill:#003261}.Bo{fill:#ffb27b}.Bp{fill:#2776ce}]]></style><path d="M202 157.2l-6.4-.1c2.1 2.7 2.5 5.1 1.2 7.2s-4.3 3.9-8.9 5.2c3.5-9.2 5.2-18.9 5.2-28.9 0-11.2-2.2-22-6.5-32.2-4.2-9.9-10.1-18.7-17.7-26.3s-16.4-13.6-26.3-17.7c-10.2-4.3-21-6.5-32.2-6.5s-22 2.2-32.2 6.5c-1.2.5-2.4 1.1-3.6 1.6-3.6-1.1-7-2-10.4-2.7-16.9-3.4-28.9-1.1-33.7 6.7-4.6 7.3-2.1 18.4 7.1 31.3-1.2 2.3-2.4 4.6-3.4 7.1-.8 1.8-1.5 3.7-2.1 5.5-17.3 1-26.5 4.1-29.9 9.6-3.9 6.4 1.4 15 18.5 23.4 2.4 1.2 4.9 2.3 7.5 3.4.9 7.8 2.9 15.3 5.9 22.5 4.2 9.9 10.1 18.7 17.7 26.3s16.4 13.5 26.3 17.7c10.2 4.3 21 6.5 32.2 6.5s22-2.2 32.2-6.5c9.9-4.2 18.7-10.1 26.3-17.7 7.4-7.4 13.3-16 17.4-25.5 8.4-1.7 14-4.5 16.2-8.1 1.6-2.6 1.4-5.4-.4-8.3zm-19.7 13.5c-5.6 1-12.6 1.6-20.8 1.7-12.7.2-27.2-.8-42.6-2.9 1.3-2.8 2.6-5.7 3.8-8.7 4.8 1.6 9.4 2.9 13.8 3.7 5 1 9.7 1.5 13.8 1.5 9.6 0 16.5-2.8 20-8.2.6-.9 1-1.8 1.4-2.8h-4.9c-.1.1-.2.3-.3.4-2.5 4-8.2 6.1-16.1 6.1-3.8 0-8.1-.5-12.9-1.4-4.1-.8-8.5-2-13-3.5 1.2-3 2.3-6 3.4-9 3-8.3 5.6-16.4 7.6-24.3 9.5 1.4 19.6 2.1 30.4 2.1 6.7 0 13.7-.3 20.9-.8 1.1 5.2 1.6 10.5 1.6 15.9 0 10.5-2.1 20.6-6.1 30.2zm-102.4 41c-2.4-.9-3.6-4.3-4.2-7-.9-4.3-1.1-10.4-.5-17.5.3-3.6.8-7.4 1.5-11.5 9.8 2.6 19.5 6 28.9 10-2.1 3.7-4.3 7.1-6.4 10.2-4.1 5.9-8.1 10.4-11.6 13.1-2.2 1.7-5.3 3.6-7.7 2.7zm27.9-29.8c-9.9-4.3-20.1-7.8-30.3-10.5l1.2-5.7 8.7 1.9c8.6 1.8 17.1 3.2 25.5 4.4-1.7 3.5-3.4 6.8-5.1 9.9zm-18.5-17.4l-9.8-2.1c1.5-6.3 3.4-12.8 5.5-19.5 11.3 6.9 22.7 12.6 33.6 16.6l-4.2 9.5c-8.3-1.3-16.7-2.7-25.1-4.5zM61.7 79.6c.7 1.5 1.7 3.3 3 5.4 5.7 8.8 13.2 15.2 18.5 19 3 2.2 6.3 4.2 9.7 6.1a340.79 340.79 0 0 0-8.9 21.8l-1.5 4.2c-16.5-10.7-30.4-23-39.5-34.9 2.3-3.9 4.9-7.6 7.9-11.1 1.2-1.4 2.5-2.8 3.8-4.2l.5-.5c2.2-2.1 4.3-4 6.5-5.8zm70.4-11.8c2.4.9 3.6 4.3 4.2 7 .9 4.3 1.1 10.4.5 17.5-.7 7.8-2.2 16.7-4.6 26.1-2.8-.5-5.6-1-8.2-1.6-9.2-2.1-17.7-5-25.2-8.7 4.5-9.4 9.2-17.7 14-24.5 4.1-5.9 8.1-10.4 11.6-13.1 1.8-1.4 4.3-2.9 6.4-2.9.5-.1.9 0 1.3.2zm-9.4 53.2c2.7.6 5.5 1.2 8.4 1.7-2 7.6-4.5 15.5-7.4 23.5-1.1 3.1-2.3 6.1-3.5 9.1-10.9-4-22.5-9.7-33.8-16.8l1.8-5.2c2.7-7.4 5.6-14.6 8.7-21.3 7.8 3.8 16.4 6.8 25.8 9zm42.8-35.6c7.2 7.2 12.8 15.5 16.7 24.8 1.4 3.3 2.6 6.7 3.5 10.2-18 1.3-34.4.9-49.1-1.2 2.3-9.5 3.9-18.5 4.6-26.4.8-8.8.7-19.1-2.9-25 .8.3 1.6.6 2.5 1 9.2 3.8 17.6 9.4 24.7 16.6zm-55.1-22.9c5.4 0 10.7.5 15.9 1.6-6.1 2.7-12.4 10.1-17.1 16.9-4.9 7-9.7 15.5-14.3 25a108.59 108.59 0 0 1-8.8-5.4C77 94.1 71.5 87.4 68.6 82.8c-1.6-2.4-2.6-4.5-3.3-5.9 3.2-2.3 6.6-4.3 10.1-6.1 1.4-.7 2.9-1.4 4.4-2 .1 0 .2-.1.3-.1h.1c.3-.1.6-.3 1-.4.1 0 .2-.1.3-.1 9.1-3.8 18.9-5.7 28.9-5.7zm-76.1 9.8c2.5-4 8.2-6.1 16.1-6.1 3.8 0 8.1.5 12.9 1.4 1.8.4 3.7.8 5.5 1.3A85.09 85.09 0 0 0 51.9 82c-1.1 1.1-2.1 2.1-3.1 3.3-1.3 1.4-2.5 2.8-3.6 4.3-1.8 2.4-3.5 4.8-5.1 7.3-7.1-10.4-9.2-19.3-5.8-24.6zm4.3 37.9c.7-1.6 1.4-3.2 2.2-4.7 9.6 12 23.8 24.3 40.4 35-2.4 7.2-4.4 14.2-6 20.9-12.1-2.9-23.2-6.2-33-9.8-2.1-.7-4.1-1.5-6-2.2-1.1-.4-2.2-.9-3.3-1.4-.2-1.7-.3-3.4-.3-5.1v-2.4-2.9c.3-7.1 1.5-14 3.6-20.7.4-1.1.7-2.2 1.2-3.4.3-1 .7-2.2 1.2-3.3zm-14.1 34.1C9.7 137 2.8 130 5.9 125c2.5-4 11.4-6.8 25.1-7.8-1.7 5.7-2.7 11.5-3.1 17.5-.1 1.8-.2 3.5-.2 5.3v.5c0 1.8.1 3.6.2 5.3-1.2-.5-2.3-1-3.4-1.5zm11.3 8.9c2 .8 4.1 1.5 6.2 2.2 9.8 3.4 20.7 6.5 32.4 9.3l-1.2 5.6c-1-.2-1.9-.5-2.9-.7-16.2-3.7-28.3-4.4-33.9-4.6-1.4-4.2-2.4-8.5-3.1-12.9.9.5 1.7.8 2.5 1.1zm2.8 17.6c-.2-.4-.3-.8-.5-1.3 6 .2 17.1 1.1 31.3 4.4 1 .2 2 .5 3 .7-.7 4.3-1.3 8.3-1.6 12.2-.6 7.3-.7 15.6 1.3 21.6-6.2-3.5-11.8-7.8-16.9-12.8-7-7.2-12.7-15.5-16.6-24.8zm102.2 41.5c-9.6 4.1-19.8 6.1-30.3 6.1-8.1 0-16-1.2-23.6-3.6 5.8-3 11.6-10 16-16.4 2.3-3.3 4.6-6.9 6.9-10.9 13.1 5.9 25.7 13.2 37.5 21.7a63.88 63.88 0 0 1-6.5 3.1zm24.7-16.7c-4.3 4.3-9.1 8.1-14.2 11.2-12.4-9.1-25.7-16.8-39.5-23.1 1.9-3.5 3.8-7.2 5.6-11 12.7 1.7 24.8 2.7 35.9 2.9 2.9.1 5.7.1 8.4.1 7.1-.1 13.4-.5 18.8-1.3-3.7 7.9-8.8 15-15 21.2z" fill="#a0cbfa"/><path d="M360.3 146.9s15.6 15.3 16.3 21.1-7.1 14.8-7.1 14.8l-9.2-35.9z" class="Bm"/><g class="Bn"><path d="M354.7 306.2s-.5 8.2-2.1 8.3h-8l-9.9-.1s.1-2.4 3-2.9 7.8-2.5 9.5-6.4c1.8-4 7.5 1.1 7.5 1.1zm22.1 0s-.5 8.2-2.1 8.3h-8l-9.9-.1s.1-2.4 3-2.9 7.8-2.5 9.5-6.4c1.9-4 7.5 1.1 7.5 1.1z"/><path d="M343.7 218.6s2.6 16.6 12.3 46.2c9.7 29.5 11 42.3 11 42.3l10.4-.3s.1-32.3-4.4-47.1-1-53.5-1-53.5l-28.3 12.4z"/></g><path d="M338.6 207s-.4 25.1 4 55.8c4.3 30.8 2.9 43.8 2.9 43.8l10.4.3s6.2-30.8 4.4-46.2 8.5-52.9 8.5-52.9l-30.2-.8z" fill="#00448c"/><path d="M358.7 148.3l-4.9 3.6-7.1-1.5 1-5.7c0-.1.1-.3.1-.4l.7-3.8 6.6-3.3 2.5-1.2-.2 2.6c-.5 5.8 1.3 9.7 1.3 9.7z" class="Bo"/><path d="M347.2 146.5c.2-.1 9.6-2.9 10.7-2.5 1 .3 1.6 2.3 1.6 2.3l-15.5 3.5s1.2-2.5 3.2-3.3z" class="Bm"/><path d="M372.7 210.1c-1.6 7.3-28.3 8.2-35.2 1.5-.8-.8-.8-4.3-.5-9 .6-9.3 2.4-23.3 2.5-30.4 0-3.4.5-7 1.1-10.2 1.3-6.8 3.4-12.2 3.4-12.2s13.1-4.2 15.5-3.5c11.8 3.5 14.8 56.5 13.2 63.8z" class="Bh"/><path d="M337 202.6c.6-9.3 2.4-23.3 2.5-30.4 0-3.4.5-7 1.1-10.2l7.9-1.4s7.7 31.4-11.5 42z" class="Bm"/><path d="M341.2 189.6s.5 1.3-.6 2.1c-1.1.9-1.9 2.3-1.6 3.3s2.7 2.7 3.6 2.4 2.6-1.6 2.4-2.1 1.2-4.7-.9-6.3-2.9.6-2.9.6z" class="Bo"/><path d="M350 148.2s-7.6 1.2-13.7 10.2-10.1 15.7-9 18.9 11.4 14.5 13.1 14.5c1.8 0 4.6-1.3 4.8-4.2 0 0-7.2-10.8-5.8-12.4.6-.7 9.4-7.8 10.6-4.6 2.1 5.3 0-22.4 0-22.4z" class="Bh"/><path d="M356.8 138.7c-1.5 2.8-6.9 5.2-9.1 6.1 0-.1.1-.3.1-.4l.7-3.8 6.6-3.3c1.4-.1 2.3.2 1.7 1.4z" fill="#ffa668"/><path d="M345.3 140.1s11.9 3.7 14.1-3.7c2.2-7.5 5.2-12-2.3-14.7s-9.9-.3-11.2 2-3.7 15.2-.6 16.4z" class="Bo"/><path d="M347.8 123.2s.7 9 2.5 8.6 3.4-.7 3.2 2c-.3 2.7-2.8 5.8 2.7 6.3 5.5.4 13.6-14.4 12.1-17.2-4.3-8-26.8-9.4-20.5.3z" class="Bn"/><path d="M432 205.2s-4.6 1.2-7.5.3-7.9.6-8.7 1.6c-.8 1.1-.5 1.5.9 1.8 1.4.4 6.5 2.5 9.9 1.3 3.3-1.3 7.7-1.3 7.7-1.3l-2.3-3.7z" class="Bj"/><path d="M471.5 165.4s-5.1 36.5-13.7 39.8c-4.2 1.6-22.8 5.3-28.3 5.6 0 0-1.3-1.1-1-5.5 0 0 19.4-7.1 22.2-11 4.1-5.8-2.6-23.6 2.6-29 5.3-5.5 13.9-7.8 18.2.1z" class="Bp"/><path d="M470.8 306.2v-8h12.5a.65.65 0 0 0 .6-.6v-1.3a.65.65 0 0 0-.6-.6h-12.5v-45.3a2.26 2.26 0 0 0-2.3-2.3H466a2.26 2.26 0 0 0-2.3 2.3v45.3h-12.5a.65.65 0 0 0-.6.6v1.3a.65.65 0 0 0 .6.6h12.5v8c-9.1.7-16.3 4-18.4 8.2h43.9c-2-4.2-9.3-7.5-18.4-8.2z" fill="#0d458d"/><g class="Bn"><path d="M469.8 242.4c-1.5 2.5-3.2 4.9-5 7.2-5.5 7-11.5 12.7-12.6 18.2-.2 1.1-.5 2.2-1 3.5-.4 1.2-1 2.6-1.6 3.9-2.3 5.1-5.9 10.8-9.4 16-6.1 9-11.7 16.4-11.7 16.4l-10.4-.4 11.1-28.6 7.6-19c.3-.8.7-1.7 1-2.5.8-1.9 1.5-3.8 2.3-5.7l10.3-25.5s22.8-8.7 25.2-3c1.9 4.5.3 9.1-5.8 19.5z"/><path d="M428.2 305.6s-.5 8.7-2.2 8.8h-19.1s.2-2.6 3.2-3.2c3.1-.5 8.2-2.7 10.1-6.8 2-4.2 8 1.2 8 1.2zm24.1-24.6s7.3 4.7 6.6 6.2l-4.1 7.4-5.2 9.1s-2.2-1.3-1.1-4.2c1-2.9 1.7-8.5-1-12.1-2.8-3.8 4.8-6.4 4.8-6.4z"/></g><path d="M442.7 221.7s-28.9 18-32.1 30 38.2 37.6 38.2 37.6 4.5-4 5.3-6.9L431.4 255c-2.5-3.1 36.8-10.7 41.6-18.1 4.8-7.5 3.1-13.8 3.1-13.8l-33.4-1.4z" fill="#00448c"/><path d="M496.6 244.7h-58.7c-1.2 0-2.1 1-2.1 2.1v11.7c0 1.2 1 2.1 2.1 2.1h58.7c1.2 0 2.1-1 2.1-2.1v-11.7c.1-1.2-.9-2.1-2.1-2.1z" class="Bh"/><path d="M469.7 158.5s-11.4 6.4-18.3 4.6c0 0 1.6-2.2 4.4-4-.2-.7-.3-1.3-.4-1.9-.7-3.4-.8-5.3-.8-5.3l5.2-4.7 3.5.7c.1.3.1.7.2 1 1.7 6.6 6.2 9.6 6.2 9.6z" class="Bj"/><path d="M476.9 191.6c-1 13.2.3 33.4-.8 36.9-1 3-11.9 1.2-16.3.2-1.6-.4-3.6-.9-5.6-1.5-5.7-1.8-11.8-4.3-12.5-6.1 0-.1 0-.1-.1-.2v-.1-.6c.2-.9 1.1-2 1.2-4.3.1-2.6.1-5.7.2-9 0-.4 0-.8.1-1.2v-.1-.2c.1-3.7.3-7.6.5-11.4.1-2.4.3-4.8.5-7.1.5-5.9 1.2-11.2 2-14.5 1.4-5.4 4.6-9 7.5-11.6l2.1-1.8c2.3.5 5.1.2 7.6-1 2.7-1.3 3.6-2.2 4.1-1.9 6.2 4.6 10.7 19.3 9.5 35.5z" fill="#5e9af2"/><path d="M454.2 227.1c-5.7-1.8-11.8-4.3-12.5-6.1 0-.1 0-.1-.1-.2v-.1-.6c.2-.9 1.1-2 1.2-4.3.1-2.6.1-5.7.2-9 0-.4 0-.8.1-1.2v-.1-.2l21.4-9.7c0-.1 1.2 17.1-10.3 31.5z" class="Bp"/><path d="M463.6 149c-.8 2-3.1 6.6-8.2 8.2-.7-3.4-.8-5.3-.8-5.3l5.2-4.7 3.5.7c.2.4.2.8.3 1.1z" fill="#eb8d5a"/><path d="M452.5 151.9s11.3 1.3 11.9-5.8c.7-7 2.6-11.6-4.6-12.7s-8.8 1.4-9.6 3.7c-.7 2.4-.6 14.3 2.3 14.8z" class="Bj"/><path d="M464.4 146.6s-.7-9.3-11-10.3c-7-.7-3.1-6.7-2.4-7.7 0 0 5.4.7 10.9 1.6 11.7 2 3.7 15 2.5 16.4z" fill="#0d458d"/><path d="M437.4 212.3l-27.9.6-8-24.4-.9.3 8.3 25.8 28.5-.6z" class="Bp"/><path d="M434.3 210.8s-4.4 1.7-7.4 1.1-7.8 1.4-8.5 2.6c-.7 1.1-.3 1.5 1.1 1.7 1.5.2 6.8 1.8 10 .2s7.5-2.1 7.5-2.1l-2.7-3.5z" class="Bj"/><path d="M469.2 166.9s-1.1 36.9-9.2 41.1c-4 2.1-22 7.8-27.5 8.7 0 0-1.5-.9-1.6-5.4 0 0 18.5-9.2 20.9-13.4 3.4-6.2-5.1-23.2-.6-29.1 4.6-6 12.9-9.3 18-1.9z" fill="#5e9af2"/><path d="M163.8 170.1l-11.4 136s-1.2 8.2 4.9 8.3h50.2s-7.6-1.7-7.5-5.6c.1-4.6 13.4-140 13.4-140l-49.6 1.3z" class="Bk"/><path d="M210.7 311.9h-50.1c-4.3-.1-5-3.8-5.1-6.2 0-1.2.1-2 .1-2l.3-3.5.8-9 .7-8 .9-10.2.7-8.6 8.1-96.7 49.6-1.3-9.5 98-1.2 13.1-.4 3.8-1 10.7-.4 4.6-.8 9.8c0 .4 0 .8.1 1.1.7 4.3 6.5 4.4 7.2 4.4z" class="Bh"/><path d="M43.4 96.1L71.2 208l3.9 15.3L88 275.5h241.2L281.3 96.1z" class="Bg"/><path d="M43.4 96.1l-3.9 1.2 43.4 182.1 5.1-3.9z" class="Bh"/><path d="M82.9 279.4h239.7l6.6-3.9H88z" class="Bk"/><path d="M167.1 312H219v2.5h-51.9zm150.4-69.6l-39.1-144H43v-2.3h238.3l39 146z" class="Bg"/><g class="Bk"><path d="M205.8 279.4l-.3 1.8-48.8 9.9.7-8 .3-3.7z"/><path d="M210.7 311.9h-50.1c-4.3-.1-5-3.8-5.1-6.2l48.6-9.1-.8 9.8c0 .4 0 .8.1 1.1.8 4.3 6.6 4.4 7.3 4.4zM194 239.1L88 275.5l-12.9-52.2z" opacity=".4"/></g><path d="M43.4 96.1h237.9L320 240.2H78z" class="Bl"/><path d="M215 258.5c-.7-3.5-4.1-6.4-7.6-6.4s-5.8 2.9-5.2 6.4c.7 3.5 4.1 6.4 7.6 6.4 3.6 0 5.9-2.9 5.2-6.4z" class="Bk"/><path d="M308.7 234H85.9L60.7 133.5l-1.9-7.7-1.7-6.6-3.9-15.4h219.6l4.3 15.4 1.8 6.6 2.1 7.7z" fill="#e5f2fd"/><path d="M277.1 119.2h-220l-3.9-15.4h219.6z" class="Bi"/><path d="M63.8 108.8c-1.1 0-1.7.9-1.4 1.9.3 1.1 1.3 1.9 2.4 1.9s1.7-.9 1.4-1.9-1.4-1.9-2.4-1.9zm6.4 0c-1.1 0-1.7.9-1.4 1.9.3 1.1 1.3 1.9 2.4 1.9s1.7-.9 1.4-1.9-1.4-1.9-2.4-1.9zm9.3 1.9c-.3-1.1-1.3-1.9-2.4-1.9s-1.7.9-1.4 1.9c.3 1.1 1.3 1.9 2.4 1.9 1 .1 1.6-.8 1.4-1.9z" fill="#e5f2fd"/><path d="M238.9 164.2c-1.6-6.5-8.2-11.7-14.6-11.7-3.1 0-5.8 1.2-7.5 3.4-1.8 2.3-2.3 5.3-1.5 8.5 1.6 6.5 8.2 11.7 14.6 11.7 3.1 0 5.8-1.2 7.5-3.4 1.8-2.2 2.3-5.2 1.5-8.5zm-2.2 8c-1.5 1.9-3.9 3-6.7 3-6.1 0-12.2-4.9-13.7-11-.7-3-.3-5.7 1.3-7.7 1.5-1.9 3.9-3 6.7-3 6.1 0 12.2 4.9 13.7 11 .7 2.9.3 5.7-1.3 7.7zm9.4 20c-1.6-6.5-8.2-11.7-14.6-11.7-3.1 0-5.8 1.2-7.5 3.4-1.8 2.3-2.3 5.3-1.5 8.5 1.6 6.5 8.2 11.7 14.6 11.7 3.1 0 5.8-1.2 7.5-3.4 1.8-2.3 2.3-5.3 1.5-8.5zm-2.2 7.9c-1.5 1.9-3.9 3-6.7 3-6.1 0-12.2-4.9-13.7-11-.7-3-.3-5.7 1.3-7.7 1.5-1.9 3.9-3 6.7-3 6.1 0 12.2 4.9 13.7 11 .7 3 .3 5.7-1.3 7.7z" class="Bg"/><path d="M270.8 160.6c.7 0 1.2-.6 1-1.3s-.9-1.3-1.7-1.3h-23.7c-.7 0-1.2.6-1 1.3s.9 1.3 1.7 1.3h23.7zm-3-18.9c-.2-.7-.9-1.3-1.7-1.3h-23.7c-.7 0-1.2.6-1 1.3s.9 1.3 1.7 1.3h23.7c.8.1 1.2-.5 1-1.3zm4.2 24c.7 0 1.2-.6 1-1.3s-.9-1.3-1.7-1.3h-23.7c-.7 0-1.2.6-1 1.3s.9 1.3 1.7 1.3H272zm2.3 3.8c-.2-.7-.9-1.3-1.7-1.3h-23.7c-.7 0-1.2.6-1 1.3s.9 1.3 1.7 1.3h23.7c.7 0 1.2-.6 1-1.3zm3.7 19.1c.7 0 1.2-.6 1-1.3s-.9-1.3-1.7-1.3h-23.7c-.7 0-1.2.6-1 1.3s.9 1.3 1.7 1.3H278zm1.2 5.1c.7 0 1.2-.6 1-1.3s-.9-1.3-1.7-1.3h-23.7c-.7 0-1.2.6-1 1.3s.9 1.3 1.7 1.3h23.7zm2.3 3.7c-.2-.7-.9-1.3-1.7-1.3h-23.7c-.7 0-1.2.6-1 1.3s.9 1.3 1.7 1.3h23.7c.7 0 1.2-.6 1-1.3z" class="Bi"/><g class="Bg"><path d="M266.8 136.1l-1.7-6.6c-.3-1.2-1.5-2.2-2.8-2.2H72.4c-1.2 0-2 1-1.7 2.2l1.7 6.6c.3 1.2 1.5 2.2 2.8 2.2h190.1c1.1 0 1.8-1 1.5-2.2z"/><path d="M207.1 127.3l2.8 11.1H75.1c-1.2 0-2.5-1-2.8-2.2l-1.7-6.6c-.3-1.2.4-2.2 1.7-2.2h134.8z"/></g><g class="Bi"><path d="M198.2 186.3c1.4 0 2.2-1.1 1.9-2.5h0c-.3-1.4-1.7-2.5-3.1-2.5H86.1c-1.4 0-2.2 1.1-1.9 2.5h0c.3 1.4 1.7 2.5 3.1 2.5h110.9zm2.1 8.3c1.4 0 2.2-1.1 1.9-2.5s-1.7-2.5-3.1-2.5H88.2c-1.4 0-2.2 1.1-1.9 2.5s1.7 2.5 3.1 2.5h110.9zm4 6.2c-.3-1.4-1.7-2.5-3.1-2.5H90.3c-1.4 0-2.2 1.1-1.9 2.5s1.7 2.5 3.1 2.5h110.8c1.5 0 2.3-1.2 2-2.5z"/><use xlink:href="#B"/><use xlink:href="#B" x="21.4"/><use xlink:href="#B" x="42.4"/><path d="M133.3 170.7l-4.9-19.7c-.7-2.9-3.7-5.3-6.6-5.3H80c-2.9 0-4.7 2.4-4 5.3l4.9 19.7c.7 2.9 3.7 5.3 6.6 5.3h41.8c3-.1 4.8-2.4 4-5.3z"/></g><path d="M121.3 153.3c.7 0 1.1-.5.9-1.2h0c-.2-.7-.8-1.2-1.5-1.2H81.6c-.7 0-1.1.5-.9 1.2h0c.2.7.8 1.2 1.5 1.2h39.1zm1.2 4.6c.7 0 1.1-.5.9-1.2h0c-.2-.7-.8-1.2-1.5-1.2H82.8c-.7 0-1.1.5-.9 1.2h0c.2.7.8 1.2 1.5 1.2h39.1zm2 3.4c-.2-.7-.8-1.2-1.5-1.2H83.9c-.7 0-1.1.5-.9 1.2s.8 1.2 1.5 1.2h39.1c.7 0 1.1-.6.9-1.2zm-30.1 3.9h-9.2c-.7 0-1.1.5-.9 1.2s.8 1.2 1.5 1.2H95c.7 0 1.1-.5.9-1.2-.1-.6-.8-1.2-1.5-1.2z" class="Bl"/><path d="M296.4 223.3l-2.6-10.3c-.4-1.5-1.9-2.8-3.5-2.8h-22c-1.5 0-2.5 1.2-2.1 2.8l2.6 10.3c.4 1.5 1.9 2.8 3.5 2.8h22c1.5 0 2.5-1.3 2.1-2.8z" class="Bi"/><path d="M290.1 214.2c.3 0 .6-.3.5-.6s-.4-.6-.8-.6h-20.5c-.3 0-.6.3-.5.6s.4.6.8.6h20.5zm.6 2.4c.3 0 .6-.3.5-.6s-.4-.6-.8-.6h-20.5c-.3 0-.6.3-.5.6s.4.6.8.6h20.5zm1.1 1.8c-.1-.3-.4-.6-.8-.6h-20.5c-.3 0-.6.3-.5.6s.4.6.8.6h20.5c.3 0 .5-.3.5-.6zm-15.8 2.1h-4.8c-.3 0-.6.3-.5.6h0c.1.3.4.6.8.6h4.8c.3 0 .6-.3.5-.6s-.5-.6-.8-.6z" class="Bl"/><g class="Bg"><use xlink:href="#C"/><path d="M145 218.9c.5 0 .8-.4.7-.9h0c-.1-.5-.7-.9-1.2-.9h-41.8c-.5 0-.8.4-.7.9h0c.1.5.7.9 1.2.9H145zm.3 1.4h-41.8c-.5 0-.8.4-.7.9s.7.9 1.2.9h41.8c.5 0 .8-.4.7-.9s-.7-.9-1.2-.9z"/><use xlink:href="#C" x="53.9"/><use xlink:href="#C" x="54.7" y="3.1"/><path d="M199.3 220.3h-41.8c-.5 0-.8.4-.7.9s.7.9 1.2.9h41.8c.5 0 .8-.4.7-.9-.2-.5-.7-.9-1.2-.9z"/><use xlink:href="#C" x="106.2"/><use xlink:href="#C" x="107" y="3.1"/><path d="M252.7 221.2c-.1-.5-.7-.9-1.2-.9h-41.8c-.5 0-.8.4-.7.9s.7.9 1.2.9H252c.5.1.8-.4.7-.9zm8.1 6.3H99.6c-1.4 0-2.9-1.2-3.2-2.6L93.2 212c-.2-.7-.1-1.5.4-2 .4-.5 1-.8 1.8-.8h161.2c1.4 0 2.9 1.2 3.2 2.6l3.2 12.9c.2.7.1 1.5-.4 2-.4.5-1.1.8-1.8.8zM95.3 210.2a1.53 1.53 0 0 0-1 .4c-.2.3-.3.7-.2 1.2l3.2 12.9c.3 1 1.3 1.9 2.3 1.9h161.2a1.53 1.53 0 0 0 1-.4c.2-.3.3-.7.2-1.2l-3.2-12.9c-.3-1-1.3-1.9-2.3-1.9H95.3z"/></g><path d="M67 239.2c-.1 0-.1.1 0 0-1.5 1.1-10.9 7.6-32.2 4.7-.1.8-.3 1.6-.4 2.4-.1.4-.1.8-.2 1.2s-.1.8-.2 1.2h0c-.1.4-.1.8-.2 1.2s-.1.8-.2 1.2c0 .4-.1.8-.1 1.1h0c0 .4-.1.7-.1 1.1s-.1.7-.1 1.1-.1.7-.1 1.1-.1.7-.1 1.1c0 .3 0 .5-.1.8v.6.6.3c0 .3 0 .6-.1.9 0 .3 0 .7-.1 1v.2.7.6 1.8.8 1 .1.9.8.6.2.7.7.8.9.1c0 .3 0 .6.1.8 0 .3 0 .6.1.9 0 .3 0 .6.1.9 0 .3.1.6.1.9s.1.5.1.8v.1c0 .3.1.5.1.8s.1.5.1.8.1.5.1.8.1.5.1.8.1.5.1.8.1.5.1.8.1.5.1.8c.1.3.1.6.2.9 0 .2.1.4.1.6s.1.5.2.7v.1c0 .2.1.4.1.7.1.2.1.5.2.7.1.5.2 1 .4 1.4.1.2.1.4.2.6s.1.4.2.7c0 .2.1.3.1.5s.1.3.1.5c0 .1.1.2.1.4.1.2.1.4.2.6.1.4.3.8.4 1.3.1.2.1.4.2.6s.1.4.2.6c.2.5.4 1.1.6 1.6.1.2.1.3.2.5s.2.4.3.7c.1.2.1.3.2.5.4.9.8 1.8 1.3 2.7.1.2.2.3.3.5.2.4.4.8.6 1.1.1.1.1.3.2.4s.1.2.2.4a.76.76 0 0 1 .2.4l.6.9c.1.1.1.2.2.3l.6.9c.1.1.1.2.2.3.5.7 1 1.4 1.5 2l.3.3 1.4 1.7c.1.2.3.3.4.5l.3.3c.5.6 1 1.1 1.5 1.5l.2.2c.2.2.3.3.5.4s.3.3.4.4.3.2.4.4c.2.2.5.4.7.6.1 0 .1.1.2.1.4.3.8.6 1.1.9.1.1.2.1.3.2.3.2.6.4.8.5.1 0 .1.1.2.1a.76.76 0 0 0 .4.2h.1.1c.3.1.4.2.4.2 1.4-.4 2.7-.9 3.9-1.5 8-3.4 14.4-8.5 19.4-14.4 10.8-12.8 15.5-29.3 17.5-40.2l.6-3.4C74 250 67.6 240.3 67 239.2z" fill="#2a8fe3"/><path d="M91.7 259.9c-1.8 10-6.1 25-15.9 36.6-4.6 5.4-10.4 10-17.7 13.1-1.2.5-2.4.9-3.6 1.3 0 0-.1-.1-.4-.2H54h-.1c-.1-.1-.2-.1-.3-.2-.1 0-.1-.1-.2-.1a3.04 3.04 0 0 1-.7-.5c-.1-.1-.2-.1-.3-.2-.3-.2-.7-.5-1-.8-.1 0-.1-.1-.2-.1-.2-.2-.4-.3-.6-.5-.1-.1-.3-.2-.4-.3s-.3-.2-.4-.4l-.4-.4-.2-.2-1.4-1.4c-.1-.1-.2-.2-.2-.3l-.4-.4c-.4-.5-.8-1-1.3-1.5-.1-.1-.2-.2-.2-.3-.4-.6-.9-1.2-1.3-1.8-.1-.1-.1-.2-.2-.3l-.6-.9c-.1-.1-.1-.2-.2-.3-.2-.3-.3-.5-.5-.8-.1-.1-.1-.2-.2-.4-.1-.1-.1-.2-.2-.3s-.1-.2-.2-.4c-.2-.3-.4-.7-.6-1-.1-.1-.2-.3-.2-.5l-1.2-2.4c-.1-.2-.1-.3-.2-.5l-.3-.6c-.1-.1-.1-.3-.2-.4L39 291c-.1-.2-.1-.4-.2-.6s-.1-.4-.2-.6c-.1-.4-.3-.8-.4-1.1-.1-.2-.1-.4-.2-.6 0-.1-.1-.2-.1-.3s-.1-.3-.1-.4-.1-.3-.1-.4c-.1-.2-.1-.4-.2-.6s-.1-.4-.2-.6c-.1-.4-.2-.9-.3-1.3-.1-.2-.1-.4-.2-.7 0-.2-.1-.4-.1-.6v-.1c0-.2-.1-.4-.1-.6s-.1-.3-.1-.5c-.1-.3-.1-.6-.2-.9 0-.2-.1-.5-.1-.7s-.1-.5-.1-.7-.1-.5-.1-.7-.1-.5-.1-.7-.1-.5-.1-.7-.1-.5-.1-.7-.1-.5-.1-.7v-.1c0-.2-.1-.5-.1-.7 0-.3-.1-.5-.1-.8s0-.5-.1-.8c0-.3 0-.5-.1-.8v-.8-.1-.8-.7-.6-.6-.2-.6-.7-.8-.1-.9-.7-1.6-.5-.7-.2-.9c0-.3 0-.6.1-.8v-.3-.5-.6c0-.2 0-.5.1-.7 0-.3.1-.7.1-1s.1-.7.1-1 .1-.7.1-1 .1-.7.1-1h0c0-.3.1-.7.1-1 0-.4.1-.7.1-1.1s.1-.7.1-1.1h0c.1-.4.1-.7.2-1.1s.1-.7.2-1.1c.1-.7.2-1.5.4-2.2 19.4 2.6 28-3.3 29.2-4.2 0 0 .1 0 .1-.1.6 1 6.4 9.8 25.9 14.3 0 .8-.2 1.8-.4 2.9z" class="Bi"/><path d="M66.4 242.5l-12.3 68.4c-.1-.1-.3-.2-.5-.3-.1 0-.1-.1-.2-.1a3.04 3.04 0 0 1-.7-.5c-.1-.1-.2-.1-.3-.2-.3-.2-.7-.5-1-.8-.1 0-.1-.1-.2-.1-.2-.2-.4-.3-.6-.5-.1-.1-.3-.2-.4-.3s-.3-.2-.4-.4l-.4-.4-.2-.2-1.4-1.4c-.1-.1-.2-.2-.2-.3l-.4-.4-1.3-1.5c-.1-.1-.2-.2-.2-.3l-1.3-1.8c-.1-.1-.1-.2-.2-.3l-.6-.9c-.1-.1-.1-.2-.2-.3l-.5-.8c-.1-.1-.1-.2-.2-.4-.1-.1-.1-.2-.2-.3s-.1-.2-.2-.4l-.6-1c-.1-.1-.2-.3-.2-.5l-1.2-2.4c-.1-.2-.1-.3-.2-.5l-.3-.6c-.1-.1-.1-.3-.2-.4l-.6-1.5c-.1-.2-.1-.4-.2-.6s-.1-.4-.2-.6c-.1-.4-.3-.8-.4-1.1-.1-.2-.1-.4-.2-.6 0-.1-.1-.2-.1-.3s-.1-.3-.1-.4-.1-.3-.1-.4c-.1-.2-.1-.4-.2-.6s-.1-.4-.2-.6l-.3-1.3c-.1-.2-.1-.4-.2-.7 0-.2-.1-.4-.1-.6v-.1c0-.2-.1-.4-.1-.6s-.1-.3-.1-.5c-.1-.3-.1-.6-.2-.9 0-.2-.1-.5-.1-.7s-.1-.5-.1-.7-.1-.5-.1-.7-.1-.5-.1-.7-.1-.5-.1-.7-.1-.5-.1-.7-.1-.5-.1-.7v-.1c0-.2-.1-.5-.1-.7 0-.3-.1-.5-.1-.8s0-.5-.1-.8c0-.3 0-.5-.1-.8v-.8-.1-.8-.7-.6-.6-.2-.6-.7-.8-.1-.9-.7-1.6-.5-.7-.2-.9c0-.3 0-.6.1-.8v-.3-.5-.6c0-.2 0-.5.1-.7 0-.3.1-.7.1-1s.1-.7.1-1 .1-.7.1-1 .1-.7.1-1h0c0-.3.1-.7.1-1 0-.4.1-.7.1-1.1s.1-.7.1-1.1h0c.1-.4.1-.7.2-1.1s.1-.7.2-1.1l.4-2.2c21.2 2.6 29.5-4.6 29.5-4.6z" class="Bl"/><path d="M220.8 165.8c.8 1.6 1.5 3.3 2.5 4.7.3.3.7.4 1.1.3 1.7-.3 2.9-3.2 3.8-4.4l5-6.9c.9-1.2-1.1-2.3-1.9-1.1l-3.8 5.2-1.9 2.6c-.3.4-1.3 2.3-1.8 2.4l1.1.3c-.9-1.2-1.5-2.9-2.2-4.2s-2.6-.2-1.9 1.1h0zm7.9 29c.8 1.6 1.5 3.3 2.5 4.7.3.3.7.4 1.1.3 1.7-.3 2.9-3.2 3.8-4.4l5-6.9c.9-1.2-1.1-2.3-1.9-1.1l-3.8 5.2-1.9 2.6c-.3.4-1.3 2.3-1.8 2.4l1.1.3c-.9-1.2-1.5-2.9-2.2-4.2-.7-1.4-2.6-.2-1.9 1.1h0z" class="Bg"/><defs ><path id="B" d="M137.5 172.8c.4 1.7 2.2 3.1 3.9 3.1h12.4c1.7 0 2.8-1.4 2.4-3.1l-6-24c-.4-1.7-2.2-3.1-3.9-3.1h-12.4c-1.7 0-2.8 1.4-2.4 3.1l6 24z"/><path id="C" d="M144.2 215.8c.5 0 .8-.4.7-.9h0c-.1-.5-.7-.9-1.2-.9h-41.8c-.5 0-.8.4-.7.9h0c.1.5.7.9 1.2.9h41.8z"/></defs></svg>