<svg xmlns="http://www.w3.org/2000/svg" viewBox="0 0 500 369" xmlns:v="https://vecta.io/nano"><style><![CDATA[.Az{fill:#ffae73}.BA{fill:#ff912b}.BB{fill:#1e3865}.BC{fill:#214d9a}.BD{fill:#a9c2ff}.BE{fill:#6b98f6}.BF{fill:#fc7600}.BG{fill:#173157}.BH{fill:#0b3563}]]></style><path d="M476.6 359c-31.3 0-454.3-.9-454.3-1-.2-.4-53.7-66 13.7-134.6 33.4-34-30.7-78 0-115.8 52.5-64.8 104.5-28.3 147.8-46.5 7.7-3.2 15.3-8.4 23-16.3 4.3-4.5 9.1-8.4 14.1-11.7l2.4-1.5c3-1.9 6.2-3.6 9.4-5.1 2.2-1 4.4-2 6.7-2.9h0c3.6-1.4 7.3-2.6 11-3.6 5.3-1.4 10.9-2.5 16.5-3.2 2.4-.3 4.9-.6 7.4-.8 48.4-3.6 102.8 16.8 130.9 46.7 5.7 6 31.4 37.2 11.1 80-12.8 27 40.8 52.9 59.9 83.7 48.5 78.5.8 131.6.4 132.6z" fill="#e8f2fa"/><g opacity=".8"><path d="M367.1 176.5c-1.3 3.6-2.9 6.9-4.7 10.1-4.4 7.6-10.3 13.9-17.2 18.9-15.9 11.4-37.1 15.1-56.9 7.9-23.6-8.6-38.7-30.1-40.4-53.6-.2-3.1-.2-6.2.1-9.4.4-5.3 1.6-10.6 3.5-15.8 1.5-4.2 3.5-8.2 5.8-11.8l.1-.1c6.4-10.1 15.5-17.9 25.9-22.7 3-1.4 6-2.5 9.2-3.4 1.5-.4 3-.8 4.6-1.1 10.8-2.2 22.2-1.6 33.3 2.5 1.5.5 2.9 1.1 4.3 1.8 2 .9 3.9 1.9 5.7 2.9 7.7 4.5 14.2 10.6 19.2 17.6h0c3.1 4.4 5.6 9.2 7.5 14.2 1 2.6 1.8 5.4 2.4 8.1.4 1.7.7 3.5.9 5.2.6 4.2.7 8.5.3 12.8-.5 5.2-1.6 10.6-3.6 15.9z" fill="#d3e4ff"/><g class="BD"><path d="M299.1 122.5c-3.6 2.8-2.7 10.3-9 6.1s-10.2-6.6-12-2.8c-1.8 3.7 3.8 5.7 2.3 9.8-1.5 4-4.5 4.5-7.6 1.1-3.1-3.3-3.2-6.5-8.3-6.4s-7.3-2-7-5.8c0-.7 0-1.3-.2-1.8l.1-.1c6.4-10.1 15.5-17.9 25.9-22.7 3-1.4 6-2.5 9.2-3.4 1.5-.4 3-.8 4.6-1.1 1.8.7 3.7 2.2 4.7 5.1 2.2 6.5 5.8 4.9 2.8 10.4-3.1 5.4-1.8 6.7 1.5 7.7s7.2 2.4 6.7 5c-.7 2.5-10.1-3.9-13.7-1.1zm68 54c-1.3 3.6-2.9 6.9-4.7 10.1-4.4 7.6-10.3 13.9-17.2 18.9-1.7-.1-3.3-.6-4.6-1.8-6.2-5.5 2-11.3 6.3-14.2 4.3-2.8-3.7-3.8-7.7-9.3s5.4-13.1-.7-13.5-13.4-.8-14.7-7.3c-1.2-6.5 5.1-5.2 4-10.6-1.1-5.5 4.2-6.5 9.8-4.9s6.3-2.6 13.3-.7 3.7 10.5 11.4 12.6 6.7 3.8 6.7 3.8c.5.2 1 .5 1.4.9-.2 5.3-1.3 10.7-3.3 16zm3.2-28.9c-7.3.8-6.8-8.4-13.1-7.8-6.3.5-3.6-3.9-6.7-8.5s-13.6-2.1-11.5-6.8 8-1 10.7-4.4 8.5-.2 8.5-.2c.4 0 .8 0 1.2.2 3.1 4.4 5.6 9.2 7.5 14.2 1 2.6 1.8 5.4 2.4 8.1.5 1.7.8 3.4 1 5.2z"/><path d="M323.8 111.9s5-3.5.3-6.8-5.2-1.4-9.1-3.3-6.6.6-4.8 5.2c1.8 4.5 1.9 12 5.9 9.5 4-2.6 4.4-5.4 7.7-4.6z"/></g></g><path d="M36.3 358.2h21.4c1.1-1-.8-3.2-2.8-3.3-.9-.1-2 .1-3.3.4-.3-3.9-2-21.5-8.3-20.8-7.1.8 0 7.8 2 11.9 1.5 3.1 3.1 7.4 3.8 9.5-.6.1-1.2.2-1.8.4-.9-2.9-4.5-12.7-8.9-12.1-5.3.7-3.1 4.6.6 6.9a136.3 136.3 0 0 1 7.7 5.3c-1.4.2-2.8.4-4.2.3-3.7-.2-5.5.9-6.2 1.5zm341.4 0h-19.9c-1.1-.9.7-3 2.6-3.1.8-.1 1.9.1 3 .4.3-3.6 1.8-20 7.7-19.4 6.6.7 0 7.2-1.9 11-1.4 2.8-2.9 6.9-3.5 8.8.5.1 1.1.2 1.7.3.9-2.7 4.2-11.8 8.3-11.3 4.9.6 2.9 4.3-.5 6.4-2.5 1.6-5.7 3.8-7.1 4.9 1.3.2 2.6.3 3.9.3 3.3.2 5 1.2 5.7 1.7z" fill="#9bd399"/><path d="M391.9 227.6s.5-4.7-2-4.6c-2.5.2-3.1 1.3-2.8 2.2s2.7 3.9 2.7 3.9l2.1-1.5z" class="Az"/><path d="M430.3 237.1s-2.7 3.2-8.6 6.9a28.43 28.43 0 0 1-1.8 1.1c-2.3 1.3-5 2.7-8 4-.3.1-.7.3-1.2.5-3.5 1.3-10 3.1-14 3.2h-1c-6.1-.2-6.9-23.9-6.9-23.9s.7-2.4 3.8-1.8c0 0 4.8 13.4 6.5 14.5 1.5 1 10.2-12.2 17.7-13.2 5.2-.8 13.5 8.7 13.5 8.7z" class="BE"/><path d="M413.9 352.6s.5 5.2-.7 5.8h-14.1s0-1.6 2.3-2 6.2-1.7 6.9-4.6c.7-3 5.6.8 5.6.8z" class="BG"/><path d="M403.6 289.5c.1 3.4.2 6.9.6 10.1 1.5 15 2.1 33.1 2.3 36.6.4 6.1 1.6 15.8 1.6 15.8s2.4 2.3 7 1.2c0 0 3.8-14 4.7-28.7v-.7l.3-6.6 1.5-39.9-17.7-4.2c-.1.1-.5 7.9-.3 16.4z" class="BC"/><path d="M403.6 289.5l16.5 27.7 1.5-39.9-17.7-4.2c-.1.1-.5 7.9-.3 16.4z" class="BB"/><path d="M410.7 249.4c-3.5 1.3-10 3.1-14 3.2.6-.1 5.1-1 6.7-3 1.8-2.1 4.8-8 7.1-5.6 1.2 1.2.9 3.4.2 5.4z" fill="#5d83e1"/><path d="M440.5 287s1.1 4.3.9 5.3-1.3 4.2-1.9 5c-.7.8-.7-3.5-1.1-4.2s-.2 1.6-.6 1.8-1-1.7-1.2-2.4c-.3-.7 1-3 1.1-4.7 0-1.8 2.8-.8 2.8-.8z" class="Az"/><path d="M449.1 346.7s2.5 2.3 2 3.9-2.8 2.7-3.1 4.7-1.5 3.1-2.6 3.1h-5.3s-.8-1.4 1.1-1.8c2-.4 2.7-2.8 2.6-4.9-.1-2.2.2-5.1.2-5.1l4.2-1 .9 1.1z" class="BG"/><path d="M406.6 277.7s16.6 35.5 25.4 51l11.6 19.9s5.1-2 5.5-3.3c0 0-3.4-30-9.3-37.4-3.3-4.1-7.3-16.6-7.4-20.9-.2-4.3-4.1-14.7-4.1-14.7l-21.7 5.4z" class="BC"/><path d="M403.5 275.8s5.4 5.8 14.6 7.6c4 .8 12.2 1.5 14.2-1.4.5-.7.5-1.7.4-3.2-.3-4-1.3-11.9 3.3-27.6.4-1.5.7-2.9.9-4.2 1-8 .9-14.1-6.1-17.3-10.4-4.9-14.7-.9-14.7-.9s-5.6 2.6-8.1 10.2c-5.1 15.1-4.5 36.8-4.5 36.8z" class="BE"/><path d="M424.5 228.4c-1.8 1.2-4.9 2-7.8.5-.2-.1-.2-1.7-.1-3.2l.2-3 3.7-2.4 3.5-2.3c-.4 7.9 1.3 9.8.5 10.4z" class="Az"/><path d="M423.4 221.2s-2.4 3.6-6.8 4.4l.2-3.2 3.7-2.3 2.9 1.1z" fill="#f99352"/><path d="M413.4 221.8s9 3.4 11-2.2c2-5.5 4.5-8.8-1.1-11.2-5.7-2.4-7.5-.7-8.7 1-1.1 1.7-3.5 11.3-1.2 12.4z" class="Az"/><path d="M430 209c.1-.1.3-.1.8-.1 0 0-.3-.3-.8-.4 0-.6-.1-1.7-1.1-2.2 0 0 .5.4.4 1.1-1-1.5-3.4-2.9-10.6-3.7-9.5-1.1-7.6 5.5-6.6 6.5 1.1 1 4.5-.4 6.7.2s2 4 2.7 4.6.5-.3 1.7-.5c1.1-.3.9 1.5.4 2.5-.5 1.1.6 2.8.6 2.8l1.8-1.3c1.8-1.3 4.4-7.6 4-9.1.1-.2 0-.3 0-.4z" fill="#2a3967"/><path d="M432.7 278.8c-.3-4-1.3-11.9 3.3-27.6.4-1.5.7-2.9.9-4.2h0c-3.4-1.1-9.6 1.4-9.6 1.4s-1.5 20.8 5.4 30.4z" fill="#5d83e1"/><path d="M432.6 230.8s4.2 1.5 6.9 12.6c1.8 7.3 5 18.1 5.4 21.5s-3.7 23.3-3.7 23.3-.6.4-2 .1-2-1.2-2-1.2-1-13.2-.7-19.5c.1-2.6-12-19-18.6-21.1-2.5-.8 14.7-15.7 14.7-15.7z" class="BE"/><path d="M373.9 216.4s12.1-.3 26.1 2.2l1.5-3.7 1.6-4s-14.1-6.1-22.5-14.5l-6.7 20z" class="BD"/><path d="M380.8 196.2l-7 20.6h0c-1-.3-1.6-1.4-1.2-2.4l6.1-17.3c.4-.9 1.3-1.3 2.1-.9h0zm6.7 35.5h0c1.4.3 2.7-.6 3-2l2.4-12c.3-1.4-.6-2.7-2-3h0c-1.4-.3-2.7.6-3 2l-2.4 12c-.3 1.4.6 2.7 2 3z" class="BA"/><path d="M373.9 216.4s12.1-.3 26.1 2.2l1.5-3.7c-13.1-2.7-27.6 1.5-27.6 1.5z" class="BE"/><path d="M396.2 217.9l3.8.7c-.1 0 3.5.7 4.7-2.5.1-.2.2-.4.2-.7.9-4-1.3-4.7-1.3-4.7l-4.9-1.9-1.6 5.5-.9 3.6z" class="BA"/><path d="M396.2 217.9l3.8.7c-.1 0 3.5.7 4.7-2.5-2.1-1.6-7.5-1.8-7.5-1.8l-1 3.6z" class="BF"/><path d="M387.8 220s1.9.7 1.5 1.6c-.3.8-2.7 1.9-3.1 1.3-.3-.6.4-3.5 1.6-2.9zm4.1 6.9s.4-1.9.4-2.8.1-1.6-.1-1.6-.4.1-.4.4c-.1.3-.4 2-.4 2l.2 1.7.3.3z" class="Az"/><path d="M208.5 225.6l-10.5 125s-1.1 7.6 4.5 7.6h46.1s-7-1.6-6.9-5.1c.1-4.2 12.3-128.6 12.3-128.6l-45.5 1.1z" fill="#6e97f0"/><path d="M252.1 355.9c-1.8 0-37.5.1-46.5-.1-3.9 0-4.6-3.5-4.7-5.7 0-1.1.1-1.9.1-1.9l.3-3.2.7-8.3.6-7.3.8-9.4.7-7.9 7.5-88.8 45.5-1.2-8.8 90-1.1 12.1-.3 3.5-.9 9.8c-.1 1.5-.3 3-.4 4.3-.5 5.1-.7 8.4-.7 9 0 .4 0 .7.1 1 .6 4 6.4 4.1 7.1 4.1z" fill="#89aef9"/><path d="M97.9 157.6l25.6 102.9 3.5 14 11.9 47.9h221.5l-43.9-164.8z" class="BD"/><path d="M97.9 157.6l-3.5 1.2L134.2 326l4.7-3.6z" fill="#89aef9"/><path d="M134.2 326h220.1l6.1-3.6H138.9z" fill="#6e97f0"/><path d="M259.194 358.259h-47.7v-2.3h47.7z" class="BD"/><g fill="#4c86e3"><path d="M247.1 326l-.3 1.7-44.8 9.1.6-7.3.3-3.5z"/><path d="M252.1 355.9c-1.8 0-37.5.1-46.5-.1-3.9 0-4.6-3.5-4.7-5.7l44.6-8.4c-.5 5.1-.7 8.4-.7 9 0 .4 0 .7.1 1 .7 4.1 6.5 4.2 7.2 4.2z" opacity=".4"/></g><path d="M97.9 157.6h218.6l35.4 132.5h-221z" class="BD"/><path d="M341.6 284.3H137l-7.3-29.1-2.9-11.3-1.1-4.6-7.5-29.9-.4-1.6-4-15.8-1.8-7.1-1.5-6-3.5-14.2h201.7l3.9 14.2 1.6 6 2 7.1 12.8 46.7h0l1.1 3.9.5 1.8 8.9 32.3z" class="BE"/><path d="M312.6 178.9H110.5l-3.5-14.2h201.7z" fill="#5d7afb"/><path d="M115.3 171.1c-.2-1 .4-1.8 1.3-1.8 1 0 2 .8 2.2 1.8s-.4 1.8-1.3 1.8-1.9-.8-2.2-1.8zm5.9 0c-.2-1 .4-1.8 1.3-1.8 1 0 2 .8 2.2 1.8s-.4 1.8-1.3 1.8c-1 0-2-.8-2.2-1.8zm6.3 0c-.2-1 .4-1.8 1.3-1.8 1 0 2 .8 2.2 1.8s-.4 1.8-1.3 1.8-1.9-.8-2.2-1.8z" fill="#e6f2ff"/><path d="M268.5 82.4c8.3-9.7 21-29.2 29.6-39.2 1.8-2.1.3-5.2-2.4-5.2h-15.6l14.7-33.3c.6-1.4-1.3-2.6-2.2-1.3L257 51c-1 1.4.1 3.4 1.8 3.1l17.7-2.2-10.5 29c-.6 1.6 1.4 2.8 2.5 1.5z" fill="#ff7536"/><path d="M195 141.6c1.9-9.5 3-27.3 5-37.1.4-2-1.8-3.6-3.6-2.6l-10.4 5.8-2.7-27.6c-.1-1.2-1.8-1.2-2 0l-5.8 45c-.2 1.3 1.3 2.2 2.4 1.4l10.9-8.1 3.8 23.1c.3 1.3 2.1 1.3 2.4.1z" class="BD"/><path d="M350.6 287.2l-177.8 15c-13.5 1.1-23.3-12.6-17.7-25l75.3-168.6c5.7-12.8 23.3-14.3 31.1-2.6L364 259.6c7.4 11.2.1 26.4-13.4 27.6z" fill="#e3eeff"/><path d="M351.1 293.9l-177.8 15c-8.7.7-17-3.1-22.1-10.3s-6-16.2-2.4-24.2l75.3-168.6c3.7-8.3 11.3-13.7 20.4-14.4 9-.8 17.4 3.3 22.5 10.8l102.5 153.6c4.9 7.3 5.5 16.4 1.7 24.3s-11.3 13-20.1 13.8zM245.7 104.8c-4.1.3-7.5 2.8-9.2 6.5l-75.3 168.6c-1.6 3.6-1.2 7.7 1.1 10.9a11.04 11.04 0 0 0 9.9 4.6l177.8-15c3.9-.3 7.3-2.7 9-6.2 1.7-3.6 1.4-7.6-.8-10.9L255.8 109.7c-2.3-3.4-6.1-5.3-10.1-4.9zm-4.2 156.6c-.2-2.3 0-4.4.7-6.5.7-2 1.7-3.8 3-5.3a17.89 17.89 0 0 1 5.1-3.8c2-1 4.4-1.6 7-1.8s5 0 7.3.6c2.2.6 4.1 1.6 5.7 2.9s2.9 2.9 3.9 4.8 1.6 4 1.8 6.3 0 4.4-.7 6.4-1.7 3.7-3 5.3c-1.4 1.6-3.1 2.8-5.2 3.8s-4.4 1.6-7 1.8-5 0-7.2-.6-4.1-1.6-5.7-2.9-2.9-2.9-3.9-4.7a16.96 16.96 0 0 1-1.8-6.3zm27.5-32.2l-25.6 2.2-11-87.2 32.9-2.8 3.7 87.8z" fill="#ff7536"/><path d="M131.1 234.5l.9-1.8c.4-.6 1.9-2.3 2.2-1.9s1.3 3 .8 3.8c-.6.7 0 2-2.7 2.8l-1.2-2.9z" class="Az"/><path d="M100.2 226.6s14.2 11.9 19.7 10.8c4.3-.9 11.2-3 11.2-3s1.8 1.7 1.3 3.8c0 0-8.7 8.2-14.9 8.3-9.7.1-14.3-4.8-14.3-4.8l-3-15.1z" class="BF"/><path d="M75.3 351.7s.4 6.7 1.7 6.7h6.5 8.1s-.1-2-2.4-2.4c-2.4-.4-6.3-2.1-7.8-5.2-1.4-3.3-6.1.9-6.1.9z" fill="#003c6b"/><path d="M74.9 352.2s2.5.8 4.4.8c2.1 0 4.1-.6 4.1-.6s.5-4.5 3-14.4c1.3-5.2 3.3-11.9 6-20.1 7.5-22.9 9.8-36.3 10-37.6v-.1h0L79.2 270s2.9 31.6-.8 43.7c-.5 1.7-.9 3.7-1.3 5.8-2.3 13.2-2.2 32.7-2.2 32.7z" class="BC"/><path d="M86.4 338c1.3-5.2 3.3-11.9 6-20.1 7.5-22.9 9.8-36.3 10-37.6v-.1L79.2 270s2.9 31.6-.8 43.7c-.5 1.7 8 24.3 8 24.3z" class="BB"/><path d="M93.4 351.7s.4 6.7 1.7 6.7h6.5 8.1s-.1-2-2.4-2.4c-2.4-.4-6.3-2.1-7.8-5.2-1.5-3.3-6.1.9-6.1.9z" fill="#004480"/><path d="M106.5 270.8s.3 20.5-3.2 45.6-2.3 35.8-2.3 35.8-2.4.8-3.4.9c-2.5.2-5.1-.6-5.1-.6s-5.1-25.1-3.6-37.7-6.9-43.1-6.9-43.1l24.5-.9z" class="BC"/><path d="M90.1 222.9l4.5 3 4.1-1.2c.8-1.1 1-3.1 1-4.9s-.2-3.3-.2-3.3l-6.1-2.7-2.3-1 .2 2.1c.5 4.8-1.2 8-1.2 8z" class="Az"/><path d="M106.6 276.5c-5.6 5.4-26.9 4.5-28.2-1.5s1.4-50.9 11-53.7c2-.6 12.6 2.9 12.6 2.9s1.7 4.4 2.8 9.9c.2 1.1.8 12.6 1.3 23.3l.5 13.4c.1 3.4.1 5.5 0 5.7z" class="BA"/><path d="M91.8 215c1.2 2.1 5.6 3.9 7.9 4.8 0-1.8-.2-3.3-.2-3.3l-6.1-2.7c-1.3 0-2.1.3-1.6 1.2z" fill="#ffa05e"/><path d="M101.8 216.1s-9.8 3.1-11.6-3.1c-1.8-6.1-4.3-9.9 1.9-12.1s8.1-.2 9.2 1.7 3 12.6.5 13.5z" class="Az"/><path d="M100.9 202s-.6 7.2-2.1 6.8c-1.5-.3-3.1-1-2.9 1.2s-1.4 5.9-3.6 5.8c-4.6 0-9.5-11.8-8.3-14 3.7-6.3 22.1-7.6 16.9.2z" class="BH"/><path d="M99.5 221.4c-.1-.1-7.3-3.3-8.1-3s-1.9 2.8-1.9 2.8l12.6 2.9c0 0-1-2-2.6-2.7z" class="BF"/><path d="M144.2 256.2l-40.3 37.9c-.8.7-1.8 1-2.2.5l-1.4-1.4c-.4-.5-.1-1.4.7-2.2l40.3-37.9c.8-.7 1.8-1 2.2-.5l1.4 1.4c.4.5.1 1.5-.7 2.2z" fill="#0b4d87"/><path d="M121.6 277.5l-17.7 16.6c-.8.7-1.8 1-2.2.5l-1.4-1.4c-.4-.5-.1-1.4.7-2.2l17.7-16.6 2.9 3.1z" class="BE"/><path d="M134.9 241.9c1.5 5.1 4.4 9.9 8.6 13.8 12.7 11.9 32.7 11.3 44.6-1.4 11.8-12.5 11.3-32.1-.9-44.1l-.5-.5c-12.7-11.9-32.7-11.3-44.6 1.4-8 8.5-10.3 20.3-7.2 30.8zm9.1-29.1c7-7.4 16.9-10.3 26.2-8.7 5.4.9 10.6 3.4 14.9 7.5 11.7 11 12.3 29.4 1.3 41.1-4.1 4.3-9.1 7.1-14.4 8.4-9.2 2.2-19.3-.2-26.6-7.1-11.9-11.1-12.4-29.5-1.4-41.2z" fill="#0b4d87"/><g opacity=".5"><path d="M186.3 252.6c-4.1 4.3-9.1 7.1-14.5 8.4-9.2 2.2-19.3-.2-26.6-7.1-11.7-11-12.3-29.4-1.3-41.1 7-7.4 16.9-10.3 26.2-8.7 5.4.9 10.6 3.4 14.9 7.5 11.7 10.9 12.3 29.3 1.3 41z" fill="#accefc"/></g><path d="M106.7 270.8c-22.2-15.8-20.3-36.9-20.3-36.9 8.1 4.6 16.2 14.7 19.8 23.5l.5 13.4z" class="BF"/><path d="M128.6 263.6c1.6-.4 2.6-1.5 2.8-1.8 0 0 .7 0-.1 1.5-.1.1-.2.4-.3.6 0 .1 0 .2.1.2.9.1 1.8-.3 3.5.1.2.1.3.6.3.9 0 .4 0 .9-.5 1.5-.3.4-1.1.8-2.8 1.5-.7.3-2.6.1-4.3-.5l-1.4-.7.4-2.6.4.1c.6.1 1.3-.6 1.9-.8z" class="Az"/><path d="M93.2 224.1s-19.9 3.8 5.9 32.7c4.1 4.6 26.4 10.6 26.4 10.6s2.3-1.9 1.1-3.5c0 0-15.3-11.1-18.7-12.9-1.5-.8-5.9-17.8-8.4-21.9s-6.3-5-6.3-5z" class="BA"/><path d="M131.6 234.9s.7-1.2.8-1.9.9-2.6 1.3-2.9c.1-.1.6 0 .6.6 0 .3-.1.7-.3 1.3-.4.9-.3 2.1-.4 2.5-.3 1-2 .4-2 .4zm8-49.5c-.3.4-.4.8-.2 1.3.3.9 1.3 1.8 2.5 2.8a1.38 1.38 0 0 1 .4.3l.1.1.1.1c1.1 1 .7 1.3 2.7 3.3 2.3 2.4 3.8 2.4 4.3 2.2.4-.2-.4-1.4-1.2-2.8 0-.1-.1-.1-.1-.2l-.3-.6c-1-1.7-.7-2.5-.5-5 .2-2.1 3.2-11.5 3.2-11.5l-4.4-.8s-1.3 7.5-2.8 8.7c-.8.6-1.6.6-2.4 1.1-.1 0-.1.1-.2.1a2.73 2.73 0 0 0-1.2.9z" class="Az"/><path d="M139.6 185.4c-.3.4-.4.8-.2 1.3.4.9 1.4 1.8 2.5 2.8a1.38 1.38 0 0 1 .4.3l.1.1.1.1c1.1 1 .7 1.3 2.7 3.3 2.3 2.4 3.8 2.4 4.3 2.2.4-.2-.4-1.4-1.2-2.8-.4-.2-2.5-1-4.1-3-1.3-1.7-2.2-3.8-3.1-5.1h-.3c-.5.1-.9.4-1.2.8z" class="BB"/><path d="M174.7 182.7c.3 1.3 2.2 1.1 4.3.6s1.6.1 4.7-.2c3-.3 4-1.5 4.1-1.9s-1.4-.5-3-.7c-.2 0-.4 0-.6-.1-1.8-.2-3.2-1.4-4.8-2.4-1.6-.9-3.9-4.6-3.9-4.6l-4.2.3 3 4.8c.5.9.5 2 .4 2.8-.1.5-.1.9 0 1.4z" class="Az"/><path d="M179 183.3c2.1-.5 1.6.1 4.7-.2 3-.3 4-1.5 4.1-1.9s-1.4-.5-3-.7h0s-1.8 1.3-4.4 1.4c-2.1 0-4.3-.5-5.7-.5 0 .5-.1 1 0 1.4.3 1.3 2.2 1 4.3.5zM158.7 156l-3.9 10.5-5.1 13.7s-1.4.1-2.7-.2c-1.2-.4-2.6-1.3-2.6-1.3s1.4-14.7 4.1-23.2c.7-2.2 1.4-3.9 2.3-4.9 4-4.9 7.9 5.4 7.9 5.4z" class="BB"/><path d="M154.7 139.3c-2.2-.7-8 0-14.3 1.1-1.7.3-3.5-.5-4.4-2h0l-15.8-1.2s-5.2 11.6-2.4 19c.4 1.1 1.3 1.8 2.8 1.8h12.6c7.9 0 16.7-5.4 17.8-5.6 1.9-.4 2.6 3.4 4.5 7.3S173 177 173 177s2.4 0 3.4-.3c1.1-.4 1.5-.9 1.5-.9s-17.4-34.7-23.2-36.5z" class="BC"/><path d="M134.3 91.9c-1.2-.7-2.3-.8-3-.8-.5 0-1 0-1.5-.1-6-.9-9.7 7.9-9.9 10.5-.4 4.9-3 5.6-6.6 8.7-7.3 6.1-5.1 13.2-1.2 15.9 2.4 1.6 6.6 0 6.6 0 .1 0 11.5-6.4 17.2-9.5 8.4-1.2 1.8-22.7-1.6-24.7z" class="BB"/><path d="M131.2 113.9s-2.8 1-4.6.1c-1.8-.8-3.1-3.7-3.1-3.7.8 0 1.7-.7 2.4-5.3l.3.1 5.7 2.1-.7 3.6c-.2 1.5-.4 2.9 0 3.1z" class="Az"/><path d="M131.9 107.2l-.6 2.8c-3.3-.6-4.7-3.1-5.2-4.9l5.8 2.1z" fill="#f9924f"/><path d="M132.7 109.1s-7.9-1.1-7.1-5.9c.7-4.9.2-8.3 5.3-7.8 5 .5 5.7 2.5 5.9 4.2.1 1.6-2 9.6-4.1 9.5z" class="Az"/><g class="BB"><path d="M136.5 96.8s-5 4.3-8.4 4.7c-3.4.3-4.7-.7-4.7-.7s2-1.7 3.2-4.4a2.47 2.47 0 0 1 2-1.4c2.4-.3 7-.4 7.9 1.8z"/><path d="M133.3 96.4s1.7 1.6 2.2 2.8.7 3.9.3 5.1c0 0 2.6-5.1 1.1-7.6-1.5-2.6-3.6-.3-3.6-.3z"/></g><path d="M137.8 125.5c-.2 15.9-.1 12.6-1.8 14.1-.4.4-1.6.6-3.1.7-4.9.3-13.4-.5-13.8-1.4-1.1-3.1-.3-4.1-1.3-8.9-.1-.5-.2-1.1-.4-1.7-.8-3.3-1.5-4.4 1.2-9.7 2.5-4.8 5.1-8.6 5.4-8.5 6.6 3.9 7.2.6 7.2.6s6.7 7 6.6 14.8z" class="BA"/><path d="M154.8 166.5l-5.1 13.7s-1.4.1-2.7-.2c-1.2-.4-2.6-1.3-2.6-1.3s1.4-14.7 4.1-23.2l6.3 11z" class="BC"/><path d="M131.2 110.8s6.8 1.2 7.6 4.1 3.4 20.8 3.4 20.8-1.9 1.9-3.5.3-5-16.7-5-16.7l-2.5-8.5z" class="BA"/><path d="M132.8 140.3c-4.9.3-13.4-.5-13.8-1.4-1.1-3.1-.3-4.1-1.3-8.9l2.4-6.6s-.4 7.4 1.8 9.3 8.9 3.7 10 5.4c.5.8.8 1.5.9 2.2z" class="BF"/><path d="M127.2 137.2s4.8-1.1 5.6-.6c.8.4 2.7 2 2.9 2.5s-1.7-.4-2.4-.6c-.4-.1-1.5.3-2 .4-2.3.8-3.7.4-3.7.4l-.4-2.1z" class="Az"/><path d="M124 110.2s-6.5.4-8.7 3.5c-3.1 4.4-9.4 23.1-5.8 25.6 4 2.8 18.3.7 18.3.7s.5-2.2-.2-3.3-11.4-2.8-11.9-3.3 6.2-9.7 6.2-11.2c0-1.4 2.1-12 2.1-12z" class="BA"/><path d="M133 137.9s1 1.3 1.3 1.5.5.1.5.1l-.7-1.2-1.1-.4zm-.2-1.4l2.9 1.4s-.1.2-.5.2-1.3-.3-1.3-.3l-1.1-1.3z" class="Az"/><g class="BB"><path d="M157.8 139.9h-30.6v.6h30.4z"/><path d="M134.4 140.5h23.2l6.9-17.3h-23.1z"/></g><path d="M151.7 131.9a.8.8 0 0 0-.8-1.1c-.6 0-1.2.5-1.4 1.1a.8.8 0 0 0 .8 1.1c.6 0 1.2-.5 1.4-1.1z" fill="#fff"/><path d="M308.5 205.9c-3.1-1-5.3.3-5.3.3-9 .4-9.3 9.6-8.3 13 1.5 4.8-3.8 8.6 2.1 10.6 6.7 2.3 12.4-.4 12 .7 21.4 1.7 6.6-22.2-.5-24.6z" class="BH"/><path d="M299.2 250.7s-.9 1.7-2.4 3.6c-1.9 2.3-11.7-3.2-10.8-3.6.8-.4 5.8-14.6 6.9-16.4 1.2-1.8 5.2-2.7 5.2-2.7l1.1 19.1z" class="BA"/><path d="M332.3 346.4s2.7 2.5 2.2 4.2c-.5 1.8-3 2.9-3.3 5.1-.3 2.1-1.6 3.3-2.8 3.3h-5.7s-.9-1.5 1.2-2 2.9-3 2.8-5.3.2-5.5.2-5.5l4.5-1 .9 1.2z" fill="#134482"/><path d="M309.4 347.4s1 10.5-.2 11H294s0-1.8 2.4-2.1c2.4-.4 6.7-1.8 7.5-5 .7-3.2 5.5-3.9 5.5-3.9z" class="BG"/><path d="M321.1 243.7s.2 3.2 0 7c-.2 2.5-2.7 5.9-3.1 6.8-.9 2.1-1.9 2.5-1.9 2.5l-8 2-2.8.7-8.8-2.6s-4-11.2-2.4-17.6c1.6-6.3 4.1-10.7 4.1-10.7s6-1.4 16.6-.6l6.3 12.5z" class="BA"/><path d="M321.8 250.8c-.2 2.5-3.5 5.9-3.8 6.7-.9 2.1-1.9 2.5-1.9 2.5l-8 2-1.4-4.1s11.7-3.1 9.8-13.9l5.3 6.8z" class="BF"/><path d="M297 261.6s-4.4 13.6-4.7 18.3c-.3 4.6 8.4 66 8.7 68.1.3 2 2.8 3.3 2.8 3.3s1.2.7 2.8.2c2.3-.6 3-1.4 3-1.4s3.4-43.7 1.3-59.4c-2.1-15.6-2.1-29.1-2.1-29.1H297z" class="BB"/><path d="M315.5 261.2s6.7 9 7.3 15c.6 6.1 1 27.4 2.3 33.3s6.2 17.3 6.2 35.7c0 0-.5 1.1-2.1 1.6-.5.2-1.2.4-1.8.5-1.3.3-2.6-.3-3.2-1.5-3.3-6.6-13.8-28.1-14.3-32.5-.4-3.1-3.7-24-10.9-36.2-1.7-2.9 1.1-14.6 1.1-14.6l15.4-1.3z" class="BC"/><path d="M296.3 259.5s1.8 1.4 5.3 1.5c4.2.1 14.5-1.1 14.5-1.1s.5 1.3.4 2.6c0 0-12.6 3.2-19.9.5-.1 0-1-1.8-.3-3.5z" class="BB"/><path d="M300.5 264.6c-1.1 0-1.9-1-1.9-2.2s.9-2.2 1.9-2.2c1.1 0 1.9 1 1.9 2.2s-.8 2.2-1.9 2.2zm0-3.7c-.7 0-1.3.7-1.3 1.5s.6 1.5 1.3 1.5 1.3-.7 1.3-1.5-.6-1.5-1.3-1.5z" fill="#fff"/><path d="M309.7 268.5l-19 .2-9.4-22 19-.2z" fill="#c23b35"/><path d="M307.2 258.6l-1.4-1.7s-.9-.8-1.6-1c-.7-.1-2.1-1-2.3-.7-.1.2 1.1 1.9 1.1 1.9h.1c-1.4 1.1-5.1.1-5.5.6-.5.5.7 1.7 1.4 2.3s2.7 1.7 4.2 1.2c1.1-.4 2.9-.7 2.9-.7l1.1-1.9zm-24.4-8s1.2-1.4 2-.7-.2 3.9-.9 3.5c-.8-.3-1.6-2.4-1.1-2.8z" class="Az"/><path d="M314.7 231s5.4.6 9.3 7.7c3.1 5.6 8.3 15.9 6.3 18.8-.9 1.3-9.2 5.8-25.3 3.2 0 0 .3-2 1.6-3 0 0 13.6-4.4 13.5-5.2 0-1.6-1.8-3.1-9.4-10.6-2-2.1 4-10.9 4-10.9z" class="BA"/><path d="M310.5 231.3c.2-.3-.1-1-.4-2.5-.3-1.3-.7-3.4-.7-5.8l-.4.1-6.7 1.1s.2 1.8.2 3.5c0 1.5-.4 3.7.1 4 2.5 1.5 7.2.6 7.9-.4z" class="Az"/><path d="M302.3 224.2l.1 4.2c3.8-.1 5.8-3.7 6.6-5.4l-6.7 1.2z" fill="#f48f4e"/><path d="M301.9 227.2s8.8-1.3 8-6.7c-.9-5.5-.3-9.3-6-8.8-5.7.6-6.4 2.8-6.6 4.7s2.3 11 4.6 10.8z" class="Az"/><g class="BH"><path d="M299.9 212.2s3.4 6.1 7.3 6.4c3.9.4 5.3-.9 5.3-.9s-3.2-1.8-4.4-5.6c-.1 0-6.9-3.2-8.2.1z"/><path d="M300.5 212.6s-1.7 1-2.2 2.4-.9 3.2-.4 5.2c0 0-2.5-4.1-.9-6.9 1.8-2.9 3.5-.7 3.5-.7z"/></g></svg>