<svg xmlns="http://www.w3.org/2000/svg" viewBox="0 0 500 369" xmlns:v="https://vecta.io/nano"><style><![CDATA[.As{fill:#ffb27d}.At{fill:#233862}.Au{fill:#2a4e96}.Av{fill:#ed7d2b}.Aw{fill:#f99746}.Ax{fill:#afcdfb}.Ay{fill:#ffa412}.Az{fill:#ffb93e}.BA{fill:#bc3f3f}.BB{fill:#dceaff}]]></style><path d="M32.5 369.7s-60.4-64.8-10.2-135c44.5-62.2 96.4-58 134.4-32.7 16.2 10.8 62.9 1.3 102.7-62 54.2-86.4 242.3-34 208 98.9-16.6 64.3 50.5 66.7 16.3 130.9l-451.2-.1z" fill="#ebf3fa"/><path d="M495.2 288.1c-4-14.9-29.1-10.2-29.1-10.2s-17.1 26-22 26.7c-5 .6 10.2-25.1 10.2-25.1-9.6-.9-34.1 10.9-34.1 10.9s1.6 30.4-3.4 29.8 0-27 0-27c-9.3 2.8-18 13.6-18 13.6-10.9 17.7 12.4 30.7 12.4 30.7s.3 10.5-6.2 22.6h0s-1.5 2.2-3 6h2.5c.2-.7.4-1.3.7-2h0 0c.2-.4.4-.9.7-1.6h0 0c.8-1.5 1.3-2.6 1.6-3.4h0c2.3-4.8 5.7-11 7.9-12.3 0 0-.3-.4-.5-1.2.2.4.4.8.5 1.2 4.3 9.3 26 10.9 38.1 8.4s6.8-5.9.3-11.4-20.2-4.1-24.2-6.2c-4-2.2 1.9-4.3 9.9-3.7 8.1.6 12.1 8.7 25.1 9.9s22.9-23.3 22.9-23.3c-9 2.8-25.1-2.2-25.7-5.3s23.3-2.8 27-3.7c3.9-1.1 10.4-8.5 6.4-23.4z" fill="#dfebfd"/><path d="M152.9 292.1s1.1 8.8-.5 8.9c-1.7.1-.5-9.9-.5-9.9s-7.9-4.4-11.1-4.3c0 0 4.5 8.8 2.9 8.5s-6.8-9.3-6.8-9.3-8.2-2.1-9.9 2.8c-1.6 4.9.4 7.5 1.6 7.8 1.2.4 9.1.8 8.9 1.8-.3 1-5.7 2.3-8.6 1.2 0 0 2.8 8.3 7.1 8.2s5.8-2.7 8.5-2.8c2.7 0 4.6.8 3.2 1.4s-5.9-.1-8.1 1.6c-2.3 1.7-4.1 2.7-.1 3.8s11.2 1 12.8-2c.1-.1.1-.3.2-.4l-.2.4c.7.5 1.7 2.6 2.4 4.2.1.3.2.7.5 1.2h0c.1.2.2.4.2.6 1.2 3.6.1 9.7.1 9.7l.8.3c2.3-6-.7-11.3-.7-11.3-1.9-4.1-1.6-7.6-1.6-7.6s8-3.8 4.7-9.9c-.1 0-2.8-3.7-5.8-4.9z" class="Ax"/><path d="M93.3 331.6c-.7-10.9 17.2-13.6 17.2-13.6s17.4 13.5 20.9 12.8-12.6-14.5-12.6-14.5c6.2-2.8 25.4-.6 25.4-.6s5.9 20.7 9.1 19.2c3.2-1.6-6.2-18.1-6.2-18.1 6.9-.3 15.2 5 15.2 5 11.3 9.4-1.3 23.4-1.3 23.4s2.2 7.1 9.4 13.8h0s1.5 1.2 3.4 3.4l-1.7.6-.9-1.2h0 0l-.9-.9h0 0c-.9-.8-1.5-1.5-1.9-1.9h0c-2.6-2.7-6.3-6.1-8.1-6.4 0 0 .1-.3.1-.9 0 .3-.1.6-.1.9-.8 7.2-15 13.3-23.6 14.4-8.7 1.1-5.9-2.4-2.8-7.6s12.6-7.4 14.8-9.7c2.2-2.4-2.2-2.5-7.5-.2s-6.1 8.6-14.6 12.4c-8.4 3.8-20.7-10.3-20.7-10.3 6.7-.2 16.3-7.2 16-9.4s-16.2 3.5-18.9 3.7c-2.9.1-9-3.4-9.7-14.3z" fill="#cde0fb"/><path d="M325.7 201.3h58.2V369h-58.2z" class="Ay"/><path d="M171.8 201.3h153.8V369H171.8z" class="Az"/><path d="M171.9 283.4h153.8v11.7H171.9z" class="Ay"/><path d="M325.7 283.4h58.2v11.7h-58.2z" fill="#fa9712"/><path d="M167.2 201.3h161v23.1h-161z" fill="#ffc261"/><path d="M328.1 201.3h60.7v23.1h-60.7z" fill="#fa9712"/><path d="M235.2 201.3h11.7V369h-11.7z" class="Ay"/><path d="M346.592 130.439l24.6-.076.219 70.9-24.6.076z" class="Av"/><path d="M281.592 130.701l65-.201.219 70.9-65 .201z" class="Aw"/><path d="M281.694 165.302l65-.202.016 5-65 .202z" class="Az"/><path d="M346.694 165.139l24.6-.076.016 5-24.6.076z" fill="#f69b34"/><path d="M279.586 130.706l68-.211.03 9.7-68 .211z" fill="#ffa15a"/><path d="M347.687 130.44l25.6-.079.03 9.7-25.6.079z" fill="#f78639"/><path d="M308.391 130.609l5-.016.222 71.5-5 .016z" class="Az"/><path d="M253.4 248.3h41.9v120.6h-41.9z" fill="#4a75cb"/><path d="M142.7 248.3h110.6v120.6H142.7z" fill="#739af0"/><path d="M142.7 307.3h110.6v8.4H142.7z" class="Ax"/><path d="M253.4 307.4h41.9v8.4h-41.9zm-114-59.1h115.8v16.6H139.4z" fill="#88b3ff"/><path d="M255.1 248.3h43.6v16.6h-43.6z" fill="#3969b7"/><path d="M188.3 248.3h8.4V370h-8.4z" class="Ax"/><path d="M133.7 187.2s-3.1-5.4 0-6.5 4.4-.1 4.6 1.2c.1 1.2-1.2 6.1-1.2 6.1l-3.4-.8z" class="As"/><path d="M136.1 221.9c-5.6 1-10.7 1.5-15.3 1.6-4.4.1-8.3-.1-11.8-.5-.9-.1-1.8-.2-2.7-.4-9-1.4-14-3.8-14-3.8s8.2-17.2 14.9-16.6c7.8.8 21 7.8 22.3 5.8 1.5-2.2 2.7-21.2 2.7-21.2 3.5-2.4 5.5.1 5.5.1s7 33.5-1.6 35z" class="Aw"/><path d="M136.1 221.9c-5.6 1-10.7 1.5-15.3 1.6-4.4.1-8.3-.1-11.8-.5-2.1-6.6-3.6-13.4.6-9.3 7.5 7.2 26.5 8.2 26.5 8.2z" class="Av"/><path d="M91.8 361.1s-.6 6.9.9 7.6h18.5s0-2.1-3-2.6-8.2-2.2-9.1-6.1c-.9-4-7.3 1.1-7.3 1.1z" class="At"/><path d="M105.4 278.2c-.1 4.5-.3 9.1-.7 13.3-2 19.7-2.7 43.5-3 48.1-.5 8-2.1 20.7-2.1 20.7s-3.1 3-9.2 1.6c0 0-5-18.3-6.2-37.7 0-.3 0-.6-.1-1l-.4-8.6-1.9-52.4 23.3-5.5a366.72 366.72 0 0 1 .3 21.5z" class="Au"/><path d="M105.4 278.2l-21.6 36.4-1.9-52.4 23.3-5.5c-.1 0 .4 10.3.2 21.5z" class="At"/><path d="M46.5 258.5s-3.8 4.5-4.1 5.7-.9 5.7-.6 7 2.8-3.7 3.8-4.3c.9-.5-.7 2-.4 2.4s2.1-1.5 2.8-2.1.6-4.1 1.5-6.2c.8-2.1-3-2.5-3-2.5z" class="As"/><path d="M45.6 353.3s-3.3 3-2.7 5.2c.6 2.1 3.6 3.6 4 6.2s2 4 3.5 4h6.9s1.1-1.8-1.5-2.4-3.5-3.6-3.4-6.5c.2-2.9-.2-6.7-.2-6.7l-5.5-1.3-1.1 1.5z" class="At"/><path d="M101.4 262.6s-21.8 46.6-33.4 67l-15.2 26.2s-6.6-2.6-7.2-4.4c0 0 4.4-39.5 12.2-49.1 4.4-5.4 9.5-21.8 9.8-27.5.2-5.7 5.3-19.3 5.3-19.3l28.5 7.1z" class="Au"/><path d="M107.8 264.8s-8.7 5.8-20.9 5.3c-5.4-.2-16.1-1.8-17.8-6-.4-1-.1-2.3.5-4.2 1.6-5.1 5.2-14.8 4.1-36.2-.1-2 0-3.9.1-5.6 1.2-10.6 7.2-16.8 13.1-18.9 14.3-5 19.1 1.9 19.1 1.9s6.3 5 7.3 15.4c1.9 20.8-5.5 48.3-5.5 48.3z" class="Aw"/><path d="M91.1 197.9s6.6 4 13.7 2.9c0 0 1.4-.4.7-2 .4-1.3.4-1.2.6-2.2l.8-3.6-4-4.2-3.8-4.1c-1 9.6-8 13.2-8 13.2z" class="As"/><path d="M98.5 188.3s2.2 5.9 7.7 8.2l1-4.7-4.3-3.2-4.4-.3z" fill="#ed985f"/><path d="M111.5 192.7s-12.5 1.6-13.4-6.1-3.1-12.7 4.9-14 9.8 1.4 10.8 3.9c.9 2.5.9 15.6-2.3 16.2z" class="As"/><path d="M94.2 171.3c-.1-.1-.4-.2-.9-.3 0 0 .5-.3 1.1-.3.2-.8.6-2.2 2-2.5 0 0-.8.4-.9 1.2 1.7-1.6 5.2-2.7 14.7-1.5 12.5 1.5 8.1 9.4 6.4 10.2-1.7.9-5.7-1.9-8.7-1.8s-3.8 4.5-4.8 5c-1.1.6-.6-.5-2-1.2s-1.6 1.6-1.2 3.1c.3 1.5-1.6 3.4-1.6 3.4l-1.9-2.2c-1.9-2.2-3.3-11-2.4-12.9 0 .2.1 0 .2-.2z" fill="#2c3a64"/><g class="Au"><path d="M132.4 183.6l-21.3.2-.1-3.2 21.2-1.6z"/><path d="M148.4 184.1l-23.1.4-.3-5.8 23.1-1.8z"/></g><g class="At"><path d="M164 184.6h-19.5l-.4-7.8 19.5-1.8z"/><path d="M164.3 185.9h0c.6 0 1.1-.5 1-1.1l-.5-10.1c0-.6-.5-1.1-1.1-1h0c-.6 0-1.1.5-1 1.1l.5 10.1c0 .6.5 1.1 1.1 1z"/></g><path d="M111.1 184.5h0c-.5 0-1-.4-1-.9l-.1-2.6c0-.5.4-1 .9-1h0c.5 0 1 .4 1 .9l.1 2.6c0 .5-.4 1-.9 1z" class="Au"/><path d="M69.6 259.8c1.6-5.1 5.2-14.8 4.1-36.2-.1-2 0-3.9.1-5.6h0c4.7-.4 11.9 4.7 11.9 4.7s-4.4 26.9-16.1 37.1z" class="Av"/><path d="M91.1 197.9S79 200 72.8 207.6c-6.3 7.7-16.4 18.5-18.8 22.3s-9 29.6-9 29.6.4.8 2.3 1.3c1.8.5 3-.3 3-.3s8.8-15.1 12.1-22.6c1.4-3.1 25.2-15.5 34.1-14.2 3.5.5-5.4-25.8-5.4-25.8z" class="Aw"/><path d="M132.2 178s2.6 1.6 4.1.9c1.6-.7 1.4-1.3 1.4-1.3s-4.6-1.2-5.5.4z" class="As"/><path d="M102.8 206.3s-5.3 33.4-42.8 43.1l-4.1 8.1 7.2 1.2s42.7-12.4 42.2-53l-2.5.6z" class="BA"/><path d="M102 200.9l-1.7.2v2.5l2.5 2.7 2.5-.6v-3.5l-1.8-1.3z" fill="#a02e2e"/><path d="M95.2 194.3s-1.7.4-5.5 3.6c0 0 3.8 8.1 11.9 9.1 0 0-.1-3.8.5-6-.1-.1-6.5-2.4-6.9-6.7zm6.8 6.6s3.9 2.1 4.2 5.3c0 0 1.5-2.4 1.1-4s-1.8-3.5-1.8-3.5.2 2-3.5 2.2z" class="Av"/><path d="M428.3 353.5s3.6 3.3 2.9 5.6-3.9 3.9-4.4 6.7c-.4 2.8-2.2 4.4-3.8 4.4h-7.5s-1.2-2 1.6-2.6 3.8-3.9 3.7-7c-.2-3.1.3-7.2.3-7.2l5.9-1.4 1.3 1.5zm-43.9 8.5s.6 7.4-.9 8.2h-20.1s0-2.3 3.2-2.8 8.9-2.4 9.9-6.6c1-4.3 7.9 1.2 7.9 1.2z" class="At"/><path d="M367.5 257.1l2.3 28.7 3.9 52.3c.3 8.6 1.7 22.3 1.7 22.3s3.3 3.3 9.9 1.9c0 0 5.9-19.6 7.6-40.4 0-.3.1-.7.1-1l4-65.6-29.5 1.8z" class="Au"/><path d="M367.5 257.1l2.3 28.7L393 322c0-.3.1-.7.1-1l4-65.6-29.6 1.7z" class="At"/><path d="M372.3 258.6s19.1 47.1 31.7 69.3l16.5 28.3s7.2-2.8 7.8-4.8c0 0-4.8-42.8-13.2-53.2-4.8-5.9-8.9-19-8.6-25.1.4-10.7-3.7-23-3.7-23l-30.5 8.5z" class="Au"/><path d="M357.1 259.3s-3.6 4.8-3.8 6.1c-.3 1.3-.6 5.9-.1 7.2.4 1.3 2.7-4 3.6-4.6s-.6 2.1-.2 2.5 2.1-1.7 2.7-2.4c.7-.7.4-4.3 1.1-6.5.6-2.1-3.3-2.3-3.3-2.3z" class="As"/><path d="M372.8 189.2l-5.2 46.1c-.1.3-.5 1.7-1 3.7-.8 2.9-1.8 7.1-2.8 11.1-1.5 6-3.2 11.2-3.2 11.2s-.7.5-2.5.3c-1.2-.1-1.8-1.1-1.8-1.1s.2-22 1.3-27 4.5-35.9 6.3-40c1.5-4.2 8.9-4.3 8.9-4.3z" fill="#fff"/><path d="M366.5 239c-.8 2.9-1.8 7.1-2.8 11.1-.7-1.8-1.5-4.8-2-8.8-1-7.4 2-23.2 2-23.2l2.8 20.9z" class="BB"/><path d="M404.7 258.1c-6.9 3.9-36.6 3.8-37.9.8-3.1-6.8-3.8-41.6-2.4-52.3 0 0 .7-16.4 2.4-15.7 10.9-5 28.7-.5 28.7-.5 4.8 1.4 4.4 12.3 5.7 27.7l.6 6.2c.9 9.5 2.3 20.3 4.4 31.8.1.8-.5 1.4-1.5 2z" fill="#fff"/><path d="M387.3 188.6c-.2 2.9-4 2.6-8.6 1.5-4.6-1-2.9-3.8-2.9-3.8l.4-4.6.4-2.8.3-1.3c.6-2.6 9.2-.1 9.1.6-.3 2 1.1 8.1 1.3 10.4z" class="As"/><path d="M377.4 193.8l-.4-4.1 5.1 1-1.9 3.6z" class="At"/><g class="BB"><path d="M375.8 184.5l-3 4.6s0 2.8 2.6 4.9l4.2-3.9c0 .1-2.7-.9-3.8-5.6z"/><path d="M379.6 190.2s.9 3.1 2.5 4.5c0 0 6.5-1.7 8-5.1l-3.4-4.4c.1.1-.1 3.4-7.1 5z"/></g><path d="M385.9 179.8s-4.1 2.7-9.9 2.1l.4-2.8c1.1-.3 2.1-.4 2.1-.4l7.4 1.1z" fill="#e2915a"/><path d="M388.6 176.6c-2 5.6-9.4 4.1-12.5 3.2-.9-.2-1.4-.5-1.4-.5-1-.4-1.3-2.1-1.2-4.3.2-4.2 1.8-10.2 2.8-11.6 1.4-2.2 3.8-4.4 11-1.3 7.1 3.2 3.8 7.4 1.3 14.5z" class="As"/><path d="M394.1 173.8L387 179s.5-.6 1.2-2.5c.1-.2.1-.5.1-.8 0-.9.2-1.8.7-2.6.3-.5.4-1 0-1.3-.6-.6-1.7 0-2.3.4a1.36 1.36 0 0 1-1.5 0c-1.9-1.2.2-3.3-1.4-5.1s-8.3-2-8.1-3.1c-2.3-1.3-.9-6.1-.8-6.4 0 0 3.3.3 7.5-.7 3.4-.8 7.1 1.3 8.3 2.2 0-.2 0-.5-.2-.8 0 0 .5.5.5 1.1l.1.1s.7 0 1.1.2c0 0-.3-.1-.4.1h-.1c4.3 3.3 4.2 12.5 2.4 14z" class="BA"/><path d="M377.9 175.8s-.4.7-2.2.1c0 0-1.5-.5-1.3-1.3 0 .1 1.7-.1 3.5 1.2z" fill="#fff"/><path d="M377.4 193.8l-4 55.6c.1 4.3 4.5 8.8 4.5 8.8s3.5-3.9 4.2-8-2-55.9-2-55.9l-2.7-.5z" class="Au"/><path d="M404.7 258.1c-12.3-1.8-8.8-42.6-7.8-42.8s4.5 7.3 4.5 7.3l.3 1.7c.9 9.5 2.3 20.3 4.4 31.8.2.8-.4 1.4-1.4 2z" class="BB"/><path d="M441 288.5l-26.1 7.6c-3.4 1-7-1-8-4.4l-3.3-11.3c-1-3.4 1-7 4.4-8l26.1-7.6c3.4-1 7 1 8 4.4l3.3 11.3c.9 3.5-1 7-4.4 8z" fill="#a02e2e"/><path d="M407.1 279.4l3.3 11.4c.6 2.2 2.4 3.8 4.5 4.4.7.2 1.4.3 2.1.2h0c.5 0 .9-.1 1.4-.2l26-7.6c3.4-1 5.4-4.6 4.4-8l-3.3-11.4c-1-3.4-4.6-5.4-8-4.4l-9 2.6-.7-2.4c-.3-1.1-1.5-1.8-2.6-1.4l-1 .3-5.5 1.6-1.4.4c-.5.2-1 .5-1.3 1s-.3 1.1-.2 1.6l.7 2.4-5.2 1.5c-.2.1-.4.1-.6.2h0c-2 .8-3.4 2.5-3.9 4.5h0c-.1 1.1-.1 2.2.3 3.3zm20.1-12.6l-9.3 2.7-.7-2.4c-.1-.4.1-.9.5-1l2.3-.7 4.3-1.3 1.2-.3h.2c.3 0 .6.2.7.6l.8 2.4z" class="BA"/><g class="As"><path d="M419.4 259.5s-.8 6.8.7 6.7 5.2-.8 5.5-2-2.8-6.6-2.8-6.6l-3.4 1.9z"/><path d="M419.6 259.5s-1.2 1.4-1.3 2.6c-.1 1.1-.7 3.1-.1 3.2.5.1 1.5-2.5 1.5-2.5l-.1-3.3z"/></g><path d="M395.4 190.5s6.6 1.6 11.7 11.5c5.2 10 9.3 30 11.7 35.3 2.5 5.3 4.4 21.2 4.4 21.2s-.4.8-1.7 1.1c-1 .2-2.1.1-2.1.1s-9.7-15.6-11.1-21.2c-.8-3-12.3-27.3-12.3-27.3l-.6-20.7z" fill="#fff"/></svg>