<svg xmlns="http://www.w3.org/2000/svg" viewBox="0 0 580.24 320" xmlns:v="https://vecta.io/nano"><style><![CDATA[.b{fill:#ffb27d}.c{fill:#233862}.d{fill:#2a4e96}.e{fill:#ed7d2b}.f{fill:#f99746}.g{fill:#afcdfb}.h{fill:#ffa412}.i{fill:#ffb93e}.j{fill:#bc3f3f}.k{fill:#dceaff}]]></style><path d="M35.4 319.41s-70.93-76.1-11.98-158.54c52.26-73.04 113.21-68.11 157.83-38.4 19.02 12.68 73.87 1.53 120.6-72.81C365.5-51.8 586.39 9.73 546.11 165.8c-19.49 75.51 59.3 78.33 19.14 153.72l-529.86-.12z" fill="#ebf3fa"/><path d="M578.76 223.59c-4.7-17.5-34.17-11.98-34.17-11.98s-20.08 30.53-25.84 31.35c-5.87.7 11.98-29.48 11.98-29.48-11.27-1.06-40.05 12.8-40.05 12.8s1.88 35.7-3.99 35 0-31.71 0-31.71c-10.92 3.29-21.14 15.97-21.14 15.97-12.8 20.79 14.56 36.05 14.56 36.05s.35 12.33-7.28 26.54h0s-1.76 2.58-3.52 7.05h2.94c.23-.82.47-1.53.82-2.35h0c.23-.47.47-1.06.82-1.88h0c.94-1.76 1.53-3.05 1.88-3.99h0c2.7-5.64 6.69-12.92 9.28-14.44 0 0-.35-.47-.59-1.41.23.47.47.94.59 1.41 5.05 10.92 30.53 12.8 44.74 9.86s7.99-6.93.35-13.39c-7.63-6.46-23.72-4.81-28.42-7.28-4.7-2.58 2.23-5.05 11.63-4.35 9.51.7 14.21 10.22 29.48 11.63s26.89-27.36 26.89-27.36c-10.57 3.29-29.48-2.58-30.18-6.22s27.36-3.29 31.71-4.35c4.58-1.29 12.21-9.98 7.52-27.48z" fill="#dfebfd"/><path d="M176.79 228.28s1.29 10.33-.59 10.45c-2 .12-.59-11.63-.59-11.63s-9.28-5.17-13.04-5.05c0 0 5.28 10.33 3.41 9.98s-7.99-10.92-7.99-10.92-9.63-2.47-11.63 3.29c-1.88 5.75.47 8.81 1.88 9.16 1.41.47 10.69.94 10.45 2.11-.35 1.17-6.69 2.7-10.1 1.41 0 0 3.29 9.75 8.34 9.63s6.81-3.17 9.98-3.29c3.17 0 5.4.94 3.76 1.64s-6.93-.12-9.51 1.88c-2.7 2-4.81 3.17-.12 4.46 4.7 1.29 13.15 1.17 15.03-2.35.12-.12.12-.35.23-.47l-.23.47c.82.59 2 3.05 2.82 4.93.12.35.23.82.59 1.41h0c.12.23.23.47.23.7 1.41 4.23.12 11.39.12 11.39l.94.35c2.7-7.05-.82-13.27-.82-13.27-2.23-4.81-1.88-8.92-1.88-8.92s9.39-4.46 5.52-11.63c-.12 0-3.29-4.35-6.81-5.75z" class="g"/><path d="M106.8 274.67c-.82-12.8 20.2-15.97 20.2-15.97s20.43 15.85 24.54 15.03-14.8-17.03-14.8-17.03c7.28-3.29 29.83-.7 29.83-.7s6.93 24.31 10.69 22.55c3.76-1.88-7.28-21.26-7.28-21.26 8.1-.35 17.85 5.87 17.85 5.87 13.27 11.04-1.53 27.48-1.53 27.48s2.58 8.34 11.04 16.21h0s1.76 1.41 3.99 3.99l-2 .7-1.06-1.41h0l-1.06-1.06h0c-1.06-.94-1.76-1.76-2.23-2.23h0c-3.05-3.17-7.4-7.16-9.51-7.52 0 0 .12-.35.12-1.06 0 .35-.12.7-.12 1.06-.94 8.46-17.62 15.62-27.71 16.91-10.22 1.29-6.93-2.82-3.29-8.92 3.64-6.11 14.8-8.69 17.38-11.39 2.58-2.82-2.58-2.94-8.81-.23s-7.16 10.1-17.15 14.56c-9.86 4.46-24.31-12.1-24.31-12.1 7.87-.23 19.14-8.46 18.79-11.04s-19.02 4.11-22.2 4.35c-3.41.12-10.57-3.99-11.39-16.79z" fill="#cde0fb"/><path d="M379.71 121.65h68.35v196.94h-68.35z" class="h"/><path d="M198.98 121.65h180.61v196.94H198.98z" class="i"/><path d="M199.1 218.07h180.61v13.74H199.1z" class="h"/><path d="M379.71 218.07h68.35v13.74h-68.35z" fill="#fa9712"/><path d="M193.58 121.65h189.07v27.13H193.58z" fill="#ffc261"/><path d="M382.53 121.65h71.28v27.13h-71.28z" fill="#fa9712"/><path d="M273.44 121.65h13.74v196.94h-13.74z" class="h"/><path d="M404.249 38.409l28.89-.091.262 83.26-28.89.091z" class="e"/><path d="M327.91 38.729l76.33-.24.262 83.26-76.33.24z" class="f"/><path d="M328.037 79.369l76.33-.24.018 5.87-76.33.24z" class="i"/><path d="M404.377 79.169l28.89-.091.018 5.87-28.89.091z" fill="#f69b34"/><path d="M325.56 38.737l79.86-.251.036 11.39-79.86.251z" fill="#ffa15a"/><path d="M405.539 38.416l30.06-.094.036 11.39-30.06.094z" fill="#f78639"/><path d="M359.39 38.63l5.87-.018.264 83.97-5.87.018z" class="i"/><path d="M294.81 176.85h49.2v141.63h-49.2z" fill="#4a75cb"/><path d="M164.81 176.85h129.88v141.63H164.81z" fill="#739af0"/><path d="M164.81 246.13h129.88v9.86H164.81z" class="g"/><path d="M294.81 246.25h49.2v9.86h-49.2zm-133.88-69.4h135.99v19.49H160.93z" fill="#88b3ff"/><path d="M296.81 176.85h51.2v19.49h-51.2z" fill="#3969b7"/><path d="M218.36 176.85h9.86v142.92h-9.86z" class="g"/><path d="M154.24,105.1s-3.64-6.34,0-7.63,5.17-.12,5.4,1.41c.12,1.41-1.41,7.16-1.41,7.16l-3.99-.94Z" class="b"/><path d="M157.06 145.85c-6.58 1.17-12.57 1.76-17.97 1.88-5.17.12-9.75-.12-13.86-.59-1.06-.12-2.11-.23-3.17-.47-10.57-1.64-16.44-4.46-16.44-4.46s9.63-20.2 17.5-19.49c9.16.94 24.66 9.16 26.19 6.81 1.76-2.58 3.17-24.9 3.17-24.9 4.11-2.82 6.46.12 6.46.12s8.22 39.34-1.88 41.1z" class="f"/><path d="M157.06 145.85c-6.58 1.17-12.57 1.76-17.97 1.88-5.17.12-9.75-.12-13.86-.59-2.47-7.75-4.23-15.74.7-10.92 8.81 8.46 31.12 9.63 31.12 9.63z" class="e"/><path d="M105.04,309.31s-.7,8.1,1.06,8.92h21.73s0-2.47-3.52-3.05-9.63-2.58-10.69-7.16c-1.06-4.7-8.57,1.29-8.57,1.29Z" class="c"/><path d="M121.01 211.96c-.12 5.28-.35 10.69-.82 15.62-2.35 23.13-3.17 51.08-3.52 56.49-.59 9.39-2.47 24.31-2.47 24.31s-3.64 3.52-10.8 1.88c0 0-5.87-21.49-7.28-44.27 0-.35 0-.7-.12-1.17l-.47-10.1-2.23-61.54 27.36-6.46s.59 12.1.35 25.25z" class="d"/><path d="M121.01 211.96l-25.37 42.75-2.23-61.54 27.36-6.46c-.12 0 .47 12.1.23 25.25z" class="c"/><path d="M51.84 188.83s-4.46 5.28-4.81 6.69-1.06 6.69-.7 8.22c.35 1.53 3.29-4.35 4.46-5.05 1.06-.59-.82 2.35-.47 2.82s2.47-1.76 3.29-2.47.7-4.81 1.76-7.28c.94-2.47-3.52-2.94-3.52-2.94z" class="b"/><path d="M50.78 300.15s-3.88 3.52-3.17 6.11c.7 2.47 4.23 4.23 4.7 7.28s2.35 4.7 4.11 4.7h8.1s1.29-2.11-1.76-2.82c-3.05-.7-4.11-4.23-3.99-7.63.23-3.41-.23-7.87-.23-7.87l-6.46-1.53-1.29 1.76z" class="c"/><path d="M116.31 193.64s-25.6 54.72-39.22 78.68l-17.85 30.77s-7.75-3.05-8.46-5.17c0 0 5.17-46.39 14.33-57.66 5.17-6.34 11.16-25.6 11.51-32.29.23-6.69 6.22-22.66 6.22-22.66l33.47 8.34z" class="d"/><path d="M123.83 196.22s-10.22 6.81-24.54 6.22c-6.34-.23-18.91-2.11-20.9-7.05-.47-1.17-.12-2.7.59-4.93 1.88-5.99 6.11-17.38 4.81-42.51-.12-2.35 0-4.58.12-6.58 1.41-12.45 8.46-19.73 15.38-22.2 16.79-5.87 22.43 2.23 22.43 2.23s7.4 5.87 8.57 18.08c2.23 24.43-6.46 56.72-6.46 56.72z" class="f"/><path d="M104.21 117.66s7.75 4.7 16.09 3.41c0 0 1.64-.47.82-2.35.47-1.53.47-1.41.7-2.58l.94-4.23-4.7-4.93-4.46-4.81c-1.17 11.27-9.39 15.5-9.39 15.5z" class="b"/><path d="M112.9 106.39s2.58 6.93 9.04 9.63l1.17-5.52-5.05-3.76-5.17-.35z" fill="#ed985f"/><path d="M128.17 111.55s-14.68 1.88-15.74-7.16-3.64-14.91 5.75-16.44 11.51 1.64 12.68 4.58c1.06 2.94 1.06 18.32-2.7 19.02z" class="b"/><path d="M107.85 86.42c-.12-.12-.47-.23-1.06-.35 0 0 .59-.35 1.29-.35.23-.94.7-2.58 2.35-2.94 0 0-.94.47-1.06 1.41 2-1.88 6.11-3.17 17.26-1.76 14.68 1.76 9.51 11.04 7.52 11.98-2 1.06-6.69-2.23-10.22-2.11-3.52.12-4.46 5.28-5.64 5.87-1.29.7-.7-.59-2.35-1.41s-1.88 1.88-1.41 3.64c.35 1.76-1.88 3.99-1.88 3.99l-2.23-2.58c-2.23-2.58-3.88-12.92-2.82-15.15 0 .23.12 0 .23-.23z" fill="#2c3a64"/><g class="d"><path d="M152.71 100.87l-25.01.23-.12-3.75 24.9-1.88.23 5.4z"/><path d="M171.5 101.46l-27.12.46-.36-6.81L171.15 93l.35 8.46z"/></g><g class="c"><path d="M189.82 102.04h-22.9l-.47-9.16 22.9-2.11.47 11.27z"/><path d="M190.18 103.57h0c.7 0 1.29-.59 1.17-1.29l-.59-11.86c0-.7-.59-1.29-1.29-1.17h0c-.7 0-1.29.59-1.17 1.29l.59 11.86c0 .7.59 1.29 1.29 1.17z"/></g><path d="M127.7 101.92h0c-.59 0-1.17-.47-1.17-1.06l-.12-3.05c0-.59.47-1.17 1.06-1.17h0c.59 0 1.17.47 1.17 1.06l.12 3.05c0 .59-.47 1.17-1.06 1.17z" class="d"/><path d="M78.97 190.35c1.88-5.99 6.11-17.38 4.81-42.51-.12-2.35 0-4.58.12-6.58h0c5.52-.47 13.97 5.52 13.97 5.52s-5.17 31.59-18.91 43.57z" class="e"/><path d="M104.21 117.66S90 120.13 82.72 129.05c-7.4 9.04-19.26 21.73-22.08 26.19S50.07 190 50.07 190s.47.94 2.7 1.53c2.11.59 3.52-.35 3.52-.35s10.33-17.73 14.21-26.54c1.64-3.64 29.59-18.2 40.05-16.68 4.11.59-6.34-30.3-6.34-30.3z" class="f"/><path d="M152.48 94.29s3.05 1.88 4.81 1.06c1.88-.82 1.64-1.53 1.64-1.53s-5.4-1.41-6.46.47z" class="b"/><path d="M117.95 127.53s-6.22 39.22-50.26 50.61l-4.81 9.51 8.46 1.41s50.14-14.56 49.56-62.24l-2.94.7z" class="j"/><path d="M117.01 121.18l-1.99.24v2.93l2.93 3.18 2.94-.71v-4.11l-2.11-1.53h-1.77z" fill="#a02e2e"/><g class="e"><path d="M109.03 113.43s-2 .47-6.46 4.23c0 0 4.46 9.51 13.97 10.69 0 0-.12-4.46.59-7.05-.12-.12-7.63-2.82-8.1-7.87z"/><path d="M117.01 121.18s4.58 2.47 4.93 6.22c0 0 1.76-2.82 1.29-4.7s-2.11-4.11-2.11-4.11.23 2.35-4.11 2.58z"/></g><path d="M500.2 300.39s4.23 3.88 3.41 6.58-4.58 4.58-5.17 7.87c-.47 3.29-2.58 5.17-4.46 5.17h-8.81s-1.41-2.35 1.88-3.05 4.46-4.58 4.35-8.22c-.23-3.64.35-8.46.35-8.46l6.93-1.64 1.53 1.76zm-51.55 9.98s.7 8.69-1.06 9.63h-23.6s0-2.7 3.76-3.29 10.45-2.82 11.63-7.75c1.17-5.05 9.28 1.41 9.28 1.41z" class="c"/><path d="M428.8 187.18l2.7 33.7 4.58 61.42c.35 10.1 2 26.19 2 26.19s3.88 3.88 11.63 2.23c0 0 6.93-23.02 8.92-47.44 0-.35.12-.82.12-1.17l4.7-77.04-34.64 2.11z" class="d"/><path d="M428.8 187.18l2.7 33.7 27.24 42.51c0-.35.12-.82.12-1.17l4.7-77.04-34.76 2z" class="c"/><path d="M434.44 188.94s22.43 55.31 37.23 81.38l19.38 33.23s8.46-3.29 9.16-5.64c0 0-5.64-50.26-15.5-62.47-5.64-6.93-10.45-22.31-10.1-29.48.47-12.57-4.35-27.01-4.35-27.01l-35.82 9.98z" class="d"/><path d="M416.59 189.77s-4.23 5.64-4.46 7.16c-.35 1.53-.7 6.93-.12 8.46.47 1.53 3.17-4.7 4.23-5.4s-.7 2.47-.23 2.94 2.47-2 3.17-2.82c.82-.82.47-5.05 1.29-7.63.7-2.47-3.88-2.7-3.88-2.7z" class="b"/><path d="M435.03 107.44l-6.11 54.14c-.12.35-.59 2-1.17 4.35-.94 3.41-2.11 8.34-3.29 13.04-1.76 7.05-3.76 13.15-3.76 13.15s-.82.59-2.94.35c-1.41-.12-2.11-1.29-2.11-1.29s.23-25.84 1.53-31.71c1.29-5.87 5.28-42.16 7.4-46.97 1.76-4.93 10.45-5.05 10.45-5.05z" fill="#fff"/><path d="M427.63,165.93c-.94,3.41-2.11,8.34-3.29,13.04-.82-2.11-1.76-5.64-2.35-10.33-1.17-8.69,2.35-27.24,2.35-27.24l3.29,24.54Z" class="k"/><path d="M472.49 188.36c-8.1 4.58-42.98 4.46-44.51.94-3.64-7.99-4.46-48.85-2.82-61.42 0 0 .82-19.26 2.82-18.44 12.8-5.87 33.7-.59 33.7-.59 5.64 1.64 5.17 14.44 6.69 32.53l.7 7.28a439.42 439.42 0 0 0 5.17 37.34c.12.94-.59 1.64-1.76 2.35z" fill="#fff"/><path d="M452.05 106.74c-.23 3.41-4.7 3.05-10.1 1.76-5.4-1.17-3.41-4.46-3.41-4.46s.12-2.47.47-5.4c.12-1.06.23-2.23.47-3.29.12-.59.23-1.06.35-1.53.7-3.05 10.8-.12 10.69.7-.35 2.35 1.29 9.51 1.53 12.21z" class="b"/><path d="M440.43 112.85l-.47-4.82 5.99 1.18-2.23 4.22-3.29-.58z" class="c"/><g class="k"><path d="M438.55,101.92l-3.52,5.4s0,3.29,3.05,5.75l4.93-4.58c0,.12-3.17-1.06-4.46-6.58Z"/><path d="M443.01 108.62s1.06 3.64 2.94 5.28c0 0 7.63-2 9.39-5.99l-3.99-5.17c.12.12-.12 3.99-8.34 5.87z"/></g><path d="M450.41 96.41s-4.81 3.17-11.63 2.47l.47-3.29c1.29-.35 2.47-.47 2.47-.47l8.69 1.29z" fill="#e2915a"/><path d="M453.58 92.65c-2.35 6.58-11.04 4.81-14.68 3.76-1.06-.23-1.64-.59-1.64-.59-1.17-.47-1.53-2.47-1.41-5.05.23-4.93 2.11-11.98 3.29-13.62 1.64-2.58 4.46-5.17 12.92-1.53 8.34 3.76 4.46 8.69 1.53 17.03z" class="b"/><path d="M460.04 89.36c-2.7 2.11-8.34 6.11-8.34 6.11s.59-.7 1.41-2.94c.12-.23.12-.59.12-.94 0-1.06.23-2.11.82-3.05.35-.59.47-1.17 0-1.53-.7-.7-2 0-2.7.47-.59.35-1.17.35-1.76 0h0c-2.23-1.41.23-3.88-1.64-5.99-1.88-2.11-9.75-2.35-9.51-3.64-2.7-1.53-1.06-7.16-.94-7.52 0 0 3.88.35 8.81-.82 3.99-.94 8.34 1.53 9.75 2.58 0-.23 0-.59-.23-.94 0 0 .59.59.59 1.29l.12.12s.82 0 1.29.23c0 0-.35-.12-.47.12h-.12c5.05 3.88 4.93 14.68 2.82 16.44z" class="j"/><path d="M441.01 91.71s-.47.82-2.58.12c0 0-1.76-.59-1.53-1.53 0 .12 2-.12 4.11 1.41z" fill="#fff"/><path d="M440.43 112.85l-4.7 65.29c.12 5.05 5.28 10.33 5.28 10.33s4.11-4.58 4.93-9.39-2.35-65.65-2.35-65.65l-3.17-.59z" class="d"/><path d="M472.49 188.36h0c-14.44-2.11-10.33-50.03-9.16-50.26s5.28 8.57 5.28 8.57l.35 2a439.42 439.42 0 0 0 5.17 37.34c.23.94-.47 1.64-1.64 2.35z" class="k"/><path d="M515.12,224.06l-30.65,8.92c-3.99,1.17-8.22-1.17-9.39-5.17l-3.88-13.27c-1.17-3.99,1.17-8.22,5.17-9.39l30.65-8.92c3.99-1.17,8.22,1.17,9.39,5.17l3.88,13.27c1.06,4.11-1.17,8.22-5.17,9.39Z" fill="#a02e2e"/><path d="M475.31 213.37l3.88 13.39c.7 2.58 2.82 4.46 5.28 5.17.82.23 1.64.35 2.47.23h0c.59 0 1.06-.12 1.64-.23l30.53-8.92c3.99-1.17 6.34-5.4 5.17-9.39l-3.88-13.39c-1.17-3.99-5.4-6.34-9.39-5.17l-10.57 3.05-.82-2.82c-.35-1.29-1.76-2.11-3.05-1.64l-1.17.35-6.46 1.88-1.64.47c-.59.23-1.17.59-1.53 1.17s-.35 1.29-.23 1.88l.82 2.82-6.11 1.76c-.23.12-.47.12-.7.23h0c-2.35.94-3.99 2.94-4.58 5.28h0c-.12 1.29-.12 2.58.35 3.88zm23.6-14.8l-10.92 3.17-.82-2.82c-.12-.47.12-1.06.59-1.17l2.7-.82 5.05-1.53 1.41-.35h.23c.35 0 .7.23.82.7l.94 2.82z" class="j"/><g class="b"><path d="M489.75 190s-.94 7.99.82 7.87 6.11-.94 6.46-2.35-3.29-7.75-3.29-7.75l-3.99 2.23z"/><path d="M489.98 190s-1.41 1.64-1.53 3.05c-.12 1.29-.82 3.64-.12 3.76.59.12 1.76-2.94 1.76-2.94l-.12-3.88z"/></g><path d="M461.57 108.97s7.75 1.88 13.74 13.5c6.11 11.74 10.92 35.23 13.74 41.45 2.94 6.22 5.17 24.9 5.17 24.9s-.47.94-2 1.29c-1.17.23-2.47.12-2.47.12s-11.39-18.32-13.04-24.9c-.94-3.52-14.44-32.06-14.44-32.06l-.7-24.31z" fill="#fff"/></svg>