<svg xmlns="http://www.w3.org/2000/svg" viewBox="0 0 500 369" xmlns:v="https://vecta.io/nano"><path d="M60 311.3S-40.5 210.7 21.9 150.6s111.7 17.9 145.8 12.2c43.2-7.3 61.9-116.8 126.4-116.9 73.4-.1 127.4 43.3 98.6 146.7-21.2 76.3 124.4 13.8 103 120.3L60 311.3z" fill="#ebf2f9"/><path d="M279.2 298.2c-13.7-2.2-24 2.6-33.9 1.2-7.9-1.1-12-9.1-22.7-11.4 2.5-1.5 5.5-3.4 6.9-4.7 2.7-2.6 6.7-7.9 0-8.1-4.8-.1-8.5 7.8-10.2 12.3a43.35 43.35 0 0 0-5.1 0l7.5-23.4c1.4-3.6-4.6-15.5-11.6-2.1-4.9 9.4-1.6 20.2.9 25.9-1.9.3-3.8.8-5.5 1.3-5.8-13.3-24.4-51.2-44.4-46.5-21.9 5.1 25 30.6 36.9 49.5-9.7 4.5-18.2 9.9-32.8 5.9-39-10.6-42.1 13.2-42.1 13.2l174.4.1c-.2.1-4.6-11-18.3-13.2z" fill="#acd29a"/><path d="M231.8 212.7c.2 1.7 2.6 1.6 5.2 1.2 2.7-.4 2 .3 5.8.2s5-1.4 5.2-1.9c.1-.5-1.7-.8-3.6-1.2-.2-.1-.5-.1-.7-.2-2.2-.5-3.7-2.1-5.6-3.4-1.8-1.3-3-7.2-3-7.2h-5.4l2.6 7.2c.5 1.1 0 2.5-.2 3.6-.3.5-.4 1.1-.3 1.7z" fill="#ffb07b"/><path d="M237 213.9c2.7-.4 2 .3 5.8.2s5-1.4 5.2-1.9c.1-.5-1.7-.8-3.6-1.2h0s-2.4 1.4-5.5 1.2c-2.5-.2-5.2-1.1-6.9-1.3-.1.6-.2 1.2-.1 1.8.1 1.7 2.4 1.6 5.1 1.2z" fill="#365da4"/><path d="M189.9 212.4c.1 1.7 2.5 1.7 5.2 1.4s2 .4 5.8.4c3.8.1 5.1-1.2 5.3-1.7s-1.7-.9-3.6-1.4c-.2-.1-.5-.1-.7-.2-2.2-.6-3.6-2.2-5.5-3.7-1.8-1.4-.3-7-.3-7l-4.1-1.9-.9 8.8c-.1 1.2-.7 2.4-.9 3.5-.3.7-.4 1.2-.3 1.8z" fill="#ffb07b"/><path d="M195 213.8c2.7-.3 2 .4 5.8.4 3.8.1 5.1-1.2 5.3-1.7s-1.7-.9-3.6-1.4h0s-2.4 1.3-5.5 1c-2.5-.3-5.1-1.3-6.9-1.5-.1.6-.2 1.2-.2 1.8.1 1.7 2.4 1.7 5.1 1.4z" fill="#365da4"/><g fill="#2b478b"><path d="M199 128.4s-1.1 5.5-2.3 33.1c0 0-2.1 5.1-3.6 11.4s-2.6 32.4-2.6 32.4.6.9 2.4 1c1.5.1 2.7-.6 2.7-.6s10.6-34.3 15.7-47.6 8.2-32.3 8.2-32.3l-20.5 2.6z"/><path d="M211.7 130.7s.8 5.5 9.4 31.9c0 0-.2 5.5.6 11.9.7 6.4 9.4 31.6 9.4 31.6s1.1.4 2.9-.1c1.6-.4 2.9-1.4 2.9-1.4s-3.3-36.1-3.1-50.3c.2-14.3-3.5-33.1-3.5-33.1l-18.6 9.5z"/></g><path d="M226.8 54.4c-1.3-.9-3-1-4.1-1 .3-.3.9-.4.9-.4-.7-.1-2.3.5-2.3.5-9.8-4.3-12 10.2-12 13.6s-.1 7.3-5.2 10.1c-10.1 5.5-2.4 16.4-2.4 16.4-1.8 5.2 4.9 11.6 4.9 11.6-.1-2.8 12.6-20.4 19.4-24.4 1.7-2.3 2.5-6.5 2.6-6.8-.4 3.3-1.1 5.1-1.7 6.2 5.8-4.8 3.4-23.6-.1-25.8z" fill="#c65447"/><path d="M224.7 79s-3.2 1.7-5.6 1c-2.3-.6-3.8-3.6-3.8-3.6 1-.2 1.2-1.5 1.2-7.2l.4.1 7.1 1.4.3.1-.2 4.5v1.3c.1 1.2.3 2.2.6 2.4z" fill="#ffb07b"/><path d="M224.1 75.2v1.3c-4.1-.2-6.5-4.9-7.4-7l7.3 1.1.3.1c0 0-.1 2.3-.2 4.5z" fill="#ea8e50"/><path d="M216.2 68.5s-2.2-3.4-2.7-6.3c-.4-2.1.7-9.8 8.4-8.7a9.89 9.89 0 0 0 4.4 1.7c1.7 1.1 4.1 3.6 1.4 10.3l-.7 2.3-10.8.7z" fill="#c65447"/><path d="M224.8 74.1s-9.7-1.3-8.8-7.3.2-10.2 6.4-9.7c6.2.6 7.1 3 7.3 5.1s-2.4 12.1-4.9 11.9z" fill="#ffb07b"/><g fill="#c65447"><path d="M226.8 57.7s-3.7 6.7-7.9 7.1-5.8-.9-5.8-.9 3.5-2 4.8-6.2c0 0 7.4-3.6 8.9 0z"/><path d="M226.1 58.2s1.7 1.9 2 3.5 0 4.8.9 4.8c0 0 2.7-4.5.9-7.5-2-3.3-3.8-.8-3.8-.8z"/></g><path d="M290.3 139.8c-2-4.3-7.7-7.8-12.4-7.8-3.5 0-6.6 1.2-9 3.1-1.4 1.1-3.4.4-3.8-1.3l-4.2-19.3c-.6-2.8-3.4-4.6-6.2-4L187.4 125c-2.8.6-4.5 3.3-3.9 6.1l14.5 67.2c.4 1.9 1.8 3.4 3.6 3.9l-.9.3h2.6 0c.3 0 .6 0 1-.1l1.5-.3h0 0l17.3-3.7c2.4-.5 3.4-3.5 1.8-5.3s-2.7-4-3.2-6.6c-1.4-7.1 3.1-14.2 10.1-16.1 7.8-2.1 15.7 2.8 17.4 10.6.6 2.9.3 5.8-.8 8.4-.4 1-.1 2 .7 2.6l-1 .5h2.3 0c.2 0 .4 0 .5-.1l20.6-4.4c2.8-.6 4.6-3.4 4-6.2l-4.1-19.2c-.4-1.8 1.2-3.3 3-2.9 2 .5 4.2.6 6.4.1 8.5-2 13.5-11.5 9.5-20z" fill="#d86713"/><path d="M275.5 131.9c-3.5 0-6.6 1.2-9 3.1-1.4 1.1-3.4.4-3.8-1.3l-4.2-19.3c-.6-2.8-3.4-4.6-6.2-4L185 124.9c-2.8.6-4.5 3.3-3.9 6.1l14.5 67.2c.6 2.9 3.4 4.7 6.3 4.1l18.7-4c2.4-.5 3.4-3.5 1.8-5.3s-2.7-4-3.2-6.6c-1.4-7.1 3.1-14.2 10.1-16.1 7.8-2.1 15.7 2.8 17.4 10.6.6 2.9.3 5.8-.8 8.4-.7 1.7.7 3.4 2.5 3.1L269 188c2.8-.6 4.6-3.4 4-6.2l-4.1-19.2c-.4-1.8 1.2-3.3 3-2.9 2 .5 4.2.6 6.4.1 8.6-1.9 13.7-11.3 9.6-19.8-2-4.5-7.7-8.1-12.4-8.1z" fill="#f1a34f"/><path d="M250.9 106.4s4.2.7 5.3 3.4-.4 4.6-1 4.6-1.7-.4-2.3-1.9l-2-6.1zm-57.8 12.2s4.7 0 6.4 2.8.3 5.1-.3 5.2-2-.2-2.8-1.6l-3.3-6.4z" fill="#ffb07b"/><path d="M251 109.6c-.4-.1-2.2-.3-4.6-.7-4.3-.7-10.2-1.9-12.2-3.7-.5-.5-1.8-3.3-3.1-6.4-1.3 7-1.4 12.4-1 16.4l-28.9 6.2c2.5-5 6.3-11.2 5.6-16.2-.3-1.9-1.3-4.4-1.7-7.3 0-.2-.1-.5-.1-.7-4.1 3.3-8.7 7-8.8 7.8-.2 1.2 3 14.9 3 14.9-.8 1.8-4.2 1.4-4.2 1.4-3.2-2.3-7.9-15.2-7.5-18 .4-2.9 12-19.2 14.8-23s12.9-3.8 13.2-3.7h0c8.1 4.8 8.8.8 8.8.8s7.3 1.4 8.5 3.5c1.3 2.2 6.7 18.5 7.1 19 .8 1.2 14.1 6 14.3 7.4.2 1.3-2 2.5-3.2 2.3z" fill="#80bdcc"/><path d="M211.2 119.3l-10.1 2.2c2.5-5 5.8-11.2 5.1-16.2-.3-1.9-.9-4.1-1.2-7 0-.3-.1-1.1-.1-1.1s7.1 5.6 7.3 11.7c.1 3.1-.4 7.2-1 10.4zm35.5-10.4c-4.3-.7-10.4-1.9-12.4-3.7-.5-.5-1.8-3.3-3.2-6.4 0 0-.5-5.1.9-4.9 1.3.2 3.3 9.2 4.7 9.8 1.3.5 8.2 3.2 10 5.2z" fill="#5f9aa8"/><path d="M459.9 302.7c-.6 2.1-3.4 3.4-3.8 5.9-.2 1.2-.6 2.2-1.2 2.8h-8.8c.1-.5.5-1 1.6-1.3 2.4-.5 3.4-3.5 3.2-6.2-.1-1.1 0-2.5 0-3.6l.2-2.8 5.2-1.2.5.7.5.7c.1 0 3.2 2.9 2.6 5zm-40.8 8.7h-17.7c.4-.5 1.1-.9 2.2-1.1 2.7-.4 7.5-2 8.5-5.5 0-.1.1-.2.1-.3.8-3.7 6.9 1.1 6.9 1.1v.4c.1 1.1.4 3.9 0 5.4z" fill="#2c3a64"/><path d="M404.3 212.6l2 25.4 3.4 46.4c.3 7.6 1.5 19.8 1.5 19.8s2.9 2.9 8.7 1.7c0 0 5.2-17.4 6.6-35.8 0-.3 0-.6.1-.9l3.5-58.2-25.8 1.6z" fill="#35488b"/><path d="M404.3 212.6l2 25.4 20.3 32.1c0-.3 0-.6.1-.9l3.5-58.2-25.9 1.6z" fill="#2c3a64"/><path d="M408.5 214s16.7 41.8 27.6 61.4l14.4 25.1s6.3-2.5 6.9-4.2c0 0-4.2-37.9-11.5-47.2-4.1-5.2-9-20.9-9.2-26.4s-1.5-16.3-1.5-16.3l-26.7 7.6z" fill="#35488b"/><path d="M417.1 149.5l-.8-7 8.5-6.8c-.3 9.4 5.7 13.9 5.7 13.9s-11.3 5.5-17.8 3.5c0 0 1.6-2.1 4.4-3.6z" fill="#935c2f"/><path d="M414.3 142.3s10.8 1.8 11.8-4.9 3.1-11-3.7-12.4-8.6.9-9.4 3.1c-1 2.1-1.5 13.6 1.3 14.2zm-37.8 13.9l-2.3-1.4s-2.9-4.2-7.7-1.6c0 0-1.9 1.2-.6 2.3 1.3 1 .9.4 2.7 1.9s4.1 2 5.6 1.2l1.9-.2.4-2.2z" fill="#a16d3c"/><path d="M373.8 156.6c.6-1.8.9-2 .9-2l20.3 2.3c1.7.1 26-4.9 26-4.9l11.5 13.9-38.2.9c-7.3-.7-20.5-7.5-20.5-7.5s-.5-1.2 0-2.7z" fill="#d3782f"/><path d="M436.4 208.6c0 .7-1.4 1.5-2.1 1.8-4.8 2.2-9.3 3.7-14.4 4.2-6 .6-13.2-.7-15.6-.7-.3 0-.5-.1-.7-.3-.2-.1-.3-7.5-.2-16.8v-1.1-.1-2.9l.3-8.3c.2-4.1.4-8.1.8-11.7.4-3.7.8-6.9 1.4-9.2 1.3-5.3 4.3-8.7 7-11.3l2.3-2c2.2.5 4.6.3 7-.8 2.6-1.3 5.4-2.6 5.8-2.3 3.5 2.6 5.8 8.5 7 16 .6 4 1 8.5.9 13.2 0 1.8-.1 3.6-.2 5.5-.6 9.9 0 18.5.4 23.5.2 1.3.3 2.5.3 3.3z" fill="#e69d43"/><path d="M379.2 117l-68.1-10.8c-2.9-.5-5.6 1.5-6.1 4.4l-3 19c-.1.9.1 3.3.1 3.3l2.5.4c.1 0 .3.1.4.1h0 0c.4 0 .9 0 1.4-.2 2.3-.8 4.8-1.1 7.3-.6 7.2 1.3 12.2 8 11.4 15.2-.8 8.1-8.3 13.7-16.1 12.4-3-.5-5.6-1.8-7.6-3.8-.4-.4-.9-.6-1.3-.6h0l-2.6-.4-3.2 23.1c-.5 2.9 1.5 5.5 4.3 6l19.4 3.1c1.8.3 2.7 2.4 1.6 3.8-1.2 1.7-2.1 3.7-2.4 6-1.4 8.7 5.6 16.9 15 16.2 4.7-.3 10.1-4.3 11.8-8.8 1.3-3.3 1.3-6.6.3-9.5-.5-1.7.9-3.3 2.6-3.1l19.6 3.1c2.9.5 5.5-1.5 6-4.3l10.8-68.1c.6-2.8-1.3-5.5-4.1-5.9z" fill="#4a75cb"/><path d="M428.3 162.8s-5.2 24.3-24.8 29.8l.3-8.3c.2-4.1.4-8.1.8-11.7.3-.2.7-.3 1-.4 6.5-2.2 22.7-9.4 22.7-9.4z" fill="#d3782f"/><path d="M341.6 204.4c1.3-3.3 1.3-6.6.3-9.5-.5-1.7.9-3.3 2.6-3.1l19.6 3.1c2.9.5 5.5-1.5 6-4.3l10.8-68.1c.4-2.8-1.5-5.4-4.2-5.8l-68.1-10.8c-2.9-.5-5.6 1.5-6.1 4.4l-3 19c-.4 2.5 2 4.4 4.3 3.6s4.8-1.1 7.3-.6c7.2 1.3 12.2 8 11.4 15.2-.8 8.1-8.3 13.7-16.1 12.4-3-.5-5.6-1.8-7.6-3.8-1.3-1.3-3.5-.5-3.8 1.2l-3.3 20.9c-.5 2.9 1.5 5.5 4.3 6l19.4 3.1c1.8.3 2.7 2.4 1.6 3.8-1.2 1.7-2.1 3.7-2.4 6-1.4 8.7 5.6 16.9 15 16.2 4.9-.4 10.3-4.4 12-8.9z" fill="#699dee"/><path d="M376.6 171.9l-2.8-.5s-3.2-4.6-8.7-2c0 0-2.2 1.2-.7 2.4s1.1.5 3.1 2.2 4.6 2.3 6.4 1.5l2.2-.1.5-3.5z" fill="#a16d3c"/><path d="M374.4 173.3c.1-2.1 1.2-2.3 1.2-2.3l23-1.8c1.8-.4 18.7-14.3 18.7-14.3s6.5-5.9 11.1-3.9c4 1.7 5.2 5.1 5.4 8.2a9.3 9.3 0 0 1-5.2 8.8c-7.6 3.5-22.7 10.5-26.2 11.1-7.7 1.3-27.4-2.9-27.4-2.9s-.6-1.3-.6-2.9z" fill="#e69d43"/><path d="M412.9 128.1s-4.4-3.2-1.5-8.3c0 0 3.4 1.1 8.3 0s9.2.5 9.8 2.2c0 0 1.9.8 2.1 3.6s-5.5 11.8-5.5 11.8-1.2-1.5-.9-2.6c.3-1 1.4-3.4.1-3.4s-1.7 1.9-2.2 1.1.4-3.9-1.1-4.5c-1.6-.4-7.4 1-9.1.1z" fill="#2c3a64"/><path d="M264.4 309l-19.2-87.3h5.3a2.26 2.26 0 0 0 2.3-2.3v-3a2.26 2.26 0 0 0-2.3-2.3h-67.2a2.26 2.26 0 0 0-2.3 2.3v3a2.26 2.26 0 0 0 2.3 2.3h6.8L170.9 309c-.3 1.2.5 2.3 1.7 2.6s2.3-.5 2.6-1.7l19.4-88.3h46.1l19.4 88.3c.3 1.2 1.4 1.9 2.6 1.7h0c1.3-.2 2-1.4 1.7-2.6z" fill="#c3e0f4"/><path d="M392 255.5c-7.1-6.8-32.8 36.3-32.8 36.3s39.9-29.4 32.8-36.3zm-.8 20c-6.3-2.5-26.4 18.7-31 23.6-3.5-.5-7.3-.8-11.5-.8-31.9-.6-46.4 13.9-46.4 13.9l89 .3s-7.9-10-30.2-13.2c5.5-2.6 21.6-10.1 27.5-11.5 7.1-1.9 9.7-9.5 2.6-12.3z" fill="#acd29a"/><path d="M366.1 232.2h-19.2c-2.5 0-4.1 2.7-2.9 4.8s-2.9 20.3-11.5 20.8c-8.1.4-14.8-6-14.8-14 0-3 .9-5.8 2.6-8.1 1-1.5 0-3.5-1.8-3.5h-21.1c-2.9 0-5.2 2.3-5.2 5.2 0 0-1.9 22.7-3.5 21.9-1.7-.8-3.5-1.4-5.5-1.5h0 0-.7c-.2 0-3.7-.1-3.7-.1l-.5 28h3c2.9-.1 5.4-.4 7.6-1.5 1.6-.8 3.4.4 3.4 2.1v19.8c0 2.9 2.3 5.2 5.2 5.2h69c2.8 0 5.1-2.3 5.1-5.1v-68.9c-.2-2.8-2.6-5.1-5.5-5.1z" fill="#d86713"/><path d="M275.4 285.5c3.4.7 6.7.2 9.5-1.2 1.6-.8 3.4.4 3.4 2.1v19.8c0 2.9 2.3 5.2 5.2 5.2h69c2.8 0 5.1-2.3 5.1-5.1v-68.9a5.34 5.34 0 0 0-5.3-5.3h-19.2c-2.5 0-4.1 2.7-2.9 4.8s1.8 4.5 1.7 7.1c-.2 7.3-6 13.3-13.3 13.7-8.1.4-14.8-6-14.8-14 0-3 .9-5.8 2.6-8.1 1-1.5 0-3.5-1.8-3.5h-21.1c-2.9 0-5.2 2.3-5.2 5.2V257c0 1.8-1.9 3-3.5 2.2-1.9-.9-4-1.5-6.3-1.5-8.8 0-15.8 8.2-13.6 17.4 1.1 4.7 5.8 9.4 10.5 10.4z" fill="#f1a34f"/><path d="M75.7 311.8l12.4.1s-.4-3-8.8-3.8h0c-3.2-9-12.7-33.2-21-32-8.1 1.1 11.2 23.3 19 31.9-1.1 0-2.1.1-3.1.2-1.9-3.8-5.6-9.1-11.7-8.8-6.4.3 2.3 6.1 8.3 9.7-3 1.1-4.7 2.6-4.7 2.6l9.4.1c.1.1.2.1.2 0 0 .1 0 .1 0 0z" fill="#acd29a"/><path d="M120 211.6l1.8 1.5s5-1.8 6.2 4.2c0 0 .3 2.5-1.3 2.5s-.9-.3-3.2-.2-4.2-1.1-4.5-3l-1.1-1.6 2.1-3.4z" fill="#ea8e50"/><path d="M119.8 214.8c1.5-1.5 1.3-2.7 1.3-2.7l-18.7-15c-1.2-.8-13.7-11.8-19.5-18.6-2.9-3.3-6.5-2-10.6-.9l-3.4 1c-4.1 1.2-5.1 6.9-1.8 9.6 9.4 7.8 25.1 16.6 28 18.4 7.3 4.6 21.5 10 21.5 10s1.9-.5 3.2-1.8z" fill="#1e3d70"/><path d="M139.6 299.9s4.1 3.1 10.4 1.5c0 0 5.1-1.2 6.2 1.4l-9.8 5c-1.5.8-3 2.1-4.1 3.1-.9.8-2.2.7-3-.2a38.91 38.91 0 0 0-1.2-1.5c-1.2-1.6-4-6.9-4-6.9l5.5-2.4z" fill="#233862"/><path d="M141.5 298.5s-2.5 5.8-8.3 4.7c0 0-11.8-9.7-19.9-19.9-2.6-3.3-4.9-6.6-6.2-9.7-5.4-12.4-19.8-31-29.1-40.3l23-8.3 17.2 33.1c7.2 13.1 15.6 28 23.3 40.4z" fill="#2b478b"/><path d="M118.3 258.1l-5 25.3c-2.6-3.3-4.9-6.6-6.2-9.7-5.4-12.4-19.8-31-29.1-40.3l23-8.3c.1-.1 7.5 14.8 17.3 33zm-18.9 45.1s-.3 4.6 5.3 5.2c0 0 3.2 0 3.2 2.9l-16.2.1s-.5-1.2-.6-3.7c-.1-1.9 1.9-7 1.9-7l6.4 2.5z" fill="#233862"/><path d="M93.6 225s10.3 11.3 16.8 31.6c3.5 11.1-6.5 38.8-8.5 48.5 0 0-6.7.6-11.3-1.2 0 0-.3-19.9 2.3-35.3 1.5-8.6-13.5-18.4-20.1-33.9-4.5-10.6 1-10.4 7.6-10.6l13.2.9z" fill="#2b478b"/><path d="M81.7 174.7c-5.7 3.2-17.4.3-17.4.3s4.7-5.4 2.6-14.2l4.5 2.3 4.8 2.4s.3 1.5.5 4.3c.1.7.1 1.5.1 2.4 3 .9 4.9 2.5 4.9 2.5z" fill="#ffb07b"/><path d="M102.7 224.4c0 1-1.2 1.5-1.4 1.5-2.3.4-8.7 2.9-14.5 3.5-4.9.5-9.4 0-14.4-1-.7-.1-2.2-.5-2.3-1.2s-19.2-38.8-4.4-55.2c.3-.4 3.3.3 5.9.9 2.5.6 4.7.3 6.8-.6l2.5 1.3c3.1 1.7 8.9 7.8 9.6 12.6.3 2.4 1.7 4.2 2.1 6.4.1.8.3 1.6.5 2.3l.9 4.2c.9 3.6 1.8 6.7 2.7 9.4 1 2.9 1.9 5.2 2.7 7.2l2.6 6c.4 1.3.7 2.1.7 2.7z" fill="#2a4e96"/><path d="M102 221.9c-26.9-12.7-36.2-37-36.2-37L93 195.1l.9 4.2c.9 3.6 1.8 6.7 2.7 9.4 1 2.9 1.9 5.2 2.7 7.2 1.2 2.6 2.2 4.6 2.7 6z" fill="#1e3d70"/><path d="M178 195l-5.8-18.3c-.6-1.8-2.4-2.6-4-2.2h0 0c-.1 0-.2.1-.3.1l-2 .7s-3.2 3.3-5.4 3.9c-7 2-13.6-1.7-16.1-8.5-2.8-7.6.5-15.9 8.1-18.3 2.6-.8 7.7.7 7.7.7l2.1-.7a2.21 2.21 0 0 0 1.5-2.8l-6.3-20.1c-.9-2.7-3.8-4.3-6.5-3.4l-18.7 5.9c-1.7.5-3.4-.9-3.1-2.7.3-2.1.2-4.3-.5-6.4-2.7-8.4-12.5-12.6-20.6-7.7-4.1 2.4-7.1 8.4-6.7 13.1.3 3.5 1.8 6.5 4 8.7 1.2 1.3.7 3.4-1 3.9l-18.8 5.9c-2.7.9-4.3 3.8-3.4 6.5l20.7 65.6c.8 2.7 3.7 4.2 6.4 3.3l65.5-20.7c2.5-.8 4.1-3.7 3.2-6.5z" fill="#4a75cb"/><path d="M99.2 129c.3 3.5 1.8 6.5 4 8.7 1.2 1.3.7 3.4-1 3.9l-18.8 5.9c-2.7.9-4.3 3.8-3.4 6.5l20.7 65.6c.8 2.7 3.7 4.2 6.4 3.3l65.5-20.7a5.38 5.38 0 0 0 3.5-6.6l-5.8-18.3c-.7-2.4-3.8-3.1-5.5-1.3a14.11 14.11 0 0 1-6.2 3.8c-7 2-14.4-1.7-17-8.5-2.8-7.6 1.3-15.9 8.9-18.3 2.9-.9 5.8-.8 8.5 0 1.7.6 3.4-1.1 2.8-2.8l-6.3-20.1c-.9-2.7-3.8-4.3-6.5-3.4l-18.7 5.9c-1.7.5-3.4-.9-3.1-2.7.3-2.1.2-4.3-.5-6.4-2.7-8.4-12.5-12.6-20.6-7.7-4.3 2.5-7.4 8.4-6.9 13.2z" fill="#699dee"/><path d="M117.8 214.6l2.3.9s4.7-3.3 7.6 2.1c0 0 1 2.3-.6 2.8-1.7.5-1.1 0-3.4.8s-4.6.2-5.5-1.4l-1.6-1.2 1.2-4z" fill="#ffb07b"/><path d="M119.7 217.9l1.3-3.3-19.4-15.5c-1.2-.8-13.4-9.9-19.3-17-2.9-3.5-7.6-5.1-12-4.2l-3.7.8c-4.5.9-5.9 6.6-2.4 9.5 9.7 8.3 26.1 18 29.2 20 7.6 5 24.4 12 24.4 12s1.2-.6 1.9-2.3z" fill="#2a4e96"/><path d="M76.8 169.8c-5.6.3-9.3-4.3-9.3-4.3s2.5-1.4 3.9-2.4l4.8 2.4s.3 1.6.6 4.3z" fill="#ea8e50"/><path d="M79.1 164.1s-8.5 6.1-12.2.7-7.3-8.2-2-12.3 7.8-2.8 9.4-1.3c1.7 1.5 7 11.1 4.8 12.9z" fill="#ffb07b"/><path d="M75.2 146.3c-.3-2.1-1-3.5-1-3.5s-.5 2.2-4.6 1.9c-4-.3-10.4.4-12.6 5-.1.3-.3.6-.4.9-.4-1-.5-2.6-.5-2.6-.8 2 0 4.5 0 4.5h0v.2c-.9.8-1.6 3.1-1.6 3.1.3-.7.9-1.1 1.5-1.3 0 3.6 1.4 7.1 4 8.1 3.7 1.5 3.7.4 7.5 2.8 0 0 1-1.2.3-2.1-.7-.8-3.3-2.1-1.8-3.3 1.4-1.2 2 .2 2.5-.7.5-.8-2.1-3.3 1.3-5.6 3.4-2.1 5.7-5.3 5.4-7.4z" fill="#233862"/><path d="M294.2 311.5s-4.3-6.4-11-5.8l-9.2 1.2c-2.9-10.2-10.9-34.3-21.8-35.7-11.1-1.4 10.6 25.5 19.4 36l-5 .6c-4.7-5-12.9-12.4-19.7-11.8s6 7.6 15.2 12.3c-5.7.4-11 .4-14.3-.9-8-3.1-15.4 4.2-15.4 4.2h61.8z" fill="#82b378"/></svg>