<svg xmlns="http://www.w3.org/2000/svg" viewBox="0 0 500 369" xmlns:v="https://vecta.io/nano"><style><![CDATA[.BG{fill:#ffb27d}.BH{fill:#fff}.BI{fill:#b0d4ff}.BJ{fill:#233862}.BK{fill:#f99746}.BL{fill:#b0d0ff}.BM{fill:#95c0f4}.BN{fill:#98baf4}.BO{fill:#78acea}.BP{fill:#bae8e3}.BQ{fill:#a9453d}.BR{fill:#ed7d2b}.BS{fill:#2b478b}]]></style><path d="M24.7 309.7l455.1-.1c15-32 15-47.6 16.7-65.9 9.4-101.2-66.8-116.8-89.2-121-68.4-12.9-37.3-76.9-215.5-64.9-16.3 1.1-54.9 10-68.1 15.7-9.3 4-44.4 22.1-54.7 52.6-3.3 9.6-4 20.5-.8 32.6 11.6 42.7-18.6 40.3-40.7 60.6-29.5 27.2-26.4 71.6-2.8 90.4z" fill="#ebf3fa"/><path d="M295.8 309.7h0a.68.68 0 0 0 .7-.7l-1-43-2.9-.3 2.5 43.4c0 .3.3.6.7.6z" class="BI"/><path d="M312.8 309.7h0a.68.68 0 0 0 .7-.7l-1-43-2.9-.3 2.5 43.4c0 .3.4.6.7.6z" class="BM"/><path d="M265.8 309.7h0a.68.68 0 0 1-.7-.7l1-43 2.9-.3-2.5 43.4c0 .3-.3.6-.7.6zm49-46.4v-29.5a9.39 9.39 0 0 0-9.4-9.4h-21.2a9.39 9.39 0 0 0-9.4 9.4v30.6l40-1.1z" class="BI"/><path d="M270.9 268h39.2c2.6 0 4.7-2.1 4.7-4.7h0H271v4.7h-.1z" class="BM"/><path d="M266.3 268h30.5a2.26 2.26 0 0 0 2.3-2.3h0a2.26 2.26 0 0 0-2.3-2.3h-30.5a2.26 2.26 0 0 0-2.3 2.3h0c-.1 1.2 1 2.3 2.3 2.3z" fill="#cae5ff"/><path d="M215.1 108.1h122.5v105.7H215.1z" class="BM"/><path d="M217.4 109.9h117.8v101.8H217.4z" fill="#dfedfb"/><path d="M258.5 154.2h-25.8V122l4.4-4h21.4z" class="BH"/><path d="M232.7 122h4.3l.1-4zm8.8-.8h8.3v.4h-8.3zm-1.9 1.2h12.2v.4h-12.2zm-3.8 7.5H256v.5h-20.2zm0 1.6H256v.5h-20.2zm0 1.5H256v.5h-20.2zm0 1.5H256v.5h-20.2zm0 16.5H256v.5h-20.2z" class="BI"/><path d="M288.3 198.9h-25.8v-32.2l4.4-4h21.4z" class="BH"/><path d="M262.5 166.7h4.3l.1-4zm8.8-.8h8.3v.4h-8.3zm-1.9 1.2h12.2v.4h-12.2zm-3.8 7.5h20.2v.5h-20.2zm0 1.6h20.2v.5h-20.2zm0 1.5h20.2v.5h-20.2zm0 1.6h20.2v.5h-20.2zm0 4.7h20.2v.5h-20.2zm0 1.5h20.2v.5h-20.2zm0 1.8h20.2v.5h-20.2zm23-69.3h14.2v12.6h-14.2z" class="BI"/><circle cx="295.8" cy="119.5" r=".6" fill="#ffa412"/><path d="M288.186 135.514l14.166-.989.877 12.57-14.166.989z" class="BH"/><circle transform="matrix(.9976 -.069642 .069642 .9976 -8.8447 20.9131)" cx="295.5" cy="137.3" r=".6" class="BI"/><path d="M240.885 181.815l14.166-.989.877 12.57-14.166.989z" class="BH"/><circle transform="matrix(.9976 -.069642 .069642 .9976 -12.1845 17.7245)" cx="248.1" cy="183.6" r=".6" class="BI"/><path d="M222.925 189.964l14.199-.146.129 12.599-14.199.146z" class="BH"/><circle transform="matrix(.9999 -.010301 .010301 .9999 -1.9675 2.3803)" cx="230.1" cy="192.2" r=".6" class="BI"/><path d="M307.81 154.548l2.216-12.403 13.978 2.498-2.216 12.403z" fill="#eef6ff"/><circle transform="matrix(.176 -.9844 .9844 .176 118.1824 431.342)" cx="316.7" cy="145.1" r=".5" class="BO"/><path d="M266.064 135.801l14.118-1.528 1.356 12.527-14.118 1.528z" fill="#eef6ff"/><circle transform="matrix(.9942 -.1075 .1075 .9942 -13.1241 30.1724)" cx="273.3" cy="136.8" r=".5" class="BO"/><path d="M229.335 166.913l13.888-2.961 2.627 12.323-13.888 2.961z" class="BP"/><circle transform="matrix(.5441 -.839 .839 .5441 -32.3921 274.6994)" cx="236.6" cy="167.2" r=".5" fill="#ffa412"/><path d="M280.6 130.6h-13.5v-9.1l3.7-3.5h9.8z" class="BH"/><g class="BI"><path d="M267 121.5h3.7l.1-3.5z"/><circle cx="274.3" cy="119.2" r=".4"/></g><path d="M320.2 205.2h-13.5v-9.1l3.7-3.5h9.8z" class="BH"/><g class="BI"><path d="M306.6 196.1h3.7l.1-3.5z"/><circle cx="314" cy="193.8" r=".4"/></g><path d="M326.4 187.1h-13.5V178l3.7-3.5h9.8z" class="BH"/><g class="BI"><path d="M312.8 178h3.7l.1-3.5z"/><circle cx="320.1" cy="175.7" r=".4"/></g><path d="M308.5 187.1H295V178l3.7-3.5h9.8z" class="BP"/><path d="M294.9 178h3.7l.1-3.5z" fill="#a1d6ce"/><circle cx="302.2" cy="175.7" r=".4" class="BK"/><path d="M330.3 127.5h-13.6v-9.2l3.7-3.4h9.9z" class="BP"/><path d="M316.6 118.3h3.7l.1-3.4z" fill="#a1d6ce"/><circle cx="324" cy="116.1" r=".4" class="BK"/><path d="M186.4 105.6h-6.2c-6.6 0-11.9-5.4-11.9-11.9v-5.3c0-6.6 5.4-11.9 11.9-11.9h6.2c6.6 0 11.9 5.4 11.9 11.9v5.3c0 6.5-5.4 11.9-11.9 11.9z" fill="#c0d8fb"/><path d="M186.1,104.3h-5.7c-6,0-10.9-4.9-10.9-10.9v-4.9c0-6,4.9-10.9,10.9-10.9h5.7c6,0,10.9,4.9,10.9,10.9v4.9     C197,99.4,192.1,104.3,186.1,104.3z" fill="#dfebfd"/><g fill="#b7d3f3"><circle cx="183.3" cy="80.3" r=".6"/><circle transform="matrix(.4858 -.8741 .8741 .4858 25.5477 206.4276)" cx="188.2" cy="81.5" r=".6"/><circle transform="matrix(.8403 -.5422 .5422 .8403 -15.4245 117.8501)" cx="192.3" cy="85.1" r=".6"/><circle cx="194.1" cy="90.5" r=".6"/><circle transform="matrix(.7071 -.7071 .7071 .7071 -11.8158 164.4392)" cx="192.6" cy="96.5" r=".6"/><circle transform="matrix(.7071 -.7071 .7071 .7071 -15.7125 162.8018)" cx="188.7" cy="100.4" r=".6"/><circle cx="183.3" cy="102" r=".6"/><circle transform="matrix(.8741 -.4858 .4858 .8741 -17.1305 96.8806)" cx="178.3" cy="81.5" r=".6"/><circle transform="matrix(.5421 -.8403 .8403 .5421 8.238 185.3121)" cx="174.2" cy="85.1" r=".6"/><circle cx="172.4" cy="90.5" r=".6"/><circle transform="matrix(.7071 -.7071 .7071 .7071 -17.3074 151.231)" cx="173.9" cy="96.5" r=".6"/><circle transform="matrix(.7071 -.7071 .7071 .7071 -18.94 155.1267)" cx="177.8" cy="100.4" r=".6"/><circle cx="183.7" cy="90.5" r=".6"/><path d="M183.6 82.7h.2v7.8h-.2z"/><path d="M183.52 90.257l4.168-3.273.309.393-4.168 3.273z"/></g><path d="M354.9 308.2c-.1 1.7-2.5 1.7-5.2 1.4s-2 .4-5.7.4c-3.8.1-5-1.2-5.2-1.7s1.6-.9 3.6-1.3c.2-.1.5-.1.7-.2 2.2-.6 3.6-2.2 5.5-3.6 1.8-1.4 4-6.2 4-6.2l5.1-.2-3 6.3c-.5 1.1-.3 2.5-.1 3.5.3.4.4 1 .3 1.6z" class="BG"/><path d="M349.8 309.5c-2.7-.3-2 .4-5.7.4-3.8.1-5-1.2-5.2-1.7s1.6-.9 3.6-1.3h0s2.4 1.3 5.5 1c2.5-.3 5.1-1.3 6.8-1.5l.2 1.7c-.2 1.7-2.5 1.7-5.2 1.4z" class="BJ"/><path d="M390.4 308.5c-.1 1.7-2.5 1.7-5.2 1.4s-2 .4-5.7.4c-3.8.1-5.1-1.2-5.2-1.7-.2-.5 1.6-.9 3.6-1.4.2-.1.5-.1.7-.2 2.2-.6 3.6-2.2 5.5-3.6 1.8-1.4 0-9.4 0-9.4l5.6-.5-.3 9.8c0 1.2.6 2.4.8 3.4.1.6.2 1.2.2 1.8z" class="BG"/><path d="M385.2 309.9c-2.7-.3-2 .4-5.7.4-3.8.1-5.1-1.2-5.2-1.7-.2-.5 1.6-.9 3.6-1.4h0s2.4 1.3 5.5 1c2.5-.3 5.1-1.3 6.8-1.5l.2 1.7c-.1 1.8-2.5 1.8-5.2 1.5z" class="BJ"/><path d="M373.9 170.1c-1-4 .4-5.9 1.7-6.8.6-1.5 1.3-2.5 2-2.9 1.3-.7 2.8-.8 3.9-.7-.3-.3-.8-.4-.8-.4.7-.1 2.2.6 2.2.6 9.3-3.6 10.7 10.1 10.5 13.3s-.2 6.9 4.7 9.4c9.2 4.8-3.1 22.7-3.1 22.7.2-2.6-11.6-16.1-17.8-20.1-1.5-2.2-2-6.1-2.1-6.4.3 3.1.8 4.8 1.3 5.8-2.8-2.8-3.2-9-2.5-14.5z" class="BQ"/><path d="M377.6 185.2s3 1.6 5.2 1c2.1-.6 3.5-3.3 3.5-3.3-.9-.2-1.2-1.4-1.1-6.7l-.4.1-6.9 1.4.2 4.2c0 1.5-.1 3.1-.5 3.3z" class="BG"/><path d="M377.9 177.5l.2 4.2c3.8-.1 5.9-3.6 6.7-5.5l-6.9 1.3z" fill="#ed975d"/><path d="M350 299.6c-.3 1.1.4 2.1 1.5 2.2l2.7.1 2.8.1c.7 0 1.4-.3 1.8-.8 2.3-2.8 9.2-12 13.4-25.5.1-.4.2-.8.4-1.1 2.8-8.1 8.6-18.3 11.6-27.6.5-1.5.9-2.9 1.3-4.2.1-.4.2-.8.4-1.2 2.2-7.8 2.9-12.9 3.5-18.4l-22 .2c.1-.1-4.5 35.9-17.4 76.2z" fill="#2a4e96"/><path d="M370.6 210.7c.1 10.5-1.5 15-1.5 15s9.4 4.8 20.6 1.3c.1 0 9.3-2.1 9.3-2.1-.2-.4-1.9-7.5-2-7.9-2.4-5.1-4.2-7.3-4.4-8.9-.5-2.9-.5-5.9-.3-8.8.7-7.5 2.7-13.8 2.7-13.8-3.1-.7-5.9-1.9-9.1-3.1-.7.9-3 1.9-4.9 1.8-2.2 0-3-1-2.8-2-2.4 1.3-4.3 2.6-4.3 2.6-2 3.5-6.1 6.9-6.4 12.3-.2 1.3 3.1 13.3 3.1 13.6z" class="BH"/><path d="M389.5 211.8c1 1.4 2.8 9.6 7.4 10.7-2.4-5.9-4.2-8.5-4.4-10.3-.5-3.4-.5-6.9-.3-10.2-1.5-2.7-2.7-4.5-2.7-4.5-.1-.4-2.4-7.6-3.2-1.2-.7 6.4 2.1 14 3.2 15.5z" fill="#5f9aa8"/><path d="M376.6 179.4s9.1.1 9.1-5.5c0-5.7 1.2-9.4-4.6-9.8-5.8-.3-6.9 1.8-7.4 3.7-.5 2 .6 11.5 2.9 11.6z" class="BG"/><g class="BQ"><path d="M377 164s2.5 6.6 6.3 7.6 5.5 0 5.5 0-2.9-2.3-3.5-6.4c-.1 0-6.5-4.3-8.3-1.2z"/><path d="M377.6 164.6s-1.9 1.5-2.3 2.9c-.5 1.4-.7 4.4-1.5 4.3 0 0-1.9-4.5.2-7.1 2.2-2.7 3.6-.1 3.6-.1z"/></g><path d="M362.3 217.9l-4.2 13.1 2.4 1 7.1-11.6z" class="BG"/><g class="BK"><path d="M373.9 184s-5.1 2-6.5 5.1-3.7 24.1-4.6 26.3-1.5 3.9-1.5 3.9 2.5 2.1 5.1 2.3c2.6.1 7.5-37.6 7.5-37.6z"/><path d="M378.1 182.2s-5.3 13-5.4 15.6c-.2 2.6-.6 42.9-.6 42.9s.3 1.9-3.2 1.1c-3.6-.8-4.5-1.5-4.5-1.5s3.4-24.9 2.5-33.5S374 184 374 184l4.1-1.8z"/></g><path d="M354.2 301.9l3.1.1c.5 0 1.1-.2 1.4-.6 2.1-2.5 9.3-11.9 13.6-25.7.1-.4.2-.8.4-1.1 2.8-8.1 8.6-18.3 11.6-27.6.5-1.5.9-2.9 1.3-4.2.1-.4.2-.8.4-1.2l-3.2-2.5s-9.7 15.8-12.7 30.6c-2.7 12.8-13.2 28.3-15.9 32.2z" fill="#1e3d70"/><path d="M382.4 271c-.1 6.8.3 22 1.1 29.5.1.7.7 1.2 1.3 1.2h2.3 2.2c.4 0 .8-.3.9-.7 2.3-11.6 3.9-21.3 5.1-29.6l2.6-18.1c.7-5.2 1.2-9.5 1.3-13.2 0-.6 0-1.1.1-1.7v-1.6l-19-1.9c.2 12.6 2.2 31.9 2.1 36.1z" fill="#2a4e96"/><path d="M387.2 301.7h2c.5 0 .9-.4 1-.9 2.3-11.6 3.9-21.2 5.1-29.5l2.6-18.1c.7-5.2 1.2-9.5 1.3-13.2l-7 4.1s4.5 1.6 2.8 13.5-5.5 42.4-7.8 44.1z" fill="#1e3d70"/><path d="M386.3 239.9s1.3 4.8 6 4.2c4.6-.6 11.2-3.4 11.2-3.4l-4.4-14.5c-3-10-6.7-22.8-8.4-30.9-.5-2.3-.8-4.2-.9-5.5l-3.8-7.5s-5.7 12.9-6 16.1c-.5 3.4 6.3 41.5 6.3 41.5z" class="BK"/><path d="M390.9 198l-5.1-15.6s6.4 1.9 9.6 3.5c0 0 2 2.6 3.3 8.6 0 0 1.3 14.4-1.6 19.6 0 0-9.3 1.9-24.1-3.2v-3.4l19.5 1.2-1.6-10.7z" class="BG"/><path d="M386.5 205.3c.2 5.3 1.4 15.4 12.5 20.9h.1c-3-10-6.7-22.8-8.4-30.9-2.1 3.1-4.4 7.1-4.2 10z" class="BR"/><path d="M385.8 182.4s9.4.7 11.7 5.7 3 21.8.1 26.8c0 0-4 1.1-11-.2h-.3s-2.2-5.5-.2-6.6c0 0 5.9.3 5.3-1.6-.6-2-5.6-24.1-5.6-24.1z" class="BK"/><g class="BQ"><path d="M362.2 209.6l.3.9 15.4-4.8s.2-.2.1-.5-.4-.3-.4-.3l-15.4 4.7z"/><path d="M361.1 210.4l1.1-.8.3.9z"/></g><path d="M358.7 230.7s-3.9 2.2-4.4 3.8-.2 5.1.5 5c.6-.1 1.5-3.7 2.1-4 .5-.3 1.2-1 1.2-.5s-.5 1.6-.3 1.8c.3.2 1.1-1.4 1.6-1.8.6-.3.8-2.9 1.4-3.5.5-.6-2.1-.8-2.1-.8zm14.3-23.2s-3.5-2.2-5-1.8c-1.5.3-5.2 3-3.4 3.6s3.3 0 4 .4 1.2 1.2 4.4 1.2 0-3.4 0-3.4z" class="BG"/><path d="M97.7 184.3c-.6-1.1 12.8-5.2 13 6 0 0 25.1-.6 13.1-14.6-4.1-4.8-3.7-8.8-3.6-12.6.1-3.7-2.6-14.6-11.9-13.5 0 0-2.4-1-5.5.6-6.8 3.6-22.3 38.2-5.1 34.1z" fill="#163560"/><path d="M138.7 196.8s1.6-2.5 2.9-2.5 3.8-.7 3.6-.2-1.7.5-1.9.8c-.1.3 2.2.7 2.9.8.7 0 2.3 0 2.2.3 0 .3-2.9 1.8-4.9 1.6s-4.5.6-4.5.6l-.3-1.4z" class="BG"/><path d="M115.1 197.6s.9 1.8 2.5 3.8c1.9 2.4 4.9 5.2 8.7 5.8 1.8.3 3.5-.1 5.2-.8h0c4.6-2 8-6.7 8-6.7.8-2.2-.5-3.7-.5-3.7s-9.2 2.1-10.1 1.6c-.9-.4-6-15.2-7.2-17-1.2-1.9-5.4-2.8-5.4-2.8l-1.2 19.8z" class="BL"/><path d="M117.6 201.4c1.9 2.4 4.9 5.2 8.7 5.8 1.8.3 3.5-.1 5.2-.8-.2 0-4.7.6-6.6-2.7s-3.9-8.6-6.6-6.8c-1.2.7-1.2 2.6-.7 4.5z" class="BN"/><path d="M80.7 297s-2.8 2.6-2.3 4.4 3.1 3 3.4 5.3c.3 2.2 1.7 3.4 2.9 3.4h5.9s.9-1.6-1.3-2c-2.2-.5-3-3.1-2.9-5.5s-.2-5.7-.2-5.7l-4.7-1.1-.8 1.2zm23.8 1.1s-1 10.9.2 11.5h15.8s0-1.8-2.5-2.2-7-1.9-7.7-5.2c-.8-3.4-5.8-4.1-5.8-4.1z" class="BJ"/><path d="M93.2 220.2c3.2-7.3 5.2-9.4 4.9-11.6-.3-1.7.9-31.4.9-31.4.4-.1 1.2-.2 1.6-.3 1.3-.3 2.4-1.2 2.9-2.5.6-1.5 1-3.8 1-6.7l.4.1 7 1.4s-.2 2.2-.2 4.3v.1c0 1.8 1.2 3.4 2.9 3.9.9.3 1.7.5 1.7.5s2.6 7.3 3.1 14.9c.5 7.5-4.7 10.8 0 25.9s-28 5.4-26.2 1.4z" class="BG"/><path d="M111.8 169.1l-.2 4.3c-3.9-.1-6-3.7-6.8-5.7l7 1.4z" fill="#e8945b"/><path d="M113.1 171s-9.3.2-9.3-5.6-1.2-9.6 4.7-10c5.9-.3 7.1 1.9 7.5 3.8.6 1.9-.5 11.6-2.9 11.8z" class="BG"/><g fill="#163560"><path d="M112.8 155.3s-2.5 6.8-6.4 7.8-5.6 0-5.6 0 3-2.4 3.6-6.5c0-.1 6.5-4.5 8.4-1.3z"/><path d="M112.2 155.8s1.9.7 2.7 2.1c.8 1.3 1.4 3.1 1.3 5.3 0 0 1.9-4.6-.2-7.2-2.5-2.8-3.8-.2-3.8-.2z"/></g><path d="M111.1 167.5s.6.8 1.9.8c1 0 1.4-.9 1.4-.9s-1.8-.6-3.3.1z" fill="#ebf3fa"/><path d="M92.3 190.3s-.2 3.3 0 7.3c.2 2.6 2.8 6.2 3.2 7 1 2.2 2 2.5 2 2.5l8.3 2 2.9.7 9.2-2.7s4.2-11.7 2.5-18.3-4.3-11.1-4.3-11.1-7.5 7.3-17.3-.6l-6.5 13.2z" class="BL"/><path d="M94.8 198.7c.2 2.6.4 5.1.8 6 1 2.2 2 2.5 2 2.5l8.3 2 3.6-1.1s-12-1.8-10.7-12.2l-4 2.8z" fill="#f2ccaa"/><path d="M117.4 209s4.6 14.2 4.8 19c.3 4.8-8.7 68.5-9.1 70.8-.3 2.1-2.9 3.4-2.9 3.4s-1.2.7-2.9.2c-2.4-.7-3.1-1.5-3.1-1.5s-3.5-45.4-1.4-61.7c2.2-16.2 2.2-30.3 2.2-30.3h12.4v.1z" class="BR"/><path d="M98.1 208.5s-6.9 9.3-7.6 15.6c-.6 6.3-1 28.4-2.4 34.6-1.4 6.1-6.4 18-6.4 37.1 0 0 .5 1.1 2.2 1.7a8.71 8.71 0 0 0 1.9.5c1.3.3 2.7-.3 3.3-1.6 3.4-6.9 14.3-29.1 14.9-33.8.4-3.3 3.8-24.9 11.4-37.6 1.8-3-1.1-15.2-1.1-15.2l-16.2-1.3z" class="BK"/><path d="M111.3 167.6s.2.7 1.9.6c0 0 1.4-.1 1.4-.8-.1-.1-1.4-.6-3.3.2z" class="BH"/><path d="M118.1 206.8s-1.8 1.4-5.5 1.5c-4.3.1-15.1-1.1-15.1-1.1s-.5 1.3-.5 2.7c0 0 13.1 3.3 20.7.5.1 0 1.1-1.8.4-3.6z" class="BJ"/><path d="M111.7 209.8c0-1.2.9-2.2 2-2.2s2 1 2 2.2-.9 2.2-2 2.2-2-1-2-2.2zm.7 0c0 .9.6 1.6 1.3 1.6s1.3-.7 1.3-1.6-.6-1.6-1.3-1.6-1.3.7-1.3 1.6z" class="BH"/><path d="M83.49 209.377l16.023-18.402 13.425 11.689-16.023 18.402z" fill="#b5453c"/><path d="M100.6 209.4s4.9.6 4.9 1.7c0 1.2-1.2 3.6-1.8 3.7s-4-3.2-4-3.2l.9-2.2z" class="BG"/><path d="M98.9 177.1s-6.6.5-9.1 6.6-7.3 16.4-7.3 18.2c0 1.7 2.7 7.1 17 10.1 0 0 1.5-1.6 1.4-2.8 0 0-9-7.7-8.9-8.6 0-1.7 1.5-3.9 9.3-11.8 2.2-2.1-2.4-11.7-2.4-11.7z" class="BL"/><path d="M171.6 309.8h0a.68.68 0 0 1-.7-.7l1-43 2.9-.3-2.5 43.4c0 .3-.3.6-.7.6z" class="BI"/><path d="M154.6 309.8h0a.68.68 0 0 1-.7-.7l1-43 2.9-.3-2.5 43.4c0 .3-.3.6-.7.6z" class="BM"/><path d="M201.6 309.8h0a.68.68 0 0 0 .7-.7l-1-43-2.9-.3 2.5 43.4c0 .3.3.6.7.6zm-49-46.4V234a9.39 9.39 0 0 1 9.4-9.4h21.2a9.39 9.39 0 0 1 9.4 9.4v30.6l-40-1.2z" class="BI"/><path d="M196.5 268.1h-39.2c-2.6 0-4.7-2.1-4.7-4.7h0 43.8l.1 4.7h0z" class="BM"/><path d="M201.2 268.1h-30.5a2.26 2.26 0 0 1-2.3-2.3h0a2.26 2.26 0 0 1 2.3-2.3h30.5a2.26 2.26 0 0 1 2.3 2.3h0c0 1.3-1.1 2.3-2.3 2.3z" class="BI"/><path d="M200.2 256.1c-3 5.3-6.9 7.3-6.9 7.3h-15.9c0 0 25.1-11.3 22.8-7.3z" class="BJ"/><path d="M188 297.1c-.4.5-.5 1-.3 1.6h0c.4 1 1.6 2.2 3.1 3.4.2.2.4.3.5.4l.1.1.1.1c1.4 1.3.8 1.5 3.3 4.1 2.8 2.9 4.7 2.9 5.2 2.7s-.5-1.8-1.5-3.5c-.1-.1-.1-.2-.2-.3-.1-.2-.3-.5-.4-.7-1.2-2.1-.9-3.1-.6-6.1.2-2.5 3.9-14 3.9-14l-5.3-.9s-1.6 9.2-3.4 10.6c-.9.8-2 .8-2.9 1.3-.1 0-.1.1-.2.1-.5.2-1 .6-1.4 1.1z" class="BG"/><path d="M188 297.1c-.4.5-.5 1-.3 1.6h0c.5 1 1.7 2.2 3.1 3.4.2.2.3.3.5.4l.1.1.1.1c1.4 1.3.8 1.5 3.3 4.1 2.8 2.9 4.7 2.9 5.2 2.7s-.5-1.8-1.5-3.5c-.5-.2-3.1-1.2-5-3.7-1.7-2.1-2.8-4.9-3.9-6.5-.1 0-.1.1-.2.1-.5.3-1 .7-1.4 1.2z" class="BJ"/><path d="M231 293.7c.3 1.6 2.7 1.4 5.3.7 2.6-.6 2 .1 5.7-.3s4.9-1.8 5-2.4c.1-.5-1.7-.7-3.7-.9-.2 0-.5-.1-.7-.1-2.2-.3-3.9-1.7-5.9-2.9-1.9-1.1-4.8-5.7-4.8-5.7l-5.1.4 3.7 5.9c.6 1 .6 2.4.5 3.5-.1.7-.1 1.3 0 1.8z" class="BG"/><path d="M236.3 294.5c2.6-.6 2 .1 5.7-.3s4.9-1.8 5-2.4c.1-.5-1.7-.7-3.7-.9h0s-2.2 1.6-5.3 1.7c-2.5.1-5.2-.7-7-.6 0 .6-.1 1.2 0 1.8.3 1.6 2.7 1.3 5.3.7zM211.4 261l-4.8 12.9-6.2 16.8s-1.7.2-3.3-.3c-1.5-.4-3.2-1.6-3.2-1.6s1.7-18.1 5-28.4c.8-2.7 1.8-4.8 2.8-6 4.9-5.9 9.7 6.6 9.7 6.6z" class="BJ"/><path d="M206.5 240.6c-3.1-1-12.1.3-21.1 2l-1.9-3.1-19.4-1.5s-6.4 14.2-2.9 23.2c.5 1.3 1.5 2.2 3.3 2.2h.3 15.3c9.6 0 20.4-6.6 21.8-6.9 2.3-.5 3.2 4.1 5.5 8.9s21.4 21.2 21.4 21.2 2.9 0 4.2-.4c1.3-.5 1.8-1.1 1.8-1.1s-21.2-42.3-28.3-44.5z" class="BS"/><path d="M182.8 183c-2.5-1.3-6.3-1.5-6.9-1.6-7.4-1-11.8 9.7-12 12.9-.5 6-3.6 6.9-8.1 10.6-8.9 7.5-6.3 16.2-1.4 19.4 2.9 1.9 8.1 0 8.1 0 .1.1 14.1-7.8 21-11.6 10.3-1.4 5.6-26.4-.7-29.7z" class="BJ"/><path d="M177.7 209.5s-3.4 1.2-5.7.2c-2.2-1-3.8-4.5-3.8-4.5 1 0 2.1-.9 2.9-6.5l.4.1 7 2.5-.8 4.4c-.3 1.9-.4 3.6 0 3.8z" class="BG"/><path d="M178.5 201.4l-.8 4.4c-4-.7-5.6-4.7-6.2-6.9l7 2.5z" fill="#ed975d"/><path d="M179.6 203.6s-9.6-1.3-8.7-7.3.3-10.2 6.4-9.6c6.2.6 7 3 7.2 5.1s-2.4 12-4.9 11.8z" class="BG"/><g class="BJ"><path d="M184.2 188.6s-6.2 5.3-10.3 5.7c-4.2.4-5.8-.9-5.8-.9s2.5-2 4-5.4c.4-1 1.4-1.6 2.4-1.7 2.9-.3 8.6-.4 9.7 2.3z"/><path d="M180.3 188.1s2.1 2 2.7 3.5c.6 1.4.8 4.8.3 6.2 0 0 3.2-6.2 1.4-9.3-1.9-3.3-4.4-.4-4.4-.4z"/></g><path d="M185.7 223.7c-.3 19.5-.1 15.4-2.2 17.2-.5.4-2 .7-3.9.8-6 .4-16.5-.6-16.9-1.7-1.4-3.8-.4-5-1.6-10.8-.1-.6-.3-1.3-.4-2-1-4-1.9-5.4 1.5-11.8 3.1-5.8 6.3-10.6 6.6-10.4 8.1 4.8 8.8.8 8.8.8s8.3 8.4 8.1 17.9z" class="BH"/><path d="M206.6 273.9l-6.2 16.8s-1.7.2-3.3-.3c-1.5-.4-3.2-1.6-3.2-1.6s1.7-18.1 5-28.4l7.7 13.5z" class="BS"/><path d="M177.7 205.8s8.4 1.4 9.3 5l6.8 24.8s-4.3.8-6.2-1.2c-2-2-6.8-18.2-6.8-18.2l-3.1-10.4z" class="BH"/><path d="M179.7 241.8c-6 .4-16.5-.6-16.9-1.7-1.4-3.8-.4-5-1.6-10.8l2.9-8.1s-.5 9 2.2 11.4 10.9 4.6 12.2 6.6c.7.9 1.1 1.8 1.2 2.6z" fill="#ebf3ff"/><path d="M172.9 238s5.9-1.3 6.8-.8 3.3 2.4 3.6 3.1-2.1-.5-2.9-.7c-.5-.1-1.8.3-2.5.5-2.8.9-4.5.4-4.5.4l-.5-2.5z" class="BG"/><path d="M168.9 205s-7.9.5-10.6 4.3c-3.9 5.4-11.5 28.3-7.1 31.3 4.9 3.4 22.4.9 22.4.9s.6-2.7-.2-4-14-3.4-14.6-4.1c-.6-.6 7.6-11.9 7.6-13.7s2.5-14.7 2.5-14.7z" class="BH"/><g class="BG"><path d="M180 238.8s1.2 1.6 1.6 1.8.7.1.7.1l-.8-1.5-1.5-.4z"/><path d="M179.7 237.2l3.6 1.7s-.2.2-.6.2-1.6-.4-1.6-.4l-1.4-1.5z"/></g><path d="M181.6 243.1H210l8.5-21.3h-28.3z" class="BK"/><path d="M210.3 242.2h-37.4v.9H210z" class="BR"/><path d="M202.8 232.4c.2-.7-.2-1.4-1-1.4-.7 0-1.5.6-1.7 1.4-.2.7.2 1.4 1 1.4.7 0 1.5-.6 1.7-1.4z" class="BH"/><g class="BO"><path d="M329.8 310.6h0c.6 0 1-.4.9-.9l-1.3-60.2-3.9-.5 3.3 60.7c.1.5.5.9 1 .9zm-156.8 0h0c-.6 0-1-.4-.9-.9l1.3-60.2 3.9-.5-3.3 60.7c-.1.5-.5.9-1 .9z"/><path d="M333.3 250.5H170.2c-2 0-3.6-1.6-3.6-3.6h0c0-2 1.6-3.6 3.6-3.6h163.1c2 0 3.6 1.6 3.6 3.6h0c0 2-1.6 3.6-3.6 3.6z"/></g><path d="M132.9 140c-.6-15.5 12.3-22.3 25.6-22.3s27.7 3.4 28.9 24c.8 13.2-6.3 21.4-26.6 21.4-6.9 0-12.2-1.1-16.3-3l-10.2 9 5-12.5c-4.2-4.1-6.1-9.9-6.4-16.6z" fill="#dfedfb"/><path d="M434.2 310.5s.4-2.9 1.2-4.6c.9-1.7 6.4-.6 6.4-.6s1.1.9 1.3 5.3l-8.9-.1zm-18.7 0c1.3-.8.6-6.7.6-6.7s-6-4.8-6.8-1.1-5.7 5.3-8.5 5.8c-1.9.3-2.5 1.4-2.7 2h17.4 0z" class="BJ"/><path d="M428 267.7l-.4 3.3c-.6 10.9-9.2 35.9-10.7 36.5-2.4.9-6.1-1-8.1-1.6-.8-.3-1.4-1.1-1.2-1.9 4.3-19.6 5.8-47.9 6.4-64.7.3-8.4 1.7-14.3 1.7-14.3s21-5.6 21.2 1.5c0 6.2-7 30.8-8.9 41.2z" fill="#213f7a"/><path d="M428 267.7l-14.1-28.5c.3-8.4 1.7-14.3 1.7-14.3s21-5.6 21.2 1.5c.1 6.3-6.9 30.9-8.8 41.3z" class="BJ"/><path d="M423.3 226.4l11.1 80.6s4.9 1.2 8.7.2c0 0 3.3-42.9 3-53.2-.3-10.4 2.3-27.7-.6-29.7-2.9-1.8-22.2 2.1-22.2 2.1z" fill="#213f7a"/><g class="BL"><path d="M447.7 225.1c.1.7-.4 1.4-1.1 1.6-1.6.5-3.3.8-6.8 1.5-3.2.7-7.6 1.3-13 1.3-8.5.1-11.7-2.9-11.7-2.9-.4 0 .2-1.8.7-10.3.2-2.9.3-6.5.5-11.1l.2-14.9c0-7 10.9-14.6 11.1-14.6h0c0 1 1.6 2.9 4 3 2.9.2 6.5-1.3 6.5-2.9 0 0 5.3 8.4 7.1 17.4.9 4.6.5 4.5 2.5 31.9z"/><path d="M427.5 175.7s-10.1-.1-12.5 3.3-7.8 21.8-5 27.9 8-2.5 10.9-6.3c2.8-3.7 6.6-24.9 6.6-24.9z"/></g><path d="M427.4 174.2v1s-.3 3.3 3.7 3.7c4 .5 7-.6 6.9-3.1-.4-2-.7-4-.7-5.6 0-.6 0-1.2.1-2l-7.8-.2-2.3.4.1 5.8z" class="BG"/><path d="M427.3 168.5v5.7c.8.4 1.8.6 2.8.6 3.6 0 5.9-2.6 7.1-4.5 0-.6 0-1.2.1-2l-7.8-.2-2.2.4z" fill="#e2915a"/><path d="M438 167.1c-.9 4.9-7.2 4.7-9.9 4.4-.8-.1-1.2-.2-1.2-.2-.9-.2-1.3-1.6-1.6-3.4-.4-3.5.1-8.7.7-10 .9-2 2.6-4.1 8.9-2.6 6.4 1.6 4.3 5.5 3.1 11.8z" class="BG"/><path d="M417.1 189.4s-3.9 8.6-3.8 11.2c0 0 1.9-.1 3.8.5 3.1.9 0-11.7 0-11.7z" class="BN"/><path d="M424.1 153.3s2.8-.2 6.1-1.6c2.7-1.2 6 .1 7.1.7 0-.2-.1-.4-.3-.7 0 0 .5.3.6.8.1 0 .1.1.1.1s.6-.1.9.1c0 0-.2 0-.3.1h0c4.2 2 4.5 8.6 3.2 10.1-1.6 1.8-4 6-4 6s-.2-1 .1-2.6-1.1-1.6-2.9-2.3-.3-2.8-1.8-4-7.2-.5-7.1-1.5c-2.3-.8-1.7-5-1.7-5.2z" class="BJ"/><path d="M439.3 205.6c-1.6 6.6-19.5 10-23.5 10.7.2-2.9.3-6.5.5-11.1l23 .4z" class="BN"/><path d="M435.4 207.7c.2 0 4-.6 4.6-.9s3.8-4.8 1.8-5.9-7.5 3.4-7.5 3.4l1.1 3.4z" class="BG"/><g class="BL"><path d="M412.3 209s14.7.8 24.5-1.3c0 0 .2-2.8-2.8-4.1 0 0-15.4-3.3-19-2.3-3.8.9-2.7 7.7-2.7 7.7z"/><path d="M446 197.5c-3 3.7-7 6.7-11.4 7.4h0c0-.1-1.3-2-1.1-4.9.1-1.3.6-2.9 1.6-4.5.3-.5.6-1.1.9-1.7 2.4-6.1 2-17.9 2-17.9s10.2 1.1 13.4 5.6c1.9 2.7-.6 10.2-5.4 16z"/></g><path d="M428.1 171.5l-1.2-.2c-.9-.2-1.3-1.6-1.6-3.4 1.6.4 2.4 1.6 2.7 2.2.1.2.2.8.1 1.4z" fill="#e2915a"/><path d="M424 174.2s-3.5-5.8-.8-6.1 3.8 1.6 4.2 2.3-.1 3.7-.1 3.7l-3.3.1z" class="BG"/><path d="M437.4 199.8c-.1.7-.3 1.4-.6 2-.9 1.9-2.2 3.1-2.2 3.1h0c-9.1-4.1-11-18.3-11.3-26.1-.1-3.1 0-5.2 0-5.2 4.1-1.4 5.3 1 5.3 1s4.9 11.6 7.4 19.1c.9 2.9 1.6 5.2 1.4 6.1z" class="BL"/><path d="M446 197.5c-3 3.7-7 6.7-11.4 7.4h0c-9.1-4.1-11-18.3-11.3-26.1 0 0 4.3 15.7 10.2 21.2 1.1 1 2.2 1.6 3.3 1.8 0 0 7.4-2.1 9-4.1l.2-.2z" class="BN"/><g class="BS"><path d="M279.7 243.2h-28.4l-8.5-21.2h28.3z"/><path d="M251 242.4h37.4v.8h-37.1z"/></g><path d="M258.4 232.6c-.2-.7.2-1.4 1-1.4.7 0 1.5.6 1.7 1.4.2.7-.2 1.4-1 1.4-.7 0-1.4-.6-1.7-1.4z" class="BH"/></svg>