<?xml version="1.0" encoding="utf-8"?>
<!-- Generator: Adobe Illustrator 19.2.1, SVG Export Plug-In . SVG Version: 6.00 Build 0)  -->
<svg version="1.1" id="Layer_1" xmlns="http://www.w3.org/2000/svg" xmlns:xlink="http://www.w3.org/1999/xlink" x="0px" y="0px"
	 viewBox="0 0 250 250" style="enable-background:new 0 0 250 250;" xml:space="preserve">
<style type="text/css">
	.st0{fill:#237EC1;}
	.st1{fill:#BD9679;}
	.st2{fill:#CFA585;}
	.st3{fill:#E3B592;}
	.st4{fill:#494A70;}
	.st5{fill:#FAC7A0;}
	.st6{fill:#D6B398;}
	.st7{fill:#FFFFFF;}
	.st8{fill:#FFBD48;stroke:#E8953A;stroke-miterlimit:10;}
	.st9{fill:#FF914F;stroke:#FFFFFF;stroke-miterlimit:10;}
	.st10{fill:none;stroke:#FFFFFF;stroke-miterlimit:10;}
	.st11{fill:#AFAFAF;}
	.st12{fill:#446785;}
	.st13{fill:#D8D9DA;}
	.st14{fill:#F5F5F5;}
	.st15{fill:#E1E1E1;}
	.st16{fill:#FF3632;}
	.st17{fill:#FFC200;}
	.st18{fill:#C8DD15;}
	.st19{fill:#FF6C00;}
	.st20{fill:#6BC43C;}
	.st21{filter:url(#Adobe_OpacityMaskFilter);}
	.st22{filter:url(#Adobe_OpacityMaskFilter_1_);}
	.st23{mask:url(#SVGID_1_);fill:url(#SVGID_2_);}
	.st24{fill:url(#SVGID_3_);}
	.st25{fill:#84CD5D;}
	.st26{fill:#41A029;}
	.st27{fill:#278C1F;}
	.st28{fill:#D8E86D;}
	.st29{fill:#AEB503;}
	.st30{fill:#A09E00;}
	.st31{fill:#FFD700;}
	.st32{fill:#FFA100;}
	.st33{fill:#FF9000;}
	.st34{fill:#FF7D00;}
	.st35{fill:#F94107;}
	.st36{fill:#DE3300;}
	.st37{fill:#FF524F;}
	.st38{fill:#E62323;}
	.st39{fill:#D61516;}
	.st40{fill:#BEBEBE;}
	.st41{fill:#404040;}
	.st42{fill:#616161;}
	.st43{fill:url(#SVGID_4_);}
	.st44{fill:url(#SVGID_5_);}
	.st45{fill:url(#SVGID_6_);}
	.st46{fill:url(#SVGID_7_);}
	.st47{fill:url(#SVGID_8_);}
	.st48{fill:url(#SVGID_9_);}
	.st49{fill:url(#SVGID_10_);}
	.st50{opacity:0.35;clip-path:url(#SVGID_12_);}
	.st51{opacity:0;}
	.st52{opacity:7.692300e-02;}
	.st53{opacity:0.1538;}
	.st54{opacity:0.2308;}
	.st55{opacity:0.3077;}
	.st56{opacity:0.3846;}
	.st57{opacity:0.4615;}
	.st58{opacity:0.5385;}
	.st59{opacity:0.6154;}
	.st60{opacity:0.6923;}
	.st61{opacity:0.7692;}
	.st62{opacity:0.8462;}
	.st63{opacity:0.9231;}
	.st64{fill:url(#SVGID_13_);}
	.st65{fill:url(#SVGID_14_);}
	.st66{fill:url(#SVGID_15_);}
	.st67{fill:url(#SVGID_16_);}
	.st68{fill:url(#SVGID_17_);}
	.st69{fill:url(#SVGID_18_);}
	.st70{fill:url(#SVGID_19_);}
	.st71{fill:url(#SVGID_20_);}
	.st72{fill:url(#SVGID_21_);}
	.st73{fill:url(#SVGID_22_);}
	.st74{fill:url(#SVGID_23_);}
	.st75{fill:url(#SVGID_24_);}
	.st76{fill:url(#SVGID_25_);}
	.st77{fill:url(#SVGID_26_);}
	.st78{fill:url(#SVGID_27_);}
	.st79{fill:url(#SVGID_28_);}
	.st80{fill:url(#SVGID_29_);}
	.st81{fill:url(#SVGID_30_);}
	.st82{fill:url(#SVGID_31_);}
	.st83{fill:url(#SVGID_32_);}
	.st84{fill:url(#SVGID_33_);}
	.st85{fill:url(#SVGID_34_);}
	.st86{fill:url(#SVGID_35_);}
	.st87{opacity:0.25;}
	.st88{fill:url(#SVGID_36_);}
	.st89{fill:url(#SVGID_37_);}
</style>
<text transform="matrix(0 -1 1 0 734.8135 -118.6338)" class="st0" style="font-family:'Futura-Medium'; font-size:26.3079px;"> - - - - - - </text>
<text transform="matrix(0 -1 1 0 602.0918 -116.2334)" class="st0" style="font-family:'Futura-Medium'; font-size:26.3079px;"> - - - - - - </text>
<g>
	<g>
		<path class="st1" d="M11.3-86.2c0,0-7.2-1.4-9,10C1.8-73.3,37-65.8,37-65.8l50.5,6.4l-5.7-15L11.3-86.2z"/>
		<path class="st2" d="M112.6-53.3c0,0-102.5-24.9-104.8-27.7c-2.3-2.7-1.5-13.2,7.7-14.4c9.2-1.2,30.3,4.4,30.3,4.4l31.7,0.6
			l63.3-5.4l27.2,25C168.2-70.8,117.9-52,112.6-53.3z"/>
		<path class="st3" d="M182.8-74.4c3.5,1.3,35.1,13.5,35.1,13.5l14-44.4c0,0-47-18.7-50.7-19.7c-3.7-0.9-10.8-8.2-42.5,7.8
			c-31.8,16-29.1,13.5-29.1,13.5s-34,4.2-41.5,11.8c-7.5,7.6-3,22,13.6,20.8c16.6-1.2,38-10.1,38-10.1l48.5,10.4
			C168.2-70.8,179.4-75.7,182.8-74.4z"/>
		
			<rect x="188.3" y="-103" transform="matrix(0.2849 -0.9586 0.9586 0.2849 238.5743 151.1065)" class="st4" width="64.6" height="37.2"/>
	</g>
	<path class="st5" d="M88.6-77.6c1.9-1.3,1.9-3.1,1.1-5.4c-0.8-2.3-2.1-9.5-3.4-10.2c-1.2-0.7-18.4-0.3-19.4,9.9
		c-0.8,8.4,9.5,8,11.8,7.8C79.3-75.6,87.5-76.9,88.6-77.6z"/>
	<path class="st6" d="M21.1-76.6c0,0-0.1-2.4-2.2-4c-2-1.5-9.6-2.9-10.5-2.4c-0.9,0.4-0.6,2.3-0.6,2.3L21.1-76.6z"/>
	<path class="st6" d="M15.7-70.9c0,0,0.2-1.3-1.5-2.8c-1.8-1.5-11.6-3.8-11.7-3.5c-0.1,0.3-0.4,1.9-0.4,1.9S6.9-73.1,15.7-70.9z"/>
</g>
<circle class="st7" cx="-78.3" cy="-158.7" r="0"/>
<circle class="st8" cx="94.7" cy="-154.2" r="33.5"/>
<path class="st9" d="M378.3-122.9c-0.4-3.1-2.8-5.5-5.8-6.1c-7.8-1.4-16.6-5.7-25.4-9.1l-1.1-4.8c-0.8-0.1-1.5-0.3-2.3-0.4v-7.1
	l0.6-0.6c1.6-1.6,2.6-3.7,2.8-6c0.1-1.2,0.3-2.5,0.4-3.8c0.6,0.7,2.1,0.9,2.7,0.2c0.5-0.5,0.9-1.3,1.2-2.2c1-3.1,1.5-6.8,1.6-10.9
	c0.1-1.7-1.4-2.8-2.9-2.5c1.1-7.6,1-14,0.1-20.5c-2.3-1.7-4.2-2.7-7.2-2.8l-2.7-4.5c-9.6-5.1-24.9-2.4-33.5,5.9
	c-1.3,5.4-1.3,12.9-0.2,21.9c-1.4-0.3-3,0.8-2.9,2.5c0.2,4.1,0.7,7.8,1.6,10.9c0.3,1,0.7,1.7,1.2,2.2c0.6,0.7,2.1,0.4,2.7-0.2
	c0.1,1.3,0.3,2.6,0.4,3.8c0.2,2.2,1.2,4.3,2.8,5.9l0.6,0.6v7.1c-0.8,0.1-1.5,0.2-2.3,0.4l-1.1,4.9c-8.7,3.4-17.4,7.6-25.4,9
	c-3.1,0.5-5.5,3.1-5.9,6.2c-0.9,6.2-1.3,35.2-1.3,35.2s26.1,15.9,51,15.9c25,0,51.6-15.9,51.6-15.9S379-118.4,378.3-122.9z"/>
<text transform="matrix(1 0 0 1 315.9922 -91.7539)" class="st7" style="font-family:'Futura-Medium'; font-size:13.9235px;">&lt;/&gt;</text>
<circle class="st10" cx="328.4" cy="-97.3" r="15.2"/>
<path class="st9" d="M511.3-119.8c-0.4-3.1-2.8-5.5-5.8-6.1c-7.8-1.4-16.6-5.7-25.4-9.1l-1.1-4.8c-0.8-0.1-1.5-0.3-2.3-0.4v-7.1
	l0.6-0.6c1.6-1.6,2.6-3.7,2.8-6c0.1-1.2,0.3-2.5,0.4-3.8c0.6,0.7,2.1,0.9,2.7,0.2c0.5-0.5,0.9-1.3,1.2-2.2c1-3.1,1.5-6.8,1.6-10.9
	c0.1-1.7-1.4-2.8-2.9-2.5c1.1-7.6,1-14,0.1-20.5c-2.3-1.7-4.2-2.7-7.2-2.8l-2.7-4.5c-9.6-5.1-24.9-2.4-33.5,5.9
	c-1.3,5.4-1.3,12.9-0.2,21.9c-1.4-0.3-3,0.8-2.9,2.5c0.2,4.1,0.7,7.8,1.6,10.9c0.3,1,0.7,1.7,1.2,2.2c0.6,0.7,2.1,0.4,2.7-0.2
	c0.1,1.3,0.3,2.6,0.4,3.8c0.2,2.2,1.2,4.3,2.8,5.9l0.6,0.6v7.1c-0.8,0.1-1.5,0.2-2.3,0.4l-1.1,4.9c-8.7,3.4-17.4,7.6-25.4,9
	c-3.1,0.5-5.5,3.1-5.9,6.2c-0.9,6.2-1.3,35.2-1.3,35.2s26.1,15.9,51,15.9s51.6-15.9,51.6-15.9S511.9-115.3,511.3-119.8z"/>
<text transform="matrix(1 0 0 1 448.875 -91.2002)" class="st7" style="font-family:'Futura-Medium'; font-size:13.9235px;">&lt;/&gt;</text>
<circle class="st10" cx="460.7" cy="-96.1" r="15.2"/>
<path class="st9" d="M444.8-85.3c-0.4-3.1-2.8-5.5-5.8-6.1c-7.8-1.4-16.6-5.7-25.4-9.1l-1.1-4.8c-0.8-0.1-1.5-0.3-2.3-0.4v-7.1
	l0.6-0.6c1.6-1.6,2.6-3.7,2.8-6c0.1-1.2,0.3-2.5,0.4-3.8c0.6,0.7,2.1,0.9,2.7,0.2c0.5-0.5,0.9-1.3,1.2-2.2c1-3.1,1.5-6.8,1.6-10.9
	c0.1-1.7-1.4-2.8-2.9-2.5c1.1-7.6,1-14,0.1-20.5c-2.3-1.7-4.2-2.7-7.2-2.8l-2.7-4.5c-9.6-5.1-24.9-2.4-33.5,5.9
	c-1.3,5.4-1.3,12.9-0.2,21.9c-1.4-0.3-3,0.8-2.9,2.5c0.2,4.1,0.7,7.8,1.6,10.9c0.3,1,0.7,1.7,1.2,2.2c0.6,0.7,2.1,0.4,2.7-0.2
	c0.1,1.3,0.3,2.6,0.4,3.8c0.2,2.2,1.2,4.3,2.8,5.9l0.6,0.6v7.1c-0.8,0.1-1.5,0.2-2.3,0.4l-1.1,4.9c-8.7,3.4-17.4,7.6-25.4,9
	c-3.1,0.5-5.5,3.1-5.9,6.2C344-79,343.5-50,343.5-50s26.1,15.9,51,15.9c25,0,51.6-15.9,51.6-15.9S445.4-80.7,444.8-85.3z"/>
<text transform="matrix(1 0 0 1 382.3618 -56.6846)" class="st7" style="font-family:'Futura-Medium'; font-size:13.9235px;">&lt;/&gt;</text>
<circle class="st10" cx="394.1" cy="-61.6" r="15.2"/>
<path class="st0" d="M629.2-202.7c-0.3-2-1.8-3.6-3.8-4c-5.1-0.9-10.9-3.7-16.6-5.9l-0.7-3.1c-0.5-0.1-1-0.2-1.5-0.3v-4.7l0.4-0.4
	c1-1.1,1.7-2.4,1.8-3.9c0.1-0.8,0.2-1.6,0.3-2.5c0.4,0.4,1.4,0.6,1.7,0.2c0.3-0.4,0.6-0.8,0.8-1.5c0.6-2,1-4.4,1.1-7.1
	c0-1.1-0.9-1.8-1.9-1.6c0.7-5,0.6-9.2,0.1-13.4c-1.5-1.1-2.8-1.7-4.7-1.8l-1.8-2.9c-6.3-3.3-16.3-1.5-21.9,3.9
	c-0.8,3.5-0.9,8.4-0.1,14.3c-0.9-0.2-1.9,0.5-1.9,1.6c0.1,2.7,0.4,5.1,1.1,7.1c0.2,0.6,0.5,1.1,0.8,1.5c0.4,0.4,1.4,0.3,1.7-0.2
	c0.1,0.9,0.2,1.7,0.3,2.5c0.1,1.5,0.8,2.8,1.8,3.9l0.4,0.4v4.7c-0.5,0.1-1,0.2-1.5,0.3l-0.7,3.2c-5.7,2.2-11.4,5-16.6,5.9
	c-2,0.4-3.6,2-3.8,4c-0.6,4-0.9,23-0.9,23s17,10.4,33.4,10.4s33.7-10.4,33.7-10.4S629.6-199.7,629.2-202.7z"/>
<text transform="matrix(1 0 0 1 588.3857 -183.9443)" class="st7" style="font-family:'Futura-Medium'; font-size:9.1043px;">&lt;/&gt;</text>
<circle class="st10" cx="596.1" cy="-187.1" r="9.9"/>
<path class="st0" d="M761.1-202.7c-0.3-2-1.8-3.6-3.8-4c-5.1-0.9-10.9-3.7-16.6-5.9l-0.7-3.1c-0.5-0.1-1-0.2-1.5-0.3v-4.7l0.4-0.4
	c1-1.1,1.7-2.4,1.8-3.9c0.1-0.8,0.2-1.6,0.3-2.5c0.4,0.4,1.4,0.6,1.7,0.2c0.3-0.4,0.6-0.8,0.8-1.5c0.6-2,1-4.4,1.1-7.1
	c0-1.1-0.9-1.8-1.9-1.6c0.7-5,0.6-9.2,0.1-13.4c-1.5-1.1-2.8-1.7-4.7-1.8l-1.8-2.9c-6.3-3.3-16.3-1.5-21.9,3.9
	c-0.8,3.5-0.9,8.4-0.1,14.3c-0.9-0.2-1.9,0.5-1.9,1.6c0.1,2.7,0.4,5.1,1.1,7.1c0.2,0.6,0.5,1.1,0.8,1.5c0.4,0.4,1.4,0.3,1.7-0.2
	c0.1,0.9,0.2,1.7,0.3,2.5c0.1,1.5,0.8,2.8,1.8,3.9l0.4,0.4v4.7c-0.5,0.1-1,0.2-1.5,0.3l-0.7,3.2c-5.7,2.2-11.4,5-16.6,5.9
	c-2,0.4-3.6,2-3.8,4c-0.6,4-0.9,23-0.9,23s17,10.4,33.4,10.4c16.3,0,33.7-10.4,33.7-10.4S761.5-199.7,761.1-202.7z"/>
<text transform="matrix(1 0 0 1 720.3076 -183.9443)" class="st7" style="font-family:'Futura-Medium'; font-size:9.1043px;">&lt;/&gt;</text>
<circle class="st10" cx="728" cy="-187.1" r="9.9"/>
<path class="st0" d="M761.1-67.1c-0.3-2-1.8-3.6-3.8-4c-5.1-0.9-10.9-3.7-16.6-5.9l-0.7-3.1c-0.5-0.1-1-0.2-1.5-0.3v-4.7l0.4-0.4
	c1-1.1,1.7-2.4,1.8-3.9c0.1-0.8,0.2-1.6,0.3-2.5c0.4,0.4,1.4,0.6,1.7,0.2c0.3-0.4,0.6-0.8,0.8-1.5c0.6-2,1-4.4,1.1-7.1
	c0-1.1-0.9-1.8-1.9-1.6c0.7-5,0.6-9.2,0.1-13.4c-1.5-1.1-2.8-1.7-4.7-1.8l-1.8-2.9c-6.3-3.3-16.3-1.5-21.9,3.9
	c-0.8,3.5-0.9,8.4-0.1,14.3c-0.9-0.2-1.9,0.5-1.9,1.6c0.1,2.7,0.4,5.1,1.1,7.1c0.2,0.6,0.5,1.1,0.8,1.5c0.4,0.4,1.4,0.3,1.7-0.2
	c0.1,0.9,0.2,1.7,0.3,2.5c0.1,1.5,0.8,2.8,1.8,3.9l0.4,0.4v4.7c-0.5,0.1-1,0.2-1.5,0.3l-0.7,3.2c-5.7,2.2-11.4,5-16.6,5.9
	c-2,0.4-3.6,2-3.8,4c-0.6,4-0.9,23-0.9,23s17,10.4,33.4,10.4c16.3,0,33.7-10.4,33.7-10.4S761.5-64.2,761.1-67.1z"/>
<text transform="matrix(1 0 0 1 720.3076 -48.4243)" class="st7" style="font-family:'Futura-Medium'; font-size:9.1043px;">&lt;/&gt;</text>
<circle class="st10" cx="728" cy="-51.6" r="9.9"/>
<path class="st0" d="M629.2-67.1c-0.3-2-1.8-3.6-3.8-4c-5.1-0.9-10.9-3.7-16.6-5.9l-0.7-3.1c-0.5-0.1-1-0.2-1.5-0.3v-4.7l0.4-0.4
	c1-1.1,1.7-2.4,1.8-3.9c0.1-0.8,0.2-1.6,0.3-2.5c0.4,0.4,1.4,0.6,1.7,0.2c0.3-0.4,0.6-0.8,0.8-1.5c0.6-2,1-4.4,1.1-7.1
	c0-1.1-0.9-1.8-1.9-1.6c0.7-5,0.6-9.2,0.1-13.4c-1.5-1.1-2.8-1.7-4.7-1.8l-1.8-2.9c-6.3-3.3-16.3-1.5-21.9,3.9
	c-0.8,3.5-0.9,8.4-0.1,14.3c-0.9-0.2-1.9,0.5-1.9,1.6c0.1,2.7,0.4,5.1,1.1,7.1c0.2,0.6,0.5,1.1,0.8,1.5c0.4,0.4,1.4,0.3,1.7-0.2
	c0.1,0.9,0.2,1.7,0.3,2.5c0.1,1.5,0.8,2.8,1.8,3.9l0.4,0.4v4.7c-0.5,0.1-1,0.2-1.5,0.3l-0.7,3.2c-5.7,2.2-11.4,5-16.6,5.9
	c-2,0.4-3.6,2-3.8,4c-0.6,4-0.9,23-0.9,23s17,10.4,33.4,10.4s33.7-10.4,33.7-10.4S629.6-64.2,629.2-67.1z"/>
<text transform="matrix(1 0 0 1 588.3857 -48.4243)" class="st7" style="font-family:'Futura-Medium'; font-size:9.1043px;">&lt;/&gt;</text>
<circle class="st10" cx="596.1" cy="-51.6" r="9.9"/>
<g>
	<g>
		<g>
			<g>
				<path class="st0" d="M635-117.2C635-117.2,635-117.1,635-117.2c0,0.1,0,0.1,0,0.1c0,0,0,0,0,0.1c0,0,0,0,0,0.1c0,0,0,0,0,0.1
					c0,0,0,0,0,0.1c0,0,0,0,0,0.1c0,0,0,0,0,0.1c0,0,0,0,0,0.1c0,0,0,0,0,0.1c0,0,0,0,0,0c0.1,0.1,0.1,0.1,0.2,0.2c0,0,0,0,0,0
					c0,0,0,0,0.1,0c0,0,0,0,0.1,0c0,0,0,0,0.1,0c0,0,0,0,0.1,0c0,0,0,0,0.1,0c0,0,0,0,0.1,0c0,0,0,0,0.1,0c0,0,0,0,0.1,0
					c0,0,0,0,0.1,0c0,0,0,0,0.1,0c0,0,0,0,0.1,0c0,0,0.1,0,0.1,0l12.4,0c0.8,0,1.4-0.6,1.4-1.4c0-0.8-0.6-1.4-1.4-1.4l-9,0
					l31.8-31.8v-2l-2,0l-31.8,31.8l0-9c0-0.8-0.6-1.4-1.4-1.4c-0.4,0-0.8,0.2-1,0.4c-0.3,0.3-0.4,0.6-0.4,1v12.4
					C635-117.3,635-117.3,635-117.2C635-117.2,635-117.2,635-117.2z"/>
			</g>
		</g>
	</g>
	<g>
		<g>
			<g>
				<path class="st0" d="M694.8-174.6C694.8-174.6,694.8-174.6,694.8-174.6c0-0.1,0-0.1,0-0.1c0,0,0,0,0-0.1c0,0,0,0,0-0.1
					c0,0,0,0,0-0.1c0,0,0,0,0-0.1c0,0,0,0,0-0.1c0,0,0,0,0-0.1c0,0,0,0,0-0.1c0,0,0,0,0-0.1c0,0,0,0,0,0c-0.1-0.1-0.1-0.1-0.2-0.2
					c0,0,0,0,0,0c0,0,0,0-0.1,0c0,0,0,0-0.1,0c0,0,0,0-0.1,0c0,0,0,0-0.1,0c0,0,0,0-0.1,0c0,0,0,0-0.1,0c0,0,0,0-0.1,0
					c0,0,0,0-0.1,0c0,0,0,0-0.1,0c0,0,0,0-0.1,0c0,0,0,0-0.1,0c0,0-0.1,0-0.1,0l-12.4,0c-0.8,0-1.4,0.6-1.4,1.4
					c0,0.8,0.6,1.4,1.4,1.4l9,0l-31.8,31.8v2l2,0l31.8-31.8l0,9c0,0.8,0.6,1.4,1.4,1.4c0.4,0,0.8-0.2,1-0.4c0.3-0.3,0.4-0.6,0.4-1
					v-12.4C694.9-174.4,694.9-174.5,694.8-174.6C694.9-174.6,694.9-174.6,694.8-174.6z"/>
			</g>
		</g>
	</g>
	<g>
		<g>
			<g>
				<path class="st0" d="M636.2-176.1C636.2-176.1,636.2-176.1,636.2-176.1c-0.1,0-0.1,0-0.1,0c0,0,0,0-0.1,0c0,0,0,0-0.1,0
					c0,0,0,0-0.1,0c0,0,0,0-0.1,0c0,0,0,0-0.1,0c0,0,0,0-0.1,0c0,0,0,0-0.1,0c0,0,0,0-0.1,0c0,0,0,0,0,0c-0.1,0.1-0.1,0.1-0.2,0.2
					c0,0,0,0,0,0c0,0,0,0,0,0.1c0,0,0,0,0,0.1c0,0,0,0,0,0.1c0,0,0,0,0,0.1c0,0,0,0,0,0.1c0,0,0,0,0,0.1c0,0,0,0,0,0.1
					c0,0,0,0,0,0.1c0,0,0,0,0,0.1c0,0,0,0,0,0.1c0,0,0,0,0,0.1c0,0,0,0.1,0,0.1l0,12.4c0,0.8,0.6,1.4,1.4,1.4c0.8,0,1.4-0.6,1.4-1.4
					l0-9l31.8,31.8h2v-2l-31.8-31.8l9,0c0.8,0,1.4-0.6,1.4-1.4c0-0.4-0.2-0.8-0.4-1c-0.3-0.3-0.6-0.4-1-0.4h-12.4
					C636.4-176.1,636.3-176.1,636.2-176.1C636.3-176.1,636.3-176.1,636.2-176.1z"/>
			</g>
		</g>
	</g>
	<g>
		<g>
			<g>
				<path class="st0" d="M693.6-116.3C693.7-116.3,693.7-116.3,693.6-116.3c0.1,0,0.1,0,0.1,0c0,0,0,0,0.1,0c0,0,0,0,0.1,0
					c0,0,0,0,0.1,0c0,0,0,0,0.1,0c0,0,0,0,0.1,0c0,0,0,0,0.1,0c0,0,0,0,0.1,0c0,0,0,0,0.1,0c0,0,0,0,0,0c0.1-0.1,0.1-0.1,0.2-0.2
					c0,0,0,0,0,0c0,0,0,0,0-0.1c0,0,0,0,0-0.1c0,0,0,0,0-0.1c0,0,0,0,0-0.1c0,0,0,0,0-0.1c0,0,0,0,0-0.1c0,0,0,0,0-0.1
					c0,0,0,0,0-0.1c0,0,0,0,0-0.1c0,0,0,0,0-0.1c0,0,0,0,0-0.1c0,0,0-0.1,0-0.1l0-12.4c0-0.8-0.6-1.4-1.4-1.4
					c-0.8,0-1.4,0.6-1.4,1.4l0,9l-31.8-31.8h-2l0,2l31.8,31.8l-9,0c-0.8,0-1.4,0.6-1.4,1.4c0,0.4,0.2,0.8,0.4,1
					c0.3,0.3,0.6,0.4,1,0.4h12.4C693.5-116.3,693.5-116.3,693.6-116.3C693.6-116.3,693.6-116.3,693.6-116.3z"/>
			</g>
		</g>
	</g>
</g>
<text transform="matrix(1 0 0 1 590.5 -209.5859)" class="st0" style="font-family:'Futura-Medium'; font-size:26.3079px;">- - - - - - - - - - - </text>
<text transform="matrix(1 0 0 1 585.7021 -74.1963)" class="st0" style="font-family:'Futura-Medium'; font-size:26.3079px;">- - - - - - - - - - - </text>
<g>
	<g>
		<g>
			<g>
				<path class="st11" d="M21.2,228c0,0.1,0,0.2,0,0.3c0,0.1,0,0.2,0.1,0.3c0,0.1,0,0.1,0.1,0.2c0,0.1,0.1,0.2,0.1,0.2
					c0,0.1,0.1,0.1,0.1,0.2c0,0.1,0.1,0.1,0.1,0.2c0,0.1,0.1,0.1,0.1,0.2c0,0.1,0.1,0.1,0.1,0.2c0,0.1,0.1,0.1,0.1,0.2
					c0.1,0.1,0.1,0.2,0.2,0.2c0,0.1,0.1,0.1,0.1,0.2c0.2,0.3,0.4,0.5,0.7,0.7c0.1,0,0.1,0.1,0.2,0.1c0.1,0.1,0.1,0.1,0.2,0.2
					c0.1,0,0.1,0.1,0.2,0.1c0.1,0,0.1,0.1,0.2,0.1c0.1,0,0.1,0.1,0.2,0.1c0.1,0,0.1,0.1,0.2,0.1c0.1,0,0.1,0.1,0.2,0.1
					c0.1,0,0.2,0.1,0.2,0.1c0.1,0,0.1,0,0.2,0.1c0.1,0,0.2,0,0.3,0.1c0.1,0,0.2,0,0.3,0c0.1,0,0.1,0,0.2,0c0.2,0,0.3,0,0.5,0l43.6,0
					c2.8,0,5-2.2,5-5c0-2.8-2.2-5-5-5l-31.5,0l111.3-111.3v-7.1l-7.1,0L31.2,215.2l0-31.5c0-2.8-2.2-5-5-5c-1.4,0-2.6,0.6-3.5,1.5
					c-0.9,0.9-1.5,2.2-1.5,3.5v43.6c0,0.2,0,0.3,0,0.5C21.2,227.8,21.2,227.9,21.2,228z"/>
			</g>
		</g>
	</g>
	<g>
		<g>
			<g>
				<path class="st11" d="M230.7,26.9c0-0.1,0-0.2,0-0.3c0-0.1,0-0.2-0.1-0.3c0-0.1,0-0.1-0.1-0.2c0-0.1-0.1-0.2-0.1-0.2
					c0-0.1-0.1-0.1-0.1-0.2c0-0.1-0.1-0.1-0.1-0.2c0-0.1-0.1-0.1-0.1-0.2c0-0.1-0.1-0.1-0.1-0.2c0-0.1-0.1-0.1-0.1-0.2
					c-0.1-0.1-0.1-0.2-0.2-0.2c0-0.1-0.1-0.1-0.1-0.2c-0.2-0.3-0.4-0.5-0.7-0.7c-0.1,0-0.1-0.1-0.2-0.1c-0.1-0.1-0.1-0.1-0.2-0.2
					c-0.1,0-0.1-0.1-0.2-0.1c-0.1,0-0.1-0.1-0.2-0.1c-0.1,0-0.1-0.1-0.2-0.1c-0.1,0-0.1-0.1-0.2-0.1c-0.1,0-0.1-0.1-0.2-0.1
					c-0.1,0-0.2-0.1-0.2-0.1c-0.1,0-0.1,0-0.2-0.1c-0.1,0-0.2,0-0.3-0.1c-0.1,0-0.2,0-0.3,0c-0.1,0-0.1,0-0.2,0c-0.2,0-0.3,0-0.5,0
					l-43.6,0c-2.8,0-5,2.2-5,5c0,2.8,2.2,5,5,5l31.5,0L102.4,143.9v7.1l7.1,0L220.8,39.7l0,31.5c0,2.8,2.2,5,5,5
					c1.4,0,2.6-0.6,3.5-1.5c0.9-0.9,1.5-2.2,1.5-3.5V27.6c0-0.2,0-0.3,0-0.5C230.7,27,230.7,27,230.7,26.9z"/>
			</g>
		</g>
	</g>
	<g>
		<g>
			<g>
				<path class="st11" d="M25.4,21.6c-0.1,0-0.2,0-0.3,0c-0.1,0-0.2,0-0.3,0.1c-0.1,0-0.1,0-0.2,0.1c-0.1,0-0.2,0.1-0.2,0.1
					c-0.1,0-0.1,0.1-0.2,0.1c-0.1,0-0.1,0.1-0.2,0.1c-0.1,0-0.1,0.1-0.2,0.1c-0.1,0-0.1,0.1-0.2,0.1c-0.1,0-0.1,0.1-0.2,0.1
					c-0.1,0.1-0.2,0.1-0.2,0.2c-0.1,0-0.1,0.1-0.2,0.1c-0.3,0.2-0.5,0.4-0.7,0.7c0,0.1-0.1,0.1-0.1,0.2c-0.1,0.1-0.1,0.1-0.2,0.2
					c0,0.1-0.1,0.1-0.1,0.2c0,0.1-0.1,0.1-0.1,0.2c0,0.1-0.1,0.1-0.1,0.2c0,0.1-0.1,0.1-0.1,0.2c0,0.1-0.1,0.1-0.1,0.2
					c0,0.1-0.1,0.2-0.1,0.2c0,0.1,0,0.1-0.1,0.2c0,0.1,0,0.2-0.1,0.3c0,0.1,0,0.2,0,0.3c0,0.1,0,0.1,0,0.2c0,0.2,0,0.3,0,0.5l0,43.6
					c0,2.8,2.2,5,5,5c2.8,0,5-2.2,5-5l0-31.5l111.3,111.3h7.1l0-7.1L38.3,31.6l31.5,0c2.8,0,5-2.2,5-5c0-1.4-0.6-2.6-1.5-3.5
					c-0.9-0.9-2.2-1.5-3.5-1.5l-43.6,0c-0.2,0-0.3,0-0.5,0C25.6,21.6,25.5,21.6,25.4,21.6z"/>
			</g>
		</g>
	</g>
	<g>
		<g>
			<g>
				<path class="st11" d="M226.5,231.1c0.1,0,0.2,0,0.3,0c0.1,0,0.2,0,0.3-0.1c0.1,0,0.1,0,0.2-0.1c0.1,0,0.2-0.1,0.2-0.1
					c0.1,0,0.1-0.1,0.2-0.1c0.1,0,0.1-0.1,0.2-0.1c0.1,0,0.1-0.1,0.2-0.1c0.1,0,0.1-0.1,0.2-0.1c0.1,0,0.1-0.1,0.2-0.1
					c0.1-0.1,0.2-0.1,0.2-0.2c0.1,0,0.1-0.1,0.2-0.1c0.3-0.2,0.5-0.4,0.7-0.7c0-0.1,0.1-0.1,0.1-0.2c0.1-0.1,0.1-0.1,0.2-0.2
					c0-0.1,0.1-0.1,0.1-0.2c0-0.1,0.1-0.1,0.1-0.2c0-0.1,0.1-0.1,0.1-0.2c0-0.1,0.1-0.1,0.1-0.2c0-0.1,0.1-0.1,0.1-0.2
					c0-0.1,0.1-0.2,0.1-0.2c0-0.1,0-0.1,0.1-0.2c0-0.1,0-0.2,0.1-0.3c0-0.1,0-0.2,0-0.3c0-0.1,0-0.1,0-0.2c0-0.2,0-0.3,0-0.5l0-43.6
					c0-2.8-2.2-5-5-5c-2.8,0-5,2.2-5,5l0,31.5L109.5,102.7h-7.1l0,7.1l111.3,111.3l-31.5,0c-2.8,0-5,2.2-5,5c0,1.4,0.6,2.6,1.5,3.5
					c0.9,0.9,2.2,1.5,3.5,1.5h43.6c0.2,0,0.3,0,0.5,0C226.4,231.1,226.4,231.1,226.5,231.1z"/>
			</g>
		</g>
	</g>
</g>
<rect x="68" y="68.9" transform="matrix(0.7071 0.7071 -0.7071 0.7071 125.7462 -51.5782)" class="st7" width="114.2" height="114.2"/>
<g>
	<path class="st12" d="M168.8,124.6c0-1.7-0.2-3.3-0.5-5l-8.7-1.4l-2.9-8.2l5.8-6.6c-1.7-2.9-3.8-5.6-6.2-8l-7.8,3.9l-7.2-4.9
		l0.8-8.8c-3-1.3-6.1-2.2-9.4-2.8l-4.1,7.8l-8.7,0.2l-4.5-7.6c-3.3,0.8-6.5,1.9-9.5,3.4l1.3,8.7l-6.9,5.3l-8.1-3.5
		c-2.2,2.5-4.1,5.3-5.7,8.3l6.1,6.3l-2.5,8.3l-8.6,1.9c-0.2,1.7-0.2,3.5-0.2,5.3c0.1,1.6,0.2,3.2,0.4,4.8l8.7,1.5l2.9,8.2l-5.8,6.6
		c1.8,2.9,3.8,5.6,6.2,8l7.9-3.9l7.2,4.9l-0.8,8.8c3.1,1.3,6.3,2.3,9.7,2.9l4.1-7.8l8.7-0.2l4.5,7.6c3.3-0.8,6.5-1.9,9.5-3.4
		l-1.3-8.7l6.9-5.3l8.1,3.5c2.2-2.5,4.1-5.3,5.7-8.3l-6.2-6.2l2.4-8.4l8.6-1.9C168.8,128,168.9,126.3,168.8,124.6z M138.1,140.7
		c-8.1,7.1-20.5,6.4-27.7-1.8c-7.1-8.2-6.3-20.5,1.8-27.6c8.1-7.2,20.5-6.4,27.6,1.8C147,121.2,146.2,133.6,138.1,140.7z"/>
	<path class="st13" d="M146.7,107.1c-10.5-11.9-28.6-13.1-40.5-2.6c-11.9,10.5-13.1,28.6-2.6,40.5c10.4,11.9,28.6,13.1,40.5,2.6
		C156,137.1,157.1,118.9,146.7,107.1z M142.2,145.4c-10.7,9.4-27.1,8.4-36.5-2.4c-9.5-10.7-8.4-27.1,2.3-36.5
		c10.7-9.4,27.1-8.4,36.5,2.4C154,119.6,152.9,136,142.2,145.4z"/>
</g>
<g>
	<g>
		<path class="st14" d="M515.2,192.6c0-26.3-8.5-50.7-22.8-70.6l0,0c-0.2-0.3-0.5-0.7-0.7-1l0,0c-22.1-29.9-57.6-49.4-97.5-49.4
			c-12.8,0-25.2,2-36.8,5.7l0,0c-0.1,0-0.3,0.1-0.4,0.1c-24.4,7.9-45.4,23.4-60.3,43.6l0,0c-0.2,0.3-0.5,0.7-0.7,1v0
			c-14.3,19.9-22.8,44.3-22.8,70.6h3.2h20.1c0,0,0,0,0,0l0,0h3.1h13h39h85.3h39h13h3.1c0,0,0,0,0,0h20.1H515.2z"/>
		<path class="st14" d="M494.3,235.1H294c-11.6,0-20.9-9.4-20.9-20.9v-21.5h242.2v21.5C515.2,225.7,505.8,235.1,494.3,235.1z"/>
		<path class="st14" d="M276.2,217v-24.4h235.8V217c0,8.4-6.8,15.2-15.2,15.2H291.4C283,232.2,276.2,225.4,276.2,217z"/>
		<path class="st14" d="M347.5,192.6c4.3,0,8-3.1,8.9-7.3c3.7-17.5,19.2-30.6,37.8-30.6c18.6,0,34.1,13.1,37.8,30.6
			c0.9,4.2,4.6,7.3,8.9,7.3h74.4c0-66.8-54.3-121.1-121.1-121.1s-121.1,54.3-121.1,121.1H347.5z"/>
		<path class="st15" d="M343.1,192.6c6.5,0,12.2-4.3,14-10.5c4.8-15.9,19.5-27.4,36.9-27.4c17.4,0,32.1,11.6,36.9,27.4
			c1.9,6.2,7.6,10.5,14,10.5h59.9c3.9,0,7-3.3,6.8-7.2c-3.7-61.8-55-110.7-117.7-110.7s-114,49-117.7,110.7
			c-0.2,3.9,2.9,7.2,6.8,7.2H343.1z"/>
		<g>
			<g>
				<path class="st16" d="M296.3,192.7h55.2c4,0,7.4-2.8,8.2-6.6c1-5.1,3.1-9.9,6.1-14L315,135.1
					C303.2,151.3,296.3,171.2,296.3,192.7z"/>
				<path class="st17" d="M363.9,99.6l19.4,59.7c3.4-1.1,7.1-1.7,10.8-1.7c3.8,0,7.4,0.6,10.8,1.7l19.4-59.7
					c-9.5-3.1-19.7-4.8-30.2-4.8C383.6,94.8,373.4,96.5,363.9,99.6z"/>
				<path class="st18" d="M424.4,99.6L405,159.3c7.1,2.3,13.2,6.8,17.5,12.8l50.8-36.9C461.3,118.6,444.2,106,424.4,99.6z"/>
				<path class="st19" d="M315,135.1l50.8,36.9c4.3-5.9,10.4-10.4,17.5-12.8l-19.4-59.7C344.1,106,327,118.6,315,135.1z"/>
				<path class="st20" d="M422.5,172c3,4.1,5.1,8.8,6.1,14c0.7,3.9,4.2,6.6,8.2,6.6H492c0-21.5-6.9-41.4-18.7-57.5L422.5,172z"/>
				<defs>
					<filter id="Adobe_OpacityMaskFilter" filterUnits="userSpaceOnUse" x="296.3" y="94.8" width="195.7" height="97.8">
						<feFlood  style="flood-color:white;flood-opacity:1" result="back"/>
						<feBlend  in="SourceGraphic" in2="back" mode="normal"/>
					</filter>
				</defs>
				<mask maskUnits="userSpaceOnUse" x="296.3" y="94.8" width="195.7" height="97.8" id="SVGID_1_">
					<g class="st21">
						<defs>
							<filter id="Adobe_OpacityMaskFilter_1_" filterUnits="userSpaceOnUse" x="296.3" y="94.8" width="195.7" height="97.8">
								<feFlood  style="flood-color:white;flood-opacity:1" result="back"/>
								<feBlend  in="SourceGraphic" in2="back" mode="normal"/>
							</filter>
						</defs>
						<mask maskUnits="userSpaceOnUse" x="296.3" y="94.8" width="195.7" height="97.8" id="SVGID_1_">
							<g class="st22">
							</g>
						</mask>
						
							<radialGradient id="SVGID_2_" cx="393.7742" cy="210.5123" r="106.9264" gradientTransform="matrix(0.92 0 0 0.92 31.6 -0.8)" gradientUnits="userSpaceOnUse">
							<stop  offset="0" style="stop-color:#1A1A1A"/>
							<stop  offset="1" style="stop-color:#333333"/>
						</radialGradient>
						<path class="st23" d="M424.4,99.6c-9.5-3.1-19.7-4.8-30.2-4.8c-10.6,0-20.7,1.7-30.2,4.8c-19.8,6.4-36.9,19-48.9,35.6
							c-11.7,16.1-18.7,36-18.7,57.5h3.1c0-20.2,6.3-39.4,18.1-55.7c11.7-16.1,28.5-28.3,47.3-34.4c9.4-3.1,19.3-4.6,29.3-4.6
							c10,0,19.8,1.6,29.3,4.6c18.8,6.1,35.6,18.3,47.3,34.4c11.8,16.3,18.1,35.5,18.1,55.7h3.1c0-21.5-6.9-41.4-18.7-57.5
							C461.3,118.6,444.2,106,424.4,99.6z"/>
					</g>
				</mask>
				
					<radialGradient id="SVGID_3_" cx="393.7742" cy="210.5123" r="106.9264" gradientTransform="matrix(0.92 0 0 0.92 31.6 -0.8)" gradientUnits="userSpaceOnUse">
					<stop  offset="0.95" style="stop-color:#FFFFFF"/>
					<stop  offset="1" style="stop-color:#000000"/>
				</radialGradient>
				<path class="st24" d="M424.4,99.6c-9.5-3.1-19.7-4.8-30.2-4.8c-10.6,0-20.7,1.7-30.2,4.8c-19.8,6.4-36.9,19-48.9,35.6
					c-11.7,16.1-18.7,36-18.7,57.5h3.1c0-20.2,6.3-39.4,18.1-55.7c11.7-16.1,28.5-28.3,47.3-34.4c9.4-3.1,19.3-4.6,29.3-4.6
					c10,0,19.8,1.6,29.3,4.6c18.8,6.1,35.6,18.3,47.3,34.4c11.8,16.3,18.1,35.5,18.1,55.7h3.1c0-21.5-6.9-41.4-18.7-57.5
					C461.3,118.6,444.2,106,424.4,99.6z"/>
				<g>
					<g>
						<circle class="st20" cx="464.8" cy="171" r="13.9"/>
						<path class="st25" d="M464.8,156.5c-8,0-14.5,6.5-14.5,14.5c0,8,6.5,14.5,14.5,14.5c8,0,14.5-6.5,14.5-14.5
							C479.3,163,472.8,156.5,464.8,156.5z M464.8,184.3c-7.3,0-13.3-6-13.3-13.3c0-7.3,6-13.3,13.3-13.3c7.3,0,13.3,6,13.3,13.3
							C478.1,178.4,472.1,184.3,464.8,184.3z"/>
					</g>
					<g>
						<path class="st20" d="M456.6,163c-2,2.1-3.3,4.9-3.3,8.1L456.6,163z"/>
						<path class="st25" d="M456.1,162.5c-2.2,2.3-3.5,5.3-3.5,8.5c0,0.3,0.3,0.6,0.6,0.6c0.3,0,0.6-0.3,0.6-0.6
							c0-2.9,1.1-5.6,3.1-7.7c0.2-0.2,0.2-0.6,0-0.8C456.7,162.3,456.4,162.3,456.1,162.5z"/>
					</g>
					<g>
						<path class="st20" d="M476.4,171l-3.1,7.8C475.2,176.8,476.4,174,476.4,171z"/>
						<path class="st25" d="M476.4,170.4c-0.3,0-0.6,0.3-0.6,0.6c0,2.8-1,5.4-2.9,7.4c-0.2,0.2-0.2,0.6,0,0.8
							c0.1,0.1,0.3,0.2,0.4,0.2c0.2,0,0.3-0.1,0.4-0.2c2.1-2.2,3.2-5.2,3.2-8.2C476.9,170.7,476.7,170.4,476.4,170.4z"/>
					</g>
					<g>
						<circle class="st26" cx="460" cy="168.7" r="1.3"/>
						<circle class="st26" cx="469.6" cy="168.7" r="1.3"/>
						<path class="st27" d="M460,167.4c-0.7,0-1.3,0.6-1.3,1.3c0,0.1,0,0.1,0,0.2c0.1-0.6,0.6-1.1,1.3-1.1c0.7,0,1.2,0.5,1.3,1.1
							c0-0.1,0-0.1,0-0.2C461.3,168,460.7,167.4,460,167.4z"/>
						<path class="st27" d="M469.6,167.4c-0.7,0-1.3,0.6-1.3,1.3c0,0.1,0,0.1,0,0.2c0.1-0.6,0.6-1.1,1.3-1.1c0.7,0,1.2,0.5,1.3,1.1
							c0-0.1,0-0.1,0-0.2C470.9,168,470.4,167.4,469.6,167.4z"/>
					</g>
					<g>
						<path class="st26" d="M460,174.5c-0.6,1.6,0.6,3.4,2.6,3.7c1.5,0.2,2.9,0.2,4.4,0c2.1-0.2,3.2-2.1,2.6-3.7
							C466.5,175.5,463.1,175.5,460,174.5z"/>
						<path class="st27" d="M468.3,174.9c0,1.4-1.2,2.7-2.9,2.7c-1.4,0-2.8-0.1-4.2-0.4c-0.3-0.1-0.5-0.2-0.8-0.3
							c0.5,0.6,1.3,1.1,2.2,1.2c1.5,0.2,2.9,0.2,4.4,0c2.1-0.2,3.2-2.1,2.6-3.7C469.2,174.7,468.7,174.8,468.3,174.9z"/>
					</g>
				</g>
				<g>
					<g>
						<circle class="st18" cx="434.4" cy="134.8" r="13.9"/>
						<path class="st28" d="M434.4,120.3c-8,0-14.5,6.5-14.5,14.5c0,8,6.5,14.5,14.5,14.5c8,0,14.5-6.5,14.5-14.5
							C448.9,126.8,442.4,120.3,434.4,120.3z M434.4,148.1c-7.3,0-13.3-6-13.3-13.3c0-7.3,6-13.3,13.3-13.3c7.3,0,13.3,6,13.3,13.3
							C447.7,142.2,441.7,148.1,434.4,148.1z"/>
					</g>
					<g>
						<path class="st28" d="M425.7,126.3c-2.2,2.3-3.5,5.3-3.5,8.5c0,0.3,0.3,0.6,0.6,0.6c0.3,0,0.6-0.3,0.6-0.6
							c0-2.9,1.1-5.6,3.1-7.7c0.2-0.2,0.2-0.6,0-0.8C426.3,126.1,426,126.1,425.7,126.3z"/>
					</g>
					<g>
						<path class="st28" d="M445.9,134.2c-0.3,0-0.6,0.3-0.6,0.6c0,2.8-1,5.4-2.9,7.4c-0.2,0.2-0.2,0.6,0,0.8
							c0.1,0.1,0.3,0.2,0.4,0.2c0.2,0,0.3-0.1,0.4-0.2c2.1-2.2,3.2-5.2,3.2-8.2C446.5,134.5,446.3,134.2,445.9,134.2z"/>
					</g>
					<g>
						<circle class="st29" cx="429.6" cy="132.5" r="1.3"/>
						<circle class="st29" cx="439.2" cy="132.5" r="1.3"/>
						<path class="st30" d="M429.6,131.2c-0.7,0-1.3,0.6-1.3,1.3c0,0.1,0,0.1,0,0.2c0.1-0.6,0.6-1.1,1.3-1.1c0.7,0,1.2,0.5,1.3,1.1
							c0-0.1,0-0.1,0-0.2C430.9,131.8,430.3,131.2,429.6,131.2z"/>
						<path class="st30" d="M439.2,131.2c-0.7,0-1.3,0.6-1.3,1.3c0,0.1,0,0.1,0,0.2c0.1-0.6,0.6-1.1,1.3-1.1s1.2,0.5,1.3,1.1
							c0-0.1,0-0.1,0-0.2C440.5,131.8,440,131.2,439.2,131.2z"/>
					</g>
					<g>
						<path class="st29" d="M432.6,141.3h3.6c1.7,0,3-1.4,3-3h-9.7C429.6,140,430.9,141.3,432.6,141.3z"/>
						<path class="st30" d="M434.9,140.6h-3.6c-0.2,0-0.5,0-0.7-0.1c0.5,0.5,1.2,0.8,2,0.8h3.6c1.7,0,3-1.4,3-3h-1.4
							C437.5,139.6,436.3,140.6,434.9,140.6z"/>
					</g>
				</g>
				<g>
					<g>
						<circle class="st17" cx="393.5" cy="121.2" r="13.9"/>
						<path class="st31" d="M393.5,106.8c-8,0-14.5,6.5-14.5,14.5c0,8,6.5,14.5,14.5,14.5c8,0,14.5-6.5,14.5-14.5
							C408,113.3,401.5,106.8,393.5,106.8z M393.5,134.6c-7.3,0-13.3-6-13.3-13.3c0-7.3,6-13.3,13.3-13.3c7.3,0,13.3,6,13.3,13.3
							C406.9,128.6,400.9,134.6,393.5,134.6z"/>
					</g>
					<g>
						<path class="st31" d="M384.9,112.8c-2.2,2.3-3.5,5.3-3.5,8.5c0,0.3,0.3,0.6,0.6,0.6s0.6-0.3,0.6-0.6c0-2.9,1.1-5.6,3.1-7.7
							c0.2-0.2,0.2-0.6,0-0.8C385.5,112.5,385.1,112.5,384.9,112.8z"/>
					</g>
					<g>
						<path class="st31" d="M405.1,120.7c-0.3,0-0.6,0.3-0.6,0.6c0,2.8-1,5.4-2.9,7.4c-0.2,0.2-0.2,0.6,0,0.8
							c0.1,0.1,0.3,0.2,0.4,0.2c0.2,0,0.3-0.1,0.4-0.2c2.1-2.2,3.2-5.2,3.2-8.2C405.7,120.9,405.4,120.7,405.1,120.7z"/>
					</g>
					<g>
						<circle class="st32" cx="388.7" cy="118.9" r="1.3"/>
						<circle class="st32" cx="398.4" cy="118.9" r="1.3"/>
						<path class="st33" d="M388.7,117.6c-0.7,0-1.3,0.6-1.3,1.3c0,0.1,0,0.1,0,0.2c0.1-0.6,0.6-1.1,1.3-1.1c0.7,0,1.2,0.5,1.3,1.1
							c0-0.1,0-0.1,0-0.2C390,118.2,389.4,117.6,388.7,117.6z"/>
						<path class="st33" d="M398.4,117.6c-0.7,0-1.3,0.6-1.3,1.3c0,0.1,0,0.1,0,0.2c0.1-0.6,0.6-1.1,1.3-1.1c0.7,0,1.2,0.5,1.3,1.1
							c0-0.1,0-0.1,0-0.2C399.7,118.2,399.1,117.6,398.4,117.6z"/>
					</g>
					<g>
						<path class="st32" d="M396.9,124.7h-6.6c-0.8,0-1.5,0.7-1.5,1.5c0,0.8,0.7,1.5,1.5,1.5h6.6c0.8,0,1.5-0.7,1.5-1.5
							C398.4,125.4,397.7,124.7,396.9,124.7z"/>
						<path class="st33" d="M396.9,124.7h-6.6c-0.8,0-1.5,0.7-1.5,1.5c0,0.2,0,0.4,0.1,0.5c0.2-0.6,0.8-1,1.4-1h6.6
							c0.7,0,1.2,0.4,1.4,1c0.1-0.2,0.1-0.3,0.1-0.5C398.4,125.4,397.7,124.7,396.9,124.7z"/>
					</g>
				</g>
				<g>
					<g>
						<circle class="st19" cx="351.9" cy="135.8" r="13.9"/>
						<path class="st33" d="M351.9,121.3c-8,0-14.5,6.5-14.5,14.5c0,8,6.5,14.5,14.5,14.5c8,0,14.5-6.5,14.5-14.5
							C366.4,127.8,359.9,121.3,351.9,121.3z M351.9,149.1c-7.3,0-13.3-6-13.3-13.3c0-7.3,6-13.3,13.3-13.3c7.3,0,13.3,6,13.3,13.3
							C365.2,143.2,359.3,149.1,351.9,149.1z"/>
					</g>
					<g>
						<path class="st34" d="M343.3,127.3c-2.2,2.3-3.5,5.3-3.5,8.5c0,0.3,0.3,0.6,0.6,0.6c0.3,0,0.6-0.3,0.6-0.6
							c0-2.9,1.1-5.6,3.1-7.7c0.2-0.2,0.2-0.6,0-0.8C343.9,127.1,343.5,127.1,343.3,127.3z"/>
					</g>
					<g>
						<path class="st34" d="M363.5,135.2c-0.3,0-0.6,0.3-0.6,0.6c0,2.8-1,5.4-2.9,7.4c-0.2,0.2-0.2,0.6,0,0.8
							c0.1,0.1,0.3,0.2,0.4,0.2c0.2,0,0.3-0.1,0.4-0.2c2.1-2.2,3.2-5.2,3.2-8.2C364.1,135.5,363.8,135.2,363.5,135.2z"/>
					</g>
					<g>
						<circle class="st35" cx="347.1" cy="133.5" r="1.3"/>
						<circle class="st35" cx="356.8" cy="133.5" r="1.3"/>
						<path class="st36" d="M347.1,132.2c-0.7,0-1.3,0.6-1.3,1.3c0,0.1,0,0.1,0,0.2c0.1-0.6,0.6-1.1,1.3-1.1c0.7,0,1.2,0.5,1.3,1.1
							c0-0.1,0-0.1,0-0.2C348.4,132.8,347.8,132.2,347.1,132.2z"/>
						<path class="st36" d="M356.8,132.2c-0.7,0-1.3,0.6-1.3,1.3c0,0.1,0,0.1,0,0.2c0.1-0.6,0.6-1.1,1.3-1.1c0.7,0,1.2,0.5,1.3,1.1
							c0-0.1,0-0.1,0-0.2C358.1,132.8,357.5,132.2,356.8,132.2z"/>
					</g>
					<g>
						<path class="st35" d="M353.7,139.3h-3.6c-1.7,0-3,1.4-3,3h9.7C356.8,140.6,355.4,139.3,353.7,139.3z"/>
						<path class="st36" d="M350.1,139.3c-1.7,0-3,1.4-3,3h1.4c0.3-1.3,1.5-2.3,2.9-2.3h3.6c0.2,0,0.5,0,0.7,0.1
							c-0.5-0.5-1.2-0.8-2-0.8H350.1z"/>
					</g>
				</g>
				<g>
					<g>
						<circle class="st16" cx="323.5" cy="171" r="13.9"/>
						<path class="st37" d="M323.5,156.5c-8,0-14.5,6.5-14.5,14.5c0,8,6.5,14.5,14.5,14.5c8,0,14.5-6.5,14.5-14.5
							C338,163,331.5,156.5,323.5,156.5z M323.5,184.3c-7.3,0-13.3-6-13.3-13.3c0-7.3,6-13.3,13.3-13.3c7.3,0,13.3,6,13.3,13.3
							C336.8,178.4,330.8,184.3,323.5,184.3z"/>
					</g>
					<g>
						<path class="st37" d="M314.8,162.5c-2.2,2.3-3.5,5.3-3.5,8.5c0,0.3,0.3,0.6,0.6,0.6s0.6-0.3,0.6-0.6c0-2.9,1.1-5.6,3.1-7.7
							c0.2-0.2,0.2-0.6,0-0.8C315.4,162.3,315,162.3,314.8,162.5z"/>
					</g>
					<g>
						<path class="st37" d="M335,170.4c-0.3,0-0.6,0.3-0.6,0.6c0,2.8-1,5.4-2.9,7.4c-0.2,0.2-0.2,0.6,0,0.8c0.1,0.1,0.3,0.2,0.4,0.2
							c0.2,0,0.3-0.1,0.4-0.2c2.1-2.2,3.2-5.2,3.2-8.2C335.6,170.7,335.3,170.4,335,170.4z"/>
					</g>
					<g>
						<circle class="st38" cx="318.6" cy="168.7" r="1.3"/>
						<circle class="st38" cx="328.3" cy="168.7" r="1.3"/>
						<path class="st39" d="M318.6,167.4c-0.7,0-1.3,0.6-1.3,1.3c0,0.1,0,0.1,0,0.2c0.1-0.6,0.6-1.1,1.3-1.1c0.7,0,1.2,0.5,1.3,1.1
							c0-0.1,0-0.1,0-0.2C319.9,168,319.4,167.4,318.6,167.4z"/>
						<path class="st39" d="M328.3,167.4c-0.7,0-1.3,0.6-1.3,1.3c0,0.1,0,0.1,0,0.2c0.1-0.6,0.6-1.1,1.3-1.1c0.7,0,1.2,0.5,1.3,1.1
							c0-0.1,0-0.1,0-0.2C329.6,168,329,167.4,328.3,167.4z"/>
					</g>
					<g>
						<path class="st38" d="M325.7,173.9c-1.5-0.2-2.9-0.2-4.4,0c-2.1,0.2-3.2,2.1-2.6,3.7c3.1-1,6.5-1,9.7,0
							C328.9,176,327.7,174.1,325.7,173.9z"/>
						<path class="st39" d="M325.7,173.9c-1.5-0.2-2.9-0.2-4.4,0c-2.1,0.2-3.2,2.1-2.6,3.7c0.5-0.1,0.9-0.3,1.4-0.4
							c0-1.4,1.2-2.7,2.9-2.7c1.4,0,2.8,0.1,4.2,0.4c0.3,0.1,0.5,0.2,0.8,0.3C327.4,174.4,326.6,174,325.7,173.9z"/>
					</g>
				</g>
			</g>
		</g>
		<g>
			<g>
				<path class="st40" d="M379.5,84.9c0,0.3,0,0.5-0.1,0.7c-0.1,0.2-0.2,0.2-0.4,0.3c-0.2,0-0.4,0-0.5-0.1c-0.1-0.1-0.2-0.3-0.3-0.6
					c-0.2-1.5-0.4-2.3-0.6-3.8c0-0.3,0-0.5,0.1-0.6c0.1-0.1,0.2-0.2,0.4-0.3c0.1,0,0.3,0,0.4,0c0.1,0,0.2,0.1,0.4,0.3
					c1.1,1,1.7,1.6,2.7,2.7c-0.1-1-0.2-1.5-0.3-2.5c0-0.3,0-0.5,0.1-0.7c0.1-0.2,0.2-0.2,0.5-0.3c0.2,0,0.4,0,0.5,0.2
					c0.1,0.1,0.2,0.3,0.2,0.6c0.2,1.6,0.3,2.3,0.4,3.9c0,0.3,0,0.5-0.1,0.6s-0.2,0.2-0.4,0.2c-0.1,0-0.3,0-0.4-0.1
					c-0.1-0.1-0.2-0.2-0.4-0.3c-1-1.1-1.6-1.6-2.6-2.6C379.3,83.4,379.3,83.9,379.5,84.9z"/>
				<path class="st40" d="M383.5,82.5c-0.1-0.8,0.1-1.6,0.6-2.1c0.5-0.6,1.1-0.9,2-1c0.8-0.1,1.5,0.2,2.1,0.7c0.5,0.5,0.8,1.2,0.9,2
					c0,0.9-0.2,1.5-0.6,2.1c-0.5,0.5-1.1,0.8-1.9,0.9c-0.8,0.1-1.5-0.1-2-0.6C383.9,84,383.6,83.3,383.5,82.5z M384.9,82.4
					c0,0.5,0.2,0.9,0.5,1.2c0.3,0.3,0.6,0.4,1,0.4c0.4,0,0.7-0.2,0.9-0.5c0.2-0.3,0.3-0.7,0.3-1.2c0-0.5-0.2-0.9-0.4-1.2
					c-0.3-0.3-0.6-0.4-1-0.4c-0.4,0-0.7,0.2-1,0.5C384.9,81.4,384.8,81.9,384.9,82.4z"/>
				<path class="st40" d="M390.9,82.6c0,0.5,0,0.8,0,1.3c0,0.3,0,0.5-0.1,0.7c-0.1,0.1-0.2,0.2-0.5,0.2c-0.2,0-0.4-0.1-0.5-0.2
					c-0.1-0.1-0.2-0.4-0.2-0.6c-0.1-1.5-0.1-2.2-0.1-3.7c0-0.3,0-0.6,0.2-0.7c0.1-0.1,0.4-0.2,0.7-0.2c0.4,0,0.6,0,1,0
					c0.7,0,1.2,0.1,1.6,0.4c0.4,0.3,0.6,0.7,0.6,1.2c0,0.4-0.1,0.7-0.4,1c-0.2,0.3-0.6,0.4-1,0.5c0.4,0.4,0.6,0.6,1,1.1
					c0.1,0.1,0.2,0.3,0.3,0.4c0.1,0.1,0.1,0.2,0.1,0.3c0,0.2-0.1,0.3-0.2,0.4c-0.1,0.1-0.3,0.2-0.4,0.2c-0.1,0-0.2,0-0.3-0.1
					c-0.1-0.1-0.2-0.2-0.4-0.3C391.8,83.6,391.5,83.3,390.9,82.6z M390.9,81.8c0.2,0,0.4,0,0.6,0c0.3,0,0.5-0.1,0.6-0.2
					c0.1-0.1,0.2-0.3,0.2-0.5c0-0.2-0.1-0.4-0.2-0.5c-0.1-0.1-0.3-0.2-0.6-0.2c-0.2,0-0.4,0-0.6,0C390.9,81,390.9,81.2,390.9,81.8z"
					/>
				<path class="st40" d="M394,83.7c0.3-1.5,0.4-2.2,0.7-3.7c0.1-0.3,0.2-0.5,0.3-0.6c0.1-0.1,0.3-0.2,0.6-0.2
					c0.2,0,0.4,0.1,0.6,0.2c0.1,0.1,0.2,0.3,0.3,0.6c0.3,1.3,0.5,1.9,0.7,3.2c0.4-1.3,0.5-1.9,0.9-3.2c0.1-0.2,0.2-0.4,0.3-0.5
					c0.2-0.1,0.3-0.2,0.6-0.2c0.3,0,0.5,0.1,0.6,0.2c0.1,0.1,0.2,0.4,0.3,0.7c0.2,1.5,0.2,2.2,0.4,3.7c0,0.1,0,0.1,0,0.2
					c0,0.1,0,0.1,0,0.1c0,0.2-0.1,0.3-0.2,0.5c-0.1,0.1-0.3,0.2-0.5,0.1c-0.2,0-0.3-0.1-0.4-0.2c-0.1-0.1-0.1-0.3-0.2-0.5
					c-0.1-1.3-0.1-1.9-0.2-3.2c-0.4,1.3-0.6,2.2-0.8,2.7c-0.2,0.5-0.3,0.8-0.4,1c-0.1,0.1-0.1,0.1-0.2,0.2c-0.1,0-0.2,0-0.3,0
					c-0.2,0-0.4-0.1-0.5-0.2c-0.1-0.1-0.2-0.3-0.2-0.5c-0.3-1.3-0.4-2-0.7-3.3c-0.2,1.3-0.3,1.9-0.5,3.1c0,0.3-0.1,0.5-0.2,0.6
					c-0.1,0.1-0.3,0.2-0.4,0.2c-0.2,0-0.3-0.1-0.4-0.2c-0.1-0.1-0.2-0.3-0.2-0.5c0,0,0-0.1,0-0.2C394,83.9,394,83.8,394,83.7z"/>
				<path class="st40" d="M401.8,84c-0.1,0.2-0.1,0.3-0.2,0.5c-0.1,0.2-0.2,0.3-0.3,0.4c-0.1,0.1-0.2,0.1-0.4,0.1
					c-0.2,0-0.3-0.1-0.4-0.2s-0.1-0.3-0.1-0.4c0-0.1,0-0.1,0-0.2c0-0.1,0-0.1,0.1-0.2c0.7-1.5,1-2.2,1.7-3.7
					c0.1-0.3,0.3-0.5,0.5-0.6c0.2-0.1,0.4-0.2,0.6-0.1c0.2,0,0.4,0.1,0.6,0.2c0.2,0.1,0.3,0.3,0.3,0.6c0.4,1.6,0.6,2.4,1,4
					c0,0.1,0,0.2,0,0.2c0,0.1,0,0.1,0,0.2c0,0.2-0.1,0.3-0.2,0.4c-0.1,0.1-0.3,0.1-0.5,0.1c-0.2,0-0.3-0.1-0.4-0.2
					c-0.1-0.1-0.2-0.3-0.2-0.5c0-0.2-0.1-0.3-0.1-0.5C403,84.1,402.6,84.1,401.8,84z M402.3,82.9c0.5,0,0.8,0.1,1.3,0.1
					c-0.2-0.8-0.3-1.2-0.4-2C402.8,81.8,402.6,82.1,402.3,82.9z"/>
				<path class="st40" d="M406.2,80.9c0-0.3,0.1-0.5,0.2-0.6c0.1-0.1,0.3-0.2,0.5-0.2c0.2,0,0.4,0.1,0.5,0.3
					c0.1,0.2,0.1,0.4,0.1,0.7c-0.2,1.4-0.3,2-0.5,3.4c0.4,0.1,0.6,0.1,1,0.1c0.3,0,0.5,0.1,0.6,0.2c0.1,0.1,0.2,0.3,0.1,0.5
					c0,0.2-0.1,0.3-0.3,0.4c-0.2,0.1-0.4,0.1-0.7,0c-0.6-0.1-0.9-0.1-1.4-0.2c-0.3,0-0.5-0.1-0.6-0.2c-0.1-0.1-0.1-0.3-0.1-0.6
					C405.9,83.1,406,82.4,406.2,80.9z"/>
			</g>
		</g>
		<g>
			<g>
				<path class="st40" d="M451.6,99.1c-0.2-0.1-0.2-0.1-0.4-0.2c-0.3-0.1-0.4-0.3-0.5-0.4c-0.1-0.1-0.1-0.3,0-0.5
					c0.1-0.2,0.2-0.3,0.4-0.3c0.2,0,0.4,0.1,0.7,0.2c0.3,0.2,0.5,0.3,0.8,0.5c0.3,0.2,0.4,0.3,0.5,0.5c0.1,0.2,0,0.4-0.1,0.6
					c-0.4,0.7-0.9,1.1-1.5,1.3c-0.6,0.2-1.3,0.1-2-0.3c-0.7-0.4-1.1-0.9-1.3-1.6c-0.2-0.7-0.1-1.4,0.2-2.2c0.4-0.8,0.9-1.3,1.6-1.5
					c0.7-0.2,1.5-0.1,2.3,0.3c0.5,0.3,0.9,0.6,1.2,1c0.3,0.4,0.3,0.7,0.2,1c-0.1,0.1-0.2,0.2-0.3,0.3c-0.2,0-0.3,0-0.4,0
					c-0.1,0-0.2-0.2-0.4-0.5c-0.2-0.3-0.4-0.5-0.7-0.7c-0.4-0.2-0.8-0.2-1.1-0.1c-0.4,0.1-0.7,0.4-0.9,0.9c-0.2,0.5-0.3,0.9-0.2,1.3
					c0.1,0.4,0.3,0.7,0.7,0.9c0.3,0.2,0.6,0.2,0.8,0.1C451.2,99.5,451.4,99.4,451.6,99.1z"/>
				<path class="st40" d="M453.4,99.4c0.4-0.7,1-1.2,1.7-1.4c0.7-0.2,1.4,0,2.2,0.4c0.7,0.5,1.2,1.1,1.3,1.8c0.1,0.7,0,1.4-0.5,2.1
					c-0.5,0.7-1.1,1.1-1.8,1.3c-0.7,0.2-1.4,0-2-0.4c-0.7-0.4-1.1-1-1.2-1.7C452.9,100.9,453,100.2,453.4,99.4z M454.6,100.2
					c-0.3,0.4-0.4,0.8-0.3,1.2c0.1,0.4,0.2,0.7,0.6,0.9c0.3,0.2,0.7,0.3,1.1,0.1c0.4-0.1,0.7-0.4,1-0.8c0.3-0.4,0.4-0.8,0.4-1.2
					c0-0.4-0.2-0.7-0.6-0.9c-0.4-0.2-0.7-0.3-1.1-0.2C455.2,99.4,454.9,99.7,454.6,100.2z"/>
				<path class="st40" d="M458.4,102.7c0.5-0.7,1.1-1.1,1.8-1.2c0.7-0.1,1.4,0.1,2.1,0.6c0.7,0.5,1.1,1.2,1.1,1.9
					c0.1,0.7-0.2,1.4-0.7,2.1c-0.5,0.7-1.2,1-1.9,1.1c-0.7,0.1-1.4-0.1-2-0.6c-0.6-0.5-1-1.1-1.1-1.8
					C457.8,104.1,457.9,103.4,458.4,102.7z M459.6,103.5c-0.3,0.4-0.4,0.8-0.4,1.2s0.2,0.7,0.5,0.9c0.3,0.2,0.7,0.3,1,0.2
					c0.4-0.1,0.7-0.3,1-0.7c0.3-0.4,0.5-0.8,0.5-1.2c0-0.4-0.2-0.7-0.5-1c-0.3-0.3-0.7-0.3-1.1-0.2
					C460.2,102.8,459.9,103.1,459.6,103.5z"/>
				<path class="st40" d="M466.6,105.7c0.3,0.2,0.5,0.5,0.7,0.7c0.2,0.2,0.3,0.5,0.4,0.7c0.1,0.4,0.1,0.9,0,1.3
					c-0.1,0.4-0.3,0.8-0.7,1.2c-0.6,0.6-1.2,0.9-1.9,1c-0.7,0-1.3-0.2-1.9-0.8c-0.3-0.3-0.5-0.4-0.8-0.7c-0.2-0.2-0.4-0.4-0.4-0.6
					c0-0.2,0.1-0.4,0.3-0.6c1-1.1,1.4-1.7,2.4-2.9c0.2-0.3,0.4-0.4,0.6-0.4c0.2,0,0.4,0.1,0.7,0.3
					C466.1,105.3,466.3,105.4,466.6,105.7z M463.3,108.5c0.2,0.1,0.3,0.2,0.4,0.4c0.4,0.3,0.7,0.5,1.1,0.5c0.4,0,0.7-0.2,1.1-0.6
					c0.3-0.4,0.5-0.7,0.5-1.1c0-0.4-0.2-0.7-0.6-1.1c-0.2-0.2-0.3-0.2-0.4-0.4C464.6,107.1,464.2,107.5,463.3,108.5z"/>
			</g>
		</g>
		<g>
			<g>
				<path class="st40" d="M324.7,110.3c-0.2,0.2-0.4,0.3-0.6,0.3c-0.2,0-0.3-0.1-0.6-0.3c-1.1-1.1-1.6-1.6-2.7-2.6
					c-0.2-0.2-0.3-0.4-0.3-0.6c0-0.2,0.1-0.4,0.4-0.7c0.3-0.3,0.5-0.5,0.8-0.8c0.4-0.4,0.9-0.6,1.3-0.7c0.4,0,0.7,0.1,1,0.4
					c0.2,0.2,0.3,0.4,0.3,0.6c0,0.2,0,0.4-0.1,0.7c0.3-0.2,0.7-0.3,1-0.2c0.3,0,0.6,0.2,0.8,0.5c0.3,0.4,0.5,0.8,0.4,1.2
					c-0.1,0.4-0.3,0.9-0.8,1.3C325.3,109.8,325.1,110,324.7,110.3z M322.8,107.6c0.2-0.2,0.2-0.2,0.4-0.4c0.1-0.1,0.2-0.3,0.3-0.4
					c0-0.2,0-0.3-0.1-0.4c-0.1-0.1-0.2-0.2-0.4-0.2c-0.2,0-0.3,0.1-0.5,0.2c-0.2,0.2-0.2,0.2-0.4,0.4
					C322.3,107.2,322.5,107.3,322.8,107.6z M324.3,109.3c0.2-0.2,0.3-0.3,0.5-0.4c0.2-0.2,0.3-0.4,0.4-0.5c0-0.2,0-0.3-0.1-0.5
					c-0.1-0.2-0.3-0.2-0.5-0.2c-0.2,0-0.4,0.1-0.6,0.4c-0.2,0.2-0.3,0.3-0.5,0.4C323.8,108.7,324,108.9,324.3,109.3z"/>
				<path class="st40" d="M327.7,106.4c0.1,0.2,0.1,0.3,0.2,0.5c0.1,0.2,0.1,0.3,0.1,0.5c0,0.1-0.1,0.2-0.2,0.3
					c-0.1,0.1-0.3,0.2-0.4,0.1c-0.2,0-0.3-0.1-0.4-0.2c0-0.1-0.1-0.1-0.1-0.2c0-0.1-0.1-0.1-0.1-0.2c-0.5-1.5-0.8-2.3-1.2-3.9
					c-0.1-0.3-0.1-0.5,0-0.7c0.1-0.2,0.2-0.4,0.4-0.5c0.2-0.1,0.4-0.2,0.6-0.2c0.2,0,0.4,0.1,0.6,0.2c1.4,0.9,2.1,1.4,3.4,2.3
					c0.1,0.1,0.1,0.1,0.2,0.1c0,0,0.1,0.1,0.1,0.1c0.1,0.1,0.1,0.3,0.1,0.4c0,0.2-0.1,0.3-0.3,0.4c-0.1,0.1-0.3,0.1-0.4,0.1
					c-0.1,0-0.3-0.1-0.5-0.2c-0.2-0.1-0.2-0.2-0.4-0.3C328.6,105.6,328.3,105.9,327.7,106.4z M327.3,105.3c0.4-0.3,0.6-0.5,1.1-0.8
					c-0.7-0.5-1-0.7-1.7-1.2C326.9,104.1,327,104.5,327.3,105.3z"/>
				<path class="st40" d="M330.2,99.3c0.3-0.2,0.6-0.3,0.9-0.4s0.6-0.1,0.8-0.1c0.5,0,0.9,0.1,1.3,0.4c0.4,0.2,0.7,0.6,0.9,1
					c0.4,0.7,0.5,1.5,0.3,2.1c-0.2,0.7-0.6,1.2-1.3,1.6c-0.4,0.2-0.6,0.3-1,0.6c-0.3,0.2-0.5,0.2-0.6,0.2c-0.2,0-0.3-0.2-0.5-0.4
					c-0.8-1.3-1.2-1.9-2.1-3.1c-0.2-0.3-0.2-0.5-0.2-0.7c0.1-0.2,0.2-0.4,0.5-0.6C329.7,99.7,329.8,99.5,330.2,99.3z M331.9,103.3
					c0.2-0.1,0.3-0.2,0.5-0.3c0.4-0.3,0.7-0.6,0.8-0.9s0-0.8-0.3-1.2c-0.2-0.4-0.5-0.7-0.9-0.8c-0.4-0.1-0.8,0-1.2,0.3
					c-0.2,0.1-0.3,0.2-0.5,0.3C330.9,101.7,331.2,102.2,331.9,103.3z"/>
			</g>
		</g>
		<g>
			<g>
				<path class="st40" d="M287.5,172c-1.7,0.3-2.6,0.5-4.4,0.9c-0.1,0-0.1,0-0.2,0c-0.1,0-0.1,0-0.2,0c-0.2,0-0.3-0.1-0.4-0.3
					c-0.1-0.1-0.1-0.3-0.1-0.5c0-0.1,0.1-0.2,0.2-0.3c0.1-0.1,0.2-0.1,0.4-0.2c1.3-0.2,1.9-0.4,3.2-0.6c-1.1-0.7-1.6-1-2.7-1.7
					c-0.2-0.1-0.3-0.2-0.4-0.3c-0.1-0.1-0.1-0.2,0-0.4c0-0.2,0.1-0.3,0.2-0.4c0.1-0.1,0.3-0.1,0.4-0.1c0.1,0,0.1,0,0.2,0.1
					c0.1,0,0.1,0.1,0.2,0.1c1.4,1,2.2,1.5,3.6,2.5c0.2,0.1,0.3,0.2,0.3,0.3c0.1,0.1,0.1,0.2,0,0.4c0,0.1-0.1,0.2-0.2,0.3
					C287.8,171.9,287.7,171.9,287.5,172z"/>
				<path class="st40" d="M283.8,165.4c0.1-0.3,0.2-0.5,0.3-0.6c0.1-0.1,0.3-0.2,0.5-0.1c0.2,0,0.3,0.2,0.4,0.3c0.1,0.2,0,0.4,0,0.7
					c-0.1,0.4-0.2,0.6-0.2,1c0.4,0.1,0.6,0.1,0.9,0.2c0.1-0.3,0.1-0.5,0.2-0.9c0.1-0.3,0.2-0.5,0.3-0.6c0.1-0.1,0.3-0.2,0.5-0.1
					c0.2,0,0.3,0.2,0.4,0.3c0.1,0.2,0,0.4,0,0.7c-0.1,0.3-0.1,0.5-0.2,0.9c0.4,0.1,0.6,0.1,1,0.2c0.1-0.4,0.1-0.6,0.3-1
					c0.1-0.3,0.2-0.5,0.3-0.6c0.1-0.1,0.3-0.2,0.5-0.1c0.2,0,0.3,0.2,0.4,0.3c0.1,0.2,0,0.4,0,0.7c-0.1,0.6-0.2,0.8-0.3,1.4
					c-0.1,0.3-0.2,0.5-0.3,0.6c-0.1,0.1-0.3,0.1-0.6,0c-1.5-0.3-2.2-0.5-3.7-0.8c-0.3-0.1-0.5-0.2-0.6-0.3c-0.1-0.2-0.1-0.4,0-0.7
					C283.6,166.2,283.7,165.9,283.8,165.4z"/>
				<path class="st40" d="M287.7,163.4c0.5,0.1,0.8,0.2,1.3,0.4c0.3,0.1,0.5,0.2,0.6,0.3c0.1,0.1,0.1,0.3,0.1,0.5
					c-0.1,0.2-0.2,0.3-0.3,0.4c-0.2,0.1-0.4,0.1-0.7,0c-1.4-0.4-2.2-0.6-3.6-1c-0.3-0.1-0.5-0.2-0.6-0.4c-0.1-0.2-0.1-0.4,0-0.7
					c0.1-0.4,0.2-0.6,0.3-1c0.2-0.6,0.5-1.1,0.9-1.4c0.4-0.3,0.8-0.3,1.3-0.2c0.4,0.1,0.6,0.3,0.8,0.6c0.2,0.3,0.2,0.7,0.2,1.1
					c0.5-0.3,0.8-0.4,1.3-0.6c0.2-0.1,0.3-0.1,0.4-0.2c0.1,0,0.2,0,0.3,0c0.2,0,0.3,0.1,0.3,0.3c0.1,0.1,0.1,0.3,0,0.4
					c0,0.1-0.1,0.2-0.2,0.3c-0.1,0.1-0.2,0.2-0.4,0.2C289,162.8,288.6,163,287.7,163.4z M287,163.2c0.1-0.2,0.1-0.3,0.2-0.6
					c0.1-0.2,0.1-0.5,0-0.6c-0.1-0.2-0.2-0.3-0.4-0.3c-0.2-0.1-0.4,0-0.5,0.1c-0.1,0.1-0.3,0.3-0.3,0.5c-0.1,0.2-0.1,0.3-0.2,0.6
					C286.2,162.9,286.4,163,287,163.2z"/>
				<path class="st40" d="M286.8,156.8c-0.1-0.2-0.2-0.3-0.2-0.4c0-0.1,0-0.3,0-0.4c0-0.1,0.1-0.2,0.3-0.3c0.1-0.1,0.3-0.1,0.4,0
					c0.1,0.1,0.3,0.2,0.5,0.4c0,0,0,0,0,0c0.5,0.7,0.8,1.1,1.3,1.8c0.7,0.2,1,0.3,1.6,0.5c0.3,0.1,0.5,0.2,0.6,0.4
					c0.1,0.1,0.1,0.3,0.1,0.5c-0.1,0.2-0.2,0.3-0.3,0.4c-0.2,0.1-0.4,0-0.7-0.1c-0.7-0.2-1-0.3-1.6-0.5c-0.8,0.3-1.2,0.4-2.1,0.7
					c0,0,0,0,0,0c-0.3,0.1-0.5,0.1-0.7,0.1c-0.1,0-0.2-0.1-0.3-0.3c-0.1-0.1-0.1-0.3,0-0.5c0-0.1,0.1-0.2,0.2-0.3
					c0.1-0.1,0.3-0.2,0.4-0.2c0.6-0.2,0.9-0.3,1.5-0.5C287.3,157.7,287.1,157.4,286.8,156.8z"/>
				<path class="st40" d="M293.1,154c-0.1,0.3-0.2,0.5-0.4,0.6c-0.1,0.1-0.4,0.1-0.6,0c-1.4-0.5-2.1-0.8-3.5-1.3
					c-0.3-0.1-0.5-0.3-0.6-0.4c-0.1-0.2,0-0.4,0.1-0.7c0.2-0.4,0.2-0.6,0.4-1c0.2-0.5,0.5-0.9,0.8-1.1c0.3-0.2,0.7-0.2,1.1,0
					c0.2,0.1,0.4,0.2,0.5,0.4c0.1,0.2,0.2,0.4,0.2,0.6c0.2-0.3,0.5-0.5,0.8-0.6c0.3-0.1,0.6-0.1,0.9,0.1c0.5,0.2,0.8,0.5,0.9,0.9
					c0.1,0.4,0.1,0.9-0.1,1.5C293.4,153.3,293.3,153.5,293.1,154z M290.2,152.4c0.1-0.2,0.1-0.3,0.2-0.5c0.1-0.2,0.1-0.3,0-0.5
					c0-0.1-0.1-0.2-0.3-0.3c-0.2-0.1-0.3-0.1-0.4,0c-0.1,0.1-0.2,0.2-0.3,0.4c-0.1,0.2-0.1,0.3-0.2,0.5
					C289.6,152.2,289.8,152.2,290.2,152.4z M292.3,153.2c0.1-0.2,0.1-0.3,0.2-0.6c0.1-0.3,0.1-0.5,0.1-0.6c0-0.2-0.2-0.3-0.3-0.4
					c-0.2-0.1-0.4-0.1-0.5,0c-0.1,0.1-0.3,0.3-0.4,0.6c-0.1,0.2-0.1,0.3-0.2,0.6C291.6,152.9,291.8,153,292.3,153.2z"/>
				<path class="st40" d="M294,149.2c0.2,0.2,0.3,0.2,0.4,0.4c0.1,0.1,0.2,0.3,0.3,0.4c0,0.1,0,0.3,0,0.4c-0.1,0.2-0.2,0.3-0.3,0.3
					c-0.1,0.1-0.3,0.1-0.5,0c-0.1,0-0.1-0.1-0.2-0.1c-0.1,0-0.1-0.1-0.1-0.1c-1.2-1.1-1.8-1.7-2.9-2.8c-0.2-0.2-0.3-0.4-0.4-0.6
					c-0.1-0.2,0-0.4,0.1-0.6c0.1-0.2,0.2-0.4,0.4-0.4c0.2-0.1,0.4-0.1,0.6-0.1c1.6,0.1,2.5,0.2,4.1,0.4c0.1,0,0.2,0,0.2,0
					c0.1,0,0.1,0,0.2,0.1c0.2,0.1,0.3,0.2,0.3,0.3c0,0.1,0,0.3,0,0.5c-0.1,0.1-0.2,0.2-0.3,0.3c-0.1,0.1-0.3,0.1-0.5,0
					c-0.2,0-0.3,0-0.5-0.1C294.5,148.1,294.3,148.4,294,149.2z M293.1,148.4c0.2-0.5,0.3-0.7,0.5-1.2c-0.8-0.1-1.2-0.1-2.1-0.2
					C292.2,147.5,292.5,147.8,293.1,148.4z"/>
				<path class="st40" d="M292.5,142c0.2-0.3,0.3-0.6,0.5-0.8c0.2-0.2,0.4-0.4,0.6-0.5c0.4-0.2,0.8-0.3,1.2-0.3
					c0.5,0,0.9,0.1,1.3,0.3c0.7,0.4,1.2,0.9,1.4,1.6c0.2,0.7,0.1,1.3-0.2,2.1c-0.2,0.4-0.3,0.6-0.5,1c-0.1,0.3-0.3,0.5-0.4,0.5
					c-0.1,0.1-0.4,0-0.6-0.1c-1.3-0.7-2-1-3.4-1.6c-0.3-0.1-0.5-0.3-0.5-0.5c-0.1-0.2,0-0.4,0.1-0.7
					C292.3,142.6,292.4,142.4,292.5,142z M296.1,144.5c0.1-0.2,0.2-0.3,0.3-0.5c0.2-0.4,0.3-0.8,0.1-1.2c-0.1-0.3-0.4-0.6-0.9-0.9
					c-0.4-0.2-0.8-0.3-1.2-0.2c-0.3,0.1-0.6,0.4-0.9,0.9c-0.1,0.2-0.2,0.3-0.3,0.5C294.4,143.6,294.9,143.9,296.1,144.5z"/>
			</g>
		</g>
		<g>
			<g>
				<path class="st40" d="M496,143.9c0.1,0.3,0.2,0.5,0.2,0.7c0,0.2-0.1,0.3-0.3,0.4c-0.2,0.1-0.3,0.1-0.5,0
					c-0.1-0.1-0.3-0.3-0.4-0.6c-0.2-0.4-0.3-0.6-0.5-0.9c-0.3,0.2-0.5,0.3-0.9,0.4c0.2,0.3,0.2,0.5,0.4,0.8c0.1,0.3,0.2,0.5,0.2,0.7
					c0,0.2-0.1,0.3-0.3,0.4c-0.2,0.1-0.3,0.1-0.5,0s-0.3-0.3-0.4-0.5c-0.2-0.3-0.2-0.5-0.4-0.8c-0.4,0.2-0.5,0.3-0.9,0.5
					c0.2,0.4,0.3,0.6,0.5,0.9c0.1,0.3,0.2,0.5,0.2,0.7c0,0.2-0.1,0.3-0.3,0.4c-0.2,0.1-0.3,0.1-0.5,0c-0.1-0.1-0.3-0.3-0.4-0.5
					c-0.3-0.5-0.4-0.8-0.6-1.3c-0.1-0.3-0.2-0.5-0.2-0.7c0-0.2,0.2-0.3,0.5-0.4c1.3-0.7,2-1,3.3-1.7c0.3-0.2,0.5-0.2,0.7-0.1
					s0.3,0.2,0.5,0.5C495.6,143.2,495.8,143.4,496,143.9z"/>
				<path class="st40" d="M492.5,148.1c-0.2,0-0.4-0.1-0.5-0.2c-0.1-0.1-0.2-0.1-0.2-0.2c-0.1-0.1-0.1-0.3,0-0.4
					c0.1-0.2,0.1-0.3,0.3-0.3c0.1,0,0.2-0.1,0.3-0.1c0.1,0,0.2,0,0.4,0c0.9,0.2,1.3,0.3,2.2,0.4c0.3-0.6,0.5-0.9,0.8-1.5
					c0.1-0.2,0.2-0.3,0.2-0.4s0.1-0.1,0.2-0.2c0.1-0.1,0.3-0.1,0.4,0c0.1,0.1,0.3,0.2,0.3,0.3c0,0.1,0.1,0.2,0,0.3
					c0,0.1-0.1,0.3-0.2,0.5c-0.3,0.5-0.4,0.7-0.6,1.2c0.5,0.1,0.8,0.2,1.3,0.3c0.2,0,0.3,0.1,0.5,0.2c0.1,0.1,0.2,0.2,0.2,0.3
					c0.1,0.1,0.1,0.3,0,0.4c-0.1,0.2-0.1,0.3-0.3,0.3c-0.1,0.1-0.4,0.1-0.7,0c0,0,0,0,0,0c-0.7-0.2-1-0.2-1.7-0.4
					c-0.5,0.8-0.7,1.2-1.2,2c0,0,0,0,0,0c-0.2,0.2-0.3,0.4-0.4,0.5c-0.1,0.1-0.3,0-0.4,0c-0.1-0.1-0.2-0.2-0.3-0.3
					c0-0.1-0.1-0.2,0-0.3c0-0.1,0.1-0.3,0.2-0.4c0.4-0.6,0.6-1,0.9-1.6C493.6,148.4,493.3,148.3,492.5,148.1z"/>
				<path class="st40" d="M494.4,153.9c-0.3-0.7-0.3-1.4,0-2.1c0.3-0.7,0.8-1.1,1.6-1.5c0.8-0.3,1.5-0.4,2.2-0.1
					c0.7,0.3,1.2,0.8,1.5,1.6c0.2,0.4,0.2,0.9,0.2,1.2s-0.2,0.6-0.4,0.7c-0.1,0.1-0.3,0-0.4,0c-0.1-0.1-0.2-0.2-0.3-0.3
					c0-0.1-0.1-0.2-0.1-0.5c0-0.3-0.1-0.5-0.1-0.6c-0.2-0.4-0.4-0.6-0.8-0.8c-0.4-0.1-0.8-0.1-1.3,0.1c-0.5,0.2-0.8,0.5-1,0.8
					c-0.2,0.3-0.2,0.7,0,1.1c0.1,0.2,0.2,0.4,0.4,0.6c0.2,0.2,0.3,0.3,0.3,0.4c0,0.1,0,0.2,0,0.4c-0.1,0.1-0.2,0.2-0.3,0.3
					c-0.2,0.1-0.5,0-0.8-0.2C494.8,154.7,494.6,154.4,494.4,153.9z"/>
				<path class="st40" d="M501.2,156.3c0.1,0.3,0.1,0.5,0.1,0.7c0,0.2-0.2,0.3-0.3,0.4c-0.2,0.1-0.3,0-0.5-0.1
					c-0.1-0.1-0.3-0.3-0.4-0.6c-0.1-0.4-0.2-0.6-0.3-1c-0.4,0.1-0.5,0.2-0.9,0.3c0.1,0.3,0.2,0.5,0.3,0.8c0.1,0.3,0.1,0.5,0.1,0.7
					c0,0.2-0.2,0.3-0.3,0.3c-0.2,0.1-0.3,0-0.5-0.1c-0.1-0.1-0.3-0.3-0.4-0.6c-0.1-0.3-0.2-0.5-0.3-0.8c-0.4,0.1-0.6,0.2-0.9,0.3
					c0.1,0.4,0.2,0.6,0.3,1c0.1,0.3,0.1,0.5,0.1,0.7c0,0.2-0.2,0.3-0.3,0.3c-0.2,0.1-0.3,0-0.5-0.1c-0.1-0.1-0.3-0.3-0.3-0.6
					c-0.2-0.5-0.3-0.8-0.5-1.4c-0.1-0.3-0.1-0.5-0.1-0.7c0.1-0.1,0.2-0.3,0.5-0.4c1.4-0.5,2.1-0.8,3.5-1.3c0.3-0.1,0.5-0.1,0.7,0
					c0.2,0.1,0.3,0.3,0.4,0.6C500.9,155.4,501,155.7,501.2,156.3z"/>
				<path class="st40" d="M500.9,158.1c0.3-0.1,0.5-0.1,0.7-0.1c0.2,0.1,0.3,0.2,0.4,0.4c0.1,0.2,0,0.4-0.1,0.5
					c-0.1,0.1-0.3,0.3-0.6,0.4c-1.3,0.4-2,0.6-3.3,1c0.1,0.4,0.2,0.6,0.3,1c0.1,0.3,0.1,0.5,0.1,0.7c0,0.2-0.2,0.3-0.3,0.3
					c-0.2,0.1-0.3,0-0.5-0.1c-0.1-0.1-0.2-0.3-0.3-0.6c-0.2-0.5-0.3-0.8-0.4-1.4c-0.1-0.3-0.1-0.5,0-0.7c0.1-0.1,0.2-0.3,0.5-0.4
					C498.8,158.8,499.5,158.6,500.9,158.1z"/>
				<path class="st40" d="M503.4,163.6c0.1,0.3,0.1,0.5,0,0.7c-0.1,0.2-0.2,0.3-0.4,0.3c-0.2,0-0.3,0-0.5-0.1
					c-0.1-0.1-0.2-0.3-0.3-0.6c-0.1-0.4-0.2-0.6-0.3-1c-0.4,0.1-0.6,0.2-0.9,0.3c0.1,0.3,0.1,0.5,0.2,0.9c0.1,0.3,0.1,0.5,0,0.7
					c-0.1,0.2-0.2,0.3-0.4,0.3c-0.2,0-0.3,0-0.5-0.1c-0.1-0.1-0.2-0.3-0.3-0.6c-0.1-0.3-0.1-0.5-0.2-0.9c-0.4,0.1-0.6,0.2-1,0.3
					c0.1,0.4,0.2,0.6,0.3,1c0.1,0.3,0.1,0.5,0,0.7c-0.1,0.2-0.2,0.3-0.4,0.3c-0.2,0-0.3,0-0.5-0.1c-0.1-0.1-0.2-0.3-0.3-0.6
					c-0.1-0.6-0.2-0.8-0.4-1.4c-0.1-0.3-0.1-0.5,0-0.7c0.1-0.1,0.2-0.3,0.5-0.3c1.4-0.4,2.2-0.6,3.6-1.1c0.3-0.1,0.5-0.1,0.7,0
					c0.2,0.1,0.3,0.3,0.4,0.6C503.2,162.8,503.3,163.1,503.4,163.6z"/>
				<path class="st40" d="M499.7,167.6c-0.3,0.1-0.5,0.1-0.7,0c-0.2-0.1-0.3-0.2-0.3-0.4c-0.1-0.2,0-0.4,0.1-0.5
					c0.1-0.1,0.3-0.2,0.6-0.3c1.5-0.4,2.2-0.6,3.7-0.9c0.3-0.1,0.5-0.1,0.6,0c0.2,0.1,0.3,0.2,0.3,0.4c0,0.1,0,0.2,0,0.4
					c0,0.1-0.1,0.2-0.2,0.4c-0.9,1.2-1.4,1.8-2.4,3c1-0.2,1.5-0.3,2.5-0.5c0.3-0.1,0.5-0.1,0.7,0s0.3,0.2,0.3,0.4
					c0,0.2,0,0.4-0.1,0.5c-0.1,0.1-0.3,0.2-0.6,0.3c-1.5,0.3-2.3,0.5-3.8,0.8c-0.3,0.1-0.5,0-0.6,0c-0.1-0.1-0.2-0.2-0.3-0.4
					c0-0.1,0-0.3,0-0.4c0-0.1,0.1-0.3,0.3-0.4c1-1.1,1.4-1.7,2.3-2.9C501.2,167.2,500.7,167.4,499.7,167.6z"/>
				<path class="st40" d="M504.2,172c0-0.2-0.1-0.3-0.1-0.5c-0.1-0.3-0.1-0.5,0-0.7c0.1-0.2,0.2-0.3,0.4-0.3c0.2,0,0.3,0,0.5,0.1
					s0.2,0.3,0.3,0.7c0.2,0.9,0.3,1.3,0.4,2.2c0.1,0.3,0,0.5,0,0.7c-0.1,0.2-0.2,0.3-0.4,0.3c-0.2,0-0.3,0-0.5-0.2
					c-0.1-0.1-0.2-0.4-0.3-0.7c0-0.2,0-0.3-0.1-0.5c-1.4,0.2-2,0.4-3.4,0.6c-0.3,0.1-0.5,0-0.7,0c-0.2-0.1-0.3-0.2-0.3-0.4
					c0-0.2,0-0.4,0.1-0.5c0.1-0.1,0.3-0.2,0.6-0.3C502.2,172.4,502.8,172.3,504.2,172z"/>
			</g>
		</g>
		<g>
			<path class="st14" d="M296.6,121c-0.2,0.3-0.5,0.7-0.7,1l18.8,13.6l50.8,36.9c0.1-0.2,0.2-0.4,0.4-0.5c0.1-0.2,0.3-0.3,0.4-0.5
				l-50.8-36.9L296.6,121z"/>
			<path class="st14" d="M357.3,77.3c-0.4,0.1-0.8,0.3-1.2,0.4l7.2,22.1l19.4,59.7c0.2-0.1,0.4-0.1,0.6-0.2c0.2-0.1,0.4-0.1,0.6-0.2
				l-19.4-59.7L357.3,77.3z"/>
			<path class="st14" d="M432.1,77.7c-0.4-0.1-0.8-0.3-1.2-0.4l-7.2,22.1l-19.4,59.7c0.2,0.1,0.4,0.1,0.6,0.2
				c0.2,0.1,0.4,0.1,0.6,0.2l19.4-59.7L432.1,77.7z"/>
			<path class="st14" d="M491.7,121l-18.8,13.6l-50.8,36.9c0.1,0.2,0.3,0.3,0.4,0.5c0.1,0.2,0.2,0.3,0.4,0.5l50.8-36.9l18.8-13.6
				C492.2,121.7,491.9,121.3,491.7,121z"/>
		</g>
	</g>
	<g>
		
			<image style="overflow:visible;" width="352" height="110" xlink:href="A22C3C1B7A05C00B.png"  transform="matrix(0.24 0 0 0.24 383.2607 171.737)">
		</image>
		<g>
			<path class="st41" d="M465.3,170l-70.3,4.4l0.7,5.7l0.7,5.7l69.3-12.7C468.4,172.5,468,169.9,465.3,170z"/>
			<path class="st41" d="M382.6,181.7c-0.8-6.4,3.8-12.3,10.2-13.1c6.4-0.8,12.3,3.8,13.1,10.2c0.8,6.4-3.8,12.3-10.2,13.1
				C389.2,192.7,383.3,188.1,382.6,181.7z"/>
			
				<ellipse transform="matrix(0.9925 -0.1219 0.1219 0.9925 -19.03 49.3866)" class="st42" cx="394.2" cy="180.3" rx="6.7" ry="6.7"/>
		</g>
	</g>
	
		<ellipse transform="matrix(0.9925 -0.1219 0.1219 0.9925 -19.0177 49.374)" class="st42" cx="394.1" cy="180.2" rx="6.7" ry="6.7"/>
	<g>
		<path class="st42" d="M301,218.9c0,1.1-0.2,2-0.6,2.5c-0.4,0.5-1,0.8-1.8,0.8c-0.8,0-1.4-0.3-1.8-0.8c-0.4-0.5-0.6-1.4-0.6-2.5
			v-14.3c0-1.3,0.2-2.1,0.7-2.6c0.5-0.5,1.3-0.7,2.5-0.7h4.2c2.3,0,4.1,0.6,5.5,1.9c1.3,1.3,2,3,2,5.1c0,2.2-0.6,3.9-1.9,5.2
			c-1.3,1.2-3,1.9-5.2,1.9H301V218.9z M301,211h2c1.1,0,1.8-0.2,2.4-0.7c0.5-0.5,0.8-1.1,0.8-2.1c0-0.9-0.3-1.6-0.8-2
			c-0.5-0.4-1.3-0.7-2.4-0.7h-2V211z"/>
		<path class="st42" d="M318.3,213.8v5.1c0,1.1-0.2,2-0.6,2.5c-0.4,0.5-1,0.8-1.8,0.8c-0.8,0-1.4-0.3-1.8-0.8
			c-0.4-0.5-0.6-1.4-0.6-2.5v-14.3c0-1.3,0.2-2.1,0.7-2.6s1.3-0.7,2.5-0.7h3.6c2.4,0,4.3,0.6,5.7,1.7c1.4,1.2,2.1,2.7,2.1,4.7
			c0,1.5-0.4,2.7-1.3,3.7c-0.9,1-2.1,1.6-3.6,1.9l3.7,4.1c0.5,0.5,0.8,1,1,1.5c0.2,0.4,0.3,0.9,0.3,1.2c0,0.6-0.2,1.1-0.6,1.6
			c-0.4,0.4-0.9,0.6-1.6,0.6c-0.4,0-0.8-0.1-1.2-0.4c-0.4-0.3-0.8-0.7-1.3-1.3L318.3,213.8z M318.3,210.6h2.1c0.9,0,1.7-0.2,2.2-0.7
			c0.5-0.4,0.8-1.1,0.8-1.9c0-0.8-0.3-1.4-0.8-1.8c-0.5-0.4-1.2-0.6-2.1-0.6h-2.2V210.6z"/>
		<path class="st42" d="M329.8,211.6c0-3.3,0.9-5.9,2.8-7.9c1.8-2,4.3-3,7.3-3c3,0,5.4,1,7.3,3c1.8,2,2.8,4.6,2.8,7.9
			c0,3.3-0.9,5.9-2.8,7.9c-1.8,2-4.3,3-7.3,3c-3,0-5.4-1-7.3-3C330.7,217.5,329.8,214.9,329.8,211.6z M334.9,211.7
			c0,1.9,0.5,3.5,1.4,4.6c0.9,1.2,2.1,1.7,3.6,1.7c1.5,0,2.7-0.6,3.6-1.7c0.9-1.2,1.4-2.7,1.4-4.6c0-2-0.4-3.6-1.3-4.8
			c-0.9-1.2-2.1-1.8-3.6-1.8s-2.7,0.6-3.6,1.8C335.3,208.1,334.9,209.7,334.9,211.7z"/>
		<path class="st42" d="M359.4,201.3c1.3,0,2.4,0.1,3.4,0.4c1,0.2,1.9,0.6,2.6,1.1c1.3,0.9,2.4,2.1,3.2,3.6c0.8,1.5,1.2,3.2,1.2,5.1
			c0,3.2-0.9,5.8-2.7,7.7c-1.8,1.9-4.2,2.8-7.3,2.8h-4.2c-1.2,0-2-0.2-2.5-0.6c-0.4-0.4-0.7-1.2-0.7-2.3v-14.4
			c0-1.3,0.2-2.1,0.7-2.6c0.5-0.5,1.3-0.7,2.5-0.7H359.4z M357.1,217.6h2.1c1.9,0,3.2-0.5,4.2-1.5c0.9-1,1.4-2.6,1.4-4.7
			c0-1.9-0.5-3.3-1.4-4.3c-0.9-0.9-2.3-1.4-4.2-1.4h-2V217.6z"/>
		<path class="st42" d="M372.5,213.1v-8.7c0-1.1,0.2-2,0.6-2.5c0.4-0.6,1-0.8,1.8-0.8c0.8,0,1.4,0.3,1.8,0.8
			c0.4,0.6,0.6,1.4,0.6,2.5v8.2c0,1.8,0.3,3.2,1,4.1c0.7,0.9,1.7,1.4,3.1,1.4c1.4,0,2.4-0.5,3.1-1.4c0.7-0.9,1-2.3,1-4.1v-8.2
			c0-1.1,0.2-2,0.6-2.5c0.4-0.6,1-0.8,1.7-0.8c0.8,0,1.4,0.3,1.8,0.8c0.4,0.6,0.6,1.4,0.6,2.5v8.7c0,3-0.8,5.3-2.3,7
			c-1.5,1.7-3.7,2.5-6.4,2.5c-2.8,0-4.9-0.8-6.4-2.5C373.2,218.4,372.5,216.1,372.5,213.1z"/>
		<path class="st42" d="M402.6,222.5c-3,0-5.4-1-7.2-3c-1.8-2-2.7-4.6-2.7-7.9c0-3.2,0.9-5.8,2.8-7.9c1.9-2,4.3-3.1,7.2-3.1
			c1.7,0,3.2,0.3,4.3,1c1.2,0.7,1.8,1.4,1.8,2.3c0,0.6-0.2,1.1-0.6,1.5c-0.4,0.4-0.9,0.6-1.4,0.6c-0.3,0-0.9-0.1-1.8-0.4
			c-0.9-0.3-1.7-0.4-2.3-0.4c-1.5,0-2.7,0.6-3.6,1.7c-0.9,1.2-1.4,2.7-1.4,4.7c0,1.9,0.5,3.4,1.4,4.6c0.9,1.1,2.2,1.7,3.8,1.7
			c0.7,0,1.6-0.2,2.5-0.5c0.9-0.4,1.6-0.5,1.8-0.5c0.5,0,0.9,0.2,1.3,0.6c0.4,0.4,0.6,0.9,0.6,1.4c0,1-0.6,1.8-1.9,2.5
			C405.9,222.2,404.4,222.5,402.6,222.5z"/>
		<path class="st42" d="M415.9,205.7h-1.7c-1.1,0-2-0.2-2.5-0.5c-0.5-0.4-0.8-0.9-0.8-1.6c0-0.7,0.3-1.3,0.8-1.7
			c0.5-0.4,1.4-0.5,2.5-0.5h8.1c1.1,0,1.9,0.2,2.5,0.5c0.6,0.4,0.8,0.9,0.8,1.7c0,0.7-0.3,1.3-0.8,1.6c-0.5,0.4-1.4,0.5-2.5,0.5
			h-1.7v13.2c0,1.1-0.2,2-0.6,2.5c-0.4,0.5-1,0.8-1.8,0.8s-1.4-0.3-1.8-0.8c-0.4-0.5-0.6-1.4-0.6-2.5V205.7z"/>
		<path class="st42" d="M432,218.9c0,1.1-0.2,2-0.6,2.5c-0.4,0.5-1,0.8-1.8,0.8c-0.8,0-1.4-0.3-1.8-0.8c-0.4-0.5-0.6-1.4-0.6-2.5
			v-14.5c0-1.1,0.2-2,0.6-2.5c0.4-0.6,1-0.8,1.8-0.8c0.8,0,1.4,0.3,1.8,0.8c0.4,0.6,0.6,1.4,0.6,2.5V218.9z"/>
		<path class="st42" d="M440.5,220.6l-6.2-15.8c-0.1-0.2-0.1-0.4-0.2-0.6c0-0.2-0.1-0.5-0.1-0.7c0-0.7,0.2-1.2,0.7-1.7
			c0.5-0.4,1-0.7,1.7-0.7c0.5,0,0.9,0.2,1.2,0.5c0.3,0.3,0.6,0.8,0.9,1.6l4.3,11.7l4-11.6c0.3-0.8,0.6-1.4,0.9-1.7
			c0.3-0.3,0.8-0.5,1.4-0.5c0.7,0,1.3,0.2,1.7,0.6c0.4,0.4,0.6,0.9,0.6,1.6c0,0.3,0,0.5-0.1,0.8c-0.1,0.3-0.1,0.6-0.2,0.8l-6,15.5
			c-0.3,0.7-0.6,1.2-1,1.5c-0.4,0.3-0.8,0.5-1.4,0.5c-0.5,0-1-0.1-1.3-0.4C441.1,221.7,440.8,221.2,440.5,220.6z"/>
		<path class="st42" d="M458,218.9c0,1.1-0.2,2-0.6,2.5c-0.4,0.5-1,0.8-1.8,0.8c-0.8,0-1.4-0.3-1.8-0.8c-0.4-0.5-0.6-1.4-0.6-2.5
			v-14.5c0-1.1,0.2-2,0.6-2.5c0.4-0.6,1-0.8,1.8-0.8c0.8,0,1.4,0.3,1.8,0.8c0.4,0.6,0.6,1.4,0.6,2.5V218.9z"/>
		<path class="st42" d="M464.9,205.7h-1.7c-1.1,0-2-0.2-2.5-0.5c-0.5-0.4-0.8-0.9-0.8-1.6c0-0.7,0.3-1.3,0.8-1.7
			c0.5-0.4,1.4-0.5,2.5-0.5h8.1c1.1,0,1.9,0.2,2.5,0.5c0.6,0.4,0.8,0.9,0.8,1.7c0,0.7-0.3,1.3-0.8,1.6c-0.5,0.4-1.4,0.5-2.5,0.5
			h-1.7v13.2c0,1.1-0.2,2-0.6,2.5c-0.4,0.5-1,0.8-1.8,0.8c-0.8,0-1.4-0.3-1.8-0.8c-0.4-0.5-0.6-1.4-0.6-2.5V205.7z"/>
		<path class="st42" d="M487.4,202.7c0.4-0.6,0.8-1,1.2-1.3c0.4-0.3,0.8-0.5,1.3-0.5c0.5,0,1,0.2,1.4,0.6c0.4,0.4,0.6,0.9,0.6,1.4
			c0,0.6-0.3,1.3-1,2.3l-0.1,0.1l-4.7,6.8v6.7c0,1.1-0.2,2-0.6,2.5c-0.4,0.5-1,0.8-1.7,0.8c-0.8,0-1.4-0.3-1.8-0.8
			c-0.4-0.5-0.6-1.4-0.6-2.5v-6.7l-4.7-6.7l0,0c-0.7-0.9-1-1.7-1-2.3c0-0.6,0.2-1.1,0.6-1.5c0.4-0.4,1-0.6,1.6-0.6
			c0.4,0,0.8,0.1,1.1,0.4c0.4,0.3,0.8,0.7,1.2,1.4l3.5,5L487.4,202.7z"/>
	</g>
</g>
<g>
	<linearGradient id="SVGID_4_" gradientUnits="userSpaceOnUse" x1="595.3427" y1="74.6159" x2="612.8018" y2="74.6159">
		<stop  offset="0" style="stop-color:#01639C"/>
		<stop  offset="1" style="stop-color:#004580"/>
	</linearGradient>
	<circle class="st43" cx="604.1" cy="74.6" r="8.7"/>
	<linearGradient id="SVGID_5_" gradientUnits="userSpaceOnUse" x1="590.2097" y1="89.2855" x2="607.6686" y2="89.2855">
		<stop  offset="0" style="stop-color:#01639C"/>
		<stop  offset="1" style="stop-color:#004580"/>
	</linearGradient>
	<circle class="st44" cx="598.9" cy="89.3" r="8.7"/>
	<linearGradient id="SVGID_6_" gradientUnits="userSpaceOnUse" x1="588.4714" y1="104.7295" x2="605.9265" y2="104.7295">
		<stop  offset="0" style="stop-color:#01639C"/>
		<stop  offset="1" style="stop-color:#004580"/>
	</linearGradient>
	<circle class="st45" cx="597.2" cy="104.7" r="8.7"/>
	<linearGradient id="SVGID_7_" gradientUnits="userSpaceOnUse" x1="590.2097" y1="120.1735" x2="607.6686" y2="120.1735">
		<stop  offset="0" style="stop-color:#01639C"/>
		<stop  offset="1" style="stop-color:#004580"/>
	</linearGradient>
	<circle class="st46" cx="598.9" cy="120.2" r="8.7"/>
	<linearGradient id="SVGID_8_" gradientUnits="userSpaceOnUse" x1="595.3427" y1="134.8431" x2="612.8018" y2="134.8431">
		<stop  offset="0" style="stop-color:#01639C"/>
		<stop  offset="1" style="stop-color:#004580"/>
	</linearGradient>
	<circle class="st47" cx="604.1" cy="134.8" r="8.7"/>
	<g>
		<g>
			
				<linearGradient id="SVGID_9_" gradientUnits="userSpaceOnUse" x1="744.343" y1="481.7511" x2="744.343" y2="617.5265" gradientTransform="matrix(0.9464 0.323 -0.323 0.9464 110.7066 -582.5089)">
				<stop  offset="0" style="stop-color:#014E7A"/>
				<stop  offset="1" style="stop-color:#003664"/>
			</linearGradient>
			<polygon class="st48" points="641.4,241.9 623.7,220.1 595.6,226.2 635.3,110.1 681,125.7 			"/>
			
				<linearGradient id="SVGID_10_" gradientUnits="userSpaceOnUse" x1="2777.3848" y1="-212.1125" x2="2777.3848" y2="-76.3371" gradientTransform="matrix(-0.9464 0.323 0.323 0.9464 3370.6895 -582.5089)">
				<stop  offset="0" style="stop-color:#014E7A"/>
				<stop  offset="1" style="stop-color:#003664"/>
			</linearGradient>
			<polygon class="st49" points="691.8,241.9 709.5,220.1 737.6,226.2 697.9,110.1 652.2,125.7 			"/>
		</g>
		<g>
			<defs>
				<polygon id="SVGID_11_" points="697.9,110.1 666.6,120.8 635.3,110.1 595.6,226.2 623.7,220.1 641.4,241.9 666.6,168 
					691.8,241.9 709.5,220.1 737.6,226.2 				"/>
			</defs>
			<clipPath id="SVGID_12_">
				<use xlink:href="#SVGID_11_"  style="overflow:visible;"/>
			</clipPath>
			<g class="st50">
				<path class="st51" d="M726.3,147c-3.8-3-9.3-2.4-12.3,1.4c-1.9,2.4-2.3,5.4-1.5,8.1c-2.7-0.9-5.8-0.4-8.1,1.5
					c-2.4,1.9-3.5,4.8-3.2,7.6c-2.4-1.4-5.5-1.7-8.3-0.4c-2.7,1.3-4.5,3.9-4.9,6.7c-2-2-5-2.9-8-2.2c-3,0.7-5.2,2.8-6.2,5.4
					c-1.6-2.4-4.2-3.9-7.3-3.9c-3,0-5.7,1.6-7.3,3.9c-1-2.6-3.3-4.8-6.2-5.4c-3-0.7-5.9,0.2-8,2.2c-0.4-2.8-2.1-5.4-4.9-6.7
					c-2.7-1.3-5.8-1.1-8.3,0.4c0.2-2.8-0.9-5.7-3.2-7.6c-2.4-1.9-5.4-2.3-8.1-1.5c0.9-2.7,0.4-5.8-1.5-8.1c-3-3.8-8.5-4.4-12.3-1.4
					c-3.8,3-4.4,8.5-1.4,12.3c2.3,2.9,6.2,3.9,9.5,2.9c-1.1,3.4-0.1,7.2,2.9,9.5c2.9,2.3,6.9,2.5,9.9,0.7c-0.3,3.5,1.5,7,4.9,8.6
					c3.4,1.6,7.3,0.9,9.8-1.6c0.5,3.5,3.1,6.5,6.7,7.3c3.6,0.8,7.3-0.8,9.2-3.7c1.2,3.3,4.4,5.7,8.2,5.7c3.7,0,6.9-2.4,8.2-5.7
					c1.9,2.9,5.6,4.5,9.2,3.7c3.6-0.8,6.2-3.8,6.7-7.3c2.6,2.4,6.4,3.2,9.8,1.6c3.4-1.6,5.2-5.1,4.9-8.6c3,1.8,7,1.7,9.9-0.7
					c2.9-2.3,3.9-6.2,2.9-9.5c3.4,1.1,7.2,0.1,9.5-2.9C730.7,155.5,730.1,150,726.3,147z"/>
				<path class="st52" d="M726.3,146.5c-3.8-3-9.3-2.4-12.3,1.4c-1.9,2.4-2.3,5.4-1.5,8.1c-2.7-0.9-5.8-0.4-8.1,1.5
					c-2.4,1.9-3.5,4.8-3.2,7.6c-2.4-1.4-5.5-1.7-8.3-0.4c-2.7,1.3-4.5,3.9-4.9,6.7c-2-2-5-2.9-8-2.2c-3,0.7-5.2,2.8-6.2,5.4
					c-1.6-2.4-4.2-3.9-7.3-3.9c-3,0-5.7,1.6-7.3,3.9c-1-2.6-3.3-4.8-6.2-5.4c-3-0.7-5.9,0.2-8,2.2c-0.4-2.8-2.1-5.4-4.9-6.7
					c-2.7-1.3-5.8-1.1-8.3,0.4c0.2-2.8-0.9-5.7-3.2-7.6c-2.4-1.9-5.4-2.3-8.1-1.5c0.9-2.7,0.4-5.8-1.5-8.1c-3-3.8-8.5-4.4-12.3-1.4
					c-3.8,3-4.4,8.5-1.4,12.3c2.3,2.9,6.2,3.9,9.5,2.9c-1.1,3.4-0.1,7.2,2.9,9.5c2.9,2.3,6.9,2.5,9.9,0.7c-0.3,3.5,1.5,7,4.9,8.6
					c3.4,1.6,7.3,0.9,9.8-1.6c0.5,3.5,3.1,6.5,6.7,7.3c3.6,0.8,7.3-0.8,9.2-3.7c1.2,3.3,4.4,5.7,8.2,5.7c3.7,0,6.9-2.4,8.2-5.7
					c1.9,2.9,5.6,4.5,9.2,3.7c3.6-0.8,6.2-3.8,6.7-7.3c2.6,2.4,6.4,3.2,9.8,1.6c3.4-1.6,5.2-5.1,4.9-8.6c3,1.8,7,1.7,9.9-0.7
					c2.9-2.3,3.9-6.2,2.9-9.5c3.4,1.1,7.2,0.1,9.5-2.9C730.7,155,730.1,149.6,726.3,146.5z"/>
				<path class="st53" d="M726.3,146.1c-3.8-3-9.3-2.4-12.3,1.4c-1.9,2.4-2.3,5.4-1.5,8.1c-2.7-0.9-5.8-0.4-8.1,1.5
					c-2.4,1.9-3.5,4.8-3.2,7.6c-2.4-1.4-5.5-1.7-8.3-0.4c-2.7,1.3-4.5,3.9-4.9,6.7c-2-2-5-2.9-8-2.2c-3,0.7-5.2,2.8-6.2,5.4
					c-1.6-2.4-4.2-3.9-7.3-3.9c-3,0-5.7,1.6-7.3,3.9c-1-2.6-3.3-4.8-6.2-5.4c-3-0.7-5.9,0.2-8,2.2c-0.4-2.8-2.1-5.4-4.9-6.7
					c-2.7-1.3-5.8-1.1-8.3,0.4c0.2-2.8-0.9-5.7-3.2-7.6c-2.4-1.9-5.4-2.3-8.1-1.5c0.9-2.7,0.4-5.8-1.5-8.1c-3-3.8-8.5-4.4-12.3-1.4
					c-3.8,3-4.4,8.5-1.4,12.3c2.3,2.9,6.2,3.9,9.5,2.9c-1.1,3.4-0.1,7.2,2.9,9.5c2.9,2.3,6.9,2.5,9.9,0.7c-0.3,3.5,1.5,7,4.9,8.6
					c3.4,1.6,7.3,0.9,9.8-1.6c0.5,3.5,3.1,6.5,6.7,7.3c3.6,0.8,7.3-0.8,9.2-3.7c1.2,3.3,4.4,5.7,8.2,5.7c3.7,0,6.9-2.4,8.2-5.7
					c1.9,2.9,5.6,4.5,9.2,3.7c3.6-0.8,6.2-3.8,6.7-7.3c2.6,2.4,6.4,3.2,9.8,1.6c3.4-1.6,5.2-5.1,4.9-8.6c3,1.8,7,1.7,9.9-0.7
					c2.9-2.3,3.9-6.2,2.9-9.5c3.4,1.1,7.2,0.1,9.5-2.9C730.7,154.6,730.1,149.1,726.3,146.1z"/>
				<path class="st54" d="M726.3,145.7c-3.8-3-9.3-2.4-12.3,1.4c-1.9,2.4-2.3,5.4-1.5,8.1c-2.7-0.9-5.8-0.4-8.1,1.5
					c-2.4,1.9-3.5,4.8-3.2,7.6c-2.4-1.4-5.5-1.7-8.3-0.4c-2.7,1.3-4.5,3.9-4.9,6.7c-2-2-5-2.9-8-2.2c-3,0.7-5.2,2.8-6.2,5.4
					c-1.6-2.4-4.2-3.9-7.3-3.9c-3,0-5.7,1.6-7.3,3.9c-1-2.6-3.3-4.8-6.2-5.4c-3-0.7-5.9,0.2-8,2.2c-0.4-2.8-2.1-5.4-4.9-6.7
					c-2.7-1.3-5.8-1.1-8.3,0.4c0.2-2.8-0.9-5.7-3.2-7.6c-2.4-1.9-5.4-2.3-8.1-1.5c0.9-2.7,0.4-5.8-1.5-8.1c-3-3.8-8.5-4.4-12.3-1.4
					c-3.8,3-4.4,8.5-1.4,12.3c2.3,2.9,6.2,3.9,9.5,2.9c-1.1,3.4-0.1,7.2,2.9,9.5c2.9,2.3,6.9,2.5,9.9,0.7c-0.3,3.5,1.5,7,4.9,8.6
					c3.4,1.6,7.3,0.9,9.8-1.6c0.5,3.5,3.1,6.5,6.7,7.3c3.6,0.8,7.3-0.8,9.2-3.7c1.2,3.3,4.4,5.7,8.2,5.7c3.7,0,6.9-2.4,8.2-5.7
					c1.9,2.9,5.6,4.5,9.2,3.7c3.6-0.8,6.2-3.8,6.7-7.3c2.6,2.4,6.4,3.2,9.8,1.6c3.4-1.6,5.2-5.1,4.9-8.6c3,1.8,7,1.7,9.9-0.7
					c2.9-2.3,3.9-6.2,2.9-9.5c3.4,1.1,7.2,0.1,9.5-2.9C730.7,154.2,730.1,148.7,726.3,145.7z"/>
				<path class="st55" d="M726.3,145.2c-3.8-3-9.3-2.4-12.3,1.4c-1.9,2.4-2.3,5.4-1.5,8.1c-2.7-0.9-5.8-0.4-8.1,1.5
					c-2.4,1.9-3.5,4.8-3.2,7.6c-2.4-1.4-5.5-1.7-8.3-0.4c-2.7,1.3-4.5,3.9-4.9,6.7c-2-2-5-2.9-8-2.2c-3,0.7-5.2,2.8-6.2,5.4
					c-1.6-2.4-4.2-3.9-7.3-3.9c-3,0-5.7,1.6-7.3,3.9c-1-2.6-3.3-4.8-6.2-5.4c-3-0.7-5.9,0.2-8,2.2c-0.4-2.8-2.1-5.4-4.9-6.7
					c-2.7-1.3-5.8-1.1-8.3,0.4c0.2-2.8-0.9-5.7-3.2-7.6c-2.4-1.9-5.4-2.3-8.1-1.5c0.9-2.7,0.4-5.8-1.5-8.1c-3-3.8-8.5-4.4-12.3-1.4
					c-3.8,3-4.4,8.5-1.4,12.3c2.3,2.9,6.2,3.9,9.5,2.9c-1.1,3.4-0.1,7.2,2.9,9.5c2.9,2.3,6.9,2.5,9.9,0.7c-0.3,3.5,1.5,7,4.9,8.6
					c3.4,1.6,7.3,0.9,9.8-1.6c0.5,3.5,3.1,6.5,6.7,7.3c3.6,0.8,7.3-0.8,9.2-3.7c1.2,3.3,4.4,5.7,8.2,5.7c3.7,0,6.9-2.4,8.2-5.7
					c1.9,2.9,5.6,4.5,9.2,3.7c3.6-0.8,6.2-3.8,6.7-7.3c2.6,2.4,6.4,3.2,9.8,1.6c3.4-1.6,5.2-5.1,4.9-8.6c3,1.8,7,1.7,9.9-0.7
					c2.9-2.3,3.9-6.2,2.9-9.5c3.4,1.1,7.2,0.1,9.5-2.9C730.7,153.7,730.1,148.2,726.3,145.2z"/>
				<path class="st56" d="M726.3,144.8c-3.8-3-9.3-2.4-12.3,1.4c-1.9,2.4-2.3,5.4-1.5,8.1c-2.7-0.9-5.8-0.4-8.1,1.5
					c-2.4,1.9-3.5,4.8-3.2,7.6c-2.4-1.4-5.5-1.7-8.3-0.4c-2.7,1.3-4.5,3.9-4.9,6.7c-2-2-5-2.9-8-2.2c-3,0.7-5.2,2.8-6.2,5.4
					c-1.6-2.4-4.2-3.9-7.3-3.9c-3,0-5.7,1.6-7.3,3.9c-1-2.6-3.3-4.8-6.2-5.4c-3-0.7-5.9,0.2-8,2.2c-0.4-2.8-2.1-5.4-4.9-6.7
					c-2.7-1.3-5.8-1.1-8.3,0.4c0.2-2.8-0.9-5.7-3.2-7.6c-2.4-1.9-5.4-2.3-8.1-1.5c0.9-2.7,0.4-5.8-1.5-8.1c-3-3.8-8.5-4.4-12.3-1.4
					c-3.8,3-4.4,8.5-1.4,12.3c2.3,2.9,6.2,3.9,9.5,2.9c-1.1,3.4-0.1,7.2,2.9,9.5c2.9,2.3,6.9,2.5,9.9,0.7c-0.3,3.5,1.5,7,4.9,8.6
					c3.4,1.6,7.3,0.9,9.8-1.6c0.5,3.5,3.1,6.5,6.7,7.3c3.6,0.8,7.3-0.8,9.2-3.7c1.2,3.3,4.4,5.7,8.2,5.7c3.7,0,6.9-2.4,8.2-5.7
					c1.9,2.9,5.6,4.5,9.2,3.7c3.6-0.8,6.2-3.8,6.7-7.3c2.6,2.4,6.4,3.2,9.8,1.6c3.4-1.6,5.2-5.1,4.9-8.6c3,1.8,7,1.7,9.9-0.7
					c2.9-2.3,3.9-6.2,2.9-9.5c3.4,1.1,7.2,0.1,9.5-2.9C730.7,153.3,730.1,147.8,726.3,144.8z"/>
				<path class="st57" d="M726.3,144.3c-3.8-3-9.3-2.4-12.3,1.4c-1.9,2.4-2.3,5.4-1.5,8.1c-2.7-0.9-5.8-0.4-8.1,1.5
					c-2.4,1.9-3.5,4.8-3.2,7.6c-2.4-1.4-5.5-1.7-8.3-0.4c-2.7,1.3-4.5,3.9-4.9,6.7c-2-2-5-2.9-8-2.2c-3,0.7-5.2,2.8-6.2,5.4
					c-1.6-2.4-4.2-3.9-7.3-3.9c-3,0-5.7,1.6-7.3,3.9c-1-2.6-3.3-4.8-6.2-5.4c-3-0.7-5.9,0.2-8,2.2c-0.4-2.8-2.1-5.4-4.9-6.7
					c-2.7-1.3-5.8-1.1-8.3,0.4c0.2-2.8-0.9-5.7-3.2-7.6c-2.4-1.9-5.4-2.3-8.1-1.5c0.9-2.7,0.4-5.8-1.5-8.1c-3-3.8-8.5-4.4-12.3-1.4
					c-3.8,3-4.4,8.5-1.4,12.3c2.3,2.9,6.2,3.9,9.5,2.9c-1.1,3.4-0.1,7.2,2.9,9.5c2.9,2.3,6.9,2.5,9.9,0.7c-0.3,3.5,1.5,7,4.9,8.6
					c3.4,1.6,7.3,0.9,9.8-1.6c0.5,3.5,3.1,6.5,6.7,7.3c3.6,0.8,7.3-0.8,9.2-3.7c1.2,3.3,4.4,5.7,8.2,5.7c3.7,0,6.9-2.4,8.2-5.7
					c1.9,2.9,5.6,4.5,9.2,3.7c3.6-0.8,6.2-3.8,6.7-7.3c2.6,2.4,6.4,3.2,9.8,1.6c3.4-1.6,5.2-5.1,4.9-8.6c3,1.8,7,1.7,9.9-0.7
					c2.9-2.3,3.9-6.2,2.9-9.5c3.4,1.1,7.2,0.1,9.5-2.9C730.7,152.8,730.1,147.3,726.3,144.3z"/>
				<path class="st58" d="M726.3,143.9c-3.8-3-9.3-2.4-12.3,1.4c-1.9,2.4-2.3,5.4-1.5,8.1c-2.7-0.9-5.8-0.4-8.1,1.5
					c-2.4,1.9-3.5,4.8-3.2,7.6c-2.4-1.4-5.5-1.7-8.3-0.4c-2.7,1.3-4.5,3.9-4.9,6.7c-2-2-5-2.9-8-2.2c-3,0.7-5.2,2.8-6.2,5.4
					c-1.6-2.4-4.2-3.9-7.3-3.9c-3,0-5.7,1.6-7.3,3.9c-1-2.6-3.3-4.8-6.2-5.4c-3-0.7-5.9,0.2-8,2.2c-0.4-2.8-2.1-5.4-4.9-6.7
					c-2.7-1.3-5.8-1.1-8.3,0.4c0.2-2.8-0.9-5.7-3.2-7.6c-2.4-1.9-5.4-2.3-8.1-1.5c0.9-2.7,0.4-5.8-1.5-8.1c-3-3.8-8.5-4.4-12.3-1.4
					c-3.8,3-4.4,8.5-1.4,12.3c2.3,2.9,6.2,3.9,9.5,2.9c-1.1,3.4-0.1,7.2,2.9,9.5c2.9,2.3,6.9,2.5,9.9,0.7c-0.3,3.5,1.5,7,4.9,8.6
					c3.4,1.6,7.3,0.9,9.8-1.6c0.5,3.5,3.1,6.5,6.7,7.3c3.6,0.8,7.3-0.8,9.2-3.7c1.2,3.3,4.4,5.7,8.2,5.7c3.7,0,6.9-2.4,8.2-5.7
					c1.9,2.9,5.6,4.5,9.2,3.7c3.6-0.8,6.2-3.8,6.7-7.3c2.6,2.4,6.4,3.2,9.8,1.6c3.4-1.6,5.2-5.1,4.9-8.6c3,1.8,7,1.7,9.9-0.7
					c2.9-2.3,3.9-6.2,2.9-9.5c3.4,1.1,7.2,0.1,9.5-2.9C730.7,152.4,730.1,146.9,726.3,143.9z"/>
				<path class="st59" d="M726.3,143.4c-3.8-3-9.3-2.4-12.3,1.4c-1.9,2.4-2.3,5.4-1.5,8.1c-2.7-0.9-5.8-0.4-8.1,1.5
					c-2.4,1.9-3.5,4.8-3.2,7.6c-2.4-1.4-5.5-1.7-8.3-0.4c-2.7,1.3-4.5,3.9-4.9,6.7c-2-2-5-2.9-8-2.2c-3,0.7-5.2,2.8-6.2,5.4
					c-1.6-2.4-4.2-3.9-7.3-3.9c-3,0-5.7,1.6-7.3,3.9c-1-2.6-3.3-4.8-6.2-5.4c-3-0.7-5.9,0.2-8,2.2c-0.4-2.8-2.1-5.4-4.9-6.7
					c-2.7-1.3-5.8-1.1-8.3,0.4c0.2-2.8-0.9-5.7-3.2-7.6c-2.4-1.9-5.4-2.3-8.1-1.5c0.9-2.7,0.4-5.8-1.5-8.1c-3-3.8-8.5-4.4-12.3-1.4
					c-3.8,3-4.4,8.5-1.4,12.3c2.3,2.9,6.2,3.9,9.5,2.9c-1.1,3.4-0.1,7.2,2.9,9.5c2.9,2.3,6.9,2.5,9.9,0.7c-0.3,3.5,1.5,7,4.9,8.6
					c3.4,1.6,7.3,0.9,9.8-1.6c0.5,3.5,3.1,6.5,6.7,7.3c3.6,0.8,7.3-0.8,9.2-3.7c1.2,3.3,4.4,5.7,8.2,5.7c3.7,0,6.9-2.4,8.2-5.7
					c1.9,2.9,5.6,4.5,9.2,3.7c3.6-0.8,6.2-3.8,6.7-7.3c2.6,2.4,6.4,3.2,9.8,1.6c3.4-1.6,5.2-5.1,4.9-8.6c3,1.8,7,1.7,9.9-0.7
					c2.9-2.3,3.9-6.2,2.9-9.5c3.4,1.1,7.2,0.1,9.5-2.9C730.7,151.9,730.1,146.4,726.3,143.4z"/>
				<path class="st60" d="M726.3,143c-3.8-3-9.3-2.4-12.3,1.4c-1.9,2.4-2.3,5.4-1.5,8.1c-2.7-0.9-5.8-0.4-8.1,1.5
					c-2.4,1.9-3.5,4.8-3.2,7.6c-2.4-1.4-5.5-1.7-8.3-0.4c-2.7,1.3-4.5,3.9-4.9,6.7c-2-2-5-2.9-8-2.2c-3,0.7-5.2,2.8-6.2,5.4
					c-1.6-2.4-4.2-3.9-7.3-3.9c-3,0-5.7,1.6-7.3,3.9c-1-2.6-3.3-4.8-6.2-5.4c-3-0.7-5.9,0.2-8,2.2c-0.4-2.8-2.1-5.4-4.9-6.7
					c-2.7-1.3-5.8-1.1-8.3,0.4c0.2-2.8-0.9-5.7-3.2-7.6c-2.4-1.9-5.4-2.3-8.1-1.5c0.9-2.7,0.4-5.8-1.5-8.1c-3-3.8-8.5-4.4-12.3-1.4
					c-3.8,3-4.4,8.5-1.4,12.3c2.3,2.9,6.2,3.9,9.5,2.9c-1.1,3.4-0.1,7.2,2.9,9.5c2.9,2.3,6.9,2.5,9.9,0.7c-0.3,3.5,1.5,7,4.9,8.6
					c3.4,1.6,7.3,0.9,9.8-1.6c0.5,3.5,3.1,6.5,6.7,7.3c3.6,0.8,7.3-0.8,9.2-3.7c1.2,3.3,4.4,5.7,8.2,5.7c3.7,0,6.9-2.4,8.2-5.7
					c1.9,2.9,5.6,4.5,9.2,3.7c3.6-0.8,6.2-3.8,6.7-7.3c2.6,2.4,6.4,3.2,9.8,1.6c3.4-1.6,5.2-5.1,4.9-8.6c3,1.8,7,1.7,9.9-0.7
					c2.9-2.3,3.9-6.2,2.9-9.5c3.4,1.1,7.2,0.1,9.5-2.9C730.7,151.5,730.1,146,726.3,143z"/>
				<path class="st61" d="M726.3,142.5c-3.8-3-9.3-2.4-12.3,1.4c-1.9,2.4-2.3,5.4-1.5,8.1c-2.7-0.9-5.8-0.4-8.1,1.5
					c-2.4,1.9-3.5,4.8-3.2,7.6c-2.4-1.4-5.5-1.7-8.3-0.4c-2.7,1.3-4.5,3.9-4.9,6.7c-2-2-5-2.9-8-2.2c-3,0.7-5.2,2.8-6.2,5.4
					c-1.6-2.4-4.2-3.9-7.3-3.9c-3,0-5.7,1.6-7.3,3.9c-1-2.6-3.3-4.8-6.2-5.4c-3-0.7-5.9,0.2-8,2.2c-0.4-2.8-2.1-5.4-4.9-6.7
					c-2.7-1.3-5.8-1.1-8.3,0.4c0.2-2.8-0.9-5.7-3.2-7.6c-2.4-1.9-5.4-2.3-8.1-1.5c0.9-2.7,0.4-5.8-1.5-8.1c-3-3.8-8.5-4.4-12.3-1.4
					c-3.8,3-4.4,8.5-1.4,12.3c2.3,2.9,6.2,3.9,9.5,2.9c-1.1,3.4-0.1,7.2,2.9,9.5c2.9,2.3,6.9,2.5,9.9,0.7c-0.3,3.5,1.5,7,4.9,8.6
					c3.4,1.6,7.3,0.9,9.8-1.6c0.5,3.5,3.1,6.5,6.7,7.3c3.6,0.8,7.3-0.8,9.2-3.7c1.2,3.3,4.4,5.7,8.2,5.7c3.7,0,6.9-2.4,8.2-5.7
					c1.9,2.9,5.6,4.5,9.2,3.7c3.6-0.8,6.2-3.8,6.7-7.3c2.6,2.4,6.4,3.2,9.8,1.6c3.4-1.6,5.2-5.1,4.9-8.6c3,1.8,7,1.7,9.9-0.7
					c2.9-2.3,3.9-6.2,2.9-9.5c3.4,1.1,7.2,0.1,9.5-2.9C730.7,151,730.1,145.5,726.3,142.5z"/>
				<path class="st62" d="M726.3,142.1c-3.8-3-9.3-2.4-12.3,1.4c-1.9,2.4-2.3,5.4-1.5,8.1c-2.7-0.9-5.8-0.4-8.1,1.5
					c-2.4,1.9-3.5,4.8-3.2,7.6c-2.4-1.4-5.5-1.7-8.3-0.4c-2.7,1.3-4.5,3.9-4.9,6.7c-2-2-5-2.9-8-2.2c-3,0.7-5.2,2.8-6.2,5.4
					c-1.6-2.4-4.2-3.9-7.3-3.9c-3,0-5.7,1.6-7.3,3.9c-1-2.6-3.3-4.8-6.2-5.4c-3-0.7-5.9,0.2-8,2.2c-0.4-2.8-2.1-5.4-4.9-6.7
					c-2.7-1.3-5.8-1.1-8.3,0.4c0.2-2.8-0.9-5.7-3.2-7.6c-2.4-1.9-5.4-2.3-8.1-1.5c0.9-2.7,0.4-5.8-1.5-8.1c-3-3.8-8.5-4.4-12.3-1.4
					c-3.8,3-4.4,8.5-1.4,12.3c2.3,2.9,6.2,3.9,9.5,2.9c-1.1,3.4-0.1,7.2,2.9,9.5c2.9,2.3,6.9,2.5,9.9,0.7c-0.3,3.5,1.5,7,4.9,8.6
					c3.4,1.6,7.3,0.9,9.8-1.6c0.5,3.5,3.1,6.5,6.7,7.3c3.6,0.8,7.3-0.8,9.2-3.7c1.2,3.3,4.4,5.7,8.2,5.7c3.7,0,6.9-2.4,8.2-5.7
					c1.9,2.9,5.6,4.5,9.2,3.7c3.6-0.8,6.2-3.8,6.7-7.3c2.6,2.4,6.4,3.2,9.8,1.6c3.4-1.6,5.2-5.1,4.9-8.6c3,1.8,7,1.7,9.9-0.7
					c2.9-2.3,3.9-6.2,2.9-9.5c3.4,1.1,7.2,0.1,9.5-2.9C730.7,150.6,730.1,145.1,726.3,142.1z"/>
				<path class="st63" d="M726.3,141.6c-3.8-3-9.3-2.4-12.3,1.4c-1.9,2.4-2.3,5.4-1.5,8.1c-2.7-0.9-5.8-0.4-8.1,1.5
					c-2.4,1.9-3.5,4.8-3.2,7.6c-2.4-1.4-5.5-1.7-8.3-0.4c-2.7,1.3-4.5,3.9-4.9,6.7c-2-2-5-2.9-8-2.2c-3,0.7-5.2,2.8-6.2,5.4
					c-1.6-2.4-4.2-3.9-7.3-3.9c-3,0-5.7,1.6-7.3,3.9c-1-2.6-3.3-4.8-6.2-5.4c-3-0.7-5.9,0.2-8,2.2c-0.4-2.8-2.1-5.4-4.9-6.7
					c-2.7-1.3-5.8-1.1-8.3,0.4c0.2-2.8-0.9-5.7-3.2-7.6c-2.4-1.9-5.4-2.3-8.1-1.5c0.9-2.7,0.4-5.8-1.5-8.1c-3-3.8-8.5-4.4-12.3-1.4
					c-3.8,3-4.4,8.5-1.4,12.3c2.3,2.9,6.2,3.9,9.5,2.9c-1.1,3.4-0.1,7.2,2.9,9.5c2.9,2.3,6.9,2.5,9.9,0.7c-0.3,3.5,1.5,7,4.9,8.6
					c3.4,1.6,7.3,0.9,9.8-1.6c0.5,3.5,3.1,6.5,6.7,7.3c3.6,0.8,7.3-0.8,9.2-3.7c1.2,3.3,4.4,5.7,8.2,5.7c3.7,0,6.9-2.4,8.2-5.7
					c1.9,2.9,5.6,4.5,9.2,3.7c3.6-0.8,6.2-3.8,6.7-7.3c2.6,2.4,6.4,3.2,9.8,1.6c3.4-1.6,5.2-5.1,4.9-8.6c3,1.8,7,1.7,9.9-0.7
					c2.9-2.3,3.9-6.2,2.9-9.5c3.4,1.1,7.2,0.1,9.5-2.9C730.7,150.1,730.1,144.6,726.3,141.6z"/>
				<path d="M726.3,141.2c-3.8-3-9.3-2.4-12.3,1.4c-1.9,2.4-2.3,5.4-1.5,8.1c-2.7-0.9-5.8-0.4-8.1,1.5c-2.4,1.9-3.5,4.8-3.2,7.6
					c-2.4-1.4-5.5-1.7-8.3-0.4c-2.7,1.3-4.5,3.9-4.9,6.7c-2-2-5-2.9-8-2.2c-3,0.7-5.2,2.8-6.2,5.4c-1.6-2.4-4.2-3.9-7.3-3.9
					c-3,0-5.7,1.6-7.3,3.9c-1-2.6-3.3-4.8-6.2-5.4c-3-0.7-5.9,0.2-8,2.2c-0.4-2.8-2.1-5.4-4.9-6.7c-2.7-1.3-5.8-1.1-8.3,0.4
					c0.2-2.8-0.9-5.7-3.2-7.6c-2.4-1.9-5.4-2.3-8.1-1.5c0.9-2.7,0.4-5.8-1.5-8.1c-3-3.8-8.5-4.4-12.3-1.4c-3.8,3-4.4,8.5-1.4,12.3
					c2.3,2.9,6.2,3.9,9.5,2.9c-1.1,3.4-0.1,7.2,2.9,9.5c2.9,2.3,6.9,2.5,9.9,0.7c-0.3,3.5,1.5,7,4.9,8.6c3.4,1.6,7.3,0.9,9.8-1.6
					c0.5,3.5,3.1,6.5,6.7,7.3c3.6,0.8,7.3-0.8,9.2-3.7c1.2,3.3,4.4,5.7,8.2,5.7c3.7,0,6.9-2.4,8.2-5.7c1.9,2.9,5.6,4.5,9.2,3.7
					c3.6-0.8,6.2-3.8,6.7-7.3c2.6,2.4,6.4,3.2,9.8,1.6c3.4-1.6,5.2-5.1,4.9-8.6c3,1.8,7,1.7,9.9-0.7c2.9-2.3,3.9-6.2,2.9-9.5
					c3.4,1.1,7.2,0.1,9.5-2.9C730.7,149.7,730.1,144.2,726.3,141.2z"/>
			</g>
		</g>
		<linearGradient id="SVGID_13_" gradientUnits="userSpaceOnUse" x1="657.8762" y1="35.3248" x2="675.3312" y2="35.3248">
			<stop  offset="0" style="stop-color:#01639C"/>
			<stop  offset="1" style="stop-color:#004580"/>
		</linearGradient>
		<circle class="st64" cx="666.6" cy="35.3" r="8.7"/>
		<linearGradient id="SVGID_14_" gradientUnits="userSpaceOnUse" x1="642.4302" y1="37.0649" x2="659.8892" y2="37.0649">
			<stop  offset="0" style="stop-color:#01639C"/>
			<stop  offset="1" style="stop-color:#004580"/>
		</linearGradient>
		<circle class="st65" cx="651.2" cy="37.1" r="8.7"/>
		<linearGradient id="SVGID_15_" gradientUnits="userSpaceOnUse" x1="627.7606" y1="42.198" x2="645.2197" y2="42.198">
			<stop  offset="0" style="stop-color:#01639C"/>
			<stop  offset="1" style="stop-color:#004580"/>
		</linearGradient>
		<circle class="st66" cx="636.5" cy="42.2" r="8.7"/>
		<linearGradient id="SVGID_16_" gradientUnits="userSpaceOnUse" x1="614.6027" y1="50.4667" x2="632.0584" y2="50.4667">
			<stop  offset="0" style="stop-color:#01639C"/>
			<stop  offset="1" style="stop-color:#004580"/>
		</linearGradient>
		<circle class="st67" cx="623.3" cy="50.5" r="8.7"/>
		<linearGradient id="SVGID_17_" gradientUnits="userSpaceOnUse" x1="603.613" y1="61.4564" x2="621.0688" y2="61.4564">
			<stop  offset="0" style="stop-color:#01639C"/>
			<stop  offset="1" style="stop-color:#004580"/>
		</linearGradient>
		<circle class="st68" cx="612.3" cy="61.5" r="8.7"/>
		<linearGradient id="SVGID_18_" gradientUnits="userSpaceOnUse" x1="603.613" y1="148.0026" x2="621.0688" y2="148.0026">
			<stop  offset="0" style="stop-color:#01639C"/>
			<stop  offset="1" style="stop-color:#004580"/>
		</linearGradient>
		<circle class="st69" cx="612.3" cy="148" r="8.7"/>
		<linearGradient id="SVGID_19_" gradientUnits="userSpaceOnUse" x1="614.6027" y1="158.9923" x2="632.0584" y2="158.9923">
			<stop  offset="0" style="stop-color:#01639C"/>
			<stop  offset="1" style="stop-color:#004580"/>
		</linearGradient>
		<circle class="st70" cx="623.3" cy="159" r="8.7"/>
		<linearGradient id="SVGID_20_" gradientUnits="userSpaceOnUse" x1="627.7606" y1="167.261" x2="645.2197" y2="167.261">
			<stop  offset="0" style="stop-color:#01639C"/>
			<stop  offset="1" style="stop-color:#004580"/>
		</linearGradient>
		<circle class="st71" cx="636.5" cy="167.3" r="8.7"/>
		<linearGradient id="SVGID_21_" gradientUnits="userSpaceOnUse" x1="642.4302" y1="172.3941" x2="659.8892" y2="172.3941">
			<stop  offset="0" style="stop-color:#01639C"/>
			<stop  offset="1" style="stop-color:#004580"/>
		</linearGradient>
		<circle class="st72" cx="651.2" cy="172.4" r="8.7"/>
		<linearGradient id="SVGID_22_" gradientUnits="userSpaceOnUse" x1="657.8762" y1="174.1342" x2="675.3312" y2="174.1342">
			<stop  offset="0" style="stop-color:#01639C"/>
			<stop  offset="1" style="stop-color:#004580"/>
		</linearGradient>
		<circle class="st73" cx="666.6" cy="174.1" r="8.7"/>
		<linearGradient id="SVGID_23_" gradientUnits="userSpaceOnUse" x1="673.3182" y1="172.3941" x2="690.7771" y2="172.3941">
			<stop  offset="0" style="stop-color:#01639C"/>
			<stop  offset="1" style="stop-color:#004580"/>
		</linearGradient>
		<circle class="st74" cx="682" cy="172.4" r="8.7"/>
		<linearGradient id="SVGID_24_" gradientUnits="userSpaceOnUse" x1="687.9877" y1="167.261" x2="705.4468" y2="167.261">
			<stop  offset="0" style="stop-color:#01639C"/>
			<stop  offset="1" style="stop-color:#004580"/>
		</linearGradient>
		<circle class="st75" cx="696.7" cy="167.3" r="8.7"/>
		<linearGradient id="SVGID_25_" gradientUnits="userSpaceOnUse" x1="701.1489" y1="158.9923" x2="718.6047" y2="158.9923">
			<stop  offset="0" style="stop-color:#01639C"/>
			<stop  offset="1" style="stop-color:#004580"/>
		</linearGradient>
		<circle class="st76" cx="709.9" cy="159" r="8.7"/>
		<linearGradient id="SVGID_26_" gradientUnits="userSpaceOnUse" x1="712.1386" y1="148.0026" x2="729.5943" y2="148.0026">
			<stop  offset="0" style="stop-color:#01639C"/>
			<stop  offset="1" style="stop-color:#004580"/>
		</linearGradient>
		<circle class="st77" cx="720.9" cy="148" r="8.7"/>
		<linearGradient id="SVGID_27_" gradientUnits="userSpaceOnUse" x1="720.4056" y1="134.8431" x2="737.8647" y2="134.8431">
			<stop  offset="0" style="stop-color:#01639C"/>
			<stop  offset="1" style="stop-color:#004580"/>
		</linearGradient>
		<circle class="st78" cx="729.1" cy="134.8" r="8.7"/>
		<linearGradient id="SVGID_28_" gradientUnits="userSpaceOnUse" x1="725.5388" y1="120.1735" x2="742.9977" y2="120.1735">
			<stop  offset="0" style="stop-color:#01639C"/>
			<stop  offset="1" style="stop-color:#004580"/>
		</linearGradient>
		<circle class="st79" cx="734.3" cy="120.2" r="8.7"/>
		<linearGradient id="SVGID_29_" gradientUnits="userSpaceOnUse" x1="727.2808" y1="104.7295" x2="744.7359" y2="104.7295">
			<stop  offset="0" style="stop-color:#01639C"/>
			<stop  offset="1" style="stop-color:#004580"/>
		</linearGradient>
		<circle class="st80" cx="736" cy="104.7" r="8.7"/>
		<linearGradient id="SVGID_30_" gradientUnits="userSpaceOnUse" x1="725.5388" y1="89.2855" x2="742.9977" y2="89.2855">
			<stop  offset="0" style="stop-color:#01639C"/>
			<stop  offset="1" style="stop-color:#004580"/>
		</linearGradient>
		<circle class="st81" cx="734.3" cy="89.3" r="8.7"/>
		<linearGradient id="SVGID_31_" gradientUnits="userSpaceOnUse" x1="720.4056" y1="74.6159" x2="737.8647" y2="74.6159">
			<stop  offset="0" style="stop-color:#01639C"/>
			<stop  offset="1" style="stop-color:#004580"/>
		</linearGradient>
		<circle class="st82" cx="729.1" cy="74.6" r="8.7"/>
		<linearGradient id="SVGID_32_" gradientUnits="userSpaceOnUse" x1="712.1386" y1="61.4564" x2="729.5943" y2="61.4564">
			<stop  offset="0" style="stop-color:#01639C"/>
			<stop  offset="1" style="stop-color:#004580"/>
		</linearGradient>
		<circle class="st83" cx="720.9" cy="61.5" r="8.7"/>
		<linearGradient id="SVGID_33_" gradientUnits="userSpaceOnUse" x1="701.1489" y1="50.4667" x2="718.6047" y2="50.4667">
			<stop  offset="0" style="stop-color:#01639C"/>
			<stop  offset="1" style="stop-color:#004580"/>
		</linearGradient>
		<circle class="st84" cx="709.9" cy="50.5" r="8.7"/>
		<linearGradient id="SVGID_34_" gradientUnits="userSpaceOnUse" x1="687.9877" y1="42.198" x2="705.4468" y2="42.198">
			<stop  offset="0" style="stop-color:#01639C"/>
			<stop  offset="1" style="stop-color:#004580"/>
		</linearGradient>
		<circle class="st85" cx="696.7" cy="42.2" r="8.7"/>
		<linearGradient id="SVGID_35_" gradientUnits="userSpaceOnUse" x1="673.3182" y1="37.0649" x2="690.7771" y2="37.0649">
			<stop  offset="0" style="stop-color:#01639C"/>
			<stop  offset="1" style="stop-color:#004580"/>
		</linearGradient>
		<circle class="st86" cx="682" cy="37.1" r="8.7"/>
		<g class="st87">
			<circle class="st51" cx="666.6" cy="104.7" r="73.1"/>
			<circle class="st52" cx="666.6" cy="104.7" r="72.9"/>
			<circle class="st53" cx="666.6" cy="104.7" r="72.6"/>
			<circle class="st54" cx="666.6" cy="104.7" r="72.4"/>
			<circle class="st55" cx="666.6" cy="104.7" r="72.1"/>
			<circle class="st56" cx="666.6" cy="104.7" r="71.9"/>
			<circle class="st57" cx="666.6" cy="104.7" r="71.6"/>
			<circle class="st58" cx="666.6" cy="104.7" r="71.4"/>
			<circle class="st59" cx="666.6" cy="104.7" r="71.1"/>
			<circle class="st60" cx="666.6" cy="104.7" r="70.8"/>
			<circle class="st61" cx="666.6" cy="104.7" r="70.6"/>
			<circle class="st62" cx="666.6" cy="104.7" r="70.3"/>
			<circle class="st63" cx="666.6" cy="104.7" r="70.1"/>
			<circle cx="666.6" cy="104.7" r="69.8"/>
		</g>
		<linearGradient id="SVGID_36_" gradientUnits="userSpaceOnUse" x1="625.9883" y1="37.822" x2="707.3198" y2="171.803">
			<stop  offset="0" style="stop-color:#014E7A"/>
			<stop  offset="1" style="stop-color:#003664"/>
		</linearGradient>
		<circle class="st88" cx="666.6" cy="104.7" r="69.8"/>
		<circle class="st7" cx="666.6" cy="104.7" r="59.8"/>
		<linearGradient id="SVGID_37_" gradientUnits="userSpaceOnUse" x1="625.9883" y1="37.822" x2="707.3199" y2="171.8032">
			<stop  offset="0" style="stop-color:#A7D63F"/>
			<stop  offset="7.382721e-02" style="stop-color:#9FD340"/>
			<stop  offset="1" style="stop-color:#39B54A"/>
		</linearGradient>
		<circle class="st89" cx="666.6" cy="104.7" r="56.1"/>
		<path class="st7" d="M625.9,110.7l27,29.3c1.1,1.2,3.1,1.2,4.1-0.1l47.2-58.2c1-1.2,0.8-3-0.5-3.9l-11.6-8.6
			c-1.2-0.9-2.9-0.6-3.8,0.5l-31,40.1c-1,1.3-2.9,1.4-4.1,0.3l-13.4-13.4c-1.1-1.1-2.8-1.1-3.9,0l-10.1,10.3
			C624.9,108,624.9,109.6,625.9,110.7z"/>
	</g>
</g>
</svg>
