<?xml version="1.0" encoding="utf-8"?>
<!-- Generator: Adobe Illustrator 19.2.1, SVG Export Plug-In . SVG Version: 6.00 Build 0)  -->
<svg version="1.1" id="Layer_1" xmlns="http://www.w3.org/2000/svg" xmlns:xlink="http://www.w3.org/1999/xlink" x="0px" y="0px"
	 viewBox="0 0 250 250" style="enable-background:new 0 0 250 250;" xml:space="preserve">
<style type="text/css">
	.st0{fill:#237EC1;}
	.st1{font-family:'Futura-Medium';}
	.st2{font-size:26.3079px;}
	.st3{fill:#BD9679;}
	.st4{fill:#CFA585;}
	.st5{fill:#E3B592;}
	.st6{fill:#494A70;}
	.st7{fill:#FAC7A0;}
	.st8{fill:#D6B398;}
	.st9{fill:#FFFFFF;}
	.st10{fill:#FFBD48;stroke:#E8953A;stroke-miterlimit:10;}
	.st11{fill:#FF914F;stroke:#FFFFFF;stroke-miterlimit:10;}
	.st12{fill:none;stroke:#FFFFFF;stroke-miterlimit:10;}
	.st13{font-size:9.1043px;}
	.st14{fill:#AFAFAF;}
	.st15{fill:#446785;}
	.st16{fill:#D8D9DA;}
	.st17{fill:#F5F5F5;}
	.st18{fill:#E1E1E1;}
	.st19{fill:#FF3632;}
	.st20{fill:#FFC200;}
	.st21{fill:#C8DD15;}
	.st22{fill:#FF6C00;}
	.st23{fill:#6BC43C;}
	.st24{filter:url(#Adobe_OpacityMaskFilter);}
	.st25{filter:url(#Adobe_OpacityMaskFilter_1_);}
	.st26{mask:url(#SVGID_1_);fill:url(#SVGID_2_);}
	.st27{fill:url(#SVGID_3_);}
	.st28{fill:#84CD5D;}
	.st29{fill:#41A029;}
	.st30{fill:#278C1F;}
	.st31{fill:#D8E86D;}
	.st32{fill:#AEB503;}
	.st33{fill:#A09E00;}
	.st34{fill:#FFD700;}
	.st35{fill:#FFA100;}
	.st36{fill:#FF9000;}
	.st37{fill:#FF7D00;}
	.st38{fill:#F94107;}
	.st39{fill:#DE3300;}
	.st40{fill:#FF524F;}
	.st41{fill:#E62323;}
	.st42{fill:#D61516;}
	.st43{fill:#BEBEBE;}
	.st44{fill:#404040;}
	.st45{fill:#616161;}
	.st46{fill:url(#SVGID_4_);}
	.st47{fill:url(#SVGID_5_);}
	.st48{fill:url(#SVGID_6_);}
	.st49{fill:url(#SVGID_7_);}
	.st50{fill:url(#SVGID_8_);}
	.st51{fill:url(#SVGID_9_);}
	.st52{fill:url(#SVGID_10_);}
	.st53{opacity:0.35;clip-path:url(#SVGID_12_);}
	.st54{opacity:0;}
	.st55{opacity:7.692300e-02;}
	.st56{opacity:0.1538;}
	.st57{opacity:0.2308;}
	.st58{opacity:0.3077;}
	.st59{opacity:0.3846;}
	.st60{opacity:0.4615;}
	.st61{opacity:0.5385;}
	.st62{opacity:0.6154;}
	.st63{opacity:0.6923;}
	.st64{opacity:0.7692;}
	.st65{opacity:0.8462;}
	.st66{opacity:0.9231;}
	.st67{fill:url(#SVGID_13_);}
	.st68{fill:url(#SVGID_14_);}
	.st69{fill:url(#SVGID_15_);}
	.st70{fill:url(#SVGID_16_);}
	.st71{fill:url(#SVGID_17_);}
	.st72{fill:url(#SVGID_18_);}
	.st73{fill:url(#SVGID_19_);}
	.st74{fill:url(#SVGID_20_);}
	.st75{fill:url(#SVGID_21_);}
	.st76{fill:url(#SVGID_22_);}
	.st77{fill:url(#SVGID_23_);}
	.st78{fill:url(#SVGID_24_);}
	.st79{fill:url(#SVGID_25_);}
	.st80{fill:url(#SVGID_26_);}
	.st81{fill:url(#SVGID_27_);}
	.st82{fill:url(#SVGID_28_);}
	.st83{fill:url(#SVGID_29_);}
	.st84{fill:url(#SVGID_30_);}
	.st85{fill:url(#SVGID_31_);}
	.st86{fill:url(#SVGID_32_);}
	.st87{fill:url(#SVGID_33_);}
	.st88{fill:url(#SVGID_34_);}
	.st89{fill:url(#SVGID_35_);}
	.st90{opacity:0.25;}
	.st91{fill:url(#SVGID_36_);}
	.st92{fill:url(#SVGID_37_);}
</style>
<text transform="matrix(0 -1 1 0 194.8135 151.3662)" class="st0 st1 st2"> - - - - - - </text>
<text transform="matrix(0 -1 1 0 62.0918 153.7666)" class="st0 st1 st2"> - - - - - - </text>
<g>
	<g>
		<path class="st3" d="M-528.7,183.8c0,0-7.2-1.4-9,10c-0.5,2.9,34.7,10.3,34.7,10.3l50.5,6.4l-5.7-15L-528.7,183.8z"/>
		<path class="st4" d="M-427.4,216.7c0,0-102.5-24.9-104.8-27.7c-2.3-2.7-1.5-13.2,7.7-14.4c9.2-1.2,30.3,4.4,30.3,4.4l31.7,0.6
			l63.3-5.4l27.2,25C-371.8,199.2-422.1,218-427.4,216.7z"/>
		<path class="st5" d="M-357.2,195.6c3.5,1.3,35.1,13.5,35.1,13.5l14-44.4c0,0-47-18.7-50.7-19.7c-3.7-0.9-10.8-8.2-42.5,7.8
			c-31.8,16-29.1,13.5-29.1,13.5s-34,4.2-41.5,11.8c-7.5,7.6-3,22,13.6,20.8c16.6-1.2,38-10.1,38-10.1l48.5,10.4
			C-371.8,199.2-360.6,194.3-357.2,195.6z"/>
		
			<rect x="-351.7" y="167" transform="matrix(0.2849 -0.9586 0.9586 0.2849 -406.3814 -173.4389)" class="st6" width="64.6" height="37.2"/>
	</g>
	<path class="st7" d="M-451.4,192.4c1.9-1.3,1.9-3.1,1.1-5.4c-0.8-2.3-2.1-9.5-3.4-10.2c-1.2-0.7-18.4-0.3-19.4,9.9
		c-0.8,8.4,9.5,8,11.8,7.8C-460.7,194.4-452.5,193.1-451.4,192.4z"/>
	<path class="st8" d="M-518.9,193.4c0,0-0.1-2.4-2.2-4c-2-1.5-9.6-2.9-10.5-2.4c-0.9,0.4-0.6,2.3-0.6,2.3L-518.9,193.4z"/>
	<path class="st8" d="M-524.3,199.1c0,0,0.2-1.3-1.5-2.8c-1.8-1.5-11.6-3.8-11.7-3.5c-0.1,0.3-0.4,1.9-0.4,1.9
		S-533.1,196.9-524.3,199.1z"/>
</g>
<circle class="st9" cx="-618.3" cy="111.3" r="0"/>
<circle class="st10" cx="-445.3" cy="115.8" r="33.5"/>
<path class="st11" d="M-161.7,147.1c-0.4-3.1-2.8-5.5-5.8-6.1c-7.8-1.4-16.6-5.7-25.4-9.1l-1.1-4.8c-0.8-0.1-1.5-0.3-2.3-0.4v-7.1
	l0.6-0.6c1.6-1.6,2.6-3.7,2.8-6c0.1-1.2,0.3-2.5,0.4-3.8c0.6,0.7,2.1,0.9,2.7,0.2c0.5-0.5,0.9-1.3,1.2-2.2c1-3.1,1.5-6.8,1.6-10.9
	c0.1-1.7-1.4-2.8-2.9-2.5c1.1-7.6,1-14,0.1-20.5c-2.3-1.7-4.2-2.7-7.2-2.8l-2.7-4.5c-9.6-5.1-24.9-2.4-33.5,5.9
	c-1.3,5.4-1.3,12.9-0.2,21.9c-1.4-0.3-3,0.8-2.9,2.5c0.2,4.1,0.7,7.8,1.6,10.9c0.3,1,0.7,1.7,1.2,2.2c0.6,0.7,2.1,0.4,2.7-0.2
	c0.1,1.3,0.3,2.6,0.4,3.8c0.2,2.2,1.2,4.3,2.8,5.9l0.6,0.6v7.1c-0.8,0.1-1.5,0.2-2.3,0.4l-1.1,4.9c-8.7,3.4-17.4,7.6-25.4,9
	c-3.1,0.5-5.5,3.1-5.9,6.2c-0.9,6.2-1.3,35.2-1.3,35.2s26.1,15.9,51,15.9s51.6-15.9,51.6-15.9S-161,151.6-161.7,147.1z"/>
<text transform="matrix(1 0 0 1 -224.0078 178.2461)" class="st9 st1" style="font-size:13.9235px;">&lt;/&gt;</text>
<circle class="st12" cx="-211.6" cy="172.7" r="15.2"/>
<path class="st11" d="M-28.7,150.2c-0.4-3.1-2.8-5.5-5.8-6.1c-7.8-1.4-16.6-5.7-25.4-9.1l-1.1-4.8c-0.8-0.1-1.5-0.3-2.3-0.4v-7.1
	l0.6-0.6c1.6-1.6,2.6-3.7,2.8-6c0.1-1.2,0.3-2.5,0.4-3.8c0.6,0.7,2.1,0.9,2.7,0.2c0.5-0.5,0.9-1.3,1.2-2.2c1-3.1,1.5-6.8,1.6-10.9
	c0.1-1.7-1.4-2.8-2.9-2.5c1.1-7.6,1-14,0.1-20.5c-2.3-1.7-4.2-2.7-7.2-2.8l-2.7-4.5c-9.6-5.1-24.9-2.4-33.5,5.9
	c-1.3,5.4-1.3,12.9-0.2,21.9c-1.4-0.3-3,0.8-2.9,2.5c0.2,4.1,0.7,7.8,1.6,10.9c0.3,1,0.7,1.7,1.2,2.2c0.6,0.7,2.1,0.4,2.7-0.2
	c0.1,1.3,0.3,2.6,0.4,3.8c0.2,2.2,1.2,4.3,2.8,5.9l0.6,0.6v7.1c-0.8,0.1-1.5,0.2-2.3,0.4l-1.1,4.9c-8.7,3.4-17.4,7.6-25.4,9
	c-3.1,0.5-5.5,3.1-5.9,6.2c-0.9,6.2-1.3,35.2-1.3,35.2s26.1,15.9,51,15.9s51.6-15.9,51.6-15.9S-28.1,154.7-28.7,150.2z"/>
<text transform="matrix(1 0 0 1 -91.125 178.7998)" class="st9 st1" style="font-size:13.9235px;">&lt;/&gt;</text>
<circle class="st12" cx="-79.3" cy="173.9" r="15.2"/>
<path class="st11" d="M-95.2,184.7c-0.4-3.1-2.8-5.5-5.8-6.1c-7.8-1.4-16.6-5.7-25.4-9.1l-1.1-4.8c-0.8-0.1-1.5-0.3-2.3-0.4v-7.1
	l0.6-0.6c1.6-1.6,2.6-3.7,2.8-6c0.1-1.2,0.3-2.5,0.4-3.8c0.6,0.7,2.1,0.9,2.7,0.2c0.5-0.5,0.9-1.3,1.2-2.2c1-3.1,1.5-6.8,1.6-10.9
	c0.1-1.7-1.4-2.8-2.9-2.5c1.1-7.6,1-14,0.1-20.5c-2.3-1.7-4.2-2.7-7.2-2.8l-2.7-4.5c-9.6-5.1-24.9-2.4-33.5,5.9
	c-1.3,5.4-1.3,12.9-0.2,21.9c-1.4-0.3-3,0.8-2.9,2.5c0.2,4.1,0.7,7.8,1.6,10.9c0.3,1,0.7,1.7,1.2,2.2c0.6,0.7,2.1,0.4,2.7-0.2
	c0.1,1.3,0.3,2.6,0.4,3.8c0.2,2.2,1.2,4.3,2.8,5.9l0.6,0.6v7.1c-0.8,0.1-1.5,0.2-2.3,0.4l-1.1,4.9c-8.7,3.4-17.4,7.6-25.4,9
	c-3.1,0.5-5.5,3.1-5.9,6.2c-0.9,6.2-1.3,35.2-1.3,35.2s26.1,15.9,51,15.9S-93.9,220-93.9,220S-94.6,189.3-95.2,184.7z"/>
<text transform="matrix(1 0 0 1 -157.6382 213.3154)" class="st9 st1" style="font-size:13.9235px;">&lt;/&gt;</text>
<circle class="st12" cx="-145.9" cy="208.4" r="15.2"/>
<path class="st0" d="M89.2,67.3c-0.3-2-1.8-3.6-3.8-4c-5.1-0.9-10.9-3.7-16.6-5.9l-0.7-3.1c-0.5-0.1-1-0.2-1.5-0.3v-4.7L67,49
	c1-1.1,1.7-2.4,1.8-3.9c0.1-0.8,0.2-1.6,0.3-2.5c0.4,0.4,1.4,0.6,1.7,0.2c0.3-0.4,0.6-0.8,0.8-1.5c0.6-2,1-4.4,1.1-7.1
	c0-1.1-0.9-1.8-1.9-1.6c0.7-5,0.6-9.2,0.1-13.4c-1.5-1.1-2.8-1.7-4.7-1.8l-1.8-2.9c-6.3-3.3-16.3-1.5-21.9,3.9
	c-0.8,3.5-0.9,8.4-0.1,14.3c-0.9-0.2-1.9,0.5-1.9,1.6c0.1,2.7,0.4,5.1,1.1,7.1c0.2,0.6,0.5,1.1,0.8,1.5c0.4,0.4,1.4,0.3,1.7-0.2
	c0.1,0.9,0.2,1.7,0.3,2.5c0.1,1.5,0.8,2.8,1.8,3.9l0.4,0.4V54c-0.5,0.1-1,0.2-1.5,0.3l-0.7,3.2c-5.7,2.2-11.4,5-16.6,5.9
	c-2,0.4-3.6,2-3.8,4c-0.6,4-0.9,23-0.9,23s17,10.4,33.4,10.4s33.7-10.4,33.7-10.4S89.6,70.3,89.2,67.3z"/>
<text transform="matrix(1 0 0 1 48.3857 86.0557)" class="st9 st1 st13">&lt;/&gt;</text>
<circle class="st12" cx="56.1" cy="82.9" r="9.9"/>
<path class="st0" d="M221.1,67.3c-0.3-2-1.8-3.6-3.8-4c-5.1-0.9-10.9-3.7-16.6-5.9l-0.7-3.1c-0.5-0.1-1-0.2-1.5-0.3v-4.7l0.4-0.4
	c1-1.1,1.7-2.4,1.8-3.9c0.1-0.8,0.2-1.6,0.3-2.5c0.4,0.4,1.4,0.6,1.7,0.2c0.3-0.4,0.6-0.8,0.8-1.5c0.6-2,1-4.4,1.1-7.1
	c0-1.1-0.9-1.8-1.9-1.6c0.7-5,0.6-9.2,0.1-13.4c-1.5-1.1-2.8-1.7-4.7-1.8l-1.8-2.9c-6.3-3.3-16.3-1.5-21.9,3.9
	c-0.8,3.5-0.9,8.4-0.1,14.3c-0.9-0.2-1.9,0.5-1.9,1.6c0.1,2.7,0.4,5.1,1.1,7.1c0.2,0.6,0.5,1.1,0.8,1.5c0.4,0.4,1.4,0.3,1.7-0.2
	c0.1,0.9,0.2,1.7,0.3,2.5c0.1,1.5,0.8,2.8,1.8,3.9l0.4,0.4V54c-0.5,0.1-1,0.2-1.5,0.3l-0.7,3.2c-5.7,2.2-11.4,5-16.6,5.9
	c-2,0.4-3.6,2-3.8,4c-0.6,4-0.9,23-0.9,23s17,10.4,33.4,10.4S222,90.4,222,90.4S221.5,70.3,221.1,67.3z"/>
<text transform="matrix(1 0 0 1 180.3076 86.0557)" class="st9 st1 st13">&lt;/&gt;</text>
<circle class="st12" cx="188" cy="82.9" r="9.9"/>
<path class="st0" d="M221.1,202.9c-0.3-2-1.8-3.6-3.8-4c-5.1-0.9-10.9-3.7-16.6-5.9l-0.7-3.1c-0.5-0.1-1-0.2-1.5-0.3v-4.7l0.4-0.4
	c1-1.1,1.7-2.4,1.8-3.9c0.1-0.8,0.2-1.6,0.3-2.5c0.4,0.4,1.4,0.6,1.7,0.2c0.3-0.4,0.6-0.8,0.8-1.5c0.6-2,1-4.4,1.1-7.1
	c0-1.1-0.9-1.8-1.9-1.6c0.7-5,0.6-9.2,0.1-13.4c-1.5-1.1-2.8-1.7-4.7-1.8l-1.8-2.9c-6.3-3.3-16.3-1.5-21.9,3.9
	c-0.8,3.5-0.9,8.4-0.1,14.3c-0.9-0.2-1.9,0.5-1.9,1.6c0.1,2.7,0.4,5.1,1.1,7.1c0.2,0.6,0.5,1.1,0.8,1.5c0.4,0.4,1.4,0.3,1.7-0.2
	c0.1,0.9,0.2,1.7,0.3,2.5c0.1,1.5,0.8,2.8,1.8,3.9l0.4,0.4v4.7c-0.5,0.1-1,0.2-1.5,0.3l-0.7,3.2c-5.7,2.2-11.4,5-16.6,5.9
	c-2,0.4-3.6,2-3.8,4c-0.6,4-0.9,23-0.9,23s17,10.4,33.4,10.4s33.7-10.4,33.7-10.4S221.5,205.8,221.1,202.9z"/>
<text transform="matrix(1 0 0 1 180.3076 221.5757)" class="st9 st1 st13">&lt;/&gt;</text>
<circle class="st12" cx="188" cy="218.4" r="9.9"/>
<path class="st0" d="M89.2,202.9c-0.3-2-1.8-3.6-3.8-4c-5.1-0.9-10.9-3.7-16.6-5.9l-0.7-3.1c-0.5-0.1-1-0.2-1.5-0.3v-4.7l0.4-0.4
	c1-1.1,1.7-2.4,1.8-3.9c0.1-0.8,0.2-1.6,0.3-2.5c0.4,0.4,1.4,0.6,1.7,0.2c0.3-0.4,0.6-0.8,0.8-1.5c0.6-2,1-4.4,1.1-7.1
	c0-1.1-0.9-1.8-1.9-1.6c0.7-5,0.6-9.2,0.1-13.4c-1.5-1.1-2.8-1.7-4.7-1.8l-1.8-2.9c-6.3-3.3-16.3-1.5-21.9,3.9
	c-0.8,3.5-0.9,8.4-0.1,14.3c-0.9-0.2-1.9,0.5-1.9,1.6c0.1,2.7,0.4,5.1,1.1,7.1c0.2,0.6,0.5,1.1,0.8,1.5c0.4,0.4,1.4,0.3,1.7-0.2
	c0.1,0.9,0.2,1.7,0.3,2.5c0.1,1.5,0.8,2.8,1.8,3.9l0.4,0.4v4.7c-0.5,0.1-1,0.2-1.5,0.3l-0.7,3.2c-5.7,2.2-11.4,5-16.6,5.9
	c-2,0.4-3.6,2-3.8,4c-0.6,4-0.9,23-0.9,23s17,10.4,33.4,10.4s33.7-10.4,33.7-10.4S89.6,205.8,89.2,202.9z"/>
<text transform="matrix(1 0 0 1 48.3857 221.5757)" class="st9 st1 st13">&lt;/&gt;</text>
<circle class="st12" cx="56.1" cy="218.4" r="9.9"/>
<g>
	<g>
		<g>
			<g>
				<path class="st0" d="M95,152.8C95,152.8,95,152.9,95,152.8c0,0.1,0,0.1,0,0.1c0,0,0,0,0,0.1c0,0,0,0,0,0.1c0,0,0,0,0,0.1
					c0,0,0,0,0,0.1c0,0,0,0,0,0.1c0,0,0,0,0,0.1c0,0,0,0,0,0.1c0,0,0,0,0,0.1c0,0,0,0,0,0c0.1,0.1,0.1,0.1,0.2,0.2c0,0,0,0,0,0
					c0,0,0,0,0.1,0c0,0,0,0,0.1,0c0,0,0,0,0.1,0c0,0,0,0,0.1,0c0,0,0,0,0.1,0c0,0,0,0,0.1,0c0,0,0,0,0.1,0c0,0,0,0,0.1,0
					c0,0,0,0,0.1,0c0,0,0,0,0.1,0c0,0,0,0,0.1,0c0,0,0.1,0,0.1,0l12.4,0c0.8,0,1.4-0.6,1.4-1.4c0-0.8-0.6-1.4-1.4-1.4l-9,0
					l31.8-31.8v-2l-2,0l-31.8,31.8l0-9c0-0.8-0.6-1.4-1.4-1.4c-0.4,0-0.8,0.2-1,0.4c-0.3,0.3-0.4,0.6-0.4,1v12.4
					C95,152.7,95,152.7,95,152.8C95,152.8,95,152.8,95,152.8z"/>
			</g>
		</g>
	</g>
	<g>
		<g>
			<g>
				<path class="st0" d="M154.8,95.4C154.8,95.4,154.8,95.4,154.8,95.4c0-0.1,0-0.1,0-0.1c0,0,0,0,0-0.1c0,0,0,0,0-0.1
					c0,0,0,0,0-0.1c0,0,0,0,0-0.1c0,0,0,0,0-0.1c0,0,0,0,0-0.1c0,0,0,0,0-0.1c0,0,0,0,0-0.1c0,0,0,0,0,0c-0.1-0.1-0.1-0.1-0.2-0.2
					c0,0,0,0,0,0c0,0,0,0-0.1,0c0,0,0,0-0.1,0c0,0,0,0-0.1,0c0,0,0,0-0.1,0c0,0,0,0-0.1,0c0,0,0,0-0.1,0c0,0,0,0-0.1,0
					c0,0,0,0-0.1,0c0,0,0,0-0.1,0c0,0,0,0-0.1,0c0,0,0,0-0.1,0c0,0-0.1,0-0.1,0l-12.4,0c-0.8,0-1.4,0.6-1.4,1.4
					c0,0.8,0.6,1.4,1.4,1.4l9,0l-31.8,31.8v2l2,0L152,99.1l0,9c0,0.8,0.6,1.4,1.4,1.4c0.4,0,0.8-0.2,1-0.4c0.3-0.3,0.4-0.6,0.4-1
					V95.6C154.9,95.6,154.9,95.5,154.8,95.4C154.9,95.4,154.9,95.4,154.8,95.4z"/>
			</g>
		</g>
	</g>
	<g>
		<g>
			<g>
				<path class="st0" d="M96.2,93.9C96.2,93.9,96.2,93.9,96.2,93.9c-0.1,0-0.1,0-0.1,0c0,0,0,0-0.1,0c0,0,0,0-0.1,0c0,0,0,0-0.1,0
					c0,0,0,0-0.1,0c0,0,0,0-0.1,0c0,0,0,0-0.1,0c0,0,0,0-0.1,0c0,0,0,0-0.1,0c0,0,0,0,0,0c-0.1,0.1-0.1,0.1-0.2,0.2c0,0,0,0,0,0
					c0,0,0,0,0,0.1c0,0,0,0,0,0.1c0,0,0,0,0,0.1c0,0,0,0,0,0.1c0,0,0,0,0,0.1c0,0,0,0,0,0.1c0,0,0,0,0,0.1c0,0,0,0,0,0.1
					c0,0,0,0,0,0.1c0,0,0,0,0,0.1c0,0,0,0,0,0.1c0,0,0,0.1,0,0.1l0,12.4c0,0.8,0.6,1.4,1.4,1.4c0.8,0,1.4-0.6,1.4-1.4l0-9l31.8,31.8
					h2l0-2L99.9,96.7l9,0c0.8,0,1.4-0.6,1.4-1.4c0-0.4-0.2-0.8-0.4-1c-0.3-0.3-0.6-0.4-1-0.4H96.4C96.4,93.9,96.3,93.9,96.2,93.9
					C96.3,93.9,96.3,93.9,96.2,93.9z"/>
			</g>
		</g>
	</g>
	<g>
		<g>
			<g>
				<path class="st0" d="M153.6,153.7C153.7,153.7,153.7,153.7,153.6,153.7c0.1,0,0.1,0,0.1,0c0,0,0,0,0.1,0c0,0,0,0,0.1,0
					c0,0,0,0,0.1,0c0,0,0,0,0.1,0c0,0,0,0,0.1,0c0,0,0,0,0.1,0c0,0,0,0,0.1,0c0,0,0,0,0.1,0c0,0,0,0,0,0c0.1-0.1,0.1-0.1,0.2-0.2
					c0,0,0,0,0,0c0,0,0,0,0-0.1c0,0,0,0,0-0.1c0,0,0,0,0-0.1c0,0,0,0,0-0.1c0,0,0,0,0-0.1c0,0,0,0,0-0.1c0,0,0,0,0-0.1
					c0,0,0,0,0-0.1c0,0,0,0,0-0.1c0,0,0,0,0-0.1c0,0,0,0,0-0.1c0,0,0-0.1,0-0.1l0-12.4c0-0.8-0.6-1.4-1.4-1.4
					c-0.8,0-1.4,0.6-1.4,1.4l0,9l-31.8-31.8h-2l0,2l31.8,31.8l-9,0c-0.8,0-1.4,0.6-1.4,1.4c0,0.4,0.2,0.8,0.4,1
					c0.3,0.3,0.6,0.4,1,0.4h12.4C153.5,153.7,153.5,153.7,153.6,153.7C153.6,153.7,153.6,153.7,153.6,153.7z"/>
			</g>
		</g>
	</g>
</g>
<text transform="matrix(1 0 0 1 50.5 60.4141)" class="st0 st1 st2">- - - - - - - - - - - </text>
<text transform="matrix(1 0 0 1 45.7021 195.8037)" class="st0 st1 st2">- - - - - - - - - - - </text>
<g>
	<g>
		<g>
			<g>
				<path class="st14" d="M-518.8,498c0,0.1,0,0.2,0,0.3c0,0.1,0,0.2,0.1,0.3c0,0.1,0,0.1,0.1,0.2c0,0.1,0.1,0.2,0.1,0.2
					c0,0.1,0.1,0.1,0.1,0.2c0,0.1,0.1,0.1,0.1,0.2c0,0.1,0.1,0.1,0.1,0.2c0,0.1,0.1,0.1,0.1,0.2c0,0.1,0.1,0.1,0.1,0.2
					c0.1,0.1,0.1,0.2,0.2,0.2c0,0.1,0.1,0.1,0.1,0.2c0.2,0.3,0.4,0.5,0.7,0.7c0.1,0,0.1,0.1,0.2,0.1c0.1,0.1,0.1,0.1,0.2,0.2
					c0.1,0,0.1,0.1,0.2,0.1c0.1,0,0.1,0.1,0.2,0.1c0.1,0,0.1,0.1,0.2,0.1c0.1,0,0.1,0.1,0.2,0.1c0.1,0,0.1,0.1,0.2,0.1
					c0.1,0,0.2,0.1,0.2,0.1c0.1,0,0.1,0,0.2,0.1c0.1,0,0.2,0,0.3,0.1c0.1,0,0.2,0,0.3,0c0.1,0,0.1,0,0.2,0c0.2,0,0.3,0,0.5,0l43.6,0
					c2.8,0,5-2.2,5-5c0-2.8-2.2-5-5-5l-31.5,0l111.3-111.3v-7.1l-7.1,0l-111.3,111.3l0-31.5c0-2.8-2.2-5-5-5c-1.4,0-2.6,0.6-3.5,1.5
					c-0.9,0.9-1.5,2.2-1.5,3.5v43.6c0,0.2,0,0.3,0,0.5C-518.8,497.8-518.8,497.9-518.8,498z"/>
			</g>
		</g>
	</g>
	<g>
		<g>
			<g>
				<path class="st14" d="M-309.3,296.9c0-0.1,0-0.2,0-0.3c0-0.1,0-0.2-0.1-0.3c0-0.1,0-0.1-0.1-0.2c0-0.1-0.1-0.2-0.1-0.2
					c0-0.1-0.1-0.1-0.1-0.2c0-0.1-0.1-0.1-0.1-0.2c0-0.1-0.1-0.1-0.1-0.2c0-0.1-0.1-0.1-0.1-0.2c0-0.1-0.1-0.1-0.1-0.2
					c-0.1-0.1-0.1-0.2-0.2-0.2c0-0.1-0.1-0.1-0.1-0.2c-0.2-0.3-0.4-0.5-0.7-0.7c-0.1,0-0.1-0.1-0.2-0.1c-0.1-0.1-0.1-0.1-0.2-0.2
					c-0.1,0-0.1-0.1-0.2-0.1c-0.1,0-0.1-0.1-0.2-0.1c-0.1,0-0.1-0.1-0.2-0.1c-0.1,0-0.1-0.1-0.2-0.1c-0.1,0-0.1-0.1-0.2-0.1
					c-0.1,0-0.2-0.1-0.2-0.1c-0.1,0-0.1,0-0.2-0.1c-0.1,0-0.2,0-0.3-0.1c-0.1,0-0.2,0-0.3,0c-0.1,0-0.1,0-0.2,0c-0.2,0-0.3,0-0.5,0
					l-43.6,0c-2.8,0-5,2.2-5,5c0,2.8,2.2,5,5,5l31.5,0l-111.3,111.3v7.1l7.1,0l111.3-111.3l0,31.5c0,2.8,2.2,5,5,5
					c1.4,0,2.6-0.6,3.5-1.5c0.9-0.9,1.5-2.2,1.5-3.5v-43.6c0-0.2,0-0.3,0-0.5C-309.3,297-309.3,297-309.3,296.9z"/>
			</g>
		</g>
	</g>
	<g>
		<g>
			<g>
				<path class="st14" d="M-514.6,291.6c-0.1,0-0.2,0-0.3,0c-0.1,0-0.2,0-0.3,0.1c-0.1,0-0.1,0-0.2,0.1c-0.1,0-0.2,0.1-0.2,0.1
					c-0.1,0-0.1,0.1-0.2,0.1c-0.1,0-0.1,0.1-0.2,0.1c-0.1,0-0.1,0.1-0.2,0.1c-0.1,0-0.1,0.1-0.2,0.1c-0.1,0-0.1,0.1-0.2,0.1
					c-0.1,0.1-0.2,0.1-0.2,0.2c-0.1,0-0.1,0.1-0.2,0.1c-0.3,0.2-0.5,0.4-0.7,0.7c0,0.1-0.1,0.1-0.1,0.2c-0.1,0.1-0.1,0.1-0.2,0.2
					c0,0.1-0.1,0.1-0.1,0.2c0,0.1-0.1,0.1-0.1,0.2c0,0.1-0.1,0.1-0.1,0.2c0,0.1-0.1,0.1-0.1,0.2c0,0.1-0.1,0.1-0.1,0.2
					c0,0.1-0.1,0.2-0.1,0.2c0,0.1,0,0.1-0.1,0.2c0,0.1,0,0.2-0.1,0.3c0,0.1,0,0.2,0,0.3c0,0.1,0,0.1,0,0.2c0,0.2,0,0.3,0,0.5l0,43.6
					c0,2.8,2.2,5,5,5c2.8,0,5-2.2,5-5l0-31.5l111.3,111.3h7.1l0-7.1l-111.3-111.3l31.5,0c2.8,0,5-2.2,5-5c0-1.4-0.6-2.6-1.5-3.5
					c-0.9-0.9-2.2-1.5-3.5-1.5h-43.6c-0.2,0-0.3,0-0.5,0C-514.4,291.6-514.5,291.6-514.6,291.6z"/>
			</g>
		</g>
	</g>
	<g>
		<g>
			<g>
				<path class="st14" d="M-313.5,501.1c0.1,0,0.2,0,0.3,0c0.1,0,0.2,0,0.3-0.1c0.1,0,0.1,0,0.2-0.1c0.1,0,0.2-0.1,0.2-0.1
					c0.1,0,0.1-0.1,0.2-0.1c0.1,0,0.1-0.1,0.2-0.1c0.1,0,0.1-0.1,0.2-0.1c0.1,0,0.1-0.1,0.2-0.1c0.1,0,0.1-0.1,0.2-0.1
					c0.1-0.1,0.2-0.1,0.2-0.2c0.1,0,0.1-0.1,0.2-0.1c0.3-0.2,0.5-0.4,0.7-0.7c0-0.1,0.1-0.1,0.1-0.2c0.1-0.1,0.1-0.1,0.2-0.2
					c0-0.1,0.1-0.1,0.1-0.2c0-0.1,0.1-0.1,0.1-0.2c0-0.1,0.1-0.1,0.1-0.2c0-0.1,0.1-0.1,0.1-0.2c0-0.1,0.1-0.1,0.1-0.2
					c0-0.1,0.1-0.2,0.1-0.2c0-0.1,0-0.1,0.1-0.2c0-0.1,0-0.2,0.1-0.3c0-0.1,0-0.2,0-0.3c0-0.1,0-0.1,0-0.2c0-0.2,0-0.3,0-0.5l0-43.6
					c0-2.8-2.2-5-5-5c-2.8,0-5,2.2-5,5l0,31.5l-111.3-111.3h-7.1l0,7.1l111.3,111.3l-31.5,0c-2.8,0-5,2.2-5,5c0,1.4,0.6,2.6,1.5,3.5
					c0.9,0.9,2.2,1.5,3.5,1.5h43.6c0.2,0,0.3,0,0.5,0C-313.6,501.1-313.6,501.1-313.5,501.1z"/>
			</g>
		</g>
	</g>
</g>
<rect x="-472" y="338.9" transform="matrix(0.7071 0.7071 -0.7071 0.7071 158.5027 409.3406)" class="st9" width="114.2" height="114.2"/>
<g>
	<path class="st15" d="M-371.2,394.6c0-1.7-0.2-3.3-0.5-5l-8.7-1.4l-2.9-8.2l5.8-6.6c-1.7-2.9-3.8-5.6-6.2-8l-7.8,3.9l-7.2-4.9
		l0.8-8.8c-3-1.3-6.1-2.2-9.4-2.8l-4.1,7.8l-8.7,0.2l-4.5-7.6c-3.3,0.8-6.5,1.9-9.5,3.4l1.3,8.7l-6.9,5.3l-8.1-3.5
		c-2.2,2.5-4.1,5.3-5.7,8.3l6.1,6.3l-2.5,8.3l-8.6,1.9c-0.2,1.7-0.2,3.5-0.2,5.3c0.1,1.6,0.2,3.2,0.4,4.8l8.7,1.5l2.9,8.2l-5.8,6.6
		c1.8,2.9,3.8,5.6,6.2,8l7.9-3.9l7.2,4.9l-0.8,8.8c3.1,1.3,6.3,2.3,9.7,2.9l4.1-7.8l8.7-0.2l4.5,7.6c3.3-0.8,6.5-1.9,9.5-3.4
		l-1.3-8.7l6.9-5.3l8.1,3.5c2.2-2.5,4.1-5.3,5.7-8.3l-6.2-6.2l2.4-8.4l8.6-1.9C-371.2,398-371.1,396.3-371.2,394.6z M-401.9,410.7
		c-8.1,7.1-20.5,6.4-27.7-1.8c-7.1-8.2-6.3-20.5,1.8-27.6c8.1-7.2,20.5-6.4,27.6,1.8C-393,391.2-393.8,403.6-401.9,410.7z"/>
	<path class="st16" d="M-393.3,377.1c-10.5-11.9-28.6-13.1-40.5-2.6c-11.9,10.5-13.1,28.6-2.6,40.5c10.4,11.9,28.6,13.1,40.5,2.6
		C-384,407.1-382.9,388.9-393.3,377.1z M-397.8,415.4c-10.7,9.4-27.1,8.4-36.5-2.4c-9.5-10.7-8.4-27.1,2.3-36.5
		c10.7-9.4,27.1-8.4,36.5,2.4C-386,389.6-387.1,406-397.8,415.4z"/>
</g>
<g>
	<g>
		<path class="st17" d="M-24.8,462.6c0-26.3-8.5-50.7-22.8-70.6l0,0c-0.2-0.3-0.5-0.7-0.7-1l0,0c-22.1-29.9-57.6-49.4-97.5-49.4
			c-12.8,0-25.2,2-36.8,5.7l0,0c-0.1,0-0.3,0.1-0.4,0.1c-24.4,7.9-45.4,23.4-60.3,43.6l0,0c-0.2,0.3-0.5,0.7-0.7,1v0
			c-14.3,19.9-22.8,44.3-22.8,70.6h3.2h20.1c0,0,0,0,0,0l0,0h3.1h13h39h85.3h39h13h3.1c0,0,0,0,0,0h20.1H-24.8z"/>
		<path class="st17" d="M-45.7,505.1H-246c-11.6,0-20.9-9.4-20.9-20.9v-21.5h242.2v21.5C-24.8,495.7-34.2,505.1-45.7,505.1z"/>
		<path class="st17" d="M-263.8,487v-24.4h235.8V487c0,8.4-6.8,15.2-15.2,15.2h-205.5C-257,502.2-263.8,495.4-263.8,487z"/>
		<path class="st17" d="M-192.5,462.6c4.3,0,8-3.1,8.9-7.3c3.7-17.5,19.2-30.6,37.8-30.6c18.6,0,34.1,13.1,37.8,30.6
			c0.9,4.2,4.6,7.3,8.9,7.3h74.4c0-66.8-54.3-121.1-121.1-121.1s-121.1,54.3-121.1,121.1H-192.5z"/>
		<path class="st18" d="M-196.9,462.6c6.5,0,12.2-4.3,14-10.5c4.8-15.9,19.5-27.4,36.9-27.4c17.4,0,32.1,11.6,36.9,27.4
			c1.9,6.2,7.6,10.5,14,10.5h59.9c3.9,0,7-3.3,6.8-7.2c-3.7-61.8-55-110.7-117.7-110.7s-114,49-117.7,110.7
			c-0.2,3.9,2.9,7.2,6.8,7.2H-196.9z"/>
		<g>
			<g>
				<path class="st19" d="M-243.7,462.7h55.2c4,0,7.4-2.8,8.2-6.6c1-5.1,3.1-9.9,6.1-14l-50.8-36.9
					C-236.8,421.3-243.7,441.2-243.7,462.7z"/>
				<path class="st20" d="M-176.1,369.6l19.4,59.7c3.4-1.1,7.1-1.7,10.8-1.7c3.8,0,7.4,0.6,10.8,1.7l19.4-59.7
					c-9.5-3.1-19.7-4.8-30.2-4.8C-156.4,364.8-166.6,366.5-176.1,369.6z"/>
				<path class="st21" d="M-115.6,369.6l-19.4,59.7c7.1,2.3,13.2,6.8,17.5,12.8l50.8-36.9C-78.7,388.6-95.8,376-115.6,369.6z"/>
				<path class="st22" d="M-225,405.1l50.8,36.9c4.3-5.9,10.4-10.4,17.5-12.8l-19.4-59.7C-195.9,376-213,388.6-225,405.1z"/>
				<path class="st23" d="M-117.5,442c3,4.1,5.1,8.8,6.1,14c0.7,3.9,4.2,6.6,8.2,6.6H-48c0-21.5-6.9-41.4-18.7-57.5L-117.5,442z"/>
				<defs>
					<filter id="Adobe_OpacityMaskFilter" filterUnits="userSpaceOnUse" x="-243.7" y="364.8" width="195.7" height="97.8">
						<feFlood  style="flood-color:white;flood-opacity:1" result="back"/>
						<feBlend  in="SourceGraphic" in2="back" mode="normal"/>
					</filter>
				</defs>
				<mask maskUnits="userSpaceOnUse" x="-243.7" y="364.8" width="195.7" height="97.8" id="SVGID_1_">
					<g class="st24">
						<defs>
							<filter id="Adobe_OpacityMaskFilter_1_" filterUnits="userSpaceOnUse" x="-243.7" y="364.8" width="195.7" height="97.8">
								<feFlood  style="flood-color:white;flood-opacity:1" result="back"/>
								<feBlend  in="SourceGraphic" in2="back" mode="normal"/>
							</filter>
						</defs>
						<mask maskUnits="userSpaceOnUse" x="-243.7" y="364.8" width="195.7" height="97.8" id="SVGID_1_">
							<g class="st25">
							</g>
						</mask>
						
							<radialGradient id="SVGID_2_" cx="-146.2258" cy="480.5123" r="106.9264" gradientTransform="matrix(0.92 0 0 0.92 -11.6 20.8)" gradientUnits="userSpaceOnUse">
							<stop  offset="0" style="stop-color:#1A1A1A"/>
							<stop  offset="1" style="stop-color:#333333"/>
						</radialGradient>
						<path class="st26" d="M-115.6,369.6c-9.5-3.1-19.7-4.8-30.2-4.8c-10.6,0-20.7,1.7-30.2,4.8c-19.8,6.4-36.9,19-48.9,35.6
							c-11.7,16.1-18.7,36-18.7,57.5h3.1c0-20.2,6.3-39.4,18.1-55.7c11.7-16.1,28.5-28.3,47.3-34.4c9.4-3.1,19.3-4.6,29.3-4.6
							s19.8,1.6,29.3,4.6c18.8,6.1,35.6,18.3,47.3,34.4c11.8,16.3,18.1,35.5,18.1,55.7h3.1c0-21.5-6.9-41.4-18.7-57.5
							C-78.7,388.6-95.8,376-115.6,369.6z"/>
					</g>
				</mask>
				
					<radialGradient id="SVGID_3_" cx="-146.2258" cy="480.5123" r="106.9264" gradientTransform="matrix(0.92 0 0 0.92 -11.6 20.8)" gradientUnits="userSpaceOnUse">
					<stop  offset="0.95" style="stop-color:#FFFFFF"/>
					<stop  offset="1" style="stop-color:#000000"/>
				</radialGradient>
				<path class="st27" d="M-115.6,369.6c-9.5-3.1-19.7-4.8-30.2-4.8c-10.6,0-20.7,1.7-30.2,4.8c-19.8,6.4-36.9,19-48.9,35.6
					c-11.7,16.1-18.7,36-18.7,57.5h3.1c0-20.2,6.3-39.4,18.1-55.7c11.7-16.1,28.5-28.3,47.3-34.4c9.4-3.1,19.3-4.6,29.3-4.6
					s19.8,1.6,29.3,4.6c18.8,6.1,35.6,18.3,47.3,34.4c11.8,16.3,18.1,35.5,18.1,55.7h3.1c0-21.5-6.9-41.4-18.7-57.5
					C-78.7,388.6-95.8,376-115.6,369.6z"/>
				<g>
					<g>
						<circle class="st23" cx="-75.2" cy="441" r="13.9"/>
						<path class="st28" d="M-75.2,426.5c-8,0-14.5,6.5-14.5,14.5c0,8,6.5,14.5,14.5,14.5s14.5-6.5,14.5-14.5
							C-60.7,433-67.2,426.5-75.2,426.5z M-75.2,454.3c-7.3,0-13.3-6-13.3-13.3s6-13.3,13.3-13.3c7.3,0,13.3,6,13.3,13.3
							S-67.9,454.3-75.2,454.3z"/>
					</g>
					<g>
						<path class="st23" d="M-83.4,433c-2,2.1-3.3,4.9-3.3,8.1L-83.4,433z"/>
						<path class="st28" d="M-83.9,432.5c-2.2,2.3-3.5,5.3-3.5,8.5c0,0.3,0.3,0.6,0.6,0.6c0.3,0,0.6-0.3,0.6-0.6
							c0-2.9,1.1-5.6,3.1-7.7c0.2-0.2,0.2-0.6,0-0.8C-83.3,432.3-83.6,432.3-83.9,432.5z"/>
					</g>
					<g>
						<path class="st23" d="M-63.6,441l-3.1,7.8C-64.8,446.8-63.6,444-63.6,441z"/>
						<path class="st28" d="M-63.6,440.4c-0.3,0-0.6,0.3-0.6,0.6c0,2.8-1,5.4-2.9,7.4c-0.2,0.2-0.2,0.6,0,0.8
							c0.1,0.1,0.3,0.2,0.4,0.2c0.2,0,0.3-0.1,0.4-0.2c2.1-2.2,3.2-5.2,3.2-8.2C-63.1,440.7-63.3,440.4-63.6,440.4z"/>
					</g>
					<g>
						<circle class="st29" cx="-80" cy="438.7" r="1.3"/>
						<circle class="st29" cx="-70.4" cy="438.7" r="1.3"/>
						<path class="st30" d="M-80,437.4c-0.7,0-1.3,0.6-1.3,1.3c0,0.1,0,0.1,0,0.2c0.1-0.6,0.6-1.1,1.3-1.1s1.2,0.5,1.3,1.1
							c0-0.1,0-0.1,0-0.2C-78.7,438-79.3,437.4-80,437.4z"/>
						<path class="st30" d="M-70.4,437.4c-0.7,0-1.3,0.6-1.3,1.3c0,0.1,0,0.1,0,0.2c0.1-0.6,0.6-1.1,1.3-1.1c0.7,0,1.2,0.5,1.3,1.1
							c0-0.1,0-0.1,0-0.2C-69.1,438-69.6,437.4-70.4,437.4z"/>
					</g>
					<g>
						<path class="st29" d="M-80,444.5c-0.6,1.6,0.6,3.4,2.6,3.7c1.5,0.2,2.9,0.2,4.4,0c2.1-0.2,3.2-2.1,2.6-3.7
							C-73.5,445.5-76.9,445.5-80,444.5z"/>
						<path class="st30" d="M-71.7,444.9c0,1.4-1.2,2.7-2.9,2.7c-1.4,0-2.8-0.1-4.2-0.4c-0.3-0.1-0.5-0.2-0.8-0.3
							c0.5,0.6,1.3,1.1,2.2,1.2c1.5,0.2,2.9,0.2,4.4,0c2.1-0.2,3.2-2.1,2.6-3.7C-70.8,444.7-71.3,444.8-71.7,444.9z"/>
					</g>
				</g>
				<g>
					<g>
						<circle class="st21" cx="-105.6" cy="404.8" r="13.9"/>
						<path class="st31" d="M-105.6,390.3c-8,0-14.5,6.5-14.5,14.5c0,8,6.5,14.5,14.5,14.5s14.5-6.5,14.5-14.5
							C-91.1,396.8-97.6,390.3-105.6,390.3z M-105.6,418.1c-7.3,0-13.3-6-13.3-13.3c0-7.3,6-13.3,13.3-13.3c7.3,0,13.3,6,13.3,13.3
							C-92.3,412.2-98.3,418.1-105.6,418.1z"/>
					</g>
					<g>
						<path class="st31" d="M-114.3,396.3c-2.2,2.3-3.5,5.3-3.5,8.5c0,0.3,0.3,0.6,0.6,0.6c0.3,0,0.6-0.3,0.6-0.6
							c0-2.9,1.1-5.6,3.1-7.7c0.2-0.2,0.2-0.6,0-0.8C-113.7,396.1-114,396.1-114.3,396.3z"/>
					</g>
					<g>
						<path class="st31" d="M-94.1,404.2c-0.3,0-0.6,0.3-0.6,0.6c0,2.8-1,5.4-2.9,7.4c-0.2,0.2-0.2,0.6,0,0.8
							c0.1,0.1,0.3,0.2,0.4,0.2c0.2,0,0.3-0.1,0.4-0.2c2.1-2.2,3.2-5.2,3.2-8.2C-93.5,404.5-93.7,404.2-94.1,404.2z"/>
					</g>
					<g>
						<circle class="st32" cx="-110.4" cy="402.5" r="1.3"/>
						<circle class="st32" cx="-100.8" cy="402.5" r="1.3"/>
						<path class="st33" d="M-110.4,401.2c-0.7,0-1.3,0.6-1.3,1.3c0,0.1,0,0.1,0,0.2c0.1-0.6,0.6-1.1,1.3-1.1c0.7,0,1.2,0.5,1.3,1.1
							c0-0.1,0-0.1,0-0.2C-109.1,401.8-109.7,401.2-110.4,401.2z"/>
						<path class="st33" d="M-100.8,401.2c-0.7,0-1.3,0.6-1.3,1.3c0,0.1,0,0.1,0,0.2c0.1-0.6,0.6-1.1,1.3-1.1c0.7,0,1.2,0.5,1.3,1.1
							c0-0.1,0-0.1,0-0.2C-99.5,401.8-100,401.2-100.8,401.2z"/>
					</g>
					<g>
						<path class="st32" d="M-107.4,411.3h3.6c1.7,0,3-1.4,3-3h-9.7C-110.4,410-109.1,411.3-107.4,411.3z"/>
						<path class="st33" d="M-105.1,410.6h-3.6c-0.2,0-0.5,0-0.7-0.1c0.5,0.5,1.2,0.8,2,0.8h3.6c1.7,0,3-1.4,3-3h-1.4
							C-102.5,409.6-103.7,410.6-105.1,410.6z"/>
					</g>
				</g>
				<g>
					<g>
						<circle class="st20" cx="-146.5" cy="391.2" r="13.9"/>
						<path class="st34" d="M-146.5,376.8c-8,0-14.5,6.5-14.5,14.5c0,8,6.5,14.5,14.5,14.5c8,0,14.5-6.5,14.5-14.5
							C-132,383.3-138.5,376.8-146.5,376.8z M-146.5,404.6c-7.3,0-13.3-6-13.3-13.3c0-7.3,6-13.3,13.3-13.3c7.3,0,13.3,6,13.3,13.3
							C-133.1,398.6-139.1,404.6-146.5,404.6z"/>
					</g>
					<g>
						<path class="st34" d="M-155.1,382.8c-2.2,2.3-3.5,5.3-3.5,8.5c0,0.3,0.3,0.6,0.6,0.6c0.3,0,0.6-0.3,0.6-0.6
							c0-2.9,1.1-5.6,3.1-7.7c0.2-0.2,0.2-0.6,0-0.8C-154.5,382.5-154.9,382.5-155.1,382.8z"/>
					</g>
					<g>
						<path class="st34" d="M-134.9,390.7c-0.3,0-0.6,0.3-0.6,0.6c0,2.8-1,5.4-2.9,7.4c-0.2,0.2-0.2,0.6,0,0.8
							c0.1,0.1,0.3,0.2,0.4,0.2c0.2,0,0.3-0.1,0.4-0.2c2.1-2.2,3.2-5.2,3.2-8.2C-134.3,390.9-134.6,390.7-134.9,390.7z"/>
					</g>
					<g>
						<circle class="st35" cx="-151.3" cy="388.9" r="1.3"/>
						<circle class="st35" cx="-141.6" cy="388.9" r="1.3"/>
						<path class="st36" d="M-151.3,387.6c-0.7,0-1.3,0.6-1.3,1.3c0,0.1,0,0.1,0,0.2c0.1-0.6,0.6-1.1,1.3-1.1c0.7,0,1.2,0.5,1.3,1.1
							c0-0.1,0-0.1,0-0.2C-150,388.2-150.6,387.6-151.3,387.6z"/>
						<path class="st36" d="M-141.6,387.6c-0.7,0-1.3,0.6-1.3,1.3c0,0.1,0,0.1,0,0.2c0.1-0.6,0.6-1.1,1.3-1.1c0.7,0,1.2,0.5,1.3,1.1
							c0-0.1,0-0.1,0-0.2C-140.3,388.2-140.9,387.6-141.6,387.6z"/>
					</g>
					<g>
						<path class="st35" d="M-143.1,394.7h-6.6c-0.8,0-1.5,0.7-1.5,1.5s0.7,1.5,1.5,1.5h6.6c0.8,0,1.5-0.7,1.5-1.5
							S-142.3,394.7-143.1,394.7z"/>
						<path class="st36" d="M-143.1,394.7h-6.6c-0.8,0-1.5,0.7-1.5,1.5c0,0.2,0,0.4,0.1,0.5c0.2-0.6,0.8-1,1.4-1h6.6
							c0.7,0,1.2,0.4,1.4,1c0.1-0.2,0.1-0.3,0.1-0.5C-141.6,395.4-142.3,394.7-143.1,394.7z"/>
					</g>
				</g>
				<g>
					<g>
						<circle class="st22" cx="-188.1" cy="405.8" r="13.9"/>
						<path class="st36" d="M-188.1,391.3c-8,0-14.5,6.5-14.5,14.5c0,8,6.5,14.5,14.5,14.5c8,0,14.5-6.5,14.5-14.5
							C-173.6,397.8-180.1,391.3-188.1,391.3z M-188.1,419.1c-7.3,0-13.3-6-13.3-13.3c0-7.3,6-13.3,13.3-13.3
							c7.3,0,13.3,6,13.3,13.3C-174.8,413.2-180.7,419.1-188.1,419.1z"/>
					</g>
					<g>
						<path class="st37" d="M-196.7,397.3c-2.2,2.3-3.5,5.3-3.5,8.5c0,0.3,0.3,0.6,0.6,0.6c0.3,0,0.6-0.3,0.6-0.6
							c0-2.9,1.1-5.6,3.1-7.7c0.2-0.2,0.2-0.6,0-0.8C-196.1,397.1-196.5,397.1-196.7,397.3z"/>
					</g>
					<g>
						<path class="st37" d="M-176.5,405.2c-0.3,0-0.6,0.3-0.6,0.6c0,2.8-1,5.4-2.9,7.4c-0.2,0.2-0.2,0.6,0,0.8
							c0.1,0.1,0.3,0.2,0.4,0.2c0.2,0,0.3-0.1,0.4-0.2c2.1-2.2,3.2-5.2,3.2-8.2C-175.9,405.5-176.2,405.2-176.5,405.2z"/>
					</g>
					<g>
						<circle class="st38" cx="-192.9" cy="403.5" r="1.3"/>
						<circle class="st38" cx="-183.2" cy="403.5" r="1.3"/>
						<path class="st39" d="M-192.9,402.2c-0.7,0-1.3,0.6-1.3,1.3c0,0.1,0,0.1,0,0.2c0.1-0.6,0.6-1.1,1.3-1.1c0.7,0,1.2,0.5,1.3,1.1
							c0-0.1,0-0.1,0-0.2C-191.6,402.8-192.2,402.2-192.9,402.2z"/>
						<path class="st39" d="M-183.2,402.2c-0.7,0-1.3,0.6-1.3,1.3c0,0.1,0,0.1,0,0.2c0.1-0.6,0.6-1.1,1.3-1.1c0.7,0,1.2,0.5,1.3,1.1
							c0-0.1,0-0.1,0-0.2C-181.9,402.8-182.5,402.2-183.2,402.2z"/>
					</g>
					<g>
						<path class="st38" d="M-186.3,409.3h-3.6c-1.7,0-3,1.4-3,3h9.7C-183.2,410.6-184.6,409.3-186.3,409.3z"/>
						<path class="st39" d="M-189.9,409.3c-1.7,0-3,1.4-3,3h1.4c0.3-1.3,1.5-2.3,2.9-2.3h3.6c0.2,0,0.5,0,0.7,0.1
							c-0.5-0.5-1.2-0.8-2-0.8H-189.9z"/>
					</g>
				</g>
				<g>
					<g>
						<circle class="st19" cx="-216.5" cy="441" r="13.9"/>
						<path class="st40" d="M-216.5,426.5c-8,0-14.5,6.5-14.5,14.5c0,8,6.5,14.5,14.5,14.5c8,0,14.5-6.5,14.5-14.5
							C-202,433-208.5,426.5-216.5,426.5z M-216.5,454.3c-7.3,0-13.3-6-13.3-13.3s6-13.3,13.3-13.3c7.3,0,13.3,6,13.3,13.3
							S-209.2,454.3-216.5,454.3z"/>
					</g>
					<g>
						<path class="st40" d="M-225.2,432.5c-2.2,2.3-3.5,5.3-3.5,8.5c0,0.3,0.3,0.6,0.6,0.6c0.3,0,0.6-0.3,0.6-0.6
							c0-2.9,1.1-5.6,3.1-7.7c0.2-0.2,0.2-0.6,0-0.8C-224.6,432.3-225,432.3-225.2,432.5z"/>
					</g>
					<g>
						<path class="st40" d="M-205,440.4c-0.3,0-0.6,0.3-0.6,0.6c0,2.8-1,5.4-2.9,7.4c-0.2,0.2-0.2,0.6,0,0.8
							c0.1,0.1,0.3,0.2,0.4,0.2c0.2,0,0.3-0.1,0.4-0.2c2.1-2.2,3.2-5.2,3.2-8.2C-204.4,440.7-204.7,440.4-205,440.4z"/>
					</g>
					<g>
						<circle class="st41" cx="-221.4" cy="438.7" r="1.3"/>
						<circle class="st41" cx="-211.7" cy="438.7" r="1.3"/>
						<path class="st42" d="M-221.4,437.4c-0.7,0-1.3,0.6-1.3,1.3c0,0.1,0,0.1,0,0.2c0.1-0.6,0.6-1.1,1.3-1.1c0.7,0,1.2,0.5,1.3,1.1
							c0-0.1,0-0.1,0-0.2C-220.1,438-220.6,437.4-221.4,437.4z"/>
						<path class="st42" d="M-211.7,437.4c-0.7,0-1.3,0.6-1.3,1.3c0,0.1,0,0.1,0,0.2c0.1-0.6,0.6-1.1,1.3-1.1c0.7,0,1.2,0.5,1.3,1.1
							c0-0.1,0-0.1,0-0.2C-210.4,438-211,437.4-211.7,437.4z"/>
					</g>
					<g>
						<path class="st41" d="M-214.3,443.9c-1.5-0.2-2.9-0.2-4.4,0c-2.1,0.2-3.2,2.1-2.6,3.7c3.1-1,6.5-1,9.7,0
							C-211.1,446-212.3,444.1-214.3,443.9z"/>
						<path class="st42" d="M-214.3,443.9c-1.5-0.2-2.9-0.2-4.4,0c-2.1,0.2-3.2,2.1-2.6,3.7c0.5-0.1,0.9-0.3,1.4-0.4
							c0-1.4,1.2-2.7,2.9-2.7c1.4,0,2.8,0.1,4.2,0.4c0.3,0.1,0.5,0.2,0.8,0.3C-212.6,444.4-213.4,444-214.3,443.9z"/>
					</g>
				</g>
			</g>
		</g>
		<g>
			<g>
				<path class="st43" d="M-160.5,354.9c0,0.3,0,0.5-0.1,0.7c-0.1,0.2-0.2,0.2-0.4,0.3c-0.2,0-0.4,0-0.5-0.1
					c-0.1-0.1-0.2-0.3-0.3-0.6c-0.2-1.5-0.4-2.3-0.6-3.8c0-0.3,0-0.5,0.1-0.6c0.1-0.1,0.2-0.2,0.4-0.3c0.1,0,0.3,0,0.4,0
					c0.1,0,0.2,0.1,0.4,0.3c1.1,1,1.7,1.6,2.7,2.7c-0.1-1-0.2-1.5-0.3-2.5c0-0.3,0-0.5,0.1-0.7c0.1-0.2,0.2-0.2,0.5-0.3
					c0.2,0,0.4,0,0.5,0.2c0.1,0.1,0.2,0.3,0.2,0.6c0.2,1.6,0.3,2.3,0.4,3.9c0,0.3,0,0.5-0.1,0.6c-0.1,0.1-0.2,0.2-0.4,0.2
					c-0.1,0-0.3,0-0.4-0.1c-0.1-0.1-0.2-0.2-0.4-0.3c-1-1.1-1.6-1.6-2.6-2.6C-160.7,353.4-160.7,353.9-160.5,354.9z"/>
				<path class="st43" d="M-156.5,352.5c-0.1-0.8,0.1-1.6,0.6-2.1c0.5-0.6,1.1-0.9,2-1c0.8-0.1,1.5,0.2,2.1,0.7
					c0.5,0.5,0.8,1.2,0.9,2c0,0.9-0.2,1.5-0.6,2.1c-0.5,0.5-1.1,0.8-1.9,0.9c-0.8,0.1-1.5-0.1-2-0.6
					C-156.1,354-156.4,353.3-156.5,352.5z M-155.1,352.4c0,0.5,0.2,0.9,0.5,1.2c0.3,0.3,0.6,0.4,1,0.4c0.4,0,0.7-0.2,0.9-0.5
					c0.2-0.3,0.3-0.7,0.3-1.2c0-0.5-0.2-0.9-0.4-1.2c-0.3-0.3-0.6-0.4-1-0.4c-0.4,0-0.7,0.2-1,0.5
					C-155.1,351.4-155.2,351.9-155.1,352.4z"/>
				<path class="st43" d="M-149.1,352.6c0,0.5,0,0.8,0,1.3c0,0.3,0,0.5-0.1,0.7c-0.1,0.1-0.2,0.2-0.5,0.2c-0.2,0-0.4-0.1-0.5-0.2
					c-0.1-0.1-0.2-0.4-0.2-0.6c-0.1-1.5-0.1-2.2-0.1-3.7c0-0.3,0-0.6,0.2-0.7c0.1-0.1,0.4-0.2,0.7-0.2c0.4,0,0.6,0,1,0
					c0.7,0,1.2,0.1,1.6,0.4c0.4,0.3,0.6,0.7,0.6,1.2c0,0.4-0.1,0.7-0.4,1c-0.2,0.3-0.6,0.4-1,0.5c0.4,0.4,0.6,0.6,1,1.1
					c0.1,0.1,0.2,0.3,0.3,0.4c0.1,0.1,0.1,0.2,0.1,0.3c0,0.2-0.1,0.3-0.2,0.4c-0.1,0.1-0.3,0.2-0.4,0.2c-0.1,0-0.2,0-0.3-0.1
					c-0.1-0.1-0.2-0.2-0.4-0.3C-148.2,353.6-148.5,353.3-149.1,352.6z M-149.1,351.8c0.2,0,0.4,0,0.6,0c0.3,0,0.5-0.1,0.6-0.2
					c0.1-0.1,0.2-0.3,0.2-0.5c0-0.2-0.1-0.4-0.2-0.5c-0.1-0.1-0.3-0.2-0.6-0.2c-0.2,0-0.4,0-0.6,0
					C-149.1,351-149.1,351.2-149.1,351.8z"/>
				<path class="st43" d="M-146,353.7c0.3-1.5,0.4-2.2,0.7-3.7c0.1-0.3,0.2-0.5,0.3-0.6c0.1-0.1,0.3-0.2,0.6-0.2
					c0.2,0,0.4,0.1,0.6,0.2c0.1,0.1,0.2,0.3,0.3,0.6c0.3,1.3,0.5,1.9,0.7,3.2c0.4-1.3,0.5-1.9,0.9-3.2c0.1-0.2,0.2-0.4,0.3-0.5
					c0.2-0.1,0.3-0.2,0.6-0.2c0.3,0,0.5,0.1,0.6,0.2c0.1,0.1,0.2,0.4,0.3,0.7c0.2,1.5,0.2,2.2,0.4,3.7c0,0.1,0,0.1,0,0.2
					c0,0.1,0,0.1,0,0.1c0,0.2-0.1,0.3-0.2,0.5c-0.1,0.1-0.3,0.2-0.5,0.1c-0.2,0-0.3-0.1-0.4-0.2c-0.1-0.1-0.1-0.3-0.2-0.5
					c-0.1-1.3-0.1-1.9-0.2-3.2c-0.4,1.3-0.6,2.2-0.8,2.7c-0.2,0.5-0.3,0.8-0.4,1c-0.1,0.1-0.1,0.1-0.2,0.2c-0.1,0-0.2,0-0.3,0
					c-0.2,0-0.4-0.1-0.5-0.2c-0.1-0.1-0.2-0.3-0.2-0.5c-0.3-1.3-0.4-2-0.7-3.3c-0.2,1.3-0.3,1.9-0.5,3.1c0,0.3-0.1,0.5-0.2,0.6
					c-0.1,0.1-0.3,0.2-0.4,0.2c-0.2,0-0.3-0.1-0.4-0.2c-0.1-0.1-0.2-0.3-0.2-0.5c0,0,0-0.1,0-0.2C-146,353.9-146,353.8-146,353.7z"
					/>
				<path class="st43" d="M-138.2,354c-0.1,0.2-0.1,0.3-0.2,0.5c-0.1,0.2-0.2,0.3-0.3,0.4c-0.1,0.1-0.2,0.1-0.4,0.1
					c-0.2,0-0.3-0.1-0.4-0.2c-0.1-0.1-0.1-0.3-0.1-0.4c0-0.1,0-0.1,0-0.2c0-0.1,0-0.1,0.1-0.2c0.7-1.5,1-2.2,1.7-3.7
					c0.1-0.3,0.3-0.5,0.5-0.6c0.2-0.1,0.4-0.2,0.6-0.1c0.2,0,0.4,0.1,0.6,0.2c0.2,0.1,0.3,0.3,0.3,0.6c0.4,1.6,0.6,2.4,1,4
					c0,0.1,0,0.2,0,0.2c0,0.1,0,0.1,0,0.2c0,0.2-0.1,0.3-0.2,0.4c-0.1,0.1-0.3,0.1-0.5,0.1c-0.2,0-0.3-0.1-0.4-0.2
					c-0.1-0.1-0.2-0.3-0.2-0.5c0-0.2-0.1-0.3-0.1-0.5C-137,354.1-137.4,354.1-138.2,354z M-137.7,352.9c0.5,0,0.8,0.1,1.3,0.1
					c-0.2-0.8-0.3-1.2-0.4-2C-137.2,351.8-137.4,352.1-137.7,352.9z"/>
				<path class="st43" d="M-133.8,350.9c0-0.3,0.1-0.5,0.2-0.6c0.1-0.1,0.3-0.2,0.5-0.2c0.2,0,0.4,0.1,0.5,0.3
					c0.1,0.2,0.1,0.4,0.1,0.7c-0.2,1.4-0.3,2-0.5,3.4c0.4,0.1,0.6,0.1,1,0.1c0.3,0,0.5,0.1,0.6,0.2s0.2,0.3,0.1,0.5
					c0,0.2-0.1,0.3-0.3,0.4c-0.2,0.1-0.4,0.1-0.7,0c-0.6-0.1-0.9-0.1-1.4-0.2c-0.3,0-0.5-0.1-0.6-0.2c-0.1-0.1-0.1-0.3-0.1-0.6
					C-134.1,353.1-134,352.4-133.8,350.9z"/>
			</g>
		</g>
		<g>
			<g>
				<path class="st43" d="M-88.4,369.1c-0.2-0.1-0.2-0.1-0.4-0.2c-0.3-0.1-0.4-0.3-0.5-0.4c-0.1-0.1-0.1-0.3,0-0.5
					c0.1-0.2,0.2-0.3,0.4-0.3c0.2,0,0.4,0.1,0.7,0.2c0.3,0.2,0.5,0.3,0.8,0.5c0.3,0.2,0.4,0.3,0.5,0.5s0,0.4-0.1,0.6
					c-0.4,0.7-0.9,1.1-1.5,1.3c-0.6,0.2-1.3,0.1-2-0.3c-0.7-0.4-1.1-0.9-1.3-1.6c-0.2-0.7-0.1-1.4,0.2-2.2c0.4-0.8,0.9-1.3,1.6-1.5
					c0.7-0.2,1.5-0.1,2.3,0.3c0.5,0.3,0.9,0.6,1.2,1c0.3,0.4,0.3,0.7,0.2,1c-0.1,0.1-0.2,0.2-0.3,0.3c-0.2,0-0.3,0-0.4,0
					c-0.1,0-0.2-0.2-0.4-0.5c-0.2-0.3-0.4-0.5-0.7-0.7c-0.4-0.2-0.8-0.2-1.1-0.1c-0.4,0.1-0.7,0.4-0.9,0.9c-0.2,0.5-0.3,0.9-0.2,1.3
					c0.1,0.4,0.3,0.7,0.7,0.9c0.3,0.2,0.6,0.2,0.8,0.1C-88.8,369.5-88.6,369.4-88.4,369.1z"/>
				<path class="st43" d="M-86.6,369.4c0.4-0.7,1-1.2,1.7-1.4c0.7-0.2,1.4,0,2.2,0.4c0.7,0.5,1.2,1.1,1.3,1.8c0.1,0.7,0,1.4-0.5,2.1
					c-0.5,0.7-1.1,1.1-1.8,1.3c-0.7,0.2-1.4,0-2-0.4c-0.7-0.4-1.1-1-1.2-1.7C-87.1,370.9-87,370.2-86.6,369.4z M-85.4,370.2
					c-0.3,0.4-0.4,0.8-0.3,1.2c0.1,0.4,0.2,0.7,0.6,0.9c0.3,0.2,0.7,0.3,1.1,0.1c0.4-0.1,0.7-0.4,1-0.8c0.3-0.4,0.4-0.8,0.4-1.2
					c0-0.4-0.2-0.7-0.6-0.9c-0.4-0.2-0.7-0.3-1.1-0.2C-84.8,369.4-85.1,369.7-85.4,370.2z"/>
				<path class="st43" d="M-81.6,372.7c0.5-0.7,1.1-1.1,1.8-1.2c0.7-0.1,1.4,0.1,2.1,0.6c0.7,0.5,1.1,1.2,1.1,1.9
					c0.1,0.7-0.2,1.4-0.7,2.1c-0.5,0.7-1.2,1-1.9,1.1c-0.7,0.1-1.4-0.1-2-0.6c-0.6-0.5-1-1.1-1.1-1.8
					C-82.2,374.1-82.1,373.4-81.6,372.7z M-80.4,373.5c-0.3,0.4-0.4,0.8-0.4,1.2c0,0.4,0.2,0.7,0.5,0.9c0.3,0.2,0.7,0.3,1,0.2
					c0.4-0.1,0.7-0.3,1-0.7c0.3-0.4,0.5-0.8,0.5-1.2c0-0.4-0.2-0.7-0.5-1c-0.3-0.3-0.7-0.3-1.1-0.2
					C-79.8,372.8-80.1,373.1-80.4,373.5z"/>
				<path class="st43" d="M-73.4,375.7c0.3,0.2,0.5,0.5,0.7,0.7c0.2,0.2,0.3,0.5,0.4,0.7c0.1,0.4,0.1,0.9,0,1.3
					c-0.1,0.4-0.3,0.8-0.7,1.2c-0.6,0.6-1.2,0.9-1.9,1c-0.7,0-1.3-0.2-1.9-0.8c-0.3-0.3-0.5-0.4-0.8-0.7c-0.2-0.2-0.4-0.4-0.4-0.6
					c0-0.2,0.1-0.4,0.3-0.6c1-1.1,1.4-1.7,2.4-2.9c0.2-0.3,0.4-0.4,0.6-0.4c0.2,0,0.4,0.1,0.7,0.3
					C-73.9,375.3-73.7,375.4-73.4,375.7z M-76.7,378.5c0.2,0.1,0.3,0.2,0.4,0.4c0.4,0.3,0.7,0.5,1.1,0.5c0.4,0,0.7-0.2,1.1-0.6
					c0.3-0.4,0.5-0.7,0.5-1.1c0-0.4-0.2-0.7-0.6-1.1c-0.2-0.2-0.3-0.2-0.4-0.4C-75.4,377.1-75.8,377.5-76.7,378.5z"/>
			</g>
		</g>
		<g>
			<g>
				<path class="st43" d="M-215.3,380.3c-0.2,0.2-0.4,0.3-0.6,0.3c-0.2,0-0.3-0.1-0.6-0.3c-1.1-1.1-1.6-1.6-2.7-2.6
					c-0.2-0.2-0.3-0.4-0.3-0.6c0-0.2,0.1-0.4,0.4-0.7c0.3-0.3,0.5-0.5,0.8-0.8c0.4-0.4,0.9-0.6,1.3-0.7c0.4,0,0.7,0.1,1,0.4
					c0.2,0.2,0.3,0.4,0.3,0.6c0,0.2,0,0.4-0.1,0.7c0.3-0.2,0.7-0.3,1-0.2c0.3,0,0.6,0.2,0.8,0.5c0.3,0.4,0.5,0.8,0.4,1.2
					c-0.1,0.4-0.3,0.9-0.8,1.3C-214.7,379.8-214.9,380-215.3,380.3z M-217.2,377.6c0.2-0.2,0.2-0.2,0.4-0.4c0.1-0.1,0.2-0.3,0.3-0.4
					c0-0.2,0-0.3-0.1-0.4c-0.1-0.1-0.2-0.2-0.4-0.2c-0.2,0-0.3,0.1-0.5,0.2c-0.2,0.2-0.2,0.2-0.4,0.4
					C-217.7,377.2-217.5,377.3-217.2,377.6z M-215.7,379.3c0.2-0.2,0.3-0.3,0.5-0.4c0.2-0.2,0.3-0.4,0.4-0.5c0-0.2,0-0.3-0.1-0.5
					c-0.1-0.2-0.3-0.2-0.5-0.2c-0.2,0-0.4,0.1-0.6,0.4c-0.2,0.2-0.3,0.3-0.5,0.4C-216.2,378.7-216,378.9-215.7,379.3z"/>
				<path class="st43" d="M-212.3,376.4c0.1,0.2,0.1,0.3,0.2,0.5c0.1,0.2,0.1,0.3,0.1,0.5c0,0.1-0.1,0.2-0.2,0.3
					c-0.1,0.1-0.3,0.2-0.4,0.1c-0.2,0-0.3-0.1-0.4-0.2c0-0.1-0.1-0.1-0.1-0.2c0-0.1-0.1-0.1-0.1-0.2c-0.5-1.5-0.8-2.3-1.2-3.9
					c-0.1-0.3-0.1-0.5,0-0.7c0.1-0.2,0.2-0.4,0.4-0.5c0.2-0.1,0.4-0.2,0.6-0.2c0.2,0,0.4,0.1,0.6,0.2c1.4,0.9,2.1,1.4,3.4,2.3
					c0.1,0.1,0.1,0.1,0.2,0.1c0,0,0.1,0.1,0.1,0.1c0.1,0.1,0.1,0.3,0.1,0.4c0,0.2-0.1,0.3-0.3,0.4c-0.1,0.1-0.3,0.1-0.4,0.1
					c-0.1,0-0.3-0.1-0.5-0.2c-0.2-0.1-0.2-0.2-0.4-0.3C-211.4,375.6-211.7,375.9-212.3,376.4z M-212.7,375.3
					c0.4-0.3,0.6-0.5,1.1-0.8c-0.7-0.5-1-0.7-1.7-1.2C-213.1,374.1-213,374.5-212.7,375.3z"/>
				<path class="st43" d="M-209.8,369.3c0.3-0.2,0.6-0.3,0.9-0.4s0.6-0.1,0.8-0.1c0.5,0,0.9,0.1,1.3,0.4c0.4,0.2,0.7,0.6,0.9,1
					c0.4,0.7,0.5,1.5,0.3,2.1c-0.2,0.7-0.6,1.2-1.3,1.6c-0.4,0.2-0.6,0.3-1,0.6c-0.3,0.2-0.5,0.2-0.6,0.2c-0.2,0-0.3-0.2-0.5-0.4
					c-0.8-1.3-1.2-1.9-2.1-3.1c-0.2-0.3-0.2-0.5-0.2-0.7c0.1-0.2,0.2-0.4,0.5-0.6C-210.3,369.7-210.2,369.5-209.8,369.3z
					 M-208.1,373.3c0.2-0.1,0.3-0.2,0.5-0.3c0.4-0.3,0.7-0.6,0.8-0.9s0-0.8-0.3-1.2c-0.2-0.4-0.5-0.7-0.9-0.8
					c-0.4-0.1-0.8,0-1.2,0.3c-0.2,0.1-0.3,0.2-0.5,0.3C-209.1,371.7-208.8,372.2-208.1,373.3z"/>
			</g>
		</g>
		<g>
			<g>
				<path class="st43" d="M-252.5,442c-1.7,0.3-2.6,0.5-4.4,0.9c-0.1,0-0.1,0-0.2,0c-0.1,0-0.1,0-0.2,0c-0.2,0-0.3-0.1-0.4-0.3
					c-0.1-0.1-0.1-0.3-0.1-0.5c0-0.1,0.1-0.2,0.2-0.3c0.1-0.1,0.2-0.1,0.4-0.2c1.3-0.2,1.9-0.4,3.2-0.6c-1.1-0.7-1.6-1-2.7-1.7
					c-0.2-0.1-0.3-0.2-0.4-0.3c-0.1-0.1-0.1-0.2,0-0.4c0-0.2,0.1-0.3,0.2-0.4c0.1-0.1,0.3-0.1,0.4-0.1c0.1,0,0.1,0,0.2,0.1
					c0.1,0,0.1,0.1,0.2,0.1c1.4,1,2.2,1.5,3.6,2.5c0.2,0.1,0.3,0.2,0.3,0.3c0.1,0.1,0.1,0.2,0,0.4c0,0.1-0.1,0.2-0.2,0.3
					C-252.2,441.9-252.3,441.9-252.5,442z"/>
				<path class="st43" d="M-256.2,435.4c0.1-0.3,0.2-0.5,0.3-0.6c0.1-0.1,0.3-0.2,0.5-0.1c0.2,0,0.3,0.2,0.4,0.3
					c0.1,0.2,0,0.4,0,0.7c-0.1,0.4-0.2,0.6-0.2,1c0.4,0.1,0.6,0.1,0.9,0.2c0.1-0.3,0.1-0.5,0.2-0.9c0.1-0.3,0.2-0.5,0.3-0.6
					c0.1-0.1,0.3-0.2,0.5-0.1c0.2,0,0.3,0.2,0.4,0.3c0.1,0.2,0,0.4,0,0.7c-0.1,0.3-0.1,0.5-0.2,0.9c0.4,0.1,0.6,0.1,1,0.2
					c0.1-0.4,0.1-0.6,0.3-1c0.1-0.3,0.2-0.5,0.3-0.6c0.1-0.1,0.3-0.2,0.5-0.1c0.2,0,0.3,0.2,0.4,0.3c0.1,0.2,0,0.4,0,0.7
					c-0.1,0.6-0.2,0.8-0.3,1.4c-0.1,0.3-0.2,0.5-0.3,0.6c-0.1,0.1-0.3,0.1-0.6,0c-1.5-0.3-2.2-0.5-3.7-0.8c-0.3-0.1-0.5-0.2-0.6-0.3
					c-0.1-0.2-0.1-0.4,0-0.7C-256.4,436.2-256.3,435.9-256.2,435.4z"/>
				<path class="st43" d="M-252.3,433.4c0.5,0.1,0.8,0.2,1.3,0.4c0.3,0.1,0.5,0.2,0.6,0.3c0.1,0.1,0.1,0.3,0.1,0.5
					c-0.1,0.2-0.2,0.3-0.3,0.4c-0.2,0.1-0.4,0.1-0.7,0c-1.4-0.4-2.2-0.6-3.6-1c-0.3-0.1-0.5-0.2-0.6-0.4c-0.1-0.2-0.1-0.4,0-0.7
					c0.1-0.4,0.2-0.6,0.3-1c0.2-0.6,0.5-1.1,0.9-1.4c0.4-0.3,0.8-0.3,1.3-0.2c0.4,0.1,0.6,0.3,0.8,0.6c0.2,0.3,0.2,0.7,0.2,1.1
					c0.5-0.3,0.8-0.4,1.3-0.6c0.2-0.1,0.3-0.1,0.4-0.2c0.1,0,0.2,0,0.3,0c0.2,0,0.3,0.1,0.3,0.3c0.1,0.1,0.1,0.3,0,0.4
					c0,0.1-0.1,0.2-0.2,0.3c-0.1,0.1-0.2,0.2-0.4,0.2C-251,432.8-251.4,433-252.3,433.4z M-253,433.2c0.1-0.2,0.1-0.3,0.2-0.6
					c0.1-0.2,0.1-0.5,0-0.6c-0.1-0.2-0.2-0.3-0.4-0.3c-0.2-0.1-0.4,0-0.5,0.1c-0.1,0.1-0.3,0.3-0.3,0.5c-0.1,0.2-0.1,0.3-0.2,0.6
					C-253.8,432.9-253.6,433-253,433.2z"/>
				<path class="st43" d="M-253.2,426.8c-0.1-0.2-0.2-0.3-0.2-0.4c0-0.1,0-0.3,0-0.4c0-0.1,0.1-0.2,0.3-0.3c0.1-0.1,0.3-0.1,0.4,0
					c0.1,0.1,0.3,0.2,0.5,0.4c0,0,0,0,0,0c0.5,0.7,0.8,1.1,1.3,1.8c0.7,0.2,1,0.3,1.6,0.5c0.3,0.1,0.5,0.2,0.6,0.4
					c0.1,0.1,0.1,0.3,0.1,0.5c-0.1,0.2-0.2,0.3-0.3,0.4c-0.2,0.1-0.4,0-0.7-0.1c-0.7-0.2-1-0.3-1.6-0.5c-0.8,0.3-1.2,0.4-2.1,0.7
					c0,0,0,0,0,0c-0.3,0.1-0.5,0.1-0.7,0.1c-0.1,0-0.2-0.1-0.3-0.3c-0.1-0.1-0.1-0.3,0-0.5c0-0.1,0.1-0.2,0.2-0.3
					c0.1-0.1,0.3-0.2,0.4-0.2c0.6-0.2,0.9-0.3,1.5-0.5C-252.7,427.7-252.9,427.4-253.2,426.8z"/>
				<path class="st43" d="M-246.9,424c-0.1,0.3-0.2,0.5-0.4,0.6c-0.1,0.1-0.4,0.1-0.6,0c-1.4-0.5-2.1-0.8-3.5-1.3
					c-0.3-0.1-0.5-0.3-0.6-0.4c-0.1-0.2,0-0.4,0.1-0.7c0.2-0.4,0.2-0.6,0.4-1c0.2-0.5,0.5-0.9,0.8-1.1c0.3-0.2,0.7-0.2,1.1,0
					c0.2,0.1,0.4,0.2,0.5,0.4c0.1,0.2,0.2,0.4,0.2,0.6c0.2-0.3,0.5-0.5,0.8-0.6c0.3-0.1,0.6-0.1,0.9,0.1c0.5,0.2,0.8,0.5,0.9,0.9
					c0.1,0.4,0.1,0.9-0.1,1.5C-246.6,423.3-246.7,423.5-246.9,424z M-249.8,422.4c0.1-0.2,0.1-0.3,0.2-0.5c0.1-0.2,0.1-0.3,0-0.5
					s-0.1-0.2-0.3-0.3c-0.2-0.1-0.3-0.1-0.4,0c-0.1,0.1-0.2,0.2-0.3,0.4c-0.1,0.2-0.1,0.3-0.2,0.5
					C-250.4,422.2-250.2,422.2-249.8,422.4z M-247.7,423.2c0.1-0.2,0.1-0.3,0.2-0.6c0.1-0.3,0.1-0.5,0.1-0.6c0-0.2-0.2-0.3-0.3-0.4
					c-0.2-0.1-0.4-0.1-0.5,0c-0.1,0.1-0.3,0.3-0.4,0.6c-0.1,0.2-0.1,0.3-0.2,0.6C-248.4,422.9-248.2,423-247.7,423.2z"/>
				<path class="st43" d="M-246,419.2c0.2,0.2,0.3,0.2,0.4,0.4c0.1,0.1,0.2,0.3,0.3,0.4c0,0.1,0,0.3,0,0.4c-0.1,0.2-0.2,0.3-0.3,0.3
					c-0.1,0.1-0.3,0.1-0.5,0c-0.1,0-0.1-0.1-0.2-0.1c-0.1,0-0.1-0.1-0.1-0.1c-1.2-1.1-1.8-1.7-2.9-2.8c-0.2-0.2-0.3-0.4-0.4-0.6
					c-0.1-0.2,0-0.4,0.1-0.6c0.1-0.2,0.2-0.4,0.4-0.4c0.2-0.1,0.4-0.1,0.6-0.1c1.6,0.1,2.5,0.2,4.1,0.4c0.1,0,0.2,0,0.2,0
					c0.1,0,0.1,0,0.2,0.1c0.2,0.1,0.3,0.2,0.3,0.3c0,0.1,0,0.3,0,0.5c-0.1,0.1-0.2,0.2-0.3,0.3c-0.1,0.1-0.3,0.1-0.5,0
					c-0.2,0-0.3,0-0.5-0.1C-245.5,418.1-245.7,418.4-246,419.2z M-246.9,418.4c0.2-0.5,0.3-0.7,0.5-1.2c-0.8-0.1-1.2-0.1-2.1-0.2
					C-247.8,417.5-247.5,417.8-246.9,418.4z"/>
				<path class="st43" d="M-247.5,412c0.2-0.3,0.3-0.6,0.5-0.8c0.2-0.2,0.4-0.4,0.6-0.5c0.4-0.2,0.8-0.3,1.2-0.3
					c0.5,0,0.9,0.1,1.3,0.3c0.7,0.4,1.2,0.9,1.4,1.6c0.2,0.7,0.1,1.3-0.2,2.1c-0.2,0.4-0.3,0.6-0.5,1c-0.1,0.3-0.3,0.5-0.4,0.5
					c-0.1,0.1-0.4,0-0.6-0.1c-1.3-0.7-2-1-3.4-1.6c-0.3-0.1-0.5-0.3-0.5-0.5c-0.1-0.2,0-0.4,0.1-0.7
					C-247.7,412.6-247.6,412.4-247.5,412z M-243.9,414.5c0.1-0.2,0.2-0.3,0.3-0.5c0.2-0.4,0.3-0.8,0.1-1.2c-0.1-0.3-0.4-0.6-0.9-0.9
					c-0.4-0.2-0.8-0.3-1.2-0.2s-0.6,0.4-0.9,0.9c-0.1,0.2-0.2,0.3-0.3,0.5C-245.6,413.6-245.1,413.9-243.9,414.5z"/>
			</g>
		</g>
		<g>
			<g>
				<path class="st43" d="M-44,413.9c0.1,0.3,0.2,0.5,0.2,0.7c0,0.2-0.1,0.3-0.3,0.4c-0.2,0.1-0.3,0.1-0.5,0
					c-0.1-0.1-0.3-0.3-0.4-0.6c-0.2-0.4-0.3-0.6-0.5-0.9c-0.3,0.2-0.5,0.3-0.9,0.4c0.2,0.3,0.2,0.5,0.4,0.8c0.1,0.3,0.2,0.5,0.2,0.7
					c0,0.2-0.1,0.3-0.3,0.4c-0.2,0.1-0.3,0.1-0.5,0c-0.1-0.1-0.3-0.3-0.4-0.5c-0.2-0.3-0.2-0.5-0.4-0.8c-0.4,0.2-0.5,0.3-0.9,0.5
					c0.2,0.4,0.3,0.6,0.5,0.9c0.1,0.3,0.2,0.5,0.2,0.7c0,0.2-0.1,0.3-0.3,0.4c-0.2,0.1-0.3,0.1-0.5,0c-0.1-0.1-0.3-0.3-0.4-0.5
					c-0.3-0.5-0.4-0.8-0.6-1.3c-0.1-0.3-0.2-0.5-0.2-0.7c0-0.2,0.2-0.3,0.5-0.4c1.3-0.7,2-1,3.3-1.7c0.3-0.2,0.5-0.2,0.7-0.1
					c0.2,0.1,0.3,0.2,0.5,0.5C-44.4,413.2-44.2,413.4-44,413.9z"/>
				<path class="st43" d="M-47.5,418.1c-0.2,0-0.4-0.1-0.5-0.2c-0.1-0.1-0.2-0.1-0.2-0.2c-0.1-0.1-0.1-0.3,0-0.4
					c0.1-0.2,0.1-0.3,0.3-0.3c0.1,0,0.2-0.1,0.3-0.1c0.1,0,0.2,0,0.4,0c0.9,0.2,1.3,0.3,2.2,0.4c0.3-0.6,0.5-0.9,0.8-1.5
					c0.1-0.2,0.2-0.3,0.2-0.4s0.1-0.1,0.2-0.2c0.1-0.1,0.3-0.1,0.4,0c0.1,0.1,0.3,0.2,0.3,0.3c0,0.1,0.1,0.2,0,0.3
					c0,0.1-0.1,0.3-0.2,0.5c-0.3,0.5-0.4,0.7-0.6,1.2c0.5,0.1,0.8,0.2,1.3,0.3c0.2,0,0.3,0.1,0.5,0.2c0.1,0.1,0.2,0.2,0.2,0.3
					c0.1,0.1,0.1,0.3,0,0.4c-0.1,0.2-0.1,0.3-0.3,0.3c-0.1,0.1-0.4,0.1-0.7,0c0,0,0,0,0,0c-0.7-0.2-1-0.2-1.7-0.4
					c-0.5,0.8-0.7,1.2-1.2,2c0,0,0,0,0,0c-0.2,0.2-0.3,0.4-0.4,0.5c-0.1,0.1-0.3,0-0.4,0c-0.1-0.1-0.2-0.2-0.3-0.3
					c0-0.1-0.1-0.2,0-0.3c0-0.1,0.1-0.3,0.2-0.4c0.4-0.6,0.6-1,0.9-1.6C-46.4,418.4-46.7,418.3-47.5,418.1z"/>
				<path class="st43" d="M-45.6,423.9c-0.3-0.7-0.3-1.4,0-2.1c0.3-0.7,0.8-1.1,1.6-1.5c0.8-0.3,1.5-0.4,2.2-0.1
					c0.7,0.3,1.2,0.8,1.5,1.6c0.2,0.4,0.2,0.9,0.2,1.2s-0.2,0.6-0.4,0.7c-0.1,0.1-0.3,0-0.4,0c-0.1-0.1-0.2-0.2-0.3-0.3
					c0-0.1-0.1-0.2-0.1-0.5c0-0.3-0.1-0.5-0.1-0.6c-0.2-0.4-0.4-0.6-0.8-0.8c-0.4-0.1-0.8-0.1-1.3,0.1c-0.5,0.2-0.8,0.5-1,0.8
					c-0.2,0.3-0.2,0.7,0,1.1c0.1,0.2,0.2,0.4,0.4,0.6c0.2,0.2,0.3,0.3,0.3,0.4c0,0.1,0,0.2,0,0.4c-0.1,0.1-0.2,0.2-0.3,0.3
					c-0.2,0.1-0.5,0-0.8-0.2C-45.2,424.7-45.4,424.4-45.6,423.9z"/>
				<path class="st43" d="M-38.8,426.3c0.1,0.3,0.1,0.5,0.1,0.7c0,0.2-0.2,0.3-0.3,0.4c-0.2,0.1-0.3,0-0.5-0.1
					c-0.1-0.1-0.3-0.3-0.4-0.6c-0.1-0.4-0.2-0.6-0.3-1c-0.4,0.1-0.5,0.2-0.9,0.3c0.1,0.3,0.2,0.5,0.3,0.8c0.1,0.3,0.1,0.5,0.1,0.7
					c0,0.2-0.2,0.3-0.3,0.3c-0.2,0.1-0.3,0-0.5-0.1c-0.1-0.1-0.3-0.3-0.4-0.6c-0.1-0.3-0.2-0.5-0.3-0.8c-0.4,0.1-0.6,0.2-0.9,0.3
					c0.1,0.4,0.2,0.6,0.3,1c0.1,0.3,0.1,0.5,0.1,0.7c0,0.2-0.2,0.3-0.3,0.3c-0.2,0.1-0.3,0-0.5-0.1c-0.1-0.1-0.3-0.3-0.3-0.6
					c-0.2-0.5-0.3-0.8-0.5-1.4c-0.1-0.3-0.1-0.5-0.1-0.7c0.1-0.1,0.2-0.3,0.5-0.4c1.4-0.5,2.1-0.8,3.5-1.3c0.3-0.1,0.5-0.1,0.7,0
					c0.2,0.1,0.3,0.3,0.4,0.6C-39.1,425.4-39,425.7-38.8,426.3z"/>
				<path class="st43" d="M-39.1,428.1c0.3-0.1,0.5-0.1,0.7-0.1c0.2,0.1,0.3,0.2,0.4,0.4s0,0.4-0.1,0.5c-0.1,0.1-0.3,0.3-0.6,0.4
					c-1.3,0.4-2,0.6-3.3,1c0.1,0.4,0.2,0.6,0.3,1c0.1,0.3,0.1,0.5,0.1,0.7c0,0.2-0.2,0.3-0.3,0.3c-0.2,0.1-0.3,0-0.5-0.1
					c-0.1-0.1-0.2-0.3-0.3-0.6c-0.2-0.5-0.3-0.8-0.4-1.4c-0.1-0.3-0.1-0.5,0-0.7c0.1-0.1,0.2-0.3,0.5-0.4
					C-41.2,428.8-40.5,428.6-39.1,428.1z"/>
				<path class="st43" d="M-36.6,433.6c0.1,0.3,0.1,0.5,0,0.7c-0.1,0.2-0.2,0.3-0.4,0.3c-0.2,0-0.3,0-0.5-0.1
					c-0.1-0.1-0.2-0.3-0.3-0.6c-0.1-0.4-0.2-0.6-0.3-1c-0.4,0.1-0.6,0.2-0.9,0.3c0.1,0.3,0.1,0.5,0.2,0.9c0.1,0.3,0.1,0.5,0,0.7
					c-0.1,0.2-0.2,0.3-0.4,0.3c-0.2,0-0.3,0-0.5-0.1c-0.1-0.1-0.2-0.3-0.3-0.6c-0.1-0.3-0.1-0.5-0.2-0.9c-0.4,0.1-0.6,0.2-1,0.3
					c0.1,0.4,0.2,0.6,0.3,1c0.1,0.3,0.1,0.5,0,0.7c-0.1,0.2-0.2,0.3-0.4,0.3c-0.2,0-0.3,0-0.5-0.1c-0.1-0.1-0.2-0.3-0.3-0.6
					c-0.1-0.6-0.2-0.8-0.4-1.4c-0.1-0.3-0.1-0.5,0-0.7c0.1-0.1,0.2-0.3,0.5-0.3c1.4-0.4,2.2-0.6,3.6-1.1c0.3-0.1,0.5-0.1,0.7,0
					c0.2,0.1,0.3,0.3,0.4,0.6C-36.8,432.8-36.7,433.1-36.6,433.6z"/>
				<path class="st43" d="M-40.3,437.6c-0.3,0.1-0.5,0.1-0.7,0c-0.2-0.1-0.3-0.2-0.3-0.4c0-0.2,0-0.4,0.1-0.5s0.3-0.2,0.6-0.3
					c1.5-0.4,2.2-0.6,3.7-0.9c0.3-0.1,0.5-0.1,0.6,0c0.2,0.1,0.3,0.2,0.3,0.4c0,0.1,0,0.2,0,0.4c0,0.1-0.1,0.2-0.2,0.4
					c-0.9,1.2-1.4,1.8-2.4,3c1-0.2,1.5-0.3,2.5-0.5c0.3-0.1,0.5-0.1,0.7,0c0.2,0.1,0.3,0.2,0.3,0.4c0,0.2,0,0.4-0.1,0.5
					s-0.3,0.2-0.6,0.3c-1.5,0.3-2.3,0.5-3.8,0.8c-0.3,0.1-0.5,0-0.6,0c-0.1-0.1-0.2-0.2-0.3-0.4c0-0.1,0-0.3,0-0.4
					c0-0.1,0.1-0.3,0.3-0.4c1-1.1,1.4-1.7,2.3-2.9C-38.8,437.2-39.3,437.4-40.3,437.6z"/>
				<path class="st43" d="M-35.8,442c0-0.2-0.1-0.3-0.1-0.5c-0.1-0.3-0.1-0.5,0-0.7c0.1-0.2,0.2-0.3,0.4-0.3c0.2,0,0.3,0,0.5,0.1
					c0.1,0.1,0.2,0.3,0.3,0.7c0.2,0.9,0.3,1.3,0.4,2.2c0.1,0.3,0,0.5,0,0.7c-0.1,0.2-0.2,0.3-0.4,0.3c-0.2,0-0.3,0-0.5-0.2
					c-0.1-0.1-0.2-0.4-0.3-0.7c0-0.2,0-0.3-0.1-0.5c-1.4,0.2-2,0.4-3.4,0.6c-0.3,0.1-0.5,0-0.7,0c-0.2-0.1-0.3-0.2-0.3-0.4
					c0-0.2,0-0.4,0.1-0.5c0.1-0.1,0.3-0.2,0.6-0.3C-37.8,442.4-37.2,442.3-35.8,442z"/>
			</g>
		</g>
		<g>
			<path class="st17" d="M-243.4,391c-0.2,0.3-0.5,0.7-0.7,1l18.8,13.6l50.8,36.9c0.1-0.2,0.2-0.4,0.4-0.5c0.1-0.2,0.3-0.3,0.4-0.5
				l-50.8-36.9L-243.4,391z"/>
			<path class="st17" d="M-182.7,347.3c-0.4,0.1-0.8,0.3-1.2,0.4l7.2,22.1l19.4,59.7c0.2-0.1,0.4-0.1,0.6-0.2
				c0.2-0.1,0.4-0.1,0.6-0.2l-19.4-59.7L-182.7,347.3z"/>
			<path class="st17" d="M-107.9,347.7c-0.4-0.1-0.8-0.3-1.2-0.4l-7.2,22.1l-19.4,59.7c0.2,0.1,0.4,0.1,0.6,0.2
				c0.2,0.1,0.4,0.1,0.6,0.2l19.4-59.7L-107.9,347.7z"/>
			<path class="st17" d="M-48.3,391l-18.8,13.6l-50.8,36.9c0.1,0.2,0.3,0.3,0.4,0.5c0.1,0.2,0.2,0.3,0.4,0.5l50.8-36.9l18.8-13.6
				C-47.8,391.7-48.1,391.3-48.3,391z"/>
		</g>
	</g>
	<g>
		
			<image style="overflow:visible;" width="352" height="110" xlink:href="5172B5FE226EA031.png"  transform="matrix(0.24 0 0 0.24 -156.7393 441.737)">
		</image>
		<g>
			<path class="st44" d="M-74.7,440l-70.3,4.4l0.7,5.7l0.7,5.7l69.3-12.7C-71.6,442.5-72,439.9-74.7,440z"/>
			<path class="st44" d="M-157.4,451.7c-0.8-6.4,3.8-12.3,10.2-13.1c6.4-0.8,12.3,3.8,13.1,10.2c0.8,6.4-3.8,12.3-10.2,13.1
				C-150.8,462.7-156.7,458.1-157.4,451.7z"/>
			
				<ellipse transform="matrix(0.9925 -0.1219 0.1219 0.9925 -55.9601 -14.4108)" class="st45" cx="-145.8" cy="450.3" rx="6.7" ry="6.7"/>
		</g>
	</g>
	
		<ellipse transform="matrix(0.9925 -0.1219 0.1219 0.9925 -55.9478 -14.4234)" class="st45" cx="-145.9" cy="450.2" rx="6.7" ry="6.7"/>
	<g>
		<path class="st45" d="M-239,488.9c0,1.1-0.2,2-0.6,2.5c-0.4,0.5-1,0.8-1.8,0.8c-0.8,0-1.4-0.3-1.8-0.8c-0.4-0.5-0.6-1.4-0.6-2.5
			v-14.3c0-1.3,0.2-2.1,0.7-2.6s1.3-0.7,2.5-0.7h4.2c2.3,0,4.1,0.6,5.5,1.9c1.3,1.3,2,3,2,5.1c0,2.2-0.6,3.9-1.9,5.2
			c-1.3,1.2-3,1.9-5.2,1.9h-3.1V488.9z M-239,481h2c1.1,0,1.8-0.2,2.4-0.7c0.5-0.5,0.8-1.1,0.8-2.1c0-0.9-0.3-1.6-0.8-2
			c-0.5-0.4-1.3-0.7-2.4-0.7h-2V481z"/>
		<path class="st45" d="M-221.7,483.8v5.1c0,1.1-0.2,2-0.6,2.5c-0.4,0.5-1,0.8-1.8,0.8c-0.8,0-1.4-0.3-1.8-0.8
			c-0.4-0.5-0.6-1.4-0.6-2.5v-14.3c0-1.3,0.2-2.1,0.7-2.6c0.5-0.5,1.3-0.7,2.5-0.7h3.6c2.4,0,4.3,0.6,5.7,1.7
			c1.4,1.2,2.1,2.7,2.1,4.7c0,1.5-0.4,2.7-1.3,3.7c-0.9,1-2.1,1.6-3.6,1.9l3.7,4.1c0.5,0.5,0.8,1,1,1.5c0.2,0.4,0.3,0.9,0.3,1.2
			c0,0.6-0.2,1.1-0.6,1.6c-0.4,0.4-0.9,0.6-1.6,0.6c-0.4,0-0.8-0.1-1.2-0.4c-0.4-0.3-0.8-0.7-1.3-1.3L-221.7,483.8z M-221.7,480.6
			h2.1c0.9,0,1.7-0.2,2.2-0.7c0.5-0.4,0.8-1.1,0.8-1.9c0-0.8-0.3-1.4-0.8-1.8c-0.5-0.4-1.2-0.6-2.1-0.6h-2.2V480.6z"/>
		<path class="st45" d="M-210.2,481.6c0-3.3,0.9-5.9,2.8-7.9c1.8-2,4.3-3,7.3-3c3,0,5.4,1,7.3,3c1.8,2,2.8,4.6,2.8,7.9
			c0,3.3-0.9,5.9-2.8,7.9c-1.8,2-4.3,3-7.3,3c-3,0-5.4-1-7.3-3C-209.3,487.5-210.2,484.9-210.2,481.6z M-205.1,481.7
			c0,1.9,0.5,3.5,1.4,4.6c0.9,1.2,2.1,1.7,3.6,1.7c1.5,0,2.7-0.6,3.6-1.7c0.9-1.2,1.4-2.7,1.4-4.6c0-2-0.4-3.6-1.3-4.8
			c-0.9-1.2-2.1-1.8-3.6-1.8s-2.7,0.6-3.6,1.8C-204.7,478.1-205.1,479.7-205.1,481.7z"/>
		<path class="st45" d="M-180.6,471.3c1.3,0,2.4,0.1,3.4,0.4c1,0.2,1.9,0.6,2.6,1.1c1.3,0.9,2.4,2.1,3.2,3.6
			c0.8,1.5,1.2,3.2,1.2,5.1c0,3.2-0.9,5.8-2.7,7.7c-1.8,1.9-4.2,2.8-7.3,2.8h-4.2c-1.2,0-2-0.2-2.5-0.6c-0.4-0.4-0.7-1.2-0.7-2.3
			v-14.4c0-1.3,0.2-2.1,0.7-2.6c0.5-0.5,1.3-0.7,2.5-0.7H-180.6z M-182.9,487.6h2.1c1.9,0,3.2-0.5,4.2-1.5c0.9-1,1.4-2.6,1.4-4.7
			c0-1.9-0.5-3.3-1.4-4.3c-0.9-0.9-2.3-1.4-4.2-1.4h-2V487.6z"/>
		<path class="st45" d="M-167.5,483.1v-8.7c0-1.1,0.2-2,0.6-2.5c0.4-0.6,1-0.8,1.8-0.8c0.8,0,1.4,0.3,1.8,0.8
			c0.4,0.6,0.6,1.4,0.6,2.5v8.2c0,1.8,0.3,3.2,1,4.1c0.7,0.9,1.7,1.4,3.1,1.4c1.4,0,2.4-0.5,3.1-1.4c0.7-0.9,1-2.3,1-4.1v-8.2
			c0-1.1,0.2-2,0.6-2.5c0.4-0.6,1-0.8,1.7-0.8c0.8,0,1.4,0.3,1.8,0.8c0.4,0.6,0.6,1.4,0.6,2.5v8.7c0,3-0.8,5.3-2.3,7
			c-1.5,1.7-3.7,2.5-6.4,2.5c-2.8,0-4.9-0.8-6.4-2.5C-166.8,488.4-167.5,486.1-167.5,483.1z"/>
		<path class="st45" d="M-137.4,492.5c-3,0-5.4-1-7.2-3c-1.8-2-2.7-4.6-2.7-7.9c0-3.2,0.9-5.8,2.8-7.9c1.9-2,4.3-3.1,7.2-3.1
			c1.7,0,3.2,0.3,4.3,1c1.2,0.7,1.8,1.4,1.8,2.3c0,0.6-0.2,1.1-0.6,1.5c-0.4,0.4-0.9,0.6-1.4,0.6c-0.3,0-0.9-0.1-1.8-0.4
			c-0.9-0.3-1.7-0.4-2.3-0.4c-1.5,0-2.7,0.6-3.6,1.7c-0.9,1.2-1.4,2.7-1.4,4.7c0,1.9,0.5,3.4,1.4,4.6c0.9,1.1,2.2,1.7,3.8,1.7
			c0.7,0,1.6-0.2,2.5-0.5c0.9-0.4,1.6-0.5,1.8-0.5c0.5,0,0.9,0.2,1.3,0.6c0.4,0.4,0.6,0.9,0.6,1.4c0,1-0.6,1.8-1.9,2.5
			C-134.1,492.2-135.6,492.5-137.4,492.5z"/>
		<path class="st45" d="M-124.1,475.7h-1.7c-1.1,0-2-0.2-2.5-0.5c-0.5-0.4-0.8-0.9-0.8-1.6c0-0.7,0.3-1.3,0.8-1.7
			c0.5-0.4,1.4-0.5,2.5-0.5h8.1c1.1,0,1.9,0.2,2.5,0.5s0.8,0.9,0.8,1.7c0,0.7-0.3,1.3-0.8,1.6c-0.5,0.4-1.4,0.5-2.5,0.5h-1.7v13.2
			c0,1.1-0.2,2-0.6,2.5c-0.4,0.5-1,0.8-1.8,0.8c-0.8,0-1.4-0.3-1.8-0.8c-0.4-0.5-0.6-1.4-0.6-2.5V475.7z"/>
		<path class="st45" d="M-108,488.9c0,1.1-0.2,2-0.6,2.5c-0.4,0.5-1,0.8-1.8,0.8c-0.8,0-1.4-0.3-1.8-0.8c-0.4-0.5-0.6-1.4-0.6-2.5
			v-14.5c0-1.1,0.2-2,0.6-2.5c0.4-0.6,1-0.8,1.8-0.8c0.8,0,1.4,0.3,1.8,0.8c0.4,0.6,0.6,1.4,0.6,2.5V488.9z"/>
		<path class="st45" d="M-99.5,490.6l-6.2-15.8c-0.1-0.2-0.1-0.4-0.2-0.6c0-0.2-0.1-0.5-0.1-0.7c0-0.7,0.2-1.2,0.7-1.7
			c0.5-0.4,1-0.7,1.7-0.7c0.5,0,0.9,0.2,1.2,0.5c0.3,0.3,0.6,0.8,0.9,1.6l4.3,11.7l4-11.6c0.3-0.8,0.6-1.4,0.9-1.7
			c0.3-0.3,0.8-0.5,1.4-0.5c0.7,0,1.3,0.2,1.7,0.6c0.4,0.4,0.6,0.9,0.6,1.6c0,0.3,0,0.5-0.1,0.8c-0.1,0.3-0.1,0.6-0.2,0.8l-6,15.5
			c-0.3,0.7-0.6,1.2-1,1.5c-0.4,0.3-0.8,0.5-1.4,0.5c-0.5,0-1-0.1-1.3-0.4C-98.9,491.7-99.2,491.2-99.5,490.6z"/>
		<path class="st45" d="M-82,488.9c0,1.1-0.2,2-0.6,2.5c-0.4,0.5-1,0.8-1.8,0.8c-0.8,0-1.4-0.3-1.8-0.8c-0.4-0.5-0.6-1.4-0.6-2.5
			v-14.5c0-1.1,0.2-2,0.6-2.5c0.4-0.6,1-0.8,1.8-0.8c0.8,0,1.4,0.3,1.8,0.8c0.4,0.6,0.6,1.4,0.6,2.5V488.9z"/>
		<path class="st45" d="M-75.1,475.7h-1.7c-1.1,0-2-0.2-2.5-0.5c-0.5-0.4-0.8-0.9-0.8-1.6c0-0.7,0.3-1.3,0.8-1.7
			c0.5-0.4,1.4-0.5,2.5-0.5h8.1c1.1,0,1.9,0.2,2.5,0.5c0.6,0.4,0.8,0.9,0.8,1.7c0,0.7-0.3,1.3-0.8,1.6c-0.5,0.4-1.4,0.5-2.5,0.5
			h-1.7v13.2c0,1.1-0.2,2-0.6,2.5s-1,0.8-1.8,0.8c-0.8,0-1.4-0.3-1.8-0.8c-0.4-0.5-0.6-1.4-0.6-2.5V475.7z"/>
		<path class="st45" d="M-52.6,472.7c0.4-0.6,0.8-1,1.2-1.3c0.4-0.3,0.8-0.5,1.3-0.5c0.5,0,1,0.2,1.4,0.6c0.4,0.4,0.6,0.9,0.6,1.4
			c0,0.6-0.3,1.3-1,2.3l-0.1,0.1l-4.7,6.8v6.7c0,1.1-0.2,2-0.6,2.5c-0.4,0.5-1,0.8-1.7,0.8c-0.8,0-1.4-0.3-1.8-0.8
			c-0.4-0.5-0.6-1.4-0.6-2.5v-6.7l-4.7-6.7l0,0c-0.7-0.9-1-1.7-1-2.3c0-0.6,0.2-1.1,0.6-1.5c0.4-0.4,1-0.6,1.6-0.6
			c0.4,0,0.8,0.1,1.1,0.4c0.4,0.3,0.8,0.7,1.2,1.4l3.5,5L-52.6,472.7z"/>
	</g>
</g>
<g>
	<linearGradient id="SVGID_4_" gradientUnits="userSpaceOnUse" x1="55.3427" y1="344.6159" x2="72.8018" y2="344.6159">
		<stop  offset="0" style="stop-color:#01639C"/>
		<stop  offset="1" style="stop-color:#004580"/>
	</linearGradient>
	<circle class="st46" cx="64.1" cy="344.6" r="8.7"/>
	<linearGradient id="SVGID_5_" gradientUnits="userSpaceOnUse" x1="50.2097" y1="359.2855" x2="67.6686" y2="359.2855">
		<stop  offset="0" style="stop-color:#01639C"/>
		<stop  offset="1" style="stop-color:#004580"/>
	</linearGradient>
	<circle class="st47" cx="58.9" cy="359.3" r="8.7"/>
	<linearGradient id="SVGID_6_" gradientUnits="userSpaceOnUse" x1="48.4715" y1="374.7295" x2="65.9265" y2="374.7295">
		<stop  offset="0" style="stop-color:#01639C"/>
		<stop  offset="1" style="stop-color:#004580"/>
	</linearGradient>
	<circle class="st48" cx="57.2" cy="374.7" r="8.7"/>
	<linearGradient id="SVGID_7_" gradientUnits="userSpaceOnUse" x1="50.2097" y1="390.1735" x2="67.6686" y2="390.1735">
		<stop  offset="0" style="stop-color:#01639C"/>
		<stop  offset="1" style="stop-color:#004580"/>
	</linearGradient>
	<circle class="st49" cx="58.9" cy="390.2" r="8.7"/>
	<linearGradient id="SVGID_8_" gradientUnits="userSpaceOnUse" x1="55.3427" y1="404.8431" x2="72.8018" y2="404.8431">
		<stop  offset="0" style="stop-color:#01639C"/>
		<stop  offset="1" style="stop-color:#004580"/>
	</linearGradient>
	<circle class="st50" cx="64.1" cy="404.8" r="8.7"/>
	<g>
		<g>
			
				<linearGradient id="SVGID_9_" gradientUnits="userSpaceOnUse" x1="204.343" y1="751.7511" x2="204.343" y2="887.5265" gradientTransform="matrix(0.9464 0.323 -0.323 0.9464 168.9726 -393.6169)">
				<stop  offset="0" style="stop-color:#014E7A"/>
				<stop  offset="1" style="stop-color:#003664"/>
			</linearGradient>
			<polygon class="st51" points="101.4,511.9 83.7,490.1 55.6,496.2 95.3,380.1 141,395.7 			"/>
			
				<linearGradient id="SVGID_10_" gradientUnits="userSpaceOnUse" x1="2237.3848" y1="57.8875" x2="2237.3848" y2="193.6629" gradientTransform="matrix(-0.9464 0.323 0.323 0.9464 2232.4233 -393.6169)">
				<stop  offset="0" style="stop-color:#014E7A"/>
				<stop  offset="1" style="stop-color:#003664"/>
			</linearGradient>
			<polygon class="st52" points="151.8,511.9 169.5,490.1 197.6,496.2 157.9,380.1 112.2,395.7 			"/>
		</g>
		<g>
			<defs>
				<polygon id="SVGID_11_" points="157.9,380.1 126.6,390.8 95.3,380.1 55.6,496.2 83.7,490.1 101.4,511.9 126.6,438 151.8,511.9 
					169.5,490.1 197.6,496.2 				"/>
			</defs>
			<clipPath id="SVGID_12_">
				<use xlink:href="#SVGID_11_"  style="overflow:visible;"/>
			</clipPath>
			<g class="st53">
				<path class="st54" d="M186.3,417c-3.8-3-9.3-2.4-12.3,1.4c-1.9,2.4-2.3,5.4-1.5,8.1c-2.7-0.9-5.8-0.4-8.1,1.5
					c-2.4,1.9-3.5,4.8-3.2,7.6c-2.4-1.4-5.5-1.7-8.3-0.4c-2.7,1.3-4.5,3.9-4.9,6.7c-2-2-5-2.9-8-2.2c-3,0.7-5.2,2.8-6.2,5.4
					c-1.6-2.4-4.2-3.9-7.3-3.9c-3,0-5.7,1.6-7.3,3.9c-1-2.6-3.3-4.8-6.2-5.4c-3-0.7-5.9,0.2-8,2.2c-0.4-2.8-2.1-5.4-4.9-6.7
					c-2.7-1.3-5.8-1.1-8.3,0.4c0.2-2.8-0.9-5.7-3.2-7.6c-2.4-1.9-5.4-2.3-8.1-1.5c0.9-2.7,0.4-5.8-1.5-8.1c-3-3.8-8.5-4.4-12.3-1.4
					c-3.8,3-4.4,8.5-1.4,12.3c2.3,2.9,6.2,3.9,9.5,2.9c-1.1,3.4-0.1,7.2,2.9,9.5c2.9,2.3,6.9,2.5,9.9,0.7c-0.3,3.5,1.5,7,4.9,8.6
					c3.4,1.6,7.3,0.9,9.8-1.6c0.5,3.5,3.1,6.5,6.7,7.3c3.6,0.8,7.3-0.8,9.2-3.7c1.2,3.3,4.4,5.7,8.2,5.7s6.9-2.4,8.2-5.7
					c1.9,2.9,5.6,4.5,9.2,3.7c3.6-0.8,6.2-3.8,6.7-7.3c2.6,2.4,6.4,3.2,9.8,1.6c3.4-1.6,5.2-5.1,4.9-8.6c3,1.8,7,1.7,9.9-0.7
					c2.9-2.3,3.9-6.2,2.9-9.5c3.4,1.1,7.2,0.1,9.5-2.9C190.7,425.5,190.1,420,186.3,417z"/>
				<path class="st55" d="M186.3,416.5c-3.8-3-9.3-2.4-12.3,1.4c-1.9,2.4-2.3,5.4-1.5,8.1c-2.7-0.9-5.8-0.4-8.1,1.5
					c-2.4,1.9-3.5,4.8-3.2,7.6c-2.4-1.4-5.5-1.7-8.3-0.4c-2.7,1.3-4.5,3.9-4.9,6.7c-2-2-5-2.9-8-2.2c-3,0.7-5.2,2.8-6.2,5.4
					c-1.6-2.4-4.2-3.9-7.3-3.9c-3,0-5.7,1.6-7.3,3.9c-1-2.6-3.3-4.8-6.2-5.4c-3-0.7-5.9,0.2-8,2.2c-0.4-2.8-2.1-5.4-4.9-6.7
					s-5.8-1.1-8.3,0.4c0.2-2.8-0.9-5.7-3.2-7.6c-2.4-1.9-5.4-2.3-8.1-1.5c0.9-2.7,0.4-5.8-1.5-8.1c-3-3.8-8.5-4.4-12.3-1.4
					c-3.8,3-4.4,8.5-1.4,12.3c2.3,2.9,6.2,3.9,9.5,2.9c-1.1,3.4-0.1,7.2,2.9,9.5c2.9,2.3,6.9,2.5,9.9,0.7c-0.3,3.5,1.5,7,4.9,8.6
					c3.4,1.6,7.3,0.9,9.8-1.6c0.5,3.5,3.1,6.5,6.7,7.3c3.6,0.8,7.3-0.8,9.2-3.7c1.2,3.3,4.4,5.7,8.2,5.7s6.9-2.4,8.2-5.7
					c1.9,2.9,5.6,4.5,9.2,3.7c3.6-0.8,6.2-3.8,6.7-7.3c2.6,2.4,6.4,3.2,9.8,1.6c3.4-1.6,5.2-5.1,4.9-8.6c3,1.8,7,1.7,9.9-0.7
					c2.9-2.3,3.9-6.2,2.9-9.5c3.4,1.1,7.2,0.1,9.5-2.9C190.7,425,190.1,419.6,186.3,416.5z"/>
				<path class="st56" d="M186.3,416.1c-3.8-3-9.3-2.4-12.3,1.4c-1.9,2.4-2.3,5.4-1.5,8.1c-2.7-0.9-5.8-0.4-8.1,1.5
					c-2.4,1.9-3.5,4.8-3.2,7.6c-2.4-1.4-5.5-1.7-8.3-0.4c-2.7,1.3-4.5,3.9-4.9,6.7c-2-2-5-2.9-8-2.2c-3,0.7-5.2,2.8-6.2,5.4
					c-1.6-2.4-4.2-3.9-7.3-3.9c-3,0-5.7,1.6-7.3,3.9c-1-2.6-3.3-4.8-6.2-5.4c-3-0.7-5.9,0.2-8,2.2c-0.4-2.8-2.1-5.4-4.9-6.7
					c-2.7-1.3-5.8-1.1-8.3,0.4c0.2-2.8-0.9-5.7-3.2-7.6c-2.4-1.9-5.4-2.3-8.1-1.5c0.9-2.7,0.4-5.8-1.5-8.1c-3-3.8-8.5-4.4-12.3-1.4
					c-3.8,3-4.4,8.5-1.4,12.3c2.3,2.9,6.2,3.9,9.5,2.9c-1.1,3.4-0.1,7.2,2.9,9.5c2.9,2.3,6.9,2.5,9.9,0.7c-0.3,3.5,1.5,7,4.9,8.6
					c3.4,1.6,7.3,0.9,9.8-1.6c0.5,3.5,3.1,6.5,6.7,7.3c3.6,0.8,7.3-0.8,9.2-3.7c1.2,3.3,4.4,5.7,8.2,5.7s6.9-2.4,8.2-5.7
					c1.9,2.9,5.6,4.5,9.2,3.7c3.6-0.8,6.2-3.8,6.7-7.3c2.6,2.4,6.4,3.2,9.8,1.6c3.4-1.6,5.2-5.1,4.9-8.6c3,1.8,7,1.7,9.9-0.7
					c2.9-2.3,3.9-6.2,2.9-9.5c3.4,1.1,7.2,0.1,9.5-2.9C190.7,424.6,190.1,419.1,186.3,416.1z"/>
				<path class="st57" d="M186.3,415.7c-3.8-3-9.3-2.4-12.3,1.4c-1.9,2.4-2.3,5.4-1.5,8.1c-2.7-0.9-5.8-0.4-8.1,1.5
					c-2.4,1.9-3.5,4.8-3.2,7.6c-2.4-1.4-5.5-1.7-8.3-0.4c-2.7,1.3-4.5,3.9-4.9,6.7c-2-2-5-2.9-8-2.2c-3,0.7-5.2,2.8-6.2,5.4
					c-1.6-2.4-4.2-3.9-7.3-3.9c-3,0-5.7,1.6-7.3,3.9c-1-2.6-3.3-4.8-6.2-5.4c-3-0.7-5.9,0.2-8,2.2c-0.4-2.8-2.1-5.4-4.9-6.7
					c-2.7-1.3-5.8-1.1-8.3,0.4c0.2-2.8-0.9-5.7-3.2-7.6c-2.4-1.9-5.4-2.3-8.1-1.5c0.9-2.7,0.4-5.8-1.5-8.1c-3-3.8-8.5-4.4-12.3-1.4
					c-3.8,3-4.4,8.5-1.4,12.3c2.3,2.9,6.2,3.9,9.5,2.9c-1.1,3.4-0.1,7.2,2.9,9.5c2.9,2.3,6.9,2.5,9.9,0.7c-0.3,3.5,1.5,7,4.9,8.6
					c3.4,1.6,7.3,0.9,9.8-1.6c0.5,3.5,3.1,6.5,6.7,7.3c3.6,0.8,7.3-0.8,9.2-3.7c1.2,3.3,4.4,5.7,8.2,5.7s6.9-2.4,8.2-5.7
					c1.9,2.9,5.6,4.5,9.2,3.7c3.6-0.8,6.2-3.8,6.7-7.3c2.6,2.4,6.4,3.2,9.8,1.6c3.4-1.6,5.2-5.1,4.9-8.6c3,1.8,7,1.7,9.9-0.7
					c2.9-2.3,3.9-6.2,2.9-9.5c3.4,1.1,7.2,0.1,9.5-2.9C190.7,424.2,190.1,418.7,186.3,415.7z"/>
				<path class="st58" d="M186.3,415.2c-3.8-3-9.3-2.4-12.3,1.4c-1.9,2.4-2.3,5.4-1.5,8.1c-2.7-0.9-5.8-0.4-8.1,1.5
					c-2.4,1.9-3.5,4.8-3.2,7.6c-2.4-1.4-5.5-1.7-8.3-0.4c-2.7,1.3-4.5,3.9-4.9,6.7c-2-2-5-2.9-8-2.2c-3,0.7-5.2,2.8-6.2,5.4
					c-1.6-2.4-4.2-3.9-7.3-3.9c-3,0-5.7,1.6-7.3,3.9c-1-2.6-3.3-4.8-6.2-5.4c-3-0.7-5.9,0.2-8,2.2c-0.4-2.8-2.1-5.4-4.9-6.7
					s-5.8-1.1-8.3,0.4c0.2-2.8-0.9-5.7-3.2-7.6c-2.4-1.9-5.4-2.3-8.1-1.5c0.9-2.7,0.4-5.8-1.5-8.1c-3-3.8-8.5-4.4-12.3-1.4
					c-3.8,3-4.4,8.5-1.4,12.3c2.3,2.9,6.2,3.9,9.5,2.9c-1.1,3.4-0.1,7.2,2.9,9.5c2.9,2.3,6.9,2.5,9.9,0.7c-0.3,3.5,1.5,7,4.9,8.6
					c3.4,1.6,7.3,0.9,9.8-1.6c0.5,3.5,3.1,6.5,6.7,7.3c3.6,0.8,7.3-0.8,9.2-3.7c1.2,3.3,4.4,5.7,8.2,5.7s6.9-2.4,8.2-5.7
					c1.9,2.9,5.6,4.5,9.2,3.7c3.6-0.8,6.2-3.8,6.7-7.3c2.6,2.4,6.4,3.2,9.8,1.6c3.4-1.6,5.2-5.1,4.9-8.6c3,1.8,7,1.7,9.9-0.7
					c2.9-2.3,3.9-6.2,2.9-9.5c3.4,1.1,7.2,0.1,9.5-2.9C190.7,423.7,190.1,418.2,186.3,415.2z"/>
				<path class="st59" d="M186.3,414.8c-3.8-3-9.3-2.4-12.3,1.4c-1.9,2.4-2.3,5.4-1.5,8.1c-2.7-0.9-5.8-0.4-8.1,1.5
					c-2.4,1.9-3.5,4.8-3.2,7.6c-2.4-1.4-5.5-1.7-8.3-0.4c-2.7,1.3-4.5,3.9-4.9,6.7c-2-2-5-2.9-8-2.2c-3,0.7-5.2,2.8-6.2,5.4
					c-1.6-2.4-4.2-3.9-7.3-3.9c-3,0-5.7,1.6-7.3,3.9c-1-2.6-3.3-4.8-6.2-5.4c-3-0.7-5.9,0.2-8,2.2c-0.4-2.8-2.1-5.4-4.9-6.7
					c-2.7-1.3-5.8-1.1-8.3,0.4c0.2-2.8-0.9-5.7-3.2-7.6c-2.4-1.9-5.4-2.3-8.1-1.5c0.9-2.7,0.4-5.8-1.5-8.1c-3-3.8-8.5-4.4-12.3-1.4
					c-3.8,3-4.4,8.5-1.4,12.3c2.3,2.9,6.2,3.9,9.5,2.9c-1.1,3.4-0.1,7.2,2.9,9.5c2.9,2.3,6.9,2.5,9.9,0.7c-0.3,3.5,1.5,7,4.9,8.6
					c3.4,1.6,7.3,0.9,9.8-1.6c0.5,3.5,3.1,6.5,6.7,7.3c3.6,0.8,7.3-0.8,9.2-3.7c1.2,3.3,4.4,5.7,8.2,5.7s6.9-2.4,8.2-5.7
					c1.9,2.9,5.6,4.5,9.2,3.7c3.6-0.8,6.2-3.8,6.7-7.3c2.6,2.4,6.4,3.2,9.8,1.6c3.4-1.6,5.2-5.1,4.9-8.6c3,1.8,7,1.7,9.9-0.7
					c2.9-2.3,3.9-6.2,2.9-9.5c3.4,1.1,7.2,0.1,9.5-2.9C190.7,423.3,190.1,417.8,186.3,414.8z"/>
				<path class="st60" d="M186.3,414.3c-3.8-3-9.3-2.4-12.3,1.4c-1.9,2.4-2.3,5.4-1.5,8.1c-2.7-0.9-5.8-0.4-8.1,1.5
					c-2.4,1.9-3.5,4.8-3.2,7.6c-2.4-1.4-5.5-1.7-8.3-0.4c-2.7,1.3-4.5,3.9-4.9,6.7c-2-2-5-2.9-8-2.2c-3,0.7-5.2,2.8-6.2,5.4
					c-1.6-2.4-4.2-3.9-7.3-3.9c-3,0-5.7,1.6-7.3,3.9c-1-2.6-3.3-4.8-6.2-5.4c-3-0.7-5.9,0.2-8,2.2c-0.4-2.8-2.1-5.4-4.9-6.7
					c-2.7-1.3-5.8-1.1-8.3,0.4c0.2-2.8-0.9-5.7-3.2-7.6c-2.4-1.9-5.4-2.3-8.1-1.5c0.9-2.7,0.4-5.8-1.5-8.1c-3-3.8-8.5-4.4-12.3-1.4
					c-3.8,3-4.4,8.5-1.4,12.3c2.3,2.9,6.2,3.9,9.5,2.9c-1.1,3.4-0.1,7.2,2.9,9.5c2.9,2.3,6.9,2.5,9.9,0.7c-0.3,3.5,1.5,7,4.9,8.6
					c3.4,1.6,7.3,0.9,9.8-1.6c0.5,3.5,3.1,6.5,6.7,7.3c3.6,0.8,7.3-0.8,9.2-3.7c1.2,3.3,4.4,5.7,8.2,5.7s6.9-2.4,8.2-5.7
					c1.9,2.9,5.6,4.5,9.2,3.7c3.6-0.8,6.2-3.8,6.7-7.3c2.6,2.4,6.4,3.2,9.8,1.6c3.4-1.6,5.2-5.1,4.9-8.6c3,1.8,7,1.7,9.9-0.7
					c2.9-2.3,3.9-6.2,2.9-9.5c3.4,1.1,7.2,0.1,9.5-2.9C190.7,422.8,190.1,417.3,186.3,414.3z"/>
				<path class="st61" d="M186.3,413.9c-3.8-3-9.3-2.4-12.3,1.4c-1.9,2.4-2.3,5.4-1.5,8.1c-2.7-0.9-5.8-0.4-8.1,1.5
					c-2.4,1.9-3.5,4.8-3.2,7.6c-2.4-1.4-5.5-1.7-8.3-0.4c-2.7,1.3-4.5,3.9-4.9,6.7c-2-2-5-2.9-8-2.2c-3,0.7-5.2,2.8-6.2,5.4
					c-1.6-2.4-4.2-3.9-7.3-3.9c-3,0-5.7,1.6-7.3,3.9c-1-2.6-3.3-4.8-6.2-5.4c-3-0.7-5.9,0.2-8,2.2c-0.4-2.8-2.1-5.4-4.9-6.7
					s-5.8-1.1-8.3,0.4c0.2-2.8-0.9-5.7-3.2-7.6c-2.4-1.9-5.4-2.3-8.1-1.5c0.9-2.7,0.4-5.8-1.5-8.1c-3-3.8-8.5-4.4-12.3-1.4
					c-3.8,3-4.4,8.5-1.4,12.3c2.3,2.9,6.2,3.9,9.5,2.9c-1.1,3.4-0.1,7.2,2.9,9.5c2.9,2.3,6.9,2.5,9.9,0.7c-0.3,3.5,1.5,7,4.9,8.6
					c3.4,1.6,7.3,0.9,9.8-1.6c0.5,3.5,3.1,6.5,6.7,7.3c3.6,0.8,7.3-0.8,9.2-3.7c1.2,3.3,4.4,5.7,8.2,5.7s6.9-2.4,8.2-5.7
					c1.9,2.9,5.6,4.5,9.2,3.7c3.6-0.8,6.2-3.8,6.7-7.3c2.6,2.4,6.4,3.2,9.8,1.6c3.4-1.6,5.2-5.1,4.9-8.6c3,1.8,7,1.7,9.9-0.7
					c2.9-2.3,3.9-6.2,2.9-9.5c3.4,1.1,7.2,0.1,9.5-2.9C190.7,422.4,190.1,416.9,186.3,413.9z"/>
				<path class="st62" d="M186.3,413.4c-3.8-3-9.3-2.4-12.3,1.4c-1.9,2.4-2.3,5.4-1.5,8.1c-2.7-0.9-5.8-0.4-8.1,1.5
					c-2.4,1.9-3.5,4.8-3.2,7.6c-2.4-1.4-5.5-1.7-8.3-0.4c-2.7,1.3-4.5,3.9-4.9,6.7c-2-2-5-2.9-8-2.2c-3,0.7-5.2,2.8-6.2,5.4
					c-1.6-2.4-4.2-3.9-7.3-3.9c-3,0-5.7,1.6-7.3,3.9c-1-2.6-3.3-4.8-6.2-5.4c-3-0.7-5.9,0.2-8,2.2c-0.4-2.8-2.1-5.4-4.9-6.7
					c-2.7-1.3-5.8-1.1-8.3,0.4c0.2-2.8-0.9-5.7-3.2-7.6c-2.4-1.9-5.4-2.3-8.1-1.5c0.9-2.7,0.4-5.8-1.5-8.1c-3-3.8-8.5-4.4-12.3-1.4
					c-3.8,3-4.4,8.5-1.4,12.3c2.3,2.9,6.2,3.9,9.5,2.9c-1.1,3.4-0.1,7.2,2.9,9.5c2.9,2.3,6.9,2.5,9.9,0.7c-0.3,3.5,1.5,7,4.9,8.6
					c3.4,1.6,7.3,0.9,9.8-1.6c0.5,3.5,3.1,6.5,6.7,7.3c3.6,0.8,7.3-0.8,9.2-3.7c1.2,3.3,4.4,5.7,8.2,5.7s6.9-2.4,8.2-5.7
					c1.9,2.9,5.6,4.5,9.2,3.7c3.6-0.8,6.2-3.8,6.7-7.3c2.6,2.4,6.4,3.2,9.8,1.6c3.4-1.6,5.2-5.1,4.9-8.6c3,1.8,7,1.7,9.9-0.7
					c2.9-2.3,3.9-6.2,2.9-9.5c3.4,1.1,7.2,0.1,9.5-2.9C190.7,421.9,190.1,416.4,186.3,413.4z"/>
				<path class="st63" d="M186.3,413c-3.8-3-9.3-2.4-12.3,1.4c-1.9,2.4-2.3,5.4-1.5,8.1c-2.7-0.9-5.8-0.4-8.1,1.5
					c-2.4,1.9-3.5,4.8-3.2,7.6c-2.4-1.4-5.5-1.7-8.3-0.4c-2.7,1.3-4.5,3.9-4.9,6.7c-2-2-5-2.9-8-2.2c-3,0.7-5.2,2.8-6.2,5.4
					c-1.6-2.4-4.2-3.9-7.3-3.9c-3,0-5.7,1.6-7.3,3.9c-1-2.6-3.3-4.8-6.2-5.4c-3-0.7-5.9,0.2-8,2.2c-0.4-2.8-2.1-5.4-4.9-6.7
					c-2.7-1.3-5.8-1.1-8.3,0.4c0.2-2.8-0.9-5.7-3.2-7.6c-2.4-1.9-5.4-2.3-8.1-1.5c0.9-2.7,0.4-5.8-1.5-8.1c-3-3.8-8.5-4.4-12.3-1.4
					c-3.8,3-4.4,8.5-1.4,12.3c2.3,2.9,6.2,3.9,9.5,2.9c-1.1,3.4-0.1,7.2,2.9,9.5c2.9,2.3,6.9,2.5,9.9,0.7c-0.3,3.5,1.5,7,4.9,8.6
					c3.4,1.6,7.3,0.9,9.8-1.6c0.5,3.5,3.1,6.5,6.7,7.3c3.6,0.8,7.3-0.8,9.2-3.7c1.2,3.3,4.4,5.7,8.2,5.7s6.9-2.4,8.2-5.7
					c1.9,2.9,5.6,4.5,9.2,3.7c3.6-0.8,6.2-3.8,6.7-7.3c2.6,2.4,6.4,3.2,9.8,1.6c3.4-1.6,5.2-5.1,4.9-8.6c3,1.8,7,1.7,9.9-0.7
					c2.9-2.3,3.9-6.2,2.9-9.5c3.4,1.1,7.2,0.1,9.5-2.9C190.7,421.5,190.1,416,186.3,413z"/>
				<path class="st64" d="M186.3,412.5c-3.8-3-9.3-2.4-12.3,1.4c-1.9,2.4-2.3,5.4-1.5,8.1c-2.7-0.9-5.8-0.4-8.1,1.5
					c-2.4,1.9-3.5,4.8-3.2,7.6c-2.4-1.4-5.5-1.7-8.3-0.4c-2.7,1.3-4.5,3.9-4.9,6.7c-2-2-5-2.9-8-2.2c-3,0.7-5.2,2.8-6.2,5.4
					c-1.6-2.4-4.2-3.9-7.3-3.9c-3,0-5.7,1.6-7.3,3.9c-1-2.6-3.3-4.8-6.2-5.4c-3-0.7-5.9,0.2-8,2.2c-0.4-2.8-2.1-5.4-4.9-6.7
					s-5.8-1.1-8.3,0.4c0.2-2.8-0.9-5.7-3.2-7.6c-2.4-1.9-5.4-2.3-8.1-1.5c0.9-2.7,0.4-5.8-1.5-8.1c-3-3.8-8.5-4.4-12.3-1.4
					c-3.8,3-4.4,8.5-1.4,12.3c2.3,2.9,6.2,3.9,9.5,2.9c-1.1,3.4-0.1,7.2,2.9,9.5c2.9,2.3,6.9,2.5,9.9,0.7c-0.3,3.5,1.5,7,4.9,8.6
					c3.4,1.6,7.3,0.9,9.8-1.6c0.5,3.5,3.1,6.5,6.7,7.3c3.6,0.8,7.3-0.8,9.2-3.7c1.2,3.3,4.4,5.7,8.2,5.7s6.9-2.4,8.2-5.7
					c1.9,2.9,5.6,4.5,9.2,3.7c3.6-0.8,6.2-3.8,6.7-7.3c2.6,2.4,6.4,3.2,9.8,1.6c3.4-1.6,5.2-5.1,4.9-8.6c3,1.8,7,1.7,9.9-0.7
					c2.9-2.3,3.9-6.2,2.9-9.5c3.4,1.1,7.2,0.1,9.5-2.9C190.7,421,190.1,415.5,186.3,412.5z"/>
				<path class="st65" d="M186.3,412.1c-3.8-3-9.3-2.4-12.3,1.4c-1.9,2.4-2.3,5.4-1.5,8.1c-2.7-0.9-5.8-0.4-8.1,1.5
					c-2.4,1.9-3.5,4.8-3.2,7.6c-2.4-1.4-5.5-1.7-8.3-0.4c-2.7,1.3-4.5,3.9-4.9,6.7c-2-2-5-2.9-8-2.2c-3,0.7-5.2,2.8-6.2,5.4
					c-1.6-2.4-4.2-3.9-7.3-3.9c-3,0-5.7,1.6-7.3,3.9c-1-2.6-3.3-4.8-6.2-5.4c-3-0.7-5.9,0.2-8,2.2c-0.4-2.8-2.1-5.4-4.9-6.7
					c-2.7-1.3-5.8-1.1-8.3,0.4c0.2-2.8-0.9-5.7-3.2-7.6c-2.4-1.9-5.4-2.3-8.1-1.5c0.9-2.7,0.4-5.8-1.5-8.1c-3-3.8-8.5-4.4-12.3-1.4
					c-3.8,3-4.4,8.5-1.4,12.3c2.3,2.9,6.2,3.9,9.5,2.9c-1.1,3.4-0.1,7.2,2.9,9.5c2.9,2.3,6.9,2.5,9.9,0.7c-0.3,3.5,1.5,7,4.9,8.6
					c3.4,1.6,7.3,0.9,9.8-1.6c0.5,3.5,3.1,6.5,6.7,7.3c3.6,0.8,7.3-0.8,9.2-3.7c1.2,3.3,4.4,5.7,8.2,5.7s6.9-2.4,8.2-5.7
					c1.9,2.9,5.6,4.5,9.2,3.7c3.6-0.8,6.2-3.8,6.7-7.3c2.6,2.4,6.4,3.2,9.8,1.6c3.4-1.6,5.2-5.1,4.9-8.6c3,1.8,7,1.7,9.9-0.7
					c2.9-2.3,3.9-6.2,2.9-9.5c3.4,1.1,7.2,0.1,9.5-2.9C190.7,420.6,190.1,415.1,186.3,412.1z"/>
				<path class="st66" d="M186.3,411.6c-3.8-3-9.3-2.4-12.3,1.4c-1.9,2.4-2.3,5.4-1.5,8.1c-2.7-0.9-5.8-0.4-8.1,1.5
					c-2.4,1.9-3.5,4.8-3.2,7.6c-2.4-1.4-5.5-1.7-8.3-0.4c-2.7,1.3-4.5,3.9-4.9,6.7c-2-2-5-2.9-8-2.2c-3,0.7-5.2,2.8-6.2,5.4
					c-1.6-2.4-4.2-3.9-7.3-3.9c-3,0-5.7,1.6-7.3,3.9c-1-2.6-3.3-4.8-6.2-5.4c-3-0.7-5.9,0.2-8,2.2c-0.4-2.8-2.1-5.4-4.9-6.7
					c-2.7-1.3-5.8-1.1-8.3,0.4c0.2-2.8-0.9-5.7-3.2-7.6c-2.4-1.9-5.4-2.3-8.1-1.5c0.9-2.7,0.4-5.8-1.5-8.1c-3-3.8-8.5-4.4-12.3-1.4
					c-3.8,3-4.4,8.5-1.4,12.3c2.3,2.9,6.2,3.9,9.5,2.9c-1.1,3.4-0.1,7.2,2.9,9.5c2.9,2.3,6.9,2.5,9.9,0.7c-0.3,3.5,1.5,7,4.9,8.6
					c3.4,1.6,7.3,0.9,9.8-1.6c0.5,3.5,3.1,6.5,6.7,7.3c3.6,0.8,7.3-0.8,9.2-3.7c1.2,3.3,4.4,5.7,8.2,5.7s6.9-2.4,8.2-5.7
					c1.9,2.9,5.6,4.5,9.2,3.7c3.6-0.8,6.2-3.8,6.7-7.3c2.6,2.4,6.4,3.2,9.8,1.6c3.4-1.6,5.2-5.1,4.9-8.6c3,1.8,7,1.7,9.9-0.7
					c2.9-2.3,3.9-6.2,2.9-9.5c3.4,1.1,7.2,0.1,9.5-2.9C190.7,420.1,190.1,414.6,186.3,411.6z"/>
				<path d="M186.3,411.2c-3.8-3-9.3-2.4-12.3,1.4c-1.9,2.4-2.3,5.4-1.5,8.1c-2.7-0.9-5.8-0.4-8.1,1.5c-2.4,1.9-3.5,4.8-3.2,7.6
					c-2.4-1.4-5.5-1.7-8.3-0.4c-2.7,1.3-4.5,3.9-4.9,6.7c-2-2-5-2.9-8-2.2c-3,0.7-5.2,2.8-6.2,5.4c-1.6-2.4-4.2-3.9-7.3-3.9
					c-3,0-5.7,1.6-7.3,3.9c-1-2.6-3.3-4.8-6.2-5.4c-3-0.7-5.9,0.2-8,2.2c-0.4-2.8-2.1-5.4-4.9-6.7c-2.7-1.3-5.8-1.1-8.3,0.4
					c0.2-2.8-0.9-5.7-3.2-7.6c-2.4-1.9-5.4-2.3-8.1-1.5c0.9-2.7,0.4-5.8-1.5-8.1c-3-3.8-8.5-4.4-12.3-1.4c-3.8,3-4.4,8.5-1.4,12.3
					c2.3,2.9,6.2,3.9,9.5,2.9c-1.1,3.4-0.1,7.2,2.9,9.5c2.9,2.3,6.9,2.5,9.9,0.7c-0.3,3.5,1.5,7,4.9,8.6c3.4,1.6,7.3,0.9,9.8-1.6
					c0.5,3.5,3.1,6.5,6.7,7.3c3.6,0.8,7.3-0.8,9.2-3.7c1.2,3.3,4.4,5.7,8.2,5.7s6.9-2.4,8.2-5.7c1.9,2.9,5.6,4.5,9.2,3.7
					c3.6-0.8,6.2-3.8,6.7-7.3c2.6,2.4,6.4,3.2,9.8,1.6c3.4-1.6,5.2-5.1,4.9-8.6c3,1.8,7,1.7,9.9-0.7c2.9-2.3,3.9-6.2,2.9-9.5
					c3.4,1.1,7.2,0.1,9.5-2.9C190.7,419.7,190.1,414.2,186.3,411.2z"/>
			</g>
		</g>
		<linearGradient id="SVGID_13_" gradientUnits="userSpaceOnUse" x1="117.8762" y1="305.3248" x2="135.3312" y2="305.3248">
			<stop  offset="0" style="stop-color:#01639C"/>
			<stop  offset="1" style="stop-color:#004580"/>
		</linearGradient>
		<circle class="st67" cx="126.6" cy="305.3" r="8.7"/>
		<linearGradient id="SVGID_14_" gradientUnits="userSpaceOnUse" x1="102.4302" y1="307.0649" x2="119.8891" y2="307.0649">
			<stop  offset="0" style="stop-color:#01639C"/>
			<stop  offset="1" style="stop-color:#004580"/>
		</linearGradient>
		<circle class="st68" cx="111.2" cy="307.1" r="8.7"/>
		<linearGradient id="SVGID_15_" gradientUnits="userSpaceOnUse" x1="87.7606" y1="312.198" x2="105.2197" y2="312.198">
			<stop  offset="0" style="stop-color:#01639C"/>
			<stop  offset="1" style="stop-color:#004580"/>
		</linearGradient>
		<circle class="st69" cx="96.5" cy="312.2" r="8.7"/>
		<linearGradient id="SVGID_16_" gradientUnits="userSpaceOnUse" x1="74.6027" y1="320.4667" x2="92.0584" y2="320.4667">
			<stop  offset="0" style="stop-color:#01639C"/>
			<stop  offset="1" style="stop-color:#004580"/>
		</linearGradient>
		<circle class="st70" cx="83.3" cy="320.5" r="8.7"/>
		<linearGradient id="SVGID_17_" gradientUnits="userSpaceOnUse" x1="63.613" y1="331.4564" x2="81.0688" y2="331.4564">
			<stop  offset="0" style="stop-color:#01639C"/>
			<stop  offset="1" style="stop-color:#004580"/>
		</linearGradient>
		<circle class="st71" cx="72.3" cy="331.5" r="8.7"/>
		<linearGradient id="SVGID_18_" gradientUnits="userSpaceOnUse" x1="63.613" y1="418.0026" x2="81.0688" y2="418.0026">
			<stop  offset="0" style="stop-color:#01639C"/>
			<stop  offset="1" style="stop-color:#004580"/>
		</linearGradient>
		<circle class="st72" cx="72.3" cy="418" r="8.7"/>
		<linearGradient id="SVGID_19_" gradientUnits="userSpaceOnUse" x1="74.6027" y1="428.9923" x2="92.0584" y2="428.9923">
			<stop  offset="0" style="stop-color:#01639C"/>
			<stop  offset="1" style="stop-color:#004580"/>
		</linearGradient>
		<circle class="st73" cx="83.3" cy="429" r="8.7"/>
		<linearGradient id="SVGID_20_" gradientUnits="userSpaceOnUse" x1="87.7606" y1="437.261" x2="105.2197" y2="437.261">
			<stop  offset="0" style="stop-color:#01639C"/>
			<stop  offset="1" style="stop-color:#004580"/>
		</linearGradient>
		<circle class="st74" cx="96.5" cy="437.3" r="8.7"/>
		<linearGradient id="SVGID_21_" gradientUnits="userSpaceOnUse" x1="102.4302" y1="442.3941" x2="119.8891" y2="442.3941">
			<stop  offset="0" style="stop-color:#01639C"/>
			<stop  offset="1" style="stop-color:#004580"/>
		</linearGradient>
		<circle class="st75" cx="111.2" cy="442.4" r="8.7"/>
		<linearGradient id="SVGID_22_" gradientUnits="userSpaceOnUse" x1="117.8762" y1="444.1342" x2="135.3312" y2="444.1342">
			<stop  offset="0" style="stop-color:#01639C"/>
			<stop  offset="1" style="stop-color:#004580"/>
		</linearGradient>
		<circle class="st76" cx="126.6" cy="444.1" r="8.7"/>
		<linearGradient id="SVGID_23_" gradientUnits="userSpaceOnUse" x1="133.3182" y1="442.3941" x2="150.7771" y2="442.3941">
			<stop  offset="0" style="stop-color:#01639C"/>
			<stop  offset="1" style="stop-color:#004580"/>
		</linearGradient>
		<circle class="st77" cx="142" cy="442.4" r="8.7"/>
		<linearGradient id="SVGID_24_" gradientUnits="userSpaceOnUse" x1="147.9877" y1="437.261" x2="165.4468" y2="437.261">
			<stop  offset="0" style="stop-color:#01639C"/>
			<stop  offset="1" style="stop-color:#004580"/>
		</linearGradient>
		<circle class="st78" cx="156.7" cy="437.3" r="8.7"/>
		<linearGradient id="SVGID_25_" gradientUnits="userSpaceOnUse" x1="161.1489" y1="428.9923" x2="178.6047" y2="428.9923">
			<stop  offset="0" style="stop-color:#01639C"/>
			<stop  offset="1" style="stop-color:#004580"/>
		</linearGradient>
		<circle class="st79" cx="169.9" cy="429" r="8.7"/>
		<linearGradient id="SVGID_26_" gradientUnits="userSpaceOnUse" x1="172.1386" y1="418.0026" x2="189.5943" y2="418.0026">
			<stop  offset="0" style="stop-color:#01639C"/>
			<stop  offset="1" style="stop-color:#004580"/>
		</linearGradient>
		<circle class="st80" cx="180.9" cy="418" r="8.7"/>
		<linearGradient id="SVGID_27_" gradientUnits="userSpaceOnUse" x1="180.4056" y1="404.8431" x2="197.8647" y2="404.8431">
			<stop  offset="0" style="stop-color:#01639C"/>
			<stop  offset="1" style="stop-color:#004580"/>
		</linearGradient>
		<circle class="st81" cx="189.1" cy="404.8" r="8.7"/>
		<linearGradient id="SVGID_28_" gradientUnits="userSpaceOnUse" x1="185.5388" y1="390.1735" x2="202.9977" y2="390.1735">
			<stop  offset="0" style="stop-color:#01639C"/>
			<stop  offset="1" style="stop-color:#004580"/>
		</linearGradient>
		<circle class="st82" cx="194.3" cy="390.2" r="8.7"/>
		<linearGradient id="SVGID_29_" gradientUnits="userSpaceOnUse" x1="187.2808" y1="374.7295" x2="204.7359" y2="374.7295">
			<stop  offset="0" style="stop-color:#01639C"/>
			<stop  offset="1" style="stop-color:#004580"/>
		</linearGradient>
		<circle class="st83" cx="196" cy="374.7" r="8.7"/>
		<linearGradient id="SVGID_30_" gradientUnits="userSpaceOnUse" x1="185.5388" y1="359.2855" x2="202.9977" y2="359.2855">
			<stop  offset="0" style="stop-color:#01639C"/>
			<stop  offset="1" style="stop-color:#004580"/>
		</linearGradient>
		<circle class="st84" cx="194.3" cy="359.3" r="8.7"/>
		<linearGradient id="SVGID_31_" gradientUnits="userSpaceOnUse" x1="180.4056" y1="344.6159" x2="197.8647" y2="344.6159">
			<stop  offset="0" style="stop-color:#01639C"/>
			<stop  offset="1" style="stop-color:#004580"/>
		</linearGradient>
		<circle class="st85" cx="189.1" cy="344.6" r="8.7"/>
		<linearGradient id="SVGID_32_" gradientUnits="userSpaceOnUse" x1="172.1386" y1="331.4564" x2="189.5943" y2="331.4564">
			<stop  offset="0" style="stop-color:#01639C"/>
			<stop  offset="1" style="stop-color:#004580"/>
		</linearGradient>
		<circle class="st86" cx="180.9" cy="331.5" r="8.7"/>
		<linearGradient id="SVGID_33_" gradientUnits="userSpaceOnUse" x1="161.1489" y1="320.4667" x2="178.6047" y2="320.4667">
			<stop  offset="0" style="stop-color:#01639C"/>
			<stop  offset="1" style="stop-color:#004580"/>
		</linearGradient>
		<circle class="st87" cx="169.9" cy="320.5" r="8.7"/>
		<linearGradient id="SVGID_34_" gradientUnits="userSpaceOnUse" x1="147.9877" y1="312.198" x2="165.4468" y2="312.198">
			<stop  offset="0" style="stop-color:#01639C"/>
			<stop  offset="1" style="stop-color:#004580"/>
		</linearGradient>
		<circle class="st88" cx="156.7" cy="312.2" r="8.7"/>
		<linearGradient id="SVGID_35_" gradientUnits="userSpaceOnUse" x1="133.3182" y1="307.0649" x2="150.7771" y2="307.0649">
			<stop  offset="0" style="stop-color:#01639C"/>
			<stop  offset="1" style="stop-color:#004580"/>
		</linearGradient>
		<circle class="st89" cx="142" cy="307.1" r="8.7"/>
		<g class="st90">
			<circle class="st54" cx="126.6" cy="374.7" r="73.1"/>
			<circle class="st55" cx="126.6" cy="374.7" r="72.9"/>
			<circle class="st56" cx="126.6" cy="374.7" r="72.6"/>
			<circle class="st57" cx="126.6" cy="374.7" r="72.4"/>
			<circle class="st58" cx="126.6" cy="374.7" r="72.1"/>
			<circle class="st59" cx="126.6" cy="374.7" r="71.9"/>
			<circle class="st60" cx="126.6" cy="374.7" r="71.6"/>
			<circle class="st61" cx="126.6" cy="374.7" r="71.4"/>
			<circle class="st62" cx="126.6" cy="374.7" r="71.1"/>
			<circle class="st63" cx="126.6" cy="374.7" r="70.8"/>
			<circle class="st64" cx="126.6" cy="374.7" r="70.6"/>
			<circle class="st65" cx="126.6" cy="374.7" r="70.3"/>
			<circle class="st66" cx="126.6" cy="374.7" r="70.1"/>
			<circle cx="126.6" cy="374.7" r="69.8"/>
		</g>
		<linearGradient id="SVGID_36_" gradientUnits="userSpaceOnUse" x1="85.9883" y1="307.822" x2="167.3198" y2="441.803">
			<stop  offset="0" style="stop-color:#014E7A"/>
			<stop  offset="1" style="stop-color:#003664"/>
		</linearGradient>
		<circle class="st91" cx="126.6" cy="374.7" r="69.8"/>
		<circle class="st9" cx="126.6" cy="374.7" r="59.8"/>
		<linearGradient id="SVGID_37_" gradientUnits="userSpaceOnUse" x1="85.9883" y1="307.822" x2="167.3199" y2="441.8032">
			<stop  offset="0" style="stop-color:#A7D63F"/>
			<stop  offset="7.382721e-02" style="stop-color:#9FD340"/>
			<stop  offset="1" style="stop-color:#39B54A"/>
		</linearGradient>
		<circle class="st92" cx="126.6" cy="374.7" r="56.1"/>
		<path class="st9" d="M85.9,380.7l27,29.3c1.1,1.2,3.1,1.2,4.1-0.1l47.2-58.2c1-1.2,0.8-3-0.5-3.9l-11.6-8.6
			c-1.2-0.9-2.9-0.6-3.8,0.5l-31,40.1c-1,1.3-2.9,1.4-4.1,0.3l-13.4-13.4c-1.1-1.1-2.8-1.1-3.9,0l-10.1,10.3
			C84.9,378,84.9,379.6,85.9,380.7z"/>
	</g>
</g>
</svg>
