<?xml version="1.0" encoding="utf-8"?>
<!-- Generator: Adobe Illustrator 19.2.1, SVG Export Plug-In . SVG Version: 6.00 Build 0)  -->
<svg version="1.1" id="Layer_1" xmlns="http://www.w3.org/2000/svg" xmlns:xlink="http://www.w3.org/1999/xlink" x="0px" y="0px"
	 viewBox="0 0 250 250" style="enable-background:new 0 0 250 250;" xml:space="preserve">
<style type="text/css">
	.st0{fill:#237EC1;}
	.st1{fill:#BD9679;}
	.st2{fill:#CFA585;}
	.st3{fill:#E3B592;}
	.st4{fill:#494A70;}
	.st5{fill:#FAC7A0;}
	.st6{fill:#D6B398;}
	.st7{fill:#FFFFFF;}
	.st8{fill:#FFBD48;stroke:#E8953A;stroke-miterlimit:10;}
	.st9{fill:#FF914F;stroke:#FFFFFF;stroke-miterlimit:10;}
	.st10{fill:none;stroke:#FFFFFF;stroke-miterlimit:10;}
	.st11{fill:#AFAFAF;}
	.st12{fill:#446785;}
	.st13{fill:#D8D9DA;}
	.st14{fill:#F5F5F5;}
	.st15{fill:#E1E1E1;}
	.st16{fill:#FF3632;}
	.st17{fill:#FFC200;}
	.st18{fill:#C8DD15;}
	.st19{fill:#FF6C00;}
	.st20{fill:#6BC43C;}
	.st21{filter:url(#Adobe_OpacityMaskFilter);}
	.st22{filter:url(#Adobe_OpacityMaskFilter_1_);}
	.st23{mask:url(#SVGID_1_);fill:url(#SVGID_2_);}
	.st24{fill:url(#SVGID_3_);}
	.st25{fill:#84CD5D;}
	.st26{fill:#41A029;}
	.st27{fill:#278C1F;}
	.st28{fill:#D8E86D;}
	.st29{fill:#AEB503;}
	.st30{fill:#A09E00;}
	.st31{fill:#FFD700;}
	.st32{fill:#FFA100;}
	.st33{fill:#FF9000;}
	.st34{fill:#FF7D00;}
	.st35{fill:#F94107;}
	.st36{fill:#DE3300;}
	.st37{fill:#FF524F;}
	.st38{fill:#E62323;}
	.st39{fill:#D61516;}
	.st40{fill:#BEBEBE;}
	.st41{fill:#404040;}
	.st42{fill:#616161;}
	.st43{fill:url(#SVGID_4_);}
	.st44{fill:url(#SVGID_5_);}
	.st45{fill:url(#SVGID_6_);}
	.st46{fill:url(#SVGID_7_);}
	.st47{fill:url(#SVGID_8_);}
	.st48{fill:url(#SVGID_9_);}
	.st49{fill:url(#SVGID_10_);}
	.st50{opacity:0.35;clip-path:url(#SVGID_12_);}
	.st51{opacity:0;}
	.st52{opacity:7.692300e-02;}
	.st53{opacity:0.1538;}
	.st54{opacity:0.2308;}
	.st55{opacity:0.3077;}
	.st56{opacity:0.3846;}
	.st57{opacity:0.4615;}
	.st58{opacity:0.5385;}
	.st59{opacity:0.6154;}
	.st60{opacity:0.6923;}
	.st61{opacity:0.7692;}
	.st62{opacity:0.8462;}
	.st63{opacity:0.9231;}
	.st64{fill:url(#SVGID_13_);}
	.st65{fill:url(#SVGID_14_);}
	.st66{fill:url(#SVGID_15_);}
	.st67{fill:url(#SVGID_16_);}
	.st68{fill:url(#SVGID_17_);}
	.st69{fill:url(#SVGID_18_);}
	.st70{fill:url(#SVGID_19_);}
	.st71{fill:url(#SVGID_20_);}
	.st72{fill:url(#SVGID_21_);}
	.st73{fill:url(#SVGID_22_);}
	.st74{fill:url(#SVGID_23_);}
	.st75{fill:url(#SVGID_24_);}
	.st76{fill:url(#SVGID_25_);}
	.st77{fill:url(#SVGID_26_);}
	.st78{fill:url(#SVGID_27_);}
	.st79{fill:url(#SVGID_28_);}
	.st80{fill:url(#SVGID_29_);}
	.st81{fill:url(#SVGID_30_);}
	.st82{fill:url(#SVGID_31_);}
	.st83{fill:url(#SVGID_32_);}
	.st84{fill:url(#SVGID_33_);}
	.st85{fill:url(#SVGID_34_);}
	.st86{fill:url(#SVGID_35_);}
	.st87{opacity:0.25;}
	.st88{fill:url(#SVGID_36_);}
	.st89{fill:url(#SVGID_37_);}
</style>
<text transform="matrix(0 -1 1 0 464.8135 -118.6338)" class="st0" style="font-family:'Futura-Medium'; font-size:26.3079px;"> - - - - - - </text>
<text transform="matrix(0 -1 1 0 332.0918 -116.2334)" class="st0" style="font-family:'Futura-Medium'; font-size:26.3079px;"> - - - - - - </text>
<g>
	<g>
		<path class="st1" d="M-258.7-86.2c0,0-7.2-1.4-9,10c-0.5,2.9,34.7,10.3,34.7,10.3l50.5,6.4l-5.7-15L-258.7-86.2z"/>
		<path class="st2" d="M-157.4-53.3c0,0-102.5-24.9-104.8-27.7c-2.3-2.7-1.5-13.2,7.7-14.4c9.2-1.2,30.3,4.4,30.3,4.4l31.7,0.6
			l63.3-5.4l27.2,25C-101.8-70.8-152.1-52-157.4-53.3z"/>
		<path class="st3" d="M-87.2-74.4c3.5,1.3,35.1,13.5,35.1,13.5l14-44.4c0,0-47-18.7-50.7-19.7c-3.7-0.9-10.8-8.2-42.5,7.8
			c-31.8,16-29.1,13.5-29.1,13.5s-34,4.2-41.5,11.8c-7.5,7.6-3,22,13.6,20.8c16.6-1.2,38-10.1,38-10.1l48.5,10.4
			C-101.8-70.8-90.6-75.7-87.2-74.4z"/>
		
			<rect x="-81.7" y="-103" transform="matrix(0.2849 -0.9586 0.9586 0.2849 45.5011 -107.7028)" class="st4" width="64.6" height="37.2"/>
	</g>
	<path class="st5" d="M-181.4-77.6c1.9-1.3,1.9-3.1,1.1-5.4c-0.8-2.3-2.1-9.5-3.4-10.2c-1.2-0.7-18.4-0.3-19.4,9.9
		c-0.8,8.4,9.5,8,11.8,7.8C-190.7-75.6-182.5-76.9-181.4-77.6z"/>
	<path class="st6" d="M-248.9-76.6c0,0-0.1-2.4-2.2-4c-2-1.5-9.6-2.9-10.5-2.4c-0.9,0.4-0.6,2.3-0.6,2.3L-248.9-76.6z"/>
	<path class="st6" d="M-254.3-70.9c0,0,0.2-1.3-1.5-2.8c-1.8-1.5-11.6-3.8-11.7-3.5c-0.1,0.3-0.4,1.9-0.4,1.9
		S-263.1-73.1-254.3-70.9z"/>
</g>
<circle class="st7" cx="-348.3" cy="-158.7" r="0"/>
<circle class="st8" cx="-175.3" cy="-154.2" r="33.5"/>
<path class="st9" d="M108.3-122.9c-0.4-3.1-2.8-5.5-5.8-6.1c-7.8-1.4-16.6-5.7-25.4-9.1l-1.1-4.8c-0.8-0.1-1.5-0.3-2.3-0.4v-7.1
	l0.6-0.6c1.6-1.6,2.6-3.7,2.8-6c0.1-1.2,0.3-2.5,0.4-3.8c0.6,0.7,2.1,0.9,2.7,0.2c0.5-0.5,0.9-1.3,1.2-2.2c1-3.1,1.5-6.8,1.6-10.9
	c0.1-1.7-1.4-2.8-2.9-2.5c1.1-7.6,1-14,0.1-20.5c-2.3-1.7-4.2-2.7-7.2-2.8l-2.7-4.5c-9.6-5.1-24.9-2.4-33.5,5.9
	c-1.3,5.4-1.3,12.9-0.2,21.9c-1.4-0.3-3,0.8-2.9,2.5c0.2,4.1,0.7,7.8,1.6,10.9c0.3,1,0.7,1.7,1.2,2.2c0.6,0.7,2.1,0.4,2.7-0.2
	c0.1,1.3,0.3,2.6,0.4,3.8c0.2,2.2,1.2,4.3,2.8,5.9l0.6,0.6v7.1c-0.8,0.1-1.5,0.2-2.3,0.4l-1.1,4.9c-8.7,3.4-17.4,7.6-25.4,9
	c-3.1,0.5-5.5,3.1-5.9,6.2c-0.9,6.2-1.3,35.2-1.3,35.2s26.1,15.9,51,15.9s51.6-15.9,51.6-15.9S109-118.4,108.3-122.9z"/>
<text transform="matrix(1 0 0 1 45.9922 -91.7539)" class="st7" style="font-family:'Futura-Medium'; font-size:13.9235px;">&lt;/&gt;</text>
<circle class="st10" cx="58.4" cy="-97.3" r="15.2"/>
<path class="st9" d="M241.3-119.8c-0.4-3.1-2.8-5.5-5.8-6.1c-7.8-1.4-16.6-5.7-25.4-9.1l-1.1-4.8c-0.8-0.1-1.5-0.3-2.3-0.4v-7.1
	l0.6-0.6c1.6-1.6,2.6-3.7,2.8-6c0.1-1.2,0.3-2.5,0.4-3.8c0.6,0.7,2.1,0.9,2.7,0.2c0.5-0.5,0.9-1.3,1.2-2.2c1-3.1,1.5-6.8,1.6-10.9
	c0.1-1.7-1.4-2.8-2.9-2.5c1.1-7.6,1-14,0.1-20.5c-2.3-1.7-4.2-2.7-7.2-2.8l-2.7-4.5c-9.6-5.1-24.9-2.4-33.5,5.9
	c-1.3,5.4-1.3,12.9-0.2,21.9c-1.4-0.3-3,0.8-2.9,2.5c0.2,4.1,0.7,7.8,1.6,10.9c0.3,1,0.7,1.7,1.2,2.2c0.6,0.7,2.1,0.4,2.7-0.2
	c0.1,1.3,0.3,2.6,0.4,3.8c0.2,2.2,1.2,4.3,2.8,5.9l0.6,0.6v7.1c-0.8,0.1-1.5,0.2-2.3,0.4l-1.1,4.9c-8.7,3.4-17.4,7.6-25.4,9
	c-3.1,0.5-5.5,3.1-5.9,6.2c-0.9,6.2-1.3,35.2-1.3,35.2s26.1,15.9,51,15.9s51.6-15.9,51.6-15.9S241.9-115.3,241.3-119.8z"/>
<text transform="matrix(1 0 0 1 178.875 -91.2002)" class="st7" style="font-family:'Futura-Medium'; font-size:13.9235px;">&lt;/&gt;</text>
<circle class="st10" cx="190.7" cy="-96.1" r="15.2"/>
<path class="st9" d="M174.8-85.3c-0.4-3.1-2.8-5.5-5.8-6.1c-7.8-1.4-16.6-5.7-25.4-9.1l-1.1-4.8c-0.8-0.1-1.5-0.3-2.3-0.4v-7.1
	l0.6-0.6c1.6-1.6,2.6-3.7,2.8-6c0.1-1.2,0.3-2.5,0.4-3.8c0.6,0.7,2.1,0.9,2.7,0.2c0.5-0.5,0.9-1.3,1.2-2.2c1-3.1,1.5-6.8,1.6-10.9
	c0.1-1.7-1.4-2.8-2.9-2.5c1.1-7.6,1-14,0.1-20.5c-2.3-1.7-4.2-2.7-7.2-2.8l-2.7-4.5c-9.6-5.1-24.9-2.4-33.5,5.9
	c-1.3,5.4-1.3,12.9-0.2,21.9c-1.4-0.3-3,0.8-2.9,2.5c0.2,4.1,0.7,7.8,1.6,10.9c0.3,1,0.7,1.7,1.2,2.2c0.6,0.7,2.1,0.4,2.7-0.2
	c0.1,1.3,0.3,2.6,0.4,3.8c0.2,2.2,1.2,4.3,2.8,5.9l0.6,0.6v7.1c-0.8,0.1-1.5,0.2-2.3,0.4l-1.1,4.9c-8.7,3.4-17.4,7.6-25.4,9
	c-3.1,0.5-5.5,3.1-5.9,6.2C74-79,73.5-50,73.5-50s26.1,15.9,51,15.9S176.1-50,176.1-50S175.4-80.7,174.8-85.3z"/>
<text transform="matrix(1 0 0 1 112.3618 -56.6846)" class="st7" style="font-family:'Futura-Medium'; font-size:13.9235px;">&lt;/&gt;</text>
<circle class="st10" cx="124.1" cy="-61.6" r="15.2"/>
<path class="st0" d="M359.2-202.7c-0.3-2-1.8-3.6-3.8-4c-5.1-0.9-10.9-3.7-16.6-5.9l-0.7-3.1c-0.5-0.1-1-0.2-1.5-0.3v-4.7l0.4-0.4
	c1-1.1,1.7-2.4,1.8-3.9c0.1-0.8,0.2-1.6,0.3-2.5c0.4,0.4,1.4,0.6,1.7,0.2c0.3-0.4,0.6-0.8,0.8-1.5c0.6-2,1-4.4,1.1-7.1
	c0-1.1-0.9-1.8-1.9-1.6c0.7-5,0.6-9.2,0.1-13.4c-1.5-1.1-2.8-1.7-4.7-1.8l-1.8-2.9c-6.3-3.3-16.3-1.5-21.9,3.9
	c-0.8,3.5-0.9,8.4-0.1,14.3c-0.9-0.2-1.9,0.5-1.9,1.6c0.1,2.7,0.4,5.1,1.1,7.1c0.2,0.6,0.5,1.1,0.8,1.5c0.4,0.4,1.4,0.3,1.7-0.2
	c0.1,0.9,0.2,1.7,0.3,2.5c0.1,1.5,0.8,2.8,1.8,3.9l0.4,0.4v4.7c-0.5,0.1-1,0.2-1.5,0.3l-0.7,3.2c-5.7,2.2-11.4,5-16.6,5.9
	c-2,0.4-3.6,2-3.8,4c-0.6,4-0.9,23-0.9,23s17,10.4,33.4,10.4s33.7-10.4,33.7-10.4S359.6-199.7,359.2-202.7z"/>
<text transform="matrix(1 0 0 1 318.3857 -183.9443)" class="st7" style="font-family:'Futura-Medium'; font-size:9.1043px;">&lt;/&gt;</text>
<circle class="st10" cx="326.1" cy="-187.1" r="9.9"/>
<path class="st0" d="M491.1-202.7c-0.3-2-1.8-3.6-3.8-4c-5.1-0.9-10.9-3.7-16.6-5.9l-0.7-3.1c-0.5-0.1-1-0.2-1.5-0.3v-4.7l0.4-0.4
	c1-1.1,1.7-2.4,1.8-3.9c0.1-0.8,0.2-1.6,0.3-2.5c0.4,0.4,1.4,0.6,1.7,0.2c0.3-0.4,0.6-0.8,0.8-1.5c0.6-2,1-4.4,1.1-7.1
	c0-1.1-0.9-1.8-1.9-1.6c0.7-5,0.6-9.2,0.1-13.4c-1.5-1.1-2.8-1.7-4.7-1.8l-1.8-2.9c-6.3-3.3-16.3-1.5-21.9,3.9
	c-0.8,3.5-0.9,8.4-0.1,14.3c-0.9-0.2-1.9,0.5-1.9,1.6c0.1,2.7,0.4,5.1,1.1,7.1c0.2,0.6,0.5,1.1,0.8,1.5c0.4,0.4,1.4,0.3,1.7-0.2
	c0.1,0.9,0.2,1.7,0.3,2.5c0.1,1.5,0.8,2.8,1.8,3.9l0.4,0.4v4.7c-0.5,0.1-1,0.2-1.5,0.3l-0.7,3.2c-5.7,2.2-11.4,5-16.6,5.9
	c-2,0.4-3.6,2-3.8,4c-0.6,4-0.9,23-0.9,23s17,10.4,33.4,10.4s33.7-10.4,33.7-10.4S491.5-199.7,491.1-202.7z"/>
<text transform="matrix(1 0 0 1 450.3076 -183.9443)" class="st7" style="font-family:'Futura-Medium'; font-size:9.1043px;">&lt;/&gt;</text>
<circle class="st10" cx="458" cy="-187.1" r="9.9"/>
<path class="st0" d="M491.1-67.1c-0.3-2-1.8-3.6-3.8-4c-5.1-0.9-10.9-3.7-16.6-5.9l-0.7-3.1c-0.5-0.1-1-0.2-1.5-0.3v-4.7l0.4-0.4
	c1-1.1,1.7-2.4,1.8-3.9c0.1-0.8,0.2-1.6,0.3-2.5c0.4,0.4,1.4,0.6,1.7,0.2c0.3-0.4,0.6-0.8,0.8-1.5c0.6-2,1-4.4,1.1-7.1
	c0-1.1-0.9-1.8-1.9-1.6c0.7-5,0.6-9.2,0.1-13.4c-1.5-1.1-2.8-1.7-4.7-1.8l-1.8-2.9c-6.3-3.3-16.3-1.5-21.9,3.9
	c-0.8,3.5-0.9,8.4-0.1,14.3c-0.9-0.2-1.9,0.5-1.9,1.6c0.1,2.7,0.4,5.1,1.1,7.1c0.2,0.6,0.5,1.1,0.8,1.5c0.4,0.4,1.4,0.3,1.7-0.2
	c0.1,0.9,0.2,1.7,0.3,2.5c0.1,1.5,0.8,2.8,1.8,3.9l0.4,0.4v4.7c-0.5,0.1-1,0.2-1.5,0.3l-0.7,3.2c-5.7,2.2-11.4,5-16.6,5.9
	c-2,0.4-3.6,2-3.8,4c-0.6,4-0.9,23-0.9,23s17,10.4,33.4,10.4S492-44.1,492-44.1S491.5-64.2,491.1-67.1z"/>
<text transform="matrix(1 0 0 1 450.3076 -48.4243)" class="st7" style="font-family:'Futura-Medium'; font-size:9.1043px;">&lt;/&gt;</text>
<circle class="st10" cx="458" cy="-51.6" r="9.9"/>
<path class="st0" d="M359.2-67.1c-0.3-2-1.8-3.6-3.8-4c-5.1-0.9-10.9-3.7-16.6-5.9l-0.7-3.1c-0.5-0.1-1-0.2-1.5-0.3v-4.7l0.4-0.4
	c1-1.1,1.7-2.4,1.8-3.9c0.1-0.8,0.2-1.6,0.3-2.5c0.4,0.4,1.4,0.6,1.7,0.2c0.3-0.4,0.6-0.8,0.8-1.5c0.6-2,1-4.4,1.1-7.1
	c0-1.1-0.9-1.8-1.9-1.6c0.7-5,0.6-9.2,0.1-13.4c-1.5-1.1-2.8-1.7-4.7-1.8l-1.8-2.9c-6.3-3.3-16.3-1.5-21.9,3.9
	c-0.8,3.5-0.9,8.4-0.1,14.3c-0.9-0.2-1.9,0.5-1.9,1.6c0.1,2.7,0.4,5.1,1.1,7.1c0.2,0.6,0.5,1.1,0.8,1.5c0.4,0.4,1.4,0.3,1.7-0.2
	c0.1,0.9,0.2,1.7,0.3,2.5c0.1,1.5,0.8,2.8,1.8,3.9l0.4,0.4v4.7c-0.5,0.1-1,0.2-1.5,0.3l-0.7,3.2c-5.7,2.2-11.4,5-16.6,5.9
	c-2,0.4-3.6,2-3.8,4c-0.6,4-0.9,23-0.9,23s17,10.4,33.4,10.4s33.7-10.4,33.7-10.4S359.6-64.2,359.2-67.1z"/>
<text transform="matrix(1 0 0 1 318.3857 -48.4243)" class="st7" style="font-family:'Futura-Medium'; font-size:9.1043px;">&lt;/&gt;</text>
<circle class="st10" cx="326.1" cy="-51.6" r="9.9"/>
<g>
	<g>
		<g>
			<g>
				<path class="st0" d="M365-117.2C365-117.2,365-117.1,365-117.2c0,0.1,0,0.1,0,0.1c0,0,0,0,0,0.1c0,0,0,0,0,0.1c0,0,0,0,0,0.1
					c0,0,0,0,0,0.1c0,0,0,0,0,0.1c0,0,0,0,0,0.1c0,0,0,0,0,0.1c0,0,0,0,0,0.1c0,0,0,0,0,0c0.1,0.1,0.1,0.1,0.2,0.2c0,0,0,0,0,0
					c0,0,0,0,0.1,0c0,0,0,0,0.1,0c0,0,0,0,0.1,0c0,0,0,0,0.1,0c0,0,0,0,0.1,0c0,0,0,0,0.1,0c0,0,0,0,0.1,0c0,0,0,0,0.1,0
					c0,0,0,0,0.1,0c0,0,0,0,0.1,0c0,0,0,0,0.1,0c0,0,0.1,0,0.1,0l12.4,0c0.8,0,1.4-0.6,1.4-1.4c0-0.8-0.6-1.4-1.4-1.4l-9,0
					l31.8-31.8v-2l-2,0l-31.8,31.8l0-9c0-0.8-0.6-1.4-1.4-1.4c-0.4,0-0.8,0.2-1,0.4c-0.3,0.3-0.4,0.6-0.4,1v12.4
					C365-117.3,365-117.3,365-117.2C365-117.2,365-117.2,365-117.2z"/>
			</g>
		</g>
	</g>
	<g>
		<g>
			<g>
				<path class="st0" d="M424.8-174.6C424.8-174.6,424.8-174.6,424.8-174.6c0-0.1,0-0.1,0-0.1c0,0,0,0,0-0.1c0,0,0,0,0-0.1
					c0,0,0,0,0-0.1c0,0,0,0,0-0.1c0,0,0,0,0-0.1c0,0,0,0,0-0.1c0,0,0,0,0-0.1c0,0,0,0,0-0.1c0,0,0,0,0,0c-0.1-0.1-0.1-0.1-0.2-0.2
					c0,0,0,0,0,0c0,0,0,0-0.1,0c0,0,0,0-0.1,0c0,0,0,0-0.1,0c0,0,0,0-0.1,0c0,0,0,0-0.1,0c0,0,0,0-0.1,0c0,0,0,0-0.1,0
					c0,0,0,0-0.1,0c0,0,0,0-0.1,0c0,0,0,0-0.1,0c0,0,0,0-0.1,0c0,0-0.1,0-0.1,0l-12.4,0c-0.8,0-1.4,0.6-1.4,1.4
					c0,0.8,0.6,1.4,1.4,1.4l9,0l-31.8,31.8v2l2,0l31.8-31.8l0,9c0,0.8,0.6,1.4,1.4,1.4c0.4,0,0.8-0.2,1-0.4c0.3-0.3,0.4-0.6,0.4-1
					v-12.4C424.9-174.4,424.9-174.5,424.8-174.6C424.9-174.6,424.9-174.6,424.8-174.6z"/>
			</g>
		</g>
	</g>
	<g>
		<g>
			<g>
				<path class="st0" d="M366.2-176.1C366.2-176.1,366.2-176.1,366.2-176.1c-0.1,0-0.1,0-0.1,0c0,0,0,0-0.1,0c0,0,0,0-0.1,0
					c0,0,0,0-0.1,0c0,0,0,0-0.1,0c0,0,0,0-0.1,0c0,0,0,0-0.1,0c0,0,0,0-0.1,0c0,0,0,0-0.1,0c0,0,0,0,0,0c-0.1,0.1-0.1,0.1-0.2,0.2
					c0,0,0,0,0,0c0,0,0,0,0,0.1c0,0,0,0,0,0.1c0,0,0,0,0,0.1c0,0,0,0,0,0.1c0,0,0,0,0,0.1c0,0,0,0,0,0.1c0,0,0,0,0,0.1
					c0,0,0,0,0,0.1c0,0,0,0,0,0.1c0,0,0,0,0,0.1c0,0,0,0,0,0.1c0,0,0,0.1,0,0.1l0,12.4c0,0.8,0.6,1.4,1.4,1.4c0.8,0,1.4-0.6,1.4-1.4
					l0-9l31.8,31.8h2l0-2l-31.8-31.8l9,0c0.8,0,1.4-0.6,1.4-1.4c0-0.4-0.2-0.8-0.4-1c-0.3-0.3-0.6-0.4-1-0.4h-12.4
					C366.4-176.1,366.3-176.1,366.2-176.1C366.3-176.1,366.3-176.1,366.2-176.1z"/>
			</g>
		</g>
	</g>
	<g>
		<g>
			<g>
				<path class="st0" d="M423.6-116.3C423.7-116.3,423.7-116.3,423.6-116.3c0.1,0,0.1,0,0.1,0c0,0,0,0,0.1,0c0,0,0,0,0.1,0
					c0,0,0,0,0.1,0c0,0,0,0,0.1,0c0,0,0,0,0.1,0c0,0,0,0,0.1,0c0,0,0,0,0.1,0c0,0,0,0,0.1,0c0,0,0,0,0,0c0.1-0.1,0.1-0.1,0.2-0.2
					c0,0,0,0,0,0c0,0,0,0,0-0.1c0,0,0,0,0-0.1c0,0,0,0,0-0.1c0,0,0,0,0-0.1c0,0,0,0,0-0.1c0,0,0,0,0-0.1c0,0,0,0,0-0.1
					c0,0,0,0,0-0.1c0,0,0,0,0-0.1c0,0,0,0,0-0.1c0,0,0,0,0-0.1c0,0,0-0.1,0-0.1l0-12.4c0-0.8-0.6-1.4-1.4-1.4
					c-0.8,0-1.4,0.6-1.4,1.4l0,9l-31.8-31.8h-2l0,2l31.8,31.8l-9,0c-0.8,0-1.4,0.6-1.4,1.4c0,0.4,0.2,0.8,0.4,1
					c0.3,0.3,0.6,0.4,1,0.4h12.4C423.5-116.3,423.5-116.3,423.6-116.3C423.6-116.3,423.6-116.3,423.6-116.3z"/>
			</g>
		</g>
	</g>
</g>
<text transform="matrix(1 0 0 1 320.5 -209.5859)" class="st0" style="font-family:'Futura-Medium'; font-size:26.3079px;">- - - - - - - - - - - </text>
<text transform="matrix(1 0 0 1 315.7021 -74.1963)" class="st0" style="font-family:'Futura-Medium'; font-size:26.3079px;">- - - - - - - - - - - </text>
<g>
	<g>
		<g>
			<g>
				<path class="st11" d="M-248.8,228c0,0.1,0,0.2,0,0.3c0,0.1,0,0.2,0.1,0.3c0,0.1,0,0.1,0.1,0.2c0,0.1,0.1,0.2,0.1,0.2
					c0,0.1,0.1,0.1,0.1,0.2c0,0.1,0.1,0.1,0.1,0.2c0,0.1,0.1,0.1,0.1,0.2c0,0.1,0.1,0.1,0.1,0.2c0,0.1,0.1,0.1,0.1,0.2
					c0.1,0.1,0.1,0.2,0.2,0.2c0,0.1,0.1,0.1,0.1,0.2c0.2,0.3,0.4,0.5,0.7,0.7c0.1,0,0.1,0.1,0.2,0.1c0.1,0.1,0.1,0.1,0.2,0.2
					c0.1,0,0.1,0.1,0.2,0.1c0.1,0,0.1,0.1,0.2,0.1c0.1,0,0.1,0.1,0.2,0.1c0.1,0,0.1,0.1,0.2,0.1c0.1,0,0.1,0.1,0.2,0.1
					c0.1,0,0.2,0.1,0.2,0.1c0.1,0,0.1,0,0.2,0.1c0.1,0,0.2,0,0.3,0.1c0.1,0,0.2,0,0.3,0c0.1,0,0.1,0,0.2,0c0.2,0,0.3,0,0.5,0l43.6,0
					c2.8,0,5-2.2,5-5c0-2.8-2.2-5-5-5l-31.5,0l111.3-111.3v-7.1l-7.1,0l-111.3,111.3l0-31.5c0-2.8-2.2-5-5-5c-1.4,0-2.6,0.6-3.5,1.5
					c-0.9,0.9-1.5,2.2-1.5,3.5v43.6c0,0.2,0,0.3,0,0.5C-248.8,227.8-248.8,227.9-248.8,228z"/>
			</g>
		</g>
	</g>
	<g>
		<g>
			<g>
				<path class="st11" d="M-39.3,26.9c0-0.1,0-0.2,0-0.3c0-0.1,0-0.2-0.1-0.3c0-0.1,0-0.1-0.1-0.2c0-0.1-0.1-0.2-0.1-0.2
					c0-0.1-0.1-0.1-0.1-0.2c0-0.1-0.1-0.1-0.1-0.2c0-0.1-0.1-0.1-0.1-0.2c0-0.1-0.1-0.1-0.1-0.2c0-0.1-0.1-0.1-0.1-0.2
					c-0.1-0.1-0.1-0.2-0.2-0.2c0-0.1-0.1-0.1-0.1-0.2c-0.2-0.3-0.4-0.5-0.7-0.7c-0.1,0-0.1-0.1-0.2-0.1c-0.1-0.1-0.1-0.1-0.2-0.2
					c-0.1,0-0.1-0.1-0.2-0.1c-0.1,0-0.1-0.1-0.2-0.1c-0.1,0-0.1-0.1-0.2-0.1c-0.1,0-0.1-0.1-0.2-0.1c-0.1,0-0.1-0.1-0.2-0.1
					c-0.1,0-0.2-0.1-0.2-0.1c-0.1,0-0.1,0-0.2-0.1c-0.1,0-0.2,0-0.3-0.1c-0.1,0-0.2,0-0.3,0c-0.1,0-0.1,0-0.2,0c-0.2,0-0.3,0-0.5,0
					l-43.6,0c-2.8,0-5,2.2-5,5c0,2.8,2.2,5,5,5l31.5,0l-111.3,111.3v7.1l7.1,0L-49.2,39.7l0,31.5c0,2.8,2.2,5,5,5
					c1.4,0,2.6-0.6,3.5-1.5c0.9-0.9,1.5-2.2,1.5-3.5V27.6c0-0.2,0-0.3,0-0.5C-39.3,27-39.3,27-39.3,26.9z"/>
			</g>
		</g>
	</g>
	<g>
		<g>
			<g>
				<path class="st11" d="M-244.6,21.6c-0.1,0-0.2,0-0.3,0c-0.1,0-0.2,0-0.3,0.1c-0.1,0-0.1,0-0.2,0.1c-0.1,0-0.2,0.1-0.2,0.1
					c-0.1,0-0.1,0.1-0.2,0.1c-0.1,0-0.1,0.1-0.2,0.1c-0.1,0-0.1,0.1-0.2,0.1c-0.1,0-0.1,0.1-0.2,0.1c-0.1,0-0.1,0.1-0.2,0.1
					c-0.1,0.1-0.2,0.1-0.2,0.2c-0.1,0-0.1,0.1-0.2,0.1c-0.3,0.2-0.5,0.4-0.7,0.7c0,0.1-0.1,0.1-0.1,0.2c-0.1,0.1-0.1,0.1-0.2,0.2
					c0,0.1-0.1,0.1-0.1,0.2c0,0.1-0.1,0.1-0.1,0.2c0,0.1-0.1,0.1-0.1,0.2c0,0.1-0.1,0.1-0.1,0.2c0,0.1-0.1,0.1-0.1,0.2
					c0,0.1-0.1,0.2-0.1,0.2c0,0.1,0,0.1-0.1,0.2c0,0.1,0,0.2-0.1,0.3c0,0.1,0,0.2,0,0.3c0,0.1,0,0.1,0,0.2c0,0.2,0,0.3,0,0.5l0,43.6
					c0,2.8,2.2,5,5,5c2.8,0,5-2.2,5-5l0-31.5l111.3,111.3h7.1l0-7.1L-231.7,31.6l31.5,0c2.8,0,5-2.2,5-5c0-1.4-0.6-2.6-1.5-3.5
					c-0.9-0.9-2.2-1.5-3.5-1.5l-43.6,0c-0.2,0-0.3,0-0.5,0C-244.4,21.6-244.5,21.6-244.6,21.6z"/>
			</g>
		</g>
	</g>
	<g>
		<g>
			<g>
				<path class="st11" d="M-43.5,231.1c0.1,0,0.2,0,0.3,0c0.1,0,0.2,0,0.3-0.1c0.1,0,0.1,0,0.2-0.1c0.1,0,0.2-0.1,0.2-0.1
					c0.1,0,0.1-0.1,0.2-0.1c0.1,0,0.1-0.1,0.2-0.1c0.1,0,0.1-0.1,0.2-0.1c0.1,0,0.1-0.1,0.2-0.1c0.1,0,0.1-0.1,0.2-0.1
					c0.1-0.1,0.2-0.1,0.2-0.2c0.1,0,0.1-0.1,0.2-0.1c0.3-0.2,0.5-0.4,0.7-0.7c0-0.1,0.1-0.1,0.1-0.2c0.1-0.1,0.1-0.1,0.2-0.2
					c0-0.1,0.1-0.1,0.1-0.2c0-0.1,0.1-0.1,0.1-0.2c0-0.1,0.1-0.1,0.1-0.2c0-0.1,0.1-0.1,0.1-0.2c0-0.1,0.1-0.1,0.1-0.2
					c0-0.1,0.1-0.2,0.1-0.2c0-0.1,0-0.1,0.1-0.2c0-0.1,0-0.2,0.1-0.3c0-0.1,0-0.2,0-0.3c0-0.1,0-0.1,0-0.2c0-0.2,0-0.3,0-0.5l0-43.6
					c0-2.8-2.2-5-5-5c-2.8,0-5,2.2-5,5l0,31.5l-111.3-111.3h-7.1l0,7.1l111.3,111.3l-31.5,0c-2.8,0-5,2.2-5,5c0,1.4,0.6,2.6,1.5,3.5
					c0.9,0.9,2.2,1.5,3.5,1.5h43.6c0.2,0,0.3,0,0.5,0C-43.6,231.1-43.6,231.1-43.5,231.1z"/>
			</g>
		</g>
	</g>
</g>
<rect x="-202" y="68.9" transform="matrix(0.7071 0.7071 -0.7071 0.7071 46.665 139.3406)" class="st7" width="114.2" height="114.2"/>
<g>
	<path class="st12" d="M-101.2,124.6c0-1.7-0.2-3.3-0.5-5l-8.7-1.4l-2.9-8.2l5.8-6.6c-1.7-2.9-3.8-5.6-6.2-8l-7.8,3.9l-7.2-4.9
		l0.8-8.8c-3-1.3-6.1-2.2-9.4-2.8l-4.1,7.8l-8.7,0.2l-4.5-7.6c-3.3,0.8-6.5,1.9-9.5,3.4l1.3,8.7l-6.9,5.3l-8.1-3.5
		c-2.2,2.5-4.1,5.3-5.7,8.3l6.1,6.3l-2.5,8.3l-8.6,1.9c-0.2,1.7-0.2,3.5-0.2,5.3c0.1,1.6,0.2,3.2,0.4,4.8l8.7,1.5l2.9,8.2l-5.8,6.6
		c1.8,2.9,3.8,5.6,6.2,8l7.9-3.9l7.2,4.9l-0.8,8.8c3.1,1.3,6.3,2.3,9.7,2.9l4.1-7.8l8.7-0.2l4.5,7.6c3.3-0.8,6.5-1.9,9.5-3.4
		l-1.3-8.7l6.9-5.3l8.1,3.5c2.2-2.5,4.1-5.3,5.7-8.3l-6.2-6.2l2.4-8.4l8.6-1.9C-101.2,128-101.1,126.3-101.2,124.6z M-131.9,140.7
		c-8.1,7.1-20.5,6.4-27.7-1.8c-7.1-8.2-6.3-20.5,1.8-27.6c8.1-7.2,20.5-6.4,27.6,1.8C-123,121.2-123.8,133.6-131.9,140.7z"/>
	<path class="st13" d="M-123.3,107.1c-10.5-11.9-28.6-13.1-40.5-2.6c-11.9,10.5-13.1,28.6-2.6,40.5c10.4,11.9,28.6,13.1,40.5,2.6
		C-114,137.1-112.9,118.9-123.3,107.1z M-127.8,145.4c-10.7,9.4-27.1,8.4-36.5-2.4c-9.5-10.7-8.4-27.1,2.3-36.5
		c10.7-9.4,27.1-8.4,36.5,2.4C-116,119.6-117.1,136-127.8,145.4z"/>
</g>
<g>
	<g>
		<path class="st14" d="M245.2,192.6c0-26.3-8.5-50.7-22.8-70.6l0,0c-0.2-0.3-0.5-0.7-0.7-1l0,0c-22.1-29.9-57.6-49.4-97.5-49.4
			c-12.8,0-25.2,2-36.8,5.7l0,0c-0.1,0-0.3,0.1-0.4,0.1c-24.4,7.9-45.4,23.4-60.3,43.6l0,0c-0.2,0.3-0.5,0.7-0.7,1v0
			c-14.3,19.9-22.8,44.3-22.8,70.6h3.2h20.1c0,0,0,0,0,0l0,0h3.1h13h39h85.3h39h13h3.1c0,0,0,0,0,0h20.1H245.2z"/>
		<path class="st14" d="M224.3,235.1H24c-11.6,0-20.9-9.4-20.9-20.9v-21.5h242.2v21.5C245.2,225.7,235.8,235.1,224.3,235.1z"/>
		<path class="st14" d="M6.2,217v-24.4h235.8V217c0,8.4-6.8,15.2-15.2,15.2H21.4C13,232.2,6.2,225.4,6.2,217z"/>
		<path class="st14" d="M77.5,192.6c4.3,0,8-3.1,8.9-7.3c3.7-17.5,19.2-30.6,37.8-30.6c18.6,0,34.1,13.1,37.8,30.6
			c0.9,4.2,4.6,7.3,8.9,7.3h74.4c0-66.8-54.3-121.1-121.1-121.1S3.1,125.9,3.1,192.6H77.5z"/>
		<path class="st15" d="M73.1,192.6c6.5,0,12.2-4.3,14-10.5c4.8-15.9,19.5-27.4,36.9-27.4c17.4,0,32.1,11.6,36.9,27.4
			c1.9,6.2,7.6,10.5,14,10.5h59.9c3.9,0,7-3.3,6.8-7.2c-3.7-61.8-55-110.7-117.7-110.7s-114,49-117.7,110.7
			c-0.2,3.9,2.9,7.2,6.8,7.2H73.1z"/>
		<g>
			<g>
				<path class="st16" d="M26.3,192.7h55.2c4,0,7.4-2.8,8.2-6.6c1-5.1,3.1-9.9,6.1-14L45,135.1C33.2,151.3,26.3,171.2,26.3,192.7z"
					/>
				<path class="st17" d="M93.9,99.6l19.4,59.7c3.4-1.1,7.1-1.7,10.8-1.7c3.8,0,7.4,0.6,10.8,1.7l19.4-59.7
					c-9.5-3.1-19.7-4.8-30.2-4.8C113.6,94.8,103.4,96.5,93.9,99.6z"/>
				<path class="st18" d="M154.4,99.6L135,159.3c7.1,2.3,13.2,6.8,17.5,12.8l50.8-36.9C191.3,118.6,174.2,106,154.4,99.6z"/>
				<path class="st19" d="M45,135.1L95.7,172c4.3-5.9,10.4-10.4,17.5-12.8L93.9,99.6C74.1,106,57,118.6,45,135.1z"/>
				<path class="st20" d="M152.5,172c3,4.1,5.1,8.8,6.1,14c0.7,3.9,4.2,6.6,8.2,6.6H222c0-21.5-6.9-41.4-18.7-57.5L152.5,172z"/>
				<defs>
					<filter id="Adobe_OpacityMaskFilter" filterUnits="userSpaceOnUse" x="26.3" y="94.8" width="195.7" height="97.8">
						<feFlood  style="flood-color:white;flood-opacity:1" result="back"/>
						<feBlend  in="SourceGraphic" in2="back" mode="normal"/>
					</filter>
				</defs>
				<mask maskUnits="userSpaceOnUse" x="26.3" y="94.8" width="195.7" height="97.8" id="SVGID_1_">
					<g class="st21">
						<defs>
							<filter id="Adobe_OpacityMaskFilter_1_" filterUnits="userSpaceOnUse" x="26.3" y="94.8" width="195.7" height="97.8">
								<feFlood  style="flood-color:white;flood-opacity:1" result="back"/>
								<feBlend  in="SourceGraphic" in2="back" mode="normal"/>
							</filter>
						</defs>
						<mask maskUnits="userSpaceOnUse" x="26.3" y="94.8" width="195.7" height="97.8" id="SVGID_1_">
							<g class="st22">
							</g>
						</mask>
						
							<radialGradient id="SVGID_2_" cx="123.7742" cy="210.5123" r="106.9264" gradientTransform="matrix(0.92 0 0 0.92 10 -0.8)" gradientUnits="userSpaceOnUse">
							<stop  offset="0" style="stop-color:#1A1A1A"/>
							<stop  offset="1" style="stop-color:#333333"/>
						</radialGradient>
						<path class="st23" d="M154.4,99.6c-9.5-3.1-19.7-4.8-30.2-4.8c-10.6,0-20.7,1.7-30.2,4.8C74.1,106,57,118.6,45,135.1
							c-11.7,16.1-18.7,36-18.7,57.5h3.1c0-20.2,6.3-39.4,18.1-55.7c11.7-16.1,28.5-28.3,47.3-34.4c9.4-3.1,19.3-4.6,29.3-4.6
							s19.8,1.6,29.3,4.6c18.8,6.1,35.6,18.3,47.3,34.4c11.8,16.3,18.1,35.5,18.1,55.7h3.1c0-21.5-6.9-41.4-18.7-57.5
							C191.3,118.6,174.2,106,154.4,99.6z"/>
					</g>
				</mask>
				
					<radialGradient id="SVGID_3_" cx="123.7742" cy="210.5123" r="106.9264" gradientTransform="matrix(0.92 0 0 0.92 10 -0.8)" gradientUnits="userSpaceOnUse">
					<stop  offset="0.95" style="stop-color:#FFFFFF"/>
					<stop  offset="1" style="stop-color:#000000"/>
				</radialGradient>
				<path class="st24" d="M154.4,99.6c-9.5-3.1-19.7-4.8-30.2-4.8c-10.6,0-20.7,1.7-30.2,4.8C74.1,106,57,118.6,45,135.1
					c-11.7,16.1-18.7,36-18.7,57.5h3.1c0-20.2,6.3-39.4,18.1-55.7c11.7-16.1,28.5-28.3,47.3-34.4c9.4-3.1,19.3-4.6,29.3-4.6
					s19.8,1.6,29.3,4.6c18.8,6.1,35.6,18.3,47.3,34.4c11.8,16.3,18.1,35.5,18.1,55.7h3.1c0-21.5-6.9-41.4-18.7-57.5
					C191.3,118.6,174.2,106,154.4,99.6z"/>
				<g>
					<g>
						<circle class="st20" cx="194.8" cy="171" r="13.9"/>
						<path class="st25" d="M194.8,156.5c-8,0-14.5,6.5-14.5,14.5c0,8,6.5,14.5,14.5,14.5s14.5-6.5,14.5-14.5
							C209.3,163,202.8,156.5,194.8,156.5z M194.8,184.3c-7.3,0-13.3-6-13.3-13.3c0-7.3,6-13.3,13.3-13.3c7.3,0,13.3,6,13.3,13.3
							C208.1,178.4,202.1,184.3,194.8,184.3z"/>
					</g>
					<g>
						<path class="st20" d="M186.6,163c-2,2.1-3.3,4.9-3.3,8.1L186.6,163z"/>
						<path class="st25" d="M186.1,162.5c-2.2,2.3-3.5,5.3-3.5,8.5c0,0.3,0.3,0.6,0.6,0.6c0.3,0,0.6-0.3,0.6-0.6
							c0-2.9,1.1-5.6,3.1-7.7c0.2-0.2,0.2-0.6,0-0.8C186.7,162.3,186.4,162.3,186.1,162.5z"/>
					</g>
					<g>
						<path class="st20" d="M206.4,171l-3.1,7.8C205.2,176.8,206.4,174,206.4,171z"/>
						<path class="st25" d="M206.4,170.4c-0.3,0-0.6,0.3-0.6,0.6c0,2.8-1,5.4-2.9,7.4c-0.2,0.2-0.2,0.6,0,0.8
							c0.1,0.1,0.3,0.2,0.4,0.2c0.2,0,0.3-0.1,0.4-0.2c2.1-2.2,3.2-5.2,3.2-8.2C206.9,170.7,206.7,170.4,206.4,170.4z"/>
					</g>
					<g>
						<circle class="st26" cx="190" cy="168.7" r="1.3"/>
						<circle class="st26" cx="199.6" cy="168.7" r="1.3"/>
						<path class="st27" d="M190,167.4c-0.7,0-1.3,0.6-1.3,1.3c0,0.1,0,0.1,0,0.2c0.1-0.6,0.6-1.1,1.3-1.1s1.2,0.5,1.3,1.1
							c0-0.1,0-0.1,0-0.2C191.3,168,190.7,167.4,190,167.4z"/>
						<path class="st27" d="M199.6,167.4c-0.7,0-1.3,0.6-1.3,1.3c0,0.1,0,0.1,0,0.2c0.1-0.6,0.6-1.1,1.3-1.1c0.7,0,1.2,0.5,1.3,1.1
							c0-0.1,0-0.1,0-0.2C200.9,168,200.4,167.4,199.6,167.4z"/>
					</g>
					<g>
						<path class="st26" d="M190,174.5c-0.6,1.6,0.6,3.4,2.6,3.7c1.5,0.2,2.9,0.2,4.4,0c2.1-0.2,3.2-2.1,2.6-3.7
							C196.5,175.5,193.1,175.5,190,174.5z"/>
						<path class="st27" d="M198.3,174.9c0,1.4-1.2,2.7-2.9,2.7c-1.4,0-2.8-0.1-4.2-0.4c-0.3-0.1-0.5-0.2-0.8-0.3
							c0.5,0.6,1.3,1.1,2.2,1.2c1.5,0.2,2.9,0.2,4.4,0c2.1-0.2,3.2-2.1,2.6-3.7C199.2,174.7,198.7,174.8,198.3,174.9z"/>
					</g>
				</g>
				<g>
					<g>
						<circle class="st18" cx="164.4" cy="134.8" r="13.9"/>
						<path class="st28" d="M164.4,120.3c-8,0-14.5,6.5-14.5,14.5c0,8,6.5,14.5,14.5,14.5c8,0,14.5-6.5,14.5-14.5
							C178.9,126.8,172.4,120.3,164.4,120.3z M164.4,148.1c-7.3,0-13.3-6-13.3-13.3c0-7.3,6-13.3,13.3-13.3s13.3,6,13.3,13.3
							C177.7,142.2,171.7,148.1,164.4,148.1z"/>
					</g>
					<g>
						<path class="st28" d="M155.7,126.3c-2.2,2.3-3.5,5.3-3.5,8.5c0,0.3,0.3,0.6,0.6,0.6c0.3,0,0.6-0.3,0.6-0.6
							c0-2.9,1.1-5.6,3.1-7.7c0.2-0.2,0.2-0.6,0-0.8C156.3,126.1,156,126.1,155.7,126.3z"/>
					</g>
					<g>
						<path class="st28" d="M175.9,134.2c-0.3,0-0.6,0.3-0.6,0.6c0,2.8-1,5.4-2.9,7.4c-0.2,0.2-0.2,0.6,0,0.8
							c0.1,0.1,0.3,0.2,0.4,0.2c0.2,0,0.3-0.1,0.4-0.2c2.1-2.2,3.2-5.2,3.2-8.2C176.5,134.5,176.3,134.2,175.9,134.2z"/>
					</g>
					<g>
						<circle class="st29" cx="159.6" cy="132.5" r="1.3"/>
						<circle class="st29" cx="169.2" cy="132.5" r="1.3"/>
						<path class="st30" d="M159.6,131.2c-0.7,0-1.3,0.6-1.3,1.3c0,0.1,0,0.1,0,0.2c0.1-0.6,0.6-1.1,1.3-1.1c0.7,0,1.2,0.5,1.3,1.1
							c0-0.1,0-0.1,0-0.2C160.9,131.8,160.3,131.2,159.6,131.2z"/>
						<path class="st30" d="M169.2,131.2c-0.7,0-1.3,0.6-1.3,1.3c0,0.1,0,0.1,0,0.2c0.1-0.6,0.6-1.1,1.3-1.1c0.7,0,1.2,0.5,1.3,1.1
							c0-0.1,0-0.1,0-0.2C170.5,131.8,170,131.2,169.2,131.2z"/>
					</g>
					<g>
						<path class="st29" d="M162.6,141.3h3.6c1.7,0,3-1.4,3-3h-9.7C159.6,140,160.9,141.3,162.6,141.3z"/>
						<path class="st30" d="M164.9,140.6h-3.6c-0.2,0-0.5,0-0.7-0.1c0.5,0.5,1.2,0.8,2,0.8h3.6c1.7,0,3-1.4,3-3h-1.4
							C167.5,139.6,166.3,140.6,164.9,140.6z"/>
					</g>
				</g>
				<g>
					<g>
						<circle class="st17" cx="123.5" cy="121.2" r="13.9"/>
						<path class="st31" d="M123.5,106.8c-8,0-14.5,6.5-14.5,14.5c0,8,6.5,14.5,14.5,14.5c8,0,14.5-6.5,14.5-14.5
							C138,113.3,131.5,106.8,123.5,106.8z M123.5,134.6c-7.3,0-13.3-6-13.3-13.3c0-7.3,6-13.3,13.3-13.3c7.3,0,13.3,6,13.3,13.3
							C136.9,128.6,130.9,134.6,123.5,134.6z"/>
					</g>
					<g>
						<path class="st31" d="M114.9,112.8c-2.2,2.3-3.5,5.3-3.5,8.5c0,0.3,0.3,0.6,0.6,0.6s0.6-0.3,0.6-0.6c0-2.9,1.1-5.6,3.1-7.7
							c0.2-0.2,0.2-0.6,0-0.8C115.5,112.5,115.1,112.5,114.9,112.8z"/>
					</g>
					<g>
						<path class="st31" d="M135.1,120.7c-0.3,0-0.6,0.3-0.6,0.6c0,2.8-1,5.4-2.9,7.4c-0.2,0.2-0.2,0.6,0,0.8
							c0.1,0.1,0.3,0.2,0.4,0.2c0.2,0,0.3-0.1,0.4-0.2c2.1-2.2,3.2-5.2,3.2-8.2C135.7,120.9,135.4,120.7,135.1,120.7z"/>
					</g>
					<g>
						<circle class="st32" cx="118.7" cy="118.9" r="1.3"/>
						<circle class="st32" cx="128.4" cy="118.9" r="1.3"/>
						<path class="st33" d="M118.7,117.6c-0.7,0-1.3,0.6-1.3,1.3c0,0.1,0,0.1,0,0.2c0.1-0.6,0.6-1.1,1.3-1.1c0.7,0,1.2,0.5,1.3,1.1
							c0-0.1,0-0.1,0-0.2C120,118.2,119.4,117.6,118.7,117.6z"/>
						<path class="st33" d="M128.4,117.6c-0.7,0-1.3,0.6-1.3,1.3c0,0.1,0,0.1,0,0.2c0.1-0.6,0.6-1.1,1.3-1.1c0.7,0,1.2,0.5,1.3,1.1
							c0-0.1,0-0.1,0-0.2C129.7,118.2,129.1,117.6,128.4,117.6z"/>
					</g>
					<g>
						<path class="st32" d="M126.9,124.7h-6.6c-0.8,0-1.5,0.7-1.5,1.5c0,0.8,0.7,1.5,1.5,1.5h6.6c0.8,0,1.5-0.7,1.5-1.5
							C128.4,125.4,127.7,124.7,126.9,124.7z"/>
						<path class="st33" d="M126.9,124.7h-6.6c-0.8,0-1.5,0.7-1.5,1.5c0,0.2,0,0.4,0.1,0.5c0.2-0.6,0.8-1,1.4-1h6.6
							c0.7,0,1.2,0.4,1.4,1c0.1-0.2,0.1-0.3,0.1-0.5C128.4,125.4,127.7,124.7,126.9,124.7z"/>
					</g>
				</g>
				<g>
					<g>
						<circle class="st19" cx="81.9" cy="135.8" r="13.9"/>
						<path class="st33" d="M81.9,121.3c-8,0-14.5,6.5-14.5,14.5c0,8,6.5,14.5,14.5,14.5c8,0,14.5-6.5,14.5-14.5
							C96.4,127.8,89.9,121.3,81.9,121.3z M81.9,149.1c-7.3,0-13.3-6-13.3-13.3c0-7.3,6-13.3,13.3-13.3c7.3,0,13.3,6,13.3,13.3
							C95.2,143.2,89.3,149.1,81.9,149.1z"/>
					</g>
					<g>
						<path class="st34" d="M73.3,127.3c-2.2,2.3-3.5,5.3-3.5,8.5c0,0.3,0.3,0.6,0.6,0.6c0.3,0,0.6-0.3,0.6-0.6
							c0-2.9,1.1-5.6,3.1-7.7c0.2-0.2,0.2-0.6,0-0.8C73.9,127.1,73.5,127.1,73.3,127.3z"/>
					</g>
					<g>
						<path class="st34" d="M93.5,135.2c-0.3,0-0.6,0.3-0.6,0.6c0,2.8-1,5.4-2.9,7.4c-0.2,0.2-0.2,0.6,0,0.8
							c0.1,0.1,0.3,0.2,0.4,0.2c0.2,0,0.3-0.1,0.4-0.2c2.1-2.2,3.2-5.2,3.2-8.2C94.1,135.5,93.8,135.2,93.5,135.2z"/>
					</g>
					<g>
						<circle class="st35" cx="77.1" cy="133.5" r="1.3"/>
						<circle class="st35" cx="86.8" cy="133.5" r="1.3"/>
						<path class="st36" d="M77.1,132.2c-0.7,0-1.3,0.6-1.3,1.3c0,0.1,0,0.1,0,0.2c0.1-0.6,0.6-1.1,1.3-1.1c0.7,0,1.2,0.5,1.3,1.1
							c0-0.1,0-0.1,0-0.2C78.4,132.8,77.8,132.2,77.1,132.2z"/>
						<path class="st36" d="M86.8,132.2c-0.7,0-1.3,0.6-1.3,1.3c0,0.1,0,0.1,0,0.2c0.1-0.6,0.6-1.1,1.3-1.1c0.7,0,1.2,0.5,1.3,1.1
							c0-0.1,0-0.1,0-0.2C88.1,132.8,87.5,132.2,86.8,132.2z"/>
					</g>
					<g>
						<path class="st35" d="M83.7,139.3h-3.6c-1.7,0-3,1.4-3,3h9.7C86.8,140.6,85.4,139.3,83.7,139.3z"/>
						<path class="st36" d="M80.1,139.3c-1.7,0-3,1.4-3,3h1.4c0.3-1.3,1.5-2.3,2.9-2.3H85c0.2,0,0.5,0,0.7,0.1
							c-0.5-0.5-1.2-0.8-2-0.8H80.1z"/>
					</g>
				</g>
				<g>
					<g>
						<circle class="st16" cx="53.5" cy="171" r="13.9"/>
						<path class="st37" d="M53.5,156.5c-8,0-14.5,6.5-14.5,14.5c0,8,6.5,14.5,14.5,14.5c8,0,14.5-6.5,14.5-14.5
							C68,163,61.5,156.5,53.5,156.5z M53.5,184.3c-7.3,0-13.3-6-13.3-13.3c0-7.3,6-13.3,13.3-13.3c7.3,0,13.3,6,13.3,13.3
							C66.8,178.4,60.8,184.3,53.5,184.3z"/>
					</g>
					<g>
						<path class="st37" d="M44.8,162.5c-2.2,2.3-3.5,5.3-3.5,8.5c0,0.3,0.3,0.6,0.6,0.6s0.6-0.3,0.6-0.6c0-2.9,1.1-5.6,3.1-7.7
							c0.2-0.2,0.2-0.6,0-0.8C45.4,162.3,45,162.3,44.8,162.5z"/>
					</g>
					<g>
						<path class="st37" d="M65,170.4c-0.3,0-0.6,0.3-0.6,0.6c0,2.8-1,5.4-2.9,7.4c-0.2,0.2-0.2,0.6,0,0.8c0.1,0.1,0.3,0.2,0.4,0.2
							c0.2,0,0.3-0.1,0.4-0.2c2.1-2.2,3.2-5.2,3.2-8.2C65.6,170.7,65.3,170.4,65,170.4z"/>
					</g>
					<g>
						<circle class="st38" cx="48.6" cy="168.7" r="1.3"/>
						<circle class="st38" cx="58.3" cy="168.7" r="1.3"/>
						<path class="st39" d="M48.6,167.4c-0.7,0-1.3,0.6-1.3,1.3c0,0.1,0,0.1,0,0.2c0.1-0.6,0.6-1.1,1.3-1.1c0.7,0,1.2,0.5,1.3,1.1
							c0-0.1,0-0.1,0-0.2C49.9,168,49.4,167.4,48.6,167.4z"/>
						<path class="st39" d="M58.3,167.4c-0.7,0-1.3,0.6-1.3,1.3c0,0.1,0,0.1,0,0.2c0.1-0.6,0.6-1.1,1.3-1.1c0.7,0,1.2,0.5,1.3,1.1
							c0-0.1,0-0.1,0-0.2C59.6,168,59,167.4,58.3,167.4z"/>
					</g>
					<g>
						<path class="st38" d="M55.7,173.9c-1.5-0.2-2.9-0.2-4.4,0c-2.1,0.2-3.2,2.1-2.6,3.7c3.1-1,6.5-1,9.7,0
							C58.9,176,57.7,174.1,55.7,173.9z"/>
						<path class="st39" d="M55.7,173.9c-1.5-0.2-2.9-0.2-4.4,0c-2.1,0.2-3.2,2.1-2.6,3.7c0.5-0.1,0.9-0.3,1.4-0.4
							c0-1.4,1.2-2.7,2.9-2.7c1.4,0,2.8,0.1,4.2,0.4c0.3,0.1,0.5,0.2,0.8,0.3C57.4,174.4,56.6,174,55.7,173.9z"/>
					</g>
				</g>
			</g>
		</g>
		<g>
			<g>
				<path class="st40" d="M109.5,84.9c0,0.3,0,0.5-0.1,0.7c-0.1,0.2-0.2,0.2-0.4,0.3c-0.2,0-0.4,0-0.5-0.1c-0.1-0.1-0.2-0.3-0.3-0.6
					c-0.2-1.5-0.4-2.3-0.6-3.8c0-0.3,0-0.5,0.1-0.6c0.1-0.1,0.2-0.2,0.4-0.3c0.1,0,0.3,0,0.4,0c0.1,0,0.2,0.1,0.4,0.3
					c1.1,1,1.7,1.6,2.7,2.7c-0.1-1-0.2-1.5-0.3-2.5c0-0.3,0-0.5,0.1-0.7c0.1-0.2,0.2-0.2,0.5-0.3c0.2,0,0.4,0,0.5,0.2
					c0.1,0.1,0.2,0.3,0.2,0.6c0.2,1.6,0.3,2.3,0.4,3.9c0,0.3,0,0.5-0.1,0.6c-0.1,0.1-0.2,0.2-0.4,0.2c-0.1,0-0.3,0-0.4-0.1
					c-0.1-0.1-0.2-0.2-0.4-0.3c-1-1.1-1.6-1.6-2.6-2.6C109.3,83.4,109.3,83.9,109.5,84.9z"/>
				<path class="st40" d="M113.5,82.5c-0.1-0.8,0.1-1.6,0.6-2.1c0.5-0.6,1.1-0.9,2-1c0.8-0.1,1.5,0.2,2.1,0.7c0.5,0.5,0.8,1.2,0.9,2
					c0,0.9-0.2,1.5-0.6,2.1c-0.5,0.5-1.1,0.8-1.9,0.9c-0.8,0.1-1.5-0.1-2-0.6C113.9,84,113.6,83.3,113.5,82.5z M114.9,82.4
					c0,0.5,0.2,0.9,0.5,1.2c0.3,0.3,0.6,0.4,1,0.4c0.4,0,0.7-0.2,0.9-0.5c0.2-0.3,0.3-0.7,0.3-1.2c0-0.5-0.2-0.9-0.4-1.2
					c-0.3-0.3-0.6-0.4-1-0.4c-0.4,0-0.7,0.2-1,0.5C114.9,81.4,114.8,81.9,114.9,82.4z"/>
				<path class="st40" d="M120.9,82.6c0,0.5,0,0.8,0,1.3c0,0.3,0,0.5-0.1,0.7c-0.1,0.1-0.2,0.2-0.5,0.2c-0.2,0-0.4-0.1-0.5-0.2
					c-0.1-0.1-0.2-0.4-0.2-0.6c-0.1-1.5-0.1-2.2-0.1-3.7c0-0.3,0-0.6,0.2-0.7c0.1-0.1,0.4-0.2,0.7-0.2c0.4,0,0.6,0,1,0
					c0.7,0,1.2,0.1,1.6,0.4c0.4,0.3,0.6,0.7,0.6,1.2c0,0.4-0.1,0.7-0.4,1c-0.2,0.3-0.6,0.4-1,0.5c0.4,0.4,0.6,0.6,1,1.1
					c0.1,0.1,0.2,0.3,0.3,0.4c0.1,0.1,0.1,0.2,0.1,0.3c0,0.2-0.1,0.3-0.2,0.4c-0.1,0.1-0.3,0.2-0.4,0.2c-0.1,0-0.2,0-0.3-0.1
					c-0.1-0.1-0.2-0.2-0.4-0.3C121.8,83.6,121.5,83.3,120.9,82.6z M120.9,81.8c0.2,0,0.4,0,0.6,0c0.3,0,0.5-0.1,0.6-0.2
					c0.1-0.1,0.2-0.3,0.2-0.5c0-0.2-0.1-0.4-0.2-0.5c-0.1-0.1-0.3-0.2-0.6-0.2c-0.2,0-0.4,0-0.6,0C120.9,81,120.9,81.2,120.9,81.8z"
					/>
				<path class="st40" d="M124,83.7c0.3-1.5,0.4-2.2,0.7-3.7c0.1-0.3,0.2-0.5,0.3-0.6c0.1-0.1,0.3-0.2,0.6-0.2
					c0.2,0,0.4,0.1,0.6,0.2c0.1,0.1,0.2,0.3,0.3,0.6c0.3,1.3,0.5,1.9,0.7,3.2c0.4-1.3,0.5-1.9,0.9-3.2c0.1-0.2,0.2-0.4,0.3-0.5
					c0.2-0.1,0.3-0.2,0.6-0.2c0.3,0,0.5,0.1,0.6,0.2c0.1,0.1,0.2,0.4,0.3,0.7c0.2,1.5,0.2,2.2,0.4,3.7c0,0.1,0,0.1,0,0.2
					c0,0.1,0,0.1,0,0.1c0,0.2-0.1,0.3-0.2,0.5c-0.1,0.1-0.3,0.2-0.5,0.1c-0.2,0-0.3-0.1-0.4-0.2c-0.1-0.1-0.1-0.3-0.2-0.5
					c-0.1-1.3-0.1-1.9-0.2-3.2c-0.4,1.3-0.6,2.2-0.8,2.7c-0.2,0.5-0.3,0.8-0.4,1c-0.1,0.1-0.1,0.1-0.2,0.2c-0.1,0-0.2,0-0.3,0
					c-0.2,0-0.4-0.1-0.5-0.2c-0.1-0.1-0.2-0.3-0.2-0.5c-0.3-1.3-0.4-2-0.7-3.3c-0.2,1.3-0.3,1.9-0.5,3.1c0,0.3-0.1,0.5-0.2,0.6
					c-0.1,0.1-0.3,0.2-0.4,0.2c-0.2,0-0.3-0.1-0.4-0.2c-0.1-0.1-0.2-0.3-0.2-0.5c0,0,0-0.1,0-0.2S124,83.8,124,83.7z"/>
				<path class="st40" d="M131.8,84c-0.1,0.2-0.1,0.3-0.2,0.5c-0.1,0.2-0.2,0.3-0.3,0.4c-0.1,0.1-0.2,0.1-0.4,0.1
					c-0.2,0-0.3-0.1-0.4-0.2s-0.1-0.3-0.1-0.4c0-0.1,0-0.1,0-0.2c0-0.1,0-0.1,0.1-0.2c0.7-1.5,1-2.2,1.7-3.7
					c0.1-0.3,0.3-0.5,0.5-0.6c0.2-0.1,0.4-0.2,0.6-0.1c0.2,0,0.4,0.1,0.6,0.2c0.2,0.1,0.3,0.3,0.3,0.6c0.4,1.6,0.6,2.4,1,4
					c0,0.1,0,0.2,0,0.2c0,0.1,0,0.1,0,0.2c0,0.2-0.1,0.3-0.2,0.4c-0.1,0.1-0.3,0.1-0.5,0.1c-0.2,0-0.3-0.1-0.4-0.2
					c-0.1-0.1-0.2-0.3-0.2-0.5c0-0.2-0.1-0.3-0.1-0.5C133,84.1,132.6,84.1,131.8,84z M132.3,82.9c0.5,0,0.8,0.1,1.3,0.1
					c-0.2-0.8-0.3-1.2-0.4-2C132.8,81.8,132.6,82.1,132.3,82.9z"/>
				<path class="st40" d="M136.2,80.9c0-0.3,0.1-0.5,0.2-0.6c0.1-0.1,0.3-0.2,0.5-0.2c0.2,0,0.4,0.1,0.5,0.3
					c0.1,0.2,0.1,0.4,0.1,0.7c-0.2,1.4-0.3,2-0.5,3.4c0.4,0.1,0.6,0.1,1,0.1c0.3,0,0.5,0.1,0.6,0.2s0.2,0.3,0.1,0.5
					c0,0.2-0.1,0.3-0.3,0.4c-0.2,0.1-0.4,0.1-0.7,0c-0.6-0.1-0.9-0.1-1.4-0.2c-0.3,0-0.5-0.1-0.6-0.2c-0.1-0.1-0.1-0.3-0.1-0.6
					C135.9,83.1,136,82.4,136.2,80.9z"/>
			</g>
		</g>
		<g>
			<g>
				<path class="st40" d="M181.6,99.1c-0.2-0.1-0.2-0.1-0.4-0.2c-0.3-0.1-0.4-0.3-0.5-0.4c-0.1-0.1-0.1-0.3,0-0.5s0.2-0.3,0.4-0.3
					c0.2,0,0.4,0.1,0.7,0.2c0.3,0.2,0.5,0.3,0.8,0.5c0.3,0.2,0.4,0.3,0.5,0.5c0.1,0.2,0,0.4-0.1,0.6c-0.4,0.7-0.9,1.1-1.5,1.3
					c-0.6,0.2-1.3,0.1-2-0.3c-0.7-0.4-1.1-0.9-1.3-1.6c-0.2-0.7-0.1-1.4,0.2-2.2c0.4-0.8,0.9-1.3,1.6-1.5c0.7-0.2,1.5-0.1,2.3,0.3
					c0.5,0.3,0.9,0.6,1.2,1c0.3,0.4,0.3,0.7,0.2,1c-0.1,0.1-0.2,0.2-0.3,0.3c-0.2,0-0.3,0-0.4,0c-0.1,0-0.2-0.2-0.4-0.5
					c-0.2-0.3-0.4-0.5-0.7-0.7c-0.4-0.2-0.8-0.2-1.1-0.1c-0.4,0.1-0.7,0.4-0.9,0.9c-0.2,0.5-0.3,0.9-0.2,1.3
					c0.1,0.4,0.3,0.7,0.7,0.9c0.3,0.2,0.6,0.2,0.8,0.1C181.2,99.5,181.4,99.4,181.6,99.1z"/>
				<path class="st40" d="M183.4,99.4c0.4-0.7,1-1.2,1.7-1.4c0.7-0.2,1.4,0,2.2,0.4c0.7,0.5,1.2,1.1,1.3,1.8c0.1,0.7,0,1.4-0.5,2.1
					c-0.5,0.7-1.1,1.1-1.8,1.3c-0.7,0.2-1.4,0-2-0.4c-0.7-0.4-1.1-1-1.2-1.7C182.9,100.9,183,100.2,183.4,99.4z M184.6,100.2
					c-0.3,0.4-0.4,0.8-0.3,1.2c0.1,0.4,0.2,0.7,0.6,0.9c0.3,0.2,0.7,0.3,1.1,0.1c0.4-0.1,0.7-0.4,1-0.8c0.3-0.4,0.4-0.8,0.4-1.2
					c0-0.4-0.2-0.7-0.6-0.9c-0.4-0.2-0.7-0.3-1.1-0.2C185.2,99.4,184.9,99.7,184.6,100.2z"/>
				<path class="st40" d="M188.4,102.7c0.5-0.7,1.1-1.1,1.8-1.2c0.7-0.1,1.4,0.1,2.1,0.6c0.7,0.5,1.1,1.2,1.1,1.9
					c0.1,0.7-0.2,1.4-0.7,2.1c-0.5,0.7-1.2,1-1.9,1.1c-0.7,0.1-1.4-0.1-2-0.6c-0.6-0.5-1-1.1-1.1-1.8
					C187.8,104.1,187.9,103.4,188.4,102.7z M189.6,103.5c-0.3,0.4-0.4,0.8-0.4,1.2s0.2,0.7,0.5,0.9c0.3,0.2,0.7,0.3,1,0.2
					c0.4-0.1,0.7-0.3,1-0.7c0.3-0.4,0.5-0.8,0.5-1.2c0-0.4-0.2-0.7-0.5-1c-0.3-0.3-0.7-0.3-1.1-0.2
					C190.2,102.8,189.9,103.1,189.6,103.5z"/>
				<path class="st40" d="M196.6,105.7c0.3,0.2,0.5,0.5,0.7,0.7c0.2,0.2,0.3,0.5,0.4,0.7c0.1,0.4,0.1,0.9,0,1.3
					c-0.1,0.4-0.3,0.8-0.7,1.2c-0.6,0.6-1.2,0.9-1.9,1c-0.7,0-1.3-0.2-1.9-0.8c-0.3-0.3-0.5-0.4-0.8-0.7c-0.2-0.2-0.4-0.4-0.4-0.6
					c0-0.2,0.1-0.4,0.3-0.6c1-1.1,1.4-1.7,2.4-2.9c0.2-0.3,0.4-0.4,0.6-0.4c0.2,0,0.4,0.1,0.7,0.3
					C196.1,105.3,196.3,105.4,196.6,105.7z M193.3,108.5c0.2,0.1,0.3,0.2,0.4,0.4c0.4,0.3,0.7,0.5,1.1,0.5c0.4,0,0.7-0.2,1.1-0.6
					c0.3-0.4,0.5-0.7,0.5-1.1c0-0.4-0.2-0.7-0.6-1.1c-0.2-0.2-0.3-0.2-0.4-0.4C194.6,107.1,194.2,107.5,193.3,108.5z"/>
			</g>
		</g>
		<g>
			<g>
				<path class="st40" d="M54.7,110.3c-0.2,0.2-0.4,0.3-0.6,0.3c-0.2,0-0.3-0.1-0.6-0.3c-1.1-1.1-1.6-1.6-2.7-2.6
					c-0.2-0.2-0.3-0.4-0.3-0.6c0-0.2,0.1-0.4,0.4-0.7c0.3-0.3,0.5-0.5,0.8-0.8c0.4-0.4,0.9-0.6,1.3-0.7c0.4,0,0.7,0.1,1,0.4
					c0.2,0.2,0.3,0.4,0.3,0.6c0,0.2,0,0.4-0.1,0.7c0.3-0.2,0.7-0.3,1-0.2c0.3,0,0.6,0.2,0.8,0.5c0.3,0.4,0.5,0.8,0.4,1.2
					c-0.1,0.4-0.3,0.9-0.8,1.3C55.3,109.8,55.1,110,54.7,110.3z M52.8,107.6c0.2-0.2,0.2-0.2,0.4-0.4c0.1-0.1,0.2-0.3,0.3-0.4
					c0-0.2,0-0.3-0.1-0.4c-0.1-0.1-0.2-0.2-0.4-0.2c-0.2,0-0.3,0.1-0.5,0.2c-0.2,0.2-0.2,0.2-0.4,0.4
					C52.3,107.2,52.5,107.3,52.8,107.6z M54.3,109.3c0.2-0.2,0.3-0.3,0.5-0.4c0.2-0.2,0.3-0.4,0.4-0.5c0-0.2,0-0.3-0.1-0.5
					c-0.1-0.2-0.3-0.2-0.5-0.2c-0.2,0-0.4,0.1-0.6,0.4c-0.2,0.2-0.3,0.3-0.5,0.4C53.8,108.7,54,108.9,54.3,109.3z"/>
				<path class="st40" d="M57.7,106.4c0.1,0.2,0.1,0.3,0.2,0.5c0.1,0.2,0.1,0.3,0.1,0.5c0,0.1-0.1,0.2-0.2,0.3
					c-0.1,0.1-0.3,0.2-0.4,0.1c-0.2,0-0.3-0.1-0.4-0.2c0-0.1-0.1-0.1-0.1-0.2c0-0.1-0.1-0.1-0.1-0.2c-0.5-1.5-0.8-2.3-1.2-3.9
					c-0.1-0.3-0.1-0.5,0-0.7c0.1-0.2,0.2-0.4,0.4-0.5c0.2-0.1,0.4-0.2,0.6-0.2c0.2,0,0.4,0.1,0.6,0.2c1.4,0.9,2.1,1.4,3.4,2.3
					c0.1,0.1,0.1,0.1,0.2,0.1c0,0,0.1,0.1,0.1,0.1c0.1,0.1,0.1,0.3,0.1,0.4c0,0.2-0.1,0.3-0.3,0.4c-0.1,0.1-0.3,0.1-0.4,0.1
					c-0.1,0-0.3-0.1-0.5-0.2c-0.2-0.1-0.2-0.2-0.4-0.3C58.6,105.6,58.3,105.9,57.7,106.4z M57.3,105.3c0.4-0.3,0.6-0.5,1.1-0.8
					c-0.7-0.5-1-0.7-1.7-1.2C56.9,104.1,57,104.5,57.3,105.3z"/>
				<path class="st40" d="M60.2,99.3c0.3-0.2,0.6-0.3,0.9-0.4s0.6-0.1,0.8-0.1c0.5,0,0.9,0.1,1.3,0.4c0.4,0.2,0.7,0.6,0.9,1
					c0.4,0.7,0.5,1.5,0.3,2.1c-0.2,0.7-0.6,1.2-1.3,1.6c-0.4,0.2-0.6,0.3-1,0.6c-0.3,0.2-0.5,0.2-0.6,0.2c-0.2,0-0.3-0.2-0.5-0.4
					c-0.8-1.3-1.2-1.9-2.1-3.1c-0.2-0.3-0.2-0.5-0.2-0.7c0.1-0.2,0.2-0.4,0.5-0.6C59.7,99.7,59.8,99.5,60.2,99.3z M61.9,103.3
					c0.2-0.1,0.3-0.2,0.5-0.3c0.4-0.3,0.7-0.6,0.8-0.9s0-0.8-0.3-1.2c-0.2-0.4-0.5-0.7-0.9-0.8c-0.4-0.1-0.8,0-1.2,0.3
					c-0.2,0.1-0.3,0.2-0.5,0.3C60.9,101.7,61.2,102.2,61.9,103.3z"/>
			</g>
		</g>
		<g>
			<g>
				<path class="st40" d="M17.5,172c-1.7,0.3-2.6,0.5-4.4,0.9c-0.1,0-0.1,0-0.2,0c-0.1,0-0.1,0-0.2,0c-0.2,0-0.3-0.1-0.4-0.3
					c-0.1-0.1-0.1-0.3-0.1-0.5c0-0.1,0.1-0.2,0.2-0.3c0.1-0.1,0.2-0.1,0.4-0.2c1.3-0.2,1.9-0.4,3.2-0.6c-1.1-0.7-1.6-1-2.7-1.7
					c-0.2-0.1-0.3-0.2-0.4-0.3s-0.1-0.2,0-0.4c0-0.2,0.1-0.3,0.2-0.4c0.1-0.1,0.3-0.1,0.4-0.1c0.1,0,0.1,0,0.2,0.1
					c0.1,0,0.1,0.1,0.2,0.1c1.4,1,2.2,1.5,3.6,2.5c0.2,0.1,0.3,0.2,0.3,0.3c0.1,0.1,0.1,0.2,0,0.4c0,0.1-0.1,0.2-0.2,0.3
					C17.8,171.9,17.7,171.9,17.5,172z"/>
				<path class="st40" d="M13.8,165.4c0.1-0.3,0.2-0.5,0.3-0.6c0.1-0.1,0.3-0.2,0.5-0.1c0.2,0,0.3,0.2,0.4,0.3c0.1,0.2,0,0.4,0,0.7
					c-0.1,0.4-0.2,0.6-0.2,1c0.4,0.1,0.6,0.1,0.9,0.2c0.1-0.3,0.1-0.5,0.2-0.9c0.1-0.3,0.2-0.5,0.3-0.6c0.1-0.1,0.3-0.2,0.5-0.1
					c0.2,0,0.3,0.2,0.4,0.3c0.1,0.2,0,0.4,0,0.7c-0.1,0.3-0.1,0.5-0.2,0.9c0.4,0.1,0.6,0.1,1,0.2c0.1-0.4,0.1-0.6,0.3-1
					c0.1-0.3,0.2-0.5,0.3-0.6c0.1-0.1,0.3-0.2,0.5-0.1c0.2,0,0.3,0.2,0.4,0.3c0.1,0.2,0,0.4,0,0.7c-0.1,0.6-0.2,0.8-0.3,1.4
					c-0.1,0.3-0.2,0.5-0.3,0.6c-0.1,0.1-0.3,0.1-0.6,0c-1.5-0.3-2.2-0.5-3.7-0.8c-0.3-0.1-0.5-0.2-0.6-0.3c-0.1-0.2-0.1-0.4,0-0.7
					C13.6,166.2,13.7,165.9,13.8,165.4z"/>
				<path class="st40" d="M17.7,163.4c0.5,0.1,0.8,0.2,1.3,0.4c0.3,0.1,0.5,0.2,0.6,0.3c0.1,0.1,0.1,0.3,0.1,0.5
					c-0.1,0.2-0.2,0.3-0.3,0.4c-0.2,0.1-0.4,0.1-0.7,0c-1.4-0.4-2.2-0.6-3.6-1c-0.3-0.1-0.5-0.2-0.6-0.4c-0.1-0.2-0.1-0.4,0-0.7
					c0.1-0.4,0.2-0.6,0.3-1c0.2-0.6,0.5-1.1,0.9-1.4c0.4-0.3,0.8-0.3,1.3-0.2c0.4,0.1,0.6,0.3,0.8,0.6s0.2,0.7,0.2,1.1
					c0.5-0.3,0.8-0.4,1.3-0.6c0.2-0.1,0.3-0.1,0.4-0.2c0.1,0,0.2,0,0.3,0c0.2,0,0.3,0.1,0.3,0.3c0.1,0.1,0.1,0.3,0,0.4
					c0,0.1-0.1,0.2-0.2,0.3c-0.1,0.1-0.2,0.2-0.4,0.2C19,162.8,18.6,163,17.7,163.4z M17,163.2c0.1-0.2,0.1-0.3,0.2-0.6
					c0.1-0.2,0.1-0.5,0-0.6c-0.1-0.2-0.2-0.3-0.4-0.3c-0.2-0.1-0.4,0-0.5,0.1c-0.1,0.1-0.3,0.3-0.3,0.5c-0.1,0.2-0.1,0.3-0.2,0.6
					C16.2,162.9,16.4,163,17,163.2z"/>
				<path class="st40" d="M16.8,156.8c-0.1-0.2-0.2-0.3-0.2-0.4c0-0.1,0-0.3,0-0.4c0-0.1,0.1-0.2,0.3-0.3c0.1-0.1,0.3-0.1,0.4,0
					c0.1,0.1,0.3,0.2,0.5,0.4c0,0,0,0,0,0c0.5,0.7,0.8,1.1,1.3,1.8c0.7,0.2,1,0.3,1.6,0.5c0.3,0.1,0.5,0.2,0.6,0.4
					c0.1,0.1,0.1,0.3,0.1,0.5c-0.1,0.2-0.2,0.3-0.3,0.4c-0.2,0.1-0.4,0-0.7-0.1c-0.7-0.2-1-0.3-1.6-0.5c-0.8,0.3-1.2,0.4-2.1,0.7
					c0,0,0,0,0,0c-0.3,0.1-0.5,0.1-0.7,0.1c-0.1,0-0.2-0.1-0.3-0.3c-0.1-0.1-0.1-0.3,0-0.5c0-0.1,0.1-0.2,0.2-0.3
					c0.1-0.1,0.3-0.2,0.4-0.2c0.6-0.2,0.9-0.3,1.5-0.5C17.3,157.7,17.1,157.4,16.8,156.8z"/>
				<path class="st40" d="M23.1,154c-0.1,0.3-0.2,0.5-0.4,0.6c-0.1,0.1-0.4,0.1-0.6,0c-1.4-0.5-2.1-0.8-3.5-1.3
					c-0.3-0.1-0.5-0.3-0.6-0.4c-0.1-0.2,0-0.4,0.1-0.7c0.2-0.4,0.2-0.6,0.4-1c0.2-0.5,0.5-0.9,0.8-1.1c0.3-0.2,0.7-0.2,1.1,0
					c0.2,0.1,0.4,0.2,0.5,0.4c0.1,0.2,0.2,0.4,0.2,0.6c0.2-0.3,0.5-0.5,0.8-0.6c0.3-0.1,0.6-0.1,0.9,0.1c0.5,0.2,0.8,0.5,0.9,0.9
					c0.1,0.4,0.1,0.9-0.1,1.5C23.4,153.3,23.3,153.5,23.1,154z M20.2,152.4c0.1-0.2,0.1-0.3,0.2-0.5c0.1-0.2,0.1-0.3,0-0.5
					c0-0.1-0.1-0.2-0.3-0.3c-0.2-0.1-0.3-0.1-0.4,0c-0.1,0.1-0.2,0.2-0.3,0.4c-0.1,0.2-0.1,0.3-0.2,0.5
					C19.6,152.2,19.8,152.2,20.2,152.4z M22.3,153.2c0.1-0.2,0.1-0.3,0.2-0.6c0.1-0.3,0.1-0.5,0.1-0.6c0-0.2-0.2-0.3-0.3-0.4
					c-0.2-0.1-0.4-0.1-0.5,0c-0.1,0.1-0.3,0.3-0.4,0.6c-0.1,0.2-0.1,0.3-0.2,0.6C21.6,152.9,21.8,153,22.3,153.2z"/>
				<path class="st40" d="M24,149.2c0.2,0.2,0.3,0.2,0.4,0.4c0.1,0.1,0.2,0.3,0.3,0.4c0,0.1,0,0.3,0,0.4c-0.1,0.2-0.2,0.3-0.3,0.3
					c-0.1,0.1-0.3,0.1-0.5,0c-0.1,0-0.1-0.1-0.2-0.1c-0.1,0-0.1-0.1-0.1-0.1c-1.2-1.1-1.8-1.7-2.9-2.8c-0.2-0.2-0.3-0.4-0.4-0.6
					c-0.1-0.2,0-0.4,0.1-0.6c0.1-0.2,0.2-0.4,0.4-0.4c0.2-0.1,0.4-0.1,0.6-0.1c1.6,0.1,2.5,0.2,4.1,0.4c0.1,0,0.2,0,0.2,0
					c0.1,0,0.1,0,0.2,0.1c0.2,0.1,0.3,0.2,0.3,0.3c0,0.1,0,0.3,0,0.5c-0.1,0.1-0.2,0.2-0.3,0.3c-0.1,0.1-0.3,0.1-0.5,0
					c-0.2,0-0.3,0-0.5-0.1C24.5,148.1,24.3,148.4,24,149.2z M23.1,148.4c0.2-0.5,0.3-0.7,0.5-1.2c-0.8-0.1-1.2-0.1-2.1-0.2
					C22.2,147.5,22.5,147.8,23.1,148.4z"/>
				<path class="st40" d="M22.5,142c0.2-0.3,0.3-0.6,0.5-0.8c0.2-0.2,0.4-0.4,0.6-0.5c0.4-0.2,0.8-0.3,1.2-0.3
					c0.5,0,0.9,0.1,1.3,0.3c0.7,0.4,1.2,0.9,1.4,1.6c0.2,0.7,0.1,1.3-0.2,2.1c-0.2,0.4-0.3,0.6-0.5,1c-0.1,0.3-0.3,0.5-0.4,0.5
					c-0.1,0.1-0.4,0-0.6-0.1c-1.3-0.7-2-1-3.4-1.6c-0.3-0.1-0.5-0.3-0.5-0.5c-0.1-0.2,0-0.4,0.1-0.7C22.3,142.6,22.4,142.4,22.5,142
					z M26.1,144.5c0.1-0.2,0.2-0.3,0.3-0.5c0.2-0.4,0.3-0.8,0.1-1.2c-0.1-0.3-0.4-0.6-0.9-0.9c-0.4-0.2-0.8-0.3-1.2-0.2
					c-0.3,0.1-0.6,0.4-0.9,0.9c-0.1,0.2-0.2,0.3-0.3,0.5C24.4,143.6,24.9,143.9,26.1,144.5z"/>
			</g>
		</g>
		<g>
			<g>
				<path class="st40" d="M226,143.9c0.1,0.3,0.2,0.5,0.2,0.7c0,0.2-0.1,0.3-0.3,0.4c-0.2,0.1-0.3,0.1-0.5,0
					c-0.1-0.1-0.3-0.3-0.4-0.6c-0.2-0.4-0.3-0.6-0.5-0.9c-0.3,0.2-0.5,0.3-0.9,0.4c0.2,0.3,0.2,0.5,0.4,0.8c0.1,0.3,0.2,0.5,0.2,0.7
					c0,0.2-0.1,0.3-0.3,0.4c-0.2,0.1-0.3,0.1-0.5,0c-0.1-0.1-0.3-0.3-0.4-0.5c-0.2-0.3-0.2-0.5-0.4-0.8c-0.4,0.2-0.5,0.3-0.9,0.5
					c0.2,0.4,0.3,0.6,0.5,0.9c0.1,0.3,0.2,0.5,0.2,0.7c0,0.2-0.1,0.3-0.3,0.4c-0.2,0.1-0.3,0.1-0.5,0c-0.1-0.1-0.3-0.3-0.4-0.5
					c-0.3-0.5-0.4-0.8-0.6-1.3c-0.1-0.3-0.2-0.5-0.2-0.7c0-0.2,0.2-0.3,0.5-0.4c1.3-0.7,2-1,3.3-1.7c0.3-0.2,0.5-0.2,0.7-0.1
					s0.3,0.2,0.5,0.5C225.6,143.2,225.8,143.4,226,143.9z"/>
				<path class="st40" d="M222.5,148.1c-0.2,0-0.4-0.1-0.5-0.2c-0.1-0.1-0.2-0.1-0.2-0.2c-0.1-0.1-0.1-0.3,0-0.4
					c0.1-0.2,0.1-0.3,0.3-0.3c0.1,0,0.2-0.1,0.3-0.1c0.1,0,0.2,0,0.4,0c0.9,0.2,1.3,0.3,2.2,0.4c0.3-0.6,0.5-0.9,0.8-1.5
					c0.1-0.2,0.2-0.3,0.2-0.4s0.1-0.1,0.2-0.2c0.1-0.1,0.3-0.1,0.4,0c0.1,0.1,0.3,0.2,0.3,0.3c0,0.1,0.1,0.2,0,0.3
					c0,0.1-0.1,0.3-0.2,0.5c-0.3,0.5-0.4,0.7-0.6,1.2c0.5,0.1,0.8,0.2,1.3,0.3c0.2,0,0.3,0.1,0.5,0.2c0.1,0.1,0.2,0.2,0.2,0.3
					c0.1,0.1,0.1,0.3,0,0.4c-0.1,0.2-0.1,0.3-0.3,0.3c-0.1,0.1-0.4,0.1-0.7,0c0,0,0,0,0,0c-0.7-0.2-1-0.2-1.7-0.4
					c-0.5,0.8-0.7,1.2-1.2,2c0,0,0,0,0,0c-0.2,0.2-0.3,0.4-0.4,0.5c-0.1,0.1-0.3,0-0.4,0c-0.1-0.1-0.2-0.2-0.3-0.3
					c0-0.1-0.1-0.2,0-0.3c0-0.1,0.1-0.3,0.2-0.4c0.4-0.6,0.6-1,0.9-1.6C223.6,148.4,223.3,148.3,222.5,148.1z"/>
				<path class="st40" d="M224.4,153.9c-0.3-0.7-0.3-1.4,0-2.1c0.3-0.7,0.8-1.1,1.6-1.5c0.8-0.3,1.5-0.4,2.2-0.1
					c0.7,0.3,1.2,0.8,1.5,1.6c0.2,0.4,0.2,0.9,0.2,1.2s-0.2,0.6-0.4,0.7c-0.1,0.1-0.3,0-0.4,0c-0.1-0.1-0.2-0.2-0.3-0.3
					c0-0.1-0.1-0.2-0.1-0.5c0-0.3-0.1-0.5-0.1-0.6c-0.2-0.4-0.4-0.6-0.8-0.8c-0.4-0.1-0.8-0.1-1.3,0.1c-0.5,0.2-0.8,0.5-1,0.8
					c-0.2,0.3-0.2,0.7,0,1.1c0.1,0.2,0.2,0.4,0.4,0.6c0.2,0.2,0.3,0.3,0.3,0.4c0,0.1,0,0.2,0,0.4c-0.1,0.1-0.2,0.2-0.3,0.3
					c-0.2,0.1-0.5,0-0.8-0.2C224.8,154.7,224.6,154.4,224.4,153.9z"/>
				<path class="st40" d="M231.2,156.3c0.1,0.3,0.1,0.5,0.1,0.7c0,0.2-0.2,0.3-0.3,0.4c-0.2,0.1-0.3,0-0.5-0.1
					c-0.1-0.1-0.3-0.3-0.4-0.6c-0.1-0.4-0.2-0.6-0.3-1c-0.4,0.1-0.5,0.2-0.9,0.3c0.1,0.3,0.2,0.5,0.3,0.8c0.1,0.3,0.1,0.5,0.1,0.7
					c0,0.2-0.2,0.3-0.3,0.3c-0.2,0.1-0.3,0-0.5-0.1c-0.1-0.1-0.3-0.3-0.4-0.6c-0.1-0.3-0.2-0.5-0.3-0.8c-0.4,0.1-0.6,0.2-0.9,0.3
					c0.1,0.4,0.2,0.6,0.3,1c0.1,0.3,0.1,0.5,0.1,0.7c0,0.2-0.2,0.3-0.3,0.3c-0.2,0.1-0.3,0-0.5-0.1c-0.1-0.1-0.3-0.3-0.3-0.6
					c-0.2-0.5-0.3-0.8-0.5-1.4c-0.1-0.3-0.1-0.5-0.1-0.7c0.1-0.1,0.2-0.3,0.5-0.4c1.4-0.5,2.1-0.8,3.5-1.3c0.3-0.1,0.5-0.1,0.7,0
					c0.2,0.1,0.3,0.3,0.4,0.6C230.9,155.4,231,155.7,231.2,156.3z"/>
				<path class="st40" d="M230.9,158.1c0.3-0.1,0.5-0.1,0.7-0.1c0.2,0.1,0.3,0.2,0.4,0.4c0.1,0.2,0,0.4-0.1,0.5
					c-0.1,0.1-0.3,0.3-0.6,0.4c-1.3,0.4-2,0.6-3.3,1c0.1,0.4,0.2,0.6,0.3,1c0.1,0.3,0.1,0.5,0.1,0.7c0,0.2-0.2,0.3-0.3,0.3
					c-0.2,0.1-0.3,0-0.5-0.1c-0.1-0.1-0.2-0.3-0.3-0.6c-0.2-0.5-0.3-0.8-0.4-1.4c-0.1-0.3-0.1-0.5,0-0.7c0.1-0.1,0.2-0.3,0.5-0.4
					C228.8,158.8,229.5,158.6,230.9,158.1z"/>
				<path class="st40" d="M233.4,163.6c0.1,0.3,0.1,0.5,0,0.7c-0.1,0.2-0.2,0.3-0.4,0.3c-0.2,0-0.3,0-0.5-0.1
					c-0.1-0.1-0.2-0.3-0.3-0.6c-0.1-0.4-0.2-0.6-0.3-1c-0.4,0.1-0.6,0.2-0.9,0.3c0.1,0.3,0.1,0.5,0.2,0.9c0.1,0.3,0.1,0.5,0,0.7
					c-0.1,0.2-0.2,0.3-0.4,0.3c-0.2,0-0.3,0-0.5-0.1c-0.1-0.1-0.2-0.3-0.3-0.6c-0.1-0.3-0.1-0.5-0.2-0.9c-0.4,0.1-0.6,0.2-1,0.3
					c0.1,0.4,0.2,0.6,0.3,1c0.1,0.3,0.1,0.5,0,0.7c-0.1,0.2-0.2,0.3-0.4,0.3c-0.2,0-0.3,0-0.5-0.1c-0.1-0.1-0.2-0.3-0.3-0.6
					c-0.1-0.6-0.2-0.8-0.4-1.4c-0.1-0.3-0.1-0.5,0-0.7c0.1-0.1,0.2-0.3,0.5-0.3c1.4-0.4,2.2-0.6,3.6-1.1c0.3-0.1,0.5-0.1,0.7,0
					c0.2,0.1,0.3,0.3,0.4,0.6C233.2,162.8,233.3,163.1,233.4,163.6z"/>
				<path class="st40" d="M229.7,167.6c-0.3,0.1-0.5,0.1-0.7,0c-0.2-0.1-0.3-0.2-0.3-0.4c0-0.2,0-0.4,0.1-0.5
					c0.1-0.1,0.3-0.2,0.6-0.3c1.5-0.4,2.2-0.6,3.7-0.9c0.3-0.1,0.5-0.1,0.6,0c0.2,0.1,0.3,0.2,0.3,0.4c0,0.1,0,0.2,0,0.4
					c0,0.1-0.1,0.2-0.2,0.4c-0.9,1.2-1.4,1.8-2.4,3c1-0.2,1.5-0.3,2.5-0.5c0.3-0.1,0.5-0.1,0.7,0c0.2,0.1,0.3,0.2,0.3,0.4
					c0,0.2,0,0.4-0.1,0.5c-0.1,0.1-0.3,0.2-0.6,0.3c-1.5,0.3-2.3,0.5-3.8,0.8c-0.3,0.1-0.5,0-0.6,0c-0.1-0.1-0.2-0.2-0.3-0.4
					c0-0.1,0-0.3,0-0.4c0-0.1,0.1-0.3,0.3-0.4c1-1.1,1.4-1.7,2.3-2.9C231.2,167.2,230.7,167.4,229.7,167.6z"/>
				<path class="st40" d="M234.2,172c0-0.2-0.1-0.3-0.1-0.5c-0.1-0.3-0.1-0.5,0-0.7c0.1-0.2,0.2-0.3,0.4-0.3c0.2,0,0.3,0,0.5,0.1
					s0.2,0.3,0.3,0.7c0.2,0.9,0.3,1.3,0.4,2.2c0.1,0.3,0,0.5,0,0.7c-0.1,0.2-0.2,0.3-0.4,0.3c-0.2,0-0.3,0-0.5-0.2
					c-0.1-0.1-0.2-0.4-0.3-0.7c0-0.2,0-0.3-0.1-0.5c-1.4,0.2-2,0.4-3.4,0.6c-0.3,0.1-0.5,0-0.7,0c-0.2-0.1-0.3-0.2-0.3-0.4
					c0-0.2,0-0.4,0.1-0.5c0.1-0.1,0.3-0.2,0.6-0.3C232.2,172.4,232.8,172.3,234.2,172z"/>
			</g>
		</g>
		<g>
			<path class="st14" d="M26.6,121c-0.2,0.3-0.5,0.7-0.7,1l18.8,13.6l50.8,36.9c0.1-0.2,0.2-0.4,0.4-0.5c0.1-0.2,0.3-0.3,0.4-0.5
				l-50.8-36.9L26.6,121z"/>
			<path class="st14" d="M87.3,77.3c-0.4,0.1-0.8,0.3-1.2,0.4l7.2,22.1l19.4,59.7c0.2-0.1,0.4-0.1,0.6-0.2c0.2-0.1,0.4-0.1,0.6-0.2
				L94.5,99.4L87.3,77.3z"/>
			<path class="st14" d="M162.1,77.7c-0.4-0.1-0.8-0.3-1.2-0.4l-7.2,22.1l-19.4,59.7c0.2,0.1,0.4,0.1,0.6,0.2
				c0.2,0.1,0.4,0.1,0.6,0.2l19.4-59.7L162.1,77.7z"/>
			<path class="st14" d="M221.7,121l-18.8,13.6l-50.8,36.9c0.1,0.2,0.3,0.3,0.4,0.5c0.1,0.2,0.2,0.3,0.4,0.5l50.8-36.9l18.8-13.6
				C222.2,121.7,221.9,121.3,221.7,121z"/>
		</g>
	</g>
	<g>
		
			<image style="overflow:visible;" width="352" height="110" xlink:href="1C3041686C33B09C.png"  transform="matrix(0.24 0 0 0.24 113.2607 171.737)">
		</image>
		<g>
			<path class="st41" d="M195.3,170l-70.3,4.4l0.7,5.7l0.7,5.7l69.3-12.7C198.4,172.5,198,169.9,195.3,170z"/>
			<path class="st41" d="M112.6,181.7c-0.8-6.4,3.8-12.3,10.2-13.1c6.4-0.8,12.3,3.8,13.1,10.2c0.8,6.4-3.8,12.3-10.2,13.1
				C119.2,192.7,113.3,188.1,112.6,181.7z"/>
			
				<ellipse transform="matrix(0.9925 -0.1219 0.1219 0.9925 -21.0426 16.4816)" class="st42" cx="124.2" cy="180.3" rx="6.7" ry="6.7"/>
		</g>
	</g>
	
		<ellipse transform="matrix(0.9925 -0.1219 0.1219 0.9925 -21.0303 16.469)" class="st42" cx="124.1" cy="180.2" rx="6.7" ry="6.7"/>
	<g>
		<path class="st42" d="M31,218.9c0,1.1-0.2,2-0.6,2.5c-0.4,0.5-1,0.8-1.8,0.8c-0.8,0-1.4-0.3-1.8-0.8c-0.4-0.5-0.6-1.4-0.6-2.5
			v-14.3c0-1.3,0.2-2.1,0.7-2.6c0.5-0.5,1.3-0.7,2.5-0.7h4.2c2.3,0,4.1,0.6,5.5,1.9c1.3,1.3,2,3,2,5.1c0,2.2-0.6,3.9-1.9,5.2
			c-1.3,1.2-3,1.9-5.2,1.9H31V218.9z M31,211h2c1.1,0,1.8-0.2,2.4-0.7c0.5-0.5,0.8-1.1,0.8-2.1c0-0.9-0.3-1.6-0.8-2
			c-0.5-0.4-1.3-0.7-2.4-0.7h-2V211z"/>
		<path class="st42" d="M48.3,213.8v5.1c0,1.1-0.2,2-0.6,2.5c-0.4,0.5-1,0.8-1.8,0.8c-0.8,0-1.4-0.3-1.8-0.8
			c-0.4-0.5-0.6-1.4-0.6-2.5v-14.3c0-1.3,0.2-2.1,0.7-2.6s1.3-0.7,2.5-0.7h3.6c2.4,0,4.3,0.6,5.7,1.7c1.4,1.2,2.1,2.7,2.1,4.7
			c0,1.5-0.4,2.7-1.3,3.7c-0.9,1-2.1,1.6-3.6,1.9l3.7,4.1c0.5,0.5,0.8,1,1,1.5c0.2,0.4,0.3,0.9,0.3,1.2c0,0.6-0.2,1.1-0.6,1.6
			c-0.4,0.4-0.9,0.6-1.6,0.6c-0.4,0-0.8-0.1-1.2-0.4c-0.4-0.3-0.8-0.7-1.3-1.3L48.3,213.8z M48.3,210.6h2.1c0.9,0,1.7-0.2,2.2-0.7
			c0.5-0.4,0.8-1.1,0.8-1.9c0-0.8-0.3-1.4-0.8-1.8c-0.5-0.4-1.2-0.6-2.1-0.6h-2.2V210.6z"/>
		<path class="st42" d="M59.8,211.6c0-3.3,0.9-5.9,2.8-7.9c1.8-2,4.3-3,7.3-3c3,0,5.4,1,7.3,3c1.8,2,2.8,4.6,2.8,7.9
			c0,3.3-0.9,5.9-2.8,7.9c-1.8,2-4.3,3-7.3,3c-3,0-5.4-1-7.3-3C60.7,217.5,59.8,214.9,59.8,211.6z M64.9,211.7
			c0,1.9,0.5,3.5,1.4,4.6c0.9,1.2,2.1,1.7,3.6,1.7c1.5,0,2.7-0.6,3.6-1.7c0.9-1.2,1.4-2.7,1.4-4.6c0-2-0.4-3.6-1.3-4.8
			c-0.9-1.2-2.1-1.8-3.6-1.8c-1.5,0-2.7,0.6-3.6,1.8C65.3,208.1,64.9,209.7,64.9,211.7z"/>
		<path class="st42" d="M89.4,201.3c1.3,0,2.4,0.1,3.4,0.4c1,0.2,1.9,0.6,2.6,1.1c1.3,0.9,2.4,2.1,3.2,3.6c0.8,1.5,1.2,3.2,1.2,5.1
			c0,3.2-0.9,5.8-2.7,7.7s-4.2,2.8-7.3,2.8h-4.2c-1.2,0-2-0.2-2.5-0.6c-0.4-0.4-0.7-1.2-0.7-2.3v-14.4c0-1.3,0.2-2.1,0.7-2.6
			c0.5-0.5,1.3-0.7,2.5-0.7H89.4z M87.1,217.6h2.1c1.9,0,3.2-0.5,4.2-1.5c0.9-1,1.4-2.6,1.4-4.7c0-1.9-0.5-3.3-1.4-4.3
			c-0.9-0.9-2.3-1.4-4.2-1.4h-2V217.6z"/>
		<path class="st42" d="M102.5,213.1v-8.7c0-1.1,0.2-2,0.6-2.5c0.4-0.6,1-0.8,1.8-0.8c0.8,0,1.4,0.3,1.8,0.8
			c0.4,0.6,0.6,1.4,0.6,2.5v8.2c0,1.8,0.3,3.2,1,4.1c0.7,0.9,1.7,1.4,3.1,1.4c1.4,0,2.4-0.5,3.1-1.4c0.7-0.9,1-2.3,1-4.1v-8.2
			c0-1.1,0.2-2,0.6-2.5c0.4-0.6,1-0.8,1.7-0.8c0.8,0,1.4,0.3,1.8,0.8c0.4,0.6,0.6,1.4,0.6,2.5v8.7c0,3-0.8,5.3-2.3,7
			c-1.5,1.7-3.7,2.5-6.4,2.5c-2.8,0-4.9-0.8-6.4-2.5C103.2,218.4,102.5,216.1,102.5,213.1z"/>
		<path class="st42" d="M132.6,222.5c-3,0-5.4-1-7.2-3c-1.8-2-2.7-4.6-2.7-7.9c0-3.2,0.9-5.8,2.8-7.9c1.9-2,4.3-3.1,7.2-3.1
			c1.7,0,3.2,0.3,4.3,1c1.2,0.7,1.8,1.4,1.8,2.3c0,0.6-0.2,1.1-0.6,1.5c-0.4,0.4-0.9,0.6-1.4,0.6c-0.3,0-0.9-0.1-1.8-0.4
			c-0.9-0.3-1.7-0.4-2.3-0.4c-1.5,0-2.7,0.6-3.6,1.7c-0.9,1.2-1.4,2.7-1.4,4.7c0,1.9,0.5,3.4,1.4,4.6c0.9,1.1,2.2,1.7,3.8,1.7
			c0.7,0,1.6-0.2,2.5-0.5c0.9-0.4,1.6-0.5,1.8-0.5c0.5,0,0.9,0.2,1.3,0.6c0.4,0.4,0.6,0.9,0.6,1.4c0,1-0.6,1.8-1.9,2.5
			C135.9,222.2,134.4,222.5,132.6,222.5z"/>
		<path class="st42" d="M145.9,205.7h-1.7c-1.1,0-2-0.2-2.5-0.5c-0.5-0.4-0.8-0.9-0.8-1.6c0-0.7,0.3-1.3,0.8-1.7
			c0.5-0.4,1.4-0.5,2.5-0.5h8.1c1.1,0,1.9,0.2,2.5,0.5c0.6,0.4,0.8,0.9,0.8,1.7c0,0.7-0.3,1.3-0.8,1.6c-0.5,0.4-1.4,0.5-2.5,0.5
			h-1.7v13.2c0,1.1-0.2,2-0.6,2.5c-0.4,0.5-1,0.8-1.8,0.8s-1.4-0.3-1.8-0.8c-0.4-0.5-0.6-1.4-0.6-2.5V205.7z"/>
		<path class="st42" d="M162,218.9c0,1.1-0.2,2-0.6,2.5c-0.4,0.5-1,0.8-1.8,0.8c-0.8,0-1.4-0.3-1.8-0.8c-0.4-0.5-0.6-1.4-0.6-2.5
			v-14.5c0-1.1,0.2-2,0.6-2.5c0.4-0.6,1-0.8,1.8-0.8c0.8,0,1.4,0.3,1.8,0.8c0.4,0.6,0.6,1.4,0.6,2.5V218.9z"/>
		<path class="st42" d="M170.5,220.6l-6.2-15.8c-0.1-0.2-0.1-0.4-0.2-0.6c0-0.2-0.1-0.5-0.1-0.7c0-0.7,0.2-1.2,0.7-1.7
			c0.5-0.4,1-0.7,1.7-0.7c0.5,0,0.9,0.2,1.2,0.5c0.3,0.3,0.6,0.8,0.9,1.6l4.3,11.7l4-11.6c0.3-0.8,0.6-1.4,0.9-1.7
			c0.3-0.3,0.8-0.5,1.4-0.5c0.7,0,1.3,0.2,1.7,0.6c0.4,0.4,0.6,0.9,0.6,1.6c0,0.3,0,0.5-0.1,0.8c-0.1,0.3-0.1,0.6-0.2,0.8l-6,15.5
			c-0.3,0.7-0.6,1.2-1,1.5c-0.4,0.3-0.8,0.5-1.4,0.5c-0.5,0-1-0.1-1.3-0.4C171.1,221.7,170.8,221.2,170.5,220.6z"/>
		<path class="st42" d="M188,218.9c0,1.1-0.2,2-0.6,2.5c-0.4,0.5-1,0.8-1.8,0.8c-0.8,0-1.4-0.3-1.8-0.8c-0.4-0.5-0.6-1.4-0.6-2.5
			v-14.5c0-1.1,0.2-2,0.6-2.5c0.4-0.6,1-0.8,1.8-0.8c0.8,0,1.4,0.3,1.8,0.8c0.4,0.6,0.6,1.4,0.6,2.5V218.9z"/>
		<path class="st42" d="M194.9,205.7h-1.7c-1.1,0-2-0.2-2.5-0.5c-0.5-0.4-0.8-0.9-0.8-1.6c0-0.7,0.3-1.3,0.8-1.7
			c0.5-0.4,1.4-0.5,2.5-0.5h8.1c1.1,0,1.9,0.2,2.5,0.5c0.6,0.4,0.8,0.9,0.8,1.7c0,0.7-0.3,1.3-0.8,1.6c-0.5,0.4-1.4,0.5-2.5,0.5
			h-1.7v13.2c0,1.1-0.2,2-0.6,2.5c-0.4,0.5-1,0.8-1.8,0.8c-0.8,0-1.4-0.3-1.8-0.8c-0.4-0.5-0.6-1.4-0.6-2.5V205.7z"/>
		<path class="st42" d="M217.4,202.7c0.4-0.6,0.8-1,1.2-1.3c0.4-0.3,0.8-0.5,1.3-0.5c0.5,0,1,0.2,1.4,0.6c0.4,0.4,0.6,0.9,0.6,1.4
			c0,0.6-0.3,1.3-1,2.3l-0.1,0.1l-4.7,6.8v6.7c0,1.1-0.2,2-0.6,2.5c-0.4,0.5-1,0.8-1.7,0.8c-0.8,0-1.4-0.3-1.8-0.8
			c-0.4-0.5-0.6-1.4-0.6-2.5v-6.7l-4.7-6.7l0,0c-0.7-0.9-1-1.7-1-2.3c0-0.6,0.2-1.1,0.6-1.5c0.4-0.4,1-0.6,1.6-0.6
			c0.4,0,0.8,0.1,1.1,0.4c0.4,0.3,0.8,0.7,1.2,1.4l3.5,5L217.4,202.7z"/>
	</g>
</g>
<g>
	<linearGradient id="SVGID_4_" gradientUnits="userSpaceOnUse" x1="325.3427" y1="74.6159" x2="342.8018" y2="74.6159">
		<stop  offset="0" style="stop-color:#01639C"/>
		<stop  offset="1" style="stop-color:#004580"/>
	</linearGradient>
	<circle class="st43" cx="334.1" cy="74.6" r="8.7"/>
	<linearGradient id="SVGID_5_" gradientUnits="userSpaceOnUse" x1="320.2097" y1="89.2855" x2="337.6685" y2="89.2855">
		<stop  offset="0" style="stop-color:#01639C"/>
		<stop  offset="1" style="stop-color:#004580"/>
	</linearGradient>
	<circle class="st44" cx="328.9" cy="89.3" r="8.7"/>
	<linearGradient id="SVGID_6_" gradientUnits="userSpaceOnUse" x1="318.4715" y1="104.7295" x2="335.9265" y2="104.7295">
		<stop  offset="0" style="stop-color:#01639C"/>
		<stop  offset="1" style="stop-color:#004580"/>
	</linearGradient>
	<circle class="st45" cx="327.2" cy="104.7" r="8.7"/>
	<linearGradient id="SVGID_7_" gradientUnits="userSpaceOnUse" x1="320.2097" y1="120.1735" x2="337.6685" y2="120.1735">
		<stop  offset="0" style="stop-color:#01639C"/>
		<stop  offset="1" style="stop-color:#004580"/>
	</linearGradient>
	<circle class="st46" cx="328.9" cy="120.2" r="8.7"/>
	<linearGradient id="SVGID_8_" gradientUnits="userSpaceOnUse" x1="325.3427" y1="134.8431" x2="342.8018" y2="134.8431">
		<stop  offset="0" style="stop-color:#01639C"/>
		<stop  offset="1" style="stop-color:#004580"/>
	</linearGradient>
	<circle class="st47" cx="334.1" cy="134.8" r="8.7"/>
	<g>
		<g>
			
				<linearGradient id="SVGID_9_" gradientUnits="userSpaceOnUse" x1="474.343" y1="481.7511" x2="474.343" y2="617.5265" gradientTransform="matrix(0.9464 0.323 -0.323 0.9464 96.2346 -495.2989)">
				<stop  offset="0" style="stop-color:#014E7A"/>
				<stop  offset="1" style="stop-color:#003664"/>
			</linearGradient>
			<polygon class="st48" points="371.4,241.9 353.7,220.1 325.6,226.2 365.3,110.1 411,125.7 			"/>
			
				<linearGradient id="SVGID_10_" gradientUnits="userSpaceOnUse" x1="2507.3848" y1="-212.1125" x2="2507.3848" y2="-76.3371" gradientTransform="matrix(-0.9464 0.323 0.323 0.9464 2845.1614 -495.2989)">
				<stop  offset="0" style="stop-color:#014E7A"/>
				<stop  offset="1" style="stop-color:#003664"/>
			</linearGradient>
			<polygon class="st49" points="421.8,241.9 439.5,220.1 467.6,226.2 427.9,110.1 382.2,125.7 			"/>
		</g>
		<g>
			<defs>
				<polygon id="SVGID_11_" points="427.9,110.1 396.6,120.8 365.3,110.1 325.6,226.2 353.7,220.1 371.4,241.9 396.6,168 
					421.8,241.9 439.5,220.1 467.6,226.2 				"/>
			</defs>
			<clipPath id="SVGID_12_">
				<use xlink:href="#SVGID_11_"  style="overflow:visible;"/>
			</clipPath>
			<g class="st50">
				<path class="st51" d="M456.3,147c-3.8-3-9.3-2.4-12.3,1.4c-1.9,2.4-2.3,5.4-1.5,8.1c-2.7-0.9-5.8-0.4-8.1,1.5
					c-2.4,1.9-3.5,4.8-3.2,7.6c-2.4-1.4-5.5-1.7-8.3-0.4c-2.7,1.3-4.5,3.9-4.9,6.7c-2-2-5-2.9-8-2.2c-3,0.7-5.2,2.8-6.2,5.4
					c-1.6-2.4-4.2-3.9-7.3-3.9s-5.7,1.6-7.3,3.9c-1-2.6-3.3-4.8-6.2-5.4c-3-0.7-5.9,0.2-8,2.2c-0.4-2.8-2.1-5.4-4.9-6.7
					c-2.7-1.3-5.8-1.1-8.3,0.4c0.2-2.8-0.9-5.7-3.2-7.6c-2.4-1.9-5.4-2.3-8.1-1.5c0.9-2.7,0.4-5.8-1.5-8.1c-3-3.8-8.5-4.4-12.3-1.4
					c-3.8,3-4.4,8.5-1.4,12.3c2.3,2.9,6.2,3.9,9.5,2.9c-1.1,3.4-0.1,7.2,2.9,9.5c2.9,2.3,6.9,2.5,9.9,0.7c-0.3,3.5,1.5,7,4.9,8.6
					c3.4,1.6,7.3,0.9,9.8-1.6c0.5,3.5,3.1,6.5,6.7,7.3c3.6,0.8,7.3-0.8,9.2-3.7c1.2,3.3,4.4,5.7,8.2,5.7c3.7,0,6.9-2.4,8.2-5.7
					c1.9,2.9,5.6,4.5,9.2,3.7c3.6-0.8,6.2-3.8,6.7-7.3c2.6,2.4,6.4,3.2,9.8,1.6c3.4-1.6,5.2-5.1,4.9-8.6c3,1.8,7,1.7,9.9-0.7
					c2.9-2.3,3.9-6.2,2.9-9.5c3.4,1.1,7.2,0.1,9.5-2.9C460.7,155.5,460.1,150,456.3,147z"/>
				<path class="st52" d="M456.3,146.5c-3.8-3-9.3-2.4-12.3,1.4c-1.9,2.4-2.3,5.4-1.5,8.1c-2.7-0.9-5.8-0.4-8.1,1.5
					c-2.4,1.9-3.5,4.8-3.2,7.6c-2.4-1.4-5.5-1.7-8.3-0.4c-2.7,1.3-4.5,3.9-4.9,6.7c-2-2-5-2.9-8-2.2c-3,0.7-5.2,2.8-6.2,5.4
					c-1.6-2.4-4.2-3.9-7.3-3.9s-5.7,1.6-7.3,3.9c-1-2.6-3.3-4.8-6.2-5.4c-3-0.7-5.9,0.2-8,2.2c-0.4-2.8-2.1-5.4-4.9-6.7
					c-2.7-1.3-5.8-1.1-8.3,0.4c0.2-2.8-0.9-5.7-3.2-7.6c-2.4-1.9-5.4-2.3-8.1-1.5c0.9-2.7,0.4-5.8-1.5-8.1c-3-3.8-8.5-4.4-12.3-1.4
					c-3.8,3-4.4,8.5-1.4,12.3c2.3,2.9,6.2,3.9,9.5,2.9c-1.1,3.4-0.1,7.2,2.9,9.5c2.9,2.3,6.9,2.5,9.9,0.7c-0.3,3.5,1.5,7,4.9,8.6
					c3.4,1.6,7.3,0.9,9.8-1.6c0.5,3.5,3.1,6.5,6.7,7.3c3.6,0.8,7.3-0.8,9.2-3.7c1.2,3.3,4.4,5.7,8.2,5.7c3.7,0,6.9-2.4,8.2-5.7
					c1.9,2.9,5.6,4.5,9.2,3.7c3.6-0.8,6.2-3.8,6.7-7.3c2.6,2.4,6.4,3.2,9.8,1.6c3.4-1.6,5.2-5.1,4.9-8.6c3,1.8,7,1.7,9.9-0.7
					c2.9-2.3,3.9-6.2,2.9-9.5c3.4,1.1,7.2,0.1,9.5-2.9C460.7,155,460.1,149.6,456.3,146.5z"/>
				<path class="st53" d="M456.3,146.1c-3.8-3-9.3-2.4-12.3,1.4c-1.9,2.4-2.3,5.4-1.5,8.1c-2.7-0.9-5.8-0.4-8.1,1.5
					c-2.4,1.9-3.5,4.8-3.2,7.6c-2.4-1.4-5.5-1.7-8.3-0.4c-2.7,1.3-4.5,3.9-4.9,6.7c-2-2-5-2.9-8-2.2c-3,0.7-5.2,2.8-6.2,5.4
					c-1.6-2.4-4.2-3.9-7.3-3.9s-5.7,1.6-7.3,3.9c-1-2.6-3.3-4.8-6.2-5.4c-3-0.7-5.9,0.2-8,2.2c-0.4-2.8-2.1-5.4-4.9-6.7
					c-2.7-1.3-5.8-1.1-8.3,0.4c0.2-2.8-0.9-5.7-3.2-7.6c-2.4-1.9-5.4-2.3-8.1-1.5c0.9-2.7,0.4-5.8-1.5-8.1c-3-3.8-8.5-4.4-12.3-1.4
					c-3.8,3-4.4,8.5-1.4,12.3c2.3,2.9,6.2,3.9,9.5,2.9c-1.1,3.4-0.1,7.2,2.9,9.5c2.9,2.3,6.9,2.5,9.9,0.7c-0.3,3.5,1.5,7,4.9,8.6
					c3.4,1.6,7.3,0.9,9.8-1.6c0.5,3.5,3.1,6.5,6.7,7.3c3.6,0.8,7.3-0.8,9.2-3.7c1.2,3.3,4.4,5.7,8.2,5.7c3.7,0,6.9-2.4,8.2-5.7
					c1.9,2.9,5.6,4.5,9.2,3.7c3.6-0.8,6.2-3.8,6.7-7.3c2.6,2.4,6.4,3.2,9.8,1.6c3.4-1.6,5.2-5.1,4.9-8.6c3,1.8,7,1.7,9.9-0.7
					c2.9-2.3,3.9-6.2,2.9-9.5c3.4,1.1,7.2,0.1,9.5-2.9C460.7,154.6,460.1,149.1,456.3,146.1z"/>
				<path class="st54" d="M456.3,145.7c-3.8-3-9.3-2.4-12.3,1.4c-1.9,2.4-2.3,5.4-1.5,8.1c-2.7-0.9-5.8-0.4-8.1,1.5
					c-2.4,1.9-3.5,4.8-3.2,7.6c-2.4-1.4-5.5-1.7-8.3-0.4c-2.7,1.3-4.5,3.9-4.9,6.7c-2-2-5-2.9-8-2.2c-3,0.7-5.2,2.8-6.2,5.4
					c-1.6-2.4-4.2-3.9-7.3-3.9s-5.7,1.6-7.3,3.9c-1-2.6-3.3-4.8-6.2-5.4c-3-0.7-5.9,0.2-8,2.2c-0.4-2.8-2.1-5.4-4.9-6.7
					c-2.7-1.3-5.8-1.1-8.3,0.4c0.2-2.8-0.9-5.7-3.2-7.6c-2.4-1.9-5.4-2.3-8.1-1.5c0.9-2.7,0.4-5.8-1.5-8.1c-3-3.8-8.5-4.4-12.3-1.4
					c-3.8,3-4.4,8.5-1.4,12.3c2.3,2.9,6.2,3.9,9.5,2.9c-1.1,3.4-0.1,7.2,2.9,9.5c2.9,2.3,6.9,2.5,9.9,0.7c-0.3,3.5,1.5,7,4.9,8.6
					c3.4,1.6,7.3,0.9,9.8-1.6c0.5,3.5,3.1,6.5,6.7,7.3c3.6,0.8,7.3-0.8,9.2-3.7c1.2,3.3,4.4,5.7,8.2,5.7c3.7,0,6.9-2.4,8.2-5.7
					c1.9,2.9,5.6,4.5,9.2,3.7c3.6-0.8,6.2-3.8,6.7-7.3c2.6,2.4,6.4,3.2,9.8,1.6c3.4-1.6,5.2-5.1,4.9-8.6c3,1.8,7,1.7,9.9-0.7
					c2.9-2.3,3.9-6.2,2.9-9.5c3.4,1.1,7.2,0.1,9.5-2.9C460.7,154.2,460.1,148.7,456.3,145.7z"/>
				<path class="st55" d="M456.3,145.2c-3.8-3-9.3-2.4-12.3,1.4c-1.9,2.4-2.3,5.4-1.5,8.1c-2.7-0.9-5.8-0.4-8.1,1.5
					c-2.4,1.9-3.5,4.8-3.2,7.6c-2.4-1.4-5.5-1.7-8.3-0.4c-2.7,1.3-4.5,3.9-4.9,6.7c-2-2-5-2.9-8-2.2c-3,0.7-5.2,2.8-6.2,5.4
					c-1.6-2.4-4.2-3.9-7.3-3.9s-5.7,1.6-7.3,3.9c-1-2.6-3.3-4.8-6.2-5.4c-3-0.7-5.9,0.2-8,2.2c-0.4-2.8-2.1-5.4-4.9-6.7
					c-2.7-1.3-5.8-1.1-8.3,0.4c0.2-2.8-0.9-5.7-3.2-7.6c-2.4-1.9-5.4-2.3-8.1-1.5c0.9-2.7,0.4-5.8-1.5-8.1c-3-3.8-8.5-4.4-12.3-1.4
					c-3.8,3-4.4,8.5-1.4,12.3c2.3,2.9,6.2,3.9,9.5,2.9c-1.1,3.4-0.1,7.2,2.9,9.5c2.9,2.3,6.9,2.5,9.9,0.7c-0.3,3.5,1.5,7,4.9,8.6
					c3.4,1.6,7.3,0.9,9.8-1.6c0.5,3.5,3.1,6.5,6.7,7.3c3.6,0.8,7.3-0.8,9.2-3.7c1.2,3.3,4.4,5.7,8.2,5.7c3.7,0,6.9-2.4,8.2-5.7
					c1.9,2.9,5.6,4.5,9.2,3.7c3.6-0.8,6.2-3.8,6.7-7.3c2.6,2.4,6.4,3.2,9.8,1.6c3.4-1.6,5.2-5.1,4.9-8.6c3,1.8,7,1.7,9.9-0.7
					c2.9-2.3,3.9-6.2,2.9-9.5c3.4,1.1,7.2,0.1,9.5-2.9C460.7,153.7,460.1,148.2,456.3,145.2z"/>
				<path class="st56" d="M456.3,144.8c-3.8-3-9.3-2.4-12.3,1.4c-1.9,2.4-2.3,5.4-1.5,8.1c-2.7-0.9-5.8-0.4-8.1,1.5
					c-2.4,1.9-3.5,4.8-3.2,7.6c-2.4-1.4-5.5-1.7-8.3-0.4c-2.7,1.3-4.5,3.9-4.9,6.7c-2-2-5-2.9-8-2.2c-3,0.7-5.2,2.8-6.2,5.4
					c-1.6-2.4-4.2-3.9-7.3-3.9s-5.7,1.6-7.3,3.9c-1-2.6-3.3-4.8-6.2-5.4c-3-0.7-5.9,0.2-8,2.2c-0.4-2.8-2.1-5.4-4.9-6.7
					c-2.7-1.3-5.8-1.1-8.3,0.4c0.2-2.8-0.9-5.7-3.2-7.6c-2.4-1.9-5.4-2.3-8.1-1.5c0.9-2.7,0.4-5.8-1.5-8.1c-3-3.8-8.5-4.4-12.3-1.4
					c-3.8,3-4.4,8.5-1.4,12.3c2.3,2.9,6.2,3.9,9.5,2.9c-1.1,3.4-0.1,7.2,2.9,9.5c2.9,2.3,6.9,2.5,9.9,0.7c-0.3,3.5,1.5,7,4.9,8.6
					c3.4,1.6,7.3,0.9,9.8-1.6c0.5,3.5,3.1,6.5,6.7,7.3c3.6,0.8,7.3-0.8,9.2-3.7c1.2,3.3,4.4,5.7,8.2,5.7c3.7,0,6.9-2.4,8.2-5.7
					c1.9,2.9,5.6,4.5,9.2,3.7c3.6-0.8,6.2-3.8,6.7-7.3c2.6,2.4,6.4,3.2,9.8,1.6c3.4-1.6,5.2-5.1,4.9-8.6c3,1.8,7,1.7,9.9-0.7
					c2.9-2.3,3.9-6.2,2.9-9.5c3.4,1.1,7.2,0.1,9.5-2.9C460.7,153.3,460.1,147.8,456.3,144.8z"/>
				<path class="st57" d="M456.3,144.3c-3.8-3-9.3-2.4-12.3,1.4c-1.9,2.4-2.3,5.4-1.5,8.1c-2.7-0.9-5.8-0.4-8.1,1.5
					c-2.4,1.9-3.5,4.8-3.2,7.6c-2.4-1.4-5.5-1.7-8.3-0.4c-2.7,1.3-4.5,3.9-4.9,6.7c-2-2-5-2.9-8-2.2c-3,0.7-5.2,2.8-6.2,5.4
					c-1.6-2.4-4.2-3.9-7.3-3.9s-5.7,1.6-7.3,3.9c-1-2.6-3.3-4.8-6.2-5.4c-3-0.7-5.9,0.2-8,2.2c-0.4-2.8-2.1-5.4-4.9-6.7
					c-2.7-1.3-5.8-1.1-8.3,0.4c0.2-2.8-0.9-5.7-3.2-7.6c-2.4-1.9-5.4-2.3-8.1-1.5c0.9-2.7,0.4-5.8-1.5-8.1c-3-3.8-8.5-4.4-12.3-1.4
					c-3.8,3-4.4,8.5-1.4,12.3c2.3,2.9,6.2,3.9,9.5,2.9c-1.1,3.4-0.1,7.2,2.9,9.5c2.9,2.3,6.9,2.5,9.9,0.7c-0.3,3.5,1.5,7,4.9,8.6
					c3.4,1.6,7.3,0.9,9.8-1.6c0.5,3.5,3.1,6.5,6.7,7.3c3.6,0.8,7.3-0.8,9.2-3.7c1.2,3.3,4.4,5.7,8.2,5.7c3.7,0,6.9-2.4,8.2-5.7
					c1.9,2.9,5.6,4.5,9.2,3.7c3.6-0.8,6.2-3.8,6.7-7.3c2.6,2.4,6.4,3.2,9.8,1.6c3.4-1.6,5.2-5.1,4.9-8.6c3,1.8,7,1.7,9.9-0.7
					c2.9-2.3,3.9-6.2,2.9-9.5c3.4,1.1,7.2,0.1,9.5-2.9C460.7,152.8,460.1,147.3,456.3,144.3z"/>
				<path class="st58" d="M456.3,143.9c-3.8-3-9.3-2.4-12.3,1.4c-1.9,2.4-2.3,5.4-1.5,8.1c-2.7-0.9-5.8-0.4-8.1,1.5
					c-2.4,1.9-3.5,4.8-3.2,7.6c-2.4-1.4-5.5-1.7-8.3-0.4c-2.7,1.3-4.5,3.9-4.9,6.7c-2-2-5-2.9-8-2.2c-3,0.7-5.2,2.8-6.2,5.4
					c-1.6-2.4-4.2-3.9-7.3-3.9s-5.7,1.6-7.3,3.9c-1-2.6-3.3-4.8-6.2-5.4c-3-0.7-5.9,0.2-8,2.2c-0.4-2.8-2.1-5.4-4.9-6.7
					c-2.7-1.3-5.8-1.1-8.3,0.4c0.2-2.8-0.9-5.7-3.2-7.6c-2.4-1.9-5.4-2.3-8.1-1.5c0.9-2.7,0.4-5.8-1.5-8.1c-3-3.8-8.5-4.4-12.3-1.4
					c-3.8,3-4.4,8.5-1.4,12.3c2.3,2.9,6.2,3.9,9.5,2.9c-1.1,3.4-0.1,7.2,2.9,9.5c2.9,2.3,6.9,2.5,9.9,0.7c-0.3,3.5,1.5,7,4.9,8.6
					c3.4,1.6,7.3,0.9,9.8-1.6c0.5,3.5,3.1,6.5,6.7,7.3c3.6,0.8,7.3-0.8,9.2-3.7c1.2,3.3,4.4,5.7,8.2,5.7c3.7,0,6.9-2.4,8.2-5.7
					c1.9,2.9,5.6,4.5,9.2,3.7c3.6-0.8,6.2-3.8,6.7-7.3c2.6,2.4,6.4,3.2,9.8,1.6c3.4-1.6,5.2-5.1,4.9-8.6c3,1.8,7,1.7,9.9-0.7
					c2.9-2.3,3.9-6.2,2.9-9.5c3.4,1.1,7.2,0.1,9.5-2.9C460.7,152.4,460.1,146.9,456.3,143.9z"/>
				<path class="st59" d="M456.3,143.4c-3.8-3-9.3-2.4-12.3,1.4c-1.9,2.4-2.3,5.4-1.5,8.1c-2.7-0.9-5.8-0.4-8.1,1.5
					c-2.4,1.9-3.5,4.8-3.2,7.6c-2.4-1.4-5.5-1.7-8.3-0.4c-2.7,1.3-4.5,3.9-4.9,6.7c-2-2-5-2.9-8-2.2c-3,0.7-5.2,2.8-6.2,5.4
					c-1.6-2.4-4.2-3.9-7.3-3.9s-5.7,1.6-7.3,3.9c-1-2.6-3.3-4.8-6.2-5.4c-3-0.7-5.9,0.2-8,2.2c-0.4-2.8-2.1-5.4-4.9-6.7
					c-2.7-1.3-5.8-1.1-8.3,0.4c0.2-2.8-0.9-5.7-3.2-7.6c-2.4-1.9-5.4-2.3-8.1-1.5c0.9-2.7,0.4-5.8-1.5-8.1c-3-3.8-8.5-4.4-12.3-1.4
					c-3.8,3-4.4,8.5-1.4,12.3c2.3,2.9,6.2,3.9,9.5,2.9c-1.1,3.4-0.1,7.2,2.9,9.5c2.9,2.3,6.9,2.5,9.9,0.7c-0.3,3.5,1.5,7,4.9,8.6
					c3.4,1.6,7.3,0.9,9.8-1.6c0.5,3.5,3.1,6.5,6.7,7.3c3.6,0.8,7.3-0.8,9.2-3.7c1.2,3.3,4.4,5.7,8.2,5.7c3.7,0,6.9-2.4,8.2-5.7
					c1.9,2.9,5.6,4.5,9.2,3.7c3.6-0.8,6.2-3.8,6.7-7.3c2.6,2.4,6.4,3.2,9.8,1.6c3.4-1.6,5.2-5.1,4.9-8.6c3,1.8,7,1.7,9.9-0.7
					c2.9-2.3,3.9-6.2,2.9-9.5c3.4,1.1,7.2,0.1,9.5-2.9C460.7,151.9,460.1,146.4,456.3,143.4z"/>
				<path class="st60" d="M456.3,143c-3.8-3-9.3-2.4-12.3,1.4c-1.9,2.4-2.3,5.4-1.5,8.1c-2.7-0.9-5.8-0.4-8.1,1.5
					c-2.4,1.9-3.5,4.8-3.2,7.6c-2.4-1.4-5.5-1.7-8.3-0.4c-2.7,1.3-4.5,3.9-4.9,6.7c-2-2-5-2.9-8-2.2c-3,0.7-5.2,2.8-6.2,5.4
					c-1.6-2.4-4.2-3.9-7.3-3.9s-5.7,1.6-7.3,3.9c-1-2.6-3.3-4.8-6.2-5.4c-3-0.7-5.9,0.2-8,2.2c-0.4-2.8-2.1-5.4-4.9-6.7
					c-2.7-1.3-5.8-1.1-8.3,0.4c0.2-2.8-0.9-5.7-3.2-7.6c-2.4-1.9-5.4-2.3-8.1-1.5c0.9-2.7,0.4-5.8-1.5-8.1c-3-3.8-8.5-4.4-12.3-1.4
					c-3.8,3-4.4,8.5-1.4,12.3c2.3,2.9,6.2,3.9,9.5,2.9c-1.1,3.4-0.1,7.2,2.9,9.5c2.9,2.3,6.9,2.5,9.9,0.7c-0.3,3.5,1.5,7,4.9,8.6
					c3.4,1.6,7.3,0.9,9.8-1.6c0.5,3.5,3.1,6.5,6.7,7.3c3.6,0.8,7.3-0.8,9.2-3.7c1.2,3.3,4.4,5.7,8.2,5.7c3.7,0,6.9-2.4,8.2-5.7
					c1.9,2.9,5.6,4.5,9.2,3.7c3.6-0.8,6.2-3.8,6.7-7.3c2.6,2.4,6.4,3.2,9.8,1.6c3.4-1.6,5.2-5.1,4.9-8.6c3,1.8,7,1.7,9.9-0.7
					c2.9-2.3,3.9-6.2,2.9-9.5c3.4,1.1,7.2,0.1,9.5-2.9C460.7,151.5,460.1,146,456.3,143z"/>
				<path class="st61" d="M456.3,142.5c-3.8-3-9.3-2.4-12.3,1.4c-1.9,2.4-2.3,5.4-1.5,8.1c-2.7-0.9-5.8-0.4-8.1,1.5
					c-2.4,1.9-3.5,4.8-3.2,7.6c-2.4-1.4-5.5-1.7-8.3-0.4c-2.7,1.3-4.5,3.9-4.9,6.7c-2-2-5-2.9-8-2.2c-3,0.7-5.2,2.8-6.2,5.4
					c-1.6-2.4-4.2-3.9-7.3-3.9s-5.7,1.6-7.3,3.9c-1-2.6-3.3-4.8-6.2-5.4c-3-0.7-5.9,0.2-8,2.2c-0.4-2.8-2.1-5.4-4.9-6.7
					c-2.7-1.3-5.8-1.1-8.3,0.4c0.2-2.8-0.9-5.7-3.2-7.6c-2.4-1.9-5.4-2.3-8.1-1.5c0.9-2.7,0.4-5.8-1.5-8.1c-3-3.8-8.5-4.4-12.3-1.4
					c-3.8,3-4.4,8.5-1.4,12.3c2.3,2.9,6.2,3.9,9.5,2.9c-1.1,3.4-0.1,7.2,2.9,9.5c2.9,2.3,6.9,2.5,9.9,0.7c-0.3,3.5,1.5,7,4.9,8.6
					c3.4,1.6,7.3,0.9,9.8-1.6c0.5,3.5,3.1,6.5,6.7,7.3c3.6,0.8,7.3-0.8,9.2-3.7c1.2,3.3,4.4,5.7,8.2,5.7c3.7,0,6.9-2.4,8.2-5.7
					c1.9,2.9,5.6,4.5,9.2,3.7c3.6-0.8,6.2-3.8,6.7-7.3c2.6,2.4,6.4,3.2,9.8,1.6c3.4-1.6,5.2-5.1,4.9-8.6c3,1.8,7,1.7,9.9-0.7
					c2.9-2.3,3.9-6.2,2.9-9.5c3.4,1.1,7.2,0.1,9.5-2.9C460.7,151,460.1,145.5,456.3,142.5z"/>
				<path class="st62" d="M456.3,142.1c-3.8-3-9.3-2.4-12.3,1.4c-1.9,2.4-2.3,5.4-1.5,8.1c-2.7-0.9-5.8-0.4-8.1,1.5
					c-2.4,1.9-3.5,4.8-3.2,7.6c-2.4-1.4-5.5-1.7-8.3-0.4c-2.7,1.3-4.5,3.9-4.9,6.7c-2-2-5-2.9-8-2.2c-3,0.7-5.2,2.8-6.2,5.4
					c-1.6-2.4-4.2-3.9-7.3-3.9s-5.7,1.6-7.3,3.9c-1-2.6-3.3-4.8-6.2-5.4c-3-0.7-5.9,0.2-8,2.2c-0.4-2.8-2.1-5.4-4.9-6.7
					c-2.7-1.3-5.8-1.1-8.3,0.4c0.2-2.8-0.9-5.7-3.2-7.6c-2.4-1.9-5.4-2.3-8.1-1.5c0.9-2.7,0.4-5.8-1.5-8.1c-3-3.8-8.5-4.4-12.3-1.4
					c-3.8,3-4.4,8.5-1.4,12.3c2.3,2.9,6.2,3.9,9.5,2.9c-1.1,3.4-0.1,7.2,2.9,9.5c2.9,2.3,6.9,2.5,9.9,0.7c-0.3,3.5,1.5,7,4.9,8.6
					c3.4,1.6,7.3,0.9,9.8-1.6c0.5,3.5,3.1,6.5,6.7,7.3c3.6,0.8,7.3-0.8,9.2-3.7c1.2,3.3,4.4,5.7,8.2,5.7c3.7,0,6.9-2.4,8.2-5.7
					c1.9,2.9,5.6,4.5,9.2,3.7c3.6-0.8,6.2-3.8,6.7-7.3c2.6,2.4,6.4,3.2,9.8,1.6c3.4-1.6,5.2-5.1,4.9-8.6c3,1.8,7,1.7,9.9-0.7
					c2.9-2.3,3.9-6.2,2.9-9.5c3.4,1.1,7.2,0.1,9.5-2.9C460.7,150.6,460.1,145.1,456.3,142.1z"/>
				<path class="st63" d="M456.3,141.6c-3.8-3-9.3-2.4-12.3,1.4c-1.9,2.4-2.3,5.4-1.5,8.1c-2.7-0.9-5.8-0.4-8.1,1.5
					c-2.4,1.9-3.5,4.8-3.2,7.6c-2.4-1.4-5.5-1.7-8.3-0.4c-2.7,1.3-4.5,3.9-4.9,6.7c-2-2-5-2.9-8-2.2c-3,0.7-5.2,2.8-6.2,5.4
					c-1.6-2.4-4.2-3.9-7.3-3.9s-5.7,1.6-7.3,3.9c-1-2.6-3.3-4.8-6.2-5.4c-3-0.7-5.9,0.2-8,2.2c-0.4-2.8-2.1-5.4-4.9-6.7
					c-2.7-1.3-5.8-1.1-8.3,0.4c0.2-2.8-0.9-5.7-3.2-7.6c-2.4-1.9-5.4-2.3-8.1-1.5c0.9-2.7,0.4-5.8-1.5-8.1c-3-3.8-8.5-4.4-12.3-1.4
					c-3.8,3-4.4,8.5-1.4,12.3c2.3,2.9,6.2,3.9,9.5,2.9c-1.1,3.4-0.1,7.2,2.9,9.5c2.9,2.3,6.9,2.5,9.9,0.7c-0.3,3.5,1.5,7,4.9,8.6
					c3.4,1.6,7.3,0.9,9.8-1.6c0.5,3.5,3.1,6.5,6.7,7.3c3.6,0.8,7.3-0.8,9.2-3.7c1.2,3.3,4.4,5.7,8.2,5.7c3.7,0,6.9-2.4,8.2-5.7
					c1.9,2.9,5.6,4.5,9.2,3.7c3.6-0.8,6.2-3.8,6.7-7.3c2.6,2.4,6.4,3.2,9.8,1.6c3.4-1.6,5.2-5.1,4.9-8.6c3,1.8,7,1.7,9.9-0.7
					c2.9-2.3,3.9-6.2,2.9-9.5c3.4,1.1,7.2,0.1,9.5-2.9C460.7,150.1,460.1,144.6,456.3,141.6z"/>
				<path d="M456.3,141.2c-3.8-3-9.3-2.4-12.3,1.4c-1.9,2.4-2.3,5.4-1.5,8.1c-2.7-0.9-5.8-0.4-8.1,1.5c-2.4,1.9-3.5,4.8-3.2,7.6
					c-2.4-1.4-5.5-1.7-8.3-0.4c-2.7,1.3-4.5,3.9-4.9,6.7c-2-2-5-2.9-8-2.2c-3,0.7-5.2,2.8-6.2,5.4c-1.6-2.4-4.2-3.9-7.3-3.9
					s-5.7,1.6-7.3,3.9c-1-2.6-3.3-4.8-6.2-5.4c-3-0.7-5.9,0.2-8,2.2c-0.4-2.8-2.1-5.4-4.9-6.7c-2.7-1.3-5.8-1.1-8.3,0.4
					c0.2-2.8-0.9-5.7-3.2-7.6c-2.4-1.9-5.4-2.3-8.1-1.5c0.9-2.7,0.4-5.8-1.5-8.1c-3-3.8-8.5-4.4-12.3-1.4c-3.8,3-4.4,8.5-1.4,12.3
					c2.3,2.9,6.2,3.9,9.5,2.9c-1.1,3.4-0.1,7.2,2.9,9.5c2.9,2.3,6.9,2.5,9.9,0.7c-0.3,3.5,1.5,7,4.9,8.6c3.4,1.6,7.3,0.9,9.8-1.6
					c0.5,3.5,3.1,6.5,6.7,7.3c3.6,0.8,7.3-0.8,9.2-3.7c1.2,3.3,4.4,5.7,8.2,5.7c3.7,0,6.9-2.4,8.2-5.7c1.9,2.9,5.6,4.5,9.2,3.7
					c3.6-0.8,6.2-3.8,6.7-7.3c2.6,2.4,6.4,3.2,9.8,1.6c3.4-1.6,5.2-5.1,4.9-8.6c3,1.8,7,1.7,9.9-0.7c2.9-2.3,3.9-6.2,2.9-9.5
					c3.4,1.1,7.2,0.1,9.5-2.9C460.7,149.7,460.1,144.2,456.3,141.2z"/>
			</g>
		</g>
		<linearGradient id="SVGID_13_" gradientUnits="userSpaceOnUse" x1="387.8762" y1="35.3248" x2="405.3312" y2="35.3248">
			<stop  offset="0" style="stop-color:#01639C"/>
			<stop  offset="1" style="stop-color:#004580"/>
		</linearGradient>
		<circle class="st64" cx="396.6" cy="35.3" r="8.7"/>
		<linearGradient id="SVGID_14_" gradientUnits="userSpaceOnUse" x1="372.4302" y1="37.0649" x2="389.8891" y2="37.0649">
			<stop  offset="0" style="stop-color:#01639C"/>
			<stop  offset="1" style="stop-color:#004580"/>
		</linearGradient>
		<circle class="st65" cx="381.2" cy="37.1" r="8.7"/>
		<linearGradient id="SVGID_15_" gradientUnits="userSpaceOnUse" x1="357.7606" y1="42.198" x2="375.2197" y2="42.198">
			<stop  offset="0" style="stop-color:#01639C"/>
			<stop  offset="1" style="stop-color:#004580"/>
		</linearGradient>
		<circle class="st66" cx="366.5" cy="42.2" r="8.7"/>
		<linearGradient id="SVGID_16_" gradientUnits="userSpaceOnUse" x1="344.6027" y1="50.4667" x2="362.0584" y2="50.4667">
			<stop  offset="0" style="stop-color:#01639C"/>
			<stop  offset="1" style="stop-color:#004580"/>
		</linearGradient>
		<circle class="st67" cx="353.3" cy="50.5" r="8.7"/>
		<linearGradient id="SVGID_17_" gradientUnits="userSpaceOnUse" x1="333.613" y1="61.4564" x2="351.0688" y2="61.4564">
			<stop  offset="0" style="stop-color:#01639C"/>
			<stop  offset="1" style="stop-color:#004580"/>
		</linearGradient>
		<circle class="st68" cx="342.3" cy="61.5" r="8.7"/>
		<linearGradient id="SVGID_18_" gradientUnits="userSpaceOnUse" x1="333.613" y1="148.0026" x2="351.0688" y2="148.0026">
			<stop  offset="0" style="stop-color:#01639C"/>
			<stop  offset="1" style="stop-color:#004580"/>
		</linearGradient>
		<circle class="st69" cx="342.3" cy="148" r="8.7"/>
		<linearGradient id="SVGID_19_" gradientUnits="userSpaceOnUse" x1="344.6027" y1="158.9923" x2="362.0584" y2="158.9923">
			<stop  offset="0" style="stop-color:#01639C"/>
			<stop  offset="1" style="stop-color:#004580"/>
		</linearGradient>
		<circle class="st70" cx="353.3" cy="159" r="8.7"/>
		<linearGradient id="SVGID_20_" gradientUnits="userSpaceOnUse" x1="357.7606" y1="167.261" x2="375.2197" y2="167.261">
			<stop  offset="0" style="stop-color:#01639C"/>
			<stop  offset="1" style="stop-color:#004580"/>
		</linearGradient>
		<circle class="st71" cx="366.5" cy="167.3" r="8.7"/>
		<linearGradient id="SVGID_21_" gradientUnits="userSpaceOnUse" x1="372.4302" y1="172.3941" x2="389.8891" y2="172.3941">
			<stop  offset="0" style="stop-color:#01639C"/>
			<stop  offset="1" style="stop-color:#004580"/>
		</linearGradient>
		<circle class="st72" cx="381.2" cy="172.4" r="8.7"/>
		<linearGradient id="SVGID_22_" gradientUnits="userSpaceOnUse" x1="387.8762" y1="174.1342" x2="405.3312" y2="174.1342">
			<stop  offset="0" style="stop-color:#01639C"/>
			<stop  offset="1" style="stop-color:#004580"/>
		</linearGradient>
		<circle class="st73" cx="396.6" cy="174.1" r="8.7"/>
		<linearGradient id="SVGID_23_" gradientUnits="userSpaceOnUse" x1="403.3182" y1="172.3941" x2="420.7771" y2="172.3941">
			<stop  offset="0" style="stop-color:#01639C"/>
			<stop  offset="1" style="stop-color:#004580"/>
		</linearGradient>
		<circle class="st74" cx="412" cy="172.4" r="8.7"/>
		<linearGradient id="SVGID_24_" gradientUnits="userSpaceOnUse" x1="417.9877" y1="167.261" x2="435.4468" y2="167.261">
			<stop  offset="0" style="stop-color:#01639C"/>
			<stop  offset="1" style="stop-color:#004580"/>
		</linearGradient>
		<circle class="st75" cx="426.7" cy="167.3" r="8.7"/>
		<linearGradient id="SVGID_25_" gradientUnits="userSpaceOnUse" x1="431.1489" y1="158.9923" x2="448.6046" y2="158.9923">
			<stop  offset="0" style="stop-color:#01639C"/>
			<stop  offset="1" style="stop-color:#004580"/>
		</linearGradient>
		<circle class="st76" cx="439.9" cy="159" r="8.7"/>
		<linearGradient id="SVGID_26_" gradientUnits="userSpaceOnUse" x1="442.1386" y1="148.0026" x2="459.5943" y2="148.0026">
			<stop  offset="0" style="stop-color:#01639C"/>
			<stop  offset="1" style="stop-color:#004580"/>
		</linearGradient>
		<circle class="st77" cx="450.9" cy="148" r="8.7"/>
		<linearGradient id="SVGID_27_" gradientUnits="userSpaceOnUse" x1="450.4056" y1="134.8431" x2="467.8647" y2="134.8431">
			<stop  offset="0" style="stop-color:#01639C"/>
			<stop  offset="1" style="stop-color:#004580"/>
		</linearGradient>
		<circle class="st78" cx="459.1" cy="134.8" r="8.7"/>
		<linearGradient id="SVGID_28_" gradientUnits="userSpaceOnUse" x1="455.5388" y1="120.1735" x2="472.9977" y2="120.1735">
			<stop  offset="0" style="stop-color:#01639C"/>
			<stop  offset="1" style="stop-color:#004580"/>
		</linearGradient>
		<circle class="st79" cx="464.3" cy="120.2" r="8.7"/>
		<linearGradient id="SVGID_29_" gradientUnits="userSpaceOnUse" x1="457.2808" y1="104.7295" x2="474.7359" y2="104.7295">
			<stop  offset="0" style="stop-color:#01639C"/>
			<stop  offset="1" style="stop-color:#004580"/>
		</linearGradient>
		<circle class="st80" cx="466" cy="104.7" r="8.7"/>
		<linearGradient id="SVGID_30_" gradientUnits="userSpaceOnUse" x1="455.5388" y1="89.2855" x2="472.9977" y2="89.2855">
			<stop  offset="0" style="stop-color:#01639C"/>
			<stop  offset="1" style="stop-color:#004580"/>
		</linearGradient>
		<circle class="st81" cx="464.3" cy="89.3" r="8.7"/>
		<linearGradient id="SVGID_31_" gradientUnits="userSpaceOnUse" x1="450.4056" y1="74.6159" x2="467.8647" y2="74.6159">
			<stop  offset="0" style="stop-color:#01639C"/>
			<stop  offset="1" style="stop-color:#004580"/>
		</linearGradient>
		<circle class="st82" cx="459.1" cy="74.6" r="8.7"/>
		<linearGradient id="SVGID_32_" gradientUnits="userSpaceOnUse" x1="442.1386" y1="61.4564" x2="459.5943" y2="61.4564">
			<stop  offset="0" style="stop-color:#01639C"/>
			<stop  offset="1" style="stop-color:#004580"/>
		</linearGradient>
		<circle class="st83" cx="450.9" cy="61.5" r="8.7"/>
		<linearGradient id="SVGID_33_" gradientUnits="userSpaceOnUse" x1="431.1489" y1="50.4667" x2="448.6046" y2="50.4667">
			<stop  offset="0" style="stop-color:#01639C"/>
			<stop  offset="1" style="stop-color:#004580"/>
		</linearGradient>
		<circle class="st84" cx="439.9" cy="50.5" r="8.7"/>
		<linearGradient id="SVGID_34_" gradientUnits="userSpaceOnUse" x1="417.9877" y1="42.198" x2="435.4468" y2="42.198">
			<stop  offset="0" style="stop-color:#01639C"/>
			<stop  offset="1" style="stop-color:#004580"/>
		</linearGradient>
		<circle class="st85" cx="426.7" cy="42.2" r="8.7"/>
		<linearGradient id="SVGID_35_" gradientUnits="userSpaceOnUse" x1="403.3182" y1="37.0649" x2="420.7771" y2="37.0649">
			<stop  offset="0" style="stop-color:#01639C"/>
			<stop  offset="1" style="stop-color:#004580"/>
		</linearGradient>
		<circle class="st86" cx="412" cy="37.1" r="8.7"/>
		<g class="st87">
			<circle class="st51" cx="396.6" cy="104.7" r="73.1"/>
			<circle class="st52" cx="396.6" cy="104.7" r="72.9"/>
			<circle class="st53" cx="396.6" cy="104.7" r="72.6"/>
			<circle class="st54" cx="396.6" cy="104.7" r="72.4"/>
			<circle class="st55" cx="396.6" cy="104.7" r="72.1"/>
			<circle class="st56" cx="396.6" cy="104.7" r="71.9"/>
			<circle class="st57" cx="396.6" cy="104.7" r="71.6"/>
			<circle class="st58" cx="396.6" cy="104.7" r="71.4"/>
			<circle class="st59" cx="396.6" cy="104.7" r="71.1"/>
			<circle class="st60" cx="396.6" cy="104.7" r="70.8"/>
			<circle class="st61" cx="396.6" cy="104.7" r="70.6"/>
			<circle class="st62" cx="396.6" cy="104.7" r="70.3"/>
			<circle class="st63" cx="396.6" cy="104.7" r="70.1"/>
			<circle cx="396.6" cy="104.7" r="69.8"/>
		</g>
		<linearGradient id="SVGID_36_" gradientUnits="userSpaceOnUse" x1="355.9883" y1="37.822" x2="437.3198" y2="171.803">
			<stop  offset="0" style="stop-color:#014E7A"/>
			<stop  offset="1" style="stop-color:#003664"/>
		</linearGradient>
		<circle class="st88" cx="396.6" cy="104.7" r="69.8"/>
		<circle class="st7" cx="396.6" cy="104.7" r="59.8"/>
		<linearGradient id="SVGID_37_" gradientUnits="userSpaceOnUse" x1="355.9883" y1="37.822" x2="437.3199" y2="171.8032">
			<stop  offset="0" style="stop-color:#A7D63F"/>
			<stop  offset="7.382721e-02" style="stop-color:#9FD340"/>
			<stop  offset="1" style="stop-color:#39B54A"/>
		</linearGradient>
		<circle class="st89" cx="396.6" cy="104.7" r="56.1"/>
		<path class="st7" d="M355.9,110.7l27,29.3c1.1,1.2,3.1,1.2,4.1-0.1l47.2-58.2c1-1.2,0.8-3-0.5-3.9l-11.6-8.6
			c-1.2-0.9-2.9-0.6-3.8,0.5l-31,40.1c-1,1.3-2.9,1.4-4.1,0.3l-13.4-13.4c-1.1-1.1-2.8-1.1-3.9,0l-10.1,10.3
			C354.9,108,354.9,109.6,355.9,110.7z"/>
	</g>
</g>
</svg>
