<?xml version="1.0" encoding="utf-8"?>
<!-- Generator: Adobe Illustrator 19.2.1, SVG Export Plug-In . SVG Version: 6.00 Build 0)  -->
<svg version="1.1" id="Layer_1" xmlns="http://www.w3.org/2000/svg" xmlns:xlink="http://www.w3.org/1999/xlink" x="0px" y="0px"
	 viewBox="0 0 250 250" style="enable-background:new 0 0 250 250;" xml:space="preserve">
<style type="text/css">
	.st0{fill:#237EC1;}
	.st1{fill:#BD9679;}
	.st2{fill:#CFA585;}
	.st3{fill:#E3B592;}
	.st4{fill:#494A70;}
	.st5{fill:#FAC7A0;}
	.st6{fill:#D6B398;}
	.st7{fill:#FFFFFF;}
	.st8{fill:#FFBD48;stroke:#E8953A;stroke-miterlimit:10;}
	.st9{fill:#FF914F;stroke:#FFFFFF;stroke-miterlimit:10;}
	.st10{fill:none;stroke:#FFFFFF;stroke-miterlimit:10;}
	.st11{fill:#AFAFAF;}
	.st12{fill:#446785;}
	.st13{fill:#D8D9DA;}
	.st14{fill:#F5F5F5;}
	.st15{fill:#E1E1E1;}
	.st16{fill:#FF3632;}
	.st17{fill:#FFC200;}
	.st18{fill:#C8DD15;}
	.st19{fill:#FF6C00;}
	.st20{fill:#6BC43C;}
	.st21{filter:url(#Adobe_OpacityMaskFilter);}
	.st22{filter:url(#Adobe_OpacityMaskFilter_1_);}
	.st23{mask:url(#SVGID_1_);fill:url(#SVGID_2_);}
	.st24{fill:url(#SVGID_3_);}
	.st25{fill:#84CD5D;}
	.st26{fill:#41A029;}
	.st27{fill:#278C1F;}
	.st28{fill:#D8E86D;}
	.st29{fill:#AEB503;}
	.st30{fill:#A09E00;}
	.st31{fill:#FFD700;}
	.st32{fill:#FFA100;}
	.st33{fill:#FF9000;}
	.st34{fill:#FF7D00;}
	.st35{fill:#F94107;}
	.st36{fill:#DE3300;}
	.st37{fill:#FF524F;}
	.st38{fill:#E62323;}
	.st39{fill:#D61516;}
	.st40{fill:#BEBEBE;}
	.st41{fill:#404040;}
	.st42{fill:#616161;}
	.st43{fill:url(#SVGID_4_);}
	.st44{fill:url(#SVGID_5_);}
	.st45{fill:url(#SVGID_6_);}
	.st46{fill:url(#SVGID_7_);}
	.st47{fill:url(#SVGID_8_);}
	.st48{fill:url(#SVGID_9_);}
	.st49{fill:url(#SVGID_10_);}
	.st50{opacity:0.35;clip-path:url(#SVGID_12_);}
	.st51{opacity:0;}
	.st52{opacity:7.692300e-02;}
	.st53{opacity:0.1538;}
	.st54{opacity:0.2308;}
	.st55{opacity:0.3077;}
	.st56{opacity:0.3846;}
	.st57{opacity:0.4615;}
	.st58{opacity:0.5385;}
	.st59{opacity:0.6154;}
	.st60{opacity:0.6923;}
	.st61{opacity:0.7692;}
	.st62{opacity:0.8462;}
	.st63{opacity:0.9231;}
	.st64{fill:url(#SVGID_13_);}
	.st65{fill:url(#SVGID_14_);}
	.st66{fill:url(#SVGID_15_);}
	.st67{fill:url(#SVGID_16_);}
	.st68{fill:url(#SVGID_17_);}
	.st69{fill:url(#SVGID_18_);}
	.st70{fill:url(#SVGID_19_);}
	.st71{fill:url(#SVGID_20_);}
	.st72{fill:url(#SVGID_21_);}
	.st73{fill:url(#SVGID_22_);}
	.st74{fill:url(#SVGID_23_);}
	.st75{fill:url(#SVGID_24_);}
	.st76{fill:url(#SVGID_25_);}
	.st77{fill:url(#SVGID_26_);}
	.st78{fill:url(#SVGID_27_);}
	.st79{fill:url(#SVGID_28_);}
	.st80{fill:url(#SVGID_29_);}
	.st81{fill:url(#SVGID_30_);}
	.st82{fill:url(#SVGID_31_);}
	.st83{fill:url(#SVGID_32_);}
	.st84{fill:url(#SVGID_33_);}
	.st85{fill:url(#SVGID_34_);}
	.st86{fill:url(#SVGID_35_);}
	.st87{opacity:0.25;}
	.st88{fill:url(#SVGID_36_);}
	.st89{fill:url(#SVGID_37_);}
</style>
<text transform="matrix(0 -1 1 0 734.8135 151.3662)" class="st0" style="font-family:'Futura-Medium'; font-size:26.3079px;"> - - - - - - </text>
<text transform="matrix(0 -1 1 0 602.0918 153.7666)" class="st0" style="font-family:'Futura-Medium'; font-size:26.3079px;"> - - - - - - </text>
<g>
	<g>
		<path class="st1" d="M11.3,183.8c0,0-7.2-1.4-9,10C1.8,196.7,37,204.2,37,204.2l50.5,6.4l-5.7-15L11.3,183.8z"/>
		<path class="st2" d="M112.6,216.7c0,0-102.5-24.9-104.8-27.7c-2.3-2.7-1.5-13.2,7.7-14.4c9.2-1.2,30.3,4.4,30.3,4.4l31.7,0.6
			l63.3-5.4l27.2,25C168.2,199.2,117.9,218,112.6,216.7z"/>
		<path class="st3" d="M182.8,195.6c3.5,1.3,35.1,13.5,35.1,13.5l14-44.4c0,0-47-18.7-50.7-19.7c-3.7-0.9-10.8-8.2-42.5,7.8
			c-31.8,16-29.1,13.5-29.1,13.5s-34,4.2-41.5,11.8c-7.5,7.6-3,22,13.6,20.8c16.6-1.2,38-10.1,38-10.1l48.5,10.4
			C168.2,199.2,179.4,194.3,182.8,195.6z"/>
		
			<rect x="188.3" y="167" transform="matrix(0.2849 -0.9586 0.9586 0.2849 -20.235 344.1797)" class="st4" width="64.6" height="37.2"/>
	</g>
	<path class="st5" d="M88.6,192.4c1.9-1.3,1.9-3.1,1.1-5.4c-0.8-2.3-2.1-9.5-3.4-10.2c-1.2-0.7-18.4-0.3-19.4,9.9
		c-0.8,8.4,9.5,8,11.8,7.8C79.3,194.4,87.5,193.1,88.6,192.4z"/>
	<path class="st6" d="M21.1,193.4c0,0-0.1-2.4-2.2-4c-2-1.5-9.6-2.9-10.5-2.4c-0.9,0.4-0.6,2.3-0.6,2.3L21.1,193.4z"/>
	<path class="st6" d="M15.7,199.1c0,0,0.2-1.3-1.5-2.8c-1.8-1.5-11.6-3.8-11.7-3.5c-0.1,0.3-0.4,1.9-0.4,1.9S6.9,196.9,15.7,199.1z"
		/>
</g>
<circle class="st7" cx="-78.3" cy="111.3" r="0"/>
<circle class="st8" cx="94.7" cy="115.8" r="33.5"/>
<path class="st9" d="M378.3,147.1c-0.4-3.1-2.8-5.5-5.8-6.1c-7.8-1.4-16.6-5.7-25.4-9.1l-1.1-4.8c-0.8-0.1-1.5-0.3-2.3-0.4v-7.1
	l0.6-0.6c1.6-1.6,2.6-3.7,2.8-6c0.1-1.2,0.3-2.5,0.4-3.8c0.6,0.7,2.1,0.9,2.7,0.2c0.5-0.5,0.9-1.3,1.2-2.2c1-3.1,1.5-6.8,1.6-10.9
	c0.1-1.7-1.4-2.8-2.9-2.5c1.1-7.6,1-14,0.1-20.5c-2.3-1.7-4.2-2.7-7.2-2.8l-2.7-4.5c-9.6-5.1-24.9-2.4-33.5,5.9
	c-1.3,5.4-1.3,12.9-0.2,21.9c-1.4-0.3-3,0.8-2.9,2.5c0.2,4.1,0.7,7.8,1.6,10.9c0.3,1,0.7,1.7,1.2,2.2c0.6,0.7,2.1,0.4,2.7-0.2
	c0.1,1.3,0.3,2.6,0.4,3.8c0.2,2.2,1.2,4.3,2.8,5.9l0.6,0.6v7.1c-0.8,0.1-1.5,0.2-2.3,0.4l-1.1,4.9c-8.7,3.4-17.4,7.6-25.4,9
	c-3.1,0.5-5.5,3.1-5.9,6.2c-0.9,6.2-1.3,35.2-1.3,35.2s26.1,15.9,51,15.9c25,0,51.6-15.9,51.6-15.9S379,151.6,378.3,147.1z"/>
<text transform="matrix(1 0 0 1 315.9922 178.2461)" class="st7" style="font-family:'Futura-Medium'; font-size:13.9235px;">&lt;/&gt;</text>
<circle class="st10" cx="328.4" cy="172.7" r="15.2"/>
<path class="st9" d="M511.3,150.2c-0.4-3.1-2.8-5.5-5.8-6.1c-7.8-1.4-16.6-5.7-25.4-9.1l-1.1-4.8c-0.8-0.1-1.5-0.3-2.3-0.4v-7.1
	l0.6-0.6c1.6-1.6,2.6-3.7,2.8-6c0.1-1.2,0.3-2.5,0.4-3.8c0.6,0.7,2.1,0.9,2.7,0.2c0.5-0.5,0.9-1.3,1.2-2.2c1-3.1,1.5-6.8,1.6-10.9
	c0.1-1.7-1.4-2.8-2.9-2.5c1.1-7.6,1-14,0.1-20.5c-2.3-1.7-4.2-2.7-7.2-2.8l-2.7-4.5c-9.6-5.1-24.9-2.4-33.5,5.9
	c-1.3,5.4-1.3,12.9-0.2,21.9c-1.4-0.3-3,0.8-2.9,2.5c0.2,4.1,0.7,7.8,1.6,10.9c0.3,1,0.7,1.7,1.2,2.2c0.6,0.7,2.1,0.4,2.7-0.2
	c0.1,1.3,0.3,2.6,0.4,3.8c0.2,2.2,1.2,4.3,2.8,5.9l0.6,0.6v7.1c-0.8,0.1-1.5,0.2-2.3,0.4l-1.1,4.9c-8.7,3.4-17.4,7.6-25.4,9
	c-3.1,0.5-5.5,3.1-5.9,6.2c-0.9,6.2-1.3,35.2-1.3,35.2s26.1,15.9,51,15.9s51.6-15.9,51.6-15.9S511.9,154.7,511.3,150.2z"/>
<text transform="matrix(1 0 0 1 448.875 178.7998)" class="st7" style="font-family:'Futura-Medium'; font-size:13.9235px;">&lt;/&gt;</text>
<circle class="st10" cx="460.7" cy="173.9" r="15.2"/>
<path class="st9" d="M444.8,184.7c-0.4-3.1-2.8-5.5-5.8-6.1c-7.8-1.4-16.6-5.7-25.4-9.1l-1.1-4.8c-0.8-0.1-1.5-0.3-2.3-0.4v-7.1
	l0.6-0.6c1.6-1.6,2.6-3.7,2.8-6c0.1-1.2,0.3-2.5,0.4-3.8c0.6,0.7,2.1,0.9,2.7,0.2c0.5-0.5,0.9-1.3,1.2-2.2c1-3.1,1.5-6.8,1.6-10.9
	c0.1-1.7-1.4-2.8-2.9-2.5c1.1-7.6,1-14,0.1-20.5c-2.3-1.7-4.2-2.7-7.2-2.8l-2.7-4.5c-9.6-5.1-24.9-2.4-33.5,5.9
	c-1.3,5.4-1.3,12.9-0.2,21.9c-1.4-0.3-3,0.8-2.9,2.5c0.2,4.1,0.7,7.8,1.6,10.9c0.3,1,0.7,1.7,1.2,2.2c0.6,0.7,2.1,0.4,2.7-0.2
	c0.1,1.3,0.3,2.6,0.4,3.8c0.2,2.2,1.2,4.3,2.8,5.9l0.6,0.6v7.1c-0.8,0.1-1.5,0.2-2.3,0.4l-1.1,4.9c-8.7,3.4-17.4,7.6-25.4,9
	c-3.1,0.5-5.5,3.1-5.9,6.2c-0.9,6.2-1.3,35.2-1.3,35.2s26.1,15.9,51,15.9c25,0,51.6-15.9,51.6-15.9S445.4,189.3,444.8,184.7z"/>
<text transform="matrix(1 0 0 1 382.3618 213.3154)" class="st7" style="font-family:'Futura-Medium'; font-size:13.9235px;">&lt;/&gt;</text>
<circle class="st10" cx="394.1" cy="208.4" r="15.2"/>
<path class="st0" d="M629.2,67.3c-0.3-2-1.8-3.6-3.8-4c-5.1-0.9-10.9-3.7-16.6-5.9l-0.7-3.1c-0.5-0.1-1-0.2-1.5-0.3v-4.7L607,49
	c1-1.1,1.7-2.4,1.8-3.9c0.1-0.8,0.2-1.6,0.3-2.5c0.4,0.4,1.4,0.6,1.7,0.2c0.3-0.4,0.6-0.8,0.8-1.5c0.6-2,1-4.4,1.1-7.1
	c0-1.1-0.9-1.8-1.9-1.6c0.7-5,0.6-9.2,0.1-13.4c-1.5-1.1-2.8-1.7-4.7-1.8l-1.8-2.9c-6.3-3.3-16.3-1.5-21.9,3.9
	c-0.8,3.5-0.9,8.4-0.1,14.3c-0.9-0.2-1.9,0.5-1.9,1.6c0.1,2.7,0.4,5.1,1.1,7.1c0.2,0.6,0.5,1.1,0.8,1.5c0.4,0.4,1.4,0.3,1.7-0.2
	c0.1,0.9,0.2,1.7,0.3,2.5c0.1,1.5,0.8,2.8,1.8,3.9l0.4,0.4V54c-0.5,0.1-1,0.2-1.5,0.3l-0.7,3.2c-5.7,2.2-11.4,5-16.6,5.9
	c-2,0.4-3.6,2-3.8,4c-0.6,4-0.9,23-0.9,23s17,10.4,33.4,10.4s33.7-10.4,33.7-10.4S629.6,70.3,629.2,67.3z"/>
<text transform="matrix(1 0 0 1 588.3857 86.0557)" class="st7" style="font-family:'Futura-Medium'; font-size:9.1043px;">&lt;/&gt;</text>
<circle class="st10" cx="596.1" cy="82.9" r="9.9"/>
<path class="st0" d="M761.1,67.3c-0.3-2-1.8-3.6-3.8-4c-5.1-0.9-10.9-3.7-16.6-5.9l-0.7-3.1c-0.5-0.1-1-0.2-1.5-0.3v-4.7l0.4-0.4
	c1-1.1,1.7-2.4,1.8-3.9c0.1-0.8,0.2-1.6,0.3-2.5c0.4,0.4,1.4,0.6,1.7,0.2c0.3-0.4,0.6-0.8,0.8-1.5c0.6-2,1-4.4,1.1-7.1
	c0-1.1-0.9-1.8-1.9-1.6c0.7-5,0.6-9.2,0.1-13.4c-1.5-1.1-2.8-1.7-4.7-1.8l-1.8-2.9c-6.3-3.3-16.3-1.5-21.9,3.9
	c-0.8,3.5-0.9,8.4-0.1,14.3c-0.9-0.2-1.9,0.5-1.9,1.6c0.1,2.7,0.4,5.1,1.1,7.1c0.2,0.6,0.5,1.1,0.8,1.5c0.4,0.4,1.4,0.3,1.7-0.2
	c0.1,0.9,0.2,1.7,0.3,2.5c0.1,1.5,0.8,2.8,1.8,3.9l0.4,0.4V54c-0.5,0.1-1,0.2-1.5,0.3l-0.7,3.2c-5.7,2.2-11.4,5-16.6,5.9
	c-2,0.4-3.6,2-3.8,4c-0.6,4-0.9,23-0.9,23s17,10.4,33.4,10.4c16.3,0,33.7-10.4,33.7-10.4S761.5,70.3,761.1,67.3z"/>
<text transform="matrix(1 0 0 1 720.3076 86.0557)" class="st7" style="font-family:'Futura-Medium'; font-size:9.1043px;">&lt;/&gt;</text>
<circle class="st10" cx="728" cy="82.9" r="9.9"/>
<path class="st0" d="M761.1,202.9c-0.3-2-1.8-3.6-3.8-4c-5.1-0.9-10.9-3.7-16.6-5.9l-0.7-3.1c-0.5-0.1-1-0.2-1.5-0.3v-4.7l0.4-0.4
	c1-1.1,1.7-2.4,1.8-3.9c0.1-0.8,0.2-1.6,0.3-2.5c0.4,0.4,1.4,0.6,1.7,0.2c0.3-0.4,0.6-0.8,0.8-1.5c0.6-2,1-4.4,1.1-7.1
	c0-1.1-0.9-1.8-1.9-1.6c0.7-5,0.6-9.2,0.1-13.4c-1.5-1.1-2.8-1.7-4.7-1.8l-1.8-2.9c-6.3-3.3-16.3-1.5-21.9,3.9
	c-0.8,3.5-0.9,8.4-0.1,14.3c-0.9-0.2-1.9,0.5-1.9,1.6c0.1,2.7,0.4,5.1,1.1,7.1c0.2,0.6,0.5,1.1,0.8,1.5c0.4,0.4,1.4,0.3,1.7-0.2
	c0.1,0.9,0.2,1.7,0.3,2.5c0.1,1.5,0.8,2.8,1.8,3.9l0.4,0.4v4.7c-0.5,0.1-1,0.2-1.5,0.3l-0.7,3.2c-5.7,2.2-11.4,5-16.6,5.9
	c-2,0.4-3.6,2-3.8,4c-0.6,4-0.9,23-0.9,23s17,10.4,33.4,10.4c16.3,0,33.7-10.4,33.7-10.4S761.5,205.8,761.1,202.9z"/>
<text transform="matrix(1 0 0 1 720.3076 221.5757)" class="st7" style="font-family:'Futura-Medium'; font-size:9.1043px;">&lt;/&gt;</text>
<circle class="st10" cx="728" cy="218.4" r="9.9"/>
<path class="st0" d="M629.2,202.9c-0.3-2-1.8-3.6-3.8-4c-5.1-0.9-10.9-3.7-16.6-5.9l-0.7-3.1c-0.5-0.1-1-0.2-1.5-0.3v-4.7l0.4-0.4
	c1-1.1,1.7-2.4,1.8-3.9c0.1-0.8,0.2-1.6,0.3-2.5c0.4,0.4,1.4,0.6,1.7,0.2c0.3-0.4,0.6-0.8,0.8-1.5c0.6-2,1-4.4,1.1-7.1
	c0-1.1-0.9-1.8-1.9-1.6c0.7-5,0.6-9.2,0.1-13.4c-1.5-1.1-2.8-1.7-4.7-1.8l-1.8-2.9c-6.3-3.3-16.3-1.5-21.9,3.9
	c-0.8,3.5-0.9,8.4-0.1,14.3c-0.9-0.2-1.9,0.5-1.9,1.6c0.1,2.7,0.4,5.1,1.1,7.1c0.2,0.6,0.5,1.1,0.8,1.5c0.4,0.4,1.4,0.3,1.7-0.2
	c0.1,0.9,0.2,1.7,0.3,2.5c0.1,1.5,0.8,2.8,1.8,3.9l0.4,0.4v4.7c-0.5,0.1-1,0.2-1.5,0.3l-0.7,3.2c-5.7,2.2-11.4,5-16.6,5.9
	c-2,0.4-3.6,2-3.8,4c-0.6,4-0.9,23-0.9,23s17,10.4,33.4,10.4s33.7-10.4,33.7-10.4S629.6,205.8,629.2,202.9z"/>
<text transform="matrix(1 0 0 1 588.3857 221.5757)" class="st7" style="font-family:'Futura-Medium'; font-size:9.1043px;">&lt;/&gt;</text>
<circle class="st10" cx="596.1" cy="218.4" r="9.9"/>
<g>
	<g>
		<g>
			<g>
				<path class="st0" d="M635,152.8C635,152.8,635,152.9,635,152.8c0,0.1,0,0.1,0,0.1c0,0,0,0,0,0.1c0,0,0,0,0,0.1c0,0,0,0,0,0.1
					c0,0,0,0,0,0.1c0,0,0,0,0,0.1c0,0,0,0,0,0.1c0,0,0,0,0,0.1c0,0,0,0,0,0.1c0,0,0,0,0,0c0.1,0.1,0.1,0.1,0.2,0.2c0,0,0,0,0,0
					c0,0,0,0,0.1,0c0,0,0,0,0.1,0c0,0,0,0,0.1,0c0,0,0,0,0.1,0c0,0,0,0,0.1,0c0,0,0,0,0.1,0c0,0,0,0,0.1,0c0,0,0,0,0.1,0
					c0,0,0,0,0.1,0c0,0,0,0,0.1,0c0,0,0,0,0.1,0c0,0,0.1,0,0.1,0l12.4,0c0.8,0,1.4-0.6,1.4-1.4c0-0.8-0.6-1.4-1.4-1.4l-9,0
					l31.8-31.8v-2l-2,0l-31.8,31.8l0-9c0-0.8-0.6-1.4-1.4-1.4c-0.4,0-0.8,0.2-1,0.4c-0.3,0.3-0.4,0.6-0.4,1v12.4
					C635,152.7,635,152.7,635,152.8C635,152.8,635,152.8,635,152.8z"/>
			</g>
		</g>
	</g>
	<g>
		<g>
			<g>
				<path class="st0" d="M694.8,95.4C694.8,95.4,694.8,95.4,694.8,95.4c0-0.1,0-0.1,0-0.1c0,0,0,0,0-0.1c0,0,0,0,0-0.1
					c0,0,0,0,0-0.1c0,0,0,0,0-0.1c0,0,0,0,0-0.1c0,0,0,0,0-0.1c0,0,0,0,0-0.1c0,0,0,0,0-0.1c0,0,0,0,0,0c-0.1-0.1-0.1-0.1-0.2-0.2
					c0,0,0,0,0,0c0,0,0,0-0.1,0c0,0,0,0-0.1,0c0,0,0,0-0.1,0c0,0,0,0-0.1,0c0,0,0,0-0.1,0c0,0,0,0-0.1,0c0,0,0,0-0.1,0
					c0,0,0,0-0.1,0c0,0,0,0-0.1,0c0,0,0,0-0.1,0c0,0,0,0-0.1,0c0,0-0.1,0-0.1,0l-12.4,0c-0.8,0-1.4,0.6-1.4,1.4
					c0,0.8,0.6,1.4,1.4,1.4l9,0l-31.8,31.8v2l2,0L692,99.1l0,9c0,0.8,0.6,1.4,1.4,1.4c0.4,0,0.8-0.2,1-0.4c0.3-0.3,0.4-0.6,0.4-1
					V95.6C694.9,95.6,694.9,95.5,694.8,95.4C694.9,95.4,694.9,95.4,694.8,95.4z"/>
			</g>
		</g>
	</g>
	<g>
		<g>
			<g>
				<path class="st0" d="M636.2,93.9C636.2,93.9,636.2,93.9,636.2,93.9c-0.1,0-0.1,0-0.1,0c0,0,0,0-0.1,0c0,0,0,0-0.1,0
					c0,0,0,0-0.1,0c0,0,0,0-0.1,0c0,0,0,0-0.1,0c0,0,0,0-0.1,0c0,0,0,0-0.1,0c0,0,0,0-0.1,0c0,0,0,0,0,0c-0.1,0.1-0.1,0.1-0.2,0.2
					c0,0,0,0,0,0c0,0,0,0,0,0.1c0,0,0,0,0,0.1c0,0,0,0,0,0.1c0,0,0,0,0,0.1c0,0,0,0,0,0.1c0,0,0,0,0,0.1c0,0,0,0,0,0.1
					c0,0,0,0,0,0.1c0,0,0,0,0,0.1c0,0,0,0,0,0.1c0,0,0,0,0,0.1c0,0,0,0.1,0,0.1l0,12.4c0,0.8,0.6,1.4,1.4,1.4c0.8,0,1.4-0.6,1.4-1.4
					l0-9l31.8,31.8h2v-2l-31.8-31.8l9,0c0.8,0,1.4-0.6,1.4-1.4c0-0.4-0.2-0.8-0.4-1c-0.3-0.3-0.6-0.4-1-0.4h-12.4
					C636.4,93.9,636.3,93.9,636.2,93.9C636.3,93.9,636.3,93.9,636.2,93.9z"/>
			</g>
		</g>
	</g>
	<g>
		<g>
			<g>
				<path class="st0" d="M693.6,153.7C693.7,153.7,693.7,153.7,693.6,153.7c0.1,0,0.1,0,0.1,0c0,0,0,0,0.1,0c0,0,0,0,0.1,0
					c0,0,0,0,0.1,0c0,0,0,0,0.1,0c0,0,0,0,0.1,0c0,0,0,0,0.1,0c0,0,0,0,0.1,0c0,0,0,0,0.1,0c0,0,0,0,0,0c0.1-0.1,0.1-0.1,0.2-0.2
					c0,0,0,0,0,0c0,0,0,0,0-0.1c0,0,0,0,0-0.1c0,0,0,0,0-0.1c0,0,0,0,0-0.1c0,0,0,0,0-0.1c0,0,0,0,0-0.1c0,0,0,0,0-0.1
					c0,0,0,0,0-0.1c0,0,0,0,0-0.1c0,0,0,0,0-0.1c0,0,0,0,0-0.1c0,0,0-0.1,0-0.1l0-12.4c0-0.8-0.6-1.4-1.4-1.4
					c-0.8,0-1.4,0.6-1.4,1.4l0,9l-31.8-31.8h-2l0,2l31.8,31.8l-9,0c-0.8,0-1.4,0.6-1.4,1.4c0,0.4,0.2,0.8,0.4,1
					c0.3,0.3,0.6,0.4,1,0.4h12.4C693.5,153.7,693.5,153.7,693.6,153.7C693.6,153.7,693.6,153.7,693.6,153.7z"/>
			</g>
		</g>
	</g>
</g>
<text transform="matrix(1 0 0 1 590.5 60.4141)" class="st0" style="font-family:'Futura-Medium'; font-size:26.3079px;">- - - - - - - - - - - </text>
<text transform="matrix(1 0 0 1 585.7021 195.8037)" class="st0" style="font-family:'Futura-Medium'; font-size:26.3079px;">- - - - - - - - - - - </text>
<g>
	<g>
		<g>
			<g>
				<path class="st11" d="M21.2,498c0,0.1,0,0.2,0,0.3c0,0.1,0,0.2,0.1,0.3c0,0.1,0,0.1,0.1,0.2c0,0.1,0.1,0.2,0.1,0.2
					c0,0.1,0.1,0.1,0.1,0.2c0,0.1,0.1,0.1,0.1,0.2c0,0.1,0.1,0.1,0.1,0.2c0,0.1,0.1,0.1,0.1,0.2c0,0.1,0.1,0.1,0.1,0.2
					c0.1,0.1,0.1,0.2,0.2,0.2c0,0.1,0.1,0.1,0.1,0.2c0.2,0.3,0.4,0.5,0.7,0.7c0.1,0,0.1,0.1,0.2,0.1c0.1,0.1,0.1,0.1,0.2,0.2
					c0.1,0,0.1,0.1,0.2,0.1c0.1,0,0.1,0.1,0.2,0.1c0.1,0,0.1,0.1,0.2,0.1c0.1,0,0.1,0.1,0.2,0.1c0.1,0,0.1,0.1,0.2,0.1
					c0.1,0,0.2,0.1,0.2,0.1c0.1,0,0.1,0,0.2,0.1c0.1,0,0.2,0,0.3,0.1c0.1,0,0.2,0,0.3,0c0.1,0,0.1,0,0.2,0c0.2,0,0.3,0,0.5,0l43.6,0
					c2.8,0,5-2.2,5-5c0-2.8-2.2-5-5-5l-31.5,0l111.3-111.3v-7.1l-7.1,0L31.2,485.2l0-31.5c0-2.8-2.2-5-5-5c-1.4,0-2.6,0.6-3.5,1.5
					c-0.9,0.9-1.5,2.2-1.5,3.5v43.6c0,0.2,0,0.3,0,0.5C21.2,497.8,21.2,497.9,21.2,498z"/>
			</g>
		</g>
	</g>
	<g>
		<g>
			<g>
				<path class="st11" d="M230.7,296.9c0-0.1,0-0.2,0-0.3c0-0.1,0-0.2-0.1-0.3c0-0.1,0-0.1-0.1-0.2c0-0.1-0.1-0.2-0.1-0.2
					c0-0.1-0.1-0.1-0.1-0.2c0-0.1-0.1-0.1-0.1-0.2c0-0.1-0.1-0.1-0.1-0.2c0-0.1-0.1-0.1-0.1-0.2c0-0.1-0.1-0.1-0.1-0.2
					c-0.1-0.1-0.1-0.2-0.2-0.2c0-0.1-0.1-0.1-0.1-0.2c-0.2-0.3-0.4-0.5-0.7-0.7c-0.1,0-0.1-0.1-0.2-0.1c-0.1-0.1-0.1-0.1-0.2-0.2
					c-0.1,0-0.1-0.1-0.2-0.1c-0.1,0-0.1-0.1-0.2-0.1c-0.1,0-0.1-0.1-0.2-0.1c-0.1,0-0.1-0.1-0.2-0.1c-0.1,0-0.1-0.1-0.2-0.1
					c-0.1,0-0.2-0.1-0.2-0.1c-0.1,0-0.1,0-0.2-0.1c-0.1,0-0.2,0-0.3-0.1c-0.1,0-0.2,0-0.3,0c-0.1,0-0.1,0-0.2,0c-0.2,0-0.3,0-0.5,0
					l-43.6,0c-2.8,0-5,2.2-5,5c0,2.8,2.2,5,5,5l31.5,0L102.4,413.9v7.1l7.1,0l111.3-111.3l0,31.5c0,2.8,2.2,5,5,5
					c1.4,0,2.6-0.6,3.5-1.5c0.9-0.9,1.5-2.2,1.5-3.5v-43.6c0-0.2,0-0.3,0-0.5C230.7,297,230.7,297,230.7,296.9z"/>
			</g>
		</g>
	</g>
	<g>
		<g>
			<g>
				<path class="st11" d="M25.4,291.6c-0.1,0-0.2,0-0.3,0c-0.1,0-0.2,0-0.3,0.1c-0.1,0-0.1,0-0.2,0.1c-0.1,0-0.2,0.1-0.2,0.1
					c-0.1,0-0.1,0.1-0.2,0.1c-0.1,0-0.1,0.1-0.2,0.1c-0.1,0-0.1,0.1-0.2,0.1c-0.1,0-0.1,0.1-0.2,0.1c-0.1,0-0.1,0.1-0.2,0.1
					c-0.1,0.1-0.2,0.1-0.2,0.2c-0.1,0-0.1,0.1-0.2,0.1c-0.3,0.2-0.5,0.4-0.7,0.7c0,0.1-0.1,0.1-0.1,0.2c-0.1,0.1-0.1,0.1-0.2,0.2
					c0,0.1-0.1,0.1-0.1,0.2c0,0.1-0.1,0.1-0.1,0.2c0,0.1-0.1,0.1-0.1,0.2c0,0.1-0.1,0.1-0.1,0.2c0,0.1-0.1,0.1-0.1,0.2
					c0,0.1-0.1,0.2-0.1,0.2c0,0.1,0,0.1-0.1,0.2c0,0.1,0,0.2-0.1,0.3c0,0.1,0,0.2,0,0.3c0,0.1,0,0.1,0,0.2c0,0.2,0,0.3,0,0.5l0,43.6
					c0,2.8,2.2,5,5,5c2.8,0,5-2.2,5-5l0-31.5l111.3,111.3h7.1l0-7.1L38.3,301.6l31.5,0c2.8,0,5-2.2,5-5c0-1.4-0.6-2.6-1.5-3.5
					c-0.9-0.9-2.2-1.5-3.5-1.5H26.2c-0.2,0-0.3,0-0.5,0C25.6,291.6,25.5,291.6,25.4,291.6z"/>
			</g>
		</g>
	</g>
	<g>
		<g>
			<g>
				<path class="st11" d="M226.5,501.1c0.1,0,0.2,0,0.3,0c0.1,0,0.2,0,0.3-0.1c0.1,0,0.1,0,0.2-0.1c0.1,0,0.2-0.1,0.2-0.1
					c0.1,0,0.1-0.1,0.2-0.1c0.1,0,0.1-0.1,0.2-0.1c0.1,0,0.1-0.1,0.2-0.1c0.1,0,0.1-0.1,0.2-0.1c0.1,0,0.1-0.1,0.2-0.1
					c0.1-0.1,0.2-0.1,0.2-0.2c0.1,0,0.1-0.1,0.2-0.1c0.3-0.2,0.5-0.4,0.7-0.7c0-0.1,0.1-0.1,0.1-0.2c0.1-0.1,0.1-0.1,0.2-0.2
					c0-0.1,0.1-0.1,0.1-0.2c0-0.1,0.1-0.1,0.1-0.2c0-0.1,0.1-0.1,0.1-0.2c0-0.1,0.1-0.1,0.1-0.2c0-0.1,0.1-0.1,0.1-0.2
					c0-0.1,0.1-0.2,0.1-0.2c0-0.1,0-0.1,0.1-0.2c0-0.1,0-0.2,0.1-0.3c0-0.1,0-0.2,0-0.3c0-0.1,0-0.1,0-0.2c0-0.2,0-0.3,0-0.5l0-43.6
					c0-2.8-2.2-5-5-5c-2.8,0-5,2.2-5,5l0,31.5L109.5,372.7h-7.1l0,7.1l111.3,111.3l-31.5,0c-2.8,0-5,2.2-5,5c0,1.4,0.6,2.6,1.5,3.5
					c0.9,0.9,2.2,1.5,3.5,1.5h43.6c0.2,0,0.3,0,0.5,0C226.4,501.1,226.4,501.1,226.5,501.1z"/>
			</g>
		</g>
	</g>
</g>
<rect x="68" y="338.9" transform="matrix(0.7071 0.7071 -0.7071 0.7071 316.665 27.503)" class="st7" width="114.2" height="114.2"/>
<g>
	<path class="st12" d="M168.8,394.6c0-1.7-0.2-3.3-0.5-5l-8.7-1.4l-2.9-8.2l5.8-6.6c-1.7-2.9-3.8-5.6-6.2-8l-7.8,3.9l-7.2-4.9
		l0.8-8.8c-3-1.3-6.1-2.2-9.4-2.8l-4.1,7.8l-8.7,0.2l-4.5-7.6c-3.3,0.8-6.5,1.9-9.5,3.4l1.3,8.7l-6.9,5.3l-8.1-3.5
		c-2.2,2.5-4.1,5.3-5.7,8.3l6.1,6.3l-2.5,8.3l-8.6,1.9c-0.2,1.7-0.2,3.5-0.2,5.3c0.1,1.6,0.2,3.2,0.4,4.8l8.7,1.5l2.9,8.2l-5.8,6.6
		c1.8,2.9,3.8,5.6,6.2,8l7.9-3.9l7.2,4.9l-0.8,8.8c3.1,1.3,6.3,2.3,9.7,2.9l4.1-7.8l8.7-0.2l4.5,7.6c3.3-0.8,6.5-1.9,9.5-3.4
		l-1.3-8.7l6.9-5.3l8.1,3.5c2.2-2.5,4.1-5.3,5.7-8.3l-6.2-6.2l2.4-8.4l8.6-1.9C168.8,398,168.9,396.3,168.8,394.6z M138.1,410.7
		c-8.1,7.1-20.5,6.4-27.7-1.8c-7.1-8.2-6.3-20.5,1.8-27.6c8.1-7.2,20.5-6.4,27.6,1.8C147,391.2,146.2,403.6,138.1,410.7z"/>
	<path class="st13" d="M146.7,377.1c-10.5-11.9-28.6-13.1-40.5-2.6c-11.9,10.5-13.1,28.6-2.6,40.5c10.4,11.9,28.6,13.1,40.5,2.6
		C156,407.1,157.1,388.9,146.7,377.1z M142.2,415.4c-10.7,9.4-27.1,8.4-36.5-2.4c-9.5-10.7-8.4-27.1,2.3-36.5
		c10.7-9.4,27.1-8.4,36.5,2.4C154,389.6,152.9,406,142.2,415.4z"/>
</g>
<g>
	<g>
		<path class="st14" d="M515.2,462.6c0-26.3-8.5-50.7-22.8-70.6l0,0c-0.2-0.3-0.5-0.7-0.7-1l0,0c-22.1-29.9-57.6-49.4-97.5-49.4
			c-12.8,0-25.2,2-36.8,5.7l0,0c-0.1,0-0.3,0.1-0.4,0.1c-24.4,7.9-45.4,23.4-60.3,43.6l0,0c-0.2,0.3-0.5,0.7-0.7,1v0
			c-14.3,19.9-22.8,44.3-22.8,70.6h3.2h20.1c0,0,0,0,0,0l0,0h3.1h13h39h85.3h39h13h3.1c0,0,0,0,0,0h20.1H515.2z"/>
		<path class="st14" d="M494.3,505.1H294c-11.6,0-20.9-9.4-20.9-20.9v-21.5h242.2v21.5C515.2,495.7,505.8,505.1,494.3,505.1z"/>
		<path class="st14" d="M276.2,487v-24.4h235.8V487c0,8.4-6.8,15.2-15.2,15.2H291.4C283,502.2,276.2,495.4,276.2,487z"/>
		<path class="st14" d="M347.5,462.6c4.3,0,8-3.1,8.9-7.3c3.7-17.5,19.2-30.6,37.8-30.6c18.6,0,34.1,13.1,37.8,30.6
			c0.9,4.2,4.6,7.3,8.9,7.3h74.4c0-66.8-54.3-121.1-121.1-121.1s-121.1,54.3-121.1,121.1H347.5z"/>
		<path class="st15" d="M343.1,462.6c6.5,0,12.2-4.3,14-10.5c4.8-15.9,19.5-27.4,36.9-27.4c17.4,0,32.1,11.6,36.9,27.4
			c1.9,6.2,7.6,10.5,14,10.5h59.9c3.9,0,7-3.3,6.8-7.2c-3.7-61.8-55-110.7-117.7-110.7s-114,49-117.7,110.7
			c-0.2,3.9,2.9,7.2,6.8,7.2H343.1z"/>
		<g>
			<g>
				<path class="st16" d="M296.3,462.7h55.2c4,0,7.4-2.8,8.2-6.6c1-5.1,3.1-9.9,6.1-14L315,405.1
					C303.2,421.3,296.3,441.2,296.3,462.7z"/>
				<path class="st17" d="M363.9,369.6l19.4,59.7c3.4-1.1,7.1-1.7,10.8-1.7c3.8,0,7.4,0.6,10.8,1.7l19.4-59.7
					c-9.5-3.1-19.7-4.8-30.2-4.8C383.6,364.8,373.4,366.5,363.9,369.6z"/>
				<path class="st18" d="M424.4,369.6L405,429.3c7.1,2.3,13.2,6.8,17.5,12.8l50.8-36.9C461.3,388.6,444.2,376,424.4,369.6z"/>
				<path class="st19" d="M315,405.1l50.8,36.9c4.3-5.9,10.4-10.4,17.5-12.8l-19.4-59.7C344.1,376,327,388.6,315,405.1z"/>
				<path class="st20" d="M422.5,442c3,4.1,5.1,8.8,6.1,14c0.7,3.9,4.2,6.6,8.2,6.6H492c0-21.5-6.9-41.4-18.7-57.5L422.5,442z"/>
				<defs>
					<filter id="Adobe_OpacityMaskFilter" filterUnits="userSpaceOnUse" x="296.3" y="364.8" width="195.7" height="97.8">
						<feFlood  style="flood-color:white;flood-opacity:1" result="back"/>
						<feBlend  in="SourceGraphic" in2="back" mode="normal"/>
					</filter>
				</defs>
				<mask maskUnits="userSpaceOnUse" x="296.3" y="364.8" width="195.7" height="97.8" id="SVGID_1_">
					<g class="st21">
						<defs>
							<filter id="Adobe_OpacityMaskFilter_1_" filterUnits="userSpaceOnUse" x="296.3" y="364.8" width="195.7" height="97.8">
								<feFlood  style="flood-color:white;flood-opacity:1" result="back"/>
								<feBlend  in="SourceGraphic" in2="back" mode="normal"/>
							</filter>
						</defs>
						<mask maskUnits="userSpaceOnUse" x="296.3" y="364.8" width="195.7" height="97.8" id="SVGID_1_">
							<g class="st22">
							</g>
						</mask>
						
							<radialGradient id="SVGID_2_" cx="393.7742" cy="480.5123" r="106.9264" gradientTransform="matrix(0.92 0 0 0.92 31.6 20.8)" gradientUnits="userSpaceOnUse">
							<stop  offset="0" style="stop-color:#1A1A1A"/>
							<stop  offset="1" style="stop-color:#333333"/>
						</radialGradient>
						<path class="st23" d="M424.4,369.6c-9.5-3.1-19.7-4.8-30.2-4.8c-10.6,0-20.7,1.7-30.2,4.8c-19.8,6.4-36.9,19-48.9,35.6
							c-11.7,16.1-18.7,36-18.7,57.5h3.1c0-20.2,6.3-39.4,18.1-55.7c11.7-16.1,28.5-28.3,47.3-34.4c9.4-3.1,19.3-4.6,29.3-4.6
							c10,0,19.8,1.6,29.3,4.6c18.8,6.1,35.6,18.3,47.3,34.4c11.8,16.3,18.1,35.5,18.1,55.7h3.1c0-21.5-6.9-41.4-18.7-57.5
							C461.3,388.6,444.2,376,424.4,369.6z"/>
					</g>
				</mask>
				
					<radialGradient id="SVGID_3_" cx="393.7742" cy="480.5123" r="106.9264" gradientTransform="matrix(0.92 0 0 0.92 31.6 20.8)" gradientUnits="userSpaceOnUse">
					<stop  offset="0.95" style="stop-color:#FFFFFF"/>
					<stop  offset="1" style="stop-color:#000000"/>
				</radialGradient>
				<path class="st24" d="M424.4,369.6c-9.5-3.1-19.7-4.8-30.2-4.8c-10.6,0-20.7,1.7-30.2,4.8c-19.8,6.4-36.9,19-48.9,35.6
					c-11.7,16.1-18.7,36-18.7,57.5h3.1c0-20.2,6.3-39.4,18.1-55.7c11.7-16.1,28.5-28.3,47.3-34.4c9.4-3.1,19.3-4.6,29.3-4.6
					c10,0,19.8,1.6,29.3,4.6c18.8,6.1,35.6,18.3,47.3,34.4c11.8,16.3,18.1,35.5,18.1,55.7h3.1c0-21.5-6.9-41.4-18.7-57.5
					C461.3,388.6,444.2,376,424.4,369.6z"/>
				<g>
					<g>
						<circle class="st20" cx="464.8" cy="441" r="13.9"/>
						<path class="st25" d="M464.8,426.5c-8,0-14.5,6.5-14.5,14.5c0,8,6.5,14.5,14.5,14.5c8,0,14.5-6.5,14.5-14.5
							C479.3,433,472.8,426.5,464.8,426.5z M464.8,454.3c-7.3,0-13.3-6-13.3-13.3s6-13.3,13.3-13.3c7.3,0,13.3,6,13.3,13.3
							S472.1,454.3,464.8,454.3z"/>
					</g>
					<g>
						<path class="st20" d="M456.6,433c-2,2.1-3.3,4.9-3.3,8.1L456.6,433z"/>
						<path class="st25" d="M456.1,432.5c-2.2,2.3-3.5,5.3-3.5,8.5c0,0.3,0.3,0.6,0.6,0.6c0.3,0,0.6-0.3,0.6-0.6
							c0-2.9,1.1-5.6,3.1-7.7c0.2-0.2,0.2-0.6,0-0.8C456.7,432.3,456.4,432.3,456.1,432.5z"/>
					</g>
					<g>
						<path class="st20" d="M476.4,441l-3.1,7.8C475.2,446.8,476.4,444,476.4,441z"/>
						<path class="st25" d="M476.4,440.4c-0.3,0-0.6,0.3-0.6,0.6c0,2.8-1,5.4-2.9,7.4c-0.2,0.2-0.2,0.6,0,0.8
							c0.1,0.1,0.3,0.2,0.4,0.2c0.2,0,0.3-0.1,0.4-0.2c2.1-2.2,3.2-5.2,3.2-8.2C476.9,440.7,476.7,440.4,476.4,440.4z"/>
					</g>
					<g>
						<circle class="st26" cx="460" cy="438.7" r="1.3"/>
						<circle class="st26" cx="469.6" cy="438.7" r="1.3"/>
						<path class="st27" d="M460,437.4c-0.7,0-1.3,0.6-1.3,1.3c0,0.1,0,0.1,0,0.2c0.1-0.6,0.6-1.1,1.3-1.1c0.7,0,1.2,0.5,1.3,1.1
							c0-0.1,0-0.1,0-0.2C461.3,438,460.7,437.4,460,437.4z"/>
						<path class="st27" d="M469.6,437.4c-0.7,0-1.3,0.6-1.3,1.3c0,0.1,0,0.1,0,0.2c0.1-0.6,0.6-1.1,1.3-1.1c0.7,0,1.2,0.5,1.3,1.1
							c0-0.1,0-0.1,0-0.2C470.9,438,470.4,437.4,469.6,437.4z"/>
					</g>
					<g>
						<path class="st26" d="M460,444.5c-0.6,1.6,0.6,3.4,2.6,3.7c1.5,0.2,2.9,0.2,4.4,0c2.1-0.2,3.2-2.1,2.6-3.7
							C466.5,445.5,463.1,445.5,460,444.5z"/>
						<path class="st27" d="M468.3,444.9c0,1.4-1.2,2.7-2.9,2.7c-1.4,0-2.8-0.1-4.2-0.4c-0.3-0.1-0.5-0.2-0.8-0.3
							c0.5,0.6,1.3,1.1,2.2,1.2c1.5,0.2,2.9,0.2,4.4,0c2.1-0.2,3.2-2.1,2.6-3.7C469.2,444.7,468.7,444.8,468.3,444.9z"/>
					</g>
				</g>
				<g>
					<g>
						<circle class="st18" cx="434.4" cy="404.8" r="13.9"/>
						<path class="st28" d="M434.4,390.3c-8,0-14.5,6.5-14.5,14.5c0,8,6.5,14.5,14.5,14.5c8,0,14.5-6.5,14.5-14.5
							C448.9,396.8,442.4,390.3,434.4,390.3z M434.4,418.1c-7.3,0-13.3-6-13.3-13.3c0-7.3,6-13.3,13.3-13.3c7.3,0,13.3,6,13.3,13.3
							C447.7,412.2,441.7,418.1,434.4,418.1z"/>
					</g>
					<g>
						<path class="st28" d="M425.7,396.3c-2.2,2.3-3.5,5.3-3.5,8.5c0,0.3,0.3,0.6,0.6,0.6c0.3,0,0.6-0.3,0.6-0.6
							c0-2.9,1.1-5.6,3.1-7.7c0.2-0.2,0.2-0.6,0-0.8C426.3,396.1,426,396.1,425.7,396.3z"/>
					</g>
					<g>
						<path class="st28" d="M445.9,404.2c-0.3,0-0.6,0.3-0.6,0.6c0,2.8-1,5.4-2.9,7.4c-0.2,0.2-0.2,0.6,0,0.8
							c0.1,0.1,0.3,0.2,0.4,0.2c0.2,0,0.3-0.1,0.4-0.2c2.1-2.2,3.2-5.2,3.2-8.2C446.5,404.5,446.3,404.2,445.9,404.2z"/>
					</g>
					<g>
						<circle class="st29" cx="429.6" cy="402.5" r="1.3"/>
						<circle class="st29" cx="439.2" cy="402.5" r="1.3"/>
						<path class="st30" d="M429.6,401.2c-0.7,0-1.3,0.6-1.3,1.3c0,0.1,0,0.1,0,0.2c0.1-0.6,0.6-1.1,1.3-1.1c0.7,0,1.2,0.5,1.3,1.1
							c0-0.1,0-0.1,0-0.2C430.9,401.8,430.3,401.2,429.6,401.2z"/>
						<path class="st30" d="M439.2,401.2c-0.7,0-1.3,0.6-1.3,1.3c0,0.1,0,0.1,0,0.2c0.1-0.6,0.6-1.1,1.3-1.1s1.2,0.5,1.3,1.1
							c0-0.1,0-0.1,0-0.2C440.5,401.8,440,401.2,439.2,401.2z"/>
					</g>
					<g>
						<path class="st29" d="M432.6,411.3h3.6c1.7,0,3-1.4,3-3h-9.7C429.6,410,430.9,411.3,432.6,411.3z"/>
						<path class="st30" d="M434.9,410.6h-3.6c-0.2,0-0.5,0-0.7-0.1c0.5,0.5,1.2,0.8,2,0.8h3.6c1.7,0,3-1.4,3-3h-1.4
							C437.5,409.6,436.3,410.6,434.9,410.6z"/>
					</g>
				</g>
				<g>
					<g>
						<circle class="st17" cx="393.5" cy="391.2" r="13.9"/>
						<path class="st31" d="M393.5,376.8c-8,0-14.5,6.5-14.5,14.5c0,8,6.5,14.5,14.5,14.5c8,0,14.5-6.5,14.5-14.5
							C408,383.3,401.5,376.8,393.5,376.8z M393.5,404.6c-7.3,0-13.3-6-13.3-13.3c0-7.3,6-13.3,13.3-13.3c7.3,0,13.3,6,13.3,13.3
							C406.9,398.6,400.9,404.6,393.5,404.6z"/>
					</g>
					<g>
						<path class="st31" d="M384.9,382.8c-2.2,2.3-3.5,5.3-3.5,8.5c0,0.3,0.3,0.6,0.6,0.6s0.6-0.3,0.6-0.6c0-2.9,1.1-5.6,3.1-7.7
							c0.2-0.2,0.2-0.6,0-0.8C385.5,382.5,385.1,382.5,384.9,382.8z"/>
					</g>
					<g>
						<path class="st31" d="M405.1,390.7c-0.3,0-0.6,0.3-0.6,0.6c0,2.8-1,5.4-2.9,7.4c-0.2,0.2-0.2,0.6,0,0.8
							c0.1,0.1,0.3,0.2,0.4,0.2c0.2,0,0.3-0.1,0.4-0.2c2.1-2.2,3.2-5.2,3.2-8.2C405.7,390.9,405.4,390.7,405.1,390.7z"/>
					</g>
					<g>
						<circle class="st32" cx="388.7" cy="388.9" r="1.3"/>
						<circle class="st32" cx="398.4" cy="388.9" r="1.3"/>
						<path class="st33" d="M388.7,387.6c-0.7,0-1.3,0.6-1.3,1.3c0,0.1,0,0.1,0,0.2c0.1-0.6,0.6-1.1,1.3-1.1c0.7,0,1.2,0.5,1.3,1.1
							c0-0.1,0-0.1,0-0.2C390,388.2,389.4,387.6,388.7,387.6z"/>
						<path class="st33" d="M398.4,387.6c-0.7,0-1.3,0.6-1.3,1.3c0,0.1,0,0.1,0,0.2c0.1-0.6,0.6-1.1,1.3-1.1c0.7,0,1.2,0.5,1.3,1.1
							c0-0.1,0-0.1,0-0.2C399.7,388.2,399.1,387.6,398.4,387.6z"/>
					</g>
					<g>
						<path class="st32" d="M396.9,394.7h-6.6c-0.8,0-1.5,0.7-1.5,1.5s0.7,1.5,1.5,1.5h6.6c0.8,0,1.5-0.7,1.5-1.5
							S397.7,394.7,396.9,394.7z"/>
						<path class="st33" d="M396.9,394.7h-6.6c-0.8,0-1.5,0.7-1.5,1.5c0,0.2,0,0.4,0.1,0.5c0.2-0.6,0.8-1,1.4-1h6.6
							c0.7,0,1.2,0.4,1.4,1c0.1-0.2,0.1-0.3,0.1-0.5C398.4,395.4,397.7,394.7,396.9,394.7z"/>
					</g>
				</g>
				<g>
					<g>
						<circle class="st19" cx="351.9" cy="405.8" r="13.9"/>
						<path class="st33" d="M351.9,391.3c-8,0-14.5,6.5-14.5,14.5c0,8,6.5,14.5,14.5,14.5c8,0,14.5-6.5,14.5-14.5
							C366.4,397.8,359.9,391.3,351.9,391.3z M351.9,419.1c-7.3,0-13.3-6-13.3-13.3c0-7.3,6-13.3,13.3-13.3c7.3,0,13.3,6,13.3,13.3
							C365.2,413.2,359.3,419.1,351.9,419.1z"/>
					</g>
					<g>
						<path class="st34" d="M343.3,397.3c-2.2,2.3-3.5,5.3-3.5,8.5c0,0.3,0.3,0.6,0.6,0.6c0.3,0,0.6-0.3,0.6-0.6
							c0-2.9,1.1-5.6,3.1-7.7c0.2-0.2,0.2-0.6,0-0.8C343.9,397.1,343.5,397.1,343.3,397.3z"/>
					</g>
					<g>
						<path class="st34" d="M363.5,405.2c-0.3,0-0.6,0.3-0.6,0.6c0,2.8-1,5.4-2.9,7.4c-0.2,0.2-0.2,0.6,0,0.8
							c0.1,0.1,0.3,0.2,0.4,0.2c0.2,0,0.3-0.1,0.4-0.2c2.1-2.2,3.2-5.2,3.2-8.2C364.1,405.5,363.8,405.2,363.5,405.2z"/>
					</g>
					<g>
						<circle class="st35" cx="347.1" cy="403.5" r="1.3"/>
						<circle class="st35" cx="356.8" cy="403.5" r="1.3"/>
						<path class="st36" d="M347.1,402.2c-0.7,0-1.3,0.6-1.3,1.3c0,0.1,0,0.1,0,0.2c0.1-0.6,0.6-1.1,1.3-1.1c0.7,0,1.2,0.5,1.3,1.1
							c0-0.1,0-0.1,0-0.2C348.4,402.8,347.8,402.2,347.1,402.2z"/>
						<path class="st36" d="M356.8,402.2c-0.7,0-1.3,0.6-1.3,1.3c0,0.1,0,0.1,0,0.2c0.1-0.6,0.6-1.1,1.3-1.1c0.7,0,1.2,0.5,1.3,1.1
							c0-0.1,0-0.1,0-0.2C358.1,402.8,357.5,402.2,356.8,402.2z"/>
					</g>
					<g>
						<path class="st35" d="M353.7,409.3h-3.6c-1.7,0-3,1.4-3,3h9.7C356.8,410.6,355.4,409.3,353.7,409.3z"/>
						<path class="st36" d="M350.1,409.3c-1.7,0-3,1.4-3,3h1.4c0.3-1.3,1.5-2.3,2.9-2.3h3.6c0.2,0,0.5,0,0.7,0.1
							c-0.5-0.5-1.2-0.8-2-0.8H350.1z"/>
					</g>
				</g>
				<g>
					<g>
						<circle class="st16" cx="323.5" cy="441" r="13.9"/>
						<path class="st37" d="M323.5,426.5c-8,0-14.5,6.5-14.5,14.5c0,8,6.5,14.5,14.5,14.5c8,0,14.5-6.5,14.5-14.5
							C338,433,331.5,426.5,323.5,426.5z M323.5,454.3c-7.3,0-13.3-6-13.3-13.3s6-13.3,13.3-13.3c7.3,0,13.3,6,13.3,13.3
							S330.8,454.3,323.5,454.3z"/>
					</g>
					<g>
						<path class="st37" d="M314.8,432.5c-2.2,2.3-3.5,5.3-3.5,8.5c0,0.3,0.3,0.6,0.6,0.6s0.6-0.3,0.6-0.6c0-2.9,1.1-5.6,3.1-7.7
							c0.2-0.2,0.2-0.6,0-0.8C315.4,432.3,315,432.3,314.8,432.5z"/>
					</g>
					<g>
						<path class="st37" d="M335,440.4c-0.3,0-0.6,0.3-0.6,0.6c0,2.8-1,5.4-2.9,7.4c-0.2,0.2-0.2,0.6,0,0.8c0.1,0.1,0.3,0.2,0.4,0.2
							c0.2,0,0.3-0.1,0.4-0.2c2.1-2.2,3.2-5.2,3.2-8.2C335.6,440.7,335.3,440.4,335,440.4z"/>
					</g>
					<g>
						<circle class="st38" cx="318.6" cy="438.7" r="1.3"/>
						<circle class="st38" cx="328.3" cy="438.7" r="1.3"/>
						<path class="st39" d="M318.6,437.4c-0.7,0-1.3,0.6-1.3,1.3c0,0.1,0,0.1,0,0.2c0.1-0.6,0.6-1.1,1.3-1.1c0.7,0,1.2,0.5,1.3,1.1
							c0-0.1,0-0.1,0-0.2C319.9,438,319.4,437.4,318.6,437.4z"/>
						<path class="st39" d="M328.3,437.4c-0.7,0-1.3,0.6-1.3,1.3c0,0.1,0,0.1,0,0.2c0.1-0.6,0.6-1.1,1.3-1.1c0.7,0,1.2,0.5,1.3,1.1
							c0-0.1,0-0.1,0-0.2C329.6,438,329,437.4,328.3,437.4z"/>
					</g>
					<g>
						<path class="st38" d="M325.7,443.9c-1.5-0.2-2.9-0.2-4.4,0c-2.1,0.2-3.2,2.1-2.6,3.7c3.1-1,6.5-1,9.7,0
							C328.9,446,327.7,444.1,325.7,443.9z"/>
						<path class="st39" d="M325.7,443.9c-1.5-0.2-2.9-0.2-4.4,0c-2.1,0.2-3.2,2.1-2.6,3.7c0.5-0.1,0.9-0.3,1.4-0.4
							c0-1.4,1.2-2.7,2.9-2.7c1.4,0,2.8,0.1,4.2,0.4c0.3,0.1,0.5,0.2,0.8,0.3C327.4,444.4,326.6,444,325.7,443.9z"/>
					</g>
				</g>
			</g>
		</g>
		<g>
			<g>
				<path class="st40" d="M379.5,354.9c0,0.3,0,0.5-0.1,0.7c-0.1,0.2-0.2,0.2-0.4,0.3c-0.2,0-0.4,0-0.5-0.1
					c-0.1-0.1-0.2-0.3-0.3-0.6c-0.2-1.5-0.4-2.3-0.6-3.8c0-0.3,0-0.5,0.1-0.6c0.1-0.1,0.2-0.2,0.4-0.3c0.1,0,0.3,0,0.4,0
					c0.1,0,0.2,0.1,0.4,0.3c1.1,1,1.7,1.6,2.7,2.7c-0.1-1-0.2-1.5-0.3-2.5c0-0.3,0-0.5,0.1-0.7c0.1-0.2,0.2-0.2,0.5-0.3
					c0.2,0,0.4,0,0.5,0.2c0.1,0.1,0.2,0.3,0.2,0.6c0.2,1.6,0.3,2.3,0.4,3.9c0,0.3,0,0.5-0.1,0.6c-0.1,0.1-0.2,0.2-0.4,0.2
					c-0.1,0-0.3,0-0.4-0.1c-0.1-0.1-0.2-0.2-0.4-0.3c-1-1.1-1.6-1.6-2.6-2.6C379.3,353.4,379.3,353.9,379.5,354.9z"/>
				<path class="st40" d="M383.5,352.5c-0.1-0.8,0.1-1.6,0.6-2.1c0.5-0.6,1.1-0.9,2-1c0.8-0.1,1.5,0.2,2.1,0.7
					c0.5,0.5,0.8,1.2,0.9,2c0,0.9-0.2,1.5-0.6,2.1c-0.5,0.5-1.1,0.8-1.9,0.9c-0.8,0.1-1.5-0.1-2-0.6
					C383.9,354,383.6,353.3,383.5,352.5z M384.9,352.4c0,0.5,0.2,0.9,0.5,1.2c0.3,0.3,0.6,0.4,1,0.4c0.4,0,0.7-0.2,0.9-0.5
					c0.2-0.3,0.3-0.7,0.3-1.2c0-0.5-0.2-0.9-0.4-1.2c-0.3-0.3-0.6-0.4-1-0.4c-0.4,0-0.7,0.2-1,0.5
					C384.9,351.4,384.8,351.9,384.9,352.4z"/>
				<path class="st40" d="M390.9,352.6c0,0.5,0,0.8,0,1.3c0,0.3,0,0.5-0.1,0.7c-0.1,0.1-0.2,0.2-0.5,0.2c-0.2,0-0.4-0.1-0.5-0.2
					c-0.1-0.1-0.2-0.4-0.2-0.6c-0.1-1.5-0.1-2.2-0.1-3.7c0-0.3,0-0.6,0.2-0.7c0.1-0.1,0.4-0.2,0.7-0.2c0.4,0,0.6,0,1,0
					c0.7,0,1.2,0.1,1.6,0.4c0.4,0.3,0.6,0.7,0.6,1.2c0,0.4-0.1,0.7-0.4,1c-0.2,0.3-0.6,0.4-1,0.5c0.4,0.4,0.6,0.6,1,1.1
					c0.1,0.1,0.2,0.3,0.3,0.4c0.1,0.1,0.1,0.2,0.1,0.3c0,0.2-0.1,0.3-0.2,0.4c-0.1,0.1-0.3,0.2-0.4,0.2c-0.1,0-0.2,0-0.3-0.1
					c-0.1-0.1-0.2-0.2-0.4-0.3C391.8,353.6,391.5,353.3,390.9,352.6z M390.9,351.8c0.2,0,0.4,0,0.6,0c0.3,0,0.5-0.1,0.6-0.2
					c0.1-0.1,0.2-0.3,0.2-0.5c0-0.2-0.1-0.4-0.2-0.5c-0.1-0.1-0.3-0.2-0.6-0.2c-0.2,0-0.4,0-0.6,0
					C390.9,351,390.9,351.2,390.9,351.8z"/>
				<path class="st40" d="M394,353.7c0.3-1.5,0.4-2.2,0.7-3.7c0.1-0.3,0.2-0.5,0.3-0.6c0.1-0.1,0.3-0.2,0.6-0.2
					c0.2,0,0.4,0.1,0.6,0.2c0.1,0.1,0.2,0.3,0.3,0.6c0.3,1.3,0.5,1.9,0.7,3.2c0.4-1.3,0.5-1.9,0.9-3.2c0.1-0.2,0.2-0.4,0.3-0.5
					c0.2-0.1,0.3-0.2,0.6-0.2c0.3,0,0.5,0.1,0.6,0.2c0.1,0.1,0.2,0.4,0.3,0.7c0.2,1.5,0.2,2.2,0.4,3.7c0,0.1,0,0.1,0,0.2
					c0,0.1,0,0.1,0,0.1c0,0.2-0.1,0.3-0.2,0.5c-0.1,0.1-0.3,0.2-0.5,0.1c-0.2,0-0.3-0.1-0.4-0.2c-0.1-0.1-0.1-0.3-0.2-0.5
					c-0.1-1.3-0.1-1.9-0.2-3.2c-0.4,1.3-0.6,2.2-0.8,2.7c-0.2,0.5-0.3,0.8-0.4,1c-0.1,0.1-0.1,0.1-0.2,0.2c-0.1,0-0.2,0-0.3,0
					c-0.2,0-0.4-0.1-0.5-0.2c-0.1-0.1-0.2-0.3-0.2-0.5c-0.3-1.3-0.4-2-0.7-3.3c-0.2,1.3-0.3,1.9-0.5,3.1c0,0.3-0.1,0.5-0.2,0.6
					c-0.1,0.1-0.3,0.2-0.4,0.2c-0.2,0-0.3-0.1-0.4-0.2c-0.1-0.1-0.2-0.3-0.2-0.5c0,0,0-0.1,0-0.2C394,353.9,394,353.8,394,353.7z"/>
				<path class="st40" d="M401.8,354c-0.1,0.2-0.1,0.3-0.2,0.5c-0.1,0.2-0.2,0.3-0.3,0.4c-0.1,0.1-0.2,0.1-0.4,0.1
					c-0.2,0-0.3-0.1-0.4-0.2c-0.1-0.1-0.1-0.3-0.1-0.4c0-0.1,0-0.1,0-0.2c0-0.1,0-0.1,0.1-0.2c0.7-1.5,1-2.2,1.7-3.7
					c0.1-0.3,0.3-0.5,0.5-0.6c0.2-0.1,0.4-0.2,0.6-0.1c0.2,0,0.4,0.1,0.6,0.2c0.2,0.1,0.3,0.3,0.3,0.6c0.4,1.6,0.6,2.4,1,4
					c0,0.1,0,0.2,0,0.2c0,0.1,0,0.1,0,0.2c0,0.2-0.1,0.3-0.2,0.4c-0.1,0.1-0.3,0.1-0.5,0.1c-0.2,0-0.3-0.1-0.4-0.2
					c-0.1-0.1-0.2-0.3-0.2-0.5c0-0.2-0.1-0.3-0.1-0.5C403,354.1,402.6,354.1,401.8,354z M402.3,352.9c0.5,0,0.8,0.1,1.3,0.1
					c-0.2-0.8-0.3-1.2-0.4-2C402.8,351.8,402.6,352.1,402.3,352.9z"/>
				<path class="st40" d="M406.2,350.9c0-0.3,0.1-0.5,0.2-0.6c0.1-0.1,0.3-0.2,0.5-0.2c0.2,0,0.4,0.1,0.5,0.3
					c0.1,0.2,0.1,0.4,0.1,0.7c-0.2,1.4-0.3,2-0.5,3.4c0.4,0.1,0.6,0.1,1,0.1c0.3,0,0.5,0.1,0.6,0.2c0.1,0.1,0.2,0.3,0.1,0.5
					c0,0.2-0.1,0.3-0.3,0.4c-0.2,0.1-0.4,0.1-0.7,0c-0.6-0.1-0.9-0.1-1.4-0.2c-0.3,0-0.5-0.1-0.6-0.2c-0.1-0.1-0.1-0.3-0.1-0.6
					C405.9,353.1,406,352.4,406.2,350.9z"/>
			</g>
		</g>
		<g>
			<g>
				<path class="st40" d="M451.6,369.1c-0.2-0.1-0.2-0.1-0.4-0.2c-0.3-0.1-0.4-0.3-0.5-0.4c-0.1-0.1-0.1-0.3,0-0.5
					c0.1-0.2,0.2-0.3,0.4-0.3c0.2,0,0.4,0.1,0.7,0.2c0.3,0.2,0.5,0.3,0.8,0.5c0.3,0.2,0.4,0.3,0.5,0.5s0,0.4-0.1,0.6
					c-0.4,0.7-0.9,1.1-1.5,1.3c-0.6,0.2-1.3,0.1-2-0.3c-0.7-0.4-1.1-0.9-1.3-1.6c-0.2-0.7-0.1-1.4,0.2-2.2c0.4-0.8,0.9-1.3,1.6-1.5
					c0.7-0.2,1.5-0.1,2.3,0.3c0.5,0.3,0.9,0.6,1.2,1c0.3,0.4,0.3,0.7,0.2,1c-0.1,0.1-0.2,0.2-0.3,0.3c-0.2,0-0.3,0-0.4,0
					c-0.1,0-0.2-0.2-0.4-0.5c-0.2-0.3-0.4-0.5-0.7-0.7c-0.4-0.2-0.8-0.2-1.1-0.1c-0.4,0.1-0.7,0.4-0.9,0.9c-0.2,0.5-0.3,0.9-0.2,1.3
					c0.1,0.4,0.3,0.7,0.7,0.9c0.3,0.2,0.6,0.2,0.8,0.1C451.2,369.5,451.4,369.4,451.6,369.1z"/>
				<path class="st40" d="M453.4,369.4c0.4-0.7,1-1.2,1.7-1.4c0.7-0.2,1.4,0,2.2,0.4c0.7,0.5,1.2,1.1,1.3,1.8c0.1,0.7,0,1.4-0.5,2.1
					c-0.5,0.7-1.1,1.1-1.8,1.3c-0.7,0.2-1.4,0-2-0.4c-0.7-0.4-1.1-1-1.2-1.7C452.9,370.9,453,370.2,453.4,369.4z M454.6,370.2
					c-0.3,0.4-0.4,0.8-0.3,1.2c0.1,0.4,0.2,0.7,0.6,0.9c0.3,0.2,0.7,0.3,1.1,0.1c0.4-0.1,0.7-0.4,1-0.8c0.3-0.4,0.4-0.8,0.4-1.2
					c0-0.4-0.2-0.7-0.6-0.9c-0.4-0.2-0.7-0.3-1.1-0.2C455.2,369.4,454.9,369.7,454.6,370.2z"/>
				<path class="st40" d="M458.4,372.7c0.5-0.7,1.1-1.1,1.8-1.2c0.7-0.1,1.4,0.1,2.1,0.6c0.7,0.5,1.1,1.2,1.1,1.9
					c0.1,0.7-0.2,1.4-0.7,2.1c-0.5,0.7-1.2,1-1.9,1.1c-0.7,0.1-1.4-0.1-2-0.6c-0.6-0.5-1-1.1-1.1-1.8
					C457.8,374.1,457.9,373.4,458.4,372.7z M459.6,373.5c-0.3,0.4-0.4,0.8-0.4,1.2s0.2,0.7,0.5,0.9c0.3,0.2,0.7,0.3,1,0.2
					c0.4-0.1,0.7-0.3,1-0.7c0.3-0.4,0.5-0.8,0.5-1.2c0-0.4-0.2-0.7-0.5-1c-0.3-0.3-0.7-0.3-1.1-0.2
					C460.2,372.8,459.9,373.1,459.6,373.5z"/>
				<path class="st40" d="M466.6,375.7c0.3,0.2,0.5,0.5,0.7,0.7c0.2,0.2,0.3,0.5,0.4,0.7c0.1,0.4,0.1,0.9,0,1.3s-0.3,0.8-0.7,1.2
					c-0.6,0.6-1.2,0.9-1.9,1c-0.7,0-1.3-0.2-1.9-0.8c-0.3-0.3-0.5-0.4-0.8-0.7c-0.2-0.2-0.4-0.4-0.4-0.6c0-0.2,0.1-0.4,0.3-0.6
					c1-1.1,1.4-1.7,2.4-2.9c0.2-0.3,0.4-0.4,0.6-0.4c0.2,0,0.4,0.1,0.7,0.3C466.1,375.3,466.3,375.4,466.6,375.7z M463.3,378.5
					c0.2,0.1,0.3,0.2,0.4,0.4c0.4,0.3,0.7,0.5,1.1,0.5c0.4,0,0.7-0.2,1.1-0.6c0.3-0.4,0.5-0.7,0.5-1.1c0-0.4-0.2-0.7-0.6-1.1
					c-0.2-0.2-0.3-0.2-0.4-0.4C464.6,377.1,464.2,377.5,463.3,378.5z"/>
			</g>
		</g>
		<g>
			<g>
				<path class="st40" d="M324.7,380.3c-0.2,0.2-0.4,0.3-0.6,0.3c-0.2,0-0.3-0.1-0.6-0.3c-1.1-1.1-1.6-1.6-2.7-2.6
					c-0.2-0.2-0.3-0.4-0.3-0.6c0-0.2,0.1-0.4,0.4-0.7c0.3-0.3,0.5-0.5,0.8-0.8c0.4-0.4,0.9-0.6,1.3-0.7c0.4,0,0.7,0.1,1,0.4
					c0.2,0.2,0.3,0.4,0.3,0.6c0,0.2,0,0.4-0.1,0.7c0.3-0.2,0.7-0.3,1-0.2c0.3,0,0.6,0.2,0.8,0.5c0.3,0.4,0.5,0.8,0.4,1.2
					c-0.1,0.4-0.3,0.9-0.8,1.3C325.3,379.8,325.1,380,324.7,380.3z M322.8,377.6c0.2-0.2,0.2-0.2,0.4-0.4c0.1-0.1,0.2-0.3,0.3-0.4
					c0-0.2,0-0.3-0.1-0.4c-0.1-0.1-0.2-0.2-0.4-0.2c-0.2,0-0.3,0.1-0.5,0.2c-0.2,0.2-0.2,0.2-0.4,0.4
					C322.3,377.2,322.5,377.3,322.8,377.6z M324.3,379.3c0.2-0.2,0.3-0.3,0.5-0.4c0.2-0.2,0.3-0.4,0.4-0.5c0-0.2,0-0.3-0.1-0.5
					c-0.1-0.2-0.3-0.2-0.5-0.2c-0.2,0-0.4,0.1-0.6,0.4c-0.2,0.2-0.3,0.3-0.5,0.4C323.8,378.7,324,378.9,324.3,379.3z"/>
				<path class="st40" d="M327.7,376.4c0.1,0.2,0.1,0.3,0.2,0.5c0.1,0.2,0.1,0.3,0.1,0.5c0,0.1-0.1,0.2-0.2,0.3
					c-0.1,0.1-0.3,0.2-0.4,0.1c-0.2,0-0.3-0.1-0.4-0.2c0-0.1-0.1-0.1-0.1-0.2c0-0.1-0.1-0.1-0.1-0.2c-0.5-1.5-0.8-2.3-1.2-3.9
					c-0.1-0.3-0.1-0.5,0-0.7c0.1-0.2,0.2-0.4,0.4-0.5c0.2-0.1,0.4-0.2,0.6-0.2c0.2,0,0.4,0.1,0.6,0.2c1.4,0.9,2.1,1.4,3.4,2.3
					c0.1,0.1,0.1,0.1,0.2,0.1c0,0,0.1,0.1,0.1,0.1c0.1,0.1,0.1,0.3,0.1,0.4c0,0.2-0.1,0.3-0.3,0.4c-0.1,0.1-0.3,0.1-0.4,0.1
					c-0.1,0-0.3-0.1-0.5-0.2c-0.2-0.1-0.2-0.2-0.4-0.3C328.6,375.6,328.3,375.9,327.7,376.4z M327.3,375.3c0.4-0.3,0.6-0.5,1.1-0.8
					c-0.7-0.5-1-0.7-1.7-1.2C326.9,374.1,327,374.5,327.3,375.3z"/>
				<path class="st40" d="M330.2,369.3c0.3-0.2,0.6-0.3,0.9-0.4s0.6-0.1,0.8-0.1c0.5,0,0.9,0.1,1.3,0.4c0.4,0.2,0.7,0.6,0.9,1
					c0.4,0.7,0.5,1.5,0.3,2.1c-0.2,0.7-0.6,1.2-1.3,1.6c-0.4,0.2-0.6,0.3-1,0.6c-0.3,0.2-0.5,0.2-0.6,0.2c-0.2,0-0.3-0.2-0.5-0.4
					c-0.8-1.3-1.2-1.9-2.1-3.1c-0.2-0.3-0.2-0.5-0.2-0.7c0.1-0.2,0.2-0.4,0.5-0.6C329.7,369.7,329.8,369.5,330.2,369.3z
					 M331.9,373.3c0.2-0.1,0.3-0.2,0.5-0.3c0.4-0.3,0.7-0.6,0.8-0.9s0-0.8-0.3-1.2c-0.2-0.4-0.5-0.7-0.9-0.8c-0.4-0.1-0.8,0-1.2,0.3
					c-0.2,0.1-0.3,0.2-0.5,0.3C330.9,371.7,331.2,372.2,331.9,373.3z"/>
			</g>
		</g>
		<g>
			<g>
				<path class="st40" d="M287.5,442c-1.7,0.3-2.6,0.5-4.4,0.9c-0.1,0-0.1,0-0.2,0c-0.1,0-0.1,0-0.2,0c-0.2,0-0.3-0.1-0.4-0.3
					c-0.1-0.1-0.1-0.3-0.1-0.5c0-0.1,0.1-0.2,0.2-0.3c0.1-0.1,0.2-0.1,0.4-0.2c1.3-0.2,1.9-0.4,3.2-0.6c-1.1-0.7-1.6-1-2.7-1.7
					c-0.2-0.1-0.3-0.2-0.4-0.3c-0.1-0.1-0.1-0.2,0-0.4c0-0.2,0.1-0.3,0.2-0.4c0.1-0.1,0.3-0.1,0.4-0.1c0.1,0,0.1,0,0.2,0.1
					c0.1,0,0.1,0.1,0.2,0.1c1.4,1,2.2,1.5,3.6,2.5c0.2,0.1,0.3,0.2,0.3,0.3c0.1,0.1,0.1,0.2,0,0.4c0,0.1-0.1,0.2-0.2,0.3
					C287.8,441.9,287.7,441.9,287.5,442z"/>
				<path class="st40" d="M283.8,435.4c0.1-0.3,0.2-0.5,0.3-0.6c0.1-0.1,0.3-0.2,0.5-0.1c0.2,0,0.3,0.2,0.4,0.3c0.1,0.2,0,0.4,0,0.7
					c-0.1,0.4-0.2,0.6-0.2,1c0.4,0.1,0.6,0.1,0.9,0.2c0.1-0.3,0.1-0.5,0.2-0.9c0.1-0.3,0.2-0.5,0.3-0.6c0.1-0.1,0.3-0.2,0.5-0.1
					c0.2,0,0.3,0.2,0.4,0.3c0.1,0.2,0,0.4,0,0.7c-0.1,0.3-0.1,0.5-0.2,0.9c0.4,0.1,0.6,0.1,1,0.2c0.1-0.4,0.1-0.6,0.3-1
					c0.1-0.3,0.2-0.5,0.3-0.6c0.1-0.1,0.3-0.2,0.5-0.1c0.2,0,0.3,0.2,0.4,0.3c0.1,0.2,0,0.4,0,0.7c-0.1,0.6-0.2,0.8-0.3,1.4
					c-0.1,0.3-0.2,0.5-0.3,0.6c-0.1,0.1-0.3,0.1-0.6,0c-1.5-0.3-2.2-0.5-3.7-0.8c-0.3-0.1-0.5-0.2-0.6-0.3c-0.1-0.2-0.1-0.4,0-0.7
					C283.6,436.2,283.7,435.9,283.8,435.4z"/>
				<path class="st40" d="M287.7,433.4c0.5,0.1,0.8,0.2,1.3,0.4c0.3,0.1,0.5,0.2,0.6,0.3c0.1,0.1,0.1,0.3,0.1,0.5
					c-0.1,0.2-0.2,0.3-0.3,0.4c-0.2,0.1-0.4,0.1-0.7,0c-1.4-0.4-2.2-0.6-3.6-1c-0.3-0.1-0.5-0.2-0.6-0.4c-0.1-0.2-0.1-0.4,0-0.7
					c0.1-0.4,0.2-0.6,0.3-1c0.2-0.6,0.5-1.1,0.9-1.4c0.4-0.3,0.8-0.3,1.3-0.2c0.4,0.1,0.6,0.3,0.8,0.6c0.2,0.3,0.2,0.7,0.2,1.1
					c0.5-0.3,0.8-0.4,1.3-0.6c0.2-0.1,0.3-0.1,0.4-0.2c0.1,0,0.2,0,0.3,0c0.2,0,0.3,0.1,0.3,0.3c0.1,0.1,0.1,0.3,0,0.4
					c0,0.1-0.1,0.2-0.2,0.3c-0.1,0.1-0.2,0.2-0.4,0.2C289,432.8,288.6,433,287.7,433.4z M287,433.2c0.1-0.2,0.1-0.3,0.2-0.6
					c0.1-0.2,0.1-0.5,0-0.6c-0.1-0.2-0.2-0.3-0.4-0.3c-0.2-0.1-0.4,0-0.5,0.1c-0.1,0.1-0.3,0.3-0.3,0.5c-0.1,0.2-0.1,0.3-0.2,0.6
					C286.2,432.9,286.4,433,287,433.2z"/>
				<path class="st40" d="M286.8,426.8c-0.1-0.2-0.2-0.3-0.2-0.4c0-0.1,0-0.3,0-0.4c0-0.1,0.1-0.2,0.3-0.3c0.1-0.1,0.3-0.1,0.4,0
					c0.1,0.1,0.3,0.2,0.5,0.4c0,0,0,0,0,0c0.5,0.7,0.8,1.1,1.3,1.8c0.7,0.2,1,0.3,1.6,0.5c0.3,0.1,0.5,0.2,0.6,0.4
					c0.1,0.1,0.1,0.3,0.1,0.5c-0.1,0.2-0.2,0.3-0.3,0.4c-0.2,0.1-0.4,0-0.7-0.1c-0.7-0.2-1-0.3-1.6-0.5c-0.8,0.3-1.2,0.4-2.1,0.7
					c0,0,0,0,0,0c-0.3,0.1-0.5,0.1-0.7,0.1c-0.1,0-0.2-0.1-0.3-0.3c-0.1-0.1-0.1-0.3,0-0.5c0-0.1,0.1-0.2,0.2-0.3
					c0.1-0.1,0.3-0.2,0.4-0.2c0.6-0.2,0.9-0.3,1.5-0.5C287.3,427.7,287.1,427.4,286.8,426.8z"/>
				<path class="st40" d="M293.1,424c-0.1,0.3-0.2,0.5-0.4,0.6c-0.1,0.1-0.4,0.1-0.6,0c-1.4-0.5-2.1-0.8-3.5-1.3
					c-0.3-0.1-0.5-0.3-0.6-0.4c-0.1-0.2,0-0.4,0.1-0.7c0.2-0.4,0.2-0.6,0.4-1c0.2-0.5,0.5-0.9,0.8-1.1c0.3-0.2,0.7-0.2,1.1,0
					c0.2,0.1,0.4,0.2,0.5,0.4c0.1,0.2,0.2,0.4,0.2,0.6c0.2-0.3,0.5-0.5,0.8-0.6c0.3-0.1,0.6-0.1,0.9,0.1c0.5,0.2,0.8,0.5,0.9,0.9
					c0.1,0.4,0.1,0.9-0.1,1.5C293.4,423.3,293.3,423.5,293.1,424z M290.2,422.4c0.1-0.2,0.1-0.3,0.2-0.5c0.1-0.2,0.1-0.3,0-0.5
					c0-0.1-0.1-0.2-0.3-0.3c-0.2-0.1-0.3-0.1-0.4,0c-0.1,0.1-0.2,0.2-0.3,0.4c-0.1,0.2-0.1,0.3-0.2,0.5
					C289.6,422.2,289.8,422.2,290.2,422.4z M292.3,423.2c0.1-0.2,0.1-0.3,0.2-0.6c0.1-0.3,0.1-0.5,0.1-0.6c0-0.2-0.2-0.3-0.3-0.4
					c-0.2-0.1-0.4-0.1-0.5,0c-0.1,0.1-0.3,0.3-0.4,0.6c-0.1,0.2-0.1,0.3-0.2,0.6C291.6,422.9,291.8,423,292.3,423.2z"/>
				<path class="st40" d="M294,419.2c0.2,0.2,0.3,0.2,0.4,0.4c0.1,0.1,0.2,0.3,0.3,0.4c0,0.1,0,0.3,0,0.4c-0.1,0.2-0.2,0.3-0.3,0.3
					c-0.1,0.1-0.3,0.1-0.5,0c-0.1,0-0.1-0.1-0.2-0.1c-0.1,0-0.1-0.1-0.1-0.1c-1.2-1.1-1.8-1.7-2.9-2.8c-0.2-0.2-0.3-0.4-0.4-0.6
					c-0.1-0.2,0-0.4,0.1-0.6c0.1-0.2,0.2-0.4,0.4-0.4c0.2-0.1,0.4-0.1,0.6-0.1c1.6,0.1,2.5,0.2,4.1,0.4c0.1,0,0.2,0,0.2,0
					c0.1,0,0.1,0,0.2,0.1c0.2,0.1,0.3,0.2,0.3,0.3c0,0.1,0,0.3,0,0.5c-0.1,0.1-0.2,0.2-0.3,0.3c-0.1,0.1-0.3,0.1-0.5,0
					c-0.2,0-0.3,0-0.5-0.1C294.5,418.1,294.3,418.4,294,419.2z M293.1,418.4c0.2-0.5,0.3-0.7,0.5-1.2c-0.8-0.1-1.2-0.1-2.1-0.2
					C292.2,417.5,292.5,417.8,293.1,418.4z"/>
				<path class="st40" d="M292.5,412c0.2-0.3,0.3-0.6,0.5-0.8c0.2-0.2,0.4-0.4,0.6-0.5c0.4-0.2,0.8-0.3,1.2-0.3
					c0.5,0,0.9,0.1,1.3,0.3c0.7,0.4,1.2,0.9,1.4,1.6c0.2,0.7,0.1,1.3-0.2,2.1c-0.2,0.4-0.3,0.6-0.5,1c-0.1,0.3-0.3,0.5-0.4,0.5
					c-0.1,0.1-0.4,0-0.6-0.1c-1.3-0.7-2-1-3.4-1.6c-0.3-0.1-0.5-0.3-0.5-0.5c-0.1-0.2,0-0.4,0.1-0.7
					C292.3,412.6,292.4,412.4,292.5,412z M296.1,414.5c0.1-0.2,0.2-0.3,0.3-0.5c0.2-0.4,0.3-0.8,0.1-1.2c-0.1-0.3-0.4-0.6-0.9-0.9
					c-0.4-0.2-0.8-0.3-1.2-0.2c-0.3,0.1-0.6,0.4-0.9,0.9c-0.1,0.2-0.2,0.3-0.3,0.5C294.4,413.6,294.9,413.9,296.1,414.5z"/>
			</g>
		</g>
		<g>
			<g>
				<path class="st40" d="M496,413.9c0.1,0.3,0.2,0.5,0.2,0.7c0,0.2-0.1,0.3-0.3,0.4c-0.2,0.1-0.3,0.1-0.5,0
					c-0.1-0.1-0.3-0.3-0.4-0.6c-0.2-0.4-0.3-0.6-0.5-0.9c-0.3,0.2-0.5,0.3-0.9,0.4c0.2,0.3,0.2,0.5,0.4,0.8c0.1,0.3,0.2,0.5,0.2,0.7
					c0,0.2-0.1,0.3-0.3,0.4c-0.2,0.1-0.3,0.1-0.5,0s-0.3-0.3-0.4-0.5c-0.2-0.3-0.2-0.5-0.4-0.8c-0.4,0.2-0.5,0.3-0.9,0.5
					c0.2,0.4,0.3,0.6,0.5,0.9c0.1,0.3,0.2,0.5,0.2,0.7c0,0.2-0.1,0.3-0.3,0.4c-0.2,0.1-0.3,0.1-0.5,0c-0.1-0.1-0.3-0.3-0.4-0.5
					c-0.3-0.5-0.4-0.8-0.6-1.3c-0.1-0.3-0.2-0.5-0.2-0.7c0-0.2,0.2-0.3,0.5-0.4c1.3-0.7,2-1,3.3-1.7c0.3-0.2,0.5-0.2,0.7-0.1
					s0.3,0.2,0.5,0.5C495.6,413.2,495.8,413.4,496,413.9z"/>
				<path class="st40" d="M492.5,418.1c-0.2,0-0.4-0.1-0.5-0.2c-0.1-0.1-0.2-0.1-0.2-0.2c-0.1-0.1-0.1-0.3,0-0.4
					c0.1-0.2,0.1-0.3,0.3-0.3c0.1,0,0.2-0.1,0.3-0.1c0.1,0,0.2,0,0.4,0c0.9,0.2,1.3,0.3,2.2,0.4c0.3-0.6,0.5-0.9,0.8-1.5
					c0.1-0.2,0.2-0.3,0.2-0.4s0.1-0.1,0.2-0.2c0.1-0.1,0.3-0.1,0.4,0c0.1,0.1,0.3,0.2,0.3,0.3c0,0.1,0.1,0.2,0,0.3
					c0,0.1-0.1,0.3-0.2,0.5c-0.3,0.5-0.4,0.7-0.6,1.2c0.5,0.1,0.8,0.2,1.3,0.3c0.2,0,0.3,0.1,0.5,0.2c0.1,0.1,0.2,0.2,0.2,0.3
					c0.1,0.1,0.1,0.3,0,0.4c-0.1,0.2-0.1,0.3-0.3,0.3c-0.1,0.1-0.4,0.1-0.7,0c0,0,0,0,0,0c-0.7-0.2-1-0.2-1.7-0.4
					c-0.5,0.8-0.7,1.2-1.2,2c0,0,0,0,0,0c-0.2,0.2-0.3,0.4-0.4,0.5c-0.1,0.1-0.3,0-0.4,0c-0.1-0.1-0.2-0.2-0.3-0.3
					c0-0.1-0.1-0.2,0-0.3c0-0.1,0.1-0.3,0.2-0.4c0.4-0.6,0.6-1,0.9-1.6C493.6,418.4,493.3,418.3,492.5,418.1z"/>
				<path class="st40" d="M494.4,423.9c-0.3-0.7-0.3-1.4,0-2.1c0.3-0.7,0.8-1.1,1.6-1.5c0.8-0.3,1.5-0.4,2.2-0.1
					c0.7,0.3,1.2,0.8,1.5,1.6c0.2,0.4,0.2,0.9,0.2,1.2s-0.2,0.6-0.4,0.7c-0.1,0.1-0.3,0-0.4,0c-0.1-0.1-0.2-0.2-0.3-0.3
					c0-0.1-0.1-0.2-0.1-0.5c0-0.3-0.1-0.5-0.1-0.6c-0.2-0.4-0.4-0.6-0.8-0.8c-0.4-0.1-0.8-0.1-1.3,0.1c-0.5,0.2-0.8,0.5-1,0.8
					c-0.2,0.3-0.2,0.7,0,1.1c0.1,0.2,0.2,0.4,0.4,0.6c0.2,0.2,0.3,0.3,0.3,0.4c0,0.1,0,0.2,0,0.4c-0.1,0.1-0.2,0.2-0.3,0.3
					c-0.2,0.1-0.5,0-0.8-0.2C494.8,424.7,494.6,424.4,494.4,423.9z"/>
				<path class="st40" d="M501.2,426.3c0.1,0.3,0.1,0.5,0.1,0.7c0,0.2-0.2,0.3-0.3,0.4c-0.2,0.1-0.3,0-0.5-0.1
					c-0.1-0.1-0.3-0.3-0.4-0.6c-0.1-0.4-0.2-0.6-0.3-1c-0.4,0.1-0.5,0.2-0.9,0.3c0.1,0.3,0.2,0.5,0.3,0.8c0.1,0.3,0.1,0.5,0.1,0.7
					c0,0.2-0.2,0.3-0.3,0.3c-0.2,0.1-0.3,0-0.5-0.1c-0.1-0.1-0.3-0.3-0.4-0.6c-0.1-0.3-0.2-0.5-0.3-0.8c-0.4,0.1-0.6,0.2-0.9,0.3
					c0.1,0.4,0.2,0.6,0.3,1c0.1,0.3,0.1,0.5,0.1,0.7c0,0.2-0.2,0.3-0.3,0.3c-0.2,0.1-0.3,0-0.5-0.1c-0.1-0.1-0.3-0.3-0.3-0.6
					c-0.2-0.5-0.3-0.8-0.5-1.4c-0.1-0.3-0.1-0.5-0.1-0.7c0.1-0.1,0.2-0.3,0.5-0.4c1.4-0.5,2.1-0.8,3.5-1.3c0.3-0.1,0.5-0.1,0.7,0
					c0.2,0.1,0.3,0.3,0.4,0.6C500.9,425.4,501,425.7,501.2,426.3z"/>
				<path class="st40" d="M500.9,428.1c0.3-0.1,0.5-0.1,0.7-0.1c0.2,0.1,0.3,0.2,0.4,0.4c0.1,0.2,0,0.4-0.1,0.5
					c-0.1,0.1-0.3,0.3-0.6,0.4c-1.3,0.4-2,0.6-3.3,1c0.1,0.4,0.2,0.6,0.3,1c0.1,0.3,0.1,0.5,0.1,0.7c0,0.2-0.2,0.3-0.3,0.3
					c-0.2,0.1-0.3,0-0.5-0.1c-0.1-0.1-0.2-0.3-0.3-0.6c-0.2-0.5-0.3-0.8-0.4-1.4c-0.1-0.3-0.1-0.5,0-0.7c0.1-0.1,0.2-0.3,0.5-0.4
					C498.8,428.8,499.5,428.6,500.9,428.1z"/>
				<path class="st40" d="M503.4,433.6c0.1,0.3,0.1,0.5,0,0.7c-0.1,0.2-0.2,0.3-0.4,0.3c-0.2,0-0.3,0-0.5-0.1
					c-0.1-0.1-0.2-0.3-0.3-0.6c-0.1-0.4-0.2-0.6-0.3-1c-0.4,0.1-0.6,0.2-0.9,0.3c0.1,0.3,0.1,0.5,0.2,0.9c0.1,0.3,0.1,0.5,0,0.7
					c-0.1,0.2-0.2,0.3-0.4,0.3c-0.2,0-0.3,0-0.5-0.1c-0.1-0.1-0.2-0.3-0.3-0.6c-0.1-0.3-0.1-0.5-0.2-0.9c-0.4,0.1-0.6,0.2-1,0.3
					c0.1,0.4,0.2,0.6,0.3,1c0.1,0.3,0.1,0.5,0,0.7c-0.1,0.2-0.2,0.3-0.4,0.3c-0.2,0-0.3,0-0.5-0.1c-0.1-0.1-0.2-0.3-0.3-0.6
					c-0.1-0.6-0.2-0.8-0.4-1.4c-0.1-0.3-0.1-0.5,0-0.7c0.1-0.1,0.2-0.3,0.5-0.3c1.4-0.4,2.2-0.6,3.6-1.1c0.3-0.1,0.5-0.1,0.7,0
					c0.2,0.1,0.3,0.3,0.4,0.6C503.2,432.8,503.3,433.1,503.4,433.6z"/>
				<path class="st40" d="M499.7,437.6c-0.3,0.1-0.5,0.1-0.7,0c-0.2-0.1-0.3-0.2-0.3-0.4c-0.1-0.2,0-0.4,0.1-0.5
					c0.1-0.1,0.3-0.2,0.6-0.3c1.5-0.4,2.2-0.6,3.7-0.9c0.3-0.1,0.5-0.1,0.6,0c0.2,0.1,0.3,0.2,0.3,0.4c0,0.1,0,0.2,0,0.4
					c0,0.1-0.1,0.2-0.2,0.4c-0.9,1.2-1.4,1.8-2.4,3c1-0.2,1.5-0.3,2.5-0.5c0.3-0.1,0.5-0.1,0.7,0s0.3,0.2,0.3,0.4
					c0,0.2,0,0.4-0.1,0.5c-0.1,0.1-0.3,0.2-0.6,0.3c-1.5,0.3-2.3,0.5-3.8,0.8c-0.3,0.1-0.5,0-0.6,0c-0.1-0.1-0.2-0.2-0.3-0.4
					c0-0.1,0-0.3,0-0.4c0-0.1,0.1-0.3,0.3-0.4c1-1.1,1.4-1.7,2.3-2.9C501.2,437.2,500.7,437.4,499.7,437.6z"/>
				<path class="st40" d="M504.2,442c0-0.2-0.1-0.3-0.1-0.5c-0.1-0.3-0.1-0.5,0-0.7c0.1-0.2,0.2-0.3,0.4-0.3c0.2,0,0.3,0,0.5,0.1
					c0.1,0.1,0.2,0.3,0.3,0.7c0.2,0.9,0.3,1.3,0.4,2.2c0.1,0.3,0,0.5,0,0.7c-0.1,0.2-0.2,0.3-0.4,0.3c-0.2,0-0.3,0-0.5-0.2
					c-0.1-0.1-0.2-0.4-0.3-0.7c0-0.2,0-0.3-0.1-0.5c-1.4,0.2-2,0.4-3.4,0.6c-0.3,0.1-0.5,0-0.7,0c-0.2-0.1-0.3-0.2-0.3-0.4
					c0-0.2,0-0.4,0.1-0.5c0.1-0.1,0.3-0.2,0.6-0.3C502.2,442.4,502.8,442.3,504.2,442z"/>
			</g>
		</g>
		<g>
			<path class="st14" d="M296.6,391c-0.2,0.3-0.5,0.7-0.7,1l18.8,13.6l50.8,36.9c0.1-0.2,0.2-0.4,0.4-0.5c0.1-0.2,0.3-0.3,0.4-0.5
				l-50.8-36.9L296.6,391z"/>
			<path class="st14" d="M357.3,347.3c-0.4,0.1-0.8,0.3-1.2,0.4l7.2,22.1l19.4,59.7c0.2-0.1,0.4-0.1,0.6-0.2
				c0.2-0.1,0.4-0.1,0.6-0.2l-19.4-59.7L357.3,347.3z"/>
			<path class="st14" d="M432.1,347.7c-0.4-0.1-0.8-0.3-1.2-0.4l-7.2,22.1l-19.4,59.7c0.2,0.1,0.4,0.1,0.6,0.2
				c0.2,0.1,0.4,0.1,0.6,0.2l19.4-59.7L432.1,347.7z"/>
			<path class="st14" d="M491.7,391l-18.8,13.6l-50.8,36.9c0.1,0.2,0.3,0.3,0.4,0.5c0.1,0.2,0.2,0.3,0.4,0.5l50.8-36.9l18.8-13.6
				C492.2,391.7,491.9,391.3,491.7,391z"/>
		</g>
	</g>
	<g>
		
			<image style="overflow:visible;" width="352" height="110" xlink:href="63BB1795E1075821.png"  transform="matrix(0.24 0 0 0.24 383.2607 441.737)">
		</image>
		<g>
			<path class="st41" d="M465.3,440l-70.3,4.4l0.7,5.7l0.7,5.7l69.3-12.7C468.4,442.5,468,439.9,465.3,440z"/>
			<path class="st41" d="M382.6,451.7c-0.8-6.4,3.8-12.3,10.2-13.1c6.4-0.8,12.3,3.8,13.1,10.2c0.8,6.4-3.8,12.3-10.2,13.1
				C389.2,462.7,383.3,458.1,382.6,451.7z"/>
			
				<ellipse transform="matrix(0.9925 -0.1219 0.1219 0.9925 -51.935 51.3991)" class="st42" cx="394.2" cy="450.3" rx="6.7" ry="6.7"/>
		</g>
	</g>
	
		<ellipse transform="matrix(0.9925 -0.1219 0.1219 0.9925 -51.9227 51.3865)" class="st42" cx="394.1" cy="450.2" rx="6.7" ry="6.7"/>
	<g>
		<path class="st42" d="M301,488.9c0,1.1-0.2,2-0.6,2.5c-0.4,0.5-1,0.8-1.8,0.8c-0.8,0-1.4-0.3-1.8-0.8c-0.4-0.5-0.6-1.4-0.6-2.5
			v-14.3c0-1.3,0.2-2.1,0.7-2.6c0.5-0.5,1.3-0.7,2.5-0.7h4.2c2.3,0,4.1,0.6,5.5,1.9c1.3,1.3,2,3,2,5.1c0,2.2-0.6,3.9-1.9,5.2
			c-1.3,1.2-3,1.9-5.2,1.9H301V488.9z M301,481h2c1.1,0,1.8-0.2,2.4-0.7c0.5-0.5,0.8-1.1,0.8-2.1c0-0.9-0.3-1.6-0.8-2
			c-0.5-0.4-1.3-0.7-2.4-0.7h-2V481z"/>
		<path class="st42" d="M318.3,483.8v5.1c0,1.1-0.2,2-0.6,2.5c-0.4,0.5-1,0.8-1.8,0.8c-0.8,0-1.4-0.3-1.8-0.8
			c-0.4-0.5-0.6-1.4-0.6-2.5v-14.3c0-1.3,0.2-2.1,0.7-2.6s1.3-0.7,2.5-0.7h3.6c2.4,0,4.3,0.6,5.7,1.7c1.4,1.2,2.1,2.7,2.1,4.7
			c0,1.5-0.4,2.7-1.3,3.7c-0.9,1-2.1,1.6-3.6,1.9l3.7,4.1c0.5,0.5,0.8,1,1,1.5c0.2,0.4,0.3,0.9,0.3,1.2c0,0.6-0.2,1.1-0.6,1.6
			c-0.4,0.4-0.9,0.6-1.6,0.6c-0.4,0-0.8-0.1-1.2-0.4c-0.4-0.3-0.8-0.7-1.3-1.3L318.3,483.8z M318.3,480.6h2.1c0.9,0,1.7-0.2,2.2-0.7
			c0.5-0.4,0.8-1.1,0.8-1.9c0-0.8-0.3-1.4-0.8-1.8c-0.5-0.4-1.2-0.6-2.1-0.6h-2.2V480.6z"/>
		<path class="st42" d="M329.8,481.6c0-3.3,0.9-5.9,2.8-7.9c1.8-2,4.3-3,7.3-3c3,0,5.4,1,7.3,3c1.8,2,2.8,4.6,2.8,7.9
			c0,3.3-0.9,5.9-2.8,7.9c-1.8,2-4.3,3-7.3,3c-3,0-5.4-1-7.3-3C330.7,487.5,329.8,484.9,329.8,481.6z M334.9,481.7
			c0,1.9,0.5,3.5,1.4,4.6c0.9,1.2,2.1,1.7,3.6,1.7c1.5,0,2.7-0.6,3.6-1.7c0.9-1.2,1.4-2.7,1.4-4.6c0-2-0.4-3.6-1.3-4.8
			c-0.9-1.2-2.1-1.8-3.6-1.8s-2.7,0.6-3.6,1.8C335.3,478.1,334.9,479.7,334.9,481.7z"/>
		<path class="st42" d="M359.4,471.3c1.3,0,2.4,0.1,3.4,0.4c1,0.2,1.9,0.6,2.6,1.1c1.3,0.9,2.4,2.1,3.2,3.6c0.8,1.5,1.2,3.2,1.2,5.1
			c0,3.2-0.9,5.8-2.7,7.7c-1.8,1.9-4.2,2.8-7.3,2.8h-4.2c-1.2,0-2-0.2-2.5-0.6c-0.4-0.4-0.7-1.2-0.7-2.3v-14.4
			c0-1.3,0.2-2.1,0.7-2.6c0.5-0.5,1.3-0.7,2.5-0.7H359.4z M357.1,487.6h2.1c1.9,0,3.2-0.5,4.2-1.5c0.9-1,1.4-2.6,1.4-4.7
			c0-1.9-0.5-3.3-1.4-4.3c-0.9-0.9-2.3-1.4-4.2-1.4h-2V487.6z"/>
		<path class="st42" d="M372.5,483.1v-8.7c0-1.1,0.2-2,0.6-2.5c0.4-0.6,1-0.8,1.8-0.8c0.8,0,1.4,0.3,1.8,0.8
			c0.4,0.6,0.6,1.4,0.6,2.5v8.2c0,1.8,0.3,3.2,1,4.1c0.7,0.9,1.7,1.4,3.1,1.4c1.4,0,2.4-0.5,3.1-1.4c0.7-0.9,1-2.3,1-4.1v-8.2
			c0-1.1,0.2-2,0.6-2.5c0.4-0.6,1-0.8,1.7-0.8c0.8,0,1.4,0.3,1.8,0.8c0.4,0.6,0.6,1.4,0.6,2.5v8.7c0,3-0.8,5.3-2.3,7
			c-1.5,1.7-3.7,2.5-6.4,2.5c-2.8,0-4.9-0.8-6.4-2.5C373.2,488.4,372.5,486.1,372.5,483.1z"/>
		<path class="st42" d="M402.6,492.5c-3,0-5.4-1-7.2-3c-1.8-2-2.7-4.6-2.7-7.9c0-3.2,0.9-5.8,2.8-7.9c1.9-2,4.3-3.1,7.2-3.1
			c1.7,0,3.2,0.3,4.3,1c1.2,0.7,1.8,1.4,1.8,2.3c0,0.6-0.2,1.1-0.6,1.5c-0.4,0.4-0.9,0.6-1.4,0.6c-0.3,0-0.9-0.1-1.8-0.4
			s-1.7-0.4-2.3-0.4c-1.5,0-2.7,0.6-3.6,1.7c-0.9,1.2-1.4,2.7-1.4,4.7c0,1.9,0.5,3.4,1.4,4.6c0.9,1.1,2.2,1.7,3.8,1.7
			c0.7,0,1.6-0.2,2.5-0.5c0.9-0.4,1.6-0.5,1.8-0.5c0.5,0,0.9,0.2,1.3,0.6s0.6,0.9,0.6,1.4c0,1-0.6,1.8-1.9,2.5
			C405.9,492.2,404.4,492.5,402.6,492.5z"/>
		<path class="st42" d="M415.9,475.7h-1.7c-1.1,0-2-0.2-2.5-0.5c-0.5-0.4-0.8-0.9-0.8-1.6c0-0.7,0.3-1.3,0.8-1.7
			c0.5-0.4,1.4-0.5,2.5-0.5h8.1c1.1,0,1.9,0.2,2.5,0.5s0.8,0.9,0.8,1.7c0,0.7-0.3,1.3-0.8,1.6c-0.5,0.4-1.4,0.5-2.5,0.5h-1.7v13.2
			c0,1.1-0.2,2-0.6,2.5c-0.4,0.5-1,0.8-1.8,0.8s-1.4-0.3-1.8-0.8c-0.4-0.5-0.6-1.4-0.6-2.5V475.7z"/>
		<path class="st42" d="M432,488.9c0,1.1-0.2,2-0.6,2.5c-0.4,0.5-1,0.8-1.8,0.8c-0.8,0-1.4-0.3-1.8-0.8c-0.4-0.5-0.6-1.4-0.6-2.5
			v-14.5c0-1.1,0.2-2,0.6-2.5c0.4-0.6,1-0.8,1.8-0.8c0.8,0,1.4,0.3,1.8,0.8c0.4,0.6,0.6,1.4,0.6,2.5V488.9z"/>
		<path class="st42" d="M440.5,490.6l-6.2-15.8c-0.1-0.2-0.1-0.4-0.2-0.6c0-0.2-0.1-0.5-0.1-0.7c0-0.7,0.2-1.2,0.7-1.7
			c0.5-0.4,1-0.7,1.7-0.7c0.5,0,0.9,0.2,1.2,0.5c0.3,0.3,0.6,0.8,0.9,1.6l4.3,11.7l4-11.6c0.3-0.8,0.6-1.4,0.9-1.7
			c0.3-0.3,0.8-0.5,1.4-0.5c0.7,0,1.3,0.2,1.7,0.6c0.4,0.4,0.6,0.9,0.6,1.6c0,0.3,0,0.5-0.1,0.8c-0.1,0.3-0.1,0.6-0.2,0.8l-6,15.5
			c-0.3,0.7-0.6,1.2-1,1.5c-0.4,0.3-0.8,0.5-1.4,0.5c-0.5,0-1-0.1-1.3-0.4C441.1,491.7,440.8,491.2,440.5,490.6z"/>
		<path class="st42" d="M458,488.9c0,1.1-0.2,2-0.6,2.5c-0.4,0.5-1,0.8-1.8,0.8c-0.8,0-1.4-0.3-1.8-0.8c-0.4-0.5-0.6-1.4-0.6-2.5
			v-14.5c0-1.1,0.2-2,0.6-2.5c0.4-0.6,1-0.8,1.8-0.8c0.8,0,1.4,0.3,1.8,0.8c0.4,0.6,0.6,1.4,0.6,2.5V488.9z"/>
		<path class="st42" d="M464.9,475.7h-1.7c-1.1,0-2-0.2-2.5-0.5c-0.5-0.4-0.8-0.9-0.8-1.6c0-0.7,0.3-1.3,0.8-1.7s1.4-0.5,2.5-0.5
			h8.1c1.1,0,1.9,0.2,2.5,0.5s0.8,0.9,0.8,1.7c0,0.7-0.3,1.3-0.8,1.6c-0.5,0.4-1.4,0.5-2.5,0.5h-1.7v13.2c0,1.1-0.2,2-0.6,2.5
			c-0.4,0.5-1,0.8-1.8,0.8c-0.8,0-1.4-0.3-1.8-0.8c-0.4-0.5-0.6-1.4-0.6-2.5V475.7z"/>
		<path class="st42" d="M487.4,472.7c0.4-0.6,0.8-1,1.2-1.3c0.4-0.3,0.8-0.5,1.3-0.5c0.5,0,1,0.2,1.4,0.6c0.4,0.4,0.6,0.9,0.6,1.4
			c0,0.6-0.3,1.3-1,2.3l-0.1,0.1l-4.7,6.8v6.7c0,1.1-0.2,2-0.6,2.5c-0.4,0.5-1,0.8-1.7,0.8c-0.8,0-1.4-0.3-1.8-0.8
			c-0.4-0.5-0.6-1.4-0.6-2.5v-6.7l-4.7-6.7l0,0c-0.7-0.9-1-1.7-1-2.3c0-0.6,0.2-1.1,0.6-1.5c0.4-0.4,1-0.6,1.6-0.6
			c0.4,0,0.8,0.1,1.1,0.4c0.4,0.3,0.8,0.7,1.2,1.4l3.5,5L487.4,472.7z"/>
	</g>
</g>
<g>
	<linearGradient id="SVGID_4_" gradientUnits="userSpaceOnUse" x1="595.3427" y1="344.6159" x2="612.8018" y2="344.6159">
		<stop  offset="0" style="stop-color:#01639C"/>
		<stop  offset="1" style="stop-color:#004580"/>
	</linearGradient>
	<circle class="st43" cx="604.1" cy="344.6" r="8.7"/>
	<linearGradient id="SVGID_5_" gradientUnits="userSpaceOnUse" x1="590.2097" y1="359.2855" x2="607.6686" y2="359.2855">
		<stop  offset="0" style="stop-color:#01639C"/>
		<stop  offset="1" style="stop-color:#004580"/>
	</linearGradient>
	<circle class="st44" cx="598.9" cy="359.3" r="8.7"/>
	<linearGradient id="SVGID_6_" gradientUnits="userSpaceOnUse" x1="588.4714" y1="374.7295" x2="605.9265" y2="374.7295">
		<stop  offset="0" style="stop-color:#01639C"/>
		<stop  offset="1" style="stop-color:#004580"/>
	</linearGradient>
	<circle class="st45" cx="597.2" cy="374.7" r="8.7"/>
	<linearGradient id="SVGID_7_" gradientUnits="userSpaceOnUse" x1="590.2097" y1="390.1735" x2="607.6686" y2="390.1735">
		<stop  offset="0" style="stop-color:#01639C"/>
		<stop  offset="1" style="stop-color:#004580"/>
	</linearGradient>
	<circle class="st46" cx="598.9" cy="390.2" r="8.7"/>
	<linearGradient id="SVGID_8_" gradientUnits="userSpaceOnUse" x1="595.3427" y1="404.8431" x2="612.8018" y2="404.8431">
		<stop  offset="0" style="stop-color:#01639C"/>
		<stop  offset="1" style="stop-color:#004580"/>
	</linearGradient>
	<circle class="st47" cx="604.1" cy="404.8" r="8.7"/>
	<g>
		<g>
			
				<linearGradient id="SVGID_9_" gradientUnits="userSpaceOnUse" x1="744.343" y1="751.7511" x2="744.343" y2="887.5265" gradientTransform="matrix(0.9464 0.323 -0.323 0.9464 197.9166 -568.0369)">
				<stop  offset="0" style="stop-color:#014E7A"/>
				<stop  offset="1" style="stop-color:#003664"/>
			</linearGradient>
			<polygon class="st48" points="641.4,511.9 623.7,490.1 595.6,496.2 635.3,380.1 681,395.7 			"/>
			
				<linearGradient id="SVGID_10_" gradientUnits="userSpaceOnUse" x1="2777.3848" y1="57.8875" x2="2777.3848" y2="193.6629" gradientTransform="matrix(-0.9464 0.323 0.323 0.9464 3283.4795 -568.0369)">
				<stop  offset="0" style="stop-color:#014E7A"/>
				<stop  offset="1" style="stop-color:#003664"/>
			</linearGradient>
			<polygon class="st49" points="691.8,511.9 709.5,490.1 737.6,496.2 697.9,380.1 652.2,395.7 			"/>
		</g>
		<g>
			<defs>
				<polygon id="SVGID_11_" points="697.9,380.1 666.6,390.8 635.3,380.1 595.6,496.2 623.7,490.1 641.4,511.9 666.6,438 
					691.8,511.9 709.5,490.1 737.6,496.2 				"/>
			</defs>
			<clipPath id="SVGID_12_">
				<use xlink:href="#SVGID_11_"  style="overflow:visible;"/>
			</clipPath>
			<g class="st50">
				<path class="st51" d="M726.3,417c-3.8-3-9.3-2.4-12.3,1.4c-1.9,2.4-2.3,5.4-1.5,8.1c-2.7-0.9-5.8-0.4-8.1,1.5
					c-2.4,1.9-3.5,4.8-3.2,7.6c-2.4-1.4-5.5-1.7-8.3-0.4c-2.7,1.3-4.5,3.9-4.9,6.7c-2-2-5-2.9-8-2.2c-3,0.7-5.2,2.8-6.2,5.4
					c-1.6-2.4-4.2-3.9-7.3-3.9c-3,0-5.7,1.6-7.3,3.9c-1-2.6-3.3-4.8-6.2-5.4c-3-0.7-5.9,0.2-8,2.2c-0.4-2.8-2.1-5.4-4.9-6.7
					c-2.7-1.3-5.8-1.1-8.3,0.4c0.2-2.8-0.9-5.7-3.2-7.6c-2.4-1.9-5.4-2.3-8.1-1.5c0.9-2.7,0.4-5.8-1.5-8.1c-3-3.8-8.5-4.4-12.3-1.4
					c-3.8,3-4.4,8.5-1.4,12.3c2.3,2.9,6.2,3.9,9.5,2.9c-1.1,3.4-0.1,7.2,2.9,9.5c2.9,2.3,6.9,2.5,9.9,0.7c-0.3,3.5,1.5,7,4.9,8.6
					c3.4,1.6,7.3,0.9,9.8-1.6c0.5,3.5,3.1,6.5,6.7,7.3c3.6,0.8,7.3-0.8,9.2-3.7c1.2,3.3,4.4,5.7,8.2,5.7c3.7,0,6.9-2.4,8.2-5.7
					c1.9,2.9,5.6,4.5,9.2,3.7c3.6-0.8,6.2-3.8,6.7-7.3c2.6,2.4,6.4,3.2,9.8,1.6c3.4-1.6,5.2-5.1,4.9-8.6c3,1.8,7,1.7,9.9-0.7
					c2.9-2.3,3.9-6.2,2.9-9.5c3.4,1.1,7.2,0.1,9.5-2.9C730.7,425.5,730.1,420,726.3,417z"/>
				<path class="st52" d="M726.3,416.5c-3.8-3-9.3-2.4-12.3,1.4c-1.9,2.4-2.3,5.4-1.5,8.1c-2.7-0.9-5.8-0.4-8.1,1.5
					c-2.4,1.9-3.5,4.8-3.2,7.6c-2.4-1.4-5.5-1.7-8.3-0.4c-2.7,1.3-4.5,3.9-4.9,6.7c-2-2-5-2.9-8-2.2c-3,0.7-5.2,2.8-6.2,5.4
					c-1.6-2.4-4.2-3.9-7.3-3.9c-3,0-5.7,1.6-7.3,3.9c-1-2.6-3.3-4.8-6.2-5.4c-3-0.7-5.9,0.2-8,2.2c-0.4-2.8-2.1-5.4-4.9-6.7
					c-2.7-1.3-5.8-1.1-8.3,0.4c0.2-2.8-0.9-5.7-3.2-7.6c-2.4-1.9-5.4-2.3-8.1-1.5c0.9-2.7,0.4-5.8-1.5-8.1c-3-3.8-8.5-4.4-12.3-1.4
					c-3.8,3-4.4,8.5-1.4,12.3c2.3,2.9,6.2,3.9,9.5,2.9c-1.1,3.4-0.1,7.2,2.9,9.5c2.9,2.3,6.9,2.5,9.9,0.7c-0.3,3.5,1.5,7,4.9,8.6
					c3.4,1.6,7.3,0.9,9.8-1.6c0.5,3.5,3.1,6.5,6.7,7.3c3.6,0.8,7.3-0.8,9.2-3.7c1.2,3.3,4.4,5.7,8.2,5.7c3.7,0,6.9-2.4,8.2-5.7
					c1.9,2.9,5.6,4.5,9.2,3.7c3.6-0.8,6.2-3.8,6.7-7.3c2.6,2.4,6.4,3.2,9.8,1.6c3.4-1.6,5.2-5.1,4.9-8.6c3,1.8,7,1.7,9.9-0.7
					c2.9-2.3,3.9-6.2,2.9-9.5c3.4,1.1,7.2,0.1,9.5-2.9C730.7,425,730.1,419.6,726.3,416.5z"/>
				<path class="st53" d="M726.3,416.1c-3.8-3-9.3-2.4-12.3,1.4c-1.9,2.4-2.3,5.4-1.5,8.1c-2.7-0.9-5.8-0.4-8.1,1.5
					c-2.4,1.9-3.5,4.8-3.2,7.6c-2.4-1.4-5.5-1.7-8.3-0.4c-2.7,1.3-4.5,3.9-4.9,6.7c-2-2-5-2.9-8-2.2c-3,0.7-5.2,2.8-6.2,5.4
					c-1.6-2.4-4.2-3.9-7.3-3.9c-3,0-5.7,1.6-7.3,3.9c-1-2.6-3.3-4.8-6.2-5.4c-3-0.7-5.9,0.2-8,2.2c-0.4-2.8-2.1-5.4-4.9-6.7
					c-2.7-1.3-5.8-1.1-8.3,0.4c0.2-2.8-0.9-5.7-3.2-7.6c-2.4-1.9-5.4-2.3-8.1-1.5c0.9-2.7,0.4-5.8-1.5-8.1c-3-3.8-8.5-4.4-12.3-1.4
					c-3.8,3-4.4,8.5-1.4,12.3c2.3,2.9,6.2,3.9,9.5,2.9c-1.1,3.4-0.1,7.2,2.9,9.5c2.9,2.3,6.9,2.5,9.9,0.7c-0.3,3.5,1.5,7,4.9,8.6
					c3.4,1.6,7.3,0.9,9.8-1.6c0.5,3.5,3.1,6.5,6.7,7.3c3.6,0.8,7.3-0.8,9.2-3.7c1.2,3.3,4.4,5.7,8.2,5.7c3.7,0,6.9-2.4,8.2-5.7
					c1.9,2.9,5.6,4.5,9.2,3.7c3.6-0.8,6.2-3.8,6.7-7.3c2.6,2.4,6.4,3.2,9.8,1.6c3.4-1.6,5.2-5.1,4.9-8.6c3,1.8,7,1.7,9.9-0.7
					c2.9-2.3,3.9-6.2,2.9-9.5c3.4,1.1,7.2,0.1,9.5-2.9C730.7,424.6,730.1,419.1,726.3,416.1z"/>
				<path class="st54" d="M726.3,415.7c-3.8-3-9.3-2.4-12.3,1.4c-1.9,2.4-2.3,5.4-1.5,8.1c-2.7-0.9-5.8-0.4-8.1,1.5
					c-2.4,1.9-3.5,4.8-3.2,7.6c-2.4-1.4-5.5-1.7-8.3-0.4c-2.7,1.3-4.5,3.9-4.9,6.7c-2-2-5-2.9-8-2.2c-3,0.7-5.2,2.8-6.2,5.4
					c-1.6-2.4-4.2-3.9-7.3-3.9c-3,0-5.7,1.6-7.3,3.9c-1-2.6-3.3-4.8-6.2-5.4c-3-0.7-5.9,0.2-8,2.2c-0.4-2.8-2.1-5.4-4.9-6.7
					c-2.7-1.3-5.8-1.1-8.3,0.4c0.2-2.8-0.9-5.7-3.2-7.6c-2.4-1.9-5.4-2.3-8.1-1.5c0.9-2.7,0.4-5.8-1.5-8.1c-3-3.8-8.5-4.4-12.3-1.4
					c-3.8,3-4.4,8.5-1.4,12.3c2.3,2.9,6.2,3.9,9.5,2.9c-1.1,3.4-0.1,7.2,2.9,9.5c2.9,2.3,6.9,2.5,9.9,0.7c-0.3,3.5,1.5,7,4.9,8.6
					c3.4,1.6,7.3,0.9,9.8-1.6c0.5,3.5,3.1,6.5,6.7,7.3c3.6,0.8,7.3-0.8,9.2-3.7c1.2,3.3,4.4,5.7,8.2,5.7c3.7,0,6.9-2.4,8.2-5.7
					c1.9,2.9,5.6,4.5,9.2,3.7c3.6-0.8,6.2-3.8,6.7-7.3c2.6,2.4,6.4,3.2,9.8,1.6c3.4-1.6,5.2-5.1,4.9-8.6c3,1.8,7,1.7,9.9-0.7
					c2.9-2.3,3.9-6.2,2.9-9.5c3.4,1.1,7.2,0.1,9.5-2.9C730.7,424.2,730.1,418.7,726.3,415.7z"/>
				<path class="st55" d="M726.3,415.2c-3.8-3-9.3-2.4-12.3,1.4c-1.9,2.4-2.3,5.4-1.5,8.1c-2.7-0.9-5.8-0.4-8.1,1.5
					c-2.4,1.9-3.5,4.8-3.2,7.6c-2.4-1.4-5.5-1.7-8.3-0.4c-2.7,1.3-4.5,3.9-4.9,6.7c-2-2-5-2.9-8-2.2c-3,0.7-5.2,2.8-6.2,5.4
					c-1.6-2.4-4.2-3.9-7.3-3.9c-3,0-5.7,1.6-7.3,3.9c-1-2.6-3.3-4.8-6.2-5.4c-3-0.7-5.9,0.2-8,2.2c-0.4-2.8-2.1-5.4-4.9-6.7
					c-2.7-1.3-5.8-1.1-8.3,0.4c0.2-2.8-0.9-5.7-3.2-7.6c-2.4-1.9-5.4-2.3-8.1-1.5c0.9-2.7,0.4-5.8-1.5-8.1c-3-3.8-8.5-4.4-12.3-1.4
					c-3.8,3-4.4,8.5-1.4,12.3c2.3,2.9,6.2,3.9,9.5,2.9c-1.1,3.4-0.1,7.2,2.9,9.5c2.9,2.3,6.9,2.5,9.9,0.7c-0.3,3.5,1.5,7,4.9,8.6
					c3.4,1.6,7.3,0.9,9.8-1.6c0.5,3.5,3.1,6.5,6.7,7.3c3.6,0.8,7.3-0.8,9.2-3.7c1.2,3.3,4.4,5.7,8.2,5.7c3.7,0,6.9-2.4,8.2-5.7
					c1.9,2.9,5.6,4.5,9.2,3.7c3.6-0.8,6.2-3.8,6.7-7.3c2.6,2.4,6.4,3.2,9.8,1.6c3.4-1.6,5.2-5.1,4.9-8.6c3,1.8,7,1.7,9.9-0.7
					c2.9-2.3,3.9-6.2,2.9-9.5c3.4,1.1,7.2,0.1,9.5-2.9C730.7,423.7,730.1,418.2,726.3,415.2z"/>
				<path class="st56" d="M726.3,414.8c-3.8-3-9.3-2.4-12.3,1.4c-1.9,2.4-2.3,5.4-1.5,8.1c-2.7-0.9-5.8-0.4-8.1,1.5
					c-2.4,1.9-3.5,4.8-3.2,7.6c-2.4-1.4-5.5-1.7-8.3-0.4c-2.7,1.3-4.5,3.9-4.9,6.7c-2-2-5-2.9-8-2.2c-3,0.7-5.2,2.8-6.2,5.4
					c-1.6-2.4-4.2-3.9-7.3-3.9c-3,0-5.7,1.6-7.3,3.9c-1-2.6-3.3-4.8-6.2-5.4c-3-0.7-5.9,0.2-8,2.2c-0.4-2.8-2.1-5.4-4.9-6.7
					c-2.7-1.3-5.8-1.1-8.3,0.4c0.2-2.8-0.9-5.7-3.2-7.6c-2.4-1.9-5.4-2.3-8.1-1.5c0.9-2.7,0.4-5.8-1.5-8.1c-3-3.8-8.5-4.4-12.3-1.4
					c-3.8,3-4.4,8.5-1.4,12.3c2.3,2.9,6.2,3.9,9.5,2.9c-1.1,3.4-0.1,7.2,2.9,9.5c2.9,2.3,6.9,2.5,9.9,0.7c-0.3,3.5,1.5,7,4.9,8.6
					c3.4,1.6,7.3,0.9,9.8-1.6c0.5,3.5,3.1,6.5,6.7,7.3c3.6,0.8,7.3-0.8,9.2-3.7c1.2,3.3,4.4,5.7,8.2,5.7c3.7,0,6.9-2.4,8.2-5.7
					c1.9,2.9,5.6,4.5,9.2,3.7c3.6-0.8,6.2-3.8,6.7-7.3c2.6,2.4,6.4,3.2,9.8,1.6c3.4-1.6,5.2-5.1,4.9-8.6c3,1.8,7,1.7,9.9-0.7
					c2.9-2.3,3.9-6.2,2.9-9.5c3.4,1.1,7.2,0.1,9.5-2.9C730.7,423.3,730.1,417.8,726.3,414.8z"/>
				<path class="st57" d="M726.3,414.3c-3.8-3-9.3-2.4-12.3,1.4c-1.9,2.4-2.3,5.4-1.5,8.1c-2.7-0.9-5.8-0.4-8.1,1.5
					c-2.4,1.9-3.5,4.8-3.2,7.6c-2.4-1.4-5.5-1.7-8.3-0.4c-2.7,1.3-4.5,3.9-4.9,6.7c-2-2-5-2.9-8-2.2c-3,0.7-5.2,2.8-6.2,5.4
					c-1.6-2.4-4.2-3.9-7.3-3.9c-3,0-5.7,1.6-7.3,3.9c-1-2.6-3.3-4.8-6.2-5.4c-3-0.7-5.9,0.2-8,2.2c-0.4-2.8-2.1-5.4-4.9-6.7
					c-2.7-1.3-5.8-1.1-8.3,0.4c0.2-2.8-0.9-5.7-3.2-7.6c-2.4-1.9-5.4-2.3-8.1-1.5c0.9-2.7,0.4-5.8-1.5-8.1c-3-3.8-8.5-4.4-12.3-1.4
					c-3.8,3-4.4,8.5-1.4,12.3c2.3,2.9,6.2,3.9,9.5,2.9c-1.1,3.4-0.1,7.2,2.9,9.5c2.9,2.3,6.9,2.5,9.9,0.7c-0.3,3.5,1.5,7,4.9,8.6
					c3.4,1.6,7.3,0.9,9.8-1.6c0.5,3.5,3.1,6.5,6.7,7.3c3.6,0.8,7.3-0.8,9.2-3.7c1.2,3.3,4.4,5.7,8.2,5.7c3.7,0,6.9-2.4,8.2-5.7
					c1.9,2.9,5.6,4.5,9.2,3.7c3.6-0.8,6.2-3.8,6.7-7.3c2.6,2.4,6.4,3.2,9.8,1.6c3.4-1.6,5.2-5.1,4.9-8.6c3,1.8,7,1.7,9.9-0.7
					c2.9-2.3,3.9-6.2,2.9-9.5c3.4,1.1,7.2,0.1,9.5-2.9C730.7,422.8,730.1,417.3,726.3,414.3z"/>
				<path class="st58" d="M726.3,413.9c-3.8-3-9.3-2.4-12.3,1.4c-1.9,2.4-2.3,5.4-1.5,8.1c-2.7-0.9-5.8-0.4-8.1,1.5
					c-2.4,1.9-3.5,4.8-3.2,7.6c-2.4-1.4-5.5-1.7-8.3-0.4c-2.7,1.3-4.5,3.9-4.9,6.7c-2-2-5-2.9-8-2.2c-3,0.7-5.2,2.8-6.2,5.4
					c-1.6-2.4-4.2-3.9-7.3-3.9c-3,0-5.7,1.6-7.3,3.9c-1-2.6-3.3-4.8-6.2-5.4c-3-0.7-5.9,0.2-8,2.2c-0.4-2.8-2.1-5.4-4.9-6.7
					c-2.7-1.3-5.8-1.1-8.3,0.4c0.2-2.8-0.9-5.7-3.2-7.6c-2.4-1.9-5.4-2.3-8.1-1.5c0.9-2.7,0.4-5.8-1.5-8.1c-3-3.8-8.5-4.4-12.3-1.4
					c-3.8,3-4.4,8.5-1.4,12.3c2.3,2.9,6.2,3.9,9.5,2.9c-1.1,3.4-0.1,7.2,2.9,9.5c2.9,2.3,6.9,2.5,9.9,0.7c-0.3,3.5,1.5,7,4.9,8.6
					c3.4,1.6,7.3,0.9,9.8-1.6c0.5,3.5,3.1,6.5,6.7,7.3c3.6,0.8,7.3-0.8,9.2-3.7c1.2,3.3,4.4,5.7,8.2,5.7c3.7,0,6.9-2.4,8.2-5.7
					c1.9,2.9,5.6,4.5,9.2,3.7c3.6-0.8,6.2-3.8,6.7-7.3c2.6,2.4,6.4,3.2,9.8,1.6c3.4-1.6,5.2-5.1,4.9-8.6c3,1.8,7,1.7,9.9-0.7
					c2.9-2.3,3.9-6.2,2.9-9.5c3.4,1.1,7.2,0.1,9.5-2.9C730.7,422.4,730.1,416.9,726.3,413.9z"/>
				<path class="st59" d="M726.3,413.4c-3.8-3-9.3-2.4-12.3,1.4c-1.9,2.4-2.3,5.4-1.5,8.1c-2.7-0.9-5.8-0.4-8.1,1.5
					c-2.4,1.9-3.5,4.8-3.2,7.6c-2.4-1.4-5.5-1.7-8.3-0.4c-2.7,1.3-4.5,3.9-4.9,6.7c-2-2-5-2.9-8-2.2c-3,0.7-5.2,2.8-6.2,5.4
					c-1.6-2.4-4.2-3.9-7.3-3.9c-3,0-5.7,1.6-7.3,3.9c-1-2.6-3.3-4.8-6.2-5.4c-3-0.7-5.9,0.2-8,2.2c-0.4-2.8-2.1-5.4-4.9-6.7
					c-2.7-1.3-5.8-1.1-8.3,0.4c0.2-2.8-0.9-5.7-3.2-7.6c-2.4-1.9-5.4-2.3-8.1-1.5c0.9-2.7,0.4-5.8-1.5-8.1c-3-3.8-8.5-4.4-12.3-1.4
					c-3.8,3-4.4,8.5-1.4,12.3c2.3,2.9,6.2,3.9,9.5,2.9c-1.1,3.4-0.1,7.2,2.9,9.5c2.9,2.3,6.9,2.5,9.9,0.7c-0.3,3.5,1.5,7,4.9,8.6
					c3.4,1.6,7.3,0.9,9.8-1.6c0.5,3.5,3.1,6.5,6.7,7.3c3.6,0.8,7.3-0.8,9.2-3.7c1.2,3.3,4.4,5.7,8.2,5.7c3.7,0,6.9-2.4,8.2-5.7
					c1.9,2.9,5.6,4.5,9.2,3.7c3.6-0.8,6.2-3.8,6.7-7.3c2.6,2.4,6.4,3.2,9.8,1.6c3.4-1.6,5.2-5.1,4.9-8.6c3,1.8,7,1.7,9.9-0.7
					c2.9-2.3,3.9-6.2,2.9-9.5c3.4,1.1,7.2,0.1,9.5-2.9C730.7,421.9,730.1,416.4,726.3,413.4z"/>
				<path class="st60" d="M726.3,413c-3.8-3-9.3-2.4-12.3,1.4c-1.9,2.4-2.3,5.4-1.5,8.1c-2.7-0.9-5.8-0.4-8.1,1.5
					c-2.4,1.9-3.5,4.8-3.2,7.6c-2.4-1.4-5.5-1.7-8.3-0.4c-2.7,1.3-4.5,3.9-4.9,6.7c-2-2-5-2.9-8-2.2c-3,0.7-5.2,2.8-6.2,5.4
					c-1.6-2.4-4.2-3.9-7.3-3.9c-3,0-5.7,1.6-7.3,3.9c-1-2.6-3.3-4.8-6.2-5.4c-3-0.7-5.9,0.2-8,2.2c-0.4-2.8-2.1-5.4-4.9-6.7
					c-2.7-1.3-5.8-1.1-8.3,0.4c0.2-2.8-0.9-5.7-3.2-7.6c-2.4-1.9-5.4-2.3-8.1-1.5c0.9-2.7,0.4-5.8-1.5-8.1c-3-3.8-8.5-4.4-12.3-1.4
					c-3.8,3-4.4,8.5-1.4,12.3c2.3,2.9,6.2,3.9,9.5,2.9c-1.1,3.4-0.1,7.2,2.9,9.5c2.9,2.3,6.9,2.5,9.9,0.7c-0.3,3.5,1.5,7,4.9,8.6
					c3.4,1.6,7.3,0.9,9.8-1.6c0.5,3.5,3.1,6.5,6.7,7.3c3.6,0.8,7.3-0.8,9.2-3.7c1.2,3.3,4.4,5.7,8.2,5.7c3.7,0,6.9-2.4,8.2-5.7
					c1.9,2.9,5.6,4.5,9.2,3.7c3.6-0.8,6.2-3.8,6.7-7.3c2.6,2.4,6.4,3.2,9.8,1.6c3.4-1.6,5.2-5.1,4.9-8.6c3,1.8,7,1.7,9.9-0.7
					c2.9-2.3,3.9-6.2,2.9-9.5c3.4,1.1,7.2,0.1,9.5-2.9C730.7,421.5,730.1,416,726.3,413z"/>
				<path class="st61" d="M726.3,412.5c-3.8-3-9.3-2.4-12.3,1.4c-1.9,2.4-2.3,5.4-1.5,8.1c-2.7-0.9-5.8-0.4-8.1,1.5
					c-2.4,1.9-3.5,4.8-3.2,7.6c-2.4-1.4-5.5-1.7-8.3-0.4c-2.7,1.3-4.5,3.9-4.9,6.7c-2-2-5-2.9-8-2.2c-3,0.7-5.2,2.8-6.2,5.4
					c-1.6-2.4-4.2-3.9-7.3-3.9c-3,0-5.7,1.6-7.3,3.9c-1-2.6-3.3-4.8-6.2-5.4c-3-0.7-5.9,0.2-8,2.2c-0.4-2.8-2.1-5.4-4.9-6.7
					c-2.7-1.3-5.8-1.1-8.3,0.4c0.2-2.8-0.9-5.7-3.2-7.6c-2.4-1.9-5.4-2.3-8.1-1.5c0.9-2.7,0.4-5.8-1.5-8.1c-3-3.8-8.5-4.4-12.3-1.4
					c-3.8,3-4.4,8.5-1.4,12.3c2.3,2.9,6.2,3.9,9.5,2.9c-1.1,3.4-0.1,7.2,2.9,9.5c2.9,2.3,6.9,2.5,9.9,0.7c-0.3,3.5,1.5,7,4.9,8.6
					c3.4,1.6,7.3,0.9,9.8-1.6c0.5,3.5,3.1,6.5,6.7,7.3c3.6,0.8,7.3-0.8,9.2-3.7c1.2,3.3,4.4,5.7,8.2,5.7c3.7,0,6.9-2.4,8.2-5.7
					c1.9,2.9,5.6,4.5,9.2,3.7c3.6-0.8,6.2-3.8,6.7-7.3c2.6,2.4,6.4,3.2,9.8,1.6c3.4-1.6,5.2-5.1,4.9-8.6c3,1.8,7,1.7,9.9-0.7
					c2.9-2.3,3.9-6.2,2.9-9.5c3.4,1.1,7.2,0.1,9.5-2.9C730.7,421,730.1,415.5,726.3,412.5z"/>
				<path class="st62" d="M726.3,412.1c-3.8-3-9.3-2.4-12.3,1.4c-1.9,2.4-2.3,5.4-1.5,8.1c-2.7-0.9-5.8-0.4-8.1,1.5
					c-2.4,1.9-3.5,4.8-3.2,7.6c-2.4-1.4-5.5-1.7-8.3-0.4c-2.7,1.3-4.5,3.9-4.9,6.7c-2-2-5-2.9-8-2.2c-3,0.7-5.2,2.8-6.2,5.4
					c-1.6-2.4-4.2-3.9-7.3-3.9c-3,0-5.7,1.6-7.3,3.9c-1-2.6-3.3-4.8-6.2-5.4c-3-0.7-5.9,0.2-8,2.2c-0.4-2.8-2.1-5.4-4.9-6.7
					c-2.7-1.3-5.8-1.1-8.3,0.4c0.2-2.8-0.9-5.7-3.2-7.6c-2.4-1.9-5.4-2.3-8.1-1.5c0.9-2.7,0.4-5.8-1.5-8.1c-3-3.8-8.5-4.4-12.3-1.4
					c-3.8,3-4.4,8.5-1.4,12.3c2.3,2.9,6.2,3.9,9.5,2.9c-1.1,3.4-0.1,7.2,2.9,9.5c2.9,2.3,6.9,2.5,9.9,0.7c-0.3,3.5,1.5,7,4.9,8.6
					c3.4,1.6,7.3,0.9,9.8-1.6c0.5,3.5,3.1,6.5,6.7,7.3c3.6,0.8,7.3-0.8,9.2-3.7c1.2,3.3,4.4,5.7,8.2,5.7c3.7,0,6.9-2.4,8.2-5.7
					c1.9,2.9,5.6,4.5,9.2,3.7c3.6-0.8,6.2-3.8,6.7-7.3c2.6,2.4,6.4,3.2,9.8,1.6c3.4-1.6,5.2-5.1,4.9-8.6c3,1.8,7,1.7,9.9-0.7
					c2.9-2.3,3.9-6.2,2.9-9.5c3.4,1.1,7.2,0.1,9.5-2.9C730.7,420.6,730.1,415.1,726.3,412.1z"/>
				<path class="st63" d="M726.3,411.6c-3.8-3-9.3-2.4-12.3,1.4c-1.9,2.4-2.3,5.4-1.5,8.1c-2.7-0.9-5.8-0.4-8.1,1.5
					c-2.4,1.9-3.5,4.8-3.2,7.6c-2.4-1.4-5.5-1.7-8.3-0.4c-2.7,1.3-4.5,3.9-4.9,6.7c-2-2-5-2.9-8-2.2c-3,0.7-5.2,2.8-6.2,5.4
					c-1.6-2.4-4.2-3.9-7.3-3.9c-3,0-5.7,1.6-7.3,3.9c-1-2.6-3.3-4.8-6.2-5.4c-3-0.7-5.9,0.2-8,2.2c-0.4-2.8-2.1-5.4-4.9-6.7
					c-2.7-1.3-5.8-1.1-8.3,0.4c0.2-2.8-0.9-5.7-3.2-7.6c-2.4-1.9-5.4-2.3-8.1-1.5c0.9-2.7,0.4-5.8-1.5-8.1c-3-3.8-8.5-4.4-12.3-1.4
					c-3.8,3-4.4,8.5-1.4,12.3c2.3,2.9,6.2,3.9,9.5,2.9c-1.1,3.4-0.1,7.2,2.9,9.5c2.9,2.3,6.9,2.5,9.9,0.7c-0.3,3.5,1.5,7,4.9,8.6
					c3.4,1.6,7.3,0.9,9.8-1.6c0.5,3.5,3.1,6.5,6.7,7.3c3.6,0.8,7.3-0.8,9.2-3.7c1.2,3.3,4.4,5.7,8.2,5.7c3.7,0,6.9-2.4,8.2-5.7
					c1.9,2.9,5.6,4.5,9.2,3.7c3.6-0.8,6.2-3.8,6.7-7.3c2.6,2.4,6.4,3.2,9.8,1.6c3.4-1.6,5.2-5.1,4.9-8.6c3,1.8,7,1.7,9.9-0.7
					c2.9-2.3,3.9-6.2,2.9-9.5c3.4,1.1,7.2,0.1,9.5-2.9C730.7,420.1,730.1,414.6,726.3,411.6z"/>
				<path d="M726.3,411.2c-3.8-3-9.3-2.4-12.3,1.4c-1.9,2.4-2.3,5.4-1.5,8.1c-2.7-0.9-5.8-0.4-8.1,1.5c-2.4,1.9-3.5,4.8-3.2,7.6
					c-2.4-1.4-5.5-1.7-8.3-0.4c-2.7,1.3-4.5,3.9-4.9,6.7c-2-2-5-2.9-8-2.2c-3,0.7-5.2,2.8-6.2,5.4c-1.6-2.4-4.2-3.9-7.3-3.9
					c-3,0-5.7,1.6-7.3,3.9c-1-2.6-3.3-4.8-6.2-5.4c-3-0.7-5.9,0.2-8,2.2c-0.4-2.8-2.1-5.4-4.9-6.7c-2.7-1.3-5.8-1.1-8.3,0.4
					c0.2-2.8-0.9-5.7-3.2-7.6c-2.4-1.9-5.4-2.3-8.1-1.5c0.9-2.7,0.4-5.8-1.5-8.1c-3-3.8-8.5-4.4-12.3-1.4c-3.8,3-4.4,8.5-1.4,12.3
					c2.3,2.9,6.2,3.9,9.5,2.9c-1.1,3.4-0.1,7.2,2.9,9.5c2.9,2.3,6.9,2.5,9.9,0.7c-0.3,3.5,1.5,7,4.9,8.6c3.4,1.6,7.3,0.9,9.8-1.6
					c0.5,3.5,3.1,6.5,6.7,7.3c3.6,0.8,7.3-0.8,9.2-3.7c1.2,3.3,4.4,5.7,8.2,5.7c3.7,0,6.9-2.4,8.2-5.7c1.9,2.9,5.6,4.5,9.2,3.7
					c3.6-0.8,6.2-3.8,6.7-7.3c2.6,2.4,6.4,3.2,9.8,1.6c3.4-1.6,5.2-5.1,4.9-8.6c3,1.8,7,1.7,9.9-0.7c2.9-2.3,3.9-6.2,2.9-9.5
					c3.4,1.1,7.2,0.1,9.5-2.9C730.7,419.7,730.1,414.2,726.3,411.2z"/>
			</g>
		</g>
		<linearGradient id="SVGID_13_" gradientUnits="userSpaceOnUse" x1="657.8762" y1="305.3248" x2="675.3312" y2="305.3248">
			<stop  offset="0" style="stop-color:#01639C"/>
			<stop  offset="1" style="stop-color:#004580"/>
		</linearGradient>
		<circle class="st64" cx="666.6" cy="305.3" r="8.7"/>
		<linearGradient id="SVGID_14_" gradientUnits="userSpaceOnUse" x1="642.4302" y1="307.0649" x2="659.8892" y2="307.0649">
			<stop  offset="0" style="stop-color:#01639C"/>
			<stop  offset="1" style="stop-color:#004580"/>
		</linearGradient>
		<circle class="st65" cx="651.2" cy="307.1" r="8.7"/>
		<linearGradient id="SVGID_15_" gradientUnits="userSpaceOnUse" x1="627.7606" y1="312.198" x2="645.2197" y2="312.198">
			<stop  offset="0" style="stop-color:#01639C"/>
			<stop  offset="1" style="stop-color:#004580"/>
		</linearGradient>
		<circle class="st66" cx="636.5" cy="312.2" r="8.7"/>
		<linearGradient id="SVGID_16_" gradientUnits="userSpaceOnUse" x1="614.6027" y1="320.4667" x2="632.0584" y2="320.4667">
			<stop  offset="0" style="stop-color:#01639C"/>
			<stop  offset="1" style="stop-color:#004580"/>
		</linearGradient>
		<circle class="st67" cx="623.3" cy="320.5" r="8.7"/>
		<linearGradient id="SVGID_17_" gradientUnits="userSpaceOnUse" x1="603.613" y1="331.4564" x2="621.0688" y2="331.4564">
			<stop  offset="0" style="stop-color:#01639C"/>
			<stop  offset="1" style="stop-color:#004580"/>
		</linearGradient>
		<circle class="st68" cx="612.3" cy="331.5" r="8.7"/>
		<linearGradient id="SVGID_18_" gradientUnits="userSpaceOnUse" x1="603.613" y1="418.0026" x2="621.0688" y2="418.0026">
			<stop  offset="0" style="stop-color:#01639C"/>
			<stop  offset="1" style="stop-color:#004580"/>
		</linearGradient>
		<circle class="st69" cx="612.3" cy="418" r="8.7"/>
		<linearGradient id="SVGID_19_" gradientUnits="userSpaceOnUse" x1="614.6027" y1="428.9923" x2="632.0584" y2="428.9923">
			<stop  offset="0" style="stop-color:#01639C"/>
			<stop  offset="1" style="stop-color:#004580"/>
		</linearGradient>
		<circle class="st70" cx="623.3" cy="429" r="8.7"/>
		<linearGradient id="SVGID_20_" gradientUnits="userSpaceOnUse" x1="627.7606" y1="437.261" x2="645.2197" y2="437.261">
			<stop  offset="0" style="stop-color:#01639C"/>
			<stop  offset="1" style="stop-color:#004580"/>
		</linearGradient>
		<circle class="st71" cx="636.5" cy="437.3" r="8.7"/>
		<linearGradient id="SVGID_21_" gradientUnits="userSpaceOnUse" x1="642.4302" y1="442.3941" x2="659.8892" y2="442.3941">
			<stop  offset="0" style="stop-color:#01639C"/>
			<stop  offset="1" style="stop-color:#004580"/>
		</linearGradient>
		<circle class="st72" cx="651.2" cy="442.4" r="8.7"/>
		<linearGradient id="SVGID_22_" gradientUnits="userSpaceOnUse" x1="657.8762" y1="444.1342" x2="675.3312" y2="444.1342">
			<stop  offset="0" style="stop-color:#01639C"/>
			<stop  offset="1" style="stop-color:#004580"/>
		</linearGradient>
		<circle class="st73" cx="666.6" cy="444.1" r="8.7"/>
		<linearGradient id="SVGID_23_" gradientUnits="userSpaceOnUse" x1="673.3182" y1="442.3941" x2="690.7771" y2="442.3941">
			<stop  offset="0" style="stop-color:#01639C"/>
			<stop  offset="1" style="stop-color:#004580"/>
		</linearGradient>
		<circle class="st74" cx="682" cy="442.4" r="8.7"/>
		<linearGradient id="SVGID_24_" gradientUnits="userSpaceOnUse" x1="687.9877" y1="437.261" x2="705.4468" y2="437.261">
			<stop  offset="0" style="stop-color:#01639C"/>
			<stop  offset="1" style="stop-color:#004580"/>
		</linearGradient>
		<circle class="st75" cx="696.7" cy="437.3" r="8.7"/>
		<linearGradient id="SVGID_25_" gradientUnits="userSpaceOnUse" x1="701.1489" y1="428.9923" x2="718.6047" y2="428.9923">
			<stop  offset="0" style="stop-color:#01639C"/>
			<stop  offset="1" style="stop-color:#004580"/>
		</linearGradient>
		<circle class="st76" cx="709.9" cy="429" r="8.7"/>
		<linearGradient id="SVGID_26_" gradientUnits="userSpaceOnUse" x1="712.1386" y1="418.0026" x2="729.5943" y2="418.0026">
			<stop  offset="0" style="stop-color:#01639C"/>
			<stop  offset="1" style="stop-color:#004580"/>
		</linearGradient>
		<circle class="st77" cx="720.9" cy="418" r="8.7"/>
		<linearGradient id="SVGID_27_" gradientUnits="userSpaceOnUse" x1="720.4056" y1="404.8431" x2="737.8647" y2="404.8431">
			<stop  offset="0" style="stop-color:#01639C"/>
			<stop  offset="1" style="stop-color:#004580"/>
		</linearGradient>
		<circle class="st78" cx="729.1" cy="404.8" r="8.7"/>
		<linearGradient id="SVGID_28_" gradientUnits="userSpaceOnUse" x1="725.5388" y1="390.1735" x2="742.9977" y2="390.1735">
			<stop  offset="0" style="stop-color:#01639C"/>
			<stop  offset="1" style="stop-color:#004580"/>
		</linearGradient>
		<circle class="st79" cx="734.3" cy="390.2" r="8.7"/>
		<linearGradient id="SVGID_29_" gradientUnits="userSpaceOnUse" x1="727.2808" y1="374.7295" x2="744.7359" y2="374.7295">
			<stop  offset="0" style="stop-color:#01639C"/>
			<stop  offset="1" style="stop-color:#004580"/>
		</linearGradient>
		<circle class="st80" cx="736" cy="374.7" r="8.7"/>
		<linearGradient id="SVGID_30_" gradientUnits="userSpaceOnUse" x1="725.5388" y1="359.2855" x2="742.9977" y2="359.2855">
			<stop  offset="0" style="stop-color:#01639C"/>
			<stop  offset="1" style="stop-color:#004580"/>
		</linearGradient>
		<circle class="st81" cx="734.3" cy="359.3" r="8.7"/>
		<linearGradient id="SVGID_31_" gradientUnits="userSpaceOnUse" x1="720.4056" y1="344.6159" x2="737.8647" y2="344.6159">
			<stop  offset="0" style="stop-color:#01639C"/>
			<stop  offset="1" style="stop-color:#004580"/>
		</linearGradient>
		<circle class="st82" cx="729.1" cy="344.6" r="8.7"/>
		<linearGradient id="SVGID_32_" gradientUnits="userSpaceOnUse" x1="712.1386" y1="331.4564" x2="729.5943" y2="331.4564">
			<stop  offset="0" style="stop-color:#01639C"/>
			<stop  offset="1" style="stop-color:#004580"/>
		</linearGradient>
		<circle class="st83" cx="720.9" cy="331.5" r="8.7"/>
		<linearGradient id="SVGID_33_" gradientUnits="userSpaceOnUse" x1="701.1489" y1="320.4667" x2="718.6047" y2="320.4667">
			<stop  offset="0" style="stop-color:#01639C"/>
			<stop  offset="1" style="stop-color:#004580"/>
		</linearGradient>
		<circle class="st84" cx="709.9" cy="320.5" r="8.7"/>
		<linearGradient id="SVGID_34_" gradientUnits="userSpaceOnUse" x1="687.9877" y1="312.198" x2="705.4468" y2="312.198">
			<stop  offset="0" style="stop-color:#01639C"/>
			<stop  offset="1" style="stop-color:#004580"/>
		</linearGradient>
		<circle class="st85" cx="696.7" cy="312.2" r="8.7"/>
		<linearGradient id="SVGID_35_" gradientUnits="userSpaceOnUse" x1="673.3182" y1="307.0649" x2="690.7771" y2="307.0649">
			<stop  offset="0" style="stop-color:#01639C"/>
			<stop  offset="1" style="stop-color:#004580"/>
		</linearGradient>
		<circle class="st86" cx="682" cy="307.1" r="8.7"/>
		<g class="st87">
			<circle class="st51" cx="666.6" cy="374.7" r="73.1"/>
			<circle class="st52" cx="666.6" cy="374.7" r="72.9"/>
			<circle class="st53" cx="666.6" cy="374.7" r="72.6"/>
			<circle class="st54" cx="666.6" cy="374.7" r="72.4"/>
			<circle class="st55" cx="666.6" cy="374.7" r="72.1"/>
			<circle class="st56" cx="666.6" cy="374.7" r="71.9"/>
			<circle class="st57" cx="666.6" cy="374.7" r="71.6"/>
			<circle class="st58" cx="666.6" cy="374.7" r="71.4"/>
			<circle class="st59" cx="666.6" cy="374.7" r="71.1"/>
			<circle class="st60" cx="666.6" cy="374.7" r="70.8"/>
			<circle class="st61" cx="666.6" cy="374.7" r="70.6"/>
			<circle class="st62" cx="666.6" cy="374.7" r="70.3"/>
			<circle class="st63" cx="666.6" cy="374.7" r="70.1"/>
			<circle cx="666.6" cy="374.7" r="69.8"/>
		</g>
		<linearGradient id="SVGID_36_" gradientUnits="userSpaceOnUse" x1="625.9883" y1="307.822" x2="707.3198" y2="441.803">
			<stop  offset="0" style="stop-color:#014E7A"/>
			<stop  offset="1" style="stop-color:#003664"/>
		</linearGradient>
		<circle class="st88" cx="666.6" cy="374.7" r="69.8"/>
		<circle class="st7" cx="666.6" cy="374.7" r="59.8"/>
		<linearGradient id="SVGID_37_" gradientUnits="userSpaceOnUse" x1="625.9883" y1="307.822" x2="707.3199" y2="441.8032">
			<stop  offset="0" style="stop-color:#A7D63F"/>
			<stop  offset="7.382721e-02" style="stop-color:#9FD340"/>
			<stop  offset="1" style="stop-color:#39B54A"/>
		</linearGradient>
		<circle class="st89" cx="666.6" cy="374.7" r="56.1"/>
		<path class="st7" d="M625.9,380.7l27,29.3c1.1,1.2,3.1,1.2,4.1-0.1l47.2-58.2c1-1.2,0.8-3-0.5-3.9l-11.6-8.6
			c-1.2-0.9-2.9-0.6-3.8,0.5l-31,40.1c-1,1.3-2.9,1.4-4.1,0.3l-13.4-13.4c-1.1-1.1-2.8-1.1-3.9,0l-10.1,10.3
			C624.9,378,624.9,379.6,625.9,380.7z"/>
	</g>
</g>
</svg>
