<svg xmlns="http://www.w3.org/2000/svg" xmlns:xlink="http://www.w3.org/1999/xlink" viewBox="0 0 400 520" xmlns:v="https://vecta.io/nano"><style><![CDATA[.m{fill:#ffb93e}.n{fill:#ffa412}.o{fill:#ffb27d}.p{fill:#2b478b}.q{fill:#233862}.r{enable-background:new}.s{fill:#2c3a64}]]></style><path d="M26.2 368.6s-48.6-52.3-8.2-108.8c35.9-50.1 77.7-46.8 108.4-26.4 13.1 8.7 50.7 1.1 82.9-50 43.8-69.6 195.3-27.4 167.6 79.7-13.4 51.9 40.7 53.7 13.2 105.5H26.2z" fill="#ebf3fa"/><use xlink:href="#B" class="m"/><g class="n"><path d="M257.1 339.2l-4.6 27.9c-.1.6-.8 1-1.5.9h-.1l-3.7-.6h-.1c-.7-.2-1.3-.7-1.2-1.3l4.1-24.4c1.9-.1 4.7-.7 7.1-2.5zm-3.584-19.626l.098-.592 6.61 1.093-.098.592z"/><use xlink:href="#C"/><path d="M252.819 323.999l.098-.592 6.61 1.091-.098.592z"/><use xlink:href="#D"/><use xlink:href="#D" x="-0.727" y="3.85"/><use xlink:href="#C" x="-2.703" y="15.956"/><path d="M249.624 343.06l.098-.592 6.61 1.093-.098.592z"/><use xlink:href="#D" x="-3.353" y="20.47"/><use xlink:href="#C" x="0.592" y="-3.977"/><use xlink:href="#D" x="1.779" y="-11.272"/><use xlink:href="#C" x="0.999" y="-6.397"/><path d="M254.4 314.2l6.6 1.1.1-.4v-.2l-6.6-1.1c0 .1 0 .1-.1.2v.4zm.2-.7l6.4 1c-.1-.3-.2-.5-.4-.7l-5.4-.9c-.2.2-.4.3-.6.6z"/></g><use xlink:href="#B" x="6.8" class="m"/><g class="n"><path d="M263.8 339.2l-4.6 27.9c-.1.6-.8 1-1.5.9h-.1l-3.7-.6h-.1c-.7-.2-1.3-.7-1.2-1.3l4.1-24.4c2-.1 4.8-.7 7.1-2.5zm-3.507-19.567l.098-.592 6.61 1.093-.098.592z"/><use xlink:href="#C" x="6.772" y="0.072"/><path d="M259.611 323.959l.098-.592 6.61 1.091-.098.592z"/><use xlink:href="#D" x="6.683" y="0.028"/><use xlink:href="#D" x="6.066" y="3.81"/><path d="M257.291 337.479l.098-.592 6.61 1.091-.098.592z"/><use xlink:href="#D" x="4.073" y="15.452"/><use xlink:href="#D" x="3.347" y="20.399"/><path d="M260.559 317.73l.098-.592 6.61 1.091-.098.592z"/><use xlink:href="#C" x="7.553" y="-5.118"/><use xlink:href="#C" x="7.779" y="-6.354"/><path d="M261.2 314.2l6.6 1.1.1-.4v-.2l-6.6-1.1c0 .1 0 .1-.1.2v.4zm.2-.7l6.4 1c-.1-.3-.2-.5-.4-.7l-5.4-.9c-.2.2-.4.3-.6.6z"/></g><path d="M238.1 362.8v3.7c0 .3-.1.6-.2.8s-.4.4-.6.5c-.1 0-.2.1-.2.1h-.2l-52.8-.1c-.7 0-1.2-.6-1.3-1.4v-.1-3.7-.1c0-.8.6-1.4 1.3-1.4l52.8.1h.2c.1 0 .2 0 .2.1.2.1.4.3.6.5.1.4.2.7.2 1z" class="m"/><g class="n"><path d="M212.2 368l-28.3-.1c-.6 0-1.1-.6-1.1-1.4v-.1-3.7-.1c0-.8.5-1.4 1.1-1.4l24.8.1c.4 1.9 1.4 4.7 3.5 6.7z"/><use xlink:href="#E"/><use xlink:href="#E" x="-2.117" y="-0.033"/><path d="M226.634 367.957l.017-6.7.6.002-.017 6.7z"/><use xlink:href="#F"/><use xlink:href="#E" x="-12.199" y="-0.018"/><use xlink:href="#E" x="-18.248" y="-0.033"/><use xlink:href="#E" x="-23.893" y="0.017"/><path d="M202.243 368.006l.017-6.7.6.002-.017 6.7z"/><use xlink:href="#E" x="1.915" y="0.039"/><use xlink:href="#G"/><use xlink:href="#E" x="4.436" y="-0.077"/><path d="M236.5 361.4v6.7h.4.2v-6.7h-.2-.4zm.8.1v6.5c.2-.1.4-.3.6-.5v-5.4c-.1-.4-.3-.5-.6-.6z"/></g><path d="M232.5 356.1v3.7c0 .3-.1.6-.2.8s-.4.4-.6.5c-.1 0-.2.1-.2.1h-.2l-52.8-.1c-.7 0-1.2-.6-1.3-1.4v-.1-3.7-.1c0-.8.6-1.4 1.3-1.4l52.8.1h.1 0 0 0c.1 0 .2 0 .2.1h0 0 .1 0 0 .1l.1.1h0 0 0l.1.1h0 0v.1c.4.6.5.9.5 1.2z" class="m"/><g class="n"><path d="M206.6 361.3l-28.3-.1c-.6 0-1.1-.6-1.1-1.4v-.1-3.7-.1c0-.8.5-1.4 1.1-1.4l24.8.1v.2c.5 1.9 1.4 4.6 3.5 6.5z"/><use xlink:href="#F" x="2.53" y="-6.687"/><use xlink:href="#F" x="0.514" y="-6.72"/><use xlink:href="#E" x="-10.173" y="-6.736"/><use xlink:href="#E" x="-13.903" y="-6.648"/><use xlink:href="#G" x="-20.959" y="-6.76"/><path d="M207.295 361.234l.017-6.7.6.002-.017 6.7z"/><use xlink:href="#E" x="-29.528" y="-6.751"/><use xlink:href="#G" x="-37.692" y="-6.872"/><use xlink:href="#F" x="4.445" y="-6.649"/><use xlink:href="#E" x="-2.511" y="-6.695"/><use xlink:href="#E" x="-1.301" y="-6.646"/><path d="M230.8 354.6v6.7h.4.2v-6.7h-.2-.4z"/><use xlink:href="#H"/></g><path d="M235.3 349.6v3.7c0 .3-.1.6-.2.8s-.4.4-.6.5c-.1 0-.2.1-.2.1h-.2l-52.8-.1c-.2 0-.4-.1-.6-.2-.4-.2-.6-.6-.7-1.1v-.1-.1-3.7-.1c0-.8.6-1.4 1.3-1.4l52.8.1h.2c.1 0 .2 0 .2.1.2.1.4.3.6.5.1.4.2.6.2 1z" class="m"/><path d="M209.3 354.7l-28.3-.1c-.2 0-.4-.1-.5-.2-.3-.2-.6-.6-.6-1.1v-.1-.1-3.7-.1c0-.8.5-1.4 1.1-1.4l24.8.1c.4 1.9 1.2 4.6 3.2 6.6.2 0 .2.1.3.1z" class="n"/><use xlink:href="#I" class="m"/><path d="M210.6 348l-28.3-.1c-.6 0-1.1-.6-1.1-1.4v-.1-3.7-.1c0-.7.5-1.3 1-1.4h.1l24.8.1h0c.4 2.1 1.3 4.8 3.5 6.7z" class="n"/><path d="M232.6 336.2v3.7c0 .3-.1.6-.2.8s-.4.4-.6.5c-.1 0-.2.1-.2.1h-.1 0 0-.1l-52.8-.1c-.7 0-1.2-.6-1.3-1.4v-.1-3.7-.1-.1c.1-.6.4-1.1.9-1.3h0 .3l52.8.1h.1.1 0 .1c.1 0 .2 0 .2.1.2.1.4.3.6.5.1.4.2.7.2 1z" class="m"/><path d="M206.7 341.3l-28.3-.1c-.6 0-1.1-.6-1.1-1.4v-.1-3.7-.1-.1c0-.6.4-1.1.9-1.3h0 .2l24.8.1h0c.5 2.1 1.4 4.7 3.5 6.7h0z" class="n"/><path d="M232.5 329.5v3.7c0 .3-.1.6-.2.8s-.4.4-.6.5c-.1 0-.1 0-.2.1h0 0-.2l-52.8-.1h-.2-.1c-.6-.1-1-.7-1-1.3v-.1-3.7-.1c0-.8.6-1.4 1.3-1.4l52.8.1h.1 0 0 0c.1 0 .2 0 .2.1h0 0 .1.1.1l.1.1h0 0 0l.1.1h0 0v.1c.3.6.4.8.4 1.1z" class="m"/><path d="M206.6 334.8l-28.3-.1h-.1-.1c-.5-.1-1-.7-1-1.4v-.1-3.7-.1c0-.8.5-1.4 1.1-1.4l24.8.1v.2c.7 1.8 1.6 4.4 3.6 6.5 0-.1 0-.1 0 0z" class="n"/><path d="M235.3 323v3.7c0 .3-.1.6-.2.8s-.4.4-.6.5c-.1 0-.2.1-.2.1h-.2l-52.8-.1c-.2 0-.4-.1-.6-.2-.4-.2-.6-.6-.7-1.1v-.1-.1-3.7-.1c0-.8.6-1.4 1.3-1.4l52.8.1h.2c.1 0 .2 0 .2.1.2.1.4.3.6.5.1.4.2.7.2 1z" class="m"/><path d="M209.3 328.2l-28.3-.1c-.2 0-.4-.1-.5-.2-.3-.2-.6-.6-.6-1.1v-.1-.1-3.7-.1c0-.8.5-1.4 1.1-1.4l24.8.1c.4 1.9 1.2 4.6 3.2 6.6.2 0 .3.1.3.1z" class="n"/><use xlink:href="#I" x="3.1" y="-26.6" class="m"/><path d="M213.7 321.5l-28.3-.1c-.6 0-1.1-.6-1.1-1.4v-.1-3.7-.1c0-.7.5-1.3 1-1.4h.1l24.8.1h0c.5 1.9 1.4 4.7 3.5 6.7z" class="n"/><path d="M232.7 309.6v3.7c0 .3-.1.6-.2.8s-.4.4-.6.5c-.1 0-.2.1-.2.1h-.1-.1 0-.1l-52.8-.1c-.7 0-1.2-.6-1.3-1.4v-.1-3.7-.1c0-.8.6-1.4 1.3-1.4l52.8.1h.1.2c.1 0 .2 0 .2.1 0 0 .1 0 .1.1h.1 0 .1 0 .1l.1.1h0 0 0 0v.1.1c.2.5.3.8.3 1.1z" class="m"/><path d="M206.8 314.8l-28.3-.1c-.6 0-1.1-.6-1.1-1.4v-.1-3.7-.1c0-.8.5-1.4 1.1-1.4l24.8.1v.2c.5 2 1.4 4.6 3.5 6.5h0z" class="n"/><path d="M236.6 303.1v3.7c0 .3-.1.6-.2.8s-.4.4-.6.5c-.1 0-.2.1-.2.1h-.2l-52.8-.1c-.2 0-.4-.1-.6-.2-.4-.2-.7-.7-.7-1.2v-.1-.1-3.7-.1c0-.7.5-1.3 1.1-1.4h.1l52.8.1h.2c.1 0 .2 0 .2.1.2.1.4.3.6.5.2.6.3.8.3 1.1z" class="m"/><path d="M210.7 308.2l-28.3-.1c-.2 0-.4-.1-.5-.2-.3-.2-.6-.7-.6-1.2v-.1-.1-3.7-.1c0-.7.5-1.3 1-1.4h.1l24.8.1h0c.4 1.9 1.2 4.6 3.3 6.6l.2.2z" class="n"/><path d="M232.7 296.4v3.7c0 .3-.1.6-.2.8s-.4.4-.6.5c-.1 0-.2.1-.2.1h-.1 0 0-.1l-52.8-.1c-.7 0-1.2-.6-1.3-1.4v-.1-3.7-.1c0-.8.6-1.4 1.3-1.4l52.8.1h.2c.1 0 .2 0 .2.1.2.1.4.3.6.5.1.4.2.7.2 1z" class="m"/><g class="n"><path d="M206.8 301.5l-28.3-.1c-.6 0-1.1-.6-1.1-1.4v-.1-3.7-.1c0-.8.5-1.4 1.1-1.4l24.8.1c.5 2.1 1.4 4.7 3.5 6.7h0z"/><use xlink:href="#E" x="-2.934" y="-13.212"/><use xlink:href="#G" x="-8.074" y="-13.318"/><use xlink:href="#G" x="-10.5" y="-13.263"/><use xlink:href="#E" x="-11.1" y="-13.191"/><use xlink:href="#E" x="-15.031" y="-13.229"/><use xlink:href="#E" x="-21.18" y="-13.347"/><use xlink:href="#G" x="-29.949" y="-13.371"/><use xlink:href="#E" x="-31.866" y="-13.342"/><use xlink:href="#E" x="-1.018" y="-13.173"/><use xlink:href="#G" x="-2.832" y="-13.312"/><use xlink:href="#E" x="1.502" y="-13.189"/><path d="M233.6 348.1v6.7h.4.2v-6.7h-.2-.4z"/><use xlink:href="#H" x="2.8" y="-6.5"/><use xlink:href="#E" x="-19.861" y="-19.896"/><use xlink:href="#F" x="-17.238" y="-19.965"/><use xlink:href="#E" x="-30.646" y="-20.093"/><path d="M232 348.1v-6.7h-.5.1v-6.7h-.1v-6.5h.2v6.5c.2-.1.4-.3.6-.5v-5.4c-.1-.2-.3-.4-.5-.5h.2v-6.7h-.6v6.6h-.2-.4v6.7h.1v6.7h.4.1v6.7l.6-.2z"/><use xlink:href="#E" x="1.513" y="-19.989"/><path d="M233.899 348.096l.017-6.7.6.002-.017 6.7zm1.001-6.696v6.7h.4.2v-6.7h-.2-.4zm.8.2v6.5c.2-.1.4-.3.6-.5v-5.4a.9.9 0 0 0-.6-.6zm-9.4-.2v-6.6h-.1v-6.7h-.7v6.7h.2v6.6h-.7v6.7h.7v-6.7zm-4.5-6.7h-.1v-6.6h-.6v6.7h.1v6.6h.1v6.7h.6v-6.8h-.1zm10 .2v6.5c.2-.1.4-.3.6-.5v-5.4c-.1-.3-.4-.5-.6-.6zm-13.8-6.8h-.7v6.7h.1v6.5h-.1v6.7h.7v-6.7h.1v-6.6h-.1zm-4 0h-.6v6.7h.1v6.5h.6v-6.6h-.1zm-6.1-.1h-.6v6.8h.1v6.5h.6v-6.6h-.1zm-5.6 0h-.7v6.7h.1v6.6h.7v-6.6h-.1zm-5 0h-.6l-.1 6.7h.2l-.1 6.6h.6v-6.6h-.1zm30.8.1h-.6v6.7h.1v6.6h-.1v6.7h.6v-6.7h.1v-6.6h-.1zm1.2 0h-.4v-6.6h-.6v6.8h.5l-.1 6.5h.2l-.1 6.6h.6v-6.6h-.1z"/><use xlink:href="#E" x="-4.855" y="-39.887"/><path d="M223.8 328.1h-.3v6.7h.1v6.6h.6v-6.7h-.1v-6.5h.3v-6.7h-.6zm-3.735.092l.017-6.7.6.002-.017 6.7z"/><use xlink:href="#E" x="-15.038" y="-39.873"/><use xlink:href="#F" x="-12.819" y="-39.806"/><use xlink:href="#G" x="-29.862" y="-39.921"/><use xlink:href="#E" x="-31.773" y="-39.784"/><path d="M230.2 328.1h-.2v6.7h.1v6.6h-.6v6.7h.6v-6.7h.5l.1-6.6h-.1v-6.5h.2v-6.7h-.6z"/><use xlink:href="#E" x="1.597" y="-39.833"/><path d="M234.3 328.2v-6.7h-.2-.4v6.7h.4c0 .1.1.1.2 0zm.8-.6v-5.4c-.1-.2-.3-.4-.6-.5v6.5c.2-.1.4-.3.6-.6z"/><use xlink:href="#E" x="1.404" y="-46.45"/><use xlink:href="#E" x="-6.861" y="-46.532"/><use xlink:href="#E" x="-10.793" y="-46.57"/><use xlink:href="#E" x="-16.742" y="-46.585"/><use xlink:href="#E" x="-22.388" y="-46.535"/><use xlink:href="#G" x="-30.652" y="-46.654"/><use xlink:href="#E" x="3.42" y="-46.411"/><use xlink:href="#E" x="4.631" y="-46.476"/><use xlink:href="#F" x="14.106" y="-46.444"/><path d="M238 314.9v6.7h.4.2v-6.7h-.2-.4z"/><use xlink:href="#H" x="7.1" y="-39.7"/><path d="M225.7 314.8h.6v-6.7h-.6l.1-6.5h.5V295h-.5l-.1 6.6h-.6v6.7h.6zm-2.109.023l.017-6.7.6.002-.017 6.7z"/><use xlink:href="#E" x="-17.661" y="-53.191"/><use xlink:href="#F" x="-15.44" y="-53.323"/><use xlink:href="#E" x="-29.354" y="-53.257"/><use xlink:href="#F" x="-26.126" y="-53.318"/><path d="M227.6 314.8h.6l-.1 6.7h.6v-6.7h-.5v-6.7h0v-6.5h0l.1-6.6h-.6v6.6h-.1v6.7h0zm1.235.031l.012-6.7.6.001-.012 6.7zM232 308.3h.1v-6.7h-.5.1V295h-.2-.4v6.7h.4.1v6.6h-.1-.4v6.7h-.3v-6.7h-.6v-6.5h.6v-6.7h-.6v6.7h-.6v6.7h.6v6.6h.4v6.7h.6V315h.2.2v-6.5h.2v6.5c.2-.1.4-.3.6-.5v-5.4c-.1-.5-.2-.7-.4-.8z"/><use xlink:href="#G" x="-23" y="-59.835"/><use xlink:href="#E" x="-25.522" y="-59.812"/><use xlink:href="#E" x="-30.562" y="-59.757"/><use xlink:href="#F" x="9.863" y="-59.668"/><use xlink:href="#E" x="2.806" y="-59.704"/><path d="M235 301.6v6.7h.4.2v-6.7h-.2-.4zm1.4 6.1v-5.4c-.1-.2-.3-.4-.6-.5v6.5l.6-.6z"/><use xlink:href="#E" x="-7.488" y="-66.426"/><path d="M221.8 295h-.5l-.1 6.6h.2v6.5h-.2v6.7h.6v-6.5h.2v-6.7h-.2zm-4.3 6.5h-.1v6.8h0v6.5h.7v-6.7h0v-6.5h0l.1-6.7h-.7z"/><use xlink:href="#E" x="-17.67" y="-66.513"/><use xlink:href="#E" x="-23.719" y="-66.429"/><path d="M201.813 301.56l.017-6.7.6.002-.017 6.7z"/><use xlink:href="#G" x="-37.528" y="-66.597"/><path d="M228.924 301.61l.017-6.7.6.002-.017 6.7z"/><use xlink:href="#H" x="0.2" y="-59.6"/></g><path d="M249.5 312.9l3.7.7c.3.1.6.2.8.4s.4.4.4.7v.2.2l-9.2 52c-.1.7-.8 1.1-1.6 1h-.1l-3.7-.7h-.1c-.7-.2-1.2-.8-1.1-1.5l9.2-52v-.1h0 0 0c0-.1.1-.1.1-.2h0 0v-.1h0 0l.1-.1.1-.1h.1 0 0s.1 0 .1-.1h0 0 .1c.4-.3.7-.3 1.1-.3z" class="m"/><g class="n"><path d="M250.1 339.3l-5 27.9c-.1.6-.8 1-1.5.9h-.1l-3.7-.7h-.1c-.7-.2-1.3-.8-1.1-1.3l4.4-24.4h.2c1.9-.3 4.6-.7 6.9-2.4zm-3.272-19.753l.105-.591 6.595 1.177-.105.591zm-.439 1.908l.105-.591 6.596 1.174-.105.591zm-.352 2.467l.105-.591 6.596 1.175-.105.591zm-.697 3.646l.105-.591 6.596 1.175-.105.591zm-.751 3.878l.105-.591 6.596 1.174-.105.591zm-1 5.907l.105-.591 6.596 1.176-.105.591z"/><path d="M242.546 343.018l.105-.591 6.596 1.174-.105.591zm-.922 5.016l.105-.591 6.595 1.177-.105.591zm5.527-30.365l.105-.591 6.596 1.175-.105.591zm.227-1.323l.105-.591 6.596 1.176-.105.591zm.209-1.225l.105-.591 6.596 1.175-.105.591zm.113-.821l6.6 1.2.1-.4v-.2l-6.6-1.1c0 .1 0 .1-.1.2v.3zm.3-.8l6.4 1.1c-.1-.3-.2-.5-.4-.7l-5.4-.9c-.3.1-.5.2-.6.5z"/></g><path d="M375.2 368h-22.7c-1.2-1 .8-3.3 2.9-3.5.9-.1 2.1.1 3.4.4.3-4.2 2.1-22.8 8.8-22 7.6.8 0 8.2-2.1 12.6-1.6 3.2-3.2 7.9-4.1 10 .6.1 1.2.3 1.9.4 1-3 4.8-13.4 9.4-12.8 5.6.7 3.3 4.9-.6 7.3-2.9 1.8-6.5 4.4-8.1 5.6 1.4.2 2.9.4 4.5.4 4-.1 5.9 1 6.7 1.6zm-295.5-.7c-.9-1.4-3.6-5.1-7.2-4.6-4 .5 4.4 3.1 6.9 4.7-.6 0-1 0-1.4-.2-1.7-.6-4.6.5-5.6.9h16.1c-.1-.4-.4-1-1.1-1.5-.3-.2-.8-.2-1.5-.1.9-1.1 1.6-4.8-1-3.8-1.9.7-1.9 2.8-1.7 4.2-.4.1-.8.1-1.2.2-.8-4.1-3.6-16.1-9.4-16.4-5.9-.3 5 12.5 8.5 16.5-.6 0-1 0-1.4.1z" fill="#82b378"/><circle transform="matrix(.8757 -.4828 .4828 .8757 -92.47 138.6507)" cx="223.1" cy="249" r="23.2" fill="#e2810e"/><circle transform="matrix(.8757 -.4828 .4828 .8757 -93.1922 137.9099)" cx="221.3" cy="250" r="23.2" class="m"/><path d="M221.5 271.4c-7.5 0-14.7-4-18.5-10.9-2.7-5-3.3-10.6-1.8-16.1 1.6-5.5 5.2-9.9 10.1-12.7 5-2.7 10.6-3.3 16.1-1.8 5.5 1.6 9.9 5.2 12.7 10.1 5.7 10.2 1.9 23.1-8.3 28.8-3.3 1.7-6.9 2.6-10.3 2.6zm-.1-41.1a20.39 20.39 0 0 0-9.6 2.4c-4.7 2.5-8 6.8-9.5 11.9s-.9 10.4 1.7 15.1c3.6 6.6 10.4 10.3 17.4 10.3 3.2 0 6.5-.8 9.5-2.4 9.6-5.3 13.1-17.4 7.8-27-2.5-4.7-6.8-8-11.9-9.5-1.7-.6-3.5-.8-5.4-.8zm5.6 23.9c-.2-.4-.4-.8-.6-1-.2-.3-.6-.5-.9-.6-.4-.2-.8-.2-1.3-.3-.5 0-1.1-.1-1.8 0-1.2.1-2.3.1-3.3 0s-2-.2-2.8-.5-1.6-.7-2.2-1.3-1.1-1.3-1.5-2.3c-.3-.9-.5-1.7-.5-2.5s.2-1.6.5-2.4c.3-.7.8-1.4 1.5-2.1.6-.6 1.4-1.2 2.4-1.7l-1.3-3.2 2.6-1 1.3 3.3c1-.3 1.9-.4 2.8-.3s1.7.3 2.5.7 1.5.9 2.1 1.6 1.1 1.5 1.5 2.5l-4.8 1.9c-.5-1.2-1.1-2-1.9-2.4s-1.6-.4-2.5 0c-.5.2-.9.4-1.2.7s-.5.6-.6.9-.2.7-.2 1c0 .4.1.7.3 1.1s.3.7.6.9c.2.3.5.5.9.6l1.3.3c.5 0 1.2.1 1.9 0h3.3c1 .1 1.9.2 2.8.5.8.3 1.6.7 2.2 1.3s1.1 1.3 1.5 2.3c.4.9.5 1.7.5 2.6 0 .8-.2 1.6-.6 2.3s-.9 1.4-1.5 2.1c-.7.6-1.5 1.2-2.4 1.7l1.2 3-2.6 1-1.2-3c-.9.3-1.9.4-2.8.5-1 0-1.9-.1-2.7-.4a6.08 6.08 0 0 1-2.4-1.5c-.7-.7-1.3-1.7-1.8-2.9l4.8-1.9c.3.7.6 1.3 1 1.7s.8.7 1.3.8c.4.1.9.2 1.4.1s.9-.2 1.4-.4.9-.5 1.3-.7.6-.6.7-.9c.2-.3.2-.7.2-1.1-.2-.3-.2-.7-.4-1z" class="n"/><path d="M244.4 236.5c-1-.7-3.1-2.2-3.2-1.8-.1.2 0 .6.3 1.1-1.3-.5-2.7-.8-5.9-.2-.6.1-1.2.5-1.6 1-.3.5-.4 1.1.4 1.6 1.6 1 1.1.4 3.4 1.9 2.2 1.5 5.1 1.8 6.7.8l2.2-.4.3-3.6-2.6-.4zm58.3-30.7s-5.3 6.2-12 3.6c0 0-1.4-3.4-1.4-6.1v-.9l-.1-4.6h0c.3-.1 10.2-4.2 10.2-3.8-.1 7.9 3.3 11.8 3.3 11.8z" class="o"/><path d="M298.5 196c-.9 1.7-4.3 5.3-9.1 6.5 0-2.9-.1-4.6-.1-4.6h0c.3 0 9.5-2.5 9.2-1.9z" fill="#ed975d"/><path d="M287.1 197.6s11.1 2.6 12.7-4.4c1.5-7 4-11.3-3-13.3-7.1-1.9-9 .4-10.1 2.6-1.1 2.3-2.4 14.3.4 15.1z" class="o"/><path d="M299.5 195.2c.2.1 2.5.8 7.1-8.2.7-1.4 1.2-4.5-.5-7.2-1.6-2.7-7.6-4.9-12.5-5.8s-6.1 1.8-7.2 4.6c-1.2 2.9-4.7 5.3-4.7 5.3 4.3 2.3 9.3-1 11-.5s2.4 3.3 2.5 4.3c.1.9.3 1.6 2.5.8s1 3.1.6 3.8c.2 0-.1 2.1 1.2 2.9z" fill="#a9453d"/><path d="M328.2 369h6.8c1.4 0 3-1.4 3.3-4.1.4-2.6 3.3-4.1 4-6.2.6-2.1-2.6-5.1-2.6-5.1l-.5-.7-.6-.7-5.3 1.3-.2 2.9c-.1 1.2-.1 2.5 0 3.7.2 2.8-.8 5.9-3.3 6.5-2.7.6-1.6 2.4-1.6 2.4zm-47 0h17.9c.2 0 .3-.1.4-.1 1.2-.6.8-5.2.7-6.6v-.4s-6.3-5.1-7.2-1.2c0 .1-.1.2-.1.4h0c-1.1 3.6-6 5.3-8.8 5.7-2.2.4-2.7 1.6-2.9 2.2z" class="s"/><path d="M284.8 265.8l2.1 26.2 3.5 47.9c.3 7.9 1.6 20.5 1.6 20.5s3 3 9 1.7c0 0 5.4-17.9 6.9-37 0-.3 0-.6.1-.9l3.6-60.1-26.8 1.7z" class="p"/><path d="M284.8 265.8l2.1 26.2 21 33.1c0-.3 0-.6.1-.9l3.6-60.1-26.8 1.7z" class="q"/><path d="M289.2 267.2s17.2 43.1 28.6 63.5l14.9 25.9s6.5-2.6 7.1-4.4c0 0-4.4-39.2-12-48.7-4.3-5.4-9.3-21.6-9.5-27.2-.2-5.7-1.5-16.9-1.5-16.9l-27.6 7.8z" class="p"/><path d="M328.5 259.4l.2 2.7s-1.8 5 3.3 7.5c0 0 2.2.9 2.3-.8s-.2-1.1 0-3.4c.2-2.4-.8-4.7-2.3-5.5l-1.3-1.5-2.2 1z" class="o"/><path d="M330.5 261.4c-1.9.6-2.2.5-2.2.5l-10.2-18.4c-.9-1.5-19.8-18.9-19.8-18.9l4.9-18s21.4 27.7 23.6 31.6c3.8 6.6 6.1 21.8 6.1 21.8s-1 .9-2.4 1.4z" fill="#1e3d70"/><path d="M281.2 231.5a295.81 295.81 0 0 0 .6 12.1c0 .2 0 .5.1.7l.6 7.8.3 3v.1c0 .4.1.8.1 1.1.9 9.5 1.9 17.1 2.1 17.2s.5.2.7.2c2.5-.3 10 .3 16.1-1.1 5.2-1.1 9.6-3.1 14.4-6 .6-.4 2-1.3 1.9-2.1s-.3-1.9-.6-3.4c-.9-5.1-2.5-13.9-3-24.1-.1-1.9-.3-3.7-.5-5.7-.5-4.9-1.4-9.4-2.5-13.5-2.1-7.6-5.2-13.4-9-15.6-.5-.3-3.2 1.4-5.8 3-2.3 1.5-4.8 1.9-7.1 1.7l-2.1 2.3c-2.5 2.9-5.2 6.8-6 12.4-.1.4-.1.8-.1 1.3a78.44 78.44 0 0 0-.2 8.6z" fill="#2a4e96"/><path d="M281.2 231.5a295.81 295.81 0 0 0 .6 12.1c0 .2 0 .5.1.7 14.3-9 16.5-25.4 16.5-25.4-7.1.3-12.7 1.9-16.9 4.3-.3 2.3-.4 5.1-.3 8.3z" fill="#1e3d70"/><path d="M245 238.5c-.1-2.1.9-2.4.9-2.4l23.4-4.5c1.8-.6 17.5-16.9 17.5-16.9s6-6.8 10.9-5.3c4.3 1.3 6 4.7 6.5 7.8.7 3.7-1.1 7.6-4.4 9.6-7.4 4.6-22.1 13.5-25.6 14.5-7.7 2.2-28.6.2-28.6.2s-.5-1.2-.6-3z" fill="#2a4e96"/><g fill="#ed9f4a" class="r"><path d="M270.3 280.1v80.3c0 4.7-3.8 8.5-8.5 8.5h-82.6c-.7 0-1.4-.1-2.1-.3-1.4-.3-2.7-1-3.7-2-.7-.7-1.4-1.5-1.8-2.4 0 0 0-.1-.1-.1-.5-1-.8-2.1-.9-3.2v-.6-79.6c0-4.5 2.3-8.7 6.1-11.1h0c3.1-2 5.3-5.6 5.3-9.6 0-1.2-.2-2.3-.5-3.4h78c-.3 1.1-.5 2.2-.5 3.4 0 3.8 1.9 7.3 4.9 9.3h0c.2.1.4.3.6.4h0c3.6 2.2 5.8 6.1 5.8 10.4z" opacity=".2"/><path d="M270.3 280.1v80.3c0 4.5-3.5 8.2-7.9 8.5h-.6-36.4c-4.8 0-8.7-4-8.7-8.7v-79.6c0-4.5 2.3-8.7 6.1-11.1 3.1-2 5.3-5.6 5.3-9.6 0-1.2-.2-2.3-.5-3.4h31.8c-.3 1.1-.5 2.2-.5 3.4 0 3.1 1.3 6.1 3.3 8.1.6.6 1.3 1.2 2.1 1.6 3.8 2.3 6 6.2 6 10.5z" opacity=".2"/><path d="M263.8 269.2c-2.5-1.5-13.6-6.9-41.6-6.7-32.1.3-45.1 6.8-45.5 7 3.1-2 5.3-5.6 5.3-9.6 0-1.2-.2-2.3-.5-3.4h78c-.3 1.1-.5 2.2-.5 3.4 0 3.9 1.9 7.3 4.8 9.3z" opacity=".6"/></g><path d="M261.3 255.9v3.6c0 .4-.3.6-.6.6h-80.2c-.4 0-.6-.3-.6-.6v-3.6c0-.4.3-.6.6-.6h80.2a.65.65 0 0 1 .6.6z" class="p"/><path d="M261.3 255.9v3.6c0 .4-.3.6-.6.6h-30.4c-.4 0-.6-.3-.6-.6v-3.6c0-.4.3-.6.6-.6h30.4a.65.65 0 0 1 .6.6z" class="q"/><path d="M207.7 273.9s-2 2.9-4 2.9c-1.9 0-4.8-1.3-4.8-1.3s-1.7-3.8-.6-5.4c0 0 1.2-.5 2.4.4l.6.6c.3.4.6.6 1 .7 1.3.4 2.9-.5 3.5.4.3.5.7.9 1 1.2.6.4.9.5.9.5zM180.8 295s7.3-17.7 20.5-18c0 0 12.2 1.3 12.9 18h-33.4z" fill="#f9ddbf"/><path d="M197.6 277.4s5.3 1.2 6.9.5c0 0 .2-2.2-2-1.9-1.5.2-2.5-.5-3.1-.8-.8-.4-2 1.3-1.8 2.2z" fill="#f1a34f"/><path d="M202.3 274.1c-.3.2-1.4-3.5-1.4-3.5l.6.6c.3.4.6.6 1 .7 0 .1.1 2-.2 2.2zm4.8-.6c-.1 0-2.5 1.5-2.8 1.5s1.8-2.7 1.8-2.7c.3.5.7.9 1 1.2zM187.9 290c-.1-.1 5.2-7.8 6.7-7.9s4.8 1.7 7.1 1.9 4.7-.4 5.2.9c.4 1.4 1.7 6.4.9 7.2s-17 .4-19.9-2.1z" fill="#e5c1a1"/><g fill="#e2810e"><path d="M182 362.8l-1.3.6c-.4.2-.8.5-1.2.7-1.9 1-4 1.8-6 2.4-.7-.7-1.4-1.5-1.8-2.4-.3.2-.6.3-1 .5V304a35.83 35.83 0 0 1 4.5.9c8.2 2.2 15.5 7.4 20 15.1 8.6 15.3 2.8 34.4-13.2 42.8z" opacity=".5" class="r"/><circle transform="matrix(.8757 -.4828 .4828 .8757 -141.3712 118.0389)" cx="158.6" cy="333.7" r="33"/></g><path d="M173.3 363.2c-.4.2-.8.5-1.2.7a.76.76 0 0 1-.4.2c-.3.2-.6.3-1 .5-15.7 7.7-34.9 1.8-43.5-13.7-8.2-14.8-3.7-33.1 9.6-42.7 1.1-.8 2.2-1.5 3.3-2.1.4-.2.8-.5 1.3-.7l1.2-.6c1.3-.6 2.6-1 4-1.4 1.9-.6 4-1 6-1.2 6.2-.7 12.5.5 18 3.2 5.9 2.8 10.9 7.5 14.4 13.7 8.5 15.6 3.3 35-11.7 44.1z" class="m"/><path d="M156.3 365.5c-2.8 0-5.7-.4-8.4-1.2-7.7-2.2-14.1-7.3-18-14.4-3.8-7-4.8-15.2-2.5-22.9 2.2-7.7 7.3-14.1 14.4-18 7-3.8 15.2-4.8 22.9-2.5 7.7 2.2 14.1 7.3 18 14.4 3.8 7 4.8 15.2 2.5 22.9s-7.3 14.1-14.4 18c-4.5 2.4-9.5 3.7-14.5 3.7zM131.5 349c3.6 6.6 9.6 11.4 16.9 13.5s14.9 1.2 21.5-2.4 11.4-9.6 13.5-16.9 1.2-14.9-2.4-21.5-9.6-11.4-16.9-13.5-14.9-1.2-21.5 2.4-11.4 9.6-13.5 16.9-1.3 14.9 2.4 21.5zm39.4-10.8c-.1-.2-.1-.3-.2-.5-.5-1.2-1.2-2.1-2-2.8-.9-.8-1.9-1.4-3.1-1.8s-2.5-.7-4.1-.7l-4.9-.1c-1.1 0-2 0-2.7-.1s-1.4-.2-1.9-.4-.9-.5-1.3-.9c-.3-.4-.6-.8-.8-1.3s-.3-1-.4-1.6c0-.5 0-1 .2-1.5s.5-.9.9-1.3 1-.7 1.7-1c1.3-.5 2.5-.5 3.6 0s2 1.7 2.7 3.4l6.7-2.7c-.6-1.4-1.3-2.6-2.2-3.6s-1.9-1.7-2.9-2.3c-1.1-.5-2.3-.8-3.6-.9s-2.6 0-4.1.4l-1.9-4.7-3.6 1.5 1.9 4.7c-1.3.7-2.5 1.5-3.4 2.4s-1.6 1.9-2.1 3-.8 2.2-.8 3.4.2 2.4.7 3.6c.6 1.4 1.3 2.5 2.2 3.3s1.9 1.4 3.1 1.8 2.5.6 4.1.7c1.5.1 3 .1 4.9 0 1-.1 1.9-.1 2.6 0s1.4.2 1.9.4 1 .5 1.3.9c.4.4.7.9.9 1.5a4.53 4.53 0 0 1 .3 1.6c0 .5-.1 1-.4 1.5-.2.5-.6.9-1.1 1.3s-1.1.8-1.8 1c-.6.3-1.3.4-1.9.5-.7.1-1.3 0-2-.2-.6-.2-1.2-.6-1.8-1.2s-1-1.3-1.5-2.4l-6.7 2.7c.7 1.7 1.6 3.1 2.6 4.2s2.2 1.7 3.4 2.1 2.5.6 4 .6c1.4-.1 2.7-.3 4.1-.7l1.7 4.3 3.7-1.5-1.7-4.3c1.3-.7 2.5-1.5 3.4-2.4.9-.8 1.6-1.7 2.1-2.7 0-.1.1-.2.1-.2a7.64 7.64 0 0 0 .8-3.3c0-1.2-.2-2.4-.7-3.7z" class="n"/><g class="s"><path d="M131.6 218.8c.1-.4-8.8 4.1-9.2 4.6-4.2 4.7-2.9 10.6-.6 10.7 1.5 0 1.2 2.6 1.2 2.6l17-7.2c0-.2-2.1-12.1-8.4-10.7z"/><path d="M133.7 219.7s.6-6.7-6.8-6.7c0 0 2.2.6 3.4 1.8 0 0-4.8-2.7-9.9 1.5-5.2 4.3-1.9 15-3.5 17-1.5 2-7.7 2.4-6.9 9 .7 6.6 19.3 14.8 18.1 20.3 0 0 7.3-10.7 2.1-15.6 0 0 2.5 2.4 2.8 5.3 0 0 .7-5.6-2.8-7.3-3.1-1.6-5.7-7.3-5.5-8.4.3-1 9-16.9 9-16.9z"/></g><g fill="#ed985f"><path d="M126.9 251c-1.1-5.5-8.3-7.2-11.6-2.7-.6.8-1 1.7-1.2 2.9-.8 6.3 9.2 31.7 10.6 34 2.6 4.2 17.9 18.6 17.9 18.6l2.8-1.7s-10.9-18.4-12.6-20.2c-1.9-2-3.7-20.5-5.9-30.9z"/><path d="M141.6 302s4.2-2.7 5.7-2.5 6.1 1.5 6.2 2.1c.1.7-5.1 1.1-5.4 1.4-.3.4-3.8 2.6-5.1 1.9-1.2-.5-1.4-2.9-1.4-2.9z"/></g><path d="M112.8 363.4l-3.6-.5s-12.5-9.8-14.3-28.3c-.2-1.8-.2-3.7-.1-5.7 0-.2 0-.4-.1-.6h0L92 324c-1.3-2.1-3.5-6.2-6.1-10.7l-11.4-21.1c-5.7-9.9-2.9-16.6-2.9-16.6s15.9-1.6 20.3-5.4l1.5 2.4 3.2 15.3c.2.5.3 1 .5 1.6 2.7 8.4 5.9 18.8 7.5 27.4.9 4.8 1.4 9 1.2 11.9-.1 1 0 2.4.3 4.4 1.4 10.9 6.7 30.2 6.7 30.2z" class="p"/><path d="M120.5 368.1h-15.4s-.4-2.3.4-4.2c.8-1.7 1.8-1.7.1-4.5 1 1 4.2 1.4 6.4 1.1.3.4 1.7 3.4 2.6 4.1 1.2.8 5.6.6 5.9 3.5zM97 289.5c-1.3 7.4-4.6 19.8-11.1 23.7l-11.4-21.1c-5.7-9.9-2.9-16.6-2.9-16.6s15.9-1.6 20.3-5.4l1.5 2.4 3.2 15.3c.1.7.2 1.2.4 1.7z" class="q"/><path d="M125.3 247.6s2.1 2.2 3.1 5c0 0-3.4 9.9-11.5 11.2 0 0 6.3-16.2 8.4-16.2z" fill="#ed7d2b"/><path d="M86.2 276.7l.1-2.8c-5.8.7-19.8-6.9-19.8-6.9s-6 4-6.8 15.4c-.4 5.6-2.9 29.1-3.2 36.2-.1 2.5-.1 4.4-.1 5.1h0c0 .2-.1.4-.2.6-1.2 1.5-2.2 3.1-3.1 4.8-8.7 16.3-4.2 38.4-4.2 38.4l2-.5s7.4-23 12.3-32.9c.8-1.7 1.5-3 2.2-3.7 1.8-2.2 3.7-6 5.7-10.4 3.5-8.5 7.1-19.9 9.5-28.6-.1-.1 5.6-14.7 5.6-14.7z" class="p"/><path d="M119.8 257.5c-9.4-2.1-3.3-15.3-2.8-15.1 1.3-.3 4.2-2.5 6.7-7l.3.3 5.8 5.1s-1.3 1.9-2.4 3.8c-.9 1.5-1.6 3-1.5 3.5.4.4-3.6 10-6.1 9.4z" class="o"/><path d="M129.7 240.8l-2.4 3.8c-3.5-2.2-3.5-6.7-3.3-8.9l5.7 5.1z" fill="#ed985f"/><path d="M129.9 243.3s-8.7-4.9-5.6-10.2c3.1-5.4 4.1-9.6 9.7-6.8 5.7 2.8 5.6 5.6 5 7.6s-6.7 10.5-9.1 9.4z" class="o"/><path d="M140.5 230.7c-.4-2.4-1.6-2.6-2.4-2.4-3.2-5.3-8.5-3.2-8.5-3.2-2.8 3.5-6.9 4.2-6.9 4.2s1 1.9 5.2 3c1.3.4 2.7.1 4.2-.3-2.8 1.6-5.9 2.2-5.9 2.2 5.5.5 10.7-4.6 11.2-5.1.2.8.7 2.4.4 3.5-.4 1.6-1.8 4.6-.9 5-.1 0 4.2-3.2 3.6-6.9z" class="s"/><path d="M61 368.1H45.6s-.4-2.3.4-4.2c.8-1.7 2-2.5 1.7-4.6 1 1 2.5 2.1 4.8 1.8.3.4 1.7 2.8 2.6 3.4 1.1.9 5.5.7 5.9 3.6z" class="q"/><path d="M120.9 268c-2 .7-4.8 1.1-7.6 1.4-4.1.4-8.2.7-10.4 1.6-.8.3-1.3.7-1.5 1.2-.9 2.8-5.2 7.3-5.2 7.3-26.8-1.2-29.8-12.5-29.8-12.5 18-21 48.6-27 48.6-27s2.2-.9 7.7 3.4c3.6 2.9 3.1 4.1 3.1 4.1s.9 18.4-4.9 20.5z" fill="#f99746"/><path d="M113.3 269.3c-4.1.4-8.2.7-10.4 1.6-.9-13.4 5.4-23.4 5.4-23.4l5 21.8z" fill="#ed7d2b"/><path d="M117.5 244.9s-10.1 1-10.9 7.6 9.7 33.4 11.2 35.9c2.7 4.5 18.9 19.7 18.9 19.7l2.9-1.8s-11.4-19.4-13.3-21.3c-2.6-2.9-5.4-37.8-8.8-40.1z" class="o"/><path d="M106.7 256.5c0 .1 9.3 3 15.4 0 0 0 1.3-13.9-5.9-13.1-7.2.7-11.4 3-11.6 6.5-.1 3.4 2.1 6.6 2.1 6.6z" fill="#f99746"/><path d="M135.7 306.1s3.6-3.3 5.2-3.4 6.3.5 6.4 1.1c.2.6-4.8 1.9-5.1 2.3s-3.3 3.2-4.7 2.7-1.8-2.7-1.8-2.7z" class="o"/><defs ><path id="B" d="M256.1 312.9l3.7.6c.3 0 .6.2.8.3.2.2.4.4.4.7v.2.2l-8.6 52.1c-.1.7-.8 1.1-1.6 1h-.1l-3.7-.6h-.1c-.7-.2-1.3-.8-1.1-1.5l8.6-52.1c0-.1 0-.1.1-.2 0-.1.1-.1.1-.2.1-.2.4-.4.6-.5.3 0 .6-.1.9 0z"/><path id="C" d="M253.254 321.54l.098-.592 6.611 1.089-.098.592z"/><path id="D" d="M252.288 327.615l.098-.592 6.611 1.091-.098.592z"/><path id="E" d="M231.186 368.051l.016-6.7.6.001-.016 6.7z"/><path id="F" d="M222.903 368.044l.015-6.7.6.001-.015 6.7z"/><path id="G" d="M234.304 368.115l.014-6.7.6.001-.014 6.7z"/><path id="H" d="M231.7 354.7v6.5c.2-.1.4-.3.6-.5v-5.4c-.2-.3-.4-.5-.6-.6z"/><path id="I" d="M236.5 342.9v3.7c0 .3-.1.6-.2.8s-.4.4-.6.5c-.1 0-.2.1-.2.1h-.2l-52.8-.1c-.7 0-1.2-.6-1.3-1.4v-.1-3.7-.1c0-.7.5-1.3 1.1-1.4h.1l52.8.1h.2c.1 0 .2 0 .2.1.2.1.4.3.6.5.2.4.3.7.3 1z"/></defs></svg>