<svg xmlns="http://www.w3.org/2000/svg" xmlns:xlink="http://www.w3.org/1999/xlink" viewBox="0 0 400 520" xmlns:v="https://vecta.io/nano"><style><![CDATA[.BO{fill:#ffb93e}.BP{fill:#ffa412}.BQ{fill:#ffb27d}.BR{fill:#163560}.BS{fill:#233862}.BT{fill:#f77d48}.BU{fill:#f99746}.BV{fill:#8c9df4}.BW{fill:#ed7d2b}.BX{fill:#2b478b}.BY{fill:#ebf3fa}.BZ{fill:#b5453c}]]></style><path d="M17.2 361.3c.1-1.6-38.1-50.3 6.4-95.3 20.1-20.3 54-9.3 48.7-68.6-4.6-51.2 75.5-81.3 125.3-35.6 32.2 29.5 64.7-9.9 115.8 12.5 51 22.4 17.4 83.1 38.4 88.9 41.2 11.3 61.7 60.9 28.8 97.6l-363.4.5z" class="BY"/><path d="M189.1 243l-.7-1.3.7-.4c.3.5.5.9.7 1.4l-.7.3zm-1.5-2.7l-.9-1.3.7-.5.9 1.3-.7.5zm-82.1 9.1c-.5.1-1 .1-1.6.1v-.8c.5 0 1-.1 1.5-.1l.1.8zm1.6-.2l-.1-.8 1.5-.3.2.8-1.6.3zm-4.7.4h-1.6v-.8h1.5l.1.8zm7.7-1l-.2-.8c.5-.1 1-.3 1.5-.4l.2.8-1.5.4zm-10.8.9c-.5-.1-1-.1-1.6-.2l.1-.8c.5.1 1 .1 1.5.2v.8zm13.9-1.8l-.3-.8c.5-.2 1-.3 1.4-.5l.3.8-1.4.5zm2.9-1l-.3-.8 1.4-.6.3.8-1.4.6zm-19.9 2.2c-.5-.1-1-.3-1.5-.4l.2-.8c.5.1 1 .3 1.5.4l-.2.8zm89.6-11.1c-.3-.4-.7-.8-1-1.2l.6-.6c.4.4.7.8 1 1.2l-.6.6zm-66.9 7.6l-.4-.7c.5-.2.9-.5 1.4-.7l.4.7-1.4.7zm-25.8 2.7l-1.5-.6.3-.8 1.4.6-.2.8zm28.6-4.2l-.4-.7a9.13 9.13 0 0 0 1.3-.8l.4.7c-.4.3-.8.6-1.3.8zm62-8.3l-1.1-1.1.6-.6a5.73 5.73 0 0 1 1.1 1.1l-.6.6zm-93.4 11.2c-.5-.2-.9-.5-1.4-.8l.4-.7c.4.3.9.5 1.3.8l-.3.7zm34.1-4.5l-.4-.7a9.13 9.13 0 0 1 1.3-.8l.5.7-1.4.8zm2.6-1.7l-.5-.7 1.2-.9.5.7-1.2.9zm-39.4 4.5c-.4-.3-.8-.7-1.2-1l.5-.6c.4.3.8.7 1.2 1l-.5.6zm93.9-11.6l-1.2-.9.5-.7c.4.3.8.6 1.2 1l-.5.6zm-52 5.3l-.5-.7.1-.1c.4-.3.7-.6 1.1-.8l.5.7c-.4.3-.7.6-1.1.8l-.1.1zm49.5-7.1a9.13 9.13 0 0 0-1.3-.8l.4-.7a9.13 9.13 0 0 0 1.3.8l-.4.7zM85.2 243l-1.1-1.2.6-.5c.3.4.7.8 1 1.1l-.5.6zm46.8-6.1l-.5-.7 1.3-.9.5.7c-.5.3-.9.6-1.3.9zm44.4-6.8l-1.4-.7.4-.7c.5.2.9.5 1.4.7l-.4.7zm-41.9 5.1l-.5-.7a9.13 9.13 0 0 1 1.3-.8l.4.7-1.2.8zm-51.3 5.3l-.9-1.3.7-.4c.3.4.5.9.8 1.3l-.6.4zm53.9-7l-.4-.7c.4-.3.9-.5 1.3-.8l.4.7a9.13 9.13 0 0 1-1.3.8zm36.5-4.7l-1.4-.6.3-.8 1.5.6-.4.8zm-33.8 3.2l-.4-.7c.5-.2.9-.5 1.4-.7l.4.7c-.5.2-1 .5-1.4.7zm31-4.3c-.5-.2-1-.3-1.5-.4l.2-.8c.5.1 1 .3 1.5.4l-.2.8zm-28.3 2.9l-.4-.7 1.4-.6.3.8c-.4.1-.8.3-1.3.5zm-60.9 7.2l-.6-1.4.8-.3.6 1.4-.8.3zm86.2-10.8l-1.5-.3.1-.8 1.5.3-.1.8zm-22.5 2.4l-.3-.8 1.5-.6.3.8-1.5.6zm19.5-2.9c-.5-.1-1-.1-1.5-.1l.1-.8c.5 0 1 .1 1.6.2l-.2.7zm-16.6 1.8l-.3-.8c.5-.2 1-.3 1.5-.5l.2.8c-.4.2-.9.4-1.4.5zm13.6-2.1h-1.5v-.8h1.6l-.1.8zm-10.6 1.3l-.2-.8c.5-.1 1-.3 1.5-.4l.2.8c-.5.1-1.1.3-1.5.4zm7.5-1.2c-.5 0-1 .1-1.5.1l-.1-.8c.5-.1 1-.1 1.6-.1v.8zm-4.6.5l-.1-.8c.5-.1 1-.2 1.5-.2l.1.8c-.4.1-.9.1-1.5.2zm-73.6 8.1c-.2-.5-.3-1-.4-1.5l.8-.2c.1.5.2 1 .4 1.5l-.8.2zm-.7-3.1c0-.2-.1-.4-.1-.6 0-.3-.1-.7-.1-1l.8-.1c0 .3.1.6.1 1 0 .2 0 .4.1.5l-.8.2zm.6-3.2h-.8V227h.8v1.6zm.2-3l-.8-.1c.1-.5.1-1 .2-1.5l.8.1h0c-.1.5-.2 1-.2 1.5zm.5-3l-.8-.2c.1-.5.2-1 .4-1.5l.8.2c-.2.5-.3 1-.4 1.5zm28.3-4.2c-.5.1-1.1.1-1.6 0v-.8h1.5l.1.8zm1.6-.2l-.2-.8c.5-.1 1-.2 1.4-.4l.3.8c-.5.1-1 .3-1.5.4zm-4.8 0c-.5-.1-1.1-.3-1.5-.5l.3-.8c.4.2.9.3 1.4.4l-.2.9zm7.8-1l-.3-.8c.5-.2.9-.4 1.3-.7l.4.7c-.5.3-1 .5-1.4.8zm2.7-1.6l-.5-.7 1.2-.9.5.6c-.3.3-.8.7-1.2 1zm-34.8 4l-.8-.3c.2-.5.3-1 .5-1.5l.8.3c-.2.6-.3 1.1-.5 1.5zm21.3-2.7c-.4-.3-.8-.7-1.2-1.1l.6-.5c.3.4.7.7 1.1 1l-.5.6zm15.9-3.4l-.6-.6 1-1.1.6.5c-.3.4-.6.8-1 1.2zM83 216.8l-.8-.3.6-1.4.7.4-.5 1.3zm18.1-2.4l-.6-1.5.8-.2c.2.5.3.9.6 1.4l-.8.3zm20-3.4l-.7-.4c.3-.4.5-.9.7-1.3l.7.4c-.2.4-.4.9-.7 1.3zm-36.8 3l-.7-.4c.2-.5.5-.9.8-1.4l.7.4-.8 1.4zm15.8-2.6c0-.1 0-.3-.1-.4 0-.4-.1-.8-.1-1.1h.8c0 .4 0 .7.1 1.1 0 .1 0 .3.1.4h-.8zm22.4-3.2l-.8-.3c.2-.5.3-1 .4-1.4l.8.2-.4 1.5zm-36.6 3.2l-.7-.5.9-1.3.7.5c-.4.4-.7.9-.9 1.3zm14.9-3.2h-.8c0-.5.1-1.1.1-1.6l.8.1c0 .5-.1 1-.1 1.5zm22.3-3.2l-.8-.1c0-.5.1-1 0-1.5h.8c.1.6.1 1.1 0 1.6zm-35.4 3.9l-.6-.5c.3-.4.7-.8 1-1.2l.6.5c-.4.4-.7.8-1 1.2zm2-2.3l-.6-.6 1.1-1.1.6.6-1.1 1.1zm11.4-1.4l-.8-.2.3-1.5.8.2-.3 1.5zm21.1-3.2c-.1-.5-.3-.9-.5-1.4l.7-.4.6 1.5-.8.3zm-30.3 2.5l-.5-.6c.4-.3.8-.7 1.2-1l.5.6c-.4.4-.8.7-1.2 1zm10-2.2l-.8-.3.6-1.5.8.3c-.2.6-.4 1-.6 1.5zm19-2.8c-.3-.4-.7-.7-1.1-1l.5-.7c.4.3.8.7 1.2 1.1l-.6.6zm-26.6 3.1l-.5-.7 1.3-.9.5.7c-.5.3-.9.6-1.3.9zm2.5-1.7l-.4-.7c.4-.3.9-.5 1.4-.8l.4.7c-.5.3-.9.6-1.4.8zm6.4-1.3l-.7-.4c.2-.4.5-.8.7-1.2l-.8.3-.3-.8c.5-.2 1-.4 1.5-.5l.3.8c-.1 0-.3.1-.4.1l.6.4c-.4.4-.7.8-.9 1.3zm15.4-1.9c-.4-.2-.9-.4-1.4-.6l.3-.8 1.5.6-.4.8zm-19.1 1.8l-.4-.7c.5-.2.9-.4 1.4-.7l.3.8c-.3.1-.8.4-1.3.6zm16.3-2.8c-.5-.1-1-.2-1.5-.2l.1-.8c.5.1 1.1.1 1.6.3l-.2.7zm-10.6.6l-.2-.6-.3.3-.7-.5c.3-.4.7-.8 1-1.2l.6.6c-.2.2-.3.4-.5.6l1.2-.3.2.8c-.3.1-.8.2-1.3.3zm7.6-1h-1.5v-.8h1.6l-.1.8zm-4.6.4l-.1-.8c.5-.1 1-.2 1.6-.2l.1.8c-.6 0-1.1.1-1.6.2zm-1.3-1.9l-.6-.6 1.2-1.1.5.6c-.4.4-.8.7-1.1 1.1zm2.3-2l-.5-.7 1.3-.9.5.7c-.5.3-.9.6-1.3.9zm2.5-1.7l-.4-.7c.4-.3.9-.5 1.4-.8l.4.7-1.4.8zm2.7-1.4l-.4-.7c.5-.2.9-.4 1.4-.7l.3.8a3.79 3.79 0 0 0-1.3.6zm2.8-1.3l-.3-.8 1.5-.6.3.8c-.6.2-1 .4-1.5.6zm2.9-1l-.3-.8c.5-.2 1-.3 1.5-.5l.2.8c-.4.2-.9.3-1.4.5zm2.9-.9l-.2-.8c.5-.1 1-.3 1.5-.4l.2.8c-.5.2-1 .3-1.5.4zm3-.7l-.2-.8 1.5-.3.1.8c-.3.1-.8.2-1.4.3zm4.6-.7s-.6 0-1.5.2l-.1-.8 1.6-.2v.8z" class="BV"/><path d="M101.7 276.1h32.9v84.4h-32.9zm51.2-27.6h32.9v112h-32.9zm46.5-29.7h36v141.8h-36zm48.8-19.6h32.9v161.4h-32.9z" fill="#bdd1f9"/><path d="M235.4 266l69-33.4-30.8 65.6-5.2-29.7z" class="BT"/><circle transform="matrix(.9716 -.2364 .2364 .9716 -50.3007 61.6849)" cx="232" cy="240.6" r="12.9" class="BO"/><path d="M234.9 252.2c-3.1.7-6.2.3-8.9-1.4a11.32 11.32 0 0 1-5.3-7.3c-.7-3.1-.3-6.2 1.4-8.9a11.32 11.32 0 0 1 7.3-5.3c3.1-.7 6.2-.3 8.9 1.4a11.32 11.32 0 0 1 5.3 7.3c.7 3.1.3 6.2-1.4 8.9-1.7 2.6-4.3 4.5-7.3 5.3zm-5.4-22.3c-5.9 1.4-9.6 7.5-8.2 13.4s7.5 9.6 13.4 8.2 9.6-7.5 8.2-13.4c-1.5-5.9-7.5-9.6-13.4-8.2zm5 13.8c0-.3-.1-.5-.2-.7s-.2-.3-.4-.5c-.2-.1-.4-.3-.7-.4l-1-.3c-.7-.1-1.3-.3-1.8-.5-.6-.2-1-.4-1.4-.7a4.74 4.74 0 0 1-1-1c-.3-.4-.4-.9-.5-1.5-.1-.5 0-1 .1-1.4s.3-.8.6-1.2.7-.7 1.1-.9c.4-.3 1-.4 1.5-.6l-.2-1.9 1.6-.2.2 2c.6 0 1.1.1 1.6.3s.9.4 1.3.7a2.73 2.73 0 0 1 .9 1.2c.2.5.4 1 .5 1.6l-2.8.3c-.1-.7-.3-1.3-.7-1.6s-.8-.4-1.4-.4c-.3 0-.5.1-.7.2s-.4.2-.5.4-.2.3-.2.5v.6c0 .2.1.4.2.6s.2.3.4.5c.2.1.4.3.7.4l1 .3 1.8.5c.5.2 1 .4 1.4.7a4.74 4.74 0 0 1 1 1c.3.4.4.9.5 1.5.1.5 0 1-.1 1.5-.1.4-.4.8-.7 1.2-.3.3-.7.6-1.1.9l-1.6.6.2 1.8-1.6.2-.2-1.8c-.5 0-1.1 0-1.6-.2-.5-.1-1-.3-1.4-.6s-.8-.7-1.1-1.2-.5-1.1-.6-1.8l2.8-.3.3 1.1c.2.3.3.5.6.6.2.1.5.2.7.3h.8c.3 0 .6-.1.8-.2s.4-.2.5-.4.2-.3.3-.5c.1-.3.1-.5.1-.7z" class="BP"/><circle transform="matrix(.9992 -.039279 .039279 .9992 -7.8773 11.9493)" cx="300.2" cy="206.4" r="12.6" class="BO"/><path d="M300.6 218.1c-3.1.1-6-1-8.2-3-2.3-2.1-3.6-4.9-3.7-8s1-6 3-8.2c2.1-2.3 4.9-3.6 8-3.7s6 1 8.2 3c2.3 2.1 3.6 4.9 3.7 8s-1 6-3 8.2c-2.1 2.2-4.9 3.6-8 3.7zm-.9-22.3c-6 .2-10.6 5.3-10.4 11.2.2 6 5.3 10.6 11.2 10.4 6-.2 10.6-5.3 10.4-11.2-.2-6-5.2-10.6-11.2-10.4zm2.2 14.1c0-.2 0-.5-.1-.7s-.2-.4-.3-.5c-.1-.2-.3-.3-.6-.5l-.9-.5c-.6-.3-1.2-.5-1.6-.8-.5-.3-.9-.6-1.2-.9s-.6-.7-.8-1.2c-.2-.4-.2-.9-.2-1.5 0-.5.2-1 .4-1.4s.5-.7.9-1 .8-.5 1.2-.7c.5-.2 1-.2 1.6-.2l.1-1.9 1.5.1-.2 1.9c.5.1 1 .3 1.5.6l1.1.9c.3.4.5.8.6 1.3s.2 1 .1 1.6l-2.8-.2c.1-.7-.1-1.3-.3-1.6-.3-.4-.7-.6-1.2-.6-.3 0-.5 0-.8.1s-.4.2-.5.3-.3.3-.3.5c-.1.2-.1.4-.1.6v.6a.55.55 0 0 0 .3.5c.1.2.3.3.6.5.2.2.6.3.9.5l1.6.8c.5.3.9.6 1.2.9s.6.7.8 1.2c.2.4.2.9.2 1.5 0 .5-.2 1-.4 1.4s-.5.7-.9 1-.8.5-1.3.6-1 .2-1.6.2l-.1 1.8-1.5-.1.1-1.8c-.5-.1-1-.3-1.5-.5s-.9-.5-1.3-.9-.6-.8-.8-1.3-.3-1.1-.2-1.9l2.8.2c0 .4 0 .8.1 1.1s.2.5.4.7.4.3.6.4.5.1.8.2c.3 0 .6 0 .8-.1l.6-.3c.2-.1.3-.3.4-.5.2 0 .3-.2.3-.4z" class="BP"/><circle transform="matrix(.9998 -.017674 .017674 .9998 -4.0065 4.9575)" cx="278.5" cy="229.1" r="8.7" class="BO"/><path d="M278.6 237.2a8.21 8.21 0 0 1-5.6-2.2c-1.5-1.5-2.4-3.4-2.4-5.6a8.21 8.21 0 0 1 2.2-5.6c1.5-1.5 3.4-2.4 5.6-2.4a8.21 8.21 0 0 1 5.6 2.2c1.5 1.5 2.4 3.4 2.4 5.6a8.21 8.21 0 0 1-2.2 5.6c-1.5 1.5-3.5 2.3-5.6 2.4zm-.3-15.4c-4.1.1-7.4 3.5-7.3 7.6s3.5 7.4 7.6 7.3 7.4-3.5 7.3-7.6c0-4.1-3.5-7.4-7.6-7.3zm1.3 9.7v-.5a.76.76 0 0 0-.2-.4c-.1-.1-.2-.2-.4-.3l-.6-.3-1.1-.6c-.3-.2-.6-.4-.8-.7-.2-.2-.4-.5-.5-.8s-.1-.7-.1-1.1c0-.3.1-.7.3-.9.2-.3.4-.5.6-.7s.5-.3.9-.4c.3-.1.7-.1 1.1-.1l.1-1.3 1.1.1-.1 1.3c.4.1.7.2 1 .4s.5.4.7.7.3.6.4.9.1.7.1 1.1l-1.9-.2c0-.5 0-.9-.2-1.1-.2-.3-.5-.4-.8-.5h-.5a.76.76 0 0 0-.4.2c-.1.1-.2.2-.2.3-.1.1-.1.3-.1.4v.4c0 .1.1.2.2.4.1.1.2.2.4.3s.4.2.6.4l1.1.6c.3.2.6.4.8.7.2.2.4.5.5.8s.1.7.1 1c0 .4-.1.7-.3.9-.2.3-.4.5-.6.7s-.5.3-.9.4c-.3.1-.7.1-1.1.1l-.1 1.2-1-.1.1-1.2-1-.3-.9-.6c-.2-.3-.4-.6-.5-.9-.1-.4-.2-.8-.1-1.3l1.9.2v.7c.1.2.2.4.3.5s.3.2.4.3c.2.1.3.1.5.1h.6c.2 0 .3-.1.4-.2l.3-.3c-.2 0-.1-.1-.1-.3z" class="BP"/><circle transform="matrix(.9493 -.3143 .3143 .9493 -48.706 89.5476)" cx="253.3" cy="195.8" r="21.2" class="BO"/><path d="M259.5 214.4c-4.9 1.6-10.1 1.2-14.8-1.1-4.6-2.3-8-6.3-9.7-11.2-1.6-4.9-1.2-10.1 1.1-14.8s6.3-8 11.2-9.7c4.9-1.6 10.1-1.2 14.8 1.1 4.6 2.3 8 6.3 9.7 11.2 1.6 4.9 1.2 10.1-1.1 14.8-2.4 4.6-6.3 8.1-11.2 9.7zm-11.8-35.6c-9.5 3.2-14.7 13.5-11.5 23s13.5 14.7 23 11.5 14.7-13.5 11.5-23-13.5-14.7-23-11.5zm10 21.7c-.1-.4-.2-.8-.4-1.1s-.4-.5-.7-.7-.7-.4-1.2-.5l-1.7-.3c-1.1-.2-2.1-.3-3-.6-.9-.2-1.7-.5-2.4-.9a6.55 6.55 0 0 1-1.8-1.5c-.5-.6-.8-1.4-1-2.4-.2-.8-.2-1.6 0-2.4.2-.7.5-1.4.9-2.1.4-.6 1-1.2 1.7-1.6.7-.5 1.5-.9 2.4-1.1l-.6-3.1 2.5-.5.7 3.2c.9-.1 1.8 0 2.6.2s1.5.6 2.2 1c.6.5 1.2 1.1 1.6 1.8s.8 1.6 1 2.6l-4.6.9c-.2-1.2-.7-2-1.3-2.5s-1.4-.6-2.3-.4c-.5.1-.9.2-1.2.4s-.6.4-.7.7c-.2.3-.3.6-.3.9v1c.1.4.2.7.4 1s.4.5.7.7.7.4 1.2.5 1 .3 1.7.4l3 .6c.9.2 1.7.5 2.4.9a6.55 6.55 0 0 1 1.8 1.5c.5.6.8 1.4 1 2.4.2.9.2 1.7 0 2.4s-.5 1.4-.9 2-1 1.1-1.7 1.6-1.5.8-2.5 1.1l.6 2.9-2.5.5-.6-2.9c-.9.1-1.8.1-2.7-.1-.9-.1-1.7-.4-2.4-.8s-1.4-1-1.9-1.8c-.6-.8-.9-1.7-1.2-2.9l4.6-.9c.1.7.4 1.3.6 1.7a4.74 4.74 0 0 0 1 1c.4.2.8.3 1.2.4.4 0 .9 0 1.3-.1.5-.1.9-.3 1.3-.5.3-.2.6-.4.8-.7s.3-.6.4-.9 0-.6 0-1z" class="BP"/><path d="M169.6 190l-5.4 1.2c-5.5.9-9.8.2-11.6-7.2s1.6-10 6.9-11.8c1.6-.5 3.5-1 5.4-1.5 4.1-1 8.6-.6 12.2.6 3.5 1.2 6.2 3 6.6 4.9.5 2.1-.9 5-3.5 7.7-2.8 2.7-6.6 5-10.6 6.1z" fill="#739af0"/><g class="BR"><path d="M159.4 172.2l-6.3-4.1-9.9 2.1 10.3 7.2zm4.7 18.9l-3.6 6.6-9.7 2.8 5.7-11.2z"/><path d="M164.1 191.2c-5.5.9-9.8.2-11.6-7.2s1.6-10 6.9-11.8l4.7 19z"/></g><path d="M139.6 187.2s2.8-6.4 7.6-5.4c4.9 1 4.3 6.3.6 6.8s-6-1.9-8.2-1.4z" class="BT"/><circle transform="matrix(.9702 -.2423 .2423 .9702 -38.3803 46.5685)" cx="170.1" cy="179.3" r="4.8" class="BR"/><path d="M170.1 184.4c-2.3 0-4.3-1.5-4.9-3.8-.7-2.7 1-5.5 3.7-6.1 2.7-.7 5.5 1 6.1 3.7.3 1.3.1 2.7-.6 3.8-.7 1.2-1.8 2-3.1 2.3-.4 0-.8.1-1.2.1zm0-9.5c-.4 0-.7 0-1.1.1-1.1.3-2.1 1-2.7 2s-.8 2.2-.5 3.4c.6 2.4 3 3.8 5.4 3.2 1.1-.3 2.1-1 2.7-2s.8-2.2.5-3.4c-.5-2-2.3-3.3-4.3-3.3z" fill="#bdd1f9"/><path d="M180.1 183.9l-3.1-12.6c3.5 1.2 6.2 3 6.6 4.9.5 2.2-.9 5.1-3.5 7.7z" class="BT"/><path d="M322.2 252.9s9.6 10 10.1 13.7-4.6 9.6-4.6 9.6l-5.5-23.3z" class="BW"/><path d="M317.9 356.1s-.3 5.3-1.4 5.4h-5.2l-6.4-.1s0-1.6 1.9-1.9 5-1.6 6.2-4.1c1.2-2.7 4.9.7 4.9.7z" fill="#2e5a99"/><path d="M332.2 356.1s-.3 5.3-1.4 5.4h-5.2l-6.4-.1s0-1.6 1.9-1.9 5-1.6 6.2-4.1c1.3-2.6 4.9.7 4.9.7z" fill="#18417c"/><path d="M310.9 299.3s1.7 10.8 7.9 29.9 7.1 27.4 7.1 27.4l6.7-.2s.1-20.9-2.8-30.5-.6-34.7-.6-34.7l-18.3 8.1z" class="BR"/><path d="M307.6 291.8s-.3 16.2 2.5 36.2c2.8 19.9 1.8 28.4 1.8 28.4l6.7.2s4.1-19.9 2.9-29.9c-1.1-10 5.6-34.2 5.6-34.2l-19.5-.7z" fill="#1c468a"/><path d="M320.7 253.8l-3.6 2.3-5.2-1c.1-.4.4-2.2.7-3.7 0-.1 0-.2.1-.3l.5-2.5 4.8-2.1 1.8-.8s-.1 1.5-.2 1.7c-.2 3.8 1.1 6.4 1.1 6.4z" class="BQ"/><path d="M313.3 252.6c.1 0 6.2-1.8 6.9-1.6s1.1 1.5 1.1 1.5l-10 2.2c-.1 0 .7-1.6 2-2.1z" class="BW"/><path d="M329.7 293.8c-1.1 4.7-18.4 5.3-22.8 1-.5-.5-.5-2.8-.3-5.9.4-6 1.6-15.1 1.7-19.7 0-2.2.3-4.5.8-6.6.9-4.4 2.2-7.9 2.2-7.9s8.5-2.7 10-2.2c7.6 2.2 9.5 36.6 8.4 41.3z" class="BU"/><path d="M306.5 288.9c.4-6 1.6-15.1 1.7-19.7 0-2.2.3-4.5.8-6.6l5.1-.9s4.9 20.4-7.6 27.2z" class="BW"/><path d="M309.3 280.5s.3.8-.4 1.4-1.2 1.5-1 2.1c.2.7 1.8 1.7 2.3 1.6.6-.2 1.7-1 1.6-1.4-.1-.3.8-3-.6-4.1-1.4-1-1.9.4-1.9.4z" class="BQ"/><path d="M315.1 253.5s-5 .9-8.9 6.7c-4 5.8-6.6 10.1-5.9 12.2s7.3 9.4 8.5 9.4c1.1 0 3-.8 3.1-2.7 0 0-4.7-7-3.7-8.1.4-.4 6.1-5 6.9-3 1.3 3.6 0-14.5 0-14.5z" class="BU"/><path d="M319.3 247.5c-1.1 1.8-5 3.3-6.7 3.9 0-.1 0-.2.1-.3l.5-2.5 4.8-2.1c1.1 0 1.8.3 1.3 1z" fill="#fca56b"/><path d="M311.4 248.4s7.8 2.4 9.2-2.4c1.5-4.9 3.4-7.8-1.5-9.6s-6.4-.2-7.3 1.3c-.8 1.5-2.4 9.9-.4 10.7z" class="BQ"/><path d="M312.1 237.2s.5 5.7 1.7 5.4c1.2-.2 2.2-.4 2.1 1.3s-1.8 3.7 1.8 4 8.8-9 7.8-10.8c-2.8-5.1-17.5-6.1-13.4.1z" class="BR"/><path d="M274.4 358.1v2c0 .2-.1.3-.2.4s-.3.2-.4.3h-.2-.2-38.7c-.5 0-.9-.3-.9-.7v-.1-2-.1c.1-.4.5-.7.9-.7h38.7.2.2a1.38 1.38 0 0 1 .4.3c.1.3.2.5.2.6z" class="BO"/><g class="BP"><path d="M255.3 361h-20.8c-.4 0-.7-.2-.8-.6v-.1-.1-2-.1-.1c.1-.3.4-.6.8-.6h18.2c.4 1 1.1 2.5 2.6 3.6zm13.9-3.7h.4v3.6h-.4zm-1.5 0h.4v3.6h-.4zm-1.8 0h.4v3.6h-.4zm-2.7 0h.4v3.6h-.4zm-2.9 0h.4v3.6h-.4zm-4.4 0h.4v3.6h-.4z"/><path d="M251.7 357.3h.4v3.6h-.4zm-3.7 0h.4v3.6h-.4zm22.6 0h.4v3.6h-.4zm1 0h.4v3.6h-.4zm.9 0h.4v3.6h-.4zm1.1.1v3.6h-.2-.3v-3.6h.3c.1-.1.1 0 .2 0z"/><use xlink:href="#B"/></g><path d="M270.2 354.5v2c0 .2-.1.3-.2.4l-.1.1c-.1.1-.2.2-.4.2h-.2-.2-38.7c-.5 0-.9-.3-.9-.7v-.1-2-.1c.1-.4.5-.7.9-.7h38.7.1.2.1 0 .1l.1.1h0c.5.5.5.7.5.8z" class="BO"/><g class="BP"><path d="M251.2 357.3h-20.8c-.4 0-.7-.2-.8-.6v-.1-.1-2-.1-.1c.1-.3.4-.6.8-.6h18.2v.1c.4 1.1 1.1 2.5 2.6 3.5zm13.9-3.6h.4v3.6h-.4zm-1.5 0h.4v3.6h-.4zm-1.8 0h.4v3.6h-.4zm-2.7 0h.4v3.6h-.4zm-2.9 0h.4v3.6h-.4zm-4.5 0h.4v3.6h-.4z"/><path d="M247.6 353.7h.4v3.6h-.4zm-3.8 0h.4v3.6h-.4zm22.7 0h.4v3.6h-.4zm.9 0h.4v3.6h-.4zm.9 0h.4v3.6h-.4zm1.2 0v3.6h-.2-.3v-3.6h.3.2zm.6.4v2.9c-.1.1-.3.2-.4.3v-3.5c.1 0 .3.1.4.3z"/></g><path d="M272.2 351v2c0 .2-.1.3-.2.4s-.3.2-.4.3h-.2-.2-38.7c-.2 0-.3 0-.4-.1-.3-.1-.4-.3-.5-.6v-.1-2-.1c.1-.4.5-.7.9-.7h38.7.2.2a1.38 1.38 0 0 1 .4.3c.2.3.2.4.2.6z" class="BO"/><g class="BP"><path d="M253.2 353.8h-20.8c-.1 0-.3 0-.4-.1-.2-.1-.4-.3-.4-.6v-.1-2-.1-.1c.1-.3.4-.6.8-.6h18.2c.3 1 .9 2.5 2.4 3.5.1.1.2.1.2.1zm13.9-3.6h.4v3.6h-.4zm-1.5 0h.4v3.6h-.4zm-1.8 0h.4v3.6h-.4zm-2.7 0h.4v3.6h-.4zm-2.9 0h.4v3.6h-.4zm-4.5 0h.4v3.6h-.4z"/><path d="M249.6 350.2h.4v3.6h-.4zm-3.8 0h.4v3.6h-.4zm22.7 0h.4v3.6h-.4zm.9 0h.4v3.6h-.4zm.9 0h.4v3.6h-.4zm1.2 0v3.6h-.2-.3v-3.6h.3.2zm.6.4v2.9c-.1.1-.3.2-.4.3v-3.5c.1 0 .3.1.4.3z"/></g><path d="M273.2 347.4v2c0 .2-.1.3-.2.4s-.2.1-.3.2c0 0-.1 0-.1.1h-.2-.1-.1-38.7c-.5 0-.9-.3-.9-.7v-.1-2.1c0-.4.4-.7.8-.7h.1 38.7.1.1.2a1.38 1.38 0 0 1 .4.3c.1.3.2.4.2.6z" class="BO"/><g class="BP"><path d="M254.1 350.2h-20.8c-.4 0-.7-.2-.8-.6v-.1-.1-2.1a.68.68 0 0 1 .7-.7h.1 18.2c.4 1.1 1.1 2.5 2.6 3.6zm13.9-3.6h.4v3.6h-.4zm-1.5 0h.4v3.6h-.4zm-1.8 0h.4v3.6h-.4zm-2.7 0h.4v3.6h-.4zm-2.9 0h.4v3.6h-.4zm-4.5 0h.4v3.6h-.4z"/><path d="M250.5 346.6h.4v3.6h-.4zm-3.7 0h.4v3.6h-.4zm22.6 0h.4v3.6h-.4zm1 0h.4v3.6h-.4zm.9 0h.4v3.6h-.4zm1.1 0v3.6h-.2-.3v-3.6h.3.2z"/><use xlink:href="#B" x="-1.2" y="-10.8"/></g><path d="M270.3 343.8v2c0 .2-.1.3-.2.4s-.3.2-.4.3h-.2-.1 0-38.7c-.5 0-.9-.3-.9-.7v-2c0-.3.3-.6.7-.7h.2 38.7.1 0 .2a1.38 1.38 0 0 1 .4.3c.1.1.2.2.2.4z" class="BO"/><g class="BP"><path d="M251.3 346.6h-20.8c-.4 0-.8-.3-.8-.7v-2c0-.3.3-.6.7-.7h.1 18.2c.3.9 1 2.3 2.6 3.4zm13.9-3.6h.4v3.6h-.4zm-1.5 0h.4v3.6h-.4zm-1.8 0h.4v3.6h-.4zm-2.8 0h.4v3.6h-.4zm-2.9 0h.4v3.6h-.4zm-4.4 0h.4v3.6h-.4z"/><path d="M247.6 343h.4v3.6h-.4zm-3.7 0h.4v3.6h-.4zm22.7 0h.4v3.6h-.4zm.9 0h.4v3.6h-.4zm.9 0h.4v3.6h-.4zm1.1 0v3.6h-.2-.3V343h.3.2zm.6.3v2.9c-.1.1-.3.2-.4.3V343a1.38 1.38 0 0 1 .4.3z"/></g><path d="M270.2 340.2v2c0 .2-.1.3-.2.4l-.1.1c-.1.1-.2.2-.4.2h-.1 0-.2-38.7-.1c-.4-.1-.7-.3-.8-.7v-.1-2-.1c.1-.4.5-.7.9-.7h38.7.1.2.1 0c.1.1.2.1.3.2.3.4.3.5.3.7z" class="BO"/><g class="BP"><path d="M251.2 343h-20.8-.1a.68.68 0 0 1-.7-.7v-.1-2-.1-.1c.1-.3.4-.6.8-.6h18.2v.1c.4 1 1.1 2.4 2.6 3.5zm13.9-3.6h.4v3.6h-.4zm-1.5 0h.4v3.6h-.4zm-1.8 0h.4v3.6h-.4zm-2.7 0h.4v3.6h-.4zm-2.9 0h.4v3.6h-.4zm-4.5 0h.4v3.6h-.4z"/><path d="M247.6 339.4h.4v3.6h-.4zm-3.8 0h.4v3.6h-.4zm22.7 0h.4v3.6h-.4zm.9 0h.4v3.6h-.4zm.9 0h.4v3.6h-.4zm1.2 0v3.6h-.2-.3v-3.6h.3.2z"/><use xlink:href="#B" x="-4.1" y="-18"/></g><path d="M272.2 336.6v2c0 .2-.1.3-.2.4s-.3.2-.4.3h-.2-.2-38.7c-.2 0-.3 0-.4-.1-.3-.1-.4-.3-.5-.6v-.1-2-.1c.1-.4.5-.7.9-.7h38.7.2.2a1.38 1.38 0 0 1 .4.3c.2.3.2.5.2.6z" class="BO"/><g class="BP"><path d="M253.2 339.5h-20.8c-.1 0-.3 0-.4-.1-.2-.1-.4-.3-.4-.6v-.1-2-.1-.1c.1-.3.4-.6.8-.6h18.2c.3 1 .9 2.5 2.4 3.5.1 0 .2 0 .2.1zm13.9-3.6h.4v3.6h-.4zm-1.5 0h.4v3.6h-.4zm-1.8 0h.4v3.6h-.4zm-2.7 0h.4v3.6h-.4zm-2.9 0h.4v3.6h-.4zm-4.5 0h.4v3.6h-.4z"/><path d="M249.6 335.9h.4v3.6h-.4zm-3.8 0h.4v3.6h-.4zm22.7 0h.4v3.6h-.4zm.9 0h.4v3.6h-.4zm.9 0h.4v3.6h-.4zm1.2 0v3.6h-.2-.3v-3.6h.3.2z"/><use xlink:href="#B" x="-2.1" y="-21.5"/></g><path d="M275.4 333v2c0 .2-.1.3-.2.4h0l-.2.2s-.1 0-.1.1h-.1-.2-.2-38.7c-.5 0-.9-.3-.9-.7v-.1-2c0-.4.4-.7.8-.7h.1 38.7.2.2c.2.1.3.1.4.2h0c.1.3.2.5.2.6z" class="BO"/><g class="BP"><path d="M256.4 335.9h-20.8c-.4 0-.7-.2-.8-.6v-.1-.1-2a.68.68 0 0 1 .7-.7h.1 18.2c.3.9 1 2.4 2.6 3.5zm13.8-3.7h.4v3.6h-.4zm-1.5 0h.4v3.6h-.4zm-1.7 0h.4v3.6h-.4zm-2.8 0h.4v3.6h-.4zm-2.9 0h.4v3.6h-.4zm-4.4 0h.4v3.6h-.4z"/><path d="M252.7 332.2h.4v3.6h-.4zm-3.7 0h.4v3.6h-.4zm22.7 0h.4v3.6h-.4zm.9 0h.4v3.6h-.4zm.9 0h.4v3.6h-.4zm1.1.1v3.6h-.2-.3v-3.6h.3c.1-.1.2-.1.2 0zm.6.3v2.9c-.1.1-.3.2-.4.3v-3.5a1.38 1.38 0 0 1 .4.3z"/></g><path d="M270.3 329.4v2c0 .2-.1.3-.2.4s-.3.2-.4.3h-.2-.1 0-38.7c-.3 0-.6-.1-.8-.4-.1-.1-.1-.2-.1-.4v-2c0-.3.3-.6.7-.7h.3 38.7.1.2.1 0c.1 0 .2.1.3.2l.1.1c-.1.2 0 .4 0 .5z" class="BO"/><g class="BP"><path d="M251.3 332.2h-20.8c-.3 0-.6-.1-.7-.4-.1-.1-.1-.2-.1-.4v-2a.68.68 0 0 1 .7-.7h.2 18.2v.1c.3 1 .9 2.4 2.5 3.4zm13.9-3.6h.4v3.6h-.4zm-1.5 0h.4v3.6h-.4zm-1.8 0h.4v3.6h-.4zm-2.8 0h.4v3.6h-.4zm-2.9 0h.4v3.6h-.4zm-4.4 0h.4v3.6h-.4z"/><path d="M247.6 328.6h.4v3.6h-.4zm-3.7 0h.4v3.6h-.4zm22.7 0h.4v3.6h-.4zm.9 0h.4v3.6h-.4zm.9 0h.4v3.6h-.4zm1.1 0v3.6h-.2-.3v-3.6h.3.2zm.6.4v2.9c-.1.1-.3.2-.4.3v-3.5c.2 0 .3.1.4.3z"/></g><path d="M273.2 325.9v2c0 .2-.1.3-.2.4s-.3.2-.4.3h-.2-.2-38.7c-.2 0-.3 0-.4-.1-.3-.1-.5-.4-.5-.6v-2c0-.4.4-.7.8-.7h.1 38.7.2.2a1.38 1.38 0 0 1 .4.3c.1.1.2.2.2.4z" class="BO"/><g class="BP"><path d="M254.1 328.7h-20.8c-.1 0-.3 0-.4-.1-.3-.1-.4-.4-.5-.6v-2a.68.68 0 0 1 .7-.7h.1 18.2c.3 1 .9 2.5 2.4 3.5.2-.1.3-.1.3-.1zm13.9-3.6h.4v3.6h-.4zm-1.5 0h.4v3.6h-.4zm-1.8 0h.4v3.6h-.4zm-2.7 0h.4v3.6h-.4zm-2.9 0h.4v3.6h-.4zm-4.5 0h.4v3.6h-.4z"/><path d="M250.5 325.1h.4v3.6h-.4zm-3.7 0h.4v3.6h-.4zm22.6 0h.4v3.6h-.4zm1 0h.4v3.6h-.4zm.9 0h.4v3.6h-.4zm1.1 0v3.6h-.2-.3v-3.6h.3.2z"/><use xlink:href="#B" x="-1.2" y="-32.3"/></g><path d="M274.4 322.3v2c0 .2-.1.3-.2.4s-.3.2-.4.3h-.2-.1-38.7c-.5 0-.9-.3-.9-.7v-2c0-.4.4-.7.9-.7h38.7.2.2a1.38 1.38 0 0 1 .4.3c0 .1.1.2.1.4z" class="BO"/><g class="BP"><path d="M255.3 325.1h-20.8c-.4 0-.8-.3-.8-.7v-2c0-.4.4-.7.8-.7h18.2c.4.9 1.1 2.3 2.6 3.4zm13.9-3.6h.4v3.6h-.4zm-1.5 0h.4v3.6h-.4zm-1.8 0h.4v3.6h-.4zm-2.7 0h.4v3.6h-.4zm-2.9 0h.4v3.6h-.4zm-4.4 0h.4v3.6h-.4z"/><path d="M251.7 321.5h.4v3.6h-.4zm-3.7 0h.4v3.6h-.4zm22.6 0h.4v3.6h-.4zm1 0h.4v3.6h-.4zm.9 0h.4v3.6h-.4zm1.1 0v3.6h-.2-.3v-3.6h.3.2z"/><use xlink:href="#B" y="-35.9"/></g><g fill="#ffeddc"><path d="M262.1 300.9s-2 2.9-3.9 2.9-4.7-1.3-4.7-1.3-1.7-3.8-.6-5.3c0 0 1.2-.5 2.4.4l.6.6c.3.4.6.6 1 .7 1.3.4 2.9-.5 3.5.4.3.5.7.9 1 1.2.4.2.7.4.7.4z"/><path d="M235.6 321.5s7.2-17.4 20.1-17.8c0 0 11.9 1.3 12.6 17.8h-32.7z"/></g><path d="M252.1 304.3s5.2 1.2 6.8.5c0 0 .2-2.2-1.9-1.9-1.5.2-2.5-.5-3-.8-.9-.4-2.1 1.3-1.9 2.2z" fill="#db6a1d"/><path d="M256.7 301c-.3.2-1.4-3.5-1.4-3.5l.6.6c.3.4.6.6 1 .7 0 .1.1 2-.2 2.2zm4.8-.6c-.1 0-2.5 1.5-2.8 1.5s1.8-2.7 1.8-2.7c.3.5.6.9 1 1.2z" fill="#e5c1a1"/><path d="M242.6 316.7c-.1-.1 5.1-7.7 6.5-7.7 1.4-.1 4.7 1.7 7 1.9s4.6-.4 5.1.9c.4 1.4 1.7 6.3.9 7.1-.8.7-16.6.2-19.5-2.2z" fill="#f9ddbf"/><g fill="#e2810e"><path d="M247.5 343c-.1 1.2-.3 2.4-.6 3.6 0 .2-.1.3-.1.5-.3 1.1-.8 2.1-1.3 3.1-.7 1.3-1.5 2.4-2.4 3.5l-.1.1c-1.2 1.3-2.6 2.5-4.3 3.5-.3.2-.7.4-1.1.6-.2.1-.5.2-.7.4-.2.1-.5.3-.7.4-.7.4-1.5.7-2.5 1v-1.6-.1-.1c.1-.3.4-.6.8-.6h-4.1c-.4 0-.7-.2-.8-.6v-.1-.1-2-.1-.1c.1-.3.4-.6.8-.6h1.6c-.2-.1-.4-.3-.4-.6v-.1-2-.1-.1c.1-.3.4-.6.8-.6h.9c-.4 0-.7-.2-.8-.6v-.1-.1-2.1a.68.68 0 0 1 .7-.7h-2.7c-.4 0-.8-.3-.8-.7v-2c0-.3.3-.6.7-.7a.68.68 0 0 1-.7-.7v-.1-2-.1-.1c.1-.3.4-.6.8-.6h1.6c-.2-.1-.4-.3-.4-.6v-.1-2-.1-.1c.1-.3.4-.6.8-.6h3.2c-.4 0-.7-.2-.8-.6v-.1-.1-2a.68.68 0 0 1 .7-.7h-5c-.3 0-.6-.1-.7-.4h0l.5-3.2h0l.7-4.6c.9.1 1.7.3 2.6.5h.1c.5.1 1 .3 1.5.5 2.2.8 4.2 2 6 3.5l.1.1c.9.8 1.8 1.7 2.5 2.7.2.2.3.4.4.6 0 .1.1.1.1.2.2.3.4.7.7 1 .5.8.9 1.7 1.2 2.6.4 1.2.8 2.3.9 3.5v.1c.3.9.4 2.1.3 3.3z" opacity=".5"/><circle transform="matrix(.8758 -.4828 .4828 .8758 -136.8208 150.6027)" cx="224.2" cy="341.1" r="19.1"/></g><path d="M232.6 358.2c-.2.1-.5.3-.7.4-.1 0-.2.1-.2.1l-.6.3c-9.1 4.5-20.1 1-25.1-7.9-4.7-8.5-2.2-19.1 5.5-24.7.6-.4 1.3-.9 1.9-1.2.2-.1.5-.3.7-.4s.5-.2.7-.3c.7-.3 1.5-.6 2.3-.8 1.1-.3 2.3-.6 3.5-.7 3.6-.4 7.2.3 10.4 1.8 3.4 1.7 6.3 4.3 8.3 7.9 5.1 9 2 20.2-6.7 25.5z" class="BO"/><path d="M222.9 359.2c-1.6 0-3.2-.2-4.8-.7-4.4-1.3-8-4.2-10.2-8.2s-2.7-8.6-1.4-13 4.2-8 8.2-10.2c8.2-4.5 18.6-1.5 23.2 6.7 4.5 8.2 1.5 18.6-6.7 23.2-2.7 1.5-5.5 2.2-8.3 2.2zm-.1-33.7c-2.7 0-5.5.7-8 2.1-3.9 2.1-6.7 5.7-7.9 9.9-1.2 4.3-.7 8.8 1.4 12.6 2.1 3.9 5.7 6.7 9.9 7.9 4.3 1.2 8.8.7 12.6-1.4 8-4.4 11-14.5 6.5-22.6-2.9-5.4-8.6-8.5-14.5-8.5zm8.4 18.3c0-.1-.1-.2-.1-.3-.3-.7-.7-1.2-1.2-1.7s-1.1-.8-1.8-1.1c-.7-.2-1.5-.4-2.3-.4-.9-.1-1.8-.1-2.8 0h-1.6c-.4 0-.8-.1-1.1-.2s-.6-.3-.7-.5c-.2-.2-.3-.5-.5-.8-.1-.3-.2-.6-.2-.9s0-.6.1-.9.3-.5.5-.8c.2-.2.6-.4 1-.6a2.56 2.56 0 0 1 2.1 0c.6.3 1.2 1 1.6 2l3.9-1.6c-.3-.8-.8-1.5-1.3-2.1s-1.1-1-1.7-1.3a4.65 4.65 0 0 0-2.1-.5c-.8-.1-1.5 0-2.3.2l-1.1-2.7-2.1.9 1.1 2.7c-.8.4-1.4.9-2 1.4-.5.5-1 1.1-1.2 1.7-.3.6-.4 1.3-.5 2 0 .7.1 1.4.4 2.1.3.8.8 1.5 1.3 1.9.5.5 1.1.8 1.8 1.1.7.2 1.5.4 2.3.4h2.8 1.5c.4 0 .8.1 1.1.2s.6.3.8.5.4.5.5.9c.1.3.2.6.2.9s-.1.6-.2.9-.3.5-.6.8l-1 .6-1.1.3c-.4 0-.8 0-1.1-.1-.4-.1-.7-.4-1-.7s-.6-.8-.8-1.4l-3.9 1.6c.4 1 .9 1.8 1.5 2.4s1.3 1 2 1.3 1.5.4 2.3.3c.8 0 1.6-.2 2.4-.4l1 2.5 2.1-.9-1-2.5c.8-.4 1.4-.9 2-1.4.5-.5.9-1 1.2-1.6 0 0 0-.1.1-.1.3-.6.4-1.3.5-1.9l-.8-2.2z" class="BP"/><g opacity=".7"><g fill="#77a4e5"><path d="M358.8 339.9s3.7-4.3.2-7c0 0-2.5-1.5-4.6-1.4 0 0 2.9 4.9 2 5.3-.9.5-2.8-5.7-2.8-5.7s-5.7-.6-7.5.3c0 0 4.9 4 3.9 4.2s-6.3-3.7-6.3-3.7-5.3.9-5 4.1 2.1 4.2 2.9 4.2c.8-.1 5.5-1.9 5.6-1.2s-2.7 2.8-4.7 2.9c0 0 3.7 4.1 6.2 2.9s2.7-3.1 4.3-3.8 2.9-.7 2.2 0c-.6.7-3.5 1.4-4.3 3-.9 1.6-1.7 2.6.9 2.2s6.8-2.3 6.9-4.4l.1-1.9z"/><path d="M341.2 336.3s14.4-.6 17.6 3.6c0 0 .7 2.1 2.9 4l.3.9s-2.5-2.6-3.4-2.8c.1.1 1.5-5-17.4-5.7z"/><path d="M361.7 344s3.1 2.3 3.3 6.4l-.6.1s-1-4.2-2.8-5.9c-1.7-1.8.1-.6.1-.6zm8.4-7.6s-5.1-2.9-2.7-6.8c0 0 1.9-2.4 4-3 0 0-1.1 5.8 0 6 1.1.1.8-6.6.8-6.6s5.4-2.6 7.5-2.4c0 0-3.4 5.7-2.3 5.5 1.1-.1 4.9-5.9 4.9-5.9s5.5-1 6.4 2.3-.5 4.9-1.4 5.1c-.8.2-6.1.1-6 .8s3.7 1.8 5.7 1.2c0 0-2.2 5.4-5.1 5.1s-3.8-2.1-5.5-2.2c-1.8-.1-3.1.3-2.2.8s3.9.2 5.3 1.4 2.6 2-.1 2.5-7.5.2-8.4-1.8l-.9-2z"/><path d="M386.2 326.6s-14.4 4.7-16 9.9c0 0 .1 2.3-1.4 5v1s1.5-3.5 2.3-4c0 0-3.2-4.5 15.1-11.9z"/><path d="M368.8 341.4s-2.2 3.4-1 7.5l.6-.2s-.6-4.5.6-6.8c1.1-2.2-.2-.5-.2-.5z"/></g><g fill="#9fc1f4"><path d="M362.4 330.1s7.7-4.3 4.1-10.1c0 0-2.9-3.6-5.9-4.5 0 0 1.6 8.7 0 8.9s-1.1-9.8-1.1-9.8-8.1-3.9-11.3-3.6c0 0 5 8.5 3.4 8.3s-7.3-8.8-7.3-8.8-8.3-1.5-9.6 3.4.8 7.4 2 7.7 9.1.2 8.9 1.2-5.5 2.7-8.5 1.7c0 0 3.3 8.1 7.6 7.7s5.6-3.1 8.3-3.3 4.6.5 3.3 1.2-5.8.2-8 2.1-3.9 3 .1 3.8 11.2.3 12.6-2.8l1.4-3.1z"/><path d="M338.4 315.3s21.5 7 24 14.7c0 0-.1 3.5 2 7.5v1.5s-2.3-5.2-3.5-5.9c0 0 4.9-6.7-22.5-17.8z"/><path d="M364.4 337.5s3.3 5 1.4 11.2l-.9-.2s.8-6.8-.9-10.1c-1.6-3.5.4-.9.4-.9z"/><path d="M362.2 360.6c-7.3 0-13.3-5.9-13.3-13.3h26.5c0 7.4-5.9 13.3-13.2 13.3z"/></g><g fill="#77a4e5"><path d="M375.913 347.8h-27.3v-.4h27.3zm-8.013 12.8h-12.4 0a1.11 1.11 0 0 1 1.1-1.1h10.3c.5 0 1 .5 1 1.1h0z"/></g></g><path d="M281.4 271.6c-17.1 13.9-37.5 24.6-60.7 31.7-18.9 5.8-39.8 9.4-62.2 10.6-6.1.3-12 .5-17.8.5-11.6 0-22.2-.6-31.5-1.4l3.8-17.8c12.8 1 28.1 1.6 44.7.7 21.1-1.1 40.7-4.5 58.3-9.9 21.2-6.5 39.8-16.2 55.1-28.7l10.3 14.3z" class="BT"/><path d="M154.2 236.1c-2.4-1.2-4.3-.5-4.3-.5-7.3-.9-9.4 7.6-9.3 10.5s.4 6-2.8 9.8c-9.4 10.9 10.2 11.4 10.2 11.4.2-8.7 10.6-5.5 10.2-4.7 13.5 3.4 1.4-23.7-4-26.5z" class="BR"/><path d="M126.2 272.5s-1.3-1.9-2.3-2c-1 0-2.9-.6-2.8-.2.2.4 1.3.4 1.4.6s-1.8.6-2.3.6-1.8 0-1.8.3 2.3 1.4 3.8 1.2c1.6-.2 3.5.5 3.5.5l.5-1z" class="BQ"/><path d="M144.6 273.1s-.7 1.4-2 3c-1.5 1.9-3.9 4.1-6.8 4.5-1.4.2-2.8-.1-4-.7-3.6-1.6-6.2-5.2-6.2-5.2-.6-1.7.4-2.9.4-2.9s7.2 1.6 7.9 1.3 4.7-11.9 5.6-13.3c1-1.4 4.2-2.2 4.2-2.2l.9 15.5z" class="BU"/><path d="M142.7 276.1c-1.5 1.9-3.9 4.1-6.8 4.5-1.4.2-2.8-.1-4-.7.1 0 3.7.5 5.1-2.1s3-6.7 5.2-5.3c.9.6.8 2.1.5 3.6z" class="BW"/><path d="M171.5 350.9s2.2 2 1.8 3.4-2.4 2.4-2.7 4.1-1.3 2.7-2.3 2.7h-4.6s-.7-1.2 1-1.6 2.4-2.4 2.3-4.3.2-4.4.2-4.4l3.6-.8.7.9z" fill="#36599e"/><path d="M152.9 351.7s.8 8.5-.2 9h-12.3s0-1.4 2-1.7 5.5-1.5 6.1-4.1c.5-2.6 4.4-3.2 4.4-3.2z" class="BX"/><path d="M161.7 290.8c-2.5-5.7-4.1-7.3-3.8-9.1.2-1.3-.7-24.5-.7-24.5-.3-.1-.9-.2-1.2-.3-1-.2-1.9-1-2.3-2-.4-1.2-.8-3-.8-5.2l-.3.1-5.5 1.1a65.09 65.09 0 0 0 .1 3.3c0 1.4-.9 2.7-2.3 3-.7.2-1.3.4-1.3.4s-2 5.7-2.4 11.6 3.7 8.5 0 20.2c-3.7 12.1 21.9 4.5 20.5 1.4z" class="BQ"/><path d="M147.2 250.8l.1 3.3c3.1-.1 4.7-2.9 5.3-4.4l-5.4 1.1z" fill="#e8945b"/><path d="M146.1 252.3s7.2.1 7.3-4.4c0-4.5.9-7.5-3.7-7.8s-5.5 1.5-5.9 3 .5 9.1 2.3 9.2z" class="BQ"/><g class="BR"><path d="M146.4 240s2 5.3 5 6.1 4.4 0 4.4 0-2.3-1.9-2.8-5.1c0 0-5.1-3.5-6.6-1z"/><path d="M146.9 240.5s-1.5.5-2.1 1.6a7.12 7.12 0 0 0-1 4.1s-1.5-3.6.2-5.6c1.8-2.2 2.9-.1 2.9-.1z"/></g><path d="M147.7 249.5s-.5.7-1.5.6c-.8 0-1.1-.7-1.1-.7s1.5-.3 2.6.1z" class="BY"/><path d="M162.4 267.4s.2 2.6 0 5.7c-.1 2.1-2.2 4.8-2.5 5.5-.7 1.7-1.6 2-1.6 2l-6.5 1.6-2.3.6-7.2-2.1s-3.3-9.1-2-14.3c1.3-5.1 3.3-8.7 3.3-8.7s5.9 5.7 13.5-.5l5.3 10.2z" class="BU"/><path d="M142.8 282s-3.6 11.1-3.8 14.9 6.8 53.6 7.1 55.3c.3 1.6 2.3 2.7 2.3 2.7s.9.6 2.3.2c1.9-.5 2.4-1.1 2.4-1.1s2.8-35.5 1.1-48.2-1.7-23.7-1.7-23.7h-9.7z" class="BS"/><path d="M157.9 281.7s5.4 7.3 5.9 12.2.8 22.2 1.9 27 5 14 5 29c0 0-.4.9-1.7 1.3l-1.5.4a2.49 2.49 0 0 1-2.6-1.2c-2.7-5.4-11.2-22.8-11.6-26.4-.3-2.6-3-19.5-8.9-29.4-1.4-2.4.9-11.9.9-11.9l12.6-1z" class="BX"/><path d="M147.6 249.7s-.1.5-1.4.4c0 0-1.1-.1-1.1-.7-.1.1 1-.4 2.5.3z" fill="#fff"/><path d="M142.3 280.3s1.4 1.1 4.3 1.2c3.4.1 11.8-.9 11.8-.9a6.39 6.39 0 0 0 .4 2.1s-10.3 2.6-16.2.4c-.1 0-.9-1.4-.3-2.8z" class="BS"/><path d="M145.7 284.4c-.9 0-1.5-.8-1.5-1.8s.7-1.8 1.5-1.8c.9 0 1.5.8 1.5 1.8.1 1-.6 1.8-1.5 1.8zm0-3c-.6 0-1 .6-1 1.2 0 .7.5 1.2 1 1.2.6 0 1-.6 1-1.2s-.4-1.2-1-1.2z" fill="#fff"/><path d="M146.329 277.022l10.483-9.128 12.543 14.405-10.483 9.128z" class="BZ"/><path d="M155.9 282.3s-3.9.5-3.8 1.4c0 .9 1 2.8 1.4 2.9.5.1 3.1-2.5 3.1-2.5l-.7-1.8z" class="BQ"/><path d="M157.2 257.1s5.1.4 7.1 5.2 5.7 12.8 5.7 14.2-2.1 5.5-13.3 7.9c0 0-1.2-1.2-1.1-2.2 0 0 7-6 7-6.7 0-1.3-1.1-3.1-7.3-9.2-1.6-1.7 1.9-9.2 1.9-9.2z" class="BU"/><path d="M46 361.1h0c-.4 0-.6-.2-.6-.5l.8-35.1 2.4-.3-2 35.3c-.1.4-.3.6-.6.6z" fill="#95c0f4"/><path d="M84.3 361.1h0c.4 0 .6-.2.6-.5l-.8-35.1-2.4-.3 2 35.3c0 .4.3.6.6.6zm-39.9-37.8v-24c0-4.2 3.4-7.7 7.7-7.7h17.3c4.2 0 7.7 3.4 7.7 7.7v24.9l-32.7-.9z" fill="#b0d4ff"/><path d="M80.1 327.1h-32a3.8 3.8 0 0 1-3.8-3.8h0H80v3.8z" fill="#95c0f4"/><path d="M83.9 327.1H59c-1 0-1.9-.8-1.9-1.9h0c0-1 .8-1.9 1.9-1.9h24.9c1 0 1.9.8 1.9 1.9h0c0 1.1-.8 1.9-1.9 1.9z" fill="#b0d4ff"/><path d="M83.1 317.3c-2.5 4.3-5.6 6-5.6 6h-13c.1 0 20.5-9.3 18.6-6z" class="BS"/><path d="M73.2 350.7c-.3.4-.4.8-.2 1.3.3.9 1.3 1.8 2.5 2.8a1.38 1.38 0 0 1 .4.3l.1.1.1.1c1.1 1 .7 1.3 2.7 3.3 2.3 2.4 3.8 2.4 4.3 2.2.4-.2-.4-1.4-1.2-2.8 0-.1-.1-.1-.1-.2l-.3-.6c-1-1.7-.7-2.5-.5-5 .2-2 3.2-11.4 3.2-11.4l-4.3-.7s-1.3 7.5-2.8 8.6c-.8.6-1.6.6-2.4 1.1-.1 0-.1.1-.2.1-.6.1-1 .4-1.3.8z" class="BQ"/><path d="M73.2 350.7c-.3.4-.4.8-.2 1.3.4.9 1.4 1.8 2.5 2.8.1.1.3.2.4.3l.1.1.1.1c1.1 1 .7 1.3 2.7 3.3 2.3 2.4 3.8 2.4 4.3 2.2.4-.2-.4-1.4-1.2-2.8-.4-.2-2.5-1-4-3-1.4-1.7-2.3-4-3.2-5.3-.1 0-.1.1-.2.1-.6.2-1 .5-1.3.9z" class="BS"/><path d="M108.2 348c.3 1.3 2.2 1.1 4.3.6s1.6.1 4.7-.2c3-.3 4-1.5 4.1-1.9s-1.4-.5-3-.7c-.2 0-.4 0-.6-.1-1.8-.2-3.2-1.4-4.8-2.4-1.6-.9-3.9-4.6-3.9-4.6l-4.2.3 3 4.8c.5.9.5 2 .4 2.8 0 .4-.1.9 0 1.4z" class="BQ"/><path d="M112.5 348.6c2.1-.5 1.6.1 4.7-.2 3-.3 4-1.5 4.1-1.9s-1.4-.5-3-.7h0s-1.8 1.3-4.4 1.4c-2.1.1-4.2-.5-5.7-.5 0 .5-.1 1 0 1.4.3 1.2 2.2 1 4.3.5zm-20.3-27.3l-3.9 10.5-5.1 13.7s-1.4.1-2.7-.2c-1.2-.4-2.6-1.3-2.6-1.3s1.4-14.7 4-23.2c.7-2.2 1.4-3.9 2.3-4.9 4.1-4.8 8 5.4 8 5.4z" class="BS"/><path d="M88.3 304.7c-2.6-.8-9.8.2-17.2 1.7l-1.5-2.5-15.8-1.2s-5.2 11.6-2.4 18.9c.4 1.1 1.3 1.8 2.7 1.8h.2 12.5c7.9 0 16.6-5.4 17.8-5.6 1.9-.4 2.6 3.3 4.5 7.2s17.5 17.3 17.5 17.3 2.4 0 3.4-.3c1.1-.4 1.5-.9 1.5-.9S94 306.5 88.3 304.7z" class="BX"/><path d="M69 257.8c-2-1.1-5.1-1.2-5.6-1.3-6-.8-9.6 7.9-9.8 10.5-.4 4.9-3 5.6-6.6 8.6-7.3 6.1-5.1 13.2-1.2 15.8 2.4 1.6 6.6 0 6.6 0 .1 0 11.5-6.4 17.1-9.5 8.4-1.1 4.6-21.4-.5-24.1z" class="BZ"/><path d="M64.8 279.4s-2.8 1-4.6.1c-1.8-.8-3.1-3.7-3.1-3.7.8 0 1.7-.7 2.4-5.3l.3.1 5.7 2.1-.7 3.6c-.2 1.5-.3 2.9 0 3.1z" class="BQ"/><path d="M65.5 272.7l-.7 3.6c-3.3-.6-4.6-3.9-5-5.6l5.7 2z" fill="#ed975d"/><path d="M66.3 274.6s-7.8-1.1-7.1-5.9c.7-4.9.2-8.3 5.2-7.8s5.7 2.5 5.9 4.2c.2 1.6-1.9 9.6-4 9.5z" class="BQ"/><g class="BZ"><path d="M70.1 262.3s-5 4.3-8.4 4.7c-3.4.3-4.7-.7-4.7-.7s2-1.7 3.2-4.4a2.47 2.47 0 0 1 2-1.4c2.4-.3 7-.3 7.9 1.8z"/><path d="M66.9 261.9s1.7 1.6 2.2 2.8.7 3.9.3 5c0 0 2.6-5.1 1.1-7.6s-3.6-.2-3.6-.2z"/></g><path d="M71.4 290.9c-.2 15.9-.1 12.5-1.8 14-.4.4-1.6.6-3.1.7-4.9.3-13.4-.5-13.7-1.4-1.1-3.1-.3-4.1-1.3-8.8-.1-.5-.2-1.1-.4-1.7-.8-3.3-1.5-4.4 1.2-9.6 2.5-4.8 5.1-8.6 5.4-8.5 6.6 3.9 7.2.6 7.2.6s6.6 7 6.5 14.7z" class="BV"/><path d="M88.3 331.8l-5.1 13.7s-1.4.1-2.7-.2c-1.2-.4-2.6-1.3-2.6-1.3s1.4-14.7 4-23.2l6.4 11z" class="BX"/><path d="M64.8 276.3s6.8 1.2 7.6 4.1l5.5 20.2s-3.5.6-5.1-1-5.6-14.8-5.6-14.8l-2.4-8.5z" class="BV"/><path d="M66.4 305.7c-4.9.3-13.4-.5-13.7-1.4-1.1-3.1-.3-4.1-1.3-8.8l2.3-6.6s-.4 7.4 1.8 9.3 8.9 3.7 9.9 5.3c.6.8.9 1.5 1 2.2z" fill="#6980e2"/><path d="M60.9 302.6s4.8-1.1 5.6-.6c.8.4 2.7 2 2.9 2.5s-1.7-.4-2.4-.6c-.4-.1-1.5.3-2 .4-2.3.8-3.7.4-3.7.4l-.4-2.1z" class="BQ"/><path d="M57.7 275.7s-6.4.4-8.7 3.5c-3.1 4.4-9.4 23-5.8 25.5 4 2.8 18.3.7 18.3.7s.5-2.2-.2-3.3-11.4-2.8-11.9-3.3 6.2-9.7 6.2-11.1c0-1.5 2.1-12 2.1-12z" class="BV"/><g class="BQ"><path d="M66.7 303.3s1 1.3 1.3 1.5.5.1.5.1l-.7-1.2-1.1-.4z"/><path d="M66.4 301.9l2.9 1.4s-.1.2-.5.2-1.3-.3-1.3-.3l-1.1-1.3z"/></g><g class="BT"><path d="M66.9 306.7h24.7l7.4-17.3H74.4z"/><path d="M91.9 305.6H59.3v1.1h32.3z"/></g><path d="M85.4 298.1a.8.8 0 0 0-.8-1.1 1.74 1.74 0 0 0-1.5 1.1.8.8 0 0 0 .8 1.1 1.74 1.74 0 0 0 1.5-1.1z" class="BY"/><g class="BS"><path d="M128 361.6h0c.5 0 .8-.4.8-.8l-1.1-51.1-3.2-.4 2.7 51.6c.1.3.4.7.8.7zm-66.4 0h0c-.5 0-.8-.4-.8-.8l1.1-51.1 3.2-.4-2.7 51.6c0 .3-.4.7-.8.7z"/><path d="M128.6 310.4H58.2a1.79 1.79 0 0 1-1.8-1.8h0a1.79 1.79 0 0 1 1.8-1.8h70.4a1.79 1.79 0 0 1 1.8 1.8h0a1.79 1.79 0 0 1-1.8 1.8z"/></g><defs ><path id="B" d="M274.2 357.7v2.9c-.1.1-.3.2-.4.3v-3.5c.1.1.3.2.4.3z"/></defs></svg>