<svg xmlns="http://www.w3.org/2000/svg" viewBox="0 0 400 520" xmlns:v="https://vecta.io/nano"><style><![CDATA[.Bi{fill:#ffb27d}.Bj{fill:#233862}.Bk{fill:#f99746}.Bl{fill:#ed7d2b}.Bm{fill:#fff}.Bn{fill:#163560}.Bo{fill:#2b478b}.Bp{fill:#aec3ff}.Bq{fill:#9db0f4}.Br{fill:#ed975d}.Bs{fill:#86d1cd}]]></style><path d="M6.9 378.8l132.2-.6h35.2H186h35.3 161.2s36.9-47.7-2.5-93c-40.9-47.1-60.8-8.7-73.3-74.9-31.6-166.5-344-69.6-262.1 72.1 29.5 50.9-58.1 23.7-37.7 96.4z" fill="#ebf3fa"/><path d="M159.8 370.8s.5 5.8-.8 6.4h-15.8s0-1.8 2.5-2.3c2.5-.4 6.9-1.8 7.7-5.2.9-3.2 6.4 1.1 6.4 1.1zm45-2.2s.4 8.1-.8 8.6h-15.8s0-1.8 2.5-2.3 6.9-1.8 7.7-5.2c1-3.2 6.4-1.1 6.4-1.1z" class="Bj"/><path d="M205.3 369.5s-3.1 1.6-4.4 1.9c-1.5.3-4.3.1-4.3.1-5.4-14.4-21.9-72.5-21.9-72.5-.8 16.1-3.7 32.2-6.7 45.1-.1.3-.2.6-.2 1.1h0c-.1.3-.1.6-.2 1h0c-3.7 15.2-7.3 25.6-7.3 25.6s-1 1.2-3.6.6c-3-.6-4-1.9-4-1.9l3-97s26.2-14.1 33.3-2.1c7.2 11.9 16.3 98.1 16.3 98.1z" fill="#2a4e96"/><path d="M194.8 279.6c-3.5-12.2-4-23.7-3.9-33.2 0-13.6 1.3-23.2-2.8-24.8 0 0-12.6-3.7-21.4-5.3-1.4-.8-2.9-1.5-4.1-2.1-2.7-1.1-13.5-16.7-15.3-20.4-1.8-3.8-4.9-20-4.9-20l-4.2 1.3s-1.3 18.2-.6 23c.6 4.7 13.9 25.3 15 27h0c4.7 17.3 0 45.3 2.2 51.6 1.1 3.2 21.7 9.2 33 8.4.5 0 1.1-.1 1.6-.2h0c2.7-.3 4.6-1.2 5.3-2.7.4-.6.4-1.6.1-2.6z" class="Bp"/><path d="M142.4 173.8s2.4-6.9.6-7c-1.7-.2-6-.2-6.6 1s1.8 7.4 1.8 7.4l4.2-1.4z" class="Bi"/><path d="M97.5 190.9l-13.9-8.4c.6-1 1.6-1.7 2.7-1.9s2.3-.1 3.2.5c.9.5 2.1.2 2.6-.6l3.8-6.3 3.2 1.9-3.8 6.3c-.3.4-.3 1-.2 1.4s.4.9.9 1.2c1 .6 1.7 1.6 1.9 2.7.4 1 .3 2.1-.4 3.2z" class="Bl"/><g class="Bk"><path d="M97.5 190.9l-9.3-5.6c-2.2-1.8-1.1-3.3 0-3.6 1.1-.2 2.3-.1 3.2.5.9.5 2.1.2 2.6-.6l3.8-6.3 1.3.8-3.8 6.3c-.3.4-.3 1-.2 1.4s.4.9.9 1.2c1 .6 1.7 1.6 1.9 2.7.4 1 .3 2.1-.4 3.2z"/><path d="M138.3 150.2l-11.2 14.2c-3.9 6.5-10.7 9.6-17.2 9.8h0c-2.2.1-4.4-.1-6.4-.8-1.6-.4-3.6.4-4.6 2.2l-.2.3c-.6 1.1-1.2 1.9-1.2 1.9l-2.4-1.4 1.2-2.1c1.2-1.9 1.1-4.3-.2-5.7-5.4-6-7.4-16.1-2.3-24.7l7.7-16.4 36.8 22.7z"/></g><path d="M91.2 155.8c1-5.3-1.6-8.2-4.4-11.3-2.2-2.5-4.4-5-5-8.7-.5-4.2 1.4-8.5 4.9-10.7 2.6-1.6 5.5-1.7 8-.1 3.5 2.3 4.7 6.5 3.7 12.4-.8 4.2-2.4 7.8-2.5 8l-2.2-1c.1-.1 6-13.2-.4-17.4-2.2-1.4-4.3-.5-5.4.1-2.6 1.6-4.2 5.1-3.8 8.3.4 3 2.3 5.2 4.3 7.4 2.8 3.2 6 6.8 5 13.3l-2.2-.3z" class="Bl"/><path d="M118 172.1c4.3-3.2 8.1-2.4 12.1-1.4 3.2.8 6.5 1.6 10 .3 4-1.5 6.8-5.2 7.1-9.3.2-3.1-1.1-5.7-3.6-7.1-3.6-2.1-8-1.2-12.7 2.5-3.5 2.6-5.8 5.7-5.9 5.8l1.9 1.4c.1-.1 9-11.4 15.5-7.7 2.3 1.3 2.5 3.6 2.4 4.9-.2 3.1-2.6 6-5.6 7.2-2.9 1.1-5.7.3-8.6-.3-4.2-1.1-8.8-2.2-14 1.8l1.4 1.9z" class="Bk"/><path d="M109.8 174.3c-2.2.1-4.4-.1-6.4-.8-1.6-.4-3.6.4-4.6 2.2l-.2.3c-.9.4-1.4 1-1.7 1.6l-1.8-1.1 1.2-2.1c1.2-1.9 1.1-4.3-.2-5.7-5.4-6-7.4-16.1-2.3-24.7l7.7-16.4 6.2 3.7c-.2.4-25.1 33.9 2.1 43z" class="Bl"/><path d="M98.8 179.6l-6-3.7c-.9-.5-1.1-1.6-.5-2.4h0c.5-.9 1.6-1.1 2.4-.5l6 3.7c.9.5 1.1 1.6.5 2.4h0c-.4.7-1.5 1-2.4.5z" class="Bk"/><path d="M100.7 159.2l.6-1.1c3.1 1.6 3.5 1.5 4.7-.6l6.4-10.6c.9-1.5.4-1.9-.6-2.8l-.8-.6.5-1c2.4 1.1 5.3 2.1 7.3 2.5l-9 14.9c-1.3 2.2-1.3 2.5 1.6 4.4l-.6 1.1-10.1-6.2z" class="Bm"/><path d="M136.5 167.7s-.2 2.4.5 2.8c.8.4 1-2.8 1-2.8s0 2.7.6 2.8c.5.2 1-3 1-3s.1 2.6.4 2.5c.4-.1.6-2.5.6-2.5s.2 1.8.8 1.5c.5-.3 1.1-2.4 1.1-2.4l-6 1.1zm5.9 6.1s1.6-1.3 1.9-2.4c.3-1.2 1.4-3.1.9-3.3s-2.2 2.3-2.2 2.3l-.6 3.4zm28.1 40.5l-.2 1.1s-1 3.2 3 4.5 7.3 1.8 7.7-.6l.2-6.9c.1-.6.3-1.3.5-1.9l-7.9-1.7-2.4-.1-.9 5.6z" class="Bi"/><path d="M171.6 208.6l-.8 3.9c7.4 1.9 10.7-1.4 11-2.1l-7.9-1.7-2.3-.1z" fill="#e2915a"/><path d="M182.9 208.8c-2.3 4.6-8.6 2.7-11.3 1.6-.8-.3-1.2-.5-1.2-.5-.9-.4-.9-1.9-.6-3.9.5-3.7 2.6-8.7 3.6-9.9 1.5-1.7 3.8-3.5 9.8-.1s2.7 6.9-.3 12.8z" class="Bi"/><path d="M172.6 190.9s2.9.5 6.7.1c3-.4 6 1.8 7 2.7 0-.2 0-.4-.1-.8 0 0 .4.5.3 1 0 0 .1.1 0 .1 0 0 .6.1.9.3 0 0-.2-.1-.4 0h0c3.7 3.2 2.2 10 .3 11.2-2.2 1.4-5.8 5.3-5.8 5.3s.1-1.4.9-2.9-.6-1.9-2.3-3.2c-1.6-1.3.5-2.9-.8-4.6-1.2-1.7-7.1-2.6-6.8-3.6-1.6-1.3.1-5.4.1-5.6z" class="Bj"/><path d="M173.6 207.1s-.4.5-1.9-.1c0 0-1.3-.5-1-1.3 0 .1 1.5 0 2.9 1.4z" class="Bm"/><path d="M171.9 223s-3.6 23.7-30.3 40.1l-2.5 7.2h9.6s24-20.1 25.6-46.7l-2.4-.6z" class="Bl"/><path d="M171.9 223v-3.6l4.4 1.2-2 3.1z" fill="#db6516"/><g class="Bq"><path d="M170.5 214.3l-2.6 2.2s-.8 3.1 1 6.4l5.2-3c-.1.2-3.1-1.4-3.6-5.6z"/><path d="M174 220.1s.5 2.8 1.8 4.2c0 0 5.8-1 7.4-3.8l-2.5-3.8c.3-.2-.3 2.5-6.7 3.4z"/></g><path d="M209.1 281.5s0 5.3-.4 6.4c-.5 1.1-2.7 4.5-3.7 5.2-1 .8.2-4.2-.1-5.2-.3-.9-.8 1.8-1.2 1.9s-.6-2.3-.8-3.1 1.9-3.2 2.6-5.2c.8-1.9 3.6 0 3.6 0z" class="Bi"/><path d="M188 221.6s5.2 1.4 8.6 9.1c3.7 8.1 13.5 25.9 13.8 28.4s-.6 25.5-.6 25.5-4.3.2-5.6-1.8c0 0-1.5-20.2-2.2-21.4-.6-1.1-17.5-21.2-16.1-26.3 1.4-5.2 2.1-13.5 2.1-13.5z" class="Bp"/><path d="M194.7 282.2c-1.3 1.1-3 2.1-5.3 2.7h0c-.5.2-1.1.2-1.6.2-9.4-1-8-37.6-3.5-40.3 4.9-2.8 6.5 1.5 6.5 1.5 0 9.6.5 21.2 3.9 33.2.4 1.1.4 2.1 0 2.7z" class="Bq"/><path d="M167.6 346c.1-.3.1-.5.2-1 0 .4-.1.7-.2 1zm.5-1.9c2.9-13.6-.2-50.2 1.2-50.9 1.4-.8 5.5 5.8 5.5 5.8-.8 16-3.7 32.1-6.7 45.1z" class="Bj"/><path d="M97.6 371.9l-.8-5.9 3.4-2.9 1.1 7.8z" class="Bi"/><path d="M109.2 377.3H94.9s-.3-2.2.4-3.8c.8-1.6 1.8-2.6 1.9-3.8.9 1 2.1 1.5 4.1 1.3.2.4 1.6 2.6 2.5 3.2 1 .6 5.1.4 5.4 3.1z" class="Bj"/><path d="M106.4 291.1c-1 7.4-1.7 14.6-2.3 21.2-3.3 35.1-2.7 56.4-2.7 56.4s-.2.6-2.3.6c-1.2 0-2.3-.2-2.3-.2s-7.4-22.9-6.8-35.9c.1-1.6.2-3 .5-4.2 1.7-6.7-6.6-32.2 2.5-41.7s13.8.3 13.4 3.8z" class="Bk"/><path d="M106.4 291.1c-1 7.4-1.7 14.6-2.3 21.2L90 333.2c.1-1.6.2-3 .5-4.2 1.7-6.7-6.6-32.2 2.5-41.7s13.8.3 13.4 3.8z" class="Bl"/><g class="Bi"><path d="M117.5 219.7s-.3-1.7-.8-3c-.2-.5 1-4.3 1.8-4.9.9-.4 3 2.1 2.4 4.1-.3 1-.9 4.3-.9 4.3l-2.5-.5z"/><path d="M117.5 219.7s-.4-1-.9-1.2c-.4-.1-.9-1.8-1.2-2.4 0 0 .3-.4.8.1.3.3 1 1.3 1 1.3l.3 2.2zm-58.7 5.8c-.1.2-.2.5-.3.8v-.2c0-.6-2.3-3.9-3.1-4.1-1-.2-2.3 2.9-1.1 4.5l2.1 3.9 2.4-1.2s.1-1.1.4-1.4.3-1.9.3-2.7c0 0-.4-.3-.7.4zm15 144.6c-.2-1.9-.2-7-.2-7s5.2-1.6 5-.5c-1 5.5-.6 8.3-.6 8.3l-2.1 1.3-2.1-2.1z"/></g><path d="M102.1 290.7s-19.9 54.5-23.7 78c0 0-.9.6-2.6.4-1.9-.2-2.5-1.6-2.5-1.6s-3.6-28.3 3.6-38.1c4.9-6.8-2.2-36.4 9.3-38.7 11.3-2.3 15.9 0 15.9 0z" class="Bk"/><path d="M98.5 238.4h0c0-.1 0-.1 0 0-.1-.5-.2-1-.4-1.5h0a37.31 37.31 0 0 0-1.4-4c-.3-.6-.6-1.3-1-1.9 0-.1-.1-.2-.1-.2h0c-.8-1.3-1.5-2.2-2.3-2.5-1.3-.5-2.7-.3-3.8-.1.2-.3.8-.4.8-.4-.6 0-1.9.9-1.9.9-9.2-2.1-8.6 10.9-8 13.8s-2.4 4.3-6.5 7.3c-7.9 5.7-7.8 11.8-7.8 11.8.1 0 .1.1.2.1.3-.8 1-2.3 1.7-2.6 0 .1-.6 1.9-.8 3 1.2.6 2.9 1.7 4.6 2.8h0c2.5 1.5 5.1 3.3 7.2 4.7-.1-.5-.2-1.4 0-1.9l.6 2.2.1.3c1.4 1 2.5 1.6 3 2.1.1 0 .1.1.1.1l.2.2c-.2-.8.6-2.7 1.9-5.2.1-.2.2-.3.3-.5.4-.8 1-1.6 1.4-2.5.2-.3.3-.6.5-1h0c.1-.2.3-.5.4-.8h0l1.2-1.8c1.1-1.6 2.2-3.1 3.3-4.5 1.6-2.1 3.2-3.9 4.5-5.1 0-.1.1-.2.1-.3.2-.4.3-1 .5-1.5 0-.2.1-.3.1-.5.3-1.7.3-3.5.3-3.9.1 1.7.1 2.9 0 3.9 0 .2 0 .4-.1.5h0c-.1.4-.1.8-.2 1.1.2-.2.4-.5.5-.9l.3-.6c1.7-2.7 1.5-6.8.5-10.6z" class="Bn"/><path d="M96.8 251.5s-2.6 1.8-4.7 1.6-3.8-2.6-3.8-2.6c.9-.3.9-1.5.1-6.5h.4l6.6.3s.1 2.1.4 3.9c.3 1.6.7 3.2 1 3.3z" class="Bi"/><path d="M95.4 244.3s.1 2.1.4 3.9c-3.6.4-5.9-2.6-7-4.2l6.6.3z" class="Br"/><path d="M88 243.4s-2.3-2.7-3.1-5.2c-.5-1.7-.6-8.6 6.3-8.6 0 0 1.9-.1 4 .9 1.6.8 4 2.6 2.6 8.8l-.3 2.1-9.5 2z" class="Bn"/><path d="M107.1 289.7s-8.5 5.1-19.3 2.5c-.1 0-8.8-1.4-8.8-1.4.1-.4 1.3-7.1 1.4-7.6 1.9-5 5.4-31.6 8.3-33 .8.9 2.9 1.4 4.6 1.2 2.1-.2 2.8-1.1 2.6-2.1 2.3 1.1 4.1 2.2 4.1 2.2 2.3 3.2 7.1 38.2 7.1 38.2z" class="Bm"/><path d="M96.9 246s-8.4 1.4-9.3-3.9c-.8-5.3-2.4-8.6 2.9-9.7 5.4-1.1 6.7.8 7.4 2.5.8 1.6 1.1 10.5-1 11.1z" class="Bi"/><g class="Bn"><path d="M94.4 231.6s-1.4 6.6-4.9 8-5.1.8-5.1.8 2.4-2.6 2.4-6.5c.2 0 5.4-5 7.6-2.3z"/><path d="M94 232.1s1.9 1.1 2.6 2.4c.6 1.3 1.2 4 2.1 3.8 0 0 1.1-4.4-1.2-6.6-2.7-2-3.5.4-3.5.4z"/></g><path d="M120.2 219.8c-.3-.1-.9-.4-1.5-.4-.5 0-1.3.1-1.3.1l-2.6 15.6c-.2.8-10.3 12.1-13 12.1-2.5 0-5.4 1.8-5.9 2.2 0 0 5.7 12.1 5.9 14.4.3 2.5 3.2 40.4 3.2 40.4s-.2 1.7 3.1.9c3.3-1 4.1-1.7 4.1-1.7l-3.7-39.2c-.1-1.3-.3-2.4-.5-3.5-.3-1.1-.1-2.2.5-3 4.2-5.7 10.8-15 11.1-16.9.9-3 .6-21 .6-21z" class="Bo"/><path d="M85.6 377.3H71.3s-.3-2.2.4-3.8c.8-1.6 1.8-2.6 1.9-3.8.9 1 2.1 1.5 4.1 1.3.2.4 1.6 2.6 2.5 3.2s5.1.4 5.4 3.1z" class="Bj"/><path d="M95.4 264.8c-.4-2.9-6.6-14.8-6.6-14.8s-3.9-1.2-6.4-.2c-2.6 1-15.8-6.5-16.2-7.2-.4-.6-7.4-13.8-7.4-13.8s-.5-.3-1.5.1-1 1.4-1 1.4 5.4 16.5 6.9 19.1c.9 1.5 8.2 6.9 13.9 10.9 1.1.8 1.6 2.1 1.5 3.3-.8 5.6-1 8.8-1.8 18.6-.8 8.1-1 23.6-1 23.6s6.4 2.2 10.8 2.5S92 304 92 304s3.9-36.1 3.4-39.2z" class="Bo"/><path d="M94.1 243.4s1.1.6 2.3.4c.9-.1 1-1.1 1-1.1s-.5-.2-1.5 0c-1 .1-1.8.7-1.8.7z" class="Bm"/><path d="M258.7 242.3s2.6 4.3-2.3 7c0 0 3.8 1.4 5.1.9 0 0-.3.3-.5.4 0 0 3.6 1.1 5.4.5 1.7-.6 5.6-17.9-5-18.8 0 0-8.3-3-10 6.3s-5 8.3-5 8.3.8.6 1.2.8c0 0 .6 0 .9-.3 0 0-.2.4-.4.5 0 0 3.3 1.3 5.4.5 2-.5 5.2-4.2 5.2-6.1z" class="Bn"/><path d="M248.2 378.5h13.4s.3-2.1-.4-3.6c-.6-1.5-1.7-2.4-1.8-3.6-.9.9-1.9 1.4-3.9 1.2-.2.4-1.5 2.5-2.4 3-.8.7-4.7.5-4.9 3z" class="Bj"/><path d="M259.2 373.4s-1.2.3-2.4.4c-2.2.2-2.4-.4-2.4-.4s-2.1-18.7-9-54.5c-1-5.2-1.4-8-1.7-12.6l-.3-4.7c-.3-4.9.4-13 4-15.1 1.6-1 3.9-.8 6.9 1.6a2.76 2.76 0 0 0 .8.6c8.8 7.7 5.2 29.6 5.5 39.8.1 1.7.2 3.1.5 4 .4 1.2 1.4 2.9 1.6 4.5 2.1 13.6-3.5 36.4-3.5 36.4z" class="Bo"/><path d="M260.7 328.6l-16.9-22.3-.3-4.7c-.3-4.9.4-13 4-15.1l6.9 1.6a2.76 2.76 0 0 0 .8.6c8.9 7.8 5.2 29.7 5.5 39.9zm47.8 21.6l-5.6-12.2s-1.9.5-3.1 1.8c-1.1 1.2-1.8 1-4.3-.6 1 1.4 1.1 2.3 1.6 4.1.4.1 3 2.5 5.6 3.2 1.1.4 3.3 4.6 5.8 3.7z" class="Bj"/><path d="M249.9 291.9s12 41.9 16.4 44.5c4.4 2.7 27.6 6.4 32.3 8.4 0 0 .5-.9.2-2.6-.1-.4-.8-1.8-.8-1.8s-14.4-10.8-23.9-11.9c-2.4-.3 4.7-36.2-11.1-37.6-14.3-1.2-13.1 1-13.1 1z" class="Bo"/><g class="Bi"><path d="M232.8 223.3l.6-2.8c.1-.5-1-4.1-1.7-4.5-.8-.4-2.8 1.9-2.3 3.8.3 1 .8 4 .8 4l2.6-.5z"/><path d="M232.8 223.3s.4-1 .8-1.1.8-1.7 1.1-2.3c0 0-.3-.4-.8.1-.3.3-1 1.2-1 1.2l-.1 2.1zm55.4 5.5c.1.2.2.4.3.8v-.2c0-.5 2.2-3.7 3-3.9.9-.2 2.1 2.7 1 4.3l-1.9 3.7-2.3-1.2s-.1-1-.4-1.3c-.3-.2-.2-1.8-.3-2.5-.1 0 .3-.3.6.3zm-35.9 24.5s2.4 1.7 4.5 1.5c1.9-.2 3.6-2.5 3.6-2.5-.8-.3-.9-1.4-.1-6h-.3l-6.3.3s-.1 1.9-.4 3.7c-.3 1.5-.6 2.9-1 3z"/></g><path d="M253.6 246.6s-.1 1.9-.4 3.7c3.3.4 5.6-2.4 6.6-4l-6.2.3z" class="Br"/><path d="M260.6 245.7s2.2-2.5 2.9-4.9c.5-1.6.6-8.1-5.8-8.2 0 0-1.8-.1-3.8.9-1.5.8-3.8 2.5-2.4 8.3l.3 1.9 8.8 2z" class="Bn"/><path d="M244.5 290.3s6 3.9 16.3 1.4c.1 0 5.7-1 5.7-1-.1-.4-6-10.3-6.3-10.6-1.8-4.6 2.4-26.9-.4-28.1-.8.8-2.7 1.3-4.4 1.2-1.9-.2-2.6-1.1-2.5-1.9-2.2 1.1-3.9 2.1-3.9 2.1-1.8 2.9-4.5 36.9-4.5 36.9zm7.8-42.2s8 1.3 8.7-3.7 2.3-8.2-2.8-9.2c-5.1-1.1-6.4.6-7 2.3s-1 10.2 1.1 10.6z" class="Bi"/><g class="Bn"><path d="M254.6 234.5s1.3 6.2 4.5 7.6 4.9.6 4.9.6-2.3-2.5-2.3-6c0 0-5.1-4.7-7.1-2.2z"/><path d="M255 235.2s-1.8 1.1-2.4 2.3-1.2 3.8-1.9 3.6c0 0-1.1-4.2 1.1-6.2 2.3-2.2 3.2.3 3.2.3z"/></g><path d="M290.1 233.3s-5.2 15.6-6.5 18c-.9 1.5-10 7.2-15.4 11-.1 0-.1.1-.2.2h0c-1.3 2.1-5.5 14.9-4.5 17.3 4.2 9.7 7 13.4 8.1 16.2.5 1.4-.2 2.9-1.5 3.3-1.7.6-4.2 1.4-7.2 1.9-.5.1-1.2.2-1.7.2-8.3 1.1-13.8-.9-16.7-2.4-1.3-.6-2.2-2.1-2.1-3.6.2-3 1.7-6.2 2.4-13.5.5-5.6-4.3-14.1-4.1-17.1.1-1.2 1-2.6 1.5-3.5h0c.9-1.6 1.4-3 .8-3.9-3.9-5.4-12.4-12.8-12.7-14.7-.5-2.7-.3-19.6-.3-19.6.3-.1.8-.4 1.4-.4.5 0 1.3.1 1.3.1l2.4 14.7c.2.8 9.6 11.4 12.2 11.3 2.3 0 5.6 1.7 6 2.1 0 0-2.1 3.7-2.6 8.6-.3 3.5 1.9 1.9 3.5-.4 1.9-3.2 5.9-7.8 5.9-7.8s3.2-.9 5.6 0 14.9-6.2 15.2-6.8c.4-.6 7-13.1 7-13.1s.5-.3 1.4.1c.8 1 .8 1.8.8 1.8z" class="Bk"/><path d="M254.6 245.4s-.3.6-.8.6c-.4 0-1.6-.1-1.7-.2s-.3-.9-.3-.9 1.9.1 2.8.5z" class="Bm"/><path d="M269.9 299.5c-1.7.6-4.2 1.4-7.2 1.9-2.8-3.9-7.7-8.8-6.5-18 1.3-9.4 10.6-19.3 11.7-20.6-1.3 2.1-5.5 14.9-4.5 17.3 4.2 9.7 7 13.4 8.1 16.2.4 1.1-.2 2.6-1.6 3.2zm-28-37.9c.9-1.6 1.4-3 .8-3.9-3.9-5.4-12.4-12.8-12.7-14.7.9 2.1 11.1 8.1 14 10.7 2.8 2.5-2 7.8-2.1 7.9z" class="Bl"/><path d="M69.4 187.3s1.9 2.6 1.7 5.6c-.1 2.3-2.2 4.5-2.3 4.5l3.1 1.7s2.4-4.1 1.5-7.6c-.2-1.1-1.4-2.8-2.2-3.6s-1.8-.6-1.8-.6z" fill="#6bb7bf"/><path d="M62.9 187.5l-1.9-4.4s9.3.3 12.4 7.9c0 0-6.6-4.6-10.5-3.5z" class="Bs"/><path d="M27.8 299.5s-2.3-1.6-2.8-4.2c-.4-1.8.6-4.2.8-4.3l-2.9-.5s-.9 3.9.6 6.6c.4.8 1.7 1.9 2.6 2.3.9.3 1.7.1 1.7.1z" fill="#6bb7bf"/><path d="M33 297.7l2.7 3.1s-7.7 2.1-12-3.3c0-.2 6.4 2.1 9.3.2z" class="Bs"/><path d="M367.4 313.8s-.2-2.9 5.3-4.3c2.5-.6 7.9.5 4.4 5.8-3.6 5.6-6.8 3.6-6.8 3.6s7.4-5.8 4.5-8.5c-3.3-2.9-4.5 2.9-4.5 2.9s-1.3-.1-2.9.5z" fill="#f1a34f"/><path d="M369.4 319.2s-2.1-1.1-1.2-3.6l2.9.5s-1.1 2.7 1.6 3c0 .1-2.7.7-3.3.1z" fill="#db7714"/><path d="M178.4 163.6s3-4.4 7.7-1.3l2.8-2.7s-2.7-2.1-8.7 1.6c-4.1 2.4-1.8 2.4-1.8 2.4z" fill="#5685d8"/><path d="M175.3 167.9s-.6-5.1 7.8-8.2c0 0-3 1.5-4 6.5l-3.8 1.7z" fill="#739af0"/><path d="M209.1 141.3s2.5-1.6 2.7-3.5c0 0 2.4.1 2.9.9 0 0-1.1 3.1-2.4 3.8.2-.1-2.9.1-3.2-1.2zM129 320.6s-2.7-1.7-2.9-3.7c0 0-2.6.1-3.1 1 0 0 1.2 3.3 2.6 4 0-.1 3.1.1 3.4-1.3z" class="Bk"/><path d="M238 190.8s2.7-1.7 2.9-3.7c0 0 2.6.1 3.1 1 0 0-1.2 3.3-2.6 4 .2-.1-3 .1-3.4-1.3z" class="Bs"/><path d="M290 268s-1.5-1.8-2.4-2.2c-.9-.2-2.5-1.5-2.6-1-.2.5 1.1 1.3 1 1.8s-4.1 1.5-4.1 2.2 1 2.2 2.5 1.9c1.5-.2 5.4-1.1 6.3-.6.8.5-.7-2.1-.7-2.1z" class="Bi"/><path d="M331.5 258.9c-2.3 3-5 5.5-7.7 7.3-8.7 6-18.1 6.9-18.1 6.9-2.3-.8-9.2-1.5-13.3-2.2h0c-1.8-.3-3-.5-3.1-.8l.1-3.6s15.1-.8 17.6-1.9c3.9-3.3 7.4-7.8 9.7-11.2 1.9-2.9 4.1-5.1 7.6-6.3 4.9-1.7 14.2 2.3 7.2 11.8z" class="Bp"/><path d="M324.6 264l-.8 2.3c-8.7 6-18.1 6.9-18.1 6.9-1.8 0-9.2-1.5-13.3-2.2.2 0 11.2.9 13.6.6 2.5-.2 13.8-10.1 13.8-10.1l4.8 2.5z" class="Bq"/><path d="M314.8 377.3h16.6c1.2-.8-.3-8.7-.3-8.7s-4.5-1.7-5.3 1.8-5.8 4.6-8.4 5.1c-1.9.2-2.4 1.2-2.6 1.8zm24.7 0h16.6c1.2-.8-.3-8.7-.3-8.7s-4.5-1.7-5.3 1.8-5.8 4.6-8.4 5.1c-1.9.2-2.5 1.2-2.6 1.8z" class="Bj"/><path d="M319.2 296.6l1.6 20.5 4.4 53s2.2 1.8 6.8.9c0 0 4-13.1 5.2-28 0-.2 0-.5.1-.8l2.8-47.1-20.9 1.5z" class="Bo"/><path d="M319 293.3l1.8 23.7 16.4 25.9c0-.2 0-.5.1-.8l2.8-47.1-21.1-1.7z" class="Bj"/><path d="M323.7 293.3s11.9 29.6 15.6 40.8c2.7 8 10.4 36 10.4 36s3.3 1 6.2-1c0 0 2.8-28.6-2.9-36.7-3-4.3-.8-44.5-13.1-44.9-12.3-.2-16.2 5.8-16.2 5.8z" class="Bo"/><path d="M329 249.7c1.8 1 3.6 1 5.1.6 1.4-.3 2.6-.9 3.5-1.5.9-.5 1.4-1.1 1.4-1.1l-.2-.2c-.5-.9-2.2-4.2-1.4-9.5 0-.1-.5 0-1.3.2l-7.3 1.9h0l-.2 3.1v.5c0 .2 0 .4-.1.8-.2 2.3.5 5.2.5 5.2z" class="Bi"/><path d="M328.6 243.5c3.6.8 8.7-4.4 8.7-4.4-.4-.3-.8-.5-1.2-.6l-7.3 1.9h0c0-.1 0 1-.2 3.1z" class="Br"/><path d="M327.4 240.1a20.25 20.25 0 0 0 3.3.8c2.7.3 6.3.1 7.3-3.1 1.8-5.5 4.3-8.7-1.3-11-2.9-1.2-4.9-1.3-6.2-.8-1.1.4-1.7 1.2-2.3 1.9-.9 1.7-3.1 11.3-.8 12.2z" class="Bi"/><path d="M324.1 228.3c3.2 2.3 7.7 0 9 .6 1.4.6 1.6 2.9 1.6 3.7s.1 1.4 1.9.9c.3-.1.5 0 .6 0 .8.4-.2 2.7-.5 3.1 0 0-.4 1.6.5 2.4.1.1 1.9.9 6.5-6 .8-1.1 1.4-3.6.3-5.8-1.1-2.4-5.6-4.6-9.5-5.8-1.4-.4-2.5-.4-3.3-.1-1.4.5-2.2 1.8-2.9 3.1-1.2 2.2-4.2 3.9-4.2 3.9z" fill="#a9453d"/><path d="M344.7 295.5l-3.5.6c-1.9.3-4.2.6-5.8.6-8.3-.1-15.3-2.5-15.3-2.5-1.6 0-2.3-2.5-2.6-5.8-.2-2.3-.1-5.1 0-7.8 0-.9.1-1.7.1-2.6l.3-4.9c.1-1.4.2-2.6.2-3.5 0 0-.2-6.5-.1-12.2.1-4.1 2.4-7.9 2.9-8.4 1.6-1.7 6.5-2.9 7.4-3h.1c4 2.3 9.4-.8 9.4-.8.1 0 .2 0 .3.1.4-.1 4.4.5 5.4 1 2.3 1.3 3.7 15.2 3.7 15.2.4 9.5-.1 24.7.6 30.5.3 2-1.5 3.1-3.1 3.5z" class="Bp"/><path d="M338.2 245.3s-5.9 6.2-10.1 4.9c0 0-.5-.9 1.3-1.1 1.9-.3 3.9-.2 8.8-3.8z" class="Bq"/><path d="M327.3 236.6s-.1.8 1.5 1.3c0 0 1.4.4 1.6-.2.1-.2-.9-1.2-3.1-1.1z" class="Bm"/><path d="M341.4 268.4s-8.6 14.4-13.5 16.9c-3.3 1.7-7.9 2.6-10.6 3-.2-2.3-.1-5.1 0-7.8l8.8-1.1 15.3-11zm-11.3-7.2l-4.6 16.6-8 .2.2-3.2c.1 0 6.2-3.3 12.4-13.6z" class="Bq"/><path d="M302.5 279s-1.5-1.8-2.4-2.2c-.9-.2-2.5-1.5-2.6-1-.2.5 1.1 1.3 1 1.8s-4.1 1.5-4.1 2.2 1 2.2 2.5 1.9c1.5-.2 5.4-1.1 6.3-.6.7.5-.7-2.1-.7-2.1z" class="Bi"/><g class="Bp"><path d="M347.7 256s.3 8.7-19.7 26.3l-4-7.2c-.8-.4 13-29.8 16.8-29.6 7.6.6 6.9 10.5 6.9 10.5z"/><path d="M326.3 274.3l-23.6 3c-.9.4-2.7 2.2-2.1 4.4 0 0 11.8 1.5 18.2 1.4 5.6 0 9.2-1 9.2-1l-1.7-7.8z"/></g></svg>