<svg xmlns="http://www.w3.org/2000/svg" xmlns:xlink="http://www.w3.org/1999/xlink" viewBox="0 0 400 520" xmlns:v="https://vecta.io/nano"><style><![CDATA[.CQ{fill:#ffa683}.CR{fill:#0a4d7a}.CS{fill:#ebf3fa}.CT{fill:#fff}.CU{fill:#379cf7}.CV{fill:#aec3ff}.CW{fill:#f99746}.CX{fill:#e57c5c}.CY{fill:#004cba}.CZ{fill:#006cbc}.Ca{enable-background:new}.Cb{fill:#083954}.Cc{fill:#2a4e96}.Cd{fill:#fbbe42}]]></style><ellipse cx="209" cy="401.3" rx="185.9" ry="10" fill="#e6f8ff"/><g class="CS"><path d="M46.2 396.5c-21.7-.1-39.2-17.9-38.7-39.6.3-11.8 4.7-23.2 18.1-29.4 35.3-16.4-13.9-123 48.4-133.6s59.9-91.8 132.8-31.2c73 60.7 86.1-21.3 133.6 21.3s-31.2 96.7 27.9 124.6c38.9 18.4 26.2 51.4 12.9 71.7-7.2 11-19.5 17.6-32.7 17.6l-302.3-1.4z"/><path d="M348.6 397.9a38.56 38.56 0 0 0 32.7-17.6c13.2-20.3 26-53.3-12.9-71.7-59-27.9 19.7-82-27.9-124.6s-60.7 39.4-133.6-21.3c-18-14.9-31.3-21.3-42.2-22.2 3.7 2.5 7.2 5.8 10.3 10.2 26.5 37.1 42.4 64.2 97.8 59.5s-24.7 91.9 18.9 103.1c28.8 7.4 24.9 51.8 4.1 84.3l52.8.3z" opacity=".44" class="Ca"/></g><path d="M156 210.1c0-.1-6.6-.5-12.6-3.5-6-2.8-11.4-8.1-8.3-13.4 4.5-7.2-8.3-13.3-3.9-17.3 4.4-3.6 5.4-.6 3.6-8.6-1.4-8.1 4.2-10.1 7.3-17.3 3.6-7.3 11.8-1.8 9.8 7.7-1.6 9.8 2.2-.3 5 4.1 2.4 3.7-7 19.4-2.8 18 3.8-1.7 7.1.7 6.6 5.1-1.6 10.3-4.9 25-4.7 25.2z" class="CV"/><path d="M159.1 214.3s-.1 0-.1-.1c-5.1-6-11-15.3-13.9-26v-.1h-.1c-2.7-1.6-5.1-3.9-7.4-6.2-.7-.8-1.5-1.6-2.2-2.3v-.1c0-.1.1-.1.2-.1h.1c.7.8 1.4 1.5 2.2 2.3 2.1 2.2 4.3 4.2 6.8 5.8.1.1.3.2.4.3 0-.2-.1-.3-.1-.5-1.2-4.5-1.9-9.3-2-14.5v-.1l-.1-.1h0c-1.9-2.9-3.5-6.2-4.5-9.8v-.1s.1-.1.2 0l.1.1c1 3.2 2.3 6.3 4.1 9 .1.2.2.4.4.6v-.7c0-4.9.4-10 1.5-15.5 0-.1 0-.1.1-.1h.1c.1 0 .1.1.1.2-1.5 7.5-1.8 14.4-1.2 20.8v.4l.3-.3c3.1-3 5.8-6.3 8.1-9.7 0 0 .1-.1.1 0l.1.1v.1c-2.3 3.6-5.1 7-8.4 10.1l-.1.1v.1c.4 3.6 1 6.9 1.8 10.1v.1h0v.1.1.1c.8 2.8 1.8 5.6 3.1 8.6.1.2.1.3.2.5 0-.2.1-.3.1-.5 1.3-4.9 3.3-9.4 5.8-13.3 0-.1.1-.1.2-.1 0 0 .1 0 .1.1v.1c-2.6 4.2-4.6 8.9-5.9 14v.1.1c2.4 5.2 5.6 10.6 10.4 16.3v.1c-.5-.3-.6-.2-.6-.2h0z" class="CS"/><path d="M140.4 235c-.1 0 .6-7.2-1.3-14.1-1.7-6.9-6.1-13.5-11.8-11.1-7.9 3.7-11.7-11-16.4-6.9-4.3 4.2-1.5 5.7-9.1 2.6-7.8-2.8-10.6 2.9-18.3 5.2-7.8 2.7-3.8 12.5 5.9 11.8 10-.2-.7 2.3 3.2 6 3.2 3.1 20.4-4.5 18.3-.3-2.4 3.9-.5 7.8 3.9 7.9 10.3-.1 25.5-1.4 25.6-1.1z" class="CV"/><path d="M144 238.9v-.1c-5.1-6.5-13.2-14.2-23.3-19h-.1v-.1c-1.1-3.1-2.9-6.1-4.9-8.9-.6-.9-1.3-1.8-1.9-2.8 0-.1-.1-.1-.1 0-.1 0-.1.1-.1.2v.1c.6.9 1.3 1.8 1.9 2.7 1.8 2.6 3.5 5.3 4.6 8.2.1.2.1.3.2.5-.2-.1-.3-.1-.5-.2-4.3-2-8.9-3.5-14-4.4h-.1v-.1-.1c-2.5-2.5-5.5-4.7-8.9-6.4h-.1c-.1 0-.1.1-.1.2 0 0 0 .1.1.1 3 1.5 5.8 3.5 8.2 5.8l.5.5c-.2 0-.5-.1-.7-.1-4.9-.8-10-1.1-15.6-.8H89v.2c0 .1.1.1.2.1 7.6-.5 14.5.3 20.8 1.9.1 0 .3.1.4.1l-.3.3c-3.5 2.9-7.2 5.3-11 7.2 0 0-.1 0 0 .1 0 .1.1.1.1.1h.1c4-1.9 7.8-4.4 11.4-7.5l.1-.1h.1c3.5 1 6.7 2.2 9.6 3.6h.1 0l.1.1h.1.1c2.6 1.3 5.3 2.8 8 4.7.2.1.3.2.5.3-.2 0-.4 0-.5.1-5 .7-9.8 2.1-14.1 4.1-.1 0-.1.1-.1.2s0 .1.1.1h.1c4.5-2.1 9.6-3.6 14.9-4.2h.1.1c4.8 3.4 9.5 7.7 14.3 13.7 0 .1.1 0 .1 0-.4-.3-.4-.3-.4-.4h0z" class="CS"/><path d="M136 220.8c-.1 0 4.8-6.5 6.8-14.5 2.2-7.8 1.5-17.1-5.9-18.4-10.3-1.5-5.9-18.3-13.1-17.5-6.8 1.3-4.8 4.5-10.9-3.4-6.5-7.8-12.7-4.1-22-6.9-9.7-2.5-11.1 9.6-.6 15.3 10.5 6.3-2 1.8-.1 7.9 1.5 5.1 23.7 8.9 19.1 11.7-4.7 2.2-5 7.2-.5 10.2 10.7 6.6 27.1 15.2 27.2 15.6z" class="CV"/><path d="M137.4 226.9s.1-.1 0-.1c-1.5-9.6-5.5-22.4-13.3-33.7 0 0 0-.1-.1-.1v-.1c.6-3.8.5-7.8.1-11.8-.1-1.3-.3-2.6-.4-3.9 0-.1 0-.1-.1-.1s-.2 0-.2.1v.1c.1 1.3.3 2.6.4 3.9.4 3.7.5 7.4.1 10.9 0 .2-.1.4-.1.6-.1-.2-.2-.3-.4-.5-3.3-4.7-7.2-9.1-12-13.4l-.1-.1v-.2-.1c-1.2-4.1-3.1-8.2-5.5-12 0-.1-.1-.1-.2-.1s-.2.1-.2.1v.1c2.3 3.5 4 7.2 5.2 11 .1.3.2.5.2.8l-.6-.6c-4.6-4-9.7-7.6-15.7-10.9h-.1s-.1.1-.1.2 0 .1.1.2c8.2 4.5 14.9 9.8 20.4 15.4l.4.4h-.5a61.67 61.67 0 0 1-15.5-.2c-.1 0-.1 0-.1.1v.2l.1.1c5.2.7 10.6.8 16.1.2h.1l.1.1c3.1 3.2 5.7 6.4 7.9 9.7v.1.1c0 .1 0 .1.1.1h.1v.1c2 2.9 3.9 6.1 5.6 9.8l.3.6-.6-.3c-5.6-2.6-11.4-4.4-17-5.2-.1 0-.1 0-.2.1v.2l.1.1c5.9.9 12 2.8 17.9 5.6h.1v.1c3 6.4 5.5 13.7 7 22.6 0 .1.1.1.1.1.4-.3.5-.3.5-.4h0z" class="CT"/><path d="M227 196.1h-82.7c-8 0-14.5 6.5-14.5 14.5v172.7c0 8 6.5 14.5 14.5 14.5H227c8 0 14.5-6.5 14.5-14.5V210.6c0-8-6.5-14.5-14.5-14.5z" class="CR"/><path d="M227 196.1h-82.7c-8 0-14.5 6.5-14.5 14.5v172.7c0 4.7 2.2 8.8 5.6 11.5l105-190c-2.3-5.1-7.5-8.7-13.4-8.7z" class="Cb"/><path d="M201.8 203.2h-30.7a1.54 1.54 0 0 0-1.5 1.5h0a1.54 1.54 0 0 0 1.5 1.5h30.7a1.54 1.54 0 0 0 1.5-1.5h0a1.54 1.54 0 0 0-1.5-1.5z" class="CT"/><path d="M227 201.5h-12.1l-4.4 8.3c-1.6 3.1-4.8 5-8.3 5h-33c-3.5 0-6.7-1.9-8.3-5l-4.4-8.3h-12.1c-5 0-9.1 4.1-9.1 9.1v172.7c0 5 4.1 9.1 9.1 9.1H227c5 0 9.1-4.1 9.1-9.1V210.6c0-5-4.1-9.1-9.1-9.1z" fill="#caedff"/><path d="M236.1 210.6v1.9L138 390c-1.7-1.7-2.8-4-2.8-6.6V210.6c0-5 4.1-9.1 9.1-9.1h12.1l4.4 8.3c1.6 3.1 4.8 5 8.3 5h33c3.5 0 6.7-1.9 8.3-5l4.4-8.3H227c5 0 9.1 4.1 9.1 9.1z" opacity=".85" fill="#bae6f7" class="Ca"/><use xlink:href="#B" class="CT"/><g class="CW"><use xlink:href="#C"/><use xlink:href="#D"/><use xlink:href="#D" x="15.3"/><use xlink:href="#D" x="30.6"/><use xlink:href="#D" x="45.9"/><path d="M200.4 255.5h44.5v1.2h-44.5zm0-20.3h44.5v2.3h-44.5zm0 25h44.5v1.2h-44.5zm0 4.4h20.3v1.2h-20.3z"/></g><circle cx="172.9" cy="250.1" r="17.8" class="CS"/><defs><circle id="A" cx="172.9" cy="250.1" r="17.8"/><path id="B" d="M275.6 227.6H151.8c-4 0-7.3 3.3-7.3 7.3v29.2c0 4 3.3 7.3 7.3 7.3h123.8c4 0 7.3-3.3 7.3-7.3v-29.2a7.21 7.21 0 0 0-7.3-7.3z"/><path id="C" d="M205.7 242.2l.9 2.6c.1.2.2.3.4.3h2.8c.4 0 .6.6.3.8l-2.2 1.6c-.2.1-.2.3-.2.5l.9 2.6c.1.4-.3.7-.7.5l-2.2-1.6c-.2-.1-.4-.1-.5 0l-2.2 1.6c-.3.3-.8-.1-.7-.5l.9-2.6c.1-.2 0-.4-.2-.5l-2.2-1.6c-.3-.3-.2-.8.3-.8h2.8c.2 0 .4-.1.4-.3l.9-2.6c-.2-.4.3-.4.5 0z"/><path id="D" d="M221 242.2l.9 2.6c.1.2.2.3.4.3h2.8c.4 0 .6.6.3.8l-2.2 1.6c-.2.1-.2.3-.2.5l.9 2.6c.1.4-.3.7-.7.5l-2.2-1.6c-.2-.1-.4-.1-.5 0l-2.2 1.6c-.3.3-.8-.1-.7-.5l.9-2.6c.1-.2 0-.4-.2-.5l-2.2-1.6c-.3-.3-.2-.8.3-.8h2.8c.2 0 .4-.1.4-.3l.9-2.6c-.2-.4.4-.4.5 0z"/><path id="E" d="M175.5 252.5v3.6s-.5 2.8-2.9 3.3c-2.5-.7-2.9-3.3-2.9-3.3v-3.6h5.8z"/><path id="F" d="M178.5 244.7c-2.6-.1-4.4-2.1-4.4-2.1-1.6 1.4-7.2 2.1-7.2 2.1v2.2c0 1.7.7 3.7 1.8 5.3.9 1.3 2.4 2 4 2s3.1-.7 4-2c1.1-1.6 1.8-3.6 1.8-5.3v-2.2z"/><path id="G" d="M186.8 262.1c-2.3-3.9-11.8-6-11.8-6l-2.5 1-2.5-1s-9.5 2.1-11.8 6l-2.8 20.9 4.4-.1 2.6-17.4s1.6 5.6 1.5 8.9-1.1 8.7-1.1 8.7h9.4.5 9.4s-1-5.4-1.1-8.7 1.5-8.9 1.5-8.9l2.6 17.4 4.4.1-2.7-20.9z"/></defs><clipPath id="H"><use xlink:href="#A"/></clipPath><g clip-path="url(#H)"><path d="M181.7 260.9l-1.6-16.4c0-4.2-1.7-8.1-6.1-6.9h0c-2-1.1-4.5-.8-6.2.8-1.7 1.7-2.7 4.2-2.7 6.7l-1.7 16 18.3-.2z" class="CR"/><use xlink:href="#E" class="CQ"/><path d="M175.5 252v2.3c-.9.5-1.9.7-2.9.7s-2-.3-2.9-.7V252h5.8z" class="CX"/><g class="CQ"><use xlink:href="#F"/><use xlink:href="#G"/></g><path d="M180.3 257.7c-.8 2.2-2.7 5.5-7.7 5.8-5-.3-6.9-3.6-7.7-5.8-1.5.6-3 1.3-4.2 2.1l1.7 5.7.1.1v-.1s.1.2.2.7c0 .1 0 .1.1.2.4 1.7 1.4 5.6 1.3 8.1-.1 3.3-1.1 8.7-1.1 8.7h9.4.5 9.4s-1-5.4-1.1-8.7 1.5-8.9 1.5-8.9v.2c0-.1.1-.2.1-.2l1.7-5.6c-1.3-1-2.8-1.7-4.2-2.3z" class="CU"/></g><g class="CQ"><path d="M295.5 278.4c-.6 0-1.2-.4-1.5-.9l-9.1-18.1s-1.1-4.4-2.4-4.4l-.1 5.8 6.2 22.3c.4 1.4 1.1 2.6 2.9 2.6 3.8.1 10.7 1.3 15.2 2.5 4.6 1.2 8.5 0 8.5 0 .3-10.2-15.8-9.7-19.7-9.8z"/><path d="M309.1 276.1v5.2h-7.8v-2.9s-5.1-1.2-4.9-5.9c.3-4.6 2.4-6.9 3.6-7.3s6.9 1.9 7 2.2.7 5.2.7 5.2l1.4 3.5z"/></g><path d="M300.9 269.1s1.4-2 2.7-1 .6 2.9-1 3.9c0 0 1.6 5.5 4.8 5.2s7.4-3.7 7-9.1c-.4-5.3-7.3-9.1-11.1-8.3-3.7.7-7.5 5-2.4 9.3zm13.6-4.3s4.2-5.4 8.4-.7c4.2 4.6 6.9 9.9 8.8 10.9s-1.6 3.4-6.3 1.9c-4.7-1.6-10.7-7.3-10.9-12.1z" class="CY"/><path d="M301.3 281.3v-2.9s3.2.1 4.6-1.1c0 0-1 2.2-3 2.3v1.7h-1.6z" fill="#ed7d5a"/><path d="M297.9 322.5s1.8 28.8 4.2 34.8c2.3 6 17.2 33.5 17.2 33.5l7.7-1.7-11-32.8c-.1 2-1.5-7.4 1.2-17 1.6-5.6 1-11.7-1.4-16.6l-19.2-.2" fill="#2b478b"/><path d="M315.6 321.3s-.7 8-9.9 17.1c-9.3 9.2-12.9 15.3-12.9 15.3l-1.4 39.7h-7.7l-4.4-43.3c.1-1.5 12.8-28.8 14.3-31.2s22 2.4 22 2.4z" class="Cc"/><path d="M309.9 280.9s8.2.6 5.2 10.8c-3.3 11.1.5 29 1.2 30.8l-2.5 1c-7.4 2.8-15.6 2.6-22.8-.5h0s6.5-14.4 1.9-21.9c-3-4.8-2.1-9.7 1.4-14.1 2.3-2.8 5.1-5.7 6.2-5.8l9.4-.3z" class="CW"/><path d="M283.7 393.4h1.6l-3.3-43c.5-.9 2.4-4.3 8.1-15.3 2-3.8 3.4-7.5 4.4-10.9-1-.3-2.1-.7-3.1-1.1-4.1 8.3-12 25.7-12.1 26.9-.1 1.6 4.4 43.4 4.4 43.4z" class="Cc"/><path d="M299.6 298.4c-3.8 1.4-1 11.6-5.1 25.9-1.1-.3-2.3-.7-3.4-1.2h0s6.5-14.4 1.9-21.9c-1.5-2.4-2-4.8-1.7-7.1l16.3-3.7c-.1-.2-2.8 6-8 8z" fill="#ed7d2b"/><path d="M264.5 272.8s14.9 24.8 19.3 26.2c1.9.6 14-4.1 19.1-4.9 2.7-.5 4.7-3 4.4-5.7h0c-.3-3.2-3.9-5.9-7.1-5.2l-16.7 5.2-17.3-18s-1.3-4.1-3.3-4.1c-1.8 0 .9 5.1 1.6 6.5z" class="CQ"/><path d="M276.4 396c2.1-.7 6.1-1.5 7.5-2.5h7.4l-.1 3.9c0 .6-.5 1.2-1.2 1.2h-14.8c-1 0-1.3-1.3-.5-1.8.4-.4 1-.6 1.7-.8zm36.3-1c1.9-1.1 5.6-2.9 6.7-4.2l7.2-1.7.8 3.8c.1.6-.3 1.3-.9 1.4l-14.4 3.3c-.9.2-1.6-.9-.9-1.6.4-.2.8-.6 1.5-1z" class="CY"/><path d="M283.8 290.6c3.5.1 19.2-5.8 23.4-3-.8-2.8-4.1-5-6.9-4.4l-16.7 5.2-17.3-18c-.2 0 13.6 20.1 17.5 20.2z" opacity=".58" fill="#ed7d5a" class="Ca"/><path d="M314.4 264.4l-1.1.2s1.4 2.3 1.1 4.4l1.4-.3c0 .1-.2-3.8-1.4-4.3zm-99.2 17.1H91.4c-4 0-7.3 3.3-7.3 7.3V318c0 4 3.3 7.3 7.3 7.3h123.8c4 0 7.3-3.3 7.3-7.3v-29.2c-.1-4-3.3-7.3-7.3-7.3z" class="CT"/><g class="CW"><use xlink:href="#D" x="-75.8" y="53.9"/><use xlink:href="#D" x="-60.5" y="53.9"/><use xlink:href="#D" x="-45.2" y="53.9"/><use xlink:href="#D" x="-29.9" y="53.9"/><use xlink:href="#D" x="-14.6" y="53.9"/><path d="M139.9 309.5h44.5v1.2h-44.5zm0-20.3h44.5v2.3h-44.5zm0 25h44.5v1.2h-44.5zm0 4.4h20.3v1.2h-20.3z"/></g><circle cx="112.4" cy="304.1" r="17.8" class="CS"/><path d="M74.4 372s30.1-25.2 35.4-16.3-2.5 37.8-2.5 37.8L74.4 372z" fill="#2b478b"/><path d="M90.2 382.3l17.1 11.2s7.1-26.4 3.1-36.5c1.9 13.2-12.2 21.6-20.2 25.3z" fill="#233862"/><path d="M89.9 369.3s18.7 15 20.2 20.4c2.5 8.7-12.1 7.8-18.5 7.8-6.3 0-46.5-1.1-46.5-1.1l.4-6.2 37.1-1.8s-20.6-3-19.8-14.9c.7-11.9 27.1-4.2 27.1-4.2z" class="Cc"/><path d="M109 394.6c-3.4 3.4-12.7 2.8-17.4 2.8-6.3 0-46.5-1.1-46.5-1.1l.4-6.2 37.1-1.8s14.8 7.1 26.2 6.3h.2z" fill="#233862"/><path d="M45.2 396.2s-1.6 3.7-.4 6.1c1.3 2.4-4.2.7-5.1-4.1s-.5-10.6 5.6-8l-.1 6z" class="CY"/><path d="M66.2 332.2l13.9-39c1.6.7 4.4 1.3 4.4 1.3l-5.6 43-12.7-5.3z" class="CR"/><path d="M80.2 327.7c-3.1-1.5-6.9-3.2-11.4-2.9l-2.6 7.3 12.7 5.3 1.3-9.7z" class="Cb"/><path d="M83.1 321.8c-1 3.7-5 3-5 3v3.5h-6.8v-4.8h0c3.6.8 7.4-1.8 5.7-3-1.7-1.3-2.1-3.4-1.2-4.4s3-.3 3-.3c2-.1 3.5-.3 4.4-.8.4 2.2.5 4.8-.1 6.8z" class="CQ"/><path d="M78.9 315.9s-2.1-.8-3 .3c-.9 1-.5 3.1 1.2 4.4s-2.2 3.8-5.7 3c-3.6-.8-5.5-8.2-2.5-13.1 2.8-4.4 12.6-6.4 14.6-1.7s2.1 6.9-4.6 7.1z" class="CY"/><path d="M78.2 328.3v-3.5s-2.3-.3-3.2-.8c0 0 1.2 1.5 2 1.8v2.5h1.2z" class="CX"/><path d="M80 328.4s-11.3-3.9-14.5 4.9 2.2 29.9-3.5 37.2h0c8.9 4.2 19.1 4.5 28.3 1l1.2-.5-4.1-26c-.2.8 13.3 5.1 16 3.6s19-19.9 19-19.9l-5.5-.8-14.7 9.7c0 0-18.5-9-22.2-9.2z" class="CR"/><path d="M122.4 328.8s5.6-2.4 6-3.6h-8.1a2.61 2.61 0 0 0-2.1 1.1L117 328l5.4.8z" class="CQ"/><path d="M91.5 371.1l-4.1-25.9c.1.1.2.1.3.2-.3-.2-.4-.4-.4-.4s-8.6-2.1-11.7-5.7c0 0 2.9 6 6.7 7.4 3.4 1.2 2.2 19.4 4.8 25.8 1.1-.3 2.1-.6 3.1-1l1.3-.4z" class="Cb"/><path d="M80.5 293.4s1.4-5.1 3.6-5.5v6.7l-3.6-1.2z" class="CQ"/><defs><circle id="I" cx="112.4" cy="304.1" r="17.8"/></defs><clipPath id="J"><use xlink:href="#I"/></clipPath><path d="M131.9 330.1l-1.1-10.3c-.2-1.7-1.1-3.1-2.6-4.1l-3.6-2.3v.1-.1l-2.9-1.1-3-1.2-2.5-1-1.1-.4-2.7 1.4-2.7-1.4-1 .4-2.3.9-3.2 1.2-3 1.2h0l-3.5 2.3c-1.4.9-2.3 2.4-2.6 4.1L93 330.1h7.2v8.5h24.3v-8.5h7.4z" clip-path="url(#J)" class="Cd"/><defs><circle id="K" cx="112.4" cy="304.1" r="17.8"/></defs><clipPath id="L"><use xlink:href="#K"/></clipPath><g clip-path="url(#L)"><path d="M112.5 291.8h0a7.17 7.17 0 0 0-7.2 7.2v3.5h14.5V299c0-3.9-3.3-7.2-7.3-7.2z" class="CR"/><path d="M115.4 307.9v2.5.2c-.4 1.5-1.6 4.4-2.9 4.4-1.2 0-2.5-3-2.7-4.5v-.1-2.5h5.6z" class="CQ"/><path d="M115.4 307.4v2.3c-.9.5-1.8.7-2.8.7s-2-.3-2.8-.7v-2.3h5.6z" class="CX"/><g class="CQ"><circle cx="107" cy="302.5" r="1.8"/><circle cx="118" cy="302.5" r="1.8"/><path d="M118.3 299.6c-2.1-1.2-2.9-2.1-2.9-2.1h-5.7c-.5 1.3-2.8 2.1-2.8 2.1v2.9c0 1.7.7 3.7 1.8 5.2.5.6 1.1 1.1 1.7 1.5.7.3 1.4.5 2.2.5 1.6 0 3-.7 3.9-2 1.1-1.6 1.8-3.6 1.8-5.2v-2.9z"/></g></g><use xlink:href="#B" y="107.6" class="CT"/><g class="CW"><use xlink:href="#C" y="107.6"/><use xlink:href="#D" y="107.6"/><use xlink:href="#D" x="15.3" y="107.6"/><path d="M235.8 349.5c-.2 0-.3.1-.4.3l-.9 2.6c-.1.2-.2.3-.4.3h-2.8c-.4 0-.6.6-.3.8l2.2 1.6c.2.1.2.3.2.5l-.9 2.6c-.1.4.3.7.7.5l2.2-1.6c.1 0 .1-.1.2-.1v-7.5h.2z"/><use xlink:href="#D" x="30.6" y="107.6"/><use xlink:href="#D" x="45.9" y="107.6"/><path d="M200.4 363.2h44.5v1.2h-44.5zm0-20.4h44.5v2.3h-44.5zm0 25.1h44.5v1.2h-44.5zm0 4.3h20.3v1.2h-20.3z"/></g><circle cx="172.9" cy="357.2" r="17.8" class="CS"/><defs><circle id="M" cx="172.9" cy="357.2" r="17.8"/></defs><clipPath id="N"><use xlink:href="#M"/></clipPath><g clip-path="url(#N)"><g class="CR"><path d="M165.7 353.4s-1-4 .6-5.8 4.7-3.6 7.2-2.7c0 0 2-1.2 3.8-.2s4.5 1.9 4.7.7c0 0 .2 4.6-1.9 5.4l-.9 3.6H166l-.3-1zm21.1 15.8c-2.3-3.9-11.8-6-11.8-6l-2.5 1-2.5-1s-9.5 2.1-11.8 6l-2.8 20.9 4.4-.1 2.6-17.4s1.6 5.6 1.5 8.9-1.1 8.7-1.1 8.7h9.4.5 9.4s-1-5.4-1.1-8.7 1.5-8.9 1.5-8.9l2.6 17.4 4.4.1-2.7-20.9z"/></g><path d="M175.5 359.6v3.6s-.5 2.8-2.9 3.3c-2.5-.7-2.9-3.3-2.9-3.3v-3.6h5.8z" class="CQ"/><path d="M175.5 359.1v2.3c-.9.5-1.9.7-2.9.7s-2-.3-2.9-.7v-2.3h5.8z" class="CX"/><g class="CQ"><path d="M178.5 351.8c-2.6-.1-4.4-2.1-4.4-2.1-1.6 1.4-7.2 2.1-7.2 2.1v2.2c0 1.7.7 3.7 1.8 5.3.9 1.3 2.4 2 4 2s3.1-.7 4-2c1.1-1.6 1.8-3.6 1.8-5.3v-2.2z"/><circle cx="166.7" cy="354.3" r="1.6"/><circle cx="178.5" cy="354.3" r="1.6"/></g></g><circle cx="253.2" cy="155" r="26" class="Cd"/><path d="M253.2 129h-.5c7.2 4.2 12 12.1 12 21 0 13.5-10.9 24.4-24.4 24.4-1.8 0-3.5-.2-5.2-.6 4.7 4.5 11 7.2 18 7.2 14.4 0 26-11.7 26-26 .2-14.4-11.5-26-25.9-26z" fill="#f9a643"/><path d="M70 237.4c5.5 0 5.7-8.1.3-8.5h-.2v-.1a10.5 10.5 0 0 0-10.5-10.5c-1.8 0-3.5.5-5 1.3-1.8-3.4-5.5-5.8-9.6-5.8a10.93 10.93 0 0 0-10.9 10.9v1c-1.1-.3-2.3-.5-3.5-.5-4.4 0-8.3 2.2-10.5 5.6-1.9 2.8.2 6.5 3.6 6.5H70v.1z" class="CV"/><path d="M237.5 171.1c7.1 0 7.5-10.6.4-11.1h-.2v-.1c0-7.6-6.2-13.8-13.8-13.8-2.4 0-4.6.6-6.6 1.7-2.4-4.5-7.1-7.5-12.6-7.5a14.3 14.3 0 0 0-14.3 14.3c0 .4 0 .8.1 1.3-1.5-.4-3-.7-4.6-.7-5.8 0-10.8 2.9-13.8 7.4-2.5 3.7.2 8.6 4.7 8.6l60.7-.1h0z" fill="#9db0f4"/><path d="M323.5 196.1c-6.6 0-6.9-9.8-.4-10.2h.2v-.1c0-7 5.7-12.6 12.6-12.6 2.2 0 4.3.6 6.1 1.6 2.2-4.1 6.6-6.9 11.6-6.9 7.3 0 13.1 5.9 13.1 13.1 0 .4 0 .8-.1 1.2 1.3-.4 2.8-.6 4.2-.6 5.3 0 10 2.7 12.7 6.8 2.3 3.4-.2 7.9-4.3 7.9h-55.7v-.2z" class="CV"/><path d="M346.6 379l1.3-.4c.2-2.2-.8-6-5.8-11.8-9.4-10.7-17.4-26-15.4-32 0 0-9.2 13.8-3 22.9 5.8 8.6 21.2 10.4 22.9 21.3z" class="CU"/><path d="M347.1 378.8l.8-.3c.2-2.2-.8-6-5.8-11.8-9.4-10.7-17.4-26-15.4-32 0 0-4.9 12.7 1.4 21.2 6.2 8.5 17.3 10.2 19 22.9z" class="CZ"/><path d="M350.3 369.8c-.5 2.3-1.2 4-1.7 5.3l.6.1c2.7-3.7 7.3-11 8.3-20.3l3.4-30.6s-13.8 11.4-10.7 27.3c1.5 8 1.1 14 .1 18.2z" class="CU"/><path d="M355.2 345.2c-.8 11.3-2.9 23.8-5.7 28.8l1.3-1c2.6-4.1 5.8-10.4 6.6-18l3.4-30.6s-4.6 6-5.6 20.8z" class="CZ"/><path d="M352.8 375.1c-1.2 1.3-2.3 2.3-3.2 3l.4.3c3.2-1.5 9-4.8 13.1-10.6l13.6-19.3s-13.5 2.6-17.3 14.4c-1.9 5.8-4.4 9.7-6.6 12.2z" class="CU"/><path d="M365.2 360.3c-4.7 7.4-10.8 15-14.5 17.3.4-.1.8-.1 1.2-.2 3.3-1.8 7.8-4.8 11.1-9.7l13.6-19.3s-5.2 2.3-11.4 11.9z" class="CZ"/><path d="M347.6 374.7l1.8 5.2.5-.1c-.8-4.3-2.2-11.6-3.5-16.4-1.9-7.1-.4-10.5-2-22.9-1.5-12.4-8.9-28.7-8.9-28.7s-4.7 17.2 2 33.6c7 16.5 6.4 18.6 10.1 29.3z" class="CU"/><path d="M349.5 379.9h0l.1-1.8c-.8-4.3-2-10.5-3.2-14.8-1.9-7.1-.4-10.5-2-22.9-1.5-12.4-8.9-28.7-8.9-28.7s2.3 24.5 5.7 35.3c3.2 10 7.7 30 8.3 32.9z" class="CZ"/><path d="M335.5 377.5l3 17.5a3.44 3.44 0 0 0 3.4 2.8H359a3.44 3.44 0 0 0 3.4-2.8l3-17.5c.3-1.6-1-3-2.6-3h-24.6c-1.7-.1-3 1.4-2.7 3z" class="CT"/><path d="M365.3 376.6h0c0-.2-.1-.3-.1-.5h0c-.1-.1-.1-.3-.2-.4v-.1l-.3-.3-.1-.1c-.1-.1-.2-.2-.3-.2s-.1-.1-.2-.1-.2-.1-.2-.1c-.1 0-.2-.1-.3-.1s-.1 0-.2-.1c-.2 0-.4-.1-.6-.1H355h-16.8c-1.5 0-2.6 1.2-2.6 2.7h22v.4l-3 17.5a3.44 3.44 0 0 1-3.4 2.8h7.8a3.44 3.44 0 0 0 3.4-2.8l3-17.5c-.1-.5-.1-.8-.1-1z" fill="#caedff"/><path d="M109.2 249.5H70.5c-2.8 0-5 2.3-5 5v20.4 10l9.8-8.9c.8-.7 1.8-1.1 2.9-1.1h31c1.9 0 3.5-1.5 3.5-3.5v-18.5c-.1-1.9-1.6-3.4-3.5-3.4z" class="CR"/><path d="M95.9 257.3c-1.7-1.7-4.4-1.7-6.1 0l-.6.6-.6-.6c-.8-.8-1.9-1.3-3-1.3s-2.2.4-3 1.3c-1.7 1.7-1.7 4.4 0 6.1l.6.6 6.1 6.1 6.1-6.1.6-.6c.8-.8 1.3-1.9 1.3-3-.1-1.2-.5-2.3-1.4-3.1z" fill="#ff5a5a"/><path d="M339.3 208.5h-38.9c-2.8 0-5.1 2.3-5.1 5.1V234v10.1l9.9-9c.8-.7 1.9-1.1 2.9-1.1h31.1c1.9 0 3.5-1.6 3.5-3.5v-18.6c.1-1.9-1.5-3.4-3.4-3.4z" class="CR"/><path d="M330.1 222.4c.7-.1 1.2-.6 1.2-1.3s-.6-1.4-1.4-1.4h-2.6-.4c-1.4 0-1.5 0-2-.1-1.1-.2.2-1.6-.5-4.2s-3.2-2.4-3.1-1.2.3 4.1-.4 5c-1.5 2-3.9 2.2-3.9 2.2v6.8h2.7c1.2 1.4 3.5 1.7 3.7 1.7h0 3 .1.1 1.9c.7 0 1.2-.6 1.2-1.2 0-.4-.2-.7-.5-1 .7 0 1.3-.6 1.3-1.3 0-.6-.4-1.1-.9-1.3h.2c.7 0 1.4-.6 1.4-1.4h0c-.2-.7-.6-1.2-1.1-1.3zm-20.7 6.9l4.6.1v-10h-4.6z" class="CU"/><path d="M250.4 319.5c-1.1-1.9-1.7-4.1-1.7-6.5.1-6.9 5.9-12.5 12.8-12.4 7.1.1 12.8 6.1 12.4 13.4-.4 6.3-5.4 11.3-11.7 11.8-1.9.1-3.7-.2-5.3-.8-.8-.3-1.7-.3-2.5-.1l-4.9 1.5 1.2-4c.3-1 .2-2-.3-2.9z" class="CR"/><path d="M261.1 306.4l-1.3 4c-.1.2-.3.4-.5.4h-4.2c-.5 0-.7.7-.3 1l3.4 2.5c.2.1.3.4.2.6l-1.3 4c-.2.5.4.9.8.6l3.4-2.5c.2-.1.4-.1.6 0l3.4 2.5c.4.3 1-.1.8-.6l-1.3-4c-.1-.2 0-.5.2-.6l3.4-2.5c.4-.3.2-1-.3-1h-4.2c-.2 0-.4-.2-.5-.4l-1.3-4c-.2-.5-.9-.5-1 0z" class="Cd"/></svg>