<svg xmlns="http://www.w3.org/2000/svg" xmlns:xlink="http://www.w3.org/1999/xlink" viewBox="0 0 400 520" xmlns:v="https://vecta.io/nano"><style><![CDATA[.z{fill:#ff912b}.AA{fill:#ffae73}.AB{fill:#1e3865}.AC{fill:#25468f}.AD{fill:#6b98f6}.AE{fill:#2a3967}.AF{fill:#e8f2fa}.AG{fill:#26529f}.AH{fill:#214d9a}.AI{fill:#d1e0ff}.AJ{enable-background:new}]]></style><path d="M41 401.5S-9.7 346.6 8.1 282.6c11.6-41.8 50.3-16.5 48.2-84.2-2.1-67.8 113.8-74.8 145.9-55.1s32.8 32.2 99.1 24.4 95.2 51.8 60.8 101.8c-30.1 43.8 67.9 39.4 9.7 132.2L41 401.5z" class="AF"/><path d="M164.5 217.6l5.8-.7c.5 0 .9.2 1.2.6.3.5.7 1 1.1 1.5a28.48 28.48 0 0 0 2.3 2.6c.4.4.5.9.3 1.4l-2.2 5.7c-.2.6 0 1.3.6 1.6l5 2.5c.6.3 1.2.1 1.6-.4l3-4.7c.3-.5.8-.7 1.4-.5 2.3.6 4.7.8 7 .7.6 0 1.1.3 1.3.9l1 3.2c.2.6.8 1 1.5.9l5.4-1.1c.1 0 .2-.1.3-.1.5-.2.8-.7.7-1.3l-.5-4.3-.1-1.1c.9-.5 1.8-1.1 2.6-1.7l3.1-2.8c.3-.4.9-.5 1.4-.3l4.6 1.8c.6.2 1.3 0 1.6-.6l1.9-3.8.5-1.1c.3-.6.1-1.3-.5-1.7l-3.9-2.5c-.5-.3-.7-.8-.6-1.3.4-1.6.6-3.1.6-4.7v-.4-.1c0-.5.4-.9.9-1.1l5.3-1.7c.1 0 .1 0 .2-.1.5-.2.8-.8.7-1.4l-1.1-5.4c-.1-.7-.7-1.1-1.4-1l-6 .7c-.5.1-1-.2-1.2-.7-.5-1-1.2-2-1.9-2.9l-1.2-1.4c-.3-.4-.4-.9-.2-1.4l2.1-5.4c.2-.6 0-1.3-.6-1.6l-4.9-2.4c-.6-.3-1.3-.1-1.7.5l-2.4 3.7c-.3.5-.9.7-1.5.5a19.89 19.89 0 0 0-6.8-1.2c-.5 0-1-.4-1.2-.9l-1.5-4.8a1.42 1.42 0 0 0-1.5-.9l-5.4 1.1c-.6.1-1.1.7-1 1.4v.3l.6 5c.1.5-.2 1-.7 1.3h0a18.52 18.52 0 0 0-3.3 2.1c-.6.4-1.1.9-1.6 1.4-.4.3-.9.4-1.3.3l-4.6-1.8c-.6-.3-1.4 0-1.6.6l-2.4 4.9c-.1.1-.1.3-.1.4 0 .5.2.9.6 1.2l3.2 2c.4.2.6.7.6 1.1 0 .1 0 .2-.1.4-1 2.8-1.3 5.8-1.1 8.8 0 .5-.2 1-.7 1.2-.1 0-.1.1-.2.1l-4.3 1.3c-.6.2-1 .8-.9 1.5v.1l1 5.3c-.1.3.6.8 1.2.7zm37-16.4c.3.8.6 1.7.8 2.7.4 1.8 0 4.7-.8 6.3-.1.2-.2.4-.3.5-5.7 10.5-20.5 8.4-22.9-3.4-.3-1.5-.1-3.8.4-5.5.1-.4.3-.8.4-1.1.8-1.5 1.7-2.8 2.8-3.8 6.1-5.9 16.3-4 19.6 4.3zm146.5-3.8c-5.5-11.2-24.8-3.5-24.8-3.5s-9.4 23.4-13.3 24.6c-3.8 1.3 4.2-21.6 4.2-21.6-7.8.8-25.4 14-25.4 14s6 23.9 2 24.2-4.3-21.4-4.3-21.4c-6.9 3.7-12.1 13.7-12.1 13.7-5.8 15.7 14.7 22.4 14.7 22.4s1.9 8.3-1.4 18.9h0s-.8 2-1.4 5.3l2-.4c.1-.6.1-1.1.2-1.7h0 0c.1-.3.2-.8.3-1.4h0 0c.4-1.3.6-2.3.8-3h0c1.1-4.1 2.8-9.6 4.3-11 0 0-.3-.3-.6-.8.2.3.4.5.6.8 4.9 6.7 22.4 4.5 31.6.6s4.5-5.8-1.6-9.1c-6-3.4-16.6-.1-20.2-1.1-3.5-1.1.8-3.7 7.3-4.5s11 5 21.5 3.9 14.5-22.1 14.5-22.1c-6.7 3.6-20.3 2.2-21.3-.1s18-5.9 20.8-7.2c3.2-1.4 7.2-8.4 1.6-19.5zM31.1 283.3c-2.3-12.3 17.7-17.7 17.7-17.7s21.6 13.1 25.4 11.8S58 262.7 58 262.7c6.7-4 28.7-4 28.7-4s9.5 22.7 12.9 20.5-9.4-19.7-9.4-19.7c7.8-1.2 17.9 3.7 17.9 3.7 14.1 9.1 1.7 26.7 1.7 26.7s3.5 7.8 12.4 14.4h0s1.9 1.1 4.3 3.4l-1.9.9-1.2-1.2h0 0c-.3-.2-.6-.5-1.1-.9h0 0c-1.1-.8-1.9-1.5-2.4-1.9h0c-3.4-2.7-8-6-10.1-6.2 0 0 .1-.4 0-1v1c.1 8.3-15.2 17-24.9 19.4s-7-1.9-4.2-8.2 13.3-10 15.5-13-2.9-2.5-8.5.8c-5.7 3.3-5.8 10.6-14.9 16-9.1 5.5-24.9-9-24.9-9 7.5-1.1 17.6-10.4 16.9-12.8-.6-2.5-18 6.1-21 6.7-3.1.4-10.4-2.7-12.7-15zm328.8 78.8c9.8-7.7-1.6-25-1.6-25s-24.8-4.5-26.8-8 22-.3 22-.3c-2.3-7.5-18.8-22-18.8-22s-22.2 10.7-23.3 6.8 20.1-8.5 20.1-8.5c-5-6.1-15.8-9.1-15.8-9.1-16.6-2.5-19 18.9-19 18.9s-7.8 3.6-18.8 2.5h0s-2.1-.4-5.4-.3l.8 1.9c.6-.1 1.1-.1 1.7-.1h0 0 1.4 0 0a40.26 40.26 0 0 0 3.1.1h0c4.3.2 10 .8 11.6 2 0 0 .2-.3.7-.8-.2.2-.5.5-.7.8-5.6 6.2.1 22.8 5.8 31.1 5.7 8.2 6.5 3.2 8.6-3.4s-3.3-16.3-3-20 3.8 0 5.9 6.2-2.7 11.8.5 21.9 24.6 9.8 24.6 9.8c-4.9-5.8-6.3-19.4-4.2-20.8s9.4 16.5 11.3 18.9c1.8 2.6 9.4 5.1 19.3-2.6z" fill="#dceaff"/><path d="M270.7 217.6s1.2-23 11.9-37.4c1.4-1.9 4.5-1 4.6 1.4v.1c.1 4.1-11.8 22.1-16.5 35.9zm-1 6.6s9.7-29.3 28.7-43.3c1.2-.9 2.8-.7 3.7.4.6.7.9 1.9.4 3.8-1.2 5.2-22.2 23.6-32.8 39.1zM105 254.9s-9.7-16.8-23.2-23.6c-1.8-.9-3.7 1-2.9 2.8v.1c1.5 3.2 17.3 12.2 26.1 20.7zm3.3 4.6S89.8 241.2 70.2 238c-1.2-.2-2.4.6-2.6 1.8-.2.8.1 1.8 1.1 3.1 2.9 3.3 25.7 9.1 39.6 16.6z" opacity=".5" fill="#bfdcff" class="AJ"/><path d="M317.8 210.3v157.5c0 2.8-2 5-4.4 5H86.1c-2.5 0-4.4-2.2-4.4-5V210.3c0-2.8 2-5 4.4-5h227.2c2.5 0 4.5 2.2 4.5 5z" stroke="#6b98f6" stroke-width=".25" stroke-miterlimit="10" class="AF"/><path d="M317.1 210.2V222H82v-11.8c0-2.4 2-4.4 4.4-4.4h226.3c2.4 0 4.4 2 4.4 4.4z" class="z"/><g fill="#dceaff"><circle cx="91.2" cy="213.9" r="2.1"/><circle cx="99.3" cy="213.9" r="2.1"/><circle cx="107.7" cy="213.9" r="2.1"/><path d="M224.9 193l2.8-.3c.2 0 .5.1.6.3.2.3.3.5.5.7.3.5.7.9 1.1 1.2.2.2.2.4.2.7l-1.1 2.8c-.1.3 0 .6.3.8l2.4 1.2c.3.1.6 0 .8-.2l1.5-2.3c.1-.2.4-.3.7-.3a9.82 9.82 0 0 0 3.4.3c.3 0 .5.2.6.4l.5 1.6c.1.3.4.5.7.4l2.6-.5c.1 0 .1 0 .2-.1.2-.1.4-.4.3-.6l-.2-2.1-.1-.5a9.13 9.13 0 0 0 1.3-.8 6.73 6.73 0 0 0 1.5-1.4c.2-.2.4-.3.7-.2l2.2.9c.3.1.6 0 .8-.3l.9-1.9.3-.5c.1-.3 0-.6-.2-.8l-1.9-1.2c-.2-.1-.3-.4-.3-.7.2-.8.3-1.5.3-2.3v-.2-.1c0-.2.2-.5.4-.5l2.6-.8h.1c.2-.1.4-.4.3-.7l-.5-2.6c-.1-.3-.4-.5-.7-.5l-2.9.3c-.2 0-.5-.1-.6-.3l-.9-1.4c-.2-.2-.4-.5-.6-.7s-.2-.4-.1-.7l1-2.6c.1-.3 0-.6-.3-.8l-2.4-1.2c-.3-.1-.6 0-.8.2l-1.2 1.8a1.08 1.08 0 0 1-.7.3 9.6 9.6 0 0 0-3.3-.6c-.3 0-.5-.2-.6-.4l-.7-2.3c-.1-.3-.4-.5-.7-.4l-2.6.5c-.3.1-.5.4-.5.7v.1l.3 2.4c0 .3-.1.5-.3.6h0c-.6.3-1.1.6-1.6 1-.3.2-.5.4-.8.7a.47.47 0 0 1-.6.1l-2.3-.9c-.3-.1-.7 0-.8.3l-1.2 2.4c0 .1-.1.1-.1.2 0 .2.1.5.3.6l1.5 1c.2.1.3.3.3.6v.2c-.5 1.4-.7 2.8-.6 4.3 0 .2-.1.5-.3.6h-.1l-2.1.7c-.3.1-.5.4-.4.7v.1l.5 2.6c0 .3.3.5.6.4zm18-8c.2.4.3.8.4 1.3.2.9 0 2.3-.4 3.1 0 .1-.1.2-.1.3-2.8 5.1-10 4.1-11.2-1.7-.2-.8-.1-1.9.2-2.7.1-.2.1-.4.2-.5.4-.7.8-1.3 1.3-1.8 3-2.9 8-2 9.6 2z"/></g><path d="M94.5 325.1s.3-3.4-3.5-3.4c0 0 1.2.3 1.8.9 0 0-2.4-1.4-5.1.8s-1 7.7-1.8 8.8c-.8 1-3.9 1.3-3.6 4.6.4 3.4 10 7.6 9.3 10.4 0 0 3.8-5.5 1.1-8 0 0 1.3 1.2 1.4 2.7 0 0 .4-2.9-1.5-3.8-1.6-.8-2.9-3.8-2.8-4.3.3-.5 4.7-8.7 4.7-8.7z" class="AE"/><path d="M90.8 341.6s2.9 11.8 5.7 14.2c1.7 1.4 6.7 4.7 6.7 4.7l-2.1.8s-6.9-2.3-8.5-4.2c-1.6-1.8-5.8-11-5.8-11l4-4.5z" class="AA"/><path d="M64 362.3l.1.1 3.6 6.7 2.3 4.2 3.1 5.5 1.4 2.2h0c.1.1.1.2.1.3-.1 1-.1 2 0 2.9 1 9.5 7.3 14.5 7.3 14.5l1.9.3s-2.7-9.9-3.5-15.6c-.1-1-.2-1.7-.1-2.2.1-1.5-.1-3.6-.6-6.1-.9-4.4-2.5-9.8-3.9-14.1-.1-.3-2.8-9.9-2.8-9.9-2.2 2-10.4 2.8-10.4 2.8s-1.4 3.4 1.5 8.4z" class="AG"/><path d="M87.8 401.4h-7.9s-.2-1.2.2-2.1 1-.9.1-2.3c.5.5 2.1.7 3.3.6.1.2.9 1.8 1.4 2.1.4.4 2.7.2 2.9 1.7z" fill="#1a4379"/><path d="M64 362.3l.1.1 5.6 10.2c-1.8-7.5-.6-15-.6-15l-5.1 4.7z" class="AB"/><path d="M93.5 324.7c.1-.2-4.5 2.1-4.8 2.3-2.1 2.4-1.5 5.5-.3 5.5.8 0 .6 1.3.6 1.3l8.8-3.7s-1.1-6.1-4.3-5.4z" class="AE"/><path d="M90.5 339.8s1.3 2.7 1.2 4.8c0 0-1.6 2.5-5.8 3.2 0 0 3.6-8 4.6-8z" class="z"/><path d="M70.1 354.5V353c-3 .4-10.2-3.5-10.2-3.5s-3.1 2.1-3.5 7.9c-.2 2.9-1.5 15-1.7 18.6-.1 1.3-.1 2.2-.1 2.6h0c0 .1-.1.2-.1.3-.6.8-1.1 1.6-1.6 2.5-4.5 8.4-2.1 19.8-2.1 19.8l1-.3s3.8-11.8 6.3-16.9c.4-.9.8-1.5 1.1-1.9.9-1.1 1.9-3.1 2.9-5.4 2-4.5 8-22.2 8-22.2z" class="AG"/><path d="M57.2 401.4h-7.9s-.2-1.2.2-2.1 1-1.3.9-2.3c.5.5 1.3 1.1 2.5.9.1.2.9 1.4 1.4 1.8.4.4 2.7.2 2.9 1.7z" fill="#1a4379"/><path d="M85.4 349.5c-1.1.2.2 1-1.3 1.2-2.1.2-4.2.4-5.4.8-.4.2-.7.4-.8.6-.5 1.5-3.6 4-3.6 4-13.8-.6-14.7-6.8-14.7-6.8 9-8.7 16.6-13.4 22.9-14 1.5-.1 3.6 0 4.6.5 2.2 1 3.4 4 3.4 4s-1.1 9-5.1 9.7z" class="z"/><path d="M84.1 350.7c-2.1.2-4.2.4-5.4.8-.5-6.9 2.8-12.1 2.8-12.1l2.6 11.3z" fill="#fc7600"/><path d="M87 336.4c.4 1.2 1.7 4.7 3.5 3.4-.1-.3.3-1 .8-1.8l1.3-2-3-2.6-.2-.2c-.8 1.4-1.5 2-2.2 2.5-.2.2-.3.4-.2.7z" class="AA"/><path d="M92.5 336l-1.3 2c-1.8-1.1-1.8-3.4-1.7-4.6l3 2.6z" fill="#f99352"/><path d="M92.6 337.3s-4.5-2.5-2.9-5.3 2.1-4.9 5-3.5c2.9 1.5 2.9 2.8 2.6 3.9s-3.5 5.5-4.7 4.9z" class="AA"/><path d="M98.1 330.8c-.2-1.2-.8-1.3-1.3-1.3-1.7-2.7-4.4-1.7-4.4-1.7-1.4 1.8-3.5 2.1-3.5 2.1s.5 1 2.7 1.6c.7.2 1.4.1 2.1-.2-1.5.8-3 1.1-3 1.1 2.8.3 5.5-2.3 5.8-2.6.1.4.4 1.2.2 1.8-.2.8-.9 2.3-.5 2.5 0 .3 2.2-1.4 1.9-3.3z" class="AE"/><g class="AC"><path d="M104.978 375.074l4.251-8.719 33.349 16.257-4.251 8.719z"/><path d="M94.5 376.9c-3.1-1.5-5.2-4.3-6-7.6a2.53 2.53 0 0 1 1.9-3 2.53 2.53 0 0 1 3 1.9c.4 1.8 1.6 3.3 3.3 4.2 3 1.5 6.7.2 8.1-2.8 1.5-3 .2-6.7-2.8-8.1-1.4-.7-2.9-.8-4.4-.4-1.3.4-2.7-.4-3.1-1.7s.4-2.7 1.7-3.1c2.7-.8 5.5-.5 8 .7 5.5 2.7 7.8 9.3 5.1 14.8-2.6 5.5-9.3 7.8-14.8 5.1zm47.3 23c-5.5-2.7-7.8-9.3-5.1-14.8s9.3-7.8 14.8-5.1c2.5 1.2 4.4 3.3 5.5 5.9.5 1.3-.1 2.7-1.4 3.3-1.3.5-2.7-.1-3.3-1.4-.6-1.4-1.6-2.6-3-3.2-3-1.5-6.7-.2-8.1 2.8-1.5 3-.2 6.7 2.8 8.1a6.15 6.15 0 0 0 5.3 0c1.2-.6 2.7-.1 3.3 1.2.6 1.2.1 2.7-1.2 3.3-3 1.4-6.6 1.4-9.6-.1z"/></g><path d="M130.6 383.6L113 375c-.5-.2-.7-.9-.5-1.4l.4-.9c.2-.5.9-.7 1.4-.5l17.6 8.6c.5.2.7.9.5 1.4l-.4.9c-.3.5-.9.7-1.4.5z" class="AB"/><g class="AA"><path d="M90.1 368s.1.8.4 1.3c.4.4 1.4 1.5 1.4 2.1 0 0-.1.3-.3.2-.2 0-1-.8-1.4-.8 0 0 .2 1.2.4 1.6.2.3.6 1.6.5 1.9s-2.2-1.4-2.8-2.3c-.6-.8 0-4.3 0-4.3l1.8.3z"/><path d="M85.9 338.3s-5.2-.3-6.2 3c-.9 3.3 1.7 16.4 2.3 17.8 1.1 2.5 6.2 9.5 6.2 9.5l1.9-.6s-3.4-10.8-4.2-11.8c-1.2-1.7 1.5-16.5 0-17.9z"/></g><path d="M78.7 345.7c0 .1 5 .9 8-.7 0 0 2.6-8.1-1.1-7.7s-5.9 1.5-6 3.3-.9 5.1-.9 5.1z" class="z"/><path d="M100.5 355.1c-.2 0-.7.1-.9.2-.3.2-.6.6 0 .9 1 .5 2.9.3 2.8 0-.1-.9-.5-1.1-1.9-1.1zm27.6-128.8c-.3.3-.3.6-.2 1h0c.2.6 1 1.4 1.9 2.1l.3.3.1.1h.1c.8.8.5.9 2 2.5 1.7 1.8 2.9 1.8 3.2 1.6.3-.1-.3-1.1-.9-2.1 0-.1-.1-.1-.1-.2-.1-.1-.2-.3-.3-.4-.7-1.3-.6-1.9-.4-3.7.1-1.5 2.4-8.5 2.4-8.5l-3.2-.6s-1 5.6-2.1 6.4c-.6.5-1.2.5-1.8.8 0 0-.1 0-.1.1-.3.1-.6.4-.9.6z" class="AA"/><path d="M128.1 226.3c-.3.3-.3.6-.2 1h0c.3.6 1 1.3 1.9 2.1l.3.3.1.1h.1c.8.8.5.9 2 2.5 1.7 1.8 2.9 1.8 3.2 1.6.3-.1-.3-1.1-.9-2.1-.3-.1-1.9-.7-3-2.2-1-1.3-1.7-3-2.4-3.9 0 0-.1 0-.1.1-.4 0-.7.3-1 .5z" class="AB"/><path d="M154.3 224.3c.2 1 1.6.8 3.2.4s1.2.1 3.5-.2 3-1.1 3-1.4c.1-.3-1.1-.4-2.3-.5-.2 0-.3 0-.5-.1-1.4-.2-2.4-1-3.6-1.8-1.2-.7-2.9-3.5-2.9-3.5l-3.1.2 2.3 3.6c.4.6.4 1.5.3 2.1.1.5 0 .9.1 1.2z" class="AA"/><path d="M157.5 224.8c1.6-.4 1.2.1 3.5-.2s3-1.1 3-1.4c.1-.3-1.1-.4-2.3-.5h0s-1.4 1-3.3 1c-1.5 0-3.2-.4-4.2-.4v1.1c.3.9 1.7.7 3.3.4z" class="AB"/><path d="M142.4 204.4l-2.9 7.8-3.8 10.2s-1 .1-2-.2c-.9-.3-2-1-2-1s1.1-11 3-17.3c.5-1.6 1.1-2.9 1.7-3.7 3.1-3.4 6 4.2 6 4.2z" class="AE"/><path d="M139.4 192c-1.9-.6-7.3.2-12.8 1.2l-1.1-1.9-11.8-.9s-3.9 8.6-1.8 14.1c.3.8.9 1.3 2 1.3h.2 9.3c5.9 0 12.4-4 13.3-4.2 1.4-.3 1.9 2.5 3.3 5.4s13 12.9 13 12.9 1.8 0 2.5-.3c.8-.3 1.1-.7 1.1-.7s-12.9-25.6-17.2-26.9z" class="AG"/><path d="M121.5 155.4c-1.7-.4-3.9 0-4.3 0-4.5.4-6 5.5-5.3 9.3.6 3.6-1.2 4.6-3.3 7.4-4.2 5.7-1.5 10.5 1.9 11.7 2 .7 4.8-1.1 4.8-1.1.1 0 8.7-5.7 12.3-8.9 5.9-2.3-1.8-17.3-6.1-18.4z" class="AC"/><path d="M122.2 171.8c.1.4-1.8 1.2-3.3.9-1.4-.3-3-1.9-2.7-2.1.5-.3.9-.9.6-4.3h.3l4.5.5.1 2.7c.1 1.2.3 1.6.5 2.3z" class="AA"/><path d="M121.6 166.8l.1 2.7c-2.5.1-4-2-4.6-3.2l4.5.5z" fill="#f9924f"/><path d="M122.5 168s-5.9.6-6.2-3.1-1.3-6.1 2.5-6.6c3.7-.5 4.6.8 5 2 .4 1.3.2 7.5-1.3 7.7z" class="AA"/><g class="AC"><path d="M121.9 157.8s-.7 4.5-4.1 5.5c-2.4.8-3.5.3-3.5.3s1.2-1.6 1.6-3.7c.1-.6.6-1.2 1.2-1.4 1.7-.6 3.8-2.2 4.8-.7z"/><path d="M120.8 158.7s1.1.2 2.1 1.7c.5.8 1.2 2.7 1.1 3.6 0 0 1-4.1-.5-5.7-1.6-1.6-2.7.4-2.7.4z"/></g><path d="M111.6 183.8l.3 1.2.3 1.6c.2 1.4.1 2.3.2 3.2l.4 1.8c.2.7 6.6 1.3 10.3 1 1.2-.1 2-.2 2.3-.5 1.3-1.1 1.2 1.3 1.3-10.5.1-5.8-4.9-10.9-4.9-10.9s-.4 2.5-5.3-.5c-.2-.1-2.1 2.8-4 6.3-2 4.1-1.5 4.9-.9 7.3z" class="z"/><path d="M139.5 212.2l-3.8 10.2s-1 .1-2-.2c-.9-.3-2-1-2-1s1.1-11 3-17.3l4.8 8.3z" class="AC"/><path d="M121.9 170.8s5.1.9 5.7 3.1 4.7 14.4 4.7 14.4-3.2 1.1-4.4-.1-4.2-11.1-4.2-11.1l-1.8-6.3z" class="z"/><path d="M121.2 165.8a.94.94 0 0 0 .9.6c.7 0 .8-.1.9-.2s.2-.4.2-.4-1-.2-2 0z" fill="#fff"/><path d="M112.2 186.7c.2 1.4.1 2.3.2 3.2 4.6 0 10.8-3.6 10.8-3.6l-11 .4zm11-3.4s-7.2-.2-8.4-4.3c-1.3-4.5-2.8 1.8-2.8 1.8l.8 4h7.9l2.5-1.5z" fill="#fc7600"/><path d="M135.7 172.2l-.4-1c-.4-1-1.4-1.7-2.5-1.7h-7.2v4.6 19.4h29.7v-19.4h-16.8c-1.2 0-2.3-.8-2.8-1.9z" class="AD"/><path d="M130.1 184.1v-1.7l6.1-2.7v1.8l-4.2 1.7 4.2 1.7v1.8l-6.1-2.6zm12.4-6.4h1.6l-5.6 11.6h-1.6l5.6-11.6zm8.4 4.7v1.7l-6.1 2.7V185l4.2-1.7-4.2-1.7v-1.8l6.1 2.6z" fill="#fff"/><path d="M123.2 184.3l.5-.8s.4-.1 1-.5c.7-.5.6-1.2.9-1.1v1.6h0c1.5.4 3.2 0 3.2.3.1 1-.7 1.5-1.3 1.8-.5.2-1.1.6-2 .3l-1.7-.4-.6-1.2z" class="AA"/><path d="M116.5 170.3s-4.7.3-5.8 2.1c-1.2 1.8-2.6 11.1-2 14.3s15.6-.6 15.6-.6l-.5-2.8s-8.6 0-9.1-1.1c-.7-1.4 1.8-11.9 1.8-11.9z" class="z"/><path d="M139.1 174.1c0 .1.7 1.3 1.8 1.1.7-.1 1.5-1.6.8-1.9-1.3-.5-2.5.5-2.6.8z" class="AA"/><path d="M184.681 238.246l17.376-32.553.176.094-17.376 32.553zm61.366-32.433l.147-.136 19.51 21.049-.147.136z" class="AH"/><path d="M277.7 233c.3 2.1-.3 4.1-1.5 5.7s-2.9 2.7-5 3l-87.2 12c-4.5.6-8.6-2.3-9.1-6.6-.3-2.1.4-4.1 1.6-5.7 1.3-1.6 3.2-2.7 5.4-3l87.2-12c4.2-.6 8 2.4 8.6 6.6z" fill="#fff"/><path d="M277.7 233c.3 2.1-.3 4.1-1.5 5.7s-2.9 2.7-5 3l-15.8 2.2-2.1-15.3 15.8-2.2c4.2-.6 8 2.4 8.6 6.6z" class="z"/><g fill="#fff"><path d="M268.1 237.1h-.6c-1.1 0-2-.4-2.8-1.2-1.5-1.6-1.5-4.1.1-5.6h0c1.6-1.5 4.1-1.5 5.6.1s1.5 4.1-.1 5.6c-.6.6-1.4 1-2.2 1.1zm-2.8-6.2a3.42 3.42 0 0 0-.1 4.7c.6.6 1.4 1 2.3 1s1.7-.3 2.3-.9a3.42 3.42 0 0 0 .1-4.7c-1.2-1.4-3.3-1.4-4.6-.1h0z"/><path d="M260.964 239.23l3.862-3.774.419.429-3.862 3.774z"/><path d="M259.8 240.8h0a.61.61 0 0 1 0-.8l2.3-2.2a.61.61 0 0 1 .8 0h0a.61.61 0 0 1 0 .8l-2.3 2.2c-.2.3-.6.3-.8 0z"/></g><use xlink:href="#B" class="z"/><g class="AD"><use xlink:href="#C"/><use xlink:href="#D"/><use xlink:href="#E"/><use xlink:href="#C" x="11.2"/></g><g class="z"><use xlink:href="#B" x="22.2"/><use xlink:href="#B" y="12.5"/></g><g class="AD"><use xlink:href="#F"/><use xlink:href="#D" y="12.5"/><use xlink:href="#E" y="12.5"/><use xlink:href="#F" x="11.2"/></g><use xlink:href="#B" x="22.2" y="12.5" class="z"/><g class="AB"><path d="M226 252.7l-10.4 2.4-5.2 9.4-3.9-21.3z"/><path d="M213.473 254.183l1.514-1.148 6.644 8.767-1.514 1.148z"/></g><path d="M209.5 296.8h-6.2a11.61 11.61 0 0 1-11.6-11.6V279a11.61 11.61 0 0 1 11.6-11.6h6.2a11.61 11.61 0 0 1 11.6 11.6v6.2c-.1 6.4-5.2 11.6-11.6 11.6z" class="AI"/><g class="AD"><path d="M195.4 290.7l5.7-10.3c.7-1.2 2.3-1.3 3.2-.2l3.3 4.5c.7 1 2.1 1 2.9.2h0c.8-.9 2.3-.8 3 .2l3.5 5.5c.8 1.2-.1 2.9-1.6 2.9h-18.3c-1.5 0-2.4-1.6-1.7-2.8z"/><circle cx="208.9" cy="275.6" r="2.2"/></g><path d="M256.7 297.6l-25.4 3.5c-1 .1-2-.6-2.1-1.6l-3.5-25.4c-.1-1 .6-2 1.6-2.1l25.4-3.5c1-.1 2 .6 2.1 1.6l3.5 25.4c.1 1-.6 2-1.6 2.1z" class="AI"/><g class="AD"><path d="M232.4 294.7l4.3-11c.5-1.3 2.1-1.6 3.1-.6l3.9 4c.8.9 2.2.7 2.9-.2h0c.7-1 2.2-1.1 3-.2l4.3 4.9c1 1.1.3 2.9-1.2 3.1l-18.2 2.5c-1.6.3-2.7-1.1-2.1-2.5z"/><circle transform="matrix(.9908 -.1352 .1352 .9908 -35.3465 35.5023)" cx="243.7" cy="278" r="2.2"/></g><path d="M167.4 388.3h14.8V401h-14.8z" class="z"/><path d="M166.8 387.7h15.9v1h-15.9z" fill="#a9c2ff"/><path d="M167.4 391.7h14.8v4h-14.8z" fill="#fddbba"/><path d="M200.1 400.9h-14c-.5 0-.9-.4-.9-.9v-1.5c0-.6.5-1 1-.9l14 1.5c.5.1.8.4.8.9h0c.1.5-.4.9-.9.9z" class="z"/><g class="AD"><path d="M175.7 298h-1.6c-.1 0-.3-.1-.3-.3 0-.1.1-.3.3-.3h1.6c.1 0 .3.1.3.3s-.1.3-.3.3zm-3.2 0h-1.6c-.1 0-.3-.1-.3-.3 0-.1.1-.3.3-.3h1.6c.1 0 .3.1.3.3s-.1.3-.3.3zm-3.2 0h-1.6c-.1 0-.3-.1-.3-.3 0-.1.1-.3.3-.3h1.6c.1 0 .3.1.3.3s-.1.3-.3.3zm-3.2 0h-1.6c-.1 0-.3-.1-.3-.3 0-.1.1-.3.3-.3h1.6c.1 0 .3.1.3.3s-.1.3-.3.3zm-3.2 0h-1.6c-.1 0-.3-.1-.3-.3 0-.1.1-.3.3-.3h1.6c.1 0 .3.1.3.3s-.1.3-.3.3zm-3.2 0h-1.6c-.1 0-.3-.1-.3-.3 0-.1.1-.3.3-.3h1.6c.1 0 .3.1.3.3s-.1.3-.3.3zm-3.2 0H155c-.1 0-.3-.1-.3-.3 0-.1.1-.3.3-.3h1.6c.1 0 .3.1.3.3-.1.2-.2.3-.4.3zm-3.1 0h-1.6c-.1 0-.3-.1-.3-.3 0-.1.1-.3.3-.3h1.6c.1 0 .3.1.3.3-.1.2-.2.3-.3.3zm-3.2 0h-1.6c-.1 0-.3-.1-.3-.3 0-.1.1-.3.3-.3h1.6c.1 0 .3.1.3.3-.1.2-.2.3-.3.3zm-3.2 0h-1.6c-.1 0-.3-.1-.3-.3 0-.1.1-.3.3-.3h1.6c.1 0 .3.1.3.3-.1.2-.2.3-.3.3zm-3.2 0h-1.6c-.1 0-.3-.1-.3-.3 0-.1.1-.3.3-.3h1.6c.1 0 .3.1.3.3-.1.2-.2.3-.3.3zm-3.2 0H139c-.1 0-.3-.1-.3-.3 0-.1.1-.3.3-.3h1.6c.1 0 .3.1.3.3-.1.2-.2.3-.3.3zm-3.2 0h-1.6c-.1 0-.3-.1-.3-.3 0-.1.1-.3.3-.3h1.6c.1 0 .3.1.3.3-.1.2-.2.3-.3.3zm-3.2 0h-1.6c-.1 0-.3-.1-.3-.3 0-.1.1-.3.3-.3h1.6c.1 0 .3.1.3.3-.1.2-.2.3-.3.3zm-3.2 0h-1.6c-.1 0-.3-.1-.3-.3 0-.1.1-.3.3-.3h1.6c.1 0 .3.1.3.3-.1.2-.2.3-.3.3zm-3.2 0h-1.6c-.1 0-.3-.1-.3-.3 0-.1.1-.3.3-.3h1.6c.1 0 .3.1.3.3-.1.2-.2.3-.3.3zm-3.2 0H123c-.1 0-.3-.1-.3-.3 0-.1.1-.3.3-.3h1.6c.1 0 .3.1.3.3s-.2.3-.3.3zm-3.2 0H120h-.2c-.1 0-.3-.1-.2-.3 0-.1.1-.3.3-.2h.2 1.4c.1 0 .3.1.3.3a.76.76 0 0 1-.4.2zm55.8-.5c-.1 0-.2 0-.2-.1-.1-.1-.1-.3.1-.4.4-.3.7-.7.9-1.1.1-.1.2-.2.3-.1s.2.2.1.3c-.2.5-.6 1-1.1 1.3 0 .1 0 .1-.1.1zm-58.9-.1c-.1 0-.1 0-.2-.1-.5-.4-.8-.8-1-1.4 0-.1 0-.3.2-.3.1 0 .3 0 .3.2.2.5.4.9.8 1.2.1.1.1.3 0 .4.1 0 0 0-.1 0zm60.1-2.7c-.1 0-.3-.1-.3-.3v-1.6c0-.1.1-.3.3-.3.1 0 .3.1.3.3v1.6c0 .2-.1.3-.3.3zm-61.1-.2c-.1 0-.3-.1-.3-.3v-1.6c0-.1.1-.3.3-.3s.3.1.3.3v1.6c-.1.2-.2.3-.3.3zm61.1-3c-.1 0-.3-.1-.3-.3v-1.6c0-.1.1-.3.3-.3.1 0 .3.1.3.3v1.6c0 .2-.1.3-.3.3zm-61.1-.1c-.1 0-.3-.1-.3-.3v-1.6c0-.1.1-.3.3-.3s.3.1.3.3v1.6c-.1.1-.2.3-.3.3zm61.1-3.1c-.1 0-.3-.1-.3-.3v-1.6c0-.1.1-.3.3-.3.1 0 .3.1.3.3v1.6c0 .2-.1.3-.3.3zm-61.1-.1c-.1 0-.3-.1-.3-.3v-1.6c0-.1.1-.3.3-.3s.3.1.3.3v1.6c-.1.1-.2.3-.3.3zm61.1-3.1c-.1 0-.3-.1-.3-.3v-1.6c0-.1.1-.3.3-.3.1 0 .3.1.3.3v1.6c0 .2-.1.3-.3.3zm-61.1-.1c-.1 0-.3-.1-.3-.3v-1.6c0-.1.1-.3.3-.3s.3.1.3.3v1.6c-.1.1-.2.3-.3.3zm61.1-3.1c-.1 0-.3-.1-.3-.3V280c0-.1.1-.3.3-.3.1 0 .3.1.3.3v1.6c0 .2-.1.3-.3.3zm-61.1-.1c-.1 0-.3-.1-.3-.3v-1.6c0-.1.1-.3.3-.3s.3.1.3.3v1.6c-.1.1-.2.3-.3.3zm61.1-3.1c-.1 0-.3-.1-.3-.3v-1.6c0-.1.1-.3.3-.3.1 0 .3.1.3.3v1.6c0 .2-.1.3-.3.3zm-61.1-.1c-.1 0-.3-.1-.3-.3v-1.6c0-.1.1-.3.3-.3s.3.1.3.3v1.6c-.1.1-.2.3-.3.3zm61.1-3.1c-.1 0-.3-.1-.3-.3v-1.6c0-.1.1-.3.3-.3.1 0 .3.1.3.3v1.6c0 .2-.1.3-.3.3zm-61.1-.1c-.1 0-.3-.1-.3-.3v-1.6c0-.1.1-.3.3-.3s.3.1.3.3v1.6c-.1.2-.2.3-.3.3zm61.1-3.1c-.1 0-.3-.1-.3-.3v-1.6c0-.1.1-.3.3-.3.1 0 .3.1.3.3v1.6c0 .2-.1.3-.3.3zm-61.1-.1c-.1 0-.3-.1-.3-.3v-1.6c0-.1.1-.3.3-.3s.3.1.3.3v1.6c-.1.2-.2.3-.3.3zm61.1-3.1c-.1 0-.3-.1-.3-.3v-1.6c0-.1.1-.3.3-.3.1 0 .3.1.3.3v1.6c0 .2-.1.3-.3.3zm-61.1-.1c-.1 0-.3-.1-.3-.3v-1.6c0-.1.1-.3.3-.3s.3.1.3.3v1.6c-.1.2-.2.3-.3.3zm61.1-3.1c-.1 0-.3-.1-.3-.3v-.6c0-.3 0-.5-.1-.8 0-.1 0-.3.2-.3.1 0 .3 0 .3.2.1.3.2.6.2.9v.7c0 .1-.1.2-.3.2zm-61.1-.1c-.1 0-.3-.1-.3-.3v-.5c0-.4.1-.8.2-1.1.1-.1.2-.2.3-.1s.2.2.1.3c-.1.3-.2.6-.2.9v.6c.1.1 0 .2-.1.2zm60.1-2.7c-.1 0-.1 0-.2-.1-.4-.3-.8-.5-1.3-.5-.1 0-.3-.1-.2-.3 0-.1.1-.3.3-.2.6 0 1.2.2 1.6.6.1.1.1.3 0 .4-.1 0-.2.1-.2.1zm-58.9-.1c-.1 0-.2 0-.2-.1-.1-.1-.1-.3.1-.4.5-.3 1.1-.5 1.7-.5h0c.1 0 .3.1.3.3 0 .1-.1.3-.3.3-.5 0-1 .1-1.4.4h-.2zm55.8-.5h-1.6c-.1 0-.3-.1-.3-.3s.1-.3.3-.3h1.6c.1 0 .3.1.3.3s-.2.3-.3.3zm-3.2 0h-1.6c-.1 0-.3-.1-.3-.3s.1-.3.3-.3h1.6c.1 0 .3.1.3.3s-.2.3-.3.3zm-3.2 0h-1.6c-.1 0-.3-.1-.3-.3s.1-.3.3-.3h1.6c.1 0 .3.1.3.3s-.1.3-.3.3zm-3.2 0h-1.6c-.1 0-.3-.1-.3-.3s.1-.3.3-.3h1.6c.1 0 .3.1.3.3s-.1.3-.3.3zm-3.2 0h-1.6c-.1 0-.3-.1-.3-.3s.1-.3.3-.3h1.6c.1 0 .3.1.3.3s-.1.3-.3.3zm-3.2 0h-1.6c-.1 0-.3-.1-.3-.3s.1-.3.3-.3h1.6c.1 0 .3.1.3.3s-.1.3-.3.3zm-3.2 0h-1.6c-.1 0-.3-.1-.3-.3s.1-.3.3-.3h1.6c.1 0 .3.1.3.3s-.1.3-.3.3zm-3.2 0h-1.6c-.1 0-.3-.1-.3-.3s.1-.3.3-.3h1.6c.1 0 .3.1.3.3s-.1.3-.3.3zm-3.2 0h-1.6c-.1 0-.3-.1-.3-.3s.1-.3.3-.3h1.6c.1 0 .3.1.3.3s-.1.3-.3.3zm-3.2 0h-1.6c-.1 0-.3-.1-.3-.3s.1-.3.3-.3h1.6c.1 0 .3.1.3.3s-.1.3-.3.3zm-3.2 0h-1.6c-.1 0-.3-.1-.3-.3s.1-.3.3-.3h1.6c.1 0 .3.1.3.3s-.1.3-.3.3zm-3.2 0h-1.6c-.1 0-.3-.1-.3-.3s.1-.3.3-.3h1.6c.1 0 .3.1.3.3s-.1.3-.3.3zm-3.2 0h-1.6c-.1 0-.3-.1-.3-.3s.1-.3.3-.3h1.6c.1 0 .3.1.3.3s-.1.3-.3.3zm-3.2 0h-1.6c-.1 0-.3-.1-.3-.3s.1-.3.3-.3h1.6c.1 0 .3.1.3.3s-.1.3-.3.3zm-3.2 0H128c-.1 0-.3-.1-.3-.3s.1-.3.3-.3h1.6c.1 0 .3.1.3.3s-.2.3-.4.3zm-3.1 0h-1.6c-.1 0-.3-.1-.3-.3s.1-.3.3-.3h1.6c.1 0 .3.1.3.3s-.2.3-.3.3zm-3.2 0h-1.6c-.1 0-.3-.1-.3-.3s.1-.3.3-.3h1.6c.1 0 .3.1.3.3s-.2.3-.3.3zm143.4 79.8h-1.4c-.1 0-.2-.1-.2-.2s.1-.2.2-.2h1.4c.1 0 .2.1.2.2s-.1.2-.2.2zm-2.9 0h-1.4c-.1 0-.2-.1-.2-.2s.1-.2.2-.2h1.4c.1 0 .2.1.2.2.1.1 0 .2-.2.2zm-2.8 0h-1.4c-.1 0-.2-.1-.2-.2s.1-.2.2-.2h1.4c.1 0 .2.1.2.2s-.1.2-.2.2zm-2.8 0h-1.4c-.1 0-.2-.1-.2-.2s.1-.2.2-.2h1.4c.1 0 .2.1.2.2s-.1.2-.2.2zm-2.9 0h-1.4c-.1 0-.2-.1-.2-.2s.1-.2.2-.2h1.4c.1 0 .2.1.2.2.1.1 0 .2-.2.2zm-2.8 0H251c-.1 0-.2-.1-.2-.2s.1-.2.2-.2h1.4c.1 0 .2.1.2.2.1.1-.1.2-.2.2zm-2.8 0h-1.4c-.1 0-.2-.1-.2-.2s.1-.2.2-.2h1.4c.1 0 .2.1.2.2s-.1.2-.2.2zm-2.8 0h-1.4c-.1 0-.2-.1-.2-.2s.1-.2.2-.2h1.4c.1 0 .2.1.2.2s-.1.2-.2.2zm-2.9 0h-1.4c-.1 0-.2-.1-.2-.2s.1-.2.2-.2h1.4c.1 0 .2.1.2.2.1.1 0 .2-.2.2zm-2.8 0h-1.4-.1c-.1 0-.2-.1-.2-.2s.1-.2.2-.2h0 1.4c.1 0 .2.1.2.2.1.1 0 .2-.1.2zm26.4-.9h0c-.1 0-.2-.1-.2-.2h0v-1.4c0-.1.1-.2.2-.2s.2.1.2.2v1.4c0 .1-.1.2-.2.2zm-28.7 0c-.1 0-.2-.1-.2-.2v-1.4c0-.1.1-.2.2-.2s.2.1.2.2v1.4c0 .1-.1.2-.2.2zm28.7-2.8c-.1 0-.2-.1-.2-.2V337c0-.1.1-.2.2-.2s.2.1.2.2v1.4c0 .1-.1.2-.2.2zm-28.7 0c-.1 0-.2-.1-.2-.2V337c0-.1.1-.2.2-.2s.2.1.2.2v1.4c0 .1-.1.2-.2.2zm28.7-2.8c-.1 0-.2-.1-.2-.2v-1.4c0-.1.1-.2.2-.2s.2.1.2.2v1.4c0 .1-.1.2-.2.2zm-28.7-.1c-.1 0-.2-.1-.2-.2v-1.4h0c0-.1.1-.2.2-.2s.2.1.2.2h0v1.4c0 .1-.1.2-.2.2zm27.8-2.3h0 0-1.4c-.1 0-.2-.1-.2-.2s.1-.2.2-.2h1.4.1c.1 0 .2.1.2.2-.1.1-.2.2-.3.2zm-2.8 0h-1.4c-.1 0-.2-.1-.2-.2s.1-.2.2-.2h1.4c.1 0 .2.1.2.2s-.1.2-.2.2zm-2.8 0h-1.4c-.1 0-.2-.1-.2-.2s.1-.2.2-.2h1.4c.1 0 .2.1.2.2s-.1.2-.2.2zm-2.9 0h-1.4c-.1 0-.2-.1-.2-.2s.1-.2.2-.2h1.4c.1 0 .2.1.2.2.1.1 0 .2-.2.2zm-2.8 0h-1.4c-.1 0-.2-.1-.2-.2s.1-.2.2-.2h1.4c.1 0 .2.1.2.2s-.1.2-.2.2zm-2.8 0H251c-.1 0-.2-.1-.2-.2s.1-.2.2-.2h1.4c.1 0 .2.1.2.2.1.1 0 .2-.1.2zm-2.9 0h-1.4c-.1 0-.2-.1-.2-.2s.1-.2.2-.2h1.4c.1 0 .2.1.2.2.1.1 0 .2-.2.2zm-2.8 0h-1.4c-.1 0-.2-.1-.2-.2s.1-.2.2-.2h1.4c.1 0 .2.1.2.2s-.1.2-.2.2zm-2.8 0h-1.4c-.1 0-.2-.1-.2-.2s.1-.2.2-.2h1.4c.1 0 .2.1.2.2s-.1.2-.2.2zm-2.9 0h-1.4c-.1 0-.2-.1-.2-.2s.1-.2.2-.2h1.4c.1 0 .2.1.2.2.1.1 0 .2-.2.2zm-75.6-75.6h-1.6c-.1 0-.3-.1-.3-.3 0-.1.1-.3.3-.3h1.6c.1 0 .3.1.3.3-.1.2-.2.3-.3.3zm-3.2 0h-1.6c-.1 0-.3-.1-.3-.3 0-.1.1-.3.3-.3h1.6c.1 0 .3.1.3.3s-.1.3-.3.3zm-3.1 0h-1.6c-.1 0-.3-.1-.3-.3 0-.1.1-.3.3-.3h1.6c.1 0 .3.1.3.3s-.2.3-.3.3zm-3.1 0h-1.6c-.1 0-.3-.1-.3-.3 0-.1.1-.3.3-.3h1.6c.1 0 .3.1.3.3-.1.2-.2.3-.3.3zm-3.2 0h-1.6c-.1 0-.3-.1-.3-.3 0-.1.1-.3.3-.3h1.6c.1 0 .3.1.3.3s-.1.3-.3.3zm-3.1 0h-1.6c-.1 0-.3-.1-.3-.3 0-.1.1-.3.3-.3h1.6c.1 0 .3.1.3.3s-.2.3-.3.3zm-3.1 0h-1.6c-.1 0-.3-.1-.3-.3 0-.1.1-.3.3-.3h1.6c.1 0 .3.1.3.3-.1.2-.2.3-.3.3zm-3.2-.1h-.1c-.5-.3-.8-.8-.8-1.4v-.2c0-.1.1-.3.3-.3s.3.1.3.3v.2c0 .4.2.7.5.9.1.1.2.2.1.4-.1 0-.2.1-.3.1zm23.2-.7c-.1 0-.1 0 0 0-.2-.1-.3-.2-.2-.4 0-.1.1-.2.1-.4v-1.1c0-.1.1-.3.3-.3s.3.1.3.3v1.1c0 .2 0 .4-.1.6-.2.1-.3.2-.4.2zm-23.8-2.2c-.1 0-.3-.1-.3-.3v-1.6c0-.1.1-.3.3-.3s.3.1.3.3v1.6c0 .2-.2.3-.3.3zm23.9-.9c-.1 0-.3-.1-.3-.3V252c0-.1.1-.3.3-.3s.3.1.3.3v1.6c-.1.2-.2.3-.3.3zm-23.9-2.3c-.1 0-.3-.1-.3-.3v-1.6c0-.1.1-.3.3-.3s.3.1.3.3v1.6c0 .2-.2.3-.3.3zm23.9-.9c-.1 0-.3-.1-.3-.3v-1.6c0-.1.1-.3.3-.3s.3.1.3.3v1.6c-.1.2-.2.3-.3.3zm-23.9-2.2c-.1 0-.3-.1-.3-.3v-1.6c0-.1.1-.3.3-.3s.3.1.3.3v1.6c0 .2-.2.3-.3.3zm23.9-.9c-.1 0-.3-.1-.3-.3v-1.6c0-.1.1-.3.3-.3s.3.1.3.3v1.6c-.1.2-.2.3-.3.3zm-23.9-2.2c-.1 0-.3-.1-.3-.3v-1.6c0-.1.1-.3.3-.3s.3.1.3.3v1.6c0 .2-.2.3-.3.3zm23.9-.9c-.1 0-.3-.1-.3-.3v-1.6c0-.1.1-.3.3-.3s.3.1.3.3v1.6c-.1.2-.2.3-.3.3zm-23.9-2.3c-.1 0-.3-.1-.3-.3v-1.6c0-.1.1-.3.3-.3s.3.1.3.3v1.6c0 .2-.2.3-.3.3zm23.9-.9c-.1 0-.3-.1-.3-.3v-1.6c0-.1.1-.3.3-.3s.3.1.3.3v1.6c-.1.2-.2.3-.3.3zm-23.9-2.2c-.1 0-.3-.1-.3-.3v-1.1c0-.2 0-.4.1-.6.1-.1.2-.2.3-.2.1.1.2.2.2.3s-.1.2-.1.4v1.1c.1.3-.1.4-.2.4zm23.9-.9c-.1 0-.3-.1-.3-.3v-.2c0-.4-.2-.7-.5-.9-.1-.1-.2-.2-.1-.4.1-.1.2-.2.4-.1.5.3.8.8.8 1.4v.2c-.1.2-.2.3-.3.3zm-2.2-1.5H163c-.1 0-.3-.1-.3-.3s.1-.3.3-.3h1.6c.1 0 .3.1.3.3s-.2.3-.3.3zm-3.2 0h-1.6c-.1 0-.3-.1-.3-.3s.1-.3.3-.3h1.6c.1 0 .3.1.3.3s-.1.3-.3.3zm-3.1 0h-1.6c-.1 0-.3-.1-.3-.3s.1-.3.3-.3h1.6c.1 0 .3.1.3.3s-.2.3-.3.3zm-3.1 0h-1.6c-.1 0-.3-.1-.3-.3s.1-.3.3-.3h1.6c.1 0 .3.1.3.3s-.2.3-.3.3zm-3.2 0h-1.6c-.1 0-.3-.1-.3-.3s.1-.3.3-.3h1.6c.1 0 .3.1.3.3s-.1.3-.3.3zm-3.1 0h-1.6c-.1 0-.3-.1-.3-.3s.1-.3.3-.3h1.6c.1 0 .3.1.3.3s-.2.3-.3.3zm-3.1 0h-1.6c-.1 0-.3-.1-.3-.3s.1-.3.3-.3h1.6c.1 0 .3.1.3.3s-.2.3-.3.3z"/><path d="M266.6 355.4h-1.4c-.1 0-.2-.1-.2-.2s.1-.2.2-.2h1.4c.1 0 .2.1.2.2s-.1.2-.2.2zm-2.9 0h-1.4c-.1 0-.2-.1-.2-.2s.1-.2.2-.2h1.4c.1 0 .2.1.2.2s0 .2-.2.2zm-2.8 0h-1.4c-.1 0-.2-.1-.2-.2s.1-.2.2-.2h1.4c.1 0 .2.1.2.2s-.1.2-.2.2zm-2.8 0h-1.4c-.1 0-.2-.1-.2-.2s.1-.2.2-.2h1.4c.1 0 .2.1.2.2s-.1.2-.2.2zm-2.9 0h-1.4c-.1 0-.2-.1-.2-.2s.1-.2.2-.2h1.4c.1 0 .2.1.2.2s0 .2-.2.2zm-2.8 0H251c-.1 0-.2-.1-.2-.2s.1-.2.2-.2h1.4c.1 0 .2.1.2.2s-.1.2-.2.2zm-2.8 0h-1.4c-.1 0-.2-.1-.2-.2s.1-.2.2-.2h1.4c.1 0 .2.1.2.2s-.1.2-.2.2zm-2.8 0h-1.4c-.1 0-.2-.1-.2-.2s.1-.2.2-.2h1.4c.1 0 .2.1.2.2s-.1.2-.2.2zm-2.9 0h-1.4c-.1 0-.2-.1-.2-.2s.1-.2.2-.2h1.4c.1 0 .2.1.2.2s0 .2-.2.2zm-2.8 0h-1.4-.1c-.1 0-.2-.1-.2-.2s.1-.2.2-.2h0 1.4c.1 0 .2.1.2.2s0 .2-.1.2zm26.4-.9h0c-.1 0-.2-.1-.2-.2h0v-1.4c0-.1.1-.2.2-.2s.2.1.2.2v1.4c0 .1-.1.2-.2.2zm-28.7 0c-.1 0-.2-.1-.2-.2v-1.4c0-.1.1-.2.2-.2s.2.1.2.2v1.4c0 .1-.1.2-.2.2zm28.7-2.8c-.1 0-.2-.1-.2-.2V350c0-.1.1-.2.2-.2s.2.1.2.2v1.4c0 .2-.1.3-.2.3zm-28.7-.1c-.1 0-.2-.1-.2-.2V350c0-.1.1-.2.2-.2s.2.1.2.2v1.4c0 .1-.1.2-.2.2zm28.7-2.8c-.1 0-.2-.1-.2-.2v-1.4c0-.1.1-.2.2-.2s.2.1.2.2v1.4c0 .1-.1.2-.2.2zm-28.7 0c-.1 0-.2-.1-.2-.2v-1.4h0c0-.1.1-.2.2-.2s.2.1.2.2h0v1.4c0 .1-.1.2-.2.2zm27.8-2.3h0 0-1.4c-.1 0-.2-.1-.2-.2s.1-.2.2-.2h1.4.1c.1 0 .2.1.2.2-.1.1-.2.2-.3.2zm-2.8 0h-1.4c-.1 0-.2-.1-.2-.2s.1-.2.2-.2h1.4c.1 0 .2.1.2.2s-.1.2-.2.2zm-2.8 0h-1.4c-.1 0-.2-.1-.2-.2s.1-.2.2-.2h1.4c.1 0 .2.1.2.2s-.1.2-.2.2zm-2.9 0h-1.4c-.1 0-.2-.1-.2-.2s.1-.2.2-.2h1.4c.1 0 .2.1.2.2.1.1 0 .2-.2.2zm-2.8 0h-1.4c-.1 0-.2-.1-.2-.2s.1-.2.2-.2h1.4c.1 0 .2.1.2.2s-.1.2-.2.2zm-2.8 0H251c-.1 0-.2-.1-.2-.2s.1-.2.2-.2h1.4c.1 0 .2.1.2.2.1.1 0 .2-.1.2zm-2.9 0h-1.4c-.1 0-.2-.1-.2-.2s.1-.2.2-.2h1.4c.1 0 .2.1.2.2.1.1 0 .2-.2.2zm-2.8 0h-1.4c-.1 0-.2-.1-.2-.2s.1-.2.2-.2h1.4c.1 0 .2.1.2.2s-.1.2-.2.2zm-2.8 0h-1.4c-.1 0-.2-.1-.2-.2s.1-.2.2-.2h1.4c.1 0 .2.1.2.2s-.1.2-.2.2zm-2.9 0h-1.4c-.1 0-.2-.1-.2-.2s.1-.2.2-.2h1.4c.1 0 .2.1.2.2.1.1 0 .2-.2.2zm-86.2-.9h-1.4c-.1 0-.2-.1-.2-.2s.1-.2.2-.2h1.4c.1 0 .2.1.2.2s-.1.2-.2.2zm-2.9 0h-1.4c-.1 0-.2-.1-.2-.2s.1-.2.2-.2h1.4c.1 0 .2.1.2.2s0 .2-.2.2zm-2.8 0h-1.4c-.1 0-.2-.1-.2-.2s.1-.2.2-.2h1.4c.1 0 .2.1.2.2s0 .2-.2.2zm-2.8 0H145c-.1 0-.2-.1-.2-.2s.1-.2.2-.2h1.4c.1 0 .2.1.2.2s0 .2-.2.2zm-2.8 0h-1.4c-.1 0-.2-.1-.2-.2s.1-.2.2-.2h1.4c.1 0 .2.1.2.2s0 .2-.2.2zm-2.8 0h-1.4c-.1 0-.2-.1-.2-.2s.1-.2.2-.2h1.4c.1 0 .2.1.2.2s-.1.2-.2.2zm-2.8 0h-1.4c-.1 0-.2-.1-.2-.2s.1-.2.2-.2h1.4c.1 0 .2.1.2.2s-.1.2-.2.2zm-2.8 0h-1.4c-.1 0-.2-.1-.2-.2s.1-.2.2-.2h1.4c.1 0 .2.1.2.2s-.1.2-.2.2zm-2.8 0H131c-.1 0-.2-.1-.2-.2s.1-.2.2-.2h1.4c.1 0 .2.1.2.2s-.1.2-.2.2zm-2.8 0h-1.4c-.1 0-.2-.1-.2-.2s.1-.2.2-.2h1.4c.1 0 .2.1.2.2s-.1.2-.2.2zm-2.8 0h-1.4c-.1 0-.2-.1-.2-.2s.1-.2.2-.2h1.4c.1 0 .2.1.2.2s-.1.2-.2.2zm-2.8 0h-1.4c-.1 0-.2-.1-.2-.2s.1-.2.2-.2h1.4c.1 0 .2.1.2.2s-.1.2-.2.2zm-2.8 0h-1.4c-.1 0-.2-.1-.2-.2s.1-.2.2-.2h1.4c.1 0 .2.1.2.2s-.1.2-.2.2zm-2.8 0H117c-.1 0-.2-.1-.2-.2s.1-.2.2-.2h1.4c.1 0 .2.1.2.2s-.1.2-.2.2zm-2.8 0h-1.4c-.1 0-.2-.1-.2-.2s.1-.2.2-.2h1.4c.1 0 .2.1.2.2s-.1.2-.2.2zm-2.9 0h-1.1-.3c-.1 0-.2-.1-.2-.3 0-.1.1-.2.3-.2h.3 1.1c.1 0 .2.1.2.2s-.1.3-.3.3zm43.5-.5c-.1 0-.1 0-.2-.1s0-.3.1-.3c.4-.2.6-.6.8-1 0-.1.2-.2.3-.1.1 0 .2.2.1.3-.2.5-.5.9-1 1.2h-.1zm-46.1-.1c-.1 0-.1 0-.2-.1-.4-.3-.7-.8-.8-1.3 0-.1 0-.3.2-.3.1 0 .3 0 .3.2.1.4.4.8.7 1 .1.1.1.2 0 .3-.1.2-.2.2-.2.2zm47.1-2.3c-.1 0-.2-.1-.2-.2v-1.4c0-.1.1-.2.2-.2s.2.1.2.2v1.4c.1.1 0 .2-.2.2zm-48-.3c-.1 0-.2-.1-.2-.2v-1.4c0-.1.1-.2.2-.2s.2.1.2.2v1.4c.1.1 0 .2-.2.2zm48-2.5c-.1 0-.2-.1-.2-.2v-1.4c0-.1.1-.2.2-.2s.2.1.2.2v1.4c.1.1 0 .2-.2.2zm-48-.3c-.1 0-.2-.1-.2-.2V338c0-.1.1-.2.2-.2s.2.1.2.2v1.4c.1.1 0 .2-.2.2zm48-2.5c-.1 0-.2-.1-.2-.2v-1.4c0-.1.1-.2.2-.2s.2.1.2.2v1.4c.1.1 0 .2-.2.2zm-48-.3c-.1 0-.2-.1-.2-.2v-1.4c0-.1.1-.2.2-.2s.2.1.2.2v1.4c.1.1 0 .2-.2.2zm48-2.5c-.1 0-.2-.1-.2-.2v-1.4c0-.1.1-.2.2-.2s.2.1.2.2v1.4c.1.1 0 .2-.2.2zm-48-.3c-.1 0-.2-.1-.2-.2v-1.4c0-.1.1-.2.2-.2s.2.1.2.2v1.4c.1.1 0 .2-.2.2zm48-2.5c-.1 0-.2-.1-.2-.2v-1.4c0-.1.1-.2.2-.2s.2.1.2.2v1.4c.1.1 0 .2-.2.2zm-48-.3c-.1 0-.2-.1-.2-.2v-1.4c0-.1.1-.2.2-.2s.2.1.2.2v1.4c.1.1 0 .2-.2.2zm48-2.5c-.1 0-.2-.1-.2-.2V327c0-.1.1-.2.2-.2s.2.1.2.2v1.4c.1.2 0 .3-.2.3zm-48-.3c-.1 0-.2-.1-.2-.2v-1.4c0-.1.1-.2.2-.2s.2.1.2.2v1.4c.1.1 0 .2-.2.2zm48-2.5c-.1 0-.2-.1-.2-.2v-1.4c0-.1.1-.2.2-.2s.2.1.2.2v1.4c.1 0 0 .2-.2.2zm-48-.3c-.1 0-.2-.1-.2-.2V324c0-.1.1-.2.2-.2s.2.1.2.2v1.4c.1.1 0 .2-.2.2zm48-2.6c-.1 0-.2-.1-.2-.2v-1.4c0-.1.1-.2.2-.2s.2.1.2.2v1.4c.1.1 0 .2-.2.2zm-48-.2c-.1 0-.2-.1-.2-.2v-1.4c0-.1.1-.2.2-.2s.2.1.2.2v1.4c.1.1 0 .2-.2.2zm48-2.6c-.1 0-.2-.1-.2-.2v-1.4c0-.1.1-.2.2-.2s.2.1.2.2v1.4c.1.1 0 .2-.2.2zm-48-.2c-.1 0-.2-.1-.2-.2v-1.4c0-.1.1-.2.2-.2s.2.1.2.2v1.4c.1.1 0 .2-.2.2zm48-2.6c-.1 0-.2-.1-.2-.2v-1.4c0-.1.1-.2.2-.2s.2.1.2.2v1.4c.1.1 0 .2-.2.2zm-48-.2c-.1 0-.2-.1-.2-.2v-1.4c0-.1.1-.2.2-.2s.2.1.2.2v1.4c.1.1 0 .2-.2.2zm48-2.6c-.1 0-.2-.1-.2-.2V313c0-.1.1-.2.2-.2s.2.1.2.2v1.4c.1.1 0 .2-.2.2zm-48-.2c-.1 0-.2-.1-.2-.2v-1.4c0-.1.1-.2.2-.2s.2.1.2.2v1.4c.1 0 0 .2-.2.2zm47.9-2.6c-.1 0-.2-.1-.2-.2-.1-.4-.4-.8-.7-1-.1-.1-.1-.2 0-.3s.2-.1.3 0c.4.3.7.8.8 1.3.1.1 0 .2-.2.2h0zm-47.7-.2h0c-.2-.1-.3-.2-.2-.3.2-.5.5-.9 1-1.2.1-.1.3 0 .3.1.1.1 0 .3-.1.3-.4.2-.6.6-.8 1 0 0-.1.1-.2.1zm45.7-1.5h0-.3-1.1c-.1 0-.2-.1-.2-.2s.1-.2.2-.2h1.1.3c.1 0 .2.1.2.3 0 0-.1.1-.2.1zm-2.8 0h-1.4c-.1 0-.2-.1-.2-.2s.1-.2.2-.2h1.4c.1 0 .2.1.2.2.1.1 0 .2-.2.2zm-2.8 0h-1.4c-.1 0-.2-.1-.2-.2s.1-.2.2-.2h1.4c.1 0 .2.1.2.2s-.1.2-.2.2zm-2.8 0h-1.4c-.1 0-.2-.1-.2-.2s.1-.2.2-.2h1.4c.1 0 .2.1.2.2s-.1.2-.2.2zm-2.8 0h-1.4c-.1 0-.2-.1-.2-.2s.1-.2.2-.2h1.4c.1 0 .2.1.2.2s-.1.2-.2.2zm-2.8 0h-1.4c-.1 0-.2-.1-.2-.2s.1-.2.2-.2h1.4c.1 0 .2.1.2.2s-.1.2-.2.2zm-2.8 0h-1.4c-.1 0-.2-.1-.2-.2s.1-.2.2-.2h1.4c.1 0 .2.1.2.2s-.1.2-.2.2zm-2.8 0h-1.4c-.1 0-.2-.1-.2-.2s.1-.2.2-.2h1.4c.1 0 .2.1.2.2s-.1.2-.2.2zm-2.8 0h-1.4c-.1 0-.2-.1-.2-.2s.1-.2.2-.2h1.4c.1 0 .2.1.2.2s-.1.2-.2.2zm-2.8 0h-1.4c-.1 0-.2-.1-.2-.2s.1-.2.2-.2h1.4c.1 0 .2.1.2.2s-.1.2-.2.2zm-2.8 0h-1.4c-.1 0-.2-.1-.2-.2s.1-.2.2-.2h1.4c.1 0 .2.1.2.2s-.1.2-.2.2zm-2.8 0h-1.4c-.1 0-.2-.1-.2-.2s.1-.2.2-.2h1.4c.1 0 .2.1.2.2s-.1.2-.2.2zm-2.9 0H120c-.1 0-.2-.1-.2-.2s.1-.2.2-.2h1.4c.1 0 .2.1.2.2.1.1 0 .2-.2.2zm-2.8 0h-1.4c-.1 0-.2-.1-.2-.2s.1-.2.2-.2h1.4c.1 0 .2.1.2.2.1.1 0 .2-.2.2zm-2.8 0h-1.4c-.1 0-.2-.1-.2-.2s.1-.2.2-.2h1.4c.1 0 .2.1.2.2.1.1 0 .2-.2.2zm-2.8 0h-1.4c-.1 0-.2-.1-.2-.2s.1-.2.2-.2h1.4c.1 0 .2.1.2.2.1.1 0 .2-.2.2z"/></g><path d="M157.1 302.5h-33.8c-7.5 0-13.7-6.1-13.7-13.7v-8.1c0-7.5 6.1-13.7 13.7-13.7h33.8c7.5 0 13.7 6.1 13.7 13.7v8.1c-.1 7.6-6.2 13.7-13.7 13.7z" class="AI"/><path d="M133.2 277.8v14.1c0 .9 1 1.4 1.7.9l10.7-7c.7-.4.7-1.4 0-1.8l-10.7-7c-.7-.6-1.7-.1-1.7.8z" class="z"/><g fill="#a9c2ff"><circle cx="113.8" cy="299.3" r="1.1"/><path d="M163.8 299.6h-49.6c-.2 0-.3-.1-.3-.3h0c0-.2.1-.3.3-.3h49.6c.2 0 .3.1.3.3h0c0 .2-.2.3-.3.3z"/></g><path d="M166.8 309.9h31.6v47.2h-31.6z" opacity=".5" class="AF AJ"/><path d="M185.6 325h-.4v-1.9c0-.7.6-1.3 1.3-1.3h5.4c.4 0 .7-.3.8-.6l.8-3.2c.1-.3 0-.5-.1-.7-.2-.2-.4-.3-.7-.3h-7v-.4h7c.4 0 .8.2 1 .5a1.39 1.39 0 0 1 .2 1.1l-.8 3.2c-.1.6-.6.9-1.2.9h-5.4c-.5 0-.8.4-.8.8v1.9h-.1z" class="AC"/><path d="M190.2 318.6h-8.4a1.79 1.79 0 0 1-1.8-1.8h0a1.79 1.79 0 0 1 1.8-1.8h8.4a1.79 1.79 0 0 1 1.8 1.8h0c0 .9-.8 1.8-1.8 1.8z" class="z"/><path d="M185.4 333.1h0c-.7 0-1.2-.5-1.2-1.2v-7.2c0-.7.5-1.2 1.2-1.2h0c.7 0 1.2.5 1.2 1.2v7.2c0 .7-.5 1.2-1.2 1.2z" class="AC"/><path d="M230.9 348.8s.8 2.5.7 3.1-.6 2.5-1 3.1c-.4.5-.5-2.1-.8-2.4-.3-.4-.1 1-.3 1.1s-.6-1-.8-1.4.4-1.8.5-2.9 1.7-.6 1.7-.6z" class="AA"/><path d="M211.7 328.7c-.2-2.9 2.9-4.9 5.4-3.4.1 0 .1.1.2.1 3.7 2.4 11.7 13.5 12.3 14.7.6 1.1 2.2 10 2.2 10s-2 .7-3 0c0 0-3.3-8.4-3.7-8.9-.5-.4-13-7.5-13.2-10.1-.1-.7-.1-1.5-.2-2.4z" class="AB"/><path d="M234.1 394s1.5 1.4 1.2 2.3c-.3 1-1.6 1.6-1.8 2.8s-.9 1.8-1.6 1.8h-3.1s-.5-.8.7-1.1 1.6-1.6 1.5-2.9.1-3 .1-3l2.5-.6.5.7zm-18.4 3.5s.3 3.1-.4 3.4h-8.4s0-1 1.4-1.2 3.7-1 4.1-2.8c.4-1.7 3.3.6 3.3.6z" fill="#214a80"/><path d="M208.6 353.6l1 12 1.6 21.9.7 9.3s1.4 1.4 4.2.8c0 0 2.5-8.2 3.2-16.9v-.4c.7-8.8 1.7-27.5 1.7-27.5l-12.4.8z" class="z"/><path d="M208.6 353.6l1 12 9.7 15.1v-.4c.7-8.8 1.7-27.5 1.7-27.5l-12.4.8z" fill="#f70"/><path d="M210.7 354.3s8 19.7 13.3 29l6.9 11.9s3-1.2 3.3-2c0 0-2-17.9-5.5-22.3-2-2.5-4.3-9.9-4.4-12.5s-.7-7.7-.7-7.7l-12.9 3.6z" class="z"/><path d="M217.6 324.7s-5.4 2.7-8.5 1.8c0 0 .7-1 2.1-1.7l-.3-1.6c-.2-1.1-.2-1.7-.2-1.7l2.1-1.7 1.9-1.6c-.1 4.4 2.9 6.5 2.9 6.5z" class="AA"/><path d="M222.9 352.3c-2.2 1.3-4.2 2.3-6.6 2.8-2.8.7-6.3.5-7.5.6-.1 0-.2 0-.3-.1-.1 0-.6-3.5-1.1-7.8 0-.2 0-.4-.1-.5v-.1l-.5-5.3-.3-4.1-.1-4.3c0-.6 0-1.1.1-1.5.3-2.5 1.5-4.4 2.7-5.7l.9-1.1a5.08 5.08 0 0 0 3.3-.8c1.2-.8 2.4-1.6 2.6-1.4 1.8 1 3.2 3.5 4.2 6.8.6 1.9 1 4.1 1.3 6.4.1.7.2 1.4.2 2.2v.4c.1 2 .4 3.9.6 5.5l1 5.5.3 1.6c.2.2-.4.7-.7.9z" class="AC"/><path d="M214.8 319.8s-1.3 2.5-3.9 3.3c-.2-1.1-.2-1.7-.2-1.7l2.1-1.7 2 .1z" fill="#f99352"/><path d="M209.8 321.4s5.2.7 5.6-2.4c.4-3.2 1.4-5.2-1.9-5.8s-4.1.5-4.5 1.6c-.5.9-.6 6.3.8 6.6z" class="AA"/><path d="M217.1 312.7c0-.1.2-.1.4-.1 0 0-.2-.1-.5-.1-.1-.3-.2-.9-.8-1.1 0 0 .3.2.4.5-.7-.7-2.1-1.1-6.1-.8-5.2.5-3.4 3.8-2.7 4.2s2.4-.7 3.6-.7c1.3.1 1.5 1.9 2 2.1.4.2.3-.2.8-.5.6-.3.6.7.5 1.3-.2.6.7 1.4.7 1.4l.8-.9c.8-.9 1.5-4.5 1.1-5.3-.1.1-.2 0-.2 0z" class="AE"/><path d="M215.5 333.8s-4.4 3.3-9 4l-.1-4.3 9.1.3z" class="AB"/><path d="M188.6 329.6c-.1-.1-1-3-2.5-2.8-1 .1-2.6.7-2.2 2 .2.5 3.2 2.3 3.2 2.3l1.5-1.5z" class="AA"/><path d="M216 327.4c2.5 1.5 2.3 5.2-.4 6.4-.1 0-.1 0-.2.1-4.1 1.6-17.8 1.7-19.1 1.5-1.2-.2-9.4-4-9.4-4s.6-2.1 1.7-2.4c0 0 8.8 2.2 9.4 2.1s13.6-6.3 15.9-4.9c.6.3 1.4.8 2.1 1.2z" class="AC"/><g class="AF"><path d="M308.4 229.7h-10.9c-.5 0-.8-.4-.8-.8h0c0-.5.4-.8.8-.8h10.9c.5 0 .8.4.8.8h0c0 .4-.4.8-.8.8zm0 3.3h-10.9c-.5 0-.8-.4-.8-.8h0c0-.5.4-.8.8-.8h10.9c.5 0 .8.4.8.8h0c0 .4-.4.8-.8.8zm0 3.3h-10.9c-.5 0-.8-.4-.8-.8h0c0-.5.4-.8.8-.8h10.9c.5 0 .8.4.8.8h0c0 .5-.4.8-.8.8z"/><use xlink:href="#G"/><use xlink:href="#G" x="-127.2" y="-76.1"/><path d="M265.6 326.1h-26a1.11 1.11 0 0 1-1.1-1.1h0a1.11 1.11 0 0 1 1.1-1.1h26a1.11 1.11 0 0 1 1.1 1.1h0c0 .7-.5 1.1-1.1 1.1zm0-5.4h-31.1a1.11 1.11 0 0 1-1.1-1.1h0a1.11 1.11 0 0 1 1.1-1.1h31.1a1.11 1.11 0 0 1 1.1 1.1h0a1.11 1.11 0 0 1-1.1 1.1z"/><use xlink:href="#H"/><circle cx="111.3" cy="245" r="1.1"/><path d="M133.2 250.5h-17a1.11 1.11 0 0 1-1.1-1.1h0a1.11 1.11 0 0 1 1.1-1.1h17a1.11 1.11 0 0 1 1.1 1.1h0a1.11 1.11 0 0 1-1.1 1.1z"/><circle cx="111.3" cy="249.4" r="1.1"/><use xlink:href="#H" y="9.2"/><circle cx="111.3" cy="254.2" r="1.1"/></g><g class="AD"><path d="M157.3 248.6h-.6c-1 0-2-.4-2.8-1.2-1.5-1.5-1.5-4 .1-5.5h0c1.5-1.5 4-1.5 5.5.1 1.5 1.5 1.5 4-.1 5.5-.5.6-1.2 1-2.1 1.1zm-2.8-6.2a3.29 3.29 0 0 0-.1 4.6c.6.6 1.4 1 2.3 1s1.7-.3 2.3-.9a3.29 3.29 0 0 0 .1-4.6c-1.2-1.4-3.3-1.4-4.6-.1h0z"/><path d="M150.215 250.638l3.791-3.704.419.429-3.791 3.704z"/><path d="M149.1 252.2h0a.61.61 0 0 1 0-.8l2.2-2.2a.61.61 0 0 1 .8 0h0a.61.61 0 0 1 0 .8l-2.2 2.2c-.2.3-.6.3-.8 0z"/></g><g class="AH"><path d="M299.6 401.1h0c-.5 0-1-.4-1.2-.8l-30-91.4c-.1-.4.1-.8.6-.8h0c.5 0 1 .4 1.2.8l30 91.4c.2.4-.1.8-.6.8zm24.2-.2h0c-.5 0-1-.4-1.2-.8l-30-91.4c-.1-.4.1-.8.6-.8h0c.5 0 1 .4 1.2.8l30 91.4c.2.5-.1.8-.6.8z"/><path d="M297.8 321.4l-24.3.1c-.5 0-1-.3-1.1-.8h0c-.1-.4.1-.8.6-.8l24.3-.1c.5 0 1 .3 1.1.8h0c.1.5-.2.8-.6.8zm5.2 16l-24.3.1c-.5 0-1-.3-1.1-.8h0c-.1-.4.1-.8.6-.8l24.3-.1c.5 0 1 .3 1.1.8h0c.1.4-.1.8-.6.8z"/><use xlink:href="#I"/><use xlink:href="#I" x="5.7" y="17.3"/><path d="M319.7 388.2l-24.3.1c-.5 0-1-.3-1.1-.8h0c-.1-.4.1-.8.6-.8l24.3-.1c.5 0 1 .3 1.1.8h0c.1.4-.1.8-.6.8zm-52.3-121.3h0c-.2 0-.4-.1-.4-.3l-.4-2c0-.2.1-.4.3-.4h0c.2 0 .4.1.4.3l.4 2c0 .2-.1.4-.3.4z"/><path d="M266.017 260.85l.196-.038.57 2.945-.196.038z"/></g><path d="M266.3 244.5s-.2-2-.7-2.8-2.3-1.3-2.4-1.1c-.4.3 1.1 1.6 1.1 2 .1.5-.7.1-.3 1 .3.7 1.4 1.7 1.4 1.7l.9-.8z" class="AA"/><path d="M265.4 244.3c.7-.5.8-.5.8-.5l6.8 5.8c.6.5 9.9 3.2 9.9 3.2l1.5 7.5s-12.6-6.1-14.1-7.3c-2.5-2-5.6-7.8-5.6-7.8s.2-.5.7-.9z" fill="#f28018"/><path d="M283.1 316.8s-.1 2.6-.6 3.2h-6.9c0-.3.1-.9 1-1 1.2-.2 2.6-1 3.3-2.6.8-1.7 3.2.4 3.2.4zm13.5-.4s.5 3.4-.2 3.5l-3.9.1h-3.6c-.3 0-.5-.3-.3-.5.2-.3.5-.6 1-.7 1.2-.2 3.2-1.1 3.9-2.7.7-1.8 3.1.3 3.1.3z" fill="#0b3563"/><path d="M279.5 281.3s1.9 6.7 7.4 18.3 5.7 17.2 5.7 17.2.8.3 1.9.2c1.2-.1 2-.7 2-.7s-.4-13.9-2.9-19.7c-2.6-5.9-3.1-21.9-3.1-21.9l-11 6.6z" class="AB"/><path d="M276.4 275.5s-.2 10.4 1.6 23.1 1 18.7 1 18.7.5.3 1.9.3c1.7 0 2.6-.7 2.6-.7s2.6-12.7 1.8-19.1c-.7-6.4 3.5-21.9 3.5-21.9l-12.4-.4z" class="AH"/><path d="M284.9 251.2l-2 1.5-2.9-.6c0-.3.2-1.4.4-2.4v-.2l.3-1.6 2.7-1.4 1-.5-.1 1.1c-.1 2.5.6 4.1.6 4.1z" class="AA"/><path d="M290.7 276.8c-.7 3-14.9 1.7-14.7-.1 0-.1 0-.9.1-2.1l.3-6.7h0c.3-2.6.5-5.1.5-6.7a19.31 19.31 0 0 1 .5-4.2c.2-1.2.5-2.3.8-3.2.2-.6.5-1.1 1-1.6.3-.3.7-.5 1.1-.7.1 0 .2-.1.3-.1 1.7-.5 4-1.1 4.6-.9 1.7.5 3 3.5 3.8 7.3 1.8 7 2.2 17 1.7 19z" class="z"/><path d="M284.2 247.2c-.6 1.2-2.8 2.1-3.8 2.5v-.2l.3-1.6 2.7-1.4c.6.1 1 .3.8.7z" fill="#ffa05e"/><path d="M279.4 247.8s4.9 1.5 5.9-1.6c.9-3.1 2.2-5-1-6.1-3.1-1.1-4.1-.1-4.6.8-.6 1.1-1.6 6.5-.3 6.9z" class="AA"/><path d="M279.8 240.7s.3 3.6 1.1 3.4c.7-.2 1.4-.3 1.3.8s-1.1 2.3 1.2 2.5 5.6-5.7 5-6.8c-1.9-3.2-11.2-3.8-8.6.1z" fill="#0b3563"/><path d="M276.2 274.6l.3-6.7h0l8.4-5c-.1 0 .3 11.7-8.7 11.7z" fill="#f28018"/><path d="M269.5 264.1l-2-1.3c-.3-.1-1.4-.2-1.4-.1s-.2.3 0 .4.4.1.3.1c-.1.1-.8-.3-.9.1-.2.4-.3 1.6.5 1.9.8.4 2.8 0 3 .1 1.2.4.5-1.2.5-1.2z" class="AA"/><path d="M269.5 263.8l9.1 1.1c1.2-.6-.5-9-.5-9s-.1-1.9 2.2-2.4c1.9-.4 3.8 1.1 3.8 1.1s1.7 1.5 1.5 3.2c-.5 3.7-1.2 11.4-3.7 12.5-3.2 1.5-12.6-4.2-12.6-4.2s-.3-.4-.3-1.1c0-.6.5-1.2.5-1.2z" class="z"/><path d="M263.9 243.5l-.6-1.3c-.1-.2.1-.2.3 0 .2.1.5.7.8.7.2-.1-.5.6-.5.6z" class="AA"/><defs ><path id="B" d="M131.1 316.3h-17.9c-.5 0-.8-.4-.8-.8h0c0-.5.4-.8.8-.8h17.9c.5 0 .8.4.8.8h0c0 .4-.3.8-.8.8z"/><path id="C" d="M121.9 322h-9a.65.65 0 0 1-.6-.6h0a.65.65 0 0 1 .6-.6h9a.65.65 0 0 1 .6.6h0a.65.65 0 0 1-.6.6z"/><path id="D" d="M128.7 319.6h-15.8a.65.65 0 0 1-.6-.6h0a.65.65 0 0 1 .6-.6h15.8a.65.65 0 0 1 .6.6h0c0 .4-.2.6-.6.6z"/><path id="E" d="M146.1 319.6h-14.7a.65.65 0 0 1-.6-.6h0a.65.65 0 0 1 .6-.6h14.7a.65.65 0 0 1 .6.6h0c0 .4-.2.6-.6.6z"/><path id="F" d="M121.9 334.5h-9a.65.65 0 0 1-.6-.6h0a.65.65 0 0 1 .6-.6h9a.65.65 0 0 1 .6.6h0c0 .4-.3.6-.6.6z"/><path id="G" d="M265.6 315.2h-26a1.11 1.11 0 0 1-1.1-1.1h0a1.11 1.11 0 0 1 1.1-1.1h26a1.11 1.11 0 0 1 1.1 1.1h0a1.11 1.11 0 0 1-1.1 1.1z"/><path id="H" d="M130.4 246.1h-14.2a1.11 1.11 0 0 1-1.1-1.1h0a1.11 1.11 0 0 1 1.1-1.1h14.2a1.11 1.11 0 0 1 1.1 1.1h0a1.11 1.11 0 0 1-1.1 1.1z"/><path id="I" d="M308 352.8l-24.3.1c-.5 0-1-.3-1.1-.8h0c-.1-.4.1-.8.6-.8l24.3-.1c.5 0 1 .3 1.1.8h0c.2.4-.1.8-.6.8z"/></defs></svg>