<svg xmlns="http://www.w3.org/2000/svg" xmlns:xlink="http://www.w3.org/1999/xlink" viewBox="0 0 400 520" xmlns:v="https://vecta.io/nano"><style><![CDATA[.Bt{fill:#131f2d}.Bu{fill:#f99746}.Bv{fill:#fd7955}.Bw{fill:#364154}.Bx{fill:#e8e8e8}.By{fill:#aec3ff}.Bz{fill:#ed7d2b}.CA{fill:#bc9264}.CB{fill:#2b478b}.CC{fill:#ed6343}.CD{fill:#e8b7ac}]]></style><g class="Bx"><path d="M169.8 189.2l6.2-.7c.5-.1 1 .2 1.3.6.4.6.7 1.1 1.2 1.6.8 1 1.6 1.9 2.5 2.7.4.4.5 1 .3 1.5l-2.4 6.1c-.3.6 0 1.4.7 1.7l5.3 2.6c.6.3 1.3.1 1.7-.5l3.2-5.1c.3-.5.9-.7 1.5-.6 2.5.6 5 .9 7.6.8.6 0 1.2.4 1.4 1l1.1 3.5c.2.7.9 1.1 1.6.9l5.8-1.2c.1 0 .2-.1.3-.1.5-.2.8-.8.7-1.4l-.5-4.6-.1-1.1c1-.5 1.9-1.2 2.8-1.9 1.2-.9 2.3-2 3.3-3.1.4-.4 1-.6 1.5-.4l4.9 1.9c.7.3 1.4 0 1.7-.7l2-4.1.6-1.2c.3-.6.1-1.4-.5-1.8l-4.2-2.7c-.5-.3-.7-.9-.6-1.4a22.2 22.2 0 0 0 .6-5.1v-.4-.1c.1-.5.4-1 1-1.2l5.7-1.8c.1 0 .1 0 .2-.1.5-.3.9-.9.7-1.5l-1.2-5.8c-.1-.7-.8-1.2-1.5-1.1l-6.5.7c-.5.1-1.1-.2-1.3-.7-.6-1.1-1.3-2.1-2-3.1l-1.3-1.5c-.4-.4-.5-1-.3-1.5l2.3-5.8c.3-.6 0-1.4-.7-1.7l-5.3-2.6c-.6-.3-1.4-.1-1.8.5l-2.6 4c-.3.5-1 .8-1.6.6-2.3-.8-4.8-1.3-7.3-1.3-.6 0-1.1-.4-1.3-1l-1.6-5.1c-.2-.7-.9-1.1-1.6-1l-5.8 1.2c-.7.1-1.2.8-1.1 1.5v.3l.6 5.4c.1.6-.2 1.1-.7 1.4h0c-1.2.6-2.4 1.4-3.6 2.3l-1.7 1.5c-.4.4-.9.5-1.4.3l-5-1.9c-.7-.3-1.5 0-1.8.7l-2.6 5.3c-.1.2-.1.3-.1.5-.1.5.2 1 .6 1.3l3.4 2.1c.4.3.7.7.6 1.2 0 .1 0 .3-.1.4-1 3-1.4 6.2-1.2 9.4 0 .5-.3 1-.7 1.3-.1 0-.1.1-.2.1l-4.6 1.4c-.7.2-1.1.9-.9 1.6v.1l1.1 5.6c.3.9 1 1.4 1.7 1.3zm39.7-17.6c.4.9.6 1.8.8 2.9.4 1.9 0 5-.9 6.8l-.3.6c-6.1 11.3-22 9-24.6-3.7-.3-1.7-.1-4.1.5-5.9.1-.4.3-.8.5-1.2.8-1.6 1.8-3 3-4.1 6.5-6.3 17.4-4.2 21 4.6zm157.1-4.1c-6-12-26.6-3.8-26.6-3.8s-10.1 25.1-14.2 26.4c-4.1 1.4 4.5-23.1 4.5-23.1-8.3.8-27.2 15-27.2 15s6.5 25.6 2.1 25.9c-4.3.3-4.6-23-4.6-23-7.5 4-13 14.7-13 14.7-6.3 16.9 15.8 24 15.8 24s2 8.9-1.5 20.3h0s-.9 2.2-1.5 5.6l2.2-.4c.1-.6.1-1.2.3-1.8.1-.4.2-.9.4-1.5.4-1.4.7-2.5.8-3.2 1.2-4.4 3-10.3 4.6-11.8 0 0-.3-.3-.7-.9.2.3.4.6.7.9 5.3 7.2 24 4.8 33.9.7 9.9-4.2 4.8-6.2-1.7-9.8s-17.9-.1-21.7-1.2c-3.8-1.2.9-4 7.8-4.8 7-.8 11.8 5.3 23.1 4.2s15.6-23.7 15.6-23.7c-7.2 3.9-21.8 2.4-22.8-.1-1.1-2.5 19.3-6.3 22.3-7.7 3.1-1.5 7.4-8.9 1.4-20.9zM26.7 259.7c-2.4-13.2 19-18.9 19-18.9s23.1 14 27.2 12.6-17.4-15.8-17.4-15.8c7.2-4.3 30.8-4.3 30.8-4.3s10.2 24.4 13.8 22c3.7-2.3-10.1-21.1-10.1-21.1 8.3-1.3 19.2 3.9 19.2 3.9 15.1 9.8 1.8 28.7 1.8 28.7s3.7 8.4 13.3 15.4h0s2 1.2 4.6 3.6l-2 1c-.4-.5-.8-.9-1.3-1.3-.3-.2-.7-.6-1.2-1-1.2-.9-2-1.6-2.6-2.1-3.6-2.9-8.5-6.5-10.8-6.6 0 0 .1-.4 0-1.1v1.1c.1 8.9-16.3 18.3-26.7 20.9s-7.6-2.1-4.5-8.8c3-6.8 14.3-10.7 16.6-14 2.3-3.2-3.1-2.7-9.2.8s-6.2 11.3-16 17.2c-9.7 5.9-26.7-9.6-26.7-9.6 8.1-1.2 18.9-11.1 18.2-13.8s-19.3 6.5-22.5 7.2c-3.2.5-11.1-2.9-13.5-16zm352.6 84.5c10.5-8.3-1.7-26.8-1.7-26.8s-26.6-4.8-28.8-8.6 23.5-.3 23.5-.3c-2.5-8-20.2-23.6-20.2-23.6s-23.8 11.5-25 7.3 21.6-9.1 21.6-9.1c-5.4-6.5-17-9.8-17-9.8-17.8-2.7-20.3 20.3-20.3 20.3s-8.3 3.8-20.2 2.7h0s-2.3-.4-5.8-.3l.9 2c.6-.1 1.2-.1 1.8-.1h1.6c1.5.1 2.5.1 3.3.1 4.6.2 10.7.8 12.5 2.2 0 0 .2-.4.7-.8-.2.3-.5.5-.7.8-6 6.6.1 24.5 6.2 33.3s7 3.5 9.2-3.6-3.6-17.5-3.2-21.5 4.1 0 6.3 6.7-2.9 12.6.6 23.4C328 349.3 351 349 351 349c-5.3-6.2-6.8-20.8-4.5-22.4 2.3-1.5 10.1 17.7 12.1 20.3 2.1 2.9 10.2 5.6 20.7-2.7z"/><path d="M283.7 189.2s1.2-24.7 12.8-40.1c1.5-2.1 4.8-1 4.9 1.5v.1c.1 4.4-12.6 23.8-17.7 38.5zm-1.1 7.1s10.4-31.4 30.8-46.4c1.2-.9 3-.7 4 .5.6.8 1 2.1.5 4.1-1.3 5.4-23.9 25.2-35.3 41.8zm-176.6 33S95.6 211.2 81.1 204c-1.9-1-4 1.1-3.1 3v.1c1.5 3.4 18.5 13 28 22.2zm3.5 4.9s-19.8-19.6-40.9-23.1c-1.3-.2-2.6.6-2.8 1.9-.2.8.1 1.9 1.2 3.3 3.1 3.6 27.6 9.8 42.5 17.9z" opacity=".5"/></g><path d="M334.5 190.2v156.6c0 2.7-2 5-4.4 5h-226c-2.4 0-4.4-2.2-4.4-5V190.2c0-2.7 2-5 4.4-5h226c2.5.1 4.4 2.3 4.4 5z" fill="#b5bfc7"/><path d="M323.4 181.3V194H71.2v-12.7c0-2.6 2.1-4.7 4.7-4.7h242.7c2.7-.1 4.8 2.1 4.8 4.7z" class="Bu"/><g fill="#f9f6f4"><circle cx="81.1" cy="185.3" r="2.2"/><circle cx="89.8" cy="185.3" r="2.2"/><circle cx="98.7" cy="185.3" r="2.2"/></g><path d="M234.6 162.9l3-.3c.3 0 .5.1.6.3.2.3.4.5.6.8.4.5.8.9 1.2 1.3.2.2.3.5.2.7l-1.2 3c-.1.3 0 .7.3.8l2.6 1.3c.3.1.6 0 .8-.2l1.6-2.5c.1-.2.4-.4.7-.3 1.2.3 2.4.4 3.7.4.3 0 .6.2.7.5l.5 1.7c.1.3.4.5.8.5l2.8-.6c.1 0 .1 0 .2-.1.2-.1.4-.4.4-.7l-.3-2.3-.1-.5 1.4-.9c.6-.5 1.1-1 1.6-1.5.2-.2.5-.3.7-.2l2.4.9c.3.1.7 0 .8-.3l1-2 .3-.6c.2-.3.1-.7-.2-.9l-2.1-1.3c-.2-.1-.4-.4-.3-.7.2-.8.3-1.6.3-2.5v-.2-.1c0-.3.2-.5.5-.6l2.8-.9h.1c.3-.1.4-.4.4-.7l-.6-2.8c-.1-.3-.4-.6-.7-.5l-3.1.4c-.3 0-.5-.1-.7-.3l-1-1.5c-.2-.3-.4-.5-.6-.7s-.2-.5-.1-.7l1.1-2.8c.1-.3 0-.7-.3-.8l-2.6-1.3c-.3-.2-.7-.1-.9.2l-1.2 1.9c-.2.3-.5.4-.8.3-1.1-.4-2.3-.6-3.6-.6-.3 0-.5-.2-.6-.5l-.8-2.5c-.1-.3-.4-.5-.8-.5l-2.8.6c-.3.1-.6.4-.5.7v.1l.3 2.6c0 .3-.1.5-.4.7h0c-.6.3-1.2.7-1.7 1.1-.3.2-.6.5-.8.7s-.5.2-.7.1l-2.4-.9c-.3-.1-.7 0-.9.3l-1.3 2.6c0 .1-.1.2-.1.2 0 .2.1.5.3.6l1.6 1c.2.1.3.4.3.6v.2c-.5 1.5-.7 3-.6 4.6 0 .3-.1.5-.4.6h-.1l-2.2.7c-.3.1-.5.4-.5.8v.1l.5 2.7c.2.5.5.7.9.7zm19.3-8.6c.2.4.3.9.4 1.4.2.9 0 2.4-.4 3.3 0 .1-.1.2-.1.3-3 5.5-10.7 4.4-12-1.8-.2-.8-.1-2 .2-2.9.1-.2.1-.4.2-.6.4-.8.9-1.4 1.4-2 3.2-3 8.5-2 10.3 2.3z" class="Bx"/><path d="M58.9 304.6s.3-3.7-3.8-3.7c0 0 1.2.3 1.9 1 0 0-2.6-1.5-5.5.8-2.8 2.4-1.1 8.3-1.9 9.4-.9 1.1-4.2 1.3-3.8 5 .4 3.6 10.7 8.2 10 11.2 0 0 4-5.9 1.1-8.6 0 0 1.4 1.3 1.5 2.9 0 0 .4-3.1-1.6-4-1.7-.9-3.1-4-3-4.6.3-.7 5.1-9.4 5.1-9.4z" class="Bt"/><path d="M54.8 322.2s3.1 12.7 6.1 15.2c1.8 1.5 7.2 5 7.2 5l-2.2.8s-7.4-2.5-9.1-4.5-6.2-11.8-6.2-11.8l4.2-4.7z" class="CA"/><path d="M26.1 344.4l.1.1 3.9 7.1 2.4 4.5 3.3 5.9 1.5 2.4c.1.1.1.2.1.3-.1 1.1-.1 2.1 0 3.1 1 10.2 7.9 15.6 7.9 15.6l2 .3S44.4 373 43.6 367c-.1-1-.2-1.9-.2-2.4.2-1.6-.1-3.9-.7-6.5-.9-4.7-2.7-10.5-4.2-15.1-.1-.3-3-10.7-3-10.7-2.4 2.1-11.2 3-11.2 3s-1.2 3.7 1.8 9.1z" class="Bw"/><path d="M51.6 386.4h-8.5s-.2-1.3.2-2.3c.4-.9 1-1 .1-2.5.5.6 2.3.8 3.5.6.2.2 1 1.9 1.5 2.2.6.5 3.1.4 3.2 2zm-25.5-42l.1.1c.7 1.2 4.3 7.9 6 11-2-8.1-.6-16.1-.6-16.1l-5.5 5zm31.6-40.3c.1-.2-4.9 2.2-5.1 2.5-2.3 2.6-1.6 5.9-.3 5.9.8 0 .7 1.4.7 1.4l9.4-4s-1.2-6.6-4.7-5.8z" class="Bt"/><path d="M54.5 320.3s1.4 2.9 1.3 5.2c0 0-1.7 2.7-6.2 3.4 0 0 3.8-8.6 4.9-8.6z" class="Bu"/><path d="M32.7 336v-1.6c-3.2.4-10.9-3.8-10.9-3.8s-3.3 2.2-3.8 8.5c-.2 3.1-1.6 16.1-1.8 19.9-.1 1.4-.1 2.4-.1 2.8 0 .1-.1.2-.1.3-.7.8-1.2 1.7-1.7 2.6-4.8 9-2.3 21.2-2.3 21.2l1.1-.3s4.1-12.7 6.8-18.1c.5-.9.9-1.7 1.2-2.1 1-1.2 2.1-3.3 3.1-5.8 2-4.5 8.5-23.6 8.5-23.6z" class="Bw"/><path d="M18.8 386.4h-8.5s-.2-1.3.2-2.3c.4-.9 1.1-1.4.9-2.5.5.6 1.4 1.2 2.6 1 .2.2 1 1.5 1.5 1.9.6.4 3.1.3 3.3 1.9z" class="Bt"/><path d="M49 330.7c-1.1.2.2 1.1-1.4 1.3-2.2.2-4.5.4-5.7.9-.4.2-.7.4-.8.7-.5 1.6-3.8 4.3-3.8 4.3-14.8-.7-15.7-7.3-15.7-7.3 9.6-9.3 17.8-14.4 24.5-15 1.6-.2 3.9.1 4.9.5 2.4 1.1 3.7 4.2 3.7 4.2s-1.3 9.7-5.7 10.4z" class="Bz"/><path d="M47.6 332c-2.2.2-4.5.4-5.7.9-.5-7.4 3-12.9 3-12.9s2.3 9.2 2.7 12z" class="Bu"/><g class="CA"><path d="M50.8 316.6c.4 1.3 1.8 5.1 3.8 3.6-.1-.3.3-1.1.8-1.9.6-1.1 1.4-2.1 1.4-2.1l-3.2-2.8-.2-.2c-.8 1.5-1.6 2.2-2.4 2.7-.2.2-.3.5-.2.7z"/><path d="M56.7 316.2l-1.4 2.1c-2-1.2-2-3.7-1.8-4.9l3.2 2.8z"/><path d="M56.8 317.6s-4.8-2.7-3.1-5.6c1.7-3 2.2-5.3 5.4-3.7 3.1 1.6 3.1 3.1 2.7 4.2-.3 1-3.7 5.7-5 5.1z"/></g><path d="M62.7 310.7c-.2-1.3-.9-1.4-1.4-1.4-1.8-2.9-4.7-1.8-4.7-1.8-1.5 1.9-3.8 2.3-3.8 2.3s.6 1 2.9 1.7c.7.2 1.5.1 2.3-.2-1.6.9-3.3 1.2-3.3 1.2 3 .3 5.9-2.5 6.2-2.8.1.4.4 1.3.2 2-.2.9-1 2.5-.5 2.7 0 .1 2.4-1.7 2.1-3.7z" class="Bt"/><g class="By"><path d="M74.718 348.731l35.776 17.44-4.557 9.349-35.776-17.44z"/><path d="M58.9 360.1c-3.3-1.6-5.6-4.6-6.4-8.1-.3-1.5.6-2.9 2-3.2 1.5-.3 2.9.6 3.2 2.1.4 2 1.7 3.6 3.5 4.5 3.2 1.6 7.1.2 8.7-3s.2-7.1-3-8.7c-1.5-.7-3.1-.9-4.7-.4-1.4.4-2.9-.4-3.3-1.8s.4-2.9 1.8-3.3c2.9-.8 5.9-.6 8.6.7 5.9 2.9 8.4 10 5.5 15.9-2.9 5.7-10 8.2-15.9 5.3zm50.6 24.7c-5.9-2.9-8.4-10-5.5-15.9s10-8.4 15.9-5.5c2.7 1.3 4.8 3.5 5.8 6.3.5 1.4-.1 2.9-1.5 3.5-1.4.5-2.9-.1-3.5-1.5-.6-1.5-1.7-2.7-3.2-3.5-3.2-1.6-7.1-.2-8.7 3s-.2 7.1 3 8.7c1.8.9 3.9.9 5.7 0 1.3-.6 2.9-.1 3.6 1.3.6 1.3.1 2.9-1.3 3.6-3.2 1.6-7 1.6-10.3 0zm-11.9-17.6L78.7 358c-.5-.3-.8-.9-.5-1.5l.5-1c.3-.5.9-.8 1.5-.5l18.9 9.2c.5.3.8.9.5 1.5l-.5 1c-.3.6-1 .8-1.5.5z"/></g><g class="CA"><path d="M54.1 350.5s.1.9.5 1.4 1.5 1.6 1.5 2.2c0 0-.1.3-.3.2s-1.1-.9-1.5-.8c0 0 .2 1.3.4 1.7s.6 1.8.5 2.1-2.4-1.5-3-2.4c-.7-.9 0-4.6 0-4.6l1.9.2z"/><path d="M49.6 318.7s-5.6-.3-6.6 3.2 1.9 17.6 2.5 19.1c1.1 2.6 6.6 10.2 6.6 10.2l2-.6s-3.7-11.5-4.5-12.7c-1.3-1.8 1.6-17.7 0-19.2z"/></g><path d="M41.8 326.6c0 .1 5.3 1 8.6-.7 0 0 2.8-8.7-1.2-8.3s-6.3 1.7-6.4 3.6c0 1.9-1 5.4-1 5.4z" class="Bu"/><path d="M65.3 336.7c-.3 0-.8.1-.9.2-.3.2-.7.6 0 1 1 .5 3.1.3 3 0-.2-.9-.6-1.2-2.1-1.2z" class="CA"/><path d="M130.8 198.6c-.3.3-.3.7-.2 1 .2.7 1.1 1.5 2 2.2l.3.3.1.1.1.1c.9.8.6 1 2.1 2.7 1.8 1.9 3.1 1.9 3.4 1.8s-.3-1.1-1-2.3c0-.1-.1-.1-.1-.2-.1-.1-.2-.3-.3-.5-.8-1.4-.6-2-.4-4 .2-1.6 2.6-9.2 2.6-9.2l-3.4-.6s-1 6-2.2 6.9c-.6.5-1.3.5-1.9.9l-.1.1c-.4.1-.7.4-1 .7z" class="Bv"/><path d="M130.8 198.6c-.3.3-.3.7-.2 1 .3.7 1.1 1.4 2 2.2l.3.3.1.1.1.1c.9.8.6 1 2.1 2.7 1.8 1.9 3.1 1.9 3.4 1.8s-.3-1.1-1-2.3c-.4-.1-2-.8-3.2-2.4-1.1-1.4-1.8-3.2-2.6-4.2l-.1.1c-.3 0-.6.3-.9.6z" class="Bt"/><path d="M158.9 196.4c.2 1.1 1.7.9 3.5.5 1.7-.4 1.3.1 3.7-.2s3.2-1.2 3.2-1.5c.1-.3-1.1-.4-2.4-.6-.2 0-.3 0-.5-.1-1.5-.2-2.5-1.1-3.9-1.9-1.3-.7-3.1-3.7-3.1-3.7l-3.3.3 2.4 3.8c.4.7.4 1.6.3 2.3 0 .3 0 .7.1 1.1z" class="Bv"/><path d="M162.3 196.9c1.7-.4 1.3.1 3.7-.2s3.2-1.2 3.2-1.5c.1-.3-1.1-.4-2.4-.6h0s-1.5 1-3.5 1.1c-1.7 0-3.4-.4-4.5-.4 0 .4-.1.8 0 1.1.3 1.1 1.8.9 3.5.5zM146.1 175l-3.1 8.4-4.1 11s-1.1.1-2.2-.2c-1-.3-2.1-1-2.1-1s1.1-11.8 3.2-18.5c.5-1.7 1.1-3.1 1.8-3.9 3.3-3.9 6.5 4.2 6.5 4.2z" class="Bt"/><path d="M142.9 161.7c-2-.7-7.9.2-13.7 1.3l-1.2-2-12.7-1s-4.2 9.3-1.9 15.2c.3.9 1 1.4 2.1 1.4h.2 10c6.3 0 13.3-4.3 14.2-4.5 1.5-.3 2.1 2.7 3.6 5.8s14 13.8 14 13.8 1.9 0 2.7-.3c.9-.3 1.2-.7 1.2-.7s-13.9-27.5-18.5-29z" class="Bw"/><path d="M123.7 122.5c-1.8-.5-4.2 0-4.6 0-4.8.5-6.4 5.9-5.7 10 .7 3.8-1.3 4.9-3.5 8-4.5 6.1-1.6 11.2 2 12.6 2.1.8 5.1-1.2 5.1-1.2.1 0 9.4-6.1 13.2-9.6 6.3-2.5-2-18.7-6.5-19.8z" class="Bt"/><path d="M124.4 140.1c.1.4-2 1.3-3.6 1-1.5-.3-3.2-2.1-2.9-2.2.6-.3 1-1 .7-4.7h.3l4.8.6.1 2.9c.2 1.2.4 1.7.6 2.4z" class="Bv"/><path d="M123.8 134.7l.1 2.9c-2.7.1-4.3-2.2-5-3.5l4.9.6z" class="CC"/><path d="M124.8 136s-6.3.6-6.6-3.3-1.4-6.5 2.6-7.1 4.9.9 5.3 2.2.3 8-1.3 8.2z" class="Bv"/><g class="Bt"><path d="M124.1 125s-.8 4.8-4.4 5.9c-2.6.8-3.8.3-3.8.3s1.3-1.7 1.7-4c.1-.7.6-1.2 1.3-1.5 1.8-.5 4.1-2.2 5.2-.7z"/><path d="M122.9 126.1s1.2.3 2.2 1.8c.6.8 1.2 2.9 1.1 3.9 0 0 1.1-4.4-.5-6.1-1.7-1.8-2.8.4-2.8.4z"/></g><path d="M113.1 153l.3 1.3.3 1.7.3 3.5c.1.6.2 1.2.5 1.9s7.1 1.4 11 1.1c1.2-.1 2.2-.3 2.5-.5 1.4-1.2 1.3 1.4 1.4-11.3.1-6.2-5.3-11.7-5.3-11.7s-.4 2.6-5.7-.5c-.2-.1-2.3 3-4.3 6.8-2.3 4.2-1.7 5.1-1 7.7z" class="Bu"/><path d="M142.9 183.5l-4.1 11s-1.1.1-2.2-.2c-1-.3-2.1-1-2.1-1s1.1-11.8 3.2-18.5l5.2 8.7z" class="Bw"/><path d="M124.1 139s5.5.9 6.1 3.3 5.1 15.5 5.1 15.5-3.4 1.2-4.7-.1-4.5-11.9-4.5-11.9l-2-6.8z" class="Bu"/><path d="M123.3 133.7s.3.6 1 .6.9-.1 1-.3c.1-.1.3-.4.3-.4s-1.2-.2-2.3.1z" fill="#fff"/><path d="M113.6 156l.3 3.5c5 0 11.6-3.8 11.6-3.8l-11.9.3zm11.9-3.6s-7.7-.2-9-4.6c-1.4-4.8-3 2-3 2l.9 4.3h8.5l2.6-1.7z" class="Bz"/><path d="M138.9 140.5l-.4-1c-.4-1.1-1.5-1.8-2.7-1.8h-7.7v4.9 20.9H160v-20.9h-18c-1.4-.1-2.6-.9-3.1-2.1z" class="By"/><path d="M132.9 153.3v-1.9l6.5-2.9v1.9l-4.5 1.9 4.5 1.9v1.9l-6.5-2.8zm13.3-6.9h1.7l-6 12.4h-1.7l6-12.4zm9 5v1.9l-6.5 2.9v-1.9l4.5-1.9-4.5-1.9v-1.9l6.5 2.8z" fill="#fff"/><path d="M125.5 153.4l.6-.9s.4-.1 1.1-.6.6-1.3 1-1.2v1.7h0c1.6.4 3.4 0 3.5.4.1 1.1-.7 1.6-1.4 1.9-.5.3-1.1.6-2.1.3-.7-.2-1.8-.4-1.8-.4l-.9-1.2z" class="Bv"/><path d="M118.3 138.5s-5 .3-6.3 2.3-2.8 11.9-2.2 15.3c.7 3.4 16.7-.7 16.7-.7l-.5-3s-9.3.1-9.8-1.2c-.6-1.5 2.1-12.7 2.1-12.7z" class="Bu"/><path d="M142.5 142.5c0 .1.8 1.4 1.9 1.2.7-.1 1.6-1.7.8-2-1.3-.5-2.5.5-2.7.8z" class="Bv"/><path d="M191.396 211.379l18.601-34.847.176.094-18.601 34.847zm65.836-34.827l.147-.136 20.938 22.589-.147.136z" class="Bt"/><path d="M291.2 205.7c.3 2.3-.3 4.4-1.6 6.1s-3.1 2.9-5.3 3.2l-93.6 12.9c-4.8.7-9.2-2.5-9.8-7-.3-2.3.4-4.5 1.8-6.2s3.4-2.9 5.8-3.3l93.6-12.9c4.4-.5 8.5 2.7 9.1 7.2z" class="Bx"/><path d="M291.2 205.7c.3 2.3-.3 4.4-1.6 6.1s-3.1 2.9-5.3 3.2l-16.9 2.3-2.3-16.4 16.9-2.3c4.5-.6 8.6 2.6 9.2 7.1z" class="CB"/><g fill="#fff"><path d="M280.9 210.2h-.6c-1.1 0-2.2-.5-3-1.3-1.6-1.7-1.6-4.4.1-6h0c1.7-1.6 4.4-1.6 6 .1s1.6 4.4-.1 6a5.45 5.45 0 0 1-2.4 1.2zm-3-6.8c-1.4 1.4-1.4 3.6-.1 5 .7.7 1.5 1.1 2.5 1.1.9 0 1.8-.3 2.5-1 1.4-1.4 1.4-3.6.1-5-1.4-1.4-3.6-1.4-5-.1h0z"/><path d="M277.376 208.448l.489.501-4.148 4.054-.489-.501z"/><path d="M272 214.1h0c-.2-.2-.2-.6 0-.9l2.4-2.4c.2-.2.6-.2.9 0h0c.2.2.2.6 0 .9l-2.4 2.4c-.3.3-.7.3-.9 0z"/></g><path d="M134 295.1h-19.2c-.5 0-.9-.4-.9-.9h0c0-.5.4-.9.9-.9H134c.5 0 .9.4.9.9h0c0 .5-.4.9-.9.9z" class="By"/><path d="M124.1 301.2h-9.6a.65.65 0 0 1-.6-.6h0a.65.65 0 0 1 .6-.6h9.6a.65.65 0 0 1 .6.6h0a.65.65 0 0 1-.6.6zm7.3-2.6h-17a.65.65 0 0 1-.6-.6h0a.65.65 0 0 1 .6-.6h17a.65.65 0 0 1 .6.6h0c0 .4-.2.6-.6.6zm18.7 0h-15.8a.65.65 0 0 1-.6-.6h0a.65.65 0 0 1 .6-.6h15.8a.65.65 0 0 1 .6.6h0c0 .4-.3.6-.6.6zm-14 2.6h-9.6a.65.65 0 0 1-.6-.6h0a.65.65 0 0 1 .6-.6h9.6a.65.65 0 0 1 .6.6h0c0 .3-.2.6-.6.6z" class="Bt"/><path d="M157.8 295.1h-19.2c-.5 0-.9-.4-.9-.9h0c0-.5.4-.9.9-.9h19.2c.5 0 .9.4.9.9h0c0 .5-.4.9-.9.9zM134 308.5h-19.2c-.5 0-.9-.4-.9-.9h0c0-.5.4-.9.9-.9H134c.5 0 .9.4.9.9h0c0 .5-.4.9-.9.9z" class="By"/><path d="M124.1 314.6h-9.6a.65.65 0 0 1-.6-.6h0a.65.65 0 0 1 .6-.6h9.6a.65.65 0 0 1 .6.6h0a.65.65 0 0 1-.6.6zm7.3-2.5h-17a.65.65 0 0 1-.6-.6h0a.65.65 0 0 1 .6-.6h17a.65.65 0 0 1 .6.6h0c0 .3-.2.6-.6.6zm18.7 0h-15.8a.65.65 0 0 1-.6-.6h0a.65.65 0 0 1 .6-.6h15.8a.65.65 0 0 1 .6.6h0a.65.65 0 0 1-.6.6zm-14 2.5h-9.6a.65.65 0 0 1-.6-.6h0a.65.65 0 0 1 .6-.6h9.6a.65.65 0 0 1 .6.6h0c0 .3-.2.6-.6.6z" class="Bt"/><path d="M157.8 308.5h-19.2c-.5 0-.9-.4-.9-.9h0c0-.5.4-.9.9-.9h19.2c.5 0 .9.4.9.9h0c0 .5-.4.9-.9.9z" class="By"/><g class="Bw"><path d="M235.7 226.9l-11.1 2.6-5.6 10-4.2-22.9z"/><path d="M222.355 228.489l1.594-1.208 7.127 9.405-1.594 1.208z"/></g><path d="M222.3 274.2H207c-4.5 0-8.1-3.6-8.1-8.1v-15.3c0-4.5 3.6-8.1 8.1-8.1h15.3c4.5 0 8.1 3.6 8.1 8.1v15.3c0 4.5-3.6 8.1-8.1 8.1z" class="Bx"/><g class="CB"><path d="M203 267.6l6.1-11c.7-1.3 2.5-1.4 3.4-.2l3.5 4.8c.8 1 2.2 1.1 3.1.2h0c.9-1 2.5-.8 3.2.3l3.8 5.9c.9 1.3-.1 3.1-1.7 3.1h-19.7c-1.5-.1-2.5-1.8-1.7-3.1z"/><circle cx="217.5" cy="251.4" r="2.4"/></g><path d="M268.7 275l-27.2 3.7c-1.1.2-2.1-.6-2.3-1.7l-3.7-27.2c-.2-1.1.6-2.1 1.7-2.3l27.2-3.7c1.1-.2 2.1.6 2.3 1.7l3.7 27.2c.2 1.2-.6 2.2-1.7 2.3z" class="Bx"/><g class="CB"><path d="M242.6 272l4.6-11.8c.5-1.4 2.3-1.7 3.3-.7l4.1 4.3c.9.9 2.4.8 3.1-.3h0c.7-1.1 2.3-1.2 3.2-.2l4.6 5.3c1 1.2.3 3.1-1.3 3.3l-19.5 2.7c-1.5.3-2.7-1.2-2.1-2.6z"/><circle transform="matrix(.9908 -.1352 .1352 .9908 -31.9899 36.7628)" cx="254.7" cy="254" r="2.4"/></g><path d="M172.8 372.3h15.9v13.6h-15.9z" class="Bu"/><path d="M172.2 371.7h17v1.1h-17zm.6 4.2h15.9v4.3h-15.9z" class="Bw"/><path d="M208 385.9h-15c-.5 0-1-.4-1-1v-1.7c0-.6.5-1.1 1.1-1l15 1.7c.5.1.9.5.9 1h0c0 .5-.4 1-1 1z" class="By"/><path d="M407.5 387.2l-417-.1a.47.47 0 0 1-.5-.5v-.3a.47.47 0 0 1 .5-.5l417 .1a.47.47 0 0 1 .5.5v.3a.47.47 0 0 1-.5.5z" fill="#9d462d"/><g class="Bt"><path d="M181.8 275.4h-1.7c-.2 0-.3-.1-.3-.3s.1-.3.3-.3h1.7c.2 0 .3.1.3.3s-.1.3-.3.3zm-3.4 0h-1.7c-.2 0-.3-.1-.3-.3s.1-.3.3-.3h1.7c.2 0 .3.1.3.3s-.1.3-.3.3zm-3.4 0h-1.7c-.2 0-.3-.1-.3-.3s.1-.3.3-.3h1.7c.2 0 .3.1.3.3s-.2.3-.3.3zm-3.5 0h-1.7c-.2 0-.3-.1-.3-.3s.1-.3.3-.3h1.7c.2 0 .3.1.3.3s-.1.3-.3.3zm-3.4 0h-1.7c-.2 0-.3-.1-.3-.3s.1-.3.3-.3h1.7c.2 0 .3.1.3.3s-.1.3-.3.3zm-3.4 0H163c-.2 0-.3-.1-.3-.3s.1-.3.3-.3h1.7c.2 0 .3.1.3.3s-.2.3-.3.3zm-3.4 0h-1.7c-.2 0-.3-.1-.3-.3s.1-.3.3-.3h1.7c.2 0 .3.1.3.3-.1.2-.2.3-.3.3zm-3.5 0h-1.7c-.2 0-.3-.1-.3-.3s.1-.3.3-.3h1.7c.2 0 .3.1.3.3s-.1.3-.3.3zm-3.4 0h-1.7c-.2 0-.3-.1-.3-.3s.1-.3.3-.3h1.7c.2 0 .3.1.3.3s-.1.3-.3.3zm-3.4 0h-1.7c-.2 0-.3-.1-.3-.3s.1-.3.3-.3h1.7c.2 0 .3.1.3.3s-.2.3-.3.3zm-3.5 0h-1.7c-.2 0-.3-.1-.3-.3s.1-.3.3-.3h1.7c.2 0 .3.1.3.3s-.1.3-.3.3zm-3.4 0h-1.7c-.2 0-.3-.1-.3-.3s.1-.3.3-.3h1.7c.2 0 .3.1.3.3s-.1.3-.3.3zm-3.4 0H139c-.2 0-.3-.1-.3-.3s.1-.3.3-.3h1.7c.2 0 .3.1.3.3s-.2.3-.3.3zm-3.4 0h-1.7c-.2 0-.3-.1-.3-.3s.1-.3.3-.3h1.7c.2 0 .3.1.3.3-.1.2-.2.3-.3.3zm-3.5 0h-1.7c-.2 0-.3-.1-.3-.3s.1-.3.3-.3h1.7c.2 0 .3.1.3.3s-.1.3-.3.3zm-3.4 0h-1.7c-.2 0-.3-.1-.3-.3s.1-.3.3-.3h1.7c.2 0 .3.1.3.3s-.1.3-.3.3zm-3.4 0h-1.7c-.2 0-.3-.1-.3-.3s.1-.3.3-.3h1.7c.2 0 .3.1.3.3s-.2.3-.3.3zm-3.5 0H122h-.2c-.2 0-.3-.1-.3-.3s.1-.3.3-.3h.2 1.5c.2 0 .3.1.3.3s-.1.3-.3.3zm60-.5c-.1 0-.2 0-.2-.1-.1-.1-.1-.3.1-.4.4-.3.8-.7 1-1.2.1-.1.2-.2.4-.2.1.1.2.2.2.4-.2.6-.6 1.1-1.2 1.4-.2.1-.3.1-.3.1zm-63.2-.1c-.1 0-.1 0-.2-.1-.5-.4-.9-.9-1.1-1.5 0-.1 0-.3.2-.4.1 0 .3 0 .4.2a2.73 2.73 0 0 0 .9 1.2c.1.1.1.3.1.4-.2.2-.3.2-.3.2zm64.4-2.9c-.2 0-.3-.1-.3-.3v-1.7c0-.2.1-.3.3-.3s.3.1.3.3v1.7c0 .2-.1.3-.3.3zm-65.6-.1c-.2 0-.3-.1-.3-.3v-1.7c0-.2.1-.3.3-.3s.3.1.3.3v1.7c0 .1-.1.3-.3.3zm65.6-3.3c-.2 0-.3-.1-.3-.3v-1.7c0-.2.1-.3.3-.3s.3.1.3.3v1.7c0 .2-.1.3-.3.3zm-65.6-.2c-.2 0-.3-.1-.3-.3v-1.7c0-.2.1-.3.3-.3s.3.1.3.3v1.7c0 .2-.1.3-.3.3zm65.6-3.2c-.2 0-.3-.1-.3-.3v-1.7c0-.2.1-.3.3-.3s.3.1.3.3v1.7c0 .1-.1.3-.3.3zm-65.6-.2c-.2 0-.3-.1-.3-.3v-1.7c0-.2.1-.3.3-.3s.3.1.3.3v1.7c0 .2-.1.3-.3.3zm65.6-3.3c-.2 0-.3-.1-.3-.3v-1.7c0-.2.1-.3.3-.3s.3.1.3.3v1.7c0 .2-.1.3-.3.3zm-65.6-.1c-.2 0-.3-.1-.3-.3v-1.7c0-.2.1-.3.3-.3s.3.1.3.3v1.7c0 .1-.1.3-.3.3zm65.6-3.3c-.2 0-.3-.1-.3-.3v-1.7c0-.2.1-.3.3-.3s.3.1.3.3v1.7c0 .2-.1.3-.3.3zm-65.6-.2c-.2 0-.3-.1-.3-.3V256c0-.2.1-.3.3-.3s.3.1.3.3v1.7c0 .2-.1.3-.3.3zm65.6-3.2c-.2 0-.3-.1-.3-.3v-1.7c0-.2.1-.3.3-.3s.3.1.3.3v1.7c0 .2-.1.3-.3.3zm-65.6-.2c-.2 0-.3-.1-.3-.3v-1.7c0-.2.1-.3.3-.3s.3.1.3.3v1.7c0 .2-.1.3-.3.3zm65.6-3.2c-.2 0-.3-.1-.3-.3v-1.7c0-.2.1-.3.3-.3s.3.1.3.3v1.7c0 .1-.1.3-.3.3zm-65.6-.2c-.2 0-.3-.1-.3-.3v-1.7c0-.2.1-.3.3-.3s.3.1.3.3v1.7c0 .2-.1.3-.3.3zm65.6-3.3c-.2 0-.3-.1-.3-.3v-1.7c0-.2.1-.3.3-.3s.3.1.3.3v1.7c0 .2-.1.3-.3.3zm-65.6-.1c-.2 0-.3-.1-.3-.3v-1.7c0-.2.1-.3.3-.3s.3.1.3.3v1.7c0 .1-.1.3-.3.3zm65.6-3.3c-.2 0-.3-.1-.3-.3v-1.7c0-.2.1-.3.3-.3s.3.1.3.3v1.7c0 .2-.1.3-.3.3zm-65.6-.2c-.2 0-.3-.1-.3-.3v-1.7c0-.2.1-.3.3-.3s.3.1.3.3v1.7c0 .2-.1.3-.3.3zm65.6-3.2c-.2 0-.3-.1-.3-.3v-.8c0-.3 0-.6-.1-.8 0-.1 0-.3.2-.4.1-.1.3 0 .4.2.1.3.2.7.2 1v.8c-.1.1-.2.3-.4.3zm-65.6-.2c-.2 0-.3-.1-.3-.3v-.6c0-.4.1-.8.2-1.2.1-.1.2-.2.4-.2.1.1.2.2.2.4-.1.3-.2.6-.2 1v.6c0 .2-.1.3-.3.3zm64.5-2.9c-.1 0-.1 0-.2-.1-.4-.3-.9-.5-1.4-.5-.2 0-.3-.1-.3-.3s.1-.3.3-.3c.6 0 1.2.3 1.7.7.1.1.1.3.1.4s-.1.1-.2.1zm-63.2-.1c-.1 0-.2 0-.2-.1-.1-.1-.1-.3.1-.4.5-.4 1.1-.5 1.8-.5h0c.2 0 .3.1.3.3s-.1.3-.3.3c-.5 0-1 .2-1.5.4h-.2zm59.9-.5h-1.7c-.2 0-.3-.1-.3-.3s.1-.3.3-.3h1.7c.2 0 .3.1.3.3s-.1.3-.3.3zm-3.4 0h-1.7c-.2 0-.3-.1-.3-.3s.1-.3.3-.3h1.7c.2 0 .3.1.3.3s-.2.3-.3.3zm-3.5 0h-1.7c-.2 0-.3-.1-.3-.3s.1-.3.3-.3h1.7c.2 0 .3.1.3.3s-.1.3-.3.3zm-3.4 0h-1.7c-.2 0-.3-.1-.3-.3s.1-.3.3-.3h1.7c.2 0 .3.1.3.3s-.1.3-.3.3zm-3.4 0h-1.7c-.2 0-.3-.1-.3-.3s.1-.3.3-.3h1.7c.2 0 .3.1.3.3s-.2.3-.3.3zm-3.4 0h-1.7c-.2 0-.3-.1-.3-.3s.1-.3.3-.3h1.7c.2 0 .3.1.3.3s-.2.3-.3.3zm-3.5 0H158c-.2 0-.3-.1-.3-.3s.1-.3.3-.3h1.7c.2 0 .3.1.3.3s-.1.3-.3.3zm-3.4 0h-1.7c-.2 0-.3-.1-.3-.3s.1-.3.3-.3h1.7c.2 0 .3.1.3.3s-.1.3-.3.3zm-3.4 0h-1.7c-.2 0-.3-.1-.3-.3s.1-.3.3-.3h1.7c.2 0 .3.1.3.3s-.2.3-.3.3zm-3.5 0h-1.7c-.2 0-.3-.1-.3-.3s.1-.3.3-.3h1.7c.2 0 .3.1.3.3s-.1.3-.3.3zm-3.4 0h-1.7c-.2 0-.3-.1-.3-.3s.1-.3.3-.3h1.7c.2 0 .3.1.3.3s-.1.3-.3.3zm-3.4 0h-1.7c-.2 0-.3-.1-.3-.3s.1-.3.3-.3h1.7c.2 0 .3.1.3.3s-.2.3-.3.3zm-3.4 0h-1.7c-.2 0-.3-.1-.3-.3s.1-.3.3-.3h1.7c.2 0 .3.1.3.3s-.2.3-.3.3zm-3.5 0H134c-.2 0-.3-.1-.3-.3s.1-.3.3-.3h1.7c.2 0 .3.1.3.3s-.1.3-.3.3zm-3.4 0h-1.7c-.2 0-.3-.1-.3-.3s.1-.3.3-.3h1.7c.2 0 .3.1.3.3s-.1.3-.3.3zm-3.4 0h-1.7c-.2 0-.3-.1-.3-.3s.1-.3.3-.3h1.7c.2 0 .3.1.3.3s-.2.3-.3.3zm-3.5 0h-1.7c-.2 0-.3-.1-.3-.3s.1-.3.3-.3h1.7c.2 0 .3.1.3.3s-.1.3-.3.3zM279.3 323h-1.5c-.1 0-.3-.1-.3-.3s.1-.3.3-.3h1.5c.1 0 .3.1.3.3s-.2.3-.3.3zm-3.1 0h-1.5c-.1 0-.3-.1-.3-.3s.1-.3.3-.3h1.5c.1 0 .3.1.3.3s-.1.3-.3.3zm-3 0h-1.5c-.1 0-.3-.1-.3-.3s.1-.3.3-.3h1.5c.1 0 .3.1.3.3s-.2.3-.3.3zm-3 0h-1.5c-.1 0-.3-.1-.3-.3s.1-.3.3-.3h1.5c.1 0 .3.1.3.3s-.2.3-.3.3zm-3.1 0h-1.5c-.1 0-.3-.1-.3-.3s.1-.3.3-.3h1.5c.1 0 .3.1.3.3s-.1.3-.3.3zm-3 0h-1.5c-.1 0-.3-.1-.3-.3s.1-.3.3-.3h1.5c.1 0 .3.1.3.3s-.2.3-.3.3zm-3 0h-1.5c-.1 0-.3-.1-.3-.3s.1-.3.3-.3h1.5c.1 0 .3.1.3.3s-.2.3-.3.3zm-3.1 0h-1.5c-.1 0-.3-.1-.3-.3s.1-.3.3-.3h1.5c.1 0 .3.1.3.3s-.1.3-.3.3zm-3 0h-1.5c-.1 0-.3-.1-.3-.3s.1-.3.3-.3h1.5c.1 0 .3.1.3.3s-.2.3-.3.3zm-3.1 0h-1.5-.1c-.1 0-.2-.1-.2-.3 0-.1.1-.2.3-.2h1.5c.1 0 .3.1.3.3s-.1.2-.3.2zm28.4-1c-.1 0-.3-.1-.3-.3h0v-1.5c0-.1.1-.3.3-.3.1 0 .3.1.3.3v1.5c-.1.2-.2.3-.3.3zm-30.8 0c-.1 0-.3-.1-.3-.3v-1.5c0-.1.1-.3.3-.3.1 0 .3.1.3.3v1.5c-.1.2-.2.3-.3.3zm30.8-3c-.1 0-.3-.1-.3-.3v-1.5c0-.1.1-.3.3-.3.1 0 .3.1.3.3v1.5c-.1.2-.2.3-.3.3zm-30.8 0c-.1 0-.3-.1-.3-.3v-1.5c0-.1.1-.3.3-.3.1 0 .3.1.3.3v1.5c-.1.2-.2.3-.3.3zm30.8-3c-.1 0-.3-.1-.3-.3v-1.5c0-.1.1-.3.3-.3.1 0 .3.1.3.3v1.5c-.1.2-.2.3-.3.3zm-30.8-.1c-.1 0-.3-.1-.3-.3v-1.5c0-.1.1-.2.3-.2.1 0 .2.1.2.3h0v1.5c0 .1-.1.2-.2.2zm29.8-2.4h0-1.5c-.1 0-.3-.1-.3-.3s.1-.3.3-.3h1.5.1c.1 0 .2.1.2.3 0 .1-.1.3-.3.3zm-3 0h-1.5c-.1 0-.3-.1-.3-.3s.1-.3.3-.3h1.5c.1 0 .3.1.3.3s-.2.3-.3.3zm-3 0h-1.5c-.1 0-.3-.1-.3-.3s.1-.3.3-.3h1.5c.1 0 .3.1.3.3s-.2.3-.3.3zm-3.1 0h-1.5c-.1 0-.3-.1-.3-.3s.1-.3.3-.3h1.5c.1 0 .3.1.3.3s-.1.3-.3.3zm-3 0h-1.5c-.1 0-.3-.1-.3-.3s.1-.3.3-.3h1.5c.1 0 .3.1.3.3s-.2.3-.3.3zm-3.1 0h-1.5c-.1 0-.3-.1-.3-.3s.1-.3.3-.3h1.5c.1 0 .3.1.3.3s-.1.3-.3.3zm-3 0h-1.5c-.1 0-.3-.1-.3-.3s.1-.3.3-.3h1.5c.1 0 .3.1.3.3s-.2.3-.3.3zm-3 0h-1.5c-.1 0-.3-.1-.3-.3s.1-.3.3-.3h1.5c.1 0 .3.1.3.3s-.2.3-.3.3zm-3.1 0h-1.5c-.1 0-.3-.1-.3-.3s.1-.3.3-.3h1.5c.1 0 .3.1.3.3s-.1.3-.3.3zm-3 0h-1.5c-.1 0-.3-.1-.3-.3s.1-.3.2-.3h1.5c.1 0 .3.1.3.3s-.1.3-.2.3zm-81.2-81.1h-1.7c-.2 0-.3-.1-.3-.3s.1-.3.3-.3h1.7c.2 0 .3.1.3.3 0 .1-.1.3-.3.3zm-3.3 0h-1.7c-.2 0-.3-.1-.3-.3s.1-.3.3-.3h1.7c.2 0 .3.1.3.3-.1.1-.2.3-.3.3zm-3.4 0h-1.7c-.2 0-.3-.1-.3-.3s.1-.3.3-.3h1.7c.2 0 .3.1.3.3 0 .1-.2.3-.3.3zm-3.4 0H159c-.2 0-.3-.1-.3-.3s.1-.3.3-.3h1.7c.2 0 .3.1.3.3 0 .1-.1.3-.3.3zm-3.3 0h-1.7c-.2 0-.3-.1-.3-.3s.1-.3.3-.3h1.7c.2 0 .3.1.3.3 0 .1-.2.3-.3.3zm-3.4 0h-1.7c-.2 0-.3-.1-.3-.3s.1-.3.3-.3h1.7c.2 0 .3.1.3.3 0 .1-.1.3-.3.3zm-3.4 0H149c-.2 0-.3-.1-.3-.3s.1-.3.3-.3h1.7c.2 0 .3.1.3.3-.1.1-.2.3-.4.3zm-3.3-.2h-.1c-.5-.3-.9-.9-.9-1.5v-.2c0-.2.1-.3.3-.3s.3.1.3.3v.2a1.1 1.1 0 0 0 .6 1c.1.1.2.3.1.4-.1 0-.2.1-.3.1zm24.8-.7c-.2-.1-.3-.2-.3-.4 0-.1.1-.3.1-.4v-1.2c0-.2.1-.3.3-.3s.3.1.3.3v1.2c0 .2 0 .4-.1.6-.1.1-.2.2-.3.2zm-25.5-2.4c-.2 0-.3-.1-.3-.3v-1.7c0-.2.1-.3.3-.3s.3.1.3.3v1.7c0 .2-.1.3-.3.3zm25.6-1c-.2 0-.3-.1-.3-.3v-1.7c0-.2.1-.3.3-.3s.3.1.3.3v1.7c0 .2-.1.3-.3.3zm-25.6-2.4c-.2 0-.3-.1-.3-.3v-1.7c0-.2.1-.3.3-.3s.3.1.3.3v1.7c0 .2-.1.3-.3.3zm25.6-.9c-.2 0-.3-.1-.3-.3v-1.7c0-.2.1-.3.3-.3s.3.1.3.3v1.7c0 .1-.1.3-.3.3zm-25.6-2.4c-.2 0-.3-.1-.3-.3v-1.7c0-.2.1-.3.3-.3s.3.1.3.3v1.7c0 .1-.1.3-.3.3zm25.6-1c-.2 0-.3-.1-.3-.3v-1.7c0-.2.1-.3.3-.3s.3.1.3.3v1.7c0 .2-.1.3-.3.3zm-25.6-2.4c-.2 0-.3-.1-.3-.3V217c0-.2.1-.3.3-.3s.3.1.3.3v1.7c0 .2-.1.3-.3.3zm25.6-1c-.2 0-.3-.1-.3-.3V216c0-.2.1-.3.3-.3s.3.1.3.3v1.7c0 .2-.1.3-.3.3zm-25.6-2.4c-.2 0-.3-.1-.3-.3v-1.7c0-.2.1-.3.3-.3s.3.1.3.3v1.7c0 .2-.1.3-.3.3zm25.6-.9c-.2 0-.3-.1-.3-.3v-1.7c0-.2.1-.3.3-.3s.3.1.3.3v1.7c0 .1-.1.3-.3.3zm-25.6-2.4c-.2 0-.3-.1-.3-.3v-1.2c0-.2 0-.4.1-.6.1-.1.2-.2.4-.2.1.1.2.2.2.4 0 .1-.1.3-.1.4v1.2c0 .2-.1.3-.3.3zm25.6-1c-.2 0-.3-.1-.3-.3v-.2a1.1 1.1 0 0 0-.6-1c-.1-.1-.2-.2-.1-.4.1-.1.2-.2.4-.1.5.3.9.9.9 1.5v.2c0 .2-.1.3-.3.3zm-2.4-1.6h-1.7c-.2 0-.3-.1-.3-.3s.1-.3.3-.3h1.7c.2 0 .3.1.3.3s-.1.3-.3.3zm-3.3 0h-1.7c-.2 0-.3-.1-.3-.3s.1-.3.3-.3h1.7c.2 0 .3.1.3.3s-.2.3-.3.3zm-3.4 0h-1.7c-.2 0-.3-.1-.3-.3s.1-.3.3-.3h1.7c.2 0 .3.1.3.3s-.1.3-.3.3zm-3.3 0h-1.7c-.2 0-.3-.1-.3-.3s.1-.3.3-.3h1.7c.2 0 .3.1.3.3s-.2.3-.3.3zm-3.4 0h-1.7c-.2 0-.3-.1-.3-.3s.1-.3.3-.3h1.7c.2 0 .3.1.3.3s-.1.3-.3.3zm-3.4 0h-1.7c-.2 0-.3-.1-.3-.3s.1-.3.3-.3h1.7c.2 0 .3.1.3.3s-.1.3-.3.3zm-3.3 0H148c-.2 0-.3-.1-.3-.3s.1-.3.3-.3h1.7c.2 0 .3.1.3.3s-.2.3-.3.3z"/><path d="M279.3 337h-1.5c-.1 0-.3-.1-.3-.3 0-.1.1-.3.3-.3h1.5c.1 0 .3.1.3.3-.1.2-.2.3-.3.3zm-3.1 0h-1.5c-.1 0-.3-.1-.3-.3 0-.1.1-.3.3-.3h1.5c.1 0 .3.1.3.3s-.1.3-.3.3zm-3 0h-1.5c-.1 0-.3-.1-.3-.3 0-.1.1-.3.3-.3h1.5c.1 0 .3.1.3.3s-.2.3-.3.3zm-3 0h-1.5c-.1 0-.3-.1-.3-.3 0-.1.1-.3.3-.3h1.5c.1 0 .3.1.3.3-.1.2-.2.3-.3.3zm-3.1 0h-1.5c-.1 0-.3-.1-.3-.3 0-.1.1-.3.3-.3h1.5c.1 0 .3.1.3.3s-.1.3-.3.3zm-3 0h-1.5c-.1 0-.3-.1-.3-.3 0-.1.1-.3.3-.3h1.5c.1 0 .3.1.3.3-.1.2-.2.3-.3.3zm-3 0h-1.5c-.1 0-.3-.1-.3-.3 0-.1.1-.3.3-.3h1.5c.1 0 .3.1.3.3-.1.2-.2.3-.3.3zm-3.1 0h-1.5c-.1 0-.3-.1-.3-.3 0-.1.1-.3.3-.3h1.5c.1 0 .3.1.3.3s-.1.3-.3.3zm-3 0h-1.5c-.1 0-.3-.1-.3-.3 0-.1.1-.3.3-.3h1.5c.1 0 .3.1.3.3-.1.2-.2.3-.3.3zm-3.1 0h-1.5-.1c-.1 0-.2-.1-.2-.3 0-.1.1-.2.3-.2h1.5c.1 0 .3.1.3.3 0 .1-.1.2-.3.2zm28.4-.9c-.1 0-.3-.1-.3-.3h0v-1.5c0-.1.1-.3.3-.3.1 0 .3.1.3.3v1.5c-.1.1-.2.3-.3.3zm-30.8-.1c-.1 0-.3-.1-.3-.3v-1.5c0-.1.1-.3.3-.3.1 0 .3.1.3.3v1.5c-.1.2-.2.3-.3.3zm30.8-3c-.1 0-.3-.1-.3-.3v-1.5c0-.1.1-.3.3-.3.1 0 .3.1.3.3v1.5c-.1.2-.2.3-.3.3zm-30.8 0c-.1 0-.3-.1-.3-.3v-1.5c0-.1.1-.3.3-.3.1 0 .3.1.3.3v1.5c-.1.2-.2.3-.3.3zm30.8-3c-.1 0-.3-.1-.3-.3v-1.5c0-.1.1-.3.3-.3.1 0 .3.1.3.3v1.5c-.1.2-.2.3-.3.3zm-30.8-.1c-.1 0-.3-.1-.3-.3v-1.5c0-.1.1-.2.3-.2.1 0 .2.1.2.3h0v1.5c0 .1-.1.2-.2.2zm29.8-2.4h0-1.5c-.1 0-.3-.1-.3-.3 0-.1.1-.3.3-.3h1.5.1c.1 0 .2.1.2.3s-.1.3-.3.3zm-3 0h-1.5c-.1 0-.3-.1-.3-.3 0-.1.1-.3.3-.3h1.5c.1 0 .3.1.3.3-.1.2-.2.3-.3.3zm-3 0h-1.5c-.1 0-.3-.1-.3-.3 0-.1.1-.3.3-.3h1.5c.1 0 .3.1.3.3-.1.2-.2.3-.3.3zm-3.1 0h-1.5c-.1 0-.3-.1-.3-.3 0-.1.1-.3.3-.3h1.5c.1 0 .3.1.3.3s-.1.3-.3.3zm-3 0h-1.5c-.1 0-.3-.1-.3-.3 0-.1.1-.3.3-.3h1.5c.1 0 .3.1.3.3-.1.2-.2.3-.3.3zm-3.1 0h-1.5c-.1 0-.3-.1-.3-.3 0-.1.1-.3.3-.3h1.5c.1 0 .3.1.3.3s-.1.3-.3.3zm-3 0h-1.5c-.1 0-.3-.1-.3-.3 0-.1.1-.3.3-.3h1.5c.1 0 .3.1.3.3s-.2.3-.3.3zm-3 0h-1.5c-.1 0-.3-.1-.3-.3 0-.1.1-.3.3-.3h1.5c.1 0 .3.1.3.3-.1.2-.2.3-.3.3zm-3.1 0h-1.5c-.1 0-.3-.1-.3-.3 0-.1.1-.3.3-.3h1.5c.1 0 .3.1.3.3s-.1.3-.3.3zm-3 0h-1.5c-.1 0-.3-.1-.3-.3 0-.1.1-.3.2-.3h1.5c.1 0 .3.1.3.3s-.1.3-.2.3zm-92.6-1h-1.5c-.1 0-.3-.1-.3-.3 0-.1.1-.3.3-.3h1.5c.1 0 .3.1.3.3 0 .1-.1.3-.3.3zm-3 0h-1.5c-.1 0-.3-.1-.3-.3 0-.1.1-.3.3-.3h1.5c.1 0 .3.1.3.3 0 .1-.1.3-.3.3zm-3 0h-1.5c-.1 0-.3-.1-.3-.3 0-.1.1-.3.3-.3h1.5c.1 0 .3.1.3.3 0 .1-.1.3-.3.3zm-3 0h-1.5c-.1 0-.3-.1-.3-.3 0-.1.1-.3.3-.3h1.5c.1 0 .3.1.3.3 0 .1-.2.3-.3.3zm-3 0h-1.5c-.1 0-.3-.1-.3-.3 0-.1.1-.3.3-.3h1.5c.1 0 .3.1.3.3-.1.1-.2.3-.3.3zm-3 0h-1.5c-.1 0-.3-.1-.3-.3 0-.1.1-.3.3-.3h1.5c.1 0 .3.1.3.3-.1.1-.2.3-.3.3zm-3 0h-1.5c-.1 0-.3-.1-.3-.3 0-.1.1-.3.3-.3h1.5c.1 0 .3.1.3.3-.1.1-.2.3-.3.3zm-3 0h-1.5c-.1 0-.3-.1-.3-.3 0-.1.1-.3.3-.3h1.5c.1 0 .3.1.3.3-.1.1-.2.3-.3.3zm-3.1 0h-1.5c-.1 0-.3-.1-.3-.3 0-.1.1-.3.3-.3h1.5c.1 0 .3.1.3.3 0 .1-.1.3-.3.3zm-3 0h-1.5c-.1 0-.3-.1-.3-.3 0-.1.1-.3.3-.3h1.5c.1 0 .3.1.3.3 0 .1-.1.3-.3.3zm-3 0h-1.5c-.1 0-.3-.1-.3-.3 0-.1.1-.3.3-.3h1.5c.1 0 .3.1.3.3 0 .1-.1.3-.3.3zm-3 0h-1.5c-.1 0-.3-.1-.3-.3 0-.1.1-.3.3-.3h1.5c.1 0 .3.1.3.3 0 .1-.1.3-.3.3zm-3 0h-1.5c-.1 0-.3-.1-.3-.3 0-.1.1-.3.3-.3h1.5c.1 0 .3.1.3.3 0 .1-.2.3-.3.3zm-3 0h-1.5c-.1 0-.3-.1-.3-.3 0-.1.1-.3.3-.3h1.5c.1 0 .3.1.3.3-.1.1-.2.3-.3.3zm-3 0h-1.5c-.1 0-.3-.1-.3-.3 0-.1.1-.3.3-.3h1.5c.1 0 .3.1.3.3-.1.1-.2.3-.3.3zm-3 0h-1.2-.3c-.1 0-.2-.1-.2-.3 0-.1.1-.2.3-.2h.3 1.2c.1 0 .3.1.3.3-.2 0-.3.2-.4.2zm46.6-.5c-.1 0-.2 0-.2-.1-.1-.1 0-.3.1-.3.4-.3.7-.6.8-1 .1-.1.2-.2.3-.1s.2.2.1.3c-.2.5-.6.9-1 1.3 0-.1-.1-.1-.1-.1zm-49.5-.2c-.1 0-.1 0-.2-.1-.4-.4-.7-.8-.9-1.4 0-.1 0-.3.2-.3.1 0 .3 0 .3.2.1.4.4.8.7 1.1.1.1.1.2 0 .4 0 .1 0 .1-.1.1zm50.6-2.4c-.1 0-.3-.1-.3-.3v-1.5c0-.1.1-.3.3-.3s.3.1.3.3v1.5c0 .2-.2.3-.3.3zm-51.5-.3c-.1 0-.3-.1-.3-.3v-1.5c0-.1.1-.3.3-.3.1 0 .3.1.3.3v1.5c0 .2-.2.3-.3.3zm51.5-2.7c-.1 0-.3-.1-.3-.3v-1.5c0-.1.1-.3.3-.3s.3.1.3.3v1.5c0 .2-.2.3-.3.3zm-51.5-.3c-.1 0-.3-.1-.3-.3v-1.5c0-.1.1-.3.3-.3.1 0 .3.1.3.3v1.5c0 .2-.2.3-.3.3zm51.5-2.7c-.1 0-.3-.1-.3-.3v-1.5c0-.1.1-.3.3-.3s.3.1.3.3v1.5c0 .2-.2.3-.3.3zm-51.5-.3c-.1 0-.3-.1-.3-.3v-1.5c0-.1.1-.3.3-.3.1 0 .3.1.3.3v1.5c0 .2-.2.3-.3.3zm51.5-2.7c-.1 0-.3-.1-.3-.3v-1.5c0-.1.1-.3.3-.3s.3.1.3.3v1.5c0 .2-.2.3-.3.3zm-51.5-.3c-.1 0-.3-.1-.3-.3v-1.5c0-.1.1-.3.3-.3.1 0 .3.1.3.3v1.5c0 .2-.2.3-.3.3zm51.5-2.7c-.1 0-.3-.1-.3-.3v-1.5c0-.1.1-.3.3-.3s.3.1.3.3v1.5c0 .1-.2.3-.3.3zm-51.5-.3c-.1 0-.3-.1-.3-.3v-1.5c0-.1.1-.3.3-.3.1 0 .3.1.3.3v1.5c0 .1-.2.3-.3.3zm51.5-2.8c-.1 0-.3-.1-.3-.3v-1.5c0-.1.1-.3.3-.3s.3.1.3.3v1.5c0 .2-.2.3-.3.3zm-51.5-.2c-.1 0-.3-.1-.3-.3v-1.5c0-.1.1-.3.3-.3.1 0 .3.1.3.3v1.5c0 .1-.2.3-.3.3zm51.5-2.8c-.1 0-.3-.1-.3-.3v-1.5c0-.1.1-.3.3-.3s.3.1.3.3v1.5c0 .2-.2.3-.3.3zm-51.5-.3c-.1 0-.3-.1-.3-.3v-1.5c0-.1.1-.3.3-.3.1 0 .3.1.3.3v1.5c0 .2-.2.3-.3.3zm51.5-2.7c-.1 0-.3-.1-.3-.3v-1.5c0-.1.1-.3.3-.3s.3.1.3.3v1.5c0 .2-.2.3-.3.3zm-51.5-.3c-.1 0-.3-.1-.3-.3v-1.5c0-.1.1-.3.3-.3.1 0 .3.1.3.3v1.5c0 .2-.2.3-.3.3zm51.5-2.7c-.1 0-.3-.1-.3-.3v-1.5c0-.1.1-.3.3-.3s.3.1.3.3v1.5c0 .2-.2.3-.3.3zm-51.5-.3c-.1 0-.3-.1-.3-.3v-1.5c0-.1.1-.3.3-.3.1 0 .3.1.3.3v1.5c0 .2-.2.3-.3.3zm51.5-2.7c-.1 0-.3-.1-.3-.3v-1.5c0-.1.1-.3.3-.3s.3.1.3.3v1.5c0 .2-.2.3-.3.3zm-51.5-.3c-.1 0-.3-.1-.3-.3v-1.5c0-.1.1-.3.3-.3.1 0 .3.1.3.3v1.5c0 .2-.2.3-.3.3zm51.5-2.7c-.1 0-.3-.1-.3-.3v-1.5c0-.1.1-.3.3-.3s.3.1.3.3v1.5c0 .2-.2.3-.3.3zm-51.5-.3c-.1 0-.3-.1-.3-.3v-1.5c0-.1.1-.3.3-.3.1 0 .3.1.3.3v1.5c0 .2-.2.3-.3.3zm51.4-2.7c-.1 0-.2-.1-.2-.2-.1-.4-.4-.8-.7-1.1-.1-.1-.1-.2 0-.4.1-.1.2-.1.4 0 .4.4.7.8.9 1.4-.1.1-.2.2-.4.3zm-51.2-.3s-.1 0 0 0c-.2-.1-.3-.2-.2-.3.2-.5.6-.9 1-1.3.1-.1.3 0 .3.1.1.1 0 .3-.1.3-.4.3-.7.6-.9 1 .1.2 0 .2-.1.2zm49-1.5s0-.1 0 0h-.3-1.2c-.1 0-.3-.1-.3-.3s.1-.3.3-.3h1.2.3c.1 0 .2.1.2.3.1.2 0 .3-.2.3zm-3-.1h-1.5c-.1 0-.3-.1-.3-.3s.1-.3.3-.3h1.5c.1 0 .3.1.3.3s-.1.3-.3.3zm-3 0h-1.5c-.1 0-.3-.1-.3-.3s.1-.3.3-.3h1.5c.1 0 .3.1.3.3s-.1.3-.3.3zm-3 0h-1.5c-.1 0-.3-.1-.3-.3s.1-.3.3-.3h1.5c.1 0 .3.1.3.3s-.2.3-.3.3zm-3 0h-1.5c-.1 0-.3-.1-.3-.3s.1-.3.3-.3h1.5c.1 0 .3.1.3.3s-.2.3-.3.3zm-3 0h-1.5c-.1 0-.3-.1-.3-.3s.1-.3.3-.3h1.5c.1 0 .3.1.3.3s-.2.3-.3.3zm-3 0h-1.5c-.1 0-.3-.1-.3-.3s.1-.3.3-.3h1.5c.1 0 .3.1.3.3s-.2.3-.3.3zm-3 0h-1.5c-.1 0-.3-.1-.3-.3s.1-.3.3-.3h1.5c.1 0 .3.1.3.3s-.2.3-.3.3zm-3.1 0h-1.5c-.1 0-.3-.1-.3-.3s.1-.3.3-.3h1.5c.1 0 .3.1.3.3s-.1.3-.3.3zm-3 0h-1.5c-.1 0-.3-.1-.3-.3s.1-.3.3-.3h1.5c.1 0 .3.1.3.3s-.1.3-.3.3zm-3 0h-1.5c-.1 0-.3-.1-.3-.3s.1-.3.3-.3h1.5c.1 0 .3.1.3.3s-.1.3-.3.3zm-3 0h-1.5c-.1 0-.3-.1-.3-.3s.1-.3.3-.3h1.5c.1 0 .3.1.3.3s-.1.3-.3.3zm-3 0h-1.5c-.1 0-.3-.1-.3-.3s.1-.3.3-.3h1.5c.1 0 .3.1.3.3s-.2.3-.3.3zm-3 0h-1.5c-.1 0-.3-.1-.3-.3s.1-.3.3-.3h1.5c.1 0 .3.1.3.3s-.2.3-.3.3zm-3 0h-1.5c-.1 0-.3-.1-.3-.3s.1-.3.3-.3h1.5c.1 0 .3.1.3.3s-.2.3-.3.3zm-3 0h-1.5c-.1 0-.3-.1-.3-.3s.1-.3.2-.3h1.5c.1 0 .3.1.3.3s-.1.3-.2.3z"/></g><path d="M166.9 280.3h-46.5c-5.3 0-9.6-4.3-9.6-9.6v-18.9c0-5.3 4.3-9.6 9.6-9.6h46.5c5.3 0 9.6 4.3 9.6 9.6v18.9c0 5.3-4.3 9.6-9.6 9.6z" class="Bx"/><path d="M136.3 253.8v15.1c0 .9 1 1.5 1.8 1l11.5-7.5c.7-.5.7-1.5 0-2l-11.5-7.5c-.8-.7-1.8-.1-1.8.9z" class="CB"/><g fill="#a9c2ff"><circle cx="115.4" cy="276.9" r="1.2"/><path d="M169 277.2h-53.3c-.2 0-.3-.1-.3-.3h0c0-.2.1-.3.3-.3H169c.2 0 .3.1.3.3h0c0 .2-.1.3-.3.3z"/></g><path d="M172.2 288.2h33.9v50.7h-33.9z" class="Bx"/><path d="M192.4 304.5h-.4v-2.1c0-.7.6-1.4 1.4-1.4h5.7c.4 0 .8-.3.9-.7l.9-3.5c.1-.3 0-.6-.2-.8s-.4-.3-.7-.3h-7.5v-.5h7.5c.4 0 .8.2 1.1.5s.3.8.2 1.2l-.9 3.5c-.2.6-.7 1-1.3 1h-5.7c-.5 0-.9.4-.9.9v2.2z" class="Bw"/><path d="M197.4 297.5h-9c-1.1 0-2-.9-2-2h0c0-1.1.9-2 2-2h9c1.1 0 2 .9 2 2h0c-.1 1.1-.9 2-2 2z" class="By"/><path d="M192.2 313.1h0c-.7 0-1.3-.6-1.3-1.3v-7.7c0-.7.6-1.3 1.3-1.3h0c.7 0 1.3.6 1.3 1.3v7.7c0 .8-.6 1.3-1.3 1.3z" class="Bw"/><path d="M241.1 329.9s.9 2.7.8 3.3-.6 2.7-1 3.3c-.4.5-.6-2.2-.9-2.6s-.1 1-.3 1.2c-.2.1-.7-1.1-.9-1.5s.5-2 .5-3.1 1.8-.6 1.8-.6z" class="Bv"/><path d="M220.4 308.4c-.2-3.1 3.1-5.2 5.8-3.6.1 0 .1.1.2.1 4 2.6 12.6 14.5 13.2 15.7s2.3 10.7 2.3 10.7-2.2.8-3.2 0c0 0-3.5-9-4-9.5s-14-8-14.1-10.9c-.1-.7-.1-1.6-.2-2.5z" class="Bt"/><path d="M244.5 378.4s1.6 1.5 1.3 2.5-1.8 1.7-2 3-1 2-1.7 2h-3.4s-.5-.9.7-1.2c1.3-.3 1.7-1.8 1.6-3.2s.1-3.2.1-3.2l2.7-.6.7.7zm-19.7 3.8s.3 3.3-.4 3.7h-9s0-1 1.4-1.3c1.4-.2 4-1.1 4.4-3 .4-1.8 3.6.6 3.6.6z" fill="#214a80"/><path d="M217.1 335.1l1 12.9 1.8 23.5c.2 3.9.8 10 .8 10s1.5 1.5 4.5.8c0 0 2.7-8.8 3.4-18.1v-.5l1.8-29.5-13.3.9z" class="Bu"/><path d="M217.1 335.1l1 12.9 10.4 16.2v-.5l1.8-29.5-13.2.9z" class="Bz"/><path d="M219.3 335.8s8.6 21.2 14.2 31.1c5.6 10 7.4 12.7 7.4 12.7s3.2-1.3 3.5-2.1c0 0-2.2-19.2-5.9-23.9-2.1-2.6-4.6-10.6-4.8-13.4-.1-2.8-.8-8.3-.8-8.3l-13.6 3.9z" class="Bu"/><path d="M226.7 304s-5.7 2.9-9.1 1.9c0 0 .8-1.1 2.2-1.9l-.3-1.7c-.2-1.1-.2-1.8-.2-1.8l2.2-1.8 2.1-1.7c0 4.8 3.1 7 3.1 7z" class="Bv"/><path d="M232.4 333.7c-2.3 1.4-4.5 2.5-7.1 3.1-3 .7-6.8.5-8 .7-.1 0-.2 0-.4-.1-.1-.1-.6-3.7-1.2-8.4 0-.2 0-.4-.1-.6v-.1l-.6-5.7-.3-4.4-.1-4.6c0-.6.1-1.1.1-1.6.3-2.7 1.6-4.7 2.9-6.1l1-1.2c1.2.1 2.4-.1 3.5-.9 1.2-.8 2.6-1.7 2.8-1.5 1.9 1 3.5 3.7 4.6 7.3a45.38 45.38 0 0 1 1.4 6.8l.3 2.3v.4c.1 2.1.4 4.1.7 5.9l1.1 5.9c.1.7.3 1.3.3 1.7.1.4-.6.9-.9 1.1z" class="Bw"/><path d="M223.7 298.9s-1.4 2.7-4.2 3.5c-.2-1.1-.2-1.8-.2-1.8l2.2-1.8 2.2.1z" class="CC"/><path d="M218.3 300.5s5.6.8 6-2.6c.5-3.4 1.5-5.6-2.1-6.3-3.5-.7-4.4.6-4.8 1.7s-.5 7 .9 7.2z" class="Bv"/><path d="M226.2 291.2c0-.1.2-.1.4-.1 0 0-.2-.1-.5-.1-.1-.4-.3-1-.9-1.1 0 0 .3.2.4.6-.7-.7-2.3-1.2-6.5-.8-5.6.6-3.7 4.1-2.9 4.5.7.4 2.5-.8 3.9-.7s1.6 2 2.1 2.3.3-.2.9-.5.7.7.5 1.4.7 1.5.7 1.5l.8-.9c.8-.9 1.6-4.9 1.2-5.7 0-.3 0-.3-.1-.4zm-1.7 22.7s-4.7 3.6-9.6 4.3l-.1-4.6 9.7.3z" class="Bt"/><path d="M195.7 309.3c-.1-.1-1-3.3-2.7-3-1.1.2-2.8.8-2.4 2.2.2.6 3.5 2.5 3.5 2.5l1.6-1.7z" class="Bv"/><path d="M225 307c2.7 1.6 2.5 5.6-.4 6.8-.1 0-.1 0-.2.1-4.4 1.8-19.1 1.8-20.4 1.6s-10.1-4.3-10.1-4.3.6-2.2 1.9-2.6c0 0 9.4 2.4 10.1 2.2s14.6-6.8 17-5.2c.6.5 1.3.9 2.1 1.4z" class="Bw"/><g fill="#e8f2fa"><use xlink:href="#B"/><use xlink:href="#B" y="3.5"/><use xlink:href="#B" y="7.1"/><path d="M278.2 293.9h-27.9c-.7 0-1.2-.5-1.2-1.2h0c0-.7.5-1.2 1.2-1.2h27.9c.7 0 1.2.5 1.2 1.2h0c0 .6-.5 1.2-1.2 1.2z"/><use xlink:href="#C"/><use xlink:href="#C" x="136.5" y="93.3"/><path d="M278.2 299.8h-33.4c-.7 0-1.2-.5-1.2-1.2h0c0-.7.5-1.2 1.2-1.2h33.4c.7 0 1.2.5 1.2 1.2h0c0 .6-.5 1.2-1.2 1.2zm-145-80H118c-.7 0-1.2-.5-1.2-1.2h0c0-.7.5-1.2 1.2-1.2h15.2c.7 0 1.2.5 1.2 1.2h0c0 .6-.6 1.2-1.2 1.2z"/><circle cx="112.8" cy="218.6" r="1.2"/><path d="M136.2 224.5H118c-.7 0-1.2-.5-1.2-1.2h0c0-.7.5-1.2 1.2-1.2h18.3c.7 0 1.2.5 1.2 1.2h0c-.1.7-.6 1.2-1.3 1.2z"/><circle cx="112.8" cy="223.3" r="1.2"/><path d="M133.2 229.6H118c-.7 0-1.2-.5-1.2-1.2h0c0-.7.5-1.2 1.2-1.2h15.2c.7 0 1.2.5 1.2 1.2h0c0 .7-.6 1.2-1.2 1.2z"/><circle cx="112.8" cy="228.4" r="1.2"/></g><g class="Bt"><path d="M162.1 222.4h-.6c-1.1 0-2.2-.5-3-1.3-1.6-1.7-1.6-4.3.1-5.9h0c1.7-1.6 4.3-1.6 5.9.1s1.6 4.3-.1 5.9a3.47 3.47 0 0 1-2.3 1.2zm-3-6.6c-1.4 1.3-1.4 3.6-.1 5 .7.7 1.5 1 2.5 1.1.9 0 1.8-.3 2.5-1 1.4-1.3 1.4-3.6.1-5-1.4-1.5-3.6-1.5-5-.1h0z"/><path d="M158.555 220.72l.489.501-4.077 3.984-.489-.501z"/><path d="M153.3 226.4h0c-.2-.2-.2-.6 0-.9l2.4-2.4c.2-.2.6-.2.9 0h0c.2.2.2.6 0 .9l-2.4 2.4c-.3.2-.7.2-.9 0zM357.6 386h0c-.5 0-1.1-.4-1.3-.9L324.1 287c-.2-.5.1-.9.7-.9h0c.5 0 1.1.4 1.3.9l32.2 98.1c.1.5-.2.9-.7.9zm25.9-.1h0c-.5 0-1.1-.4-1.3-.9L350 286.9c-.2-.5.1-.9.7-.9h0c.5 0 1.1.4 1.3.9l32.2 98.1c.2.5-.1.9-.7.9z"/><use xlink:href="#D"/><use xlink:href="#D" x="5.6" y="17.1"/><use xlink:href="#D" x="11" y="33.6"/><use xlink:href="#D" x="17.1" y="52.2"/><use xlink:href="#D" x="23.5" y="71.6"/><path d="M323 242.1h0c-.2 0-.4-.1-.4-.3l-.4-2.2c0-.2.1-.4.3-.4h0c.2 0 .4.1.4.3l.4 2.2c0 .2-.1.4-.3.4z"/><path d="M321.61 235.653l.295-.057.608 3.142-.295.057z"/></g><path d="M321.8 218.1s-.2-2.1-.8-3c-.5-.8-2.5-1.3-2.6-1.2-.4.4 1.1 1.7 1.2 2.2s-.8.1-.4 1.1c.3.8 1.4 1.8 1.4 1.8l1.2-.9z" class="CD"/><path d="M320.9 217.8c.7-.6.9-.6.9-.6l7.3 6.3c.6.5 10.6 3.4 10.6 3.4l1.6 8.1s-13.5-6.5-15.1-7.8c-2.7-2.2-6-8.3-6-8.3s.1-.6.7-1.1z" class="Bz"/><g class="Bt"><path d="M339.9 295.6s-.1 2.8-.6 3.4h-7.4c.1-.3.1-.9 1.1-1.1 1.3-.2 2.8-1.1 3.6-2.8.7-1.8 3.3.5 3.3.5zm14.5-.4s.5 3.7-.2 3.7l-4.2.1h-3.9c-.3 0-.5-.3-.3-.6s.5-.6 1.1-.7c1.3-.2 3.4-1.2 4.2-2.9.7-1.8 3.3.4 3.3.4z"/><path d="M336 257.5s2.1 7.2 7.9 19.7c5.9 12.5 6.1 18.5 6.1 18.5s.9.3 2.1.2c1.3-.1 2.2-.7 2.2-.7s-.4-14.9-3.2-21.2-3.3-23.5-3.3-23.5l-11.8 7z"/></g><path d="M332.7 251.4s-.2 11.1 1.8 24.8c1.9 13.7 1 20 1 20s.5.4 2.1.4c1.8 0 2.8-.8 2.8-.8s2.8-13.7 2-20.5 3.8-23.5 3.8-23.5l-13.5-.4z" class="Bw"/><path d="M341.8 225.3l-2.2 1.6-3.1-.7c0-.3.3-1.5.4-2.6v-.2l.3-1.7 2.9-1.5 1.1-.5-.1 1.2c-.1 2.6.7 4.4.7 4.4z" class="Bv"/><path d="M348 252.7c-.7 3.3-15.9 1.8-15.7-.2 0-.1 0-1 .1-2.2l.3-7.2c.3-2.8.5-5.5.6-7.2 0-1.5.2-3.1.5-4.5.3-1.3.6-2.5.9-3.4.2-.7.6-1.2 1-1.7.3-.3.7-.6 1.2-.8.1-.1.2-.1.4-.1 1.8-.5 4.3-1.2 4.9-1 1.8.5 3.2 3.7 4.1 7.8 1.8 7.7 2.2 18.4 1.7 20.5z" class="Bu"/><path d="M341 221c-.6 1.2-3 2.3-4.1 2.7v-.2l.3-1.7 2.9-1.5c.8 0 1.2.2.9.7z" class="CC"/><path d="M335.8 221.6s5.3 1.7 6.3-1.7c1-3.3 2.3-5.3-1-6.5s-4.4-.1-5 .9c-.6 1.1-1.6 6.8-.3 7.3z" class="CD"/><path d="M336.3 214s.3 3.9 1.1 3.7 1.5-.3 1.4.9-1.2 2.5 1.2 2.7c2.5.2 6-6.1 5.3-7.3-1.8-3.5-11.8-4.2-9 0z" class="Bt"/><path d="M332.4 250.3l.3-7.2 9-5.4c0 .1.4 12.6-9.3 12.6z" class="Bz"/><path d="M325.3 239.1s-1.8-1.2-2.2-1.3c-.3-.1-1.5-.2-1.5-.1-.1.1-.2.4 0 .5s.4.1.4.1c-.1.1-.8-.3-1 .1s-.3 1.7.6 2.1 3 0 3.2.1c1.2.2.5-1.5.5-1.5z" class="CD"/><path d="M325.2 238.8s8.9 1.5 9.7 1.1c1.3-.6-.5-9.7-.5-9.7s-.1-2.1 2.3-2.5c2.1-.4 4.1 1.1 4.1 1.1s1.8 1.6 1.6 3.4c-.5 4-1.3 12.2-4 13.4-3.5 1.6-13.5-4.5-13.5-4.5s-.3-.4-.3-1.2c.1-.5.6-1.1.6-1.1z" class="Bu"/><path d="M319.2 217l-.7-1.3c-.1-.2.1-.2.4 0 .2.1.5.8.9.7.3-.1-.6.6-.6.6z" class="Bv"/><defs ><path id="B" d="M324.1 202.2h-11.7c-.5 0-.9-.4-.9-.9h0c0-.5.4-.9.9-.9h11.7c.5 0 .9.4.9.9h0c0 .5-.4.9-.9.9z"/><path id="C" d="M141.7 212.3h-27.9c-.7 0-1.2-.5-1.2-1.2h0c0-.7.5-1.2 1.2-1.2h27.9c.7 0 1.2.5 1.2 1.2h0c0 .7-.5 1.2-1.2 1.2z"/><path id="D" d="M355.6 300.6l-26.1.2c-.5 0-1-.4-1.2-.8h0c-.1-.5.1-.8.6-.8l26.1-.2c.5 0 1 .4 1.2.8h0c.2.4-.1.8-.6.8z"/></defs></svg>