<svg xmlns="http://www.w3.org/2000/svg" xmlns:xlink="http://www.w3.org/1999/xlink" viewBox="0 0 400 520" xmlns:v="https://vecta.io/nano"><style><![CDATA[.BO{fill:#ff912b}.BP{fill:#ffae73}.BQ{fill:#8eaff1}.BR{fill:#a9c2ff}.BS{fill:#2a3967}.BT{fill:#26529f}.BU{fill:#1e3865}.BV{fill:#fc7600}.BW{fill:#25468f}.BX{fill:#6d9ae5}.BY{fill:#0b3563}]]></style><path d="M17.3 362.4s-27.8-21.7-8.4-73.5c11.4-30.6 49.9-25.9 48-80.8s33.6-78.8 97.2-53.9c45.9 18 114.8-63.4 171.7 38.9 22 39.5 60.4 34.3 70.6 106.5 2.8 19.7-1.4 40.4-22.1 62.8h-357z" fill="#e8f2fa"/><path d="M185 231.5l3.3-2.5c.3-.2.6-.2 1-.1l1.2.6 2.3.8c.4.1.6.4.7.7l.7 4.3c.1.5.5.8.9.8l3.9-.3c.4 0 .8-.4.8-.8l.2-4c0-.4.3-.7.7-.8a13.67 13.67 0 0 0 4.6-2.1c.3-.2.8-.2 1.1.1l1.8 1.6c.3.3.9.3 1.2 0l2.9-2.6.2-.2a.91.91 0 0 0 0-1l-1.8-2.5-.4-.6c.4-.6.7-1.3 1-2 .4-.9.7-1.9.9-2.9.1-.4.4-.6.7-.7l3.4-.5c.5-.1.8-.5.8-1l-.2-3-.1-.9c0-.5-.4-.8-.9-.9l-3.3-.1c-.4 0-.7-.3-.8-.6-.3-1.1-.8-2.1-1.3-3.1 0-.1-.1-.2-.1-.3v-.1c-.2-.3-.1-.7.2-1l2.6-2.9.1-.1c.2-.3.2-.8-.1-1.1l-2.6-2.9c-.3-.4-.8-.4-1.2-.1l-3.5 2.6a.91.91 0 0 1-1 0c-.7-.4-1.4-.8-2.2-1.1-.4-.2-.8-.3-1.2-.4-.3-.1-.6-.4-.6-.7l-.6-4.1c-.1-.5-.5-.8-.9-.8l-3.9.3c-.5 0-.8.4-.9.9l-.1 3.1c0 .4-.3.8-.7.9-1.6.3-3.2.9-4.6 1.7-.3.2-.8.1-1.1-.1l-2.6-2.4c-.4-.3-.9-.3-1.2 0l-2.9 2.6c-.4.3-.4.8-.1 1.2l.1.1 2.1 2.9a.91.91 0 0 1 0 1h0c-.5.8-.9 1.6-1.3 2.5-.2.5-.4.9-.5 1.4-.1.3-.4.6-.7.6l-3.5.5c-.5.1-.8.5-.8 1l.3 3.9c0 .1 0 .2.1.3.1.3.4.5.8.5l2.7.1c.3 0 .6.2.8.5 0 .1.1.2.1.2.4 2.1 1.2 4 2.4 5.8a.91.91 0 0 1 0 1l-.1.1-2.1 2.4c-.3.3-.3.9 0 1.2l.1.1 2.5 2.9c-.2.4.3.4.7.1zm16.9-23.3c.5.4 1 .8 1.4 1.4.9 1 1.7 2.9 1.7 4.2v.4c.3 8.5-9.6 12.5-15.3 6.1-.7-.8-1.4-2.3-1.7-3.6-.1-.3-.1-.6-.1-.8-.1-1.2.1-2.3.3-3.3 1.8-5.8 8.7-8.2 13.7-4.4zm9.6-17.6l2.9-1.5c.2-.1.5-.1.7 0l.9.6c.6.3 1.1.6 1.7.8.3.1.5.4.5.7v3.4c0 .4.3.7.6.7l3.1.2c.4 0 .7-.2.7-.6l.6-3.1c0-.3.3-.5.6-.6 1.3-.2 2.6-.5 3.8-1.1.3-.1.6-.1.8.2l1.2 1.5c.2.3.6.3.9.1l2.6-1.7c.1 0 .1-.1.1-.1.2-.2.2-.5.1-.8l-1.2-2.1-.3-.5c.4-.5.7-.9 1-1.4.4-.7.7-1.4 1-2.1.1-.3.4-.5.6-.5h2.7a.68.68 0 0 0 .7-.7l.2-2.4v-.7c0-.4-.2-.7-.6-.8l-2.6-.5a.9.9 0 0 1-.6-.6c-.1-.9-.4-1.7-.7-2.6 0-.1 0-.1-.1-.2v-.1c-.1-.3 0-.6.2-.7l2.4-2s.1 0 .1-.1c.2-.2.2-.6.1-.9l-1.7-2.6c-.2-.3-.6-.4-.9-.2l-3 1.6c-.3.1-.6.1-.8-.1-.5-.4-1-.8-1.6-1.1-.3-.2-.6-.3-.9-.5-.2-.1-.4-.4-.4-.6v-3.3c0-.4-.3-.7-.6-.7l-3.1-.2c-.4 0-.7.2-.8.6l-.5 2.4c-.1.3-.3.6-.7.6-1.3.1-2.6.3-3.8.8-.3.1-.6 0-.8-.2l-1.8-2.1c-.2-.3-.7-.3-1-.1l-2.6 1.7c-.3.2-.4.6-.2.9l.1.1 1.3 2.5c.1.3.1.6-.1.8h0c-.5.5-.9 1.1-1.3 1.8-.2.3-.4.7-.6 1.1-.1.2-.4.4-.6.4H207a.68.68 0 0 0-.7.7l-.2 3v.2c.1.3.3.5.6.5l2.1.4a.47.47 0 0 1 .5.5v.2c.1 1.7.5 3.3 1.2 4.8.1.3.1.6-.1.8l-.1.1-1.9 1.6c-.3.2-.3.6-.1.9v.1l1.6 2.5c.9.4 1.3.5 1.6.3zm15.7-16.2c.3.4.7.8 1 1.2.6.9 1 2.4.9 3.5v.3c-.7 6.6-8.8 8.6-12.6 3-.5-.7-.9-1.9-.9-3v-.7c.1-.9.3-1.8.6-2.5 1.9-4.3 7.5-5.4 11-1.8zm112.2 143l3.5-1.9c.3-.2.7-.1.9.1.3.2.7.5 1.1.7.7.4 1.4.8 2.1 1 .3.1.6.5.6.8v4.2c0 .4.3.8.8.9l3.8.3c.4 0 .8-.3.9-.7l.7-3.8c.1-.4.4-.7.7-.7 1.6-.2 3.2-.7 4.7-1.4.4-.2.8-.1 1 .2l1.5 1.8c.3.3.8.4 1.2.2l3.2-2.1c.1 0 .1-.1.2-.1.2-.3.3-.7.1-1l-1.4-2.6-.3-.6c.4-.6.9-1.2 1.2-1.8.5-.8.9-1.7 1.2-2.6.1-.3.4-.6.8-.6h3.4c.5 0 .8-.4.9-.8l.2-2.9.1-.8c0-.5-.3-.9-.7-1l-3.2-.6c-.4-.1-.7-.4-.7-.7-.2-1.1-.4-2.2-.8-3.2 0-.1-.1-.2-.1-.3v-.1c-.1-.3 0-.7.3-.9l2.9-2.4.1-.1c.3-.3.3-.7.1-1.1l-2.1-3.2c-.3-.4-.8-.5-1.2-.3l-3.7 2c-.3.2-.7.1-1-.1-.6-.5-1.3-.9-2-1.4l-1.1-.6c-.3-.2-.5-.5-.5-.8v-4c0-.4-.3-.8-.8-.8l-3.8-.3c-.5 0-.9.3-1 .7l-.6 3c-.1.4-.4.7-.8.7-1.6.1-3.2.4-4.7 1-.4.1-.8 0-1-.3l-2.2-2.6c-.3-.4-.8-.4-1.2-.2l-3.2 2.1c-.4.2-.5.7-.3 1.1l.1.2 1.7 3.1c.2.3.1.7-.1 1h0c-.6.7-1.1 1.4-1.6 2.2-.3.4-.5.9-.7 1.3-.1.3-.4.5-.8.5h-3.4c-.5 0-.9.4-.9.8l-.3 3.8v.3c.1.3.4.6.7.6l2.5.5c.3.1.6.3.7.6 0 .1 0 .2.1.2a15.59 15.59 0 0 0 1.5 5.9c.2.3.1.7-.1.9l-.1.1-2.4 2c-.3.3-.4.8-.2 1.2v.1l2 3.1c.6.3 1.1.5 1.5.2zm19.3-20c.4.4.8.9 1.2 1.5.7 1.1 1.2 3 1.1 4.3v.4c-.9 8.2-10.9 10.7-15.5 3.7-.6-.9-1.1-2.4-1.2-3.6v-.8c.1-1.2.4-2.2.8-3.1 2.4-5.4 9.4-6.8 13.6-2.4z" fill="#dceaff"/><path d="M360.2 280.9l1.9-1a.45.45 0 0 1 .5 0c.2.1.4.3.6.4l1.1.6c.2.1.3.2.3.4v2.2c0 .2.2.4.4.5l2 .2c.2 0 .4-.1.5-.4l.4-2c0-.2.2-.3.4-.4.9-.1 1.7-.4 2.5-.7.2-.1.4 0 .6.1l.8 1a.47.47 0 0 0 .6.1l1.7-1.1s.1 0 .1-.1c.1-.1.2-.4.1-.5l-.8-1.4-.2-.3c.2-.3.5-.6.7-1 .3-.5.5-.9.7-1.4.1-.2.2-.3.4-.3h1.8c.2 0 .5-.2.5-.4l.1-1.6v-.4c0-.2-.1-.5-.4-.5l-1.7-.3c-.2 0-.3-.2-.4-.4-.1-.6-.2-1.2-.4-1.7 0 0 0-.1-.1-.1-.1-.2 0-.4.2-.5l1.6-1.3c.1-.2.2-.4 0-.6l-1.1-1.7c-.1-.2-.4-.3-.6-.2l-2 1.1c-.2.1-.4.1-.5-.1-.3-.3-.7-.5-1-.7l-.6-.3c-.2-.1-.3-.2-.3-.4v-2.2c0-.2-.2-.4-.4-.5l-2-.1c-.2 0-.5.1-.5.4l-.3 1.6c0 .2-.2.4-.4.4-.9 0-1.7.2-2.5.5-.2.1-.4 0-.5-.1l-1.2-1.4a.47.47 0 0 0-.6-.1l-1.7 1.1c-.2.1-.3.4-.2.6v.1l.9 1.6c.1.2.1.4-.1.5h0c-.3.4-.6.8-.8 1.2-.1.2-.3.5-.4.7s-.2.3-.4.3h-1.8c-.3 0-.5.2-.5.4l-.1 2v.2c0 .2.2.3.4.3l1.4.2c.2 0 .3.2.4.3v.1c.1 1.1.3 2.2.8 3.1.1.2.1.4-.1.5l-.1.1-1.3 1.1a.47.47 0 0 0-.1.6h0l1.1 1.7c.1.1.4.1.6 0zm10.4-10.7c.2.2.4.5.6.8.4.6.6 1.6.6 2.3v.2c-.5 4.4-5.8 5.7-8.3 2-.3-.5-.6-1.3-.6-2v-.4c0-.6.2-1.2.4-1.7 1.3-2.8 5-3.6 7.3-1.2z" class="BR"/><path d="M46.5 281.3l2.1-1.1c.2-.1.4-.1.5 0 .2.1.4.3.6.4l1.2.6a.55.55 0 0 1 .3.5v2.5a.47.47 0 0 0 .5.5l2.2.2c.3 0 .5-.2.5-.4l.4-2.2c0-.2.2-.4.4-.4.9-.1 1.9-.4 2.7-.8.2-.1.5 0 .6.1l.9 1.1c.2.2.5.2.7.1l1.9-1.2.1-.1c.1-.2.2-.4.1-.6l-.8-1.5-.2-.4c.3-.3.5-.7.7-1 .3-.5.5-1 .7-1.5a.55.55 0 0 1 .5-.3h2a.47.47 0 0 0 .5-.5l.1-1.7v-.5c0-.3-.2-.5-.4-.6l-1.9-.3c-.2 0-.4-.2-.4-.4-.1-.6-.3-1.3-.5-1.9 0-.1 0-.1-.1-.2v-.1c-.1-.2 0-.4.2-.5l1.7-1.4.1-.1a.37.37 0 0 0 0-.6l-1.2-1.9c-.1-.2-.4-.3-.7-.2l-2.2 1.2a.47.47 0 0 1-.6-.1c-.4-.3-.7-.6-1.1-.8-.2-.1-.4-.2-.7-.4a.55.55 0 0 1-.3-.5v-2.4a.47.47 0 0 0-.5-.5l-2.2-.2c-.3 0-.5.2-.6.4l-.3 1.8c0 .2-.2.4-.5.4-.9 0-1.9.2-2.7.6-.2.1-.4 0-.6-.2l-1.3-1.6c-.2-.2-.5-.3-.7-.1l-1.9 1.2c-.2.1-.3.4-.2.7v.1l1 1.8a.47.47 0 0 1-.1.6h0c-.3.4-.7.8-.9 1.3-.1.2-.3.5-.4.8a.55.55 0 0 1-.5.3h-2a.47.47 0 0 0-.5.5l-.2 2.2v.2a.78.78 0 0 0 .4.4l1.5.3c.2 0 .3.2.4.3v.1c.1 1.2.4 2.4.9 3.5a.47.47 0 0 1-.1.6l-.1.1-1.4 1.2c-.2.2-.2.5-.1.7h0l1.2 1.8c.8.2 1.1.2 1.3.1zm11.4-11.7c.2.3.5.6.7.9.4.6.7 1.8.6 2.5v.2c-.5 4.8-6.4 6.3-9.1 2.2-.4-.5-.6-1.4-.7-2.1v-.5c.1-.7.2-1.3.5-1.8 1.4-3.2 5.5-4 8-1.4zM235 246.7l5.3-3.8c.4-.3 1-.3 1.5-.1l1.9.9 3.6 1.3c.6.1 1 .6 1.1 1.2l.9 6.8c.1.7.7 1.3 1.5 1.2l6.2-.3c.7 0 1.3-.6 1.3-1.3l.4-6.3c0-.6.5-1.1 1.1-1.3 2.6-.7 5-1.7 7.3-3.2.5-.3 1.3-.3 1.7.2l2.8 2.6c.5.5 1.4.5 1.9.1l4.7-4c.1-.1.2-.2.2-.3.3-.5.3-1.1 0-1.6l-2.8-4-.7-1c.6-1 1.2-2 1.6-3.1a39.56 39.56 0 0 0 1.5-4.5c.1-.6.6-1 1.2-1.1l5.4-.7c.7-.1 1.3-.8 1.2-1.5l-.2-4.8-.1-1.4c0-.7-.6-1.3-1.4-1.4l-5.1-.3c-.6 0-1.1-.4-1.3-1-.5-1.7-1.2-3.4-2-5-.1-.1-.1-.3-.2-.4 0 0 0-.1-.1-.1-.2-.5-.1-1.1.3-1.6l4.3-4.5c.1 0 .1-.1.1-.2.4-.5.3-1.3-.1-1.8l-4-4.7c-.5-.6-1.3-.7-1.9-.2l-5.5 4c-.5.3-1.1.4-1.6 0a22.11 22.11 0 0 0-3.4-1.8c-.6-.3-1.3-.5-1.9-.7-.5-.2-.9-.6-1-1.2l-.9-6.5c-.1-.7-.7-1.2-1.5-1.2l-6.2.3c-.7 0-1.3.6-1.4 1.4l-.3 5c0 .7-.5 1.2-1.2 1.3-2.6.5-5 1.3-7.3 2.5-.5.3-1.2.2-1.7-.2l-4.1-3.8c-.5-.5-1.4-.5-2 0l-4.7 4c-.6.5-.7 1.3-.2 1.9l.2.2 3.3 4.6c.4.5.4 1.1 0 1.6h0c-.8 1.2-1.5 2.5-2.1 3.9-.3.7-.6 1.5-.8 2.2-.2.5-.6.9-1.2 1l-5.5.7c-.8.1-1.3.8-1.3 1.5l.3 6.1c0 .2.1.3.1.5.2.5.7.8 1.2.9l4.2.2a1.3 1.3 0 0 1 1.2.8c.1.1.1.2.1.4.6 3.3 1.9 6.4 3.7 9.2.3.5.3 1.1 0 1.6 0 .1-.1.1-.2.2l-3.4 3.7c-.5.5-.5 1.4 0 1.9l.1.1 3.9 4.6a1.55 1.55 0 0 0 2 .3zm27.3-36.3c.8.6 1.5 1.4 2.2 2.2 1.3 1.6 2.5 4.6 2.7 6.7v.7c.2 13.4-15.5 19.5-24.4 9.2-1.2-1.3-2.2-3.7-2.6-5.7-.1-.5-.2-.9-.2-1.3-.1-1.9.1-3.6.6-5.2 2.9-9.2 13.9-12.9 21.7-6.6zm-192.1 25c1.7-8.4 15.8-6.8 15.8-6.8s10.5 13.8 13.3 14-6.7-13.6-6.7-13.6c5.3-.9 19.4 4.7 19.4 4.7s.3 17 3.1 16.4c2.7-.5-1-15-1-15 5.3 1.2 10.5 6.9 10.5 6.9 6.7 9.4-5.7 17.5-5.7 17.5s.2 5.9 4.3 12.3h0s.9 1.2 1.9 3.2l-1.4.1c-.1-.4-.3-.7-.5-1.1-.1-.2-.3-.5-.5-.9-.5-.8-.8-1.4-1-1.9-1.5-2.6-3.6-5.9-4.9-6.5 0 0 .1-.2.3-.7-.1.2-.2.4-.3.7-2.1 5.3-14.1 7-20.9 6.1s-4-3-.6-6.3 11-3.1 13.2-4.4c2.2-1.4-1.2-2.3-5.7-1.7-4.5.7-6.4 5.3-13.6 6.5s-13.7-12-13.7-12c5.1 1.2 13.9-2.2 14.1-3.9s-13-.6-15.1-1c-2.1-.2-6-4.1-4.3-12.6z" fill="#dceaff"/><path d="M184.1 267.5l-7.5 89s-.8 5.4 3.2 5.4h32.8s-5-1.1-4.9-3.6c.1-3 8.7-91.6 8.7-91.6l-32.3.8z" class="BX"/><g class="BR"><path d="M214.8 360.3H182c-2.8 0-3.3-2.5-3.3-4.1 0-.8.1-1.3.1-1.3l.2-2.3.5-5.9.4-5.2.6-6.7.5-5.6 5.3-63.2 32.4-.8-6.2 64.1-.8 8.6-.2 2.5-.6 7-.3 3-.5 6.4c0 .3 0 .5.1.7.3 2.7 4.1 2.8 4.6 2.8z"/><path d="M105.4 219.1l18.2 73.2 2.5 10 8.5 34.1h157.7L261 219.1z"/></g><g class="BX"><path d="M105.4 219.1l-2.5.8L131.2 339l3.4-2.6z"/><path d="M131.2 339h156.7l4.4-2.6H134.6z"/></g><path d="M220.161 361.897h-33.9v-1.6h33.9z" class="BR"/><path d="M211.6 339l-.2 1.2-31.9 6.5.4-5.3.2-2.4z" opacity=".7" class="BX"/><path d="M214.8 360.3H182c-2.8 0-3.3-2.5-3.3-4.1l31.8-6-.5 6.4c0 .3 0 .5.1.7.4 2.9 4.2 3 4.7 3zm-10.9-47.6l-69.3 23.7-8.5-34.1z" class="BQ"/><path d="M105.4 219.1H261l25 94.3H128.9z" fill="#cedfff"/><path d="M111.7 222.5l22.3 85.8h144.5l-22.6-84.9z" opacity=".5" class="BR"/><path d="M164 273.9h54.7v34.5H164z" class="BV"/><path d="M191.3 273.9H246v34.5h-54.7z" class="BO"/><path d="M191.3 278.9l-11.5 11.6H164v-16.6h27.3z" fill="#ef6500"/><path d="M164 273.9l-12.3 11.8H179l12.3-11.8z" class="BO"/><path d="M246 275.1l-54.7-1.2v4.3h0v.7l10.2 11.2h44.4V279l-.2-.3h.3z" class="BV"/><path d="M191.3 273.9l10.8 11.8H256l-10-11.8z" class="BO"/><path d="M96 269.5s.4-4.1-4.2-4.1c0 0 1.4.4 2.1 1.1 0 0-3-1.7-6.2.9-3.2 2.7-1.2 9.3-2.2 10.6s-4.8 1.5-4.3 5.6 12.1 9.2 11.3 12.6c0 0 4.5-6.7 1.3-9.7 0 0 1.6 1.5 1.7 3.3 0 0 .4-3.5-1.8-4.6-2-1-3.6-4.6-3.4-5.2.3-.6 5.7-10.5 5.7-10.5z" class="BS"/><path d="M91.5 289.4s3.5 14.3 6.9 17.2c2 1.7 8.1 5.7 8.1 5.7l-2.5.9s-8.4-2.8-10.3-5.1c-1.9-2.2-7-13.3-7-13.3l4.8-5.4z" class="BP"/><path d="M111.4 317.4l-.8-2c-.9-2.2-3-3.6-5.3-3.6h-15v9.5V362h62v-40.6h-35.1c-2.5 0-4.9-1.6-5.8-4z" class="BO"/><path d="M99.7 342.3v-3.6l12.7-5.5v3.7l-8.8 3.6 8.8 3.6v3.7l-12.7-5.5zm25.8-13.5h3.4L117.3 353h-3.4l11.6-24.2zm17.4 9.9v3.6l-12.7 5.5v-3.7l8.8-3.6-8.8-3.6v-3.7l12.7 5.5z" fill="#fff"/><path d="M59 314.5c0 .1.1.1.1.2.8 1.3 2.5 4.5 4.4 8.1l2.7 5.1 3.8 6.7 1.7 2.7c.1.1.1.3.1.4-.1 1.2-.1 2.4.1 3.5 1.2 11.5 8.9 17.6 8.9 17.6l2.2.2s-3.3-12.1-4.2-18.9c-.2-1.2-.2-2.1-.2-2.7.2-1.8-.1-4.4-.7-7.4-1.1-5.3-3-11.8-4.7-17.1-.1-.3-3.3-12-3.3-12-2.7 2.4-12.6 3.4-12.6 3.4s-1.7 4.1 1.7 10.2z" class="BT"/><path d="M87.9 362h-9.6s-.2-1.5.3-2.6 1.2-1.1.1-2.8c.6.6 2.6.9 4 .7.2.3 1.1 2.1 1.7 2.5.5.5 3.3.3 3.5 2.2zM59 314.5c0 .1.1.1.1.2.8 1.3 4.8 8.9 6.8 12.4-2.2-9.1-.7-18.2-.7-18.2l-6.2 5.6z" class="BU"/><path d="M94.7 268.9c.1-.3-5.5 2.5-5.8 2.8-2.6 2.9-1.9 6.6-.4 6.7 1 0 .8 1.6.8 1.6l10.6-4.5c.1 0-1.2-7.4-5.2-6.6z" class="BS"/><path d="M91.2 287.2s1.6 3.2 1.4 5.9c0 0-2 3.1-7 3.9 0-.1 4.3-9.8 5.6-9.8z" class="BO"/><path d="M66.5 305v-1.8c-3.6.5-12.3-4.3-12.3-4.3s-3.7 2.5-4.3 9.6l-2 22.5c-.1 1.6-.1 2.7-.1 3.2a.76.76 0 0 1-.2.4c-.7.9-1.4 1.9-1.9 3-5.5 10.2-2.6 24-2.6 24l1.3-.3S49 347 52 340.8c.5-1 1-1.9 1.4-2.3 1.1-1.4 2.3-3.7 3.5-6.5 2.2-5.4 9.6-27 9.6-27z" class="BT"/><path d="M50.8 362h-9.6s-.2-1.5.3-2.6 1.2-1.5 1.1-2.8c.6.6 1.6 1.3 3 1.1.2.3 1.1 1.8 1.7 2.2.5.4 3.3.2 3.5 2.1z" class="BU"/><path d="M84.9 299c-1.3.2.2 1.2-1.6 1.4-2.5.3-5.1.5-6.5 1-.5.2-.8.4-.9.8-.6 1.8-4.3 4.8-4.3 4.8-16.7-.8-17.8-8.2-17.8-8.2 10.8-10.5 20.1-16.3 27.7-17 1.9-.2 4.4.1 5.5.6 2.7 1.2 4.1 4.8 4.1 4.8s-1.3 11-6.2 11.8z" class="BO"/><path d="M83.4 300.4c-2.5.3-5.1.5-6.5 1-.6-8.3 3.4-14.6 3.4-14.6l3.1 13.6z" class="BV"/><g class="BP"><path d="M85.5 285.4s-6.3-.3-7.5 3.6c-1.1 4 2.1 19.9 2.8 21.5 1.3 3 7.5 11.5 7.5 11.5l2.3-.7s-4.1-13-5.1-14.3c-1.4-1.9 1.9-19.8 0-21.6z"/><path d="M90.6 321.4s.1 1 .5 1.5 1.7 1.8 1.7 2.5c0 0-.1.3-.3.3-.3-.1-1.2-1-1.7-.9 0 0 .3 1.5.5 1.9.3.4.1 2.2-.1 2.5-.2.4-2-1.9-2.8-3-.8-1 0-5.2 0-5.2l2.2.4z"/></g><path d="M76.8 294.4c0 .1 6 1.1 9.8-.8 0 0 3.1-9.8-1.3-9.3-4.5.5-7.1 1.9-7.2 4-.2 2.1-1.3 6.1-1.3 6.1z" class="BO"/><path d="M86.9 283.1c.5 1.5 2.1 5.8 4.3 4.1-.1-.3.4-1.2.9-2.2l1.5-2.4-3.6-3.1-.2-.2c-.9 1.6-1.9 2.4-2.7 3-.2.2-.3.5-.2.8z" class="BP"/><path d="M93.6 282.6l-1.5 2.4c-2.2-1.4-2.2-4.1-2.1-5.6l3.6 3.2z" fill="#f99352"/><path d="M93.7 284.2s-5.4-3-3.5-6.4c1.9-3.3 2.5-6 6.1-4.2 3.5 1.8 3.5 3.4 3.1 4.7s-4.2 6.6-5.7 5.9z" class="BP"/><path d="M100.3 276.4c-.2-1.5-1-1.6-1.5-1.5-2-3.3-5.3-2-5.3-2-1.7 2.2-4.3 2.6-4.3 2.6s.6 1.2 3.2 1.9c.8.2 1.7.1 2.6-.2-1.8 1-3.7 1.4-3.7 1.4 3.4.3 6.7-2.8 7-3.1.2.5.4 1.5.3 2.2-.2 1-1.1 2.8-.6 3.1 0-.1 2.7-2.2 2.3-4.4z" class="BS"/><path d="M107.4 312.2s-1.5 1.1-.4 1.9c1.1.7 3.2.9 3.2.5.1-1.7-.7-2.9-2.8-2.4z" class="BP"/><use xlink:href="#B" class="BO"/><g class="BQ"><use xlink:href="#C"/><path d="M121.6 231.8c-.2-.7.1-1.3.8-1.3s1.3.6 1.4 1.3c.2.7-.1 1.3-.8 1.3s-1.2-.6-1.4-1.3zm1.7 0c-.1-.5-.4-.8-.8-.8-.3 0-.5.3-.4.8s.4.8.8.8c.3 0 .5-.3.4-.8z"/><use xlink:href="#C" x="46.3" y="-0.1"/><use xlink:href="#D"/><use xlink:href="#E"/><use xlink:href="#F"/><use xlink:href="#G"/><use xlink:href="#G" x="3.4"/><use xlink:href="#B" x="89.3" y="-18.3"/><use xlink:href="#B" x="92.5" y="-18.3"/><use xlink:href="#B" x="96" y="-18.3"/><use xlink:href="#H"/><use xlink:href="#C" x="115.1" y="-0.2"/><use xlink:href="#H" x="5.6"/><path d="M242.3 231.6c-.2-.7.1-1.3.8-1.3s1.3.6 1.4 1.3c.2.7-.1 1.3-.8 1.3s-1.3-.6-1.4-1.3zm1.6 0c-.1-.5-.4-.8-.8-.8s-.5.3-.4.8.4.8.8.8.6-.3.4-.8z"/><use xlink:href="#B" x="15.9" y="-12.7"/><use xlink:href="#E" x="-22.7" y="5.5"/><use xlink:href="#I"/><use xlink:href="#C" x="116.4" y="5.3"/><use xlink:href="#I" x="5.6"/><use xlink:href="#B" x="121" y="-12.9"/><use xlink:href="#C" x="134.3" y="5.2"/><path d="M142.4 266.7c-.2-.7.1-1.3.8-1.3s1.3.6 1.4 1.3c.2.7-.1 1.3-.8 1.3s-1.3-.6-1.4-1.3zm1.7 0c-.1-.5-.4-.8-.8-.8-.3 0-.5.3-.4.8s.4.8.8.8c.3 0 .5-.4.4-.8z"/><use xlink:href="#J"/><use xlink:href="#C" x="29.8" y="34.8"/><use xlink:href="#B" x="25.4" y="16.7"/><use xlink:href="#K"/><use xlink:href="#B" x="32.1" y="16.7"/><use xlink:href="#J" x="57.7"/><use xlink:href="#J" x="61.1"/><use xlink:href="#C" x="90.8" y="34.8"/><path d="M226 266.7c-.2-.7.1-1.3.8-1.3s1.3.6 1.4 1.3c.2.7-.1 1.3-.8 1.3-.6 0-1.2-.6-1.4-1.3zm1.7 0c-.1-.5-.4-.8-.8-.8s-.5.3-.4.8.4.8.8.8.5-.4.4-.8z"/><use xlink:href="#I" x="-3" y="29.6"/><use xlink:href="#C" x="113.4" y="34.8"/><use xlink:href="#F" x="27.3" y="34.9"/><use xlink:href="#B" x="89.8" y="16.7"/><path d="M222.5 266.6c-.2-.7.1-1.3.8-1.3s1.3.6 1.4 1.3c.2.7-.1 1.3-.8 1.3-.6 0-1.2-.5-1.4-1.3zm1.7 0c-.1-.5-.4-.8-.8-.8s-.5.3-.4.8.4.8.8.8.5-.3.4-.8z"/><use xlink:href="#J" x="27.2" y="-0.1"/><use xlink:href="#C" x="57" y="34.8"/><use xlink:href="#J" x="32.8" y="-0.1"/><use xlink:href="#G" x="53.3" y="34.8"/><use xlink:href="#C" x="129.1" y="34.7"/><use xlink:href="#J" x="105" y="-0.2"/><path d="M122.5 242.9l-.5.1-.2-.5.7-.2h.4l.6 2.5h-.6l-.4-1.9z"/><use xlink:href="#G" x="-67.4" y="11.9"/><use xlink:href="#J" x="-2.2" y="-23.1"/><use xlink:href="#L"/><use xlink:href="#B" x="20.9" y="-6.4"/><use xlink:href="#C" x="34.3" y="11.7"/><use xlink:href="#C" x="36.5" y="11.7"/><use xlink:href="#F" x="-30.4" y="11.8"/></g><g class="BO"><use xlink:href="#G" x="53.3" y="11.7"/><use xlink:href="#I" x="16.1" y="6.3"/></g><g class="BQ"><use xlink:href="#J" x="106.1" y="-23.3"/><use xlink:href="#C" x="135.9" y="11.6"/><use xlink:href="#C" x="4.4" y="18.1"/><path d="M126 249.9c-.2-.7.1-1.3.8-1.3s1.3.6 1.4 1.3c.2.7-.1 1.3-.8 1.3s-1.3-.5-1.4-1.3zm1.7 0c-.1-.5-.4-.8-.8-.8-.3 0-.5.3-.4.8s.4.8.8.8c.3 0 .5-.3.4-.8z"/><use xlink:href="#E" x="-29.6" y="18.2"/><use xlink:href="#G" x="-46.8" y="18.2"/></g><g class="BO"><use xlink:href="#L" x="-14.6" y="18.6"/><use xlink:href="#C" x="16.3" y="30.3"/></g><g class="BQ"><use xlink:href="#C" x="5.8" y="24"/><use xlink:href="#K" x="-30.7" y="-10.8"/><use xlink:href="#B" x="1.4" y="5.9"/><use xlink:href="#C" x="14.8" y="24"/><use xlink:href="#B" x="7" y="5.9"/><use xlink:href="#G" x="-52.1" y="24.1"/><use xlink:href="#E" x="-28.2" y="24.1"/><use xlink:href="#G" x="-45.4" y="24.1"/><use xlink:href="#G" x="-42" y="24.1"/><use xlink:href="#L" x="6.3" y="12.2"/><use xlink:href="#C" x="37.2" y="24"/><use xlink:href="#C" x="39.4" y="24"/><use xlink:href="#J" x="15.3" y="-10.9"/><use xlink:href="#C" x="7.3" y="30.4"/><use xlink:href="#J" x="-16.8" y="-4.5"/><path d="M137.9 262.2c-.2-.7.1-1.3.8-1.3s1.3.6 1.4 1.3c.2.7-.1 1.3-.8 1.3-.7-.1-1.3-.6-1.4-1.3zm1.6 0c-.1-.5-.4-.8-.8-.8-.3 0-.5.3-.4.8s.4.8.8.8c.4-.1.6-.4.4-.8z"/><use xlink:href="#B" x="11.9" y="12.2"/><use xlink:href="#G" x="-56.6" y="44.5"/><use xlink:href="#C" x="19.3" y="44.4"/><use xlink:href="#C" x="10.3" y="44.4"/><use xlink:href="#F" x="-56.6" y="44.5"/></g><g class="BO"><use xlink:href="#G" x="-51" y="44.5"/><use xlink:href="#G" x="-47.6" y="44.5"/></g><g class="BQ"><use xlink:href="#F" x="-57.4" y="49"/><use xlink:href="#C" x="15.1" y="48.9"/><use xlink:href="#F" x="-51.8" y="49"/><use xlink:href="#G" x="-51.8" y="49"/><use xlink:href="#B" x="15.3" y="12.2"/><use xlink:href="#K" x="-10.1" y="-4.5"/></g><g class="BO"><use xlink:href="#J" x="-6.2" y="25.9"/><use xlink:href="#C" x="23.5" y="60.7"/></g><g class="BQ"><use xlink:href="#C" x="13" y="54.4"/><use xlink:href="#B" x="5.3" y="36.3"/><use xlink:href="#F" x="-50.5" y="54.5"/><use xlink:href="#C" x="22" y="54.4"/><use xlink:href="#C" x="14.6" y="60.8"/><use xlink:href="#M"/><use xlink:href="#B" x="15.8" y="42.6"/><use xlink:href="#F" x="-40" y="60.8"/></g><g class="BO"><use xlink:href="#B" x="11.5" y="47.1"/><use xlink:href="#C" x="24.8" y="65.2"/></g><g class="BQ"><use xlink:href="#H" x="-93.6" y="65.4"/><use xlink:href="#D" x="-21.5" y="65.3"/><use xlink:href="#D" x="-18.1" y="65.3"/><use xlink:href="#B" x="22.5" y="42.6"/><use xlink:href="#B" x="25.9" y="42.6"/><use xlink:href="#C" x="125.1" y="17.9"/><use xlink:href="#H" x="15.6" y="18.1"/><use xlink:href="#B" x="120.7" y="-0.2"/><use xlink:href="#F" x="64.9" y="18"/><use xlink:href="#C" x="137.4" y="17.9"/><use xlink:href="#M" x="104.9" y="-36.8"/><use xlink:href="#C" x="125.1" y="24"/></g><g class="BO"><use xlink:href="#M" x="110.5" y="-36.8"/><use xlink:href="#J" x="104.3" y="-10.9"/><path d="M253.4 255.8c-.2-.7.1-1.3.8-1.3s1.3.6 1.4 1.3c.2.7-.1 1.3-.8 1.3s-1.2-.6-1.4-1.3zm1.7 0c-.1-.5-.4-.8-.8-.8-.3 0-.5.3-.4.8s.4.8.8.8.5-.4.4-.8z"/><use xlink:href="#C" x="137.4" y="23.9"/></g><g class="BQ"><use xlink:href="#C" x="136.7" y="58.9"/><use xlink:href="#J" x="112.6" y="24"/><use xlink:href="#L" x="114.8" y="47.1"/><use xlink:href="#C" x="133.4" y="63"/><use xlink:href="#I" x="22.6" y="57.7"/><path d="M258.4 294.8c-.2-.7.1-1.3.8-1.3s1.3.6 1.4 1.3c.2.7-.1 1.3-.8 1.3s-1.3-.6-1.4-1.3zm1.6 0c-.1-.5-.4-.8-.8-.8s-.5.3-.4.8.4.8.8.8.5-.4.4-.8z"/><use xlink:href="#J" x="119.3" y="24"/><use xlink:href="#C" x="149.1" y="58.8"/></g><path d="M314 261.5c1.2-.1 4.1.2 6 2.8s.6 5.6 5.3 7.9 4 5.3 3.1 8.9c-.9 3.7-4.9 8.1-9.6 7.9s-12.7-9.9-12.4-13.1 1.7-3.6.6-5.8c-1.8-3.3 1.4-8.1 7-8.6z" class="BY"/><path d="M315.9 276.9s0-.1 0 0c-.5-.2-.5-1 0-4.2h-.2l-4.2.2-.3 2.5c0 .2-.1.5-.1.7-3.3 3.2 3.5 4.6 4.8.8z" class="BP"/><path d="M307.3 361.9h9.1s.2-1.4-.3-2.4-1.2-1.6-1.2-2.4c-.6.6-1.3 1-2.6.8-.2.3-1 1.7-1.6 2-.6.4-3.2.3-3.4 2z" fill="#033c7e"/><path d="M317.9 324.9c-.8 2.1-1.5 4-1.3 5.6 0 .2.1.4.1.5 3 11.9-1.2 27.3-1.2 27.3s-1.1.3-1.9.3c-1.4.1-1.6-.3-1.6-.3s-1.4-12.6-6-36.7c-.7-3.5-.9-5.4-1.2-8.5-.1-.9-.1-2-.2-3.2-.2-3.2.3-8.7 2.7-10.2 1.1-.7 2.6-.5 4.7 1.1.2.1.3.3.5.4 12.4 9.2 8 17.4 5.4 23.7z" class="BT"/><path d="M316.6 330.5c-.1-.5-4.6-16.2-4.7-17.4-.2-2.6 5.8 4.5 6 11.7-.8 2.2-1.5 4.1-1.3 5.7z" class="BU"/><path d="M348.4 342.9l-3.8-8.2s-1.3.4-2.1 1.2c-.7.8-1.2.7-2.9-.5.6 1 .7 1.5 1.1 2.8.3 0 2 1.7 3.8 2.2.7.1 2.2 3 3.9 2.5z" fill="#033c7e"/><path d="M308.9 303.5s8.1 28.2 11.1 30 17.7 5.4 22 6.3c0 0 .2-1.2-.1-2.4-.1-.3-.5-1.2-.5-1.2s-7.7-7.7-15.3-8.8c-1.6-.2.6-24.9-10.1-25.9-9.7-.8-7.1 2-7.1 2z" class="BT"/><path d="M296.9 259.2l.4-1.6c.1-.3-.5-2.3-1-2.6-.4-.2-1.6 1.1-1.2 2.1.2.5.4 2.3.4 2.3l1.4-.2zm37.4 1.6c.1.1.1.3.2.5v-.2c0-.4 1.4-2.5 2-2.6s1.4 1.8.7 2.9l-1.5 2.5-1.3-.8s0-.5-.3-1c-.2-.2-.2-1.2-.2-1.7 0 .2.2 0 .4.4z" class="BP"/><path d="M311.4 272.9l-.3 2.5c2.3.3 3.8-1.6 4.5-2.7l-4.2.2z" fill="#f9924f"/><path d="M316.4 272.2s1.6-1.9 2.2-3.6c.4-1.2.5-5.9-4.3-6 0 0-1.4-.1-2.8.6-1.1.5-2.8 1.8-1.8 6.1l.2 1.4 6.5 1.5z" class="BY"/><path d="M310.3 274s5.8 1 6.4-2.7c.5-3.6 1.7-6-2-6.7-3.7-.8-4.6.5-5.1 1.7-.6 1.1-.8 7.3.7 7.7z" class="BP"/><g class="BY"><path d="M311.4 264s1.6 4.5 3.9 5.5c2.4 1 3.5.5 3.5.5s-1.7-1.8-1.7-4.5c.1.1-4.2-3.3-5.7-1.5z"/><path d="M312.3 264.5s-1.1.3-2 1.4c-.6.8-.8 1.8-1.1 2.9 0 0-.8-3.1.8-4.5 1.7-1.6 2.3.2 2.3.2z"/></g><path d="M335.9 264s-1.3 10.5-4 13c-1.9 1.7-8.5 4.5-10.1 7.1-.2.3-.4 1.2-.6 2.5-.5 3.8-.7 11.2 1.8 18.7.1.3.2.7.4 1 .3.9-.1 1.9-1 2.3a41.25 41.25 0 0 1-4.9 1.3c-.4.1-.8.1-1.2.2-5.6.7-9.3-.6-11.3-1.6-.9-.5-1.5-1.4-1.4-2.4.1-2.1 1.1-4.1 1.6-9.1.4-3.8-2.2-9.1-2.1-11.1.1-.8.4-4.3 0-4.9-2.7-3.6-7.1-7.1-7.8-10.4-.8-3.8-.3-11.5-.3-11.5.2-.1.8-.3 1.2-.3.8 0 1.3.7 1.3.7l2.1 7.9c.5 2.7 5.6 6.5 7.1 7.3 1.7.9 3 1.3 4.1 1.4 0 0-1.3 2.2.6 2.5 2.2.4 4-2.2 4-2.2s1.4.4 3.8 0c2-.3 9.2-2.7 10.3-4.6.8-1.3 4.8-8.8 4.8-8.8s.4-.2 1 .1.6.9.6.9z" class="BR"/><path d="M312 272s-.2.5-.6.5c-.3 0-1.2-.1-1.2-.2-.1-.1-.2-.6-.2-.6s1.3 0 2 .3z" fill="#fff"/><path d="M323 305.3s-5-.9-5.3-4.4c-.4-3.8 3.5-14.2 3.5-14.2h0c-.5 3.7-.6 11.1 1.8 18.6z" class="BQ"/><path d="M310.8 217.5l-.5-1.9c-.6-2.1-2.3-3.6-4.4-3.8l-13.6-1.6-1 8.6-4.4 36.9 56.4 6.7 4.4-36.9-31.9-3.8c-2.4-.3-4.4-1.9-5-4.2z" class="BO"/><path d="M297.5 238.9l.4-3.3 12.1-3.7-.4 3.4-8.4 2.4 7.7 4.3-.4 3.4-11-6.5zm24.9-9.5l3.1.4-13.1 20.8-3.1-.4 13.1-20.8zm14.8 10.8l-.4 3.3-12.1 3.7.4-3.4 8.4-2.4-7.7-4.3.4-3.4 11 6.5z" fill="#fff"/><path d="M334 262l-.3-1.7c-.1-.2.2-.3.5.3s.9.4 1.2 1 0 .8-.3.7c-.4 0-1.1-.3-1.1-.3zm-37-3.3s.8-.9.8-1.3.6-1.4.4-1.6-.5.1-.6.4c-.2.3-.8.3-.9 1-.2.7.3 1.5.3 1.5z" class="BP"/><g class="BS"><path d="M166.1 254.1l21.4 9.4v-8.4l-11.1-4.6 11.1-4.5v-8.3l-21.4 9.4zm41.1-22.2l-18.5 38.7h7.8l18.5-38.7zm9.2 5.8v8.3l11.2 4.6-11.2 4.6v8.3l21.4-9.4v-7z"/><path d="M188.7 268.4h7.8v2.2h-7.8zm22.7-38.7h3.7v2.2h-3.7z"/></g><path d="M166.1 251.9l21.4 9.4v-8.4l-11.1-4.6 11.1-4.5v-8.3l-21.4 9.4zm41.1-22.2l-18.5 38.7h7.8l18.5-38.7zm9.2 5.8v8.3l11.2 4.6-11.2 4.6v8.3l21.4-9.4v-7z" class="BW"/><path d="M286.1 313.4h-1.3l-10.6-40.7-13.7-52.3H107.3l23.2 93h-1.6l-23.5-94.3 156.1-.1.2.5 13.7 52.6z" class="BQ"/><path d="M286.4 314.3l-1.3.2-10.9-41.8 1.2-.6z" class="BR"/><path d="M129.2 242.3c-.3.3-.3.7-.2 1.1.3.7 1.1 1.5 2.1 2.3l.3.3s.1 0 .1.1l.1.1c.9.9.6 1.1 2.3 2.8 1.9 2 3.2 2 3.6 1.9.3-.2-.3-1.2-1-2.4 0-.1-.1-.1-.1-.2-.1-.2-.2-.3-.3-.5-.8-1.4-.6-2.1-.4-4.2.2-1.7 2.7-9.7 2.7-9.7l-3.7-.6s-1.1 6.3-2.3 7.3c-.7.5-1.4.5-2 .9l-.1.1c-.5.1-.8.4-1.1.7z" class="BP"/><path d="M129.2 242.3c-.3.3-.3.7-.2 1.1.3.7 1.2 1.5 2.1 2.3l.3.3s.1 0 .1.1l.1.1c.9.9.6 1.1 2.3 2.8 1.9 2 3.2 2 3.6 1.9.3-.2-.3-1.2-1-2.4-.4-.1-2.1-.8-3.4-2.5-1.2-1.5-1.9-3.4-2.7-4.5l-.1.1c-.5.1-.8.4-1.1.7z" class="BU"/><path d="M158.8 240c.2 1.1 1.8.9 3.7.5 1.8-.4 1.4.1 4-.2s3.4-1.2 3.4-1.6c.1-.3-1.2-.5-2.6-.6-.2 0-.3 0-.5-.1-1.5-.2-2.7-1.2-4.1-2-1.3-.8-3.3-3.9-3.3-3.9l-3.5.3 2.6 4c.4.7.4 1.7.3 2.4v1.2z" class="BP"/><path d="M162.5 240.5c1.8-.4 1.4.1 4-.2s3.4-1.2 3.4-1.6c.1-.3-1.2-.5-2.6-.6h0s-1.5 1.1-3.7 1.1c-1.7 0-3.6-.5-4.8-.4 0 .4-.1.8 0 1.2.3 1.1 1.9.9 3.7.5z" class="BU"/><path d="M145.3 217.4l-3.3 8.9-4.3 11.6s-1.2.1-2.3-.2c-1-.3-2.2-1.1-2.2-1.1s1.2-12.4 3.4-19.6c.6-1.8 1.2-3.3 1.9-4.2 3.5-4 6.8 4.6 6.8 4.6z" class="BS"/><path d="M142 203.3c-2.2-.7-8.3.2-14.5 1.4l-1.3-2.1-13.4-1s-4.4 9.8-2 16c.4.9 1.1 1.5 2.3 1.5h.2 10.5c6.6 0 14.1-4.6 15-4.8 1.6-.3 2.2 2.8 3.8 6.1s14.8 14.6 14.8 14.6 2 0 2.9-.3 1.2-.8 1.2-.8-14.7-29-19.5-30.6z" class="BT"/><path d="M121.7 161.9c-1.9-.5-4.4 0-4.9 0-5.1.5-6.8 6.2-6 10.6.7 4.1-1.4 5.2-3.7 8.4-4.8 6.4-1.7 11.9 2.1 13.3 2.3.8 5.4-1.3 5.4-1.3.1 0 9.9-6.4 13.9-10.1 6.8-2.6-2-19.7-6.8-20.9z" class="BW"/><path d="M122.5 180.5c.1.5-2.1 1.3-3.8 1-1.6-.3-3.4-2.2-3-2.3.6-.3 1-1 .7-4.9h.3l5.1.6.1 3.1c.1 1.2.4 1.8.6 2.5z" class="BP"/><path d="M121.8 174.9l.1 3.1c-2.8.2-4.5-2.3-5.2-3.7l5.1.6z" fill="#f9924f"/><path d="M122.8 176.2s-6.7.7-7-3.5c-.3-4.1-1.4-6.9 2.8-7.5s5.2.9 5.6 2.3c.5 1.4.4 8.4-1.4 8.7z" class="BP"/><g class="BW"><path d="M122.1 164.6s-.8 5.1-4.6 6.3c-2.8.9-4 .3-4 .3s1.3-1.8 1.8-4.2c.1-.7.7-1.3 1.4-1.5 1.9-.7 4.3-2.5 5.4-.9z"/><path d="M120.9 165.7s1.3.3 2.4 1.9c.6.9 1.3 3.1 1.2 4.1 0 0 1.2-4.7-.5-6.4-1.9-1.9-3.1.4-3.1.4z"/></g><path d="M110.5 194.2l.3 1.4.3 1.8.3 3.7c.1.6.2 1.2.5 2s7.5 1.4 11.6 1.2c1.3-.1 2.3-.3 2.7-.6 1.5-1.3 1.3 1.5 1.5-11.9.1-6.5-5.5-12.4-5.5-12.4s-.5 2.8-6.1-.5c-.2-.1-2.4 3.1-4.5 7.2-2.4 4.3-1.8 5.3-1.1 8.1z" class="BO"/><path d="M142 226.3l-4.3 11.6s-1.2.1-2.3-.2c-1-.3-2.2-1.1-2.2-1.1s1.2-12.4 3.4-19.6l5.4 9.3z" class="BW"/><path d="M122.1 179.4s5.8 1 6.4 3.5c.7 2.5 5.4 16.4 5.4 16.4s-3.6 1.2-5-.1c-1.4-1.4-4.7-12.6-4.7-12.6l-2.1-7.2z" class="BO"/><path d="M145.6 196l1.4-.5s.8-.2 1.3 0c.4.1 1.6.1 1.6.3s-1.3.7-1.3.7h0c.5 1.1 2.9 1.7 3 2.1.1.5-1 .7-1.6.9s-2.1.1-2.8-.6c-.5-.6-1.5-1.4-1.5-1.4V196z" class="BP"/><path d="M121.3 173.8s.3.7 1 .7.9-.1 1.1-.3c.1-.2.3-.5.3-.5s-1.2-.2-2.4.1z" fill="#fff"/><path d="M132.3 194.4l14 1.1s.3 1.4-.6 2.9c0 0-12.6 2.5-15.9 1.2s-2.9-7.2-2.9-7.2l5.4 2z" class="BO"/><path d="M111.1 197.4l.3 3.7c5.2 0 12.2-4 12.2-4l-12.5.3zm12.5-3.9s-8.2-.2-9.5-4.9c-1.5-5.1-3.2 2.1-3.2 2.1l.9 4.6h8.9l2.9-1.8z" class="BV"/><path d="M137.8 181l-.4-1.1c-.5-1.2-1.6-1.9-2.9-1.9h-8.1v5.2 22H160v-22h-19c-1.4-.1-2.7-.9-3.2-2.2z" class="BR"/><path d="M131.5 194.5v-2l6.9-3v2l-4.8 2 4.8 2v2l-6.9-3zm14-7.3h1.8l-6.3 13.1h-1.8l6.3-13.1zm9.4 5.3v2l-6.9 3v-2l4.8-2-4.8-2v-2l6.9 3z" fill="#fff"/><path d="M123.6 194.6l.6-.9s.5-.2 1.1-.6c.8-.5.7-1.4 1.1-1.3v1.8h0c1.7.4 3.6 0 3.7.4.1 1.1-.8 1.7-1.5 2-.6.3-1.2.7-2.2.4l-1.9-.5-.9-1.3z" class="BP"/><path d="M116.1 178.8s-5.3.3-6.6 2.4-3 12.5-2.3 16.1 17.6-.7 17.6-.7l-.5-3.1s-9.8.1-10.3-1.2c-.8-1.6 2.1-13.5 2.1-13.5z" class="BO"/><path d="M141.6 183.1c0 .1.8 1.5 2 1.3.7-.2 1.7-1.8.9-2.1-1.4-.6-2.8.4-2.9.8z" class="BP"/><defs ><path id="B" d="M129.3 249.9c-.2-.7.1-1.3.8-1.3s1.3.6 1.4 1.3c.2.7-.1 1.3-.8 1.3-.6 0-1.2-.5-1.4-1.3zm1.7 0c-.1-.5-.4-.8-.8-.8-.3 0-.5.3-.4.8s.4.8.8.8.5-.3.4-.8z"/><path id="C" d="M119.6 231.1l-.4.1-.2-.5.7-.2h.4l.6 2.5h-.6l-.5-1.9z"/><path id="D" d="M167.9 231.7c-.2-.7.1-1.3.8-1.3s1.3.6 1.4 1.3c.2.7-.1 1.3-.8 1.3s-1.2-.5-1.4-1.3zm1.7 0c-.1-.5-.4-.8-.8-.8-.3 0-.5.3-.4.8s.4.8.8.8.5-.3.4-.8z"/><path id="E" d="M171.3 231.7c-.2-.7.1-1.3.8-1.3s1.3.6 1.4 1.3c.2.7-.1 1.3-.8 1.3s-1.3-.6-1.4-1.3zm1.6 0c-.1-.5-.4-.8-.8-.8-.3 0-.5.3-.4.8s.4.8.8.8.6-.3.4-.8z"/><path id="F" d="M188.5 231.7c-.2-.7.1-1.3.8-1.3s1.3.6 1.4 1.3c.2.7-.1 1.3-.8 1.3s-1.2-.5-1.4-1.3zm1.7 0c-.1-.5-.4-.8-.8-.8-.3 0-.5.3-.4.8s.4.8.8.8c.3 0 .5-.3.4-.8z"/><path id="G" d="M191.8 231.7c-.2-.7.1-1.3.8-1.3s1.3.6 1.4 1.3c.2.7-.1 1.3-.8 1.3-.6 0-1.2-.6-1.4-1.3zm1.7 0c-.1-.5-.4-.8-.8-.8-.3 0-.5.3-.4.8s.4.8.8.8.5-.3.4-.8z"/><path id="H" d="M231.1 231.6c-.2-.7.1-1.3.8-1.3s1.3.6 1.4 1.3c.2.7-.1 1.3-.8 1.3s-1.3-.5-1.4-1.3zm1.6 0c-.1-.5-.4-.8-.8-.8-.3 0-.5.3-.4.8s.4.8.8.8.5-.3.4-.8z"/><path id="I" d="M232.4 237.1c-.2-.7.1-1.3.8-1.3s1.3.6 1.4 1.3c.2.7-.1 1.3-.8 1.3s-1.2-.6-1.4-1.3zm1.7 0c-.1-.5-.4-.8-.8-.8-.3 0-.5.3-.4.8s.4.8.8.8c.3 0 .5-.4.4-.8z"/><path id="J" d="M145.7 266.7c-.2-.7.1-1.3.8-1.3s1.3.6 1.4 1.3c.2.7-.1 1.3-.8 1.3-.6 0-1.2-.6-1.4-1.3zm1.7 0c-.1-.5-.4-.8-.8-.8-.3 0-.5.3-.4.8s.4.8.8.8.5-.4.4-.8z"/><path id="K" d="M158.1 266.6c-.2-.7.1-1.3.8-1.3s1.3.6 1.4 1.3c.2.7-.1 1.3-.8 1.3s-1.3-.5-1.4-1.3zm1.6 0c-.1-.5-.4-.8-.8-.8-.3 0-.5.3-.4.8s.4.8.8.8.6-.3.4-.8z"/><path id="L" d="M146.9 243.6c-.2-.7.1-1.3.8-1.3s1.3.6 1.4 1.3c.2.7-.1 1.3-.8 1.3s-1.3-.6-1.4-1.3zm1.6 0c-.1-.5-.4-.8-.8-.8-.3 0-.5.3-.4.8s.4.8.8.8.6-.4.4-.8z"/><path id="M" d="M136.2 292.6c-.2-.7.1-1.3.8-1.3s1.3.6 1.4 1.3c.2.7-.1 1.3-.8 1.3s-1.3-.6-1.4-1.3zm1.6 0c-.1-.5-.4-.8-.8-.8-.3 0-.5.3-.4.8s.4.8.8.8.5-.4.4-.8z"/></defs></svg>