<svg xmlns="http://www.w3.org/2000/svg" xmlns:xlink="http://www.w3.org/1999/xlink" viewBox="0 0 310 403" xmlns:v="https://vecta.io/nano"><g fill-rule="evenodd"><path d="M163.1 126.5c15.1 5.3 29.5 16.6 40.8 27.2 23.6 22 27.1 26.7 56.2 45.2 17 10.8 30.3 19.9 36.9 32.1 18.5 34.3-3.5 71.2-49.7 71.2H59.5s-22.1.5-38.2-17.8c-54.6-62.1 36-194.9 141.8-157.9" fill="#ebf3fa"/><path d="M34.1 181.7h136.4c3.3 0 5.2 3.2 6.1 6.8L202.1 293c.9 3.6-2.7 6.8-6.1 6.8H55c-3.3 0-5.3-3.2-6.1-6.8L28 188.5c-.7-3.7 2.7-6.8 6.1-6.8" fill="#6192ce"/><path d="M38.1 181.7h136.4c3.3 0 5.2 3.2 6.1 6.8L206.1 293c.9 3.6-2.7 6.8-6.1 6.8H59c-3.3 0-5.3-3.2-6.1-6.8L32 188.5c-.7-3.7 2.8-6.8 6.1-6.8" fill="#89b8f1"/><path d="M39.7 187.2h133.7c1 0 1.5.9 1.8 2L199 283c.3 1-.8 2-1.8 2H59c-1 0-1.5-.9-1.8-2l-19.3-93.8c-.2-1.1.8-2 1.8-2" fill="#ed7d2b"/><path d="M53.1,292.4h186.3v4.9c0,2.7-2.2,4.9-4.9,4.9H58c-2.7,0-4.9-2.2-4.9-4.9V292.4z" fill="#6192ce"/><path d="M158,292.4h138.2v4.9c0,2.7-2.2,4.9-4.9,4.9H163c-2.7,0-4.9-2.2-4.9-4.9V292.4z" fill="#a8c9f1"/><g fill="#355298"><path d="M213.8 296.2h42.4c.5 0 .9.4.9.9s-.4.9-.9.9h-42.4c-.5 0-.9-.4-.9-.9-.1-.4.3-.9.9-.9M69.5 296h46.7v2.8H69.5z"/><path d="M118.6 296h12.3v2.8h-12.3z"/></g><path d="M117.1 197c-8.9 0-16 7.2-16 16 0 8.9 7.2 16 16 16 8.9 0 16-7.2 16-16s-7.1-16-16-16" fill="#fff"/><path d="M106.8 219c2.2 3.5 6.3 6.1 10.4 6.1 4.2 0 7.9-2.2 10.1-5.5-.4-4.2-.1-5.2-5-8.7-1.1 1.9-3 3.1-5.3 3.1s-4.3-1.2-5.3-3.1c-4.9 3.6-4.4 4.2-4.9 8.1m10.2-15.7c-2.6 0-4.6 2.1-4.6 4.6 0 2.6 2.1 4.6 4.6 4.6 2.6 0 4.6-2.1 4.6-4.6s-2.1-4.6-4.6-4.6" fill="#2a4589"/><path d="M147.9 256.7H97a6.02 6.02 0 0 0-6 6 6.02 6.02 0 0 0 6 6h50.9a6.02 6.02 0 0 0 6-6c.1-3.2-2.7-6-6-6" fill="#fff"/><path d="M134.9 259.9h0c-.3 0-.6.3-.6.7v1l-.8-.5c-.3-.2-.7-.1-.9.2s-.1.7.2.9l.8.5-.8.5c-.3.2-.4.6-.2.9s.6.4.9.2l.8-.5v1c0 .4.3.7.6.7s.6-.3.6-.7v-1l.8.5c.3.2.7.1.9-.2s.1-.7-.2-.9l-.8-.5.8-.5c.3-.2.4-.6.2-.9h0c-.2-.3-.6-.4-.9-.2l-.8.5v-1c0-.4-.3-.7-.6-.7m-7.9 0h0c-.3 0-.6.3-.6.7v1l-.8-.5c-.3-.2-.7-.1-.9.2s-.1.7.2.9l.8.5-.8.5c-.3.2-.4.6-.2.9s.6.4.9.2l.8-.5v1c0 .4.3.7.6.7s.6-.3.6-.7v-1l.8.5c.3.2.7.1.9-.2s.1-.7-.2-.9l-.8-.5.8-.5c.3-.2.4-.6.2-.9h0c-.2-.3-.6-.4-.9-.2l-.8.5v-1c0-.4-.3-.7-.6-.7zm-7.9 0h0c-.3 0-.6.3-.6.7v1l-.8-.5c-.3-.2-.7-.1-.9.2s-.1.7.2.9l.8.5-.8.5c-.3.2-.4.6-.2.9s.6.4.9.2l.8-.5v1c0 .4.3.7.6.7s.6-.3.6-.7v-1l.8.5c.3.2.7.1.9-.2s.1-.7-.2-.9l-.8-.5.8-.5c.3-.2.4-.6.2-.9h0c-.2-.3-.6-.4-.9-.2l-.8.5v-1c0-.4-.3-.7-.6-.7zm-7.9 0h0c-.3 0-.6.3-.6.7v1l-.8-.5c-.3-.2-.7-.1-.9.2s-.1.7.2.9l.8.5-.8.5c-.3.2-.4.6-.2.9s.6.4.9.2l.8-.5v1c0 .4.3.7.6.7s.6-.3.6-.7v-1l.8.5c.3.2.7.1.9-.2s.1-.7-.2-.9l-.8-.5.8-.5c.3-.2.4-.6.2-.9h0c-.2-.3-.6-.4-.9-.2l-.8.5v-1c0-.4-.3-.7-.6-.7zm-8 0h0c-.3 0-.6.3-.6.7v1l-.8-.5c-.3-.2-.7-.1-.9.2s-.1.7.2.9l.8.5-.8.5c-.3.2-.4.6-.2.9s.6.4.9.2l.8-.5v1c0 .4.3.7.6.7s.6-.3.6-.7v-1l.8.5c.3.2.7.1.9-.2s.1-.7-.2-.9l-.8-.5.8-.5c.3-.2.4-.6.2-.9h0c-.2-.3-.6-.4-.9-.2l-.8.5v-1c.1-.4-.2-.7-.6-.7zm39.6 0h0c-.3 0-.6.3-.6.7v1l-.8-.5c-.3-.2-.7-.1-.9.2s-.1.7.2.9l.8.5-.8.5c-.3.2-.4.6-.2.9s.6.4.9.2l.8-.5v1c0 .4.3.7.6.7s.6-.3.6-.7v-1l.8.5c.3.2.7.1.9-.2s.1-.7-.2-.9l-.8-.5.8-.5c.3-.2.4-.6.2-.9h0c-.2-.3-.6-.4-.9-.2l-.8.5v-1c0-.4-.3-.7-.6-.7z" fill="#2a4589"/><path d="M144.9 238.6H95.6a6.02 6.02 0 0 0-6 6 6.02 6.02 0 0 0 6 6h49.3a6.02 6.02 0 0 0 6-6 6.02 6.02 0 0 0-6-6" fill="#fff"/><path d="M124 243.1H98.3c-.6 0-1.2.5-1.2 1.2h0c0 .6.5 1.2 1.2 1.2H124c.6 0 1.2-.5 1.2-1.2h0c-.1-.7-.6-1.2-1.2-1.2m19.4 0h-14.7c-.6 0-1.2.5-1.2 1.2h0c0 .6.5 1.2 1.2 1.2h14.7c.6 0 1.2-.5 1.2-1.2h0c0-.7-.5-1.2-1.2-1.2" fill="#2a4589"/><path d="M245.5 233.2c1.5 6.6 10 22.1 10 29.7.1 7.9-.5 12.8-1 20.3-.1 1.4.1 3 1.6 3.8 1.3.7 4 1.3 4.8 2.1.6.5 2.7 3.6-5 3.4-5.5-.1-6.9-.5-7.5-1.4 0-.1-1.7-11.9-2.3-24.1-.3-4.4-10.7-18.8-11.5-20-.5 2.2-7.2 19.6-13.2 25.4-8.8 8.5-17.2 15.1-17.2 15.1.1.7-.4 1.2.6 2.3.3 1.1 1 3-4.3 2.9-5.4 0-3.9-3.6-3.9-4 1-6.8 9.1-14.8 16.9-22.1 5.2-4.9 6.2-27.1 6.8-34.5 0 0 7.1-.1 11-2.3 5.9-3.3 9.6-16.9 8.5-2.9-.3 2.6 4.7 2.7 5.7 6.3" fill="#0b366e"/><path d="M235.6 204.6c2.1 3.9 5.7 7.7 8.2 12.5 1.8 3.4 9.2-2.9 11.1-2.2 1.5.6 3.4-3 3.4-5.6.4-.9-8.4 4.9-9.8 1.3-3.1-8.1-7-13.6-12.1-14.8-.6-.3-2.6 6.4-.8 8.8" fill="#ed7d2b"/><path d="M217.5 213.1c1.1 5 2.1 18 2.1 26.7 10.5 1.2 21.4 0 27.5-2.3-.7-6.9-.4-40-10.8-41.7-7-1.6-16.2-.4-19.9 3.5-5.3 4.2-10.7 14-13.3 20.1-2.4 5.7-3.1 13-3 13.8.2 2.5 2.5 2.7 3.7 2.1 1.4-.7 1.4-6.5 5.6-13 2.4-3.5 6.5-7.2 8.1-9.2" fill="#f99746"/><path d="M217.5 213.1c1.1 5.1 1.9 16.1 2 22.7 2.4-6.9.6-22.6-.1-25.3-.8 1.3-1.2 1-1.9 2.6" fill="#ed7d2b"/><path d="M234.1 190.1c-.7 1.5-1.6 2.7-2.7 3.3l.2 2.1.3.2c1.3 1.2.1 4-1.3 4-3.5.4-6.3-2.3-5.3-4l.4-.5-.1-3c-.2 0-1.5-.7-1.9-.8s-1-.8-1.1-1.6 1.2-.6 1.2-.6c-1.6-1.9-3.4-3.5-1.3-5.5 2.1-1.9 7-3.3 7-3.3l3-1.2c-.3 1.1.4 4.5 1.3 6.6.7 2 1.2 2.2.3 4.3" fill="#f7aaac"/><path d="M227.1 192.5s1.9 2.8 3.3 3 .7 0 1.2-.1l-.2-2.1c-1 .3-1.9.2-4.3-.8" fill="#ea8287"/><path d="M232.2 183.8c-2.4 1.4-5.4.1-6.8 1.8-.7.9-.5 2.1.4 4 .3.5.6.9-.4.6-.4-.2-1.2-.4-1.4-.2-.5.5-.2 1.4.3 1.6l.6.3c-3.4-.5-5-3.4-5.1-5.9l.1-2.2c-.1-.2-.1-.5-.1-.7a2.21 2.21 0 0 1 1.5-2.3c.1-1.1 1-2 2.1-2.1.3 0 .7 0 .9.2h.1c.4-.7 1.1-1.2 2-1.3.6 0 1.2.2 1.6.5.6-.9 1.5-1.4 2.5-1.5 1.8-.1 3.4 1.5 3.5 3.6.1 1.3-.5 2.5-1.3 3.2-.1.1-.3.2-.5.4" fill="#0b366e"/><path d="M204 234.7v.3l.8 3.4c.2.4.9 2.8 0 2.2-.6-.4-1.6-1.8-1.7-1.8-.8.5-1.8 5.1-1.9 5.2-1 .7-.5-2.3-.5-2.8 0-.1-.8 2-.9 1.9s-.4-.4-.3-.9c.1-.7.4-1.8.3-2-.1-.1-.9 1.9-1 1.8s-.2-.3-.2-.7c.1-.7.5-1.8.4-1.9-.1-.2-.5 1.3-.6 1.2 0-.1-.3-.2-.3-.3.3-3.6 1.2-2.7 2.2-6.1.6-1.9 3.7-.2 3.7.5" fill="#f7aaac"/></g><defs><path id="A" d="M265.3 184.3h-2 0l-1.8 1.2c-4.4 3-8 4.8-13 5.7l-2.8.5-.2 3.4c-1 15.1 5.4 30.3 17.4 39.6h2.3v-1.3l.1-.1c10.2-7.9 16.8-23.7 15.8-38.3l-.2-3.4-2.8-.6c-4.9-1-8.5-2.7-12.8-5.6v-1.1z"/><path id="B" d="M213.6 168.4l-56.7.1c-2.5 0-4.6-2-4.6-4.6v-29.3c0-2.5 2-4.6 4.6-4.6l56.7-.1c2.5 0 4.6 2 4.6 4.6v29.3c0 2.6-2 4.6-4.6 4.6z"/></defs><clipPath id="C"><use xlink:href="#A"/></clipPath><linearGradient id="D" gradientUnits="userSpaceOnUse" x1="245.332" y1="255.236" x2="268.104" y2="197.46"><stop offset="0" stop-color="#ea6200"/><stop offset="1" stop-color="#ffc045"/></linearGradient><path d="M244.5 184.3h37.6v50.5h-37.6z" clip-path="url(#C)" fill="url(#D)"/><path d="M265.3 234.8l-3.2-2.4c-9.5-8.2-15.4-23.2-14.5-37.2l.2-3.4 2.8-.5c5-.9 8.6-2.8 13-5.7l1.8-1.2 1.8 1.2c4.4 3 8 4.7 13 5.7l2.8.6.2 3.4c1 14.6-5.6 30.4-15.8 38.3l-2.1 1.2z" fill-rule="evenodd" fill="gold"/><g fill="#f79646"><path d="M253.3 196.5c-.2 5.2.6 10.5 2.1 15.3 2.1 6.9 5.9 13.4 10.7 17.5 4.8-4.2 8.6-10.7 10.7-17.5 1.5-4.8 2.3-10.1 2.1-15.3-2.2-.5-4.4-1.2-6.5-2.2-2.2-1-4.3-2.4-6.3-3.8-2.2 1.5-4.3 2.9-6.7 4-1.9.9-4 1.5-6.1 2"/><path d="M253.3 196.5c-.2 5.2.6 10.5 2.1 15.3 2.1 6.9 5.9 13.4 10.7 17.5h0v-38.9c-2.2 1.5-4.3 2.9-6.7 4-1.9 1-4 1.6-6.1 2.1"/></g><path d="M266.1 192.2v35.3c4.3-4 7.7-10 9.6-16.2 1.3-4.3 2.1-8.9 2-13.5-1.9-.5-3.9-1.2-5.7-2.1-2-1-4-2.2-5.9-3.5" fill="#fbb44a"/><defs><path id="E" d="M58 136.5c-8.4 0-15.2 7.2-15.2 16 0 1 .1 2 .3 2.9-3.2.2-5.8 3.1-5.8 6.5 0 3.6 2.8 6.5 6.2 6.5H58h.7H65h30.3 8.3 7.3 8 6.4c7.9-.2 6.3-12.4-1.8-12.3.4-9.5-7.6-20.5-21.8-17.1-.2-2.3-1-5.7-2.8-8.9-3.7-6.7-10.7-11.2-18.6-11.2-10.2 0-18.8 7.5-21 17.5-.4.2-.9.1-1.3.1"/></defs><clipPath id="F"><use xlink:href="#E"/></clipPath><linearGradient id="G" gradientUnits="userSpaceOnUse" x1="85.217" y1="163.231" x2="85.217" y2="120.804"><stop offset="0" stop-color="#007df9"/><stop offset="1" stop-color="#ebf6fc"/></linearGradient><path d="M37.1 119.1h96.1v49.4H37.1z" clip-path="url(#F)" fill="url(#G)"/><defs><path id="H" d="M64.4 136.5c-8.4 0-15.2 7.2-15.2 16 0 1 .1 2 .3 2.9-3.2.2-5.8 3.1-5.8 6.5 0 3.6 2.8 6.5 6.2 6.5h14.6.7 6.4 30.3 8.3 7.3 8 6.4c7.9-.2 6.3-12.4-1.8-12.3.4-9.5-7.6-20.5-21.8-17.1-.2-2.3-1-5.7-2.8-8.9-3.7-6.7-10.7-11.2-18.6-11.2-10.2 0-18.8 7.5-21 17.5-.5.2-1 .1-1.5.1"/></defs><clipPath id="I"><use xlink:href="#H"/></clipPath><linearGradient id="J" gradientUnits="userSpaceOnUse" x1="91.708" y1="163.231" x2="91.708" y2="101.467"><stop offset="0" stop-color="#007df9"/><stop offset="1" stop-color="#ebf6fc"/></linearGradient><path d="M43.6 119.1h96.1v49.4H43.6z" clip-path="url(#I)" fill="url(#J)"/><path d="M87.7 133.1c8.2 0 14.9 6.7 14.9 14.9s-6.7 14.9-14.9 14.9-14.9-6.7-14.9-14.9c-.1-8.2 6.6-14.9 14.9-14.9" fill-rule="evenodd" fill="#0e88e7"/><use xlink:href="#B" fill="#89b8f1"/><use xlink:href="#B" fill="none" stroke="#89b8f1" stroke-width=".216" stroke-miterlimit="10"/><g fill-rule="evenodd"><path d="M212.2 154.3c.2 0 .4-.1.5-.2a.76.76 0 0 0 .2-.4c0-.2-.1-.3-.2-.5-.1-.1-.3-.2-.5-.2s-.4.1-.5.2-.2.3-.2.5.1.3.2.5c.2 0 .3.1.5.1m-.1 1.3c.3 0 .5-.1.7-.3.1-.2.2-.5.2-.9a1.38 1.38 0 0 1-.4.3c-.2.1-.3.1-.5.1-.3 0-.6-.1-.8-.3s-.3-.5-.3-.8c0-.4.1-.6.3-.8s.5-.3.9-.3c.6 0 1 .3 1.2.8.1.3.2.6.2 1s0 .7-.1.9l-.3.6c-.3.3-.6.4-1 .4s-.7-.1-1-.4l.3-.4c.1.1.2.1.3.2.1-.1.2-.1.3-.1zm-3.4-1.7c.1.1.3.2.5.2s.3-.1.5-.2c.1-.1.2-.2.2-.4s-.1-.3-.2-.4-.3-.2-.5-.2-.3.1-.5.2c-.1.1-.2.2-.2.4a.76.76 0 0 0 .2.4zm-.1 1.6c.2.1.3.2.5.2s.3-.1.5-.2.2-.2.2-.4-.1-.3-.2-.4-.3-.2-.5-.2-.4.1-.5.2-.2.2-.2.4a.76.76 0 0 0 .2.4zm-.3-2.7c.2-.2.5-.3.9-.3.3 0 .6.1.9.3.2.2.3.4.3.7s-.1.5-.4.7c.3.2.5.5.5.9 0 .3-.1.6-.4.8-.2.2-.6.3-1 .3a1.69 1.69 0 0 1-1-.3c-.2-.2-.4-.5-.4-.8 0-.4.2-.7.5-.9-.3-.2-.4-.5-.4-.7.1-.3.3-.6.5-.7zm-3.4.8v-1h2.5v.5l-1.5 3h-.7l1.5-3h-1.3v.5h-.5zm-1.7.8c-.2 0-.4.1-.5.2a.76.76 0 0 0-.2.4c0 .2.1.3.2.5.1.1.3.2.5.2s.4-.1.5-.2a.76.76 0 0 0 .2-.4c0-.1-.1-.3-.2-.5-.2-.2-.3-.2-.5-.2zm.1-1.4c-.3 0-.5.1-.7.3-.1.2-.2.5-.2.9a1.38 1.38 0 0 1 .4-.3c.2-.1.3-.1.5-.1.3 0 .6.1.8.3s.3.5.3.8-.1.6-.3.8-.5.3-.9.3c-.6 0-1-.3-1.2-.8-.1-.3-.2-.6-.2-1s0-.7.1-.9l.3-.6c.3-.3.6-.4 1-.4s.7.1 1 .4l-.3.4c-.1-.1-.2-.1-.3-.2-.1.2-.2.1-.3.1zm-5.1-.4v.5h-1.5v.9c.1-.1.3-.1.5-.1.3 0 .6.1.9.3.2.2.4.5.4.8s-.1.6-.4.9c-.3.2-.6.3-.9.3-.5 0-.9-.2-1.1-.5l.3-.4.1.1s.1.1.3.2c.1.1.3.1.5.1s.3-.1.5-.2a.76.76 0 0 0 .2-.4c0-.2-.1-.3-.2-.5-.1-.1-.3-.2-.6-.2-.2 0-.4.1-.6.2l-.3-.3v-1.7h1.9zm-3.7 2.1v-.7h.6v.7h.4v.5h-.4v.9h-.6v-.9H193v-.5l1.3-2.1h.7l-1.3 2.1h.8zm-4.2-1.6v-.5h2.1v.5l-.9 1c.3 0 .6.1.8.3s.3.4.3.7c0 .4-.1.6-.4.9-.2.2-.6.3-.9.3-.4 0-.8-.1-1.1-.4l.3-.5c.3.2.6.3.9.3.2 0 .4 0 .5-.1s.2-.2.2-.4-.1-.3-.2-.4-.4-.2-.6-.2c-.1 0-.3 0-.4.1v-.5l.8-1h-1.4zm-2 1.4c.2-.2.4-.4.5-.6a.76.76 0 0 0 .2-.4.76.76 0 0 0-.2-.4c-.1-.1-.2-.2-.4-.2-.3 0-.5.1-.7.4l-.5-.3c.2-.2.3-.4.5-.5s.4-.2.7-.2.6.1.8.3.3.4.3.8c0 .2 0 .4-.1.5-.1.2-.3.4-.5.6l-.8.9h1.6v.6h-2.4v-.5l1-1zm-6.3-.6c.1.1.3.2.5.2s.3-.1.5-.2c.1-.1.2-.2.2-.4s-.1-.3-.2-.4-.3-.2-.5-.2-.3.1-.5.2c-.1.1-.2.2-.2.4a.76.76 0 0 0 .2.4zm0 1.6c.2.1.3.2.5.2s.3-.1.5-.2.2-.2.2-.4-.1-.3-.2-.4-.3-.2-.5-.2-.4.1-.5.2-.2.2-.2.4c0 .1 0 .3.2.4zm-.4-2.7c.2-.2.5-.3.9-.3.3 0 .6.1.9.3.2.2.3.4.3.7s-.1.5-.4.7c.3.2.5.5.5.9 0 .3-.1.6-.4.8-.2.2-.6.3-1 .3a1.69 1.69 0 0 1-1-.3c-.2-.2-.4-.5-.4-.8 0-.4.2-.7.5-.9-.3-.2-.4-.5-.4-.7.2-.3.3-.6.5-.7zm-3.4.8v-1h2.5v.5l-1.5 3h-.7l1.5-3h-1.3v.5h-.5zm-1.7.8c-.2 0-.4.1-.5.2a.76.76 0 0 0-.2.4c0 .2.1.3.2.5.1.1.3.2.5.2s.4-.1.5-.2a.76.76 0 0 0 .2-.4c0-.1-.1-.3-.2-.5s-.3-.2-.5-.2zm.1-1.4c-.3 0-.5.1-.7.3-.1.2-.2.5-.2.9a1.38 1.38 0 0 1 .4-.3c.2-.1.3-.1.5-.1.3 0 .6.1.8.3s.3.5.3.8-.1.6-.3.8-.5.3-.9.3c-.6 0-1-.3-1.2-.8-.1-.3-.2-.6-.2-1s0-.7.1-.9l.3-.6c.3-.3.6-.4 1-.4s.7.1 1 .4l-.3.4c-.1-.1-.2-.1-.3-.2-.1.2-.2.1-.3.1zm-2.2-.4v.5h-1.5v.9c.1-.1.3-.1.5-.1.3 0 .6.1.9.3.2.2.4.5.4.8s-.1.6-.4.9c-.3.2-.6.3-.9.3-.5 0-.9-.2-1.1-.5l.3-.4.1.1s.1.1.3.2c.1.1.3.1.5.1s.3-.1.5-.2a.76.76 0 0 0 .2-.4c0-.2-.1-.3-.2-.5-.1-.1-.3-.2-.6-.2-.2 0-.4.1-.6.2l-.3-.3v-1.7h1.9zm-7.9 2.1v-.7h.6v.7h.4v.5h-.4v.9h-.6v-.9H165v-.5l1.3-2.1h.7l-1.3 2.1h.8zm-4.3-1.6v-.5h2.1v.5l-.9 1c.3 0 .6.1.8.3s.3.4.3.7c0 .4-.1.6-.4.9-.2.2-.6.3-.9.3-.4 0-.8-.1-1.1-.4l.3-.5c.3.2.6.3.9.3.2 0 .4 0 .5-.1s.2-.2.2-.4-.1-.3-.2-.4-.4-.2-.6-.2c-.1 0-.3 0-.4.1v-.5l.8-1h-1.4zm-2 1.4c.2-.2.4-.4.5-.6a.76.76 0 0 0 .2-.4.76.76 0 0 0-.2-.4c-.1-.1-.2-.2-.4-.2-.3 0-.5.1-.7.4l-.5-.3c.2-.2.3-.4.5-.5s.4-.2.7-.2.6.1.8.3.3.4.3.8c0 .2 0 .4-.1.5-.1.2-.3.4-.5.6l-.8.9h1.6v.6h-2.4v-.5l1-1zm-3.1-1.9h1.3v3.6h-.6v-3h-.7v-.6z" fill="#fff"/><path d="M152.3 141.9h65.9v6.6h-65.9z" fill="#355298"/><path d="M159.1 160.8h7.3c1 0 1.7.8 1.7 1.7h0c0 1-.8 1.7-1.7 1.7h-7.3c-1 0-1.7-.8-1.7-1.7h0c0-.9.8-1.7 1.7-1.7m-1.3-25h1.9c1 0 1.7.8 1.7 1.7h0c0 1-.8 1.7-1.7 1.7h-1.9c-1 0-1.7-.8-1.7-1.7h0c-.1-1 .7-1.7 1.7-1.7m6.9 0h1.9c1 0 1.7.8 1.7 1.7h0c0 1-.8 1.7-1.7 1.7h-1.9c-1 0-1.7-.8-1.7-1.7h0c0-1 .8-1.7 1.7-1.7" fill="#b1d2fc"/><path d="M296.9 253.8h-13-3.7 0c-2.2.2-3.8 2-3.8 4.2v15.3c0 2.3 1.9 4.2 4.3 4.2H300c2.4 0 4.3-1.9 4.3-4.2V258a4.3 4.3 0 0 0-3.6-4.2l-.3-.1h-3.5z" fill="#46a7f1"/><path d="M282.4 257.8v-9.9-.3-.3h0 0c.2-3.3 2.9-5.9 6.4-5.9 3.3 0 6.2 2.6 6.4 5.9v.3 10.2h3.7v-10.6-.1c-.3-5.3-4.7-9.4-10-9.4s-9.8 4.1-10 9.4h0v.5.4 9.9h3.5z" fill="#1d89e8"/><path d="M278.7 252.9h3.8c.1 0 .2.1.2.2v.9c0 .1-.1.2-.2.2h-3.8c-.1 0-.2-.1-.2-.2v-.9c-.1-.1.1-.2.2-.2m16.4 0h3.8c.1 0 .2.1.2.2v.9c0 .1-.1.2-.2.2h-3.8c-.1 0-.2-.1-.2-.2v-.9c0-.1.1-.2.2-.2" fill="#46a7f1"/><path d="M294.2 253.8h-13-3.7 0c-2.2.2-3.8 2-3.8 4.2v15.3c0 2.3 1.9 4.2 4.3 4.2h19.3c2.4 0 4.3-1.9 4.3-4.2V258a4.3 4.3 0 0 0-3.6-4.2l-.3-.1h-3.5z" fill="#71bdf8"/><path d="M293.3 255.4H282h-3.2 0c-1.9.2-3.3 1.8-3.3 3.7v13.3c0 2 1.7 3.7 3.8 3.7H296c2.1 0 3.8-1.7 3.8-3.7v-13.3c0-1.8-1.4-3.4-3.2-3.6h0-3.3z" fill="#84c9ff"/><path d="M291.2 263.1c0-1.8-1.4-3.2-3.2-3.2h-.4c-1.6.2-2.8 1.5-2.8 3.2 0 1.2.7 2.3 1.7 2.9v5.3a1.36 1.36 0 0 0 1.1.7c.7.1 1.5-.2 1.9-.7V266c1-.6 1.7-1.7 1.7-2.9" fill="#fff"/><path d="M141.5 130.7l-.7-.7c-.3-.3-.4-.8-.2-1.2.4-.7.7-1.5 1-2.3.1-.4.5-.7.9-.7h1c.5 0 1-.4 1-1v-2c0-.5-.4-1-1-1h-1c-.4 0-.8-.3-.9-.7-.2-.8-.5-1.6-.9-2.3-.2-.4-.1-.8.2-1.2l.7-.7c.4-.4.4-1 0-1.4l-1.4-1.4c-.4-.4-1-.4-1.4 0l-.7.7c-.3.3-.8.4-1.2.2-.7-.4-1.5-.7-2.3-1-.4-.1-.7-.5-.7-.9v-1c0-.5-.4-1-1-1h-2c-.5 0-1 .4-1 1v1c0 .4-.3.8-.7.9-.8.2-1.6.5-2.3.9-.4.2-.8.1-1.2-.2l-.7-.7c-.4-.4-1-.4-1.4 0l-1.4 1.4c-.4.4-.4 1 0 1.4l.7.7c.3.3.4.8.2 1.2-.4.7-.7 1.5-1 2.3-.1.4-.5.7-.9.7h-1c-.5 0-1 .4-1 1v2c0 .5.4 1 1 1h1c.4 0 .8.3.9.7.2.8.5 1.6.9 2.3.2.4.1.9-.2 1.2l-.7.7c-.4.4-.4 1 0 1.4l1.4 1.4c.4.4 1 .4 1.4 0l.7-.7c.3-.3.8-.4 1.2-.2.7.4 1.5.7 2.3 1 .4.1.7.5.7.9v1c0 .5.4 1 1 1h2c.5 0 1-.4 1-1v-1c0-.4.3-.8.7-.9.8-.2 1.6-.5 2.3-.9.4-.2.8-.1 1.2.2l.7.7c.4.4 1 .4 1.4 0l1.4-1.4c.4-.4.4-1 0-1.4m-6.4-2.4a5.42 5.42 0 0 1-6.2 0c-3-2.2-3-6.6.1-8.8a5.42 5.42 0 0 1 6.2 0c2.9 2.2 2.9 6.6-.1 8.8z" fill="#b1d2fc"/><path d="M90.1 149.7a1.54 1.54 0 0 0-1.5-1.5h-.2c-.7.1-1.3.7-1.3 1.4 0 .6.3 1 .8 1.3v2.4a.55.55 0 0 0 .5.3.76.76 0 0 0 .8-.3V151c.6-.3.9-.8.9-1.3m3.1-4.2v-1.3h0c-.1-2.4-2.1-4.2-4.5-4.2s-4.4 1.8-4.5 4.2h0v.2.2 1h-.1 0a1.86 1.86 0 0 0-1.7 1.9v6.9c0 1.1.9 1.9 2 1.9H93c1.1 0 2-.9 2-1.9v-6.9c0-.9-.7-1.7-1.6-1.9l-.2-.1h0zm-7.4 0v-1-.1-.1h0 0c.1-1.5 1.3-2.7 2.9-2.7 1.5 0 2.8 1.1 2.9 2.7v.1 1.1h-5.8z" fill="#fff"/></g></svg>