<svg xmlns="http://www.w3.org/2000/svg" xmlns:xlink="http://www.w3.org/1999/xlink" viewBox="0 0 400 520" xmlns:v="https://vecta.io/nano"><style><![CDATA[.BO{fill:#ff912b}.BP{fill:#ffae73}.BQ{fill:#26529f}.BR{fill:#6b98f6}.BS{fill:#e8f2fa}.BT{fill:#c0dbf9}.BU{fill:#fc7600}.BV{fill:#0b3563}.BW{fill:#a9c2ff}.BX{fill:#89aef9}.BY{fill:#2a3967}.BZ{fill:#1e3865}.Ba{fill:#547ce6}]]></style><path d="M378.3 378.2c-22.9 0-356.7.1-356.9-.5v-.1-.1c-.1-.3-51.4-84.2 28.3-142.6 31.2-22.9-2-37.9 22.9-63.4 28.5-29.2 59.6 3.1 91.4-10.2 5.6-2.3 11.2-6.1 16.9-11.9 3.2-3.3 6.6-6.1 10.4-8.5l1.7-1.1c2.2-1.4 4.5-2.6 6.9-3.7l4.9-2.1h0c2.6-1 5.3-1.9 8.1-2.6 3.9-1 8-1.8 12.1-2.4l5.4-.6c35.4-2.6 75.3 12.2 95.9 34 4.1 4.4 23 27.1 8.1 58.2-9.4 19.7 29.9 38.5 43.9 61 35.3 57.2.3 95.8 0 96.6z" class="BS"/><g opacity=".8"><path d="M172.9 226.3c0 3.1-.3 6.1-.8 9.1-1.3 7-4 13.6-7.9 19.3-9 13.2-24.3 21.9-41.5 21.9-20.5 0-38.1-12.3-46-29.9-1-2.3-1.9-4.7-2.6-7.2-1.1-4.2-1.7-8.6-1.7-13.1 0-3.7.4-7.2 1.1-10.7v-.1c2.1-9.5 6.9-18 13.5-24.7 1.9-1.9 3.9-3.6 6.1-5.2 1-.7 2.1-1.5 3.2-2.1 7.6-4.7 16.6-7.4 26.3-7.4 1.3 0 2.5 0 3.8.1 1.8.1 3.5.4 5.2.7 7.2 1.3 13.9 4.2 19.7 8.2h0a50.81 50.81 0 0 1 9.7 8.8c1.5 1.8 2.9 3.6 4.1 5.6.8 1.2 1.5 2.5 2.2 3.7 1.6 3.1 2.9 6.4 3.8 9.8 1.2 4.1 1.8 8.6 1.8 13.2z" fill="#d3e4ff"/><g class="BW"><path d="M105.6 203.9c-2 3.2.8 8.7-5.2 7.2s-9.7-2.2-10 1.2c-.3 3.3 4.5 3.3 4.5 6.9 0 3.5-2.2 4.7-5.5 3s-4.3-4.1-8.2-2.6-6.1.5-7-2.5c-.2-.5-.4-1-.6-1.3v-.1c2.1-9.5 6.9-18 13.5-24.7 1.9-1.9 3.9-3.6 6.1-5.2 1-.7 2.1-1.5 3.2-2.1 1.6.1 3.4.7 5 2.6 3.5 4.3 5.8 2.2 5 7.2s.5 5.7 3.3 5.5 6.2-.2 6.5 2c.4 2-8.6-.3-10.6 2.9zm.3 23.2s-3 3.5-5.6 1.5-1.8-3.3-5.7-2c-3.8 1.3-5.5-.8-7.5.8s-.4 1.8-1.7 5.2c-1.4 3.4-4.2 3.9-2 7.3s6.2 1.6 8.3 3.4 1.4 3.5 4.1 4.3c2.7.7 5.2-1.9 5.2 1.3.1 3.2-1 6.3 2.3 9.3s2.7 3.6 6.1 5.1 7.4.1 6.9-1.9-4.9-2.4-5-4.7 2.2-2.1 1.3-5.1 1.7-4.6.8-6.5-5.9-2.6-5.3-4.5 5.1-.3 5.4-4.4c.2-4.1-2.5-5.5-2.1-9.5.5-4-5-2.1-5.5.4zm67-.8c0 3.1-.3 6.1-.8 9.1-1.3 7-4 13.6-7.9 19.3-1.3.4-2.7.4-4-.1-6.3-2.5-1.6-9.3.9-12.7s-3.9-1.9-8.5-5 .5-11.5-4.3-10.2c-4.8 1.4-10.5 3.1-13.3-1.5s2.5-5.4.1-9.3 1.4-6.1 6.1-6.5c4.8-.4 4.1-3.8 10-4.3s5.8 7 12.3 6.5 6.2 1 6.2 1c.5 0 .9.1 1.4.3 1.2 4.3 1.8 8.8 1.8 13.4zm-5.6-23.1c-5.4 2.6-7.6-4.5-12.2-2.4-4.7 2.2-3.9-2-7.5-4.7-3.7-2.7-11 2.2-10.7-2s5.8-3 7-6.3 6.5-2.5 6.5-2.5c.3-.1.6-.2 1-.2a50.81 50.81 0 0 1 9.7 8.8c1.5 1.8 2.9 3.6 4.1 5.6l2.1 3.7zm-45.7-14.4s2.8-4.1-1.7-5.3-4.4.4-7.9 0-4.9 2.3-2.3 5.3 4.8 8.7 7.1 5.6c2.5-3 2-5.3 4.8-5.6z"/></g></g><path d="M183.1 280.5l-7.7 91.5s-.8 5.5 3.3 5.6h33.8s-5.1-1.2-5-3.8c.1-3.1 9-94.2 9-94.2l-33.4.9z" fill="#6e97f0"/><path d="M215 375.9h-34.1c-2.9 0-3.4-2.6-3.4-4.2 0-.8.1-1.4.1-1.4l.2-2.4.5-6.1.5-5.4.6-6.9.5-5.8 5.5-65 33.3-.9-6.4 65.9-.8 8.8-.2 2.6-.7 7.2-.3 3.1-.5 6.6c0 .3 0 .5.1.7.4 3.1 4.6 3.2 5.1 3.2z" class="BX"/><path d="M102.1 230.7l18.8 75.3 2.5 10.3 8.8 35.1h162.2l-32.2-120.7z" class="BW"/><path d="M102.1 230.7l-2.6.9L128.7 354l3.5-2.6z" class="BX"/><path d="M128.7 354h161.2l4.5-2.6H132.2z" fill="#6e97f0"/><path d="M220.275 377.624h-34.9v-1.7h34.9z" class="BW"/><g fill="#4c86e3"><path d="M211.4 354l-.2 1.3-32.8 6.6.4-5.4.2-2.5z"/><path d="M215 375.9h-34.1c-2.9 0-3.4-2.6-3.4-4.2l32.7-6.1-.5 6.6c0 .3 0 .5.1.7.5 2.9 4.7 3 5.2 3z" opacity=".4"/></g><path d="M102.1 230.7h160.1l26 97H126.3z" fill="#bdd4ff"/><path d="M280.6 323.5H130.8l-5.4-21.3-2.1-8.3-.8-3.4-5.5-21.9-.3-1.1-2.9-11.6-1.3-5.2-1.1-4.4-2.6-10.4h147.7l2.8 10.4 1.3 4.4 1.4 5.2 9.4 34.1h0l.8 2.9.4 1.4 6.5 23.6z" class="BR"/><path d="M259.3 246.3H111.4l-2.6-10.4h147.7z" fill="#5d7afb"/><g fill="#e6f2ff"><use xlink:href="#B"/><use xlink:href="#B" x="4.3"/><use xlink:href="#B" x="8.9"/></g><path d="M187.1 327.7l-54.9 24-5.9-24z" opacity=".5" class="BX"/><path d="M139.4 205.6c-2.6 1-4.4 3.3-4.4 5.8v55.9c0 11.4 5.4 22.2 14.5 28.7l32.9 21.1c2.2 1.4 5.2 1.4 7.3 0l32.9-21.1c9.1-6.5 14.5-17.2 14.5-28.7v-55.8c0-2.6-1.8-4.9-4.6-5.9-39.8-13.6-55.8-14-93.1 0h0z" class="BO"/><path d="M232.6 205.6c-19.4-6.7-33.2-10.1-46.5-10.4V318c1.3 0 2.6-.4 3.7-1.1l32.9-21.1c9.1-6.5 14.5-17.2 14.5-28.7v-55.8c0-2.4-1.8-4.7-4.6-5.7h0z" fill="#ff7b35"/><g fill="#ffd89b"><path d="M189.5 255.4H182c-6.7 0-12.2-5.5-12.2-12.2v-1.5c0-6.7 5.5-12.2 12.2-12.2h7.5c6.7 0 12.2 5.5 12.2 12.2v1.5c-.1 6.8-5.5 12.2-12.2 12.2zm-7.5-20.9c-4 0-7.3 3.3-7.3 7.3v1.5c0 4 3.3 7.3 7.3 7.3h7.5c4 0 7.3-3.3 7.3-7.3v-1.5c0-4-3.3-7.3-7.3-7.3H182z"/><path d="M186.9 289.4h0c-14.4 0-26.1-11.7-26.1-26.1v-12.1c0-3.2 2.6-5.8 5.8-5.8h37.3c4.1 0 7.5 3.3 7.5 7.5v12c0 13.5-11 24.5-24.5 24.5z"/></g><g fill="#ff7b35"><circle cx="186.1" cy="258.6" r="6.6"/><path d="M186.1 261.7h0c.8 0 1.4.6 1.4 1.4v11c0 .8-.6 1.4-1.4 1.4h0c-.8 0-1.4-.6-1.4-1.4v-11c0-.8.6-1.4 1.4-1.4z"/></g><g fill="#d1e4fc"><circle transform="matrix(.7038 -.7104 .7104 .7038 -175.0991 119.1706)" cx="55.4" cy="269.6" r=".3"/><circle transform="matrix(.7037 -.7105 .7105 .7037 -176.2248 118.7608)" cx="54.3" cy="270.7" r=".3"/><circle transform="matrix(.7038 -.7104 .7104 .7038 -177.325 118.2844)" cx="53.2" cy="271.8" r=".3"/><circle transform="matrix(.7039 -.7103 .7103 .7039 -178.4158 117.7944)" cx="52.1" cy="272.9" r=".3"/><circle transform="matrix(.7037 -.7105 .7105 .7037 -179.5599 117.4109)" cx="51" cy="274" r=".3"/><circle transform="matrix(.7038 -.7104 .7104 .7038 -180.663 116.9393)" cx="49.9" cy="275.1" r=".3"/><circle transform="matrix(.7038 -.7104 .7104 .7038 -181.7185 116.4821)" cx="48.8" cy="276.2" r=".3"/><circle transform="matrix(.7037 -.7105 .7105 .7037 -182.8456 116.0723)" cx="47.8" cy="277.3" r=".3"/><circle transform="matrix(.7039 -.7103 .7103 .7039 -183.9325 115.5782)" cx="46.6" cy="278.4" r=".3"/><circle transform="matrix(.7037 -.7105 .7105 .7037 -185.0746 115.1625)" cx="45.5" cy="279.5" r=".3"/><circle transform="matrix(.7038 -.7104 .7104 .7038 -186.1545 114.6856)" cx="44.5" cy="280.6" r=".3"/><circle transform="matrix(.7038 -.7104 .7104 .7038 -187.2809 114.2475)" cx="43.4" cy="281.7" r=".3"/></g><circle cx="63.4" cy="262" r="7.3" class="BT"/><g class="BS"><circle cx="63.4" cy="259" r="2.3"/><path d="M63.4 261.4c-2.3 0-4.1 1.8-4.1 4.1h8.2c0-2.3-1.8-4.1-4.1-4.1z"/></g><path d="M37.1 284.4l-.3-.7c-.3-.7-1-1.2-1.8-1.2h-5v3.2 13.5h20.6v-13.5H39c-.8 0-1.6-.5-1.9-1.3z" class="BT"/><path d="M43.5 290.2h-.7v-.3-.2c0-1.1-.9-2-2-2h-1.2c-1.1 0-2 .9-2 2v.2.3h-.8a.68.68 0 0 0-.7.7v3.2c0 1.8 1.4 3.2 3.2 3.2h1.9a3.01 3.01 0 0 0 3-3v-3.1c.2-.6-.2-1-.7-1zm-3 3.1v1.5c0 .1-.1.2-.2.2s-.2-.1-.2-.2v-1.5c-.5-.1-.8-.5-.8-1a1.11 1.11 0 0 1 1.1-1.1 1.11 1.11 0 0 1 1.1 1.1c-.1.5-.5.9-1 1zm1.5-3.5c0 .1 0 .2-.1.3h-3.5c0-.1-.1-.2-.1-.3v-.2c0-.7.5-1.2 1.2-1.2h1.2c.7 0 1.2.5 1.2 1.2v.2z" class="BS"/><path d="M97.4 283.1s.4-4.2-4.3-4.2c0 0 1.4.4 2.2 1.2 0 0-3-1.8-6.3 1-3.3 2.7-1.2 9.5-2.2 10.8s-4.9 1.6-4.4 5.7c.5 4.2 12.3 9.4 11.6 12.9 0 0 4.7-6.8 1.3-10 0 0 1.6 1.5 1.8 3.3 0 0 .4-3.5-1.8-4.7-2-1-3.6-4.7-3.5-5.3s5.6-10.7 5.6-10.7z" class="BY"/><path d="M92.7 303.5s3.5 14.6 7 17.5c2.1 1.8 8.3 5.8 8.3 5.8l-2.6.9s-8.6-2.9-10.5-5.2-7.2-13.6-7.2-13.6l5-5.4z" class="BP"/><path d="M113.1 332.1l-.8-2.1c-.9-2.2-3-3.6-5.4-3.6H91.6v9.7 41.5H155v-41.5h-35.9c-2.6.1-5-1.5-6-4z" class="BO"/><path d="M59.5 329.2c0 .1.1.1.1.2.8 1.3 2.5 4.6 4.5 8.2l2.8 5.2 3.9 6.8 1.7 2.7c.1.1.1.3.1.4-.1 1.2-.1 2.4.1 3.6 1.2 11.7 9.1 18 9.1 18l2.4.3s-3.3-12.3-4.3-19.3c-.2-1.2-.2-2.1-.2-2.8.2-1.8-.1-4.5-.8-7.5-1.1-5.4-3.1-12.1-4.8-17.5-.1-.3-3.4-12.3-3.4-12.3-2.8 2.4-12.9 3.4-12.9 3.4s-1.8 4.3 1.7 10.6z" class="BQ"/><path d="M89 377.7h-9.8s-.2-1.5.3-2.6 1.2-1.1.1-2.8c.6.6 2.6.9 4 .7.2.3 1.1 2.2 1.7 2.6.7.4 3.5.2 3.7 2.1zm-29.5-48.5c0 .1.1.1.1.2.8 1.3 5 9.1 6.9 12.7-2.3-9.3-.7-18.6-.7-18.6l-6.3 5.7z" class="BZ"/><path d="M96.1 282.5c.1-.3-5.6 2.6-5.9 2.9-2.7 2.9-1.9 6.8-.4 6.8 1 0 .8 1.6.8 1.6l10.9-4.6c-.1.1-1.4-7.5-5.4-6.7z" class="BY"/><path d="M92.4 301.3s1.7 3.3 1.4 6c0 0-2 3.1-7.2 3.9.1 0 4.5-9.9 5.8-9.9z" class="BR"/><path d="M67.2 319.5v-1.8c-3.7.5-12.6-4.4-12.6-4.4s-3.8 2.5-4.3 9.8l-2.1 23c-.1 1.6-.1 2.8-.1 3.2a.76.76 0 0 1-.2.4c-.8 1-1.4 2-2 3-5.6 10.4-2.7 24.5-2.7 24.5l1.3-.3s4.7-14.6 7.8-21c.5-1.1 1-1.9 1.4-2.4 1.2-1.4 2.4-3.8 3.6-6.7 2.4-5.3 9.9-27.3 9.9-27.3z" class="BQ"/><path d="M51.1 377.7h-9.8s-.2-1.5.3-2.6 1.3-1.6 1.1-2.9c.6.6 1.6 1.4 3.1 1.2.2.3 1.1 1.8 1.7 2.2.5.4 3.4.2 3.6 2.1z" class="BZ"/><path d="M86 313.3c-1.3.2.2 1.3-1.6 1.5-2.6.3-5.2.5-6.6 1-.5.2-.8.5-1 .8-.6 1.8-4.4 4.9-4.4 4.9-17.1-.8-18.2-8.4-18.2-8.4 11.1-10.8 20.5-16.6 28.3-17.4 1.9-.2 4.5.1 5.7.6 2.7 1.2 4.2 4.9 4.2 4.9S91 312.5 86 313.3z" class="BR"/><path d="M84.4 314.8c-2.6.3-5.2.5-6.6 1-.6-8.5 3.5-14.9 3.5-14.9s2.6 10.7 3.1 13.9z" class="Ba"/><g class="BP"><path d="M86.7 299.4s-6.5-.4-7.6 3.7c-1.2 4.1 2.2 20.3 2.9 22 1.3 3.1 7.9 12.2 7.9 12.2l2.1-1.1s-4.2-13.3-5.2-14.6c-1.6-2.1 1.8-20.4-.1-22.2z"/><path d="M91.9 336.2l1 1c.4.5.1.7 1.3 3.1 0 0-.1.3-.3.3-.3-.1-1.2-1-1.7-.9 0 0-.3.3-.4 1.2 0 .9 0 2.8-.2 3.2s-1.3-1.5-1.8-2.9c-.5-1.2 0-5.3 0-5.3l2.1.3z"/></g><path d="M77.7 308.6c0 .1 6.1 1.1 10-.8 0 0 3.2-10-1.4-9.5s-7.3 1.9-7.4 4.1c-.1 2.1-1.2 6.2-1.2 6.2z" class="BR"/><path d="M88 297.1c.1.8.2 1.8 1.2 2.9.8.8 2 1.5 2.8.7.4-.4 1-1 1.3-1.5l1.6-2.5-3.7-3.2-.2-.2c-1 1.7-1.9 2.5-2.7 3.1-.3 0-.3.4-.3.7z" class="BP"/><path d="M94.9 296.6l-1.6 2.5c-2.3-1.4-2.3-4.2-2.1-5.7l3.7 3.2z" fill="#f99352"/><path d="M95 298.2s-5.5-3.1-3.6-6.5c2-3.4 2.6-6.1 6.2-4.3s3.6 3.5 3.2 4.8c-.3 1.3-4.3 6.7-5.8 6z" class="BP"/><path d="M101.8 290.2c-.3-1.5-1-1.7-1.6-1.6-2-3.4-5.4-2.1-5.4-2.1-1.8 2.2-4.4 2.6-4.4 2.6s.6 1.2 3.3 1.9c.8.2 1.7.1 2.6-.2-1.8 1-3.8 1.4-3.8 1.4 3.5.3 6.8-2.9 7.2-3.2.2.5.4 1.5.3 2.3-.2 1-1.1 2.9-.6 3.1 0 .1 2.8-1.9 2.4-4.2z" class="BY"/><path d="M109 326.8s-1.5 1.2-.4 1.9c1.2.8 3.2 1 3.3.5 0-1.7-.8-2.9-2.9-2.4z" class="BP"/><path d="M132.4 349.8h-2c.1-.3.1-.7.1-1v-.7c0-3.1-2.6-5.7-5.7-5.7h-3.5c-3.1 0-5.7 2.6-5.7 5.7v.7c0 .3 0 .7.1 1h-2.2c-1.2 0-2.1.9-2.1 2.1v9.2a9.39 9.39 0 0 0 9.4 9.4h5.5c4.9 0 8.8-4 8.8-8.8v-9.1c0-1.6-1.2-2.8-2.7-2.8zm-8.5 9.2v4.3a.68.68 0 1 1-1.4 0V359c-1.4-.3-2.4-1.5-2.4-3a3.12 3.12 0 0 1 3.1-3.1 3.12 3.12 0 0 1 3.1 3.1c0 1.4-1 2.7-2.4 3zm4.3-10.2c0 .3-.1.7-.1 1H118c-.1-.3-.2-.7-.2-1v-.7a3.37 3.37 0 0 1 3.4-3.4h3.5a3.37 3.37 0 0 1 3.4 3.4v.7z" fill="#ffd89b"/><path d="M367 377.8h-76.9c-10.7-12.3-10.3-27.3 4.4-41 2.6-2.4 7.2-5.1 10.9-6 6.8-1.6 14.6-2 14.6-2s8.6-1.2 11.1-4.2c7.6-9.2 9.6-10.6 9.6-10.6 7.8-1.5 14.4-2 19.3.8 4.5 2.5 7.6 7.8 8.8 17.5.2 1.8.4 3.8.4 6 .3 7.9 1.8 14.9 2.7 20.8 1.2 8.6 2.1 15.2-4.9 18.7z" class="BO"/><path d="M356 324.7c-4.7 2.6-5.2 11-12.6 13.2s-19.9 2-26.9 9.7c-6.8 7.4-14.4-11.5-11.1-16.8 6.8-1.6 14.6-2 14.6-2s10.5-.1 12.9-3c7.6-9.2 7.7-11.7 7.7-11.7 7.8-1.5 14.4-2 19.3.8 5.3 5.5.8 7.2-3.9 9.8zm15.8 34.2c-10.8-13.5-33 4.9-38.7 4.4-5.3-.5 10.3-18.9 29.6-21.6 7.8-1.1 5.9-9.2 5.9-9.4.2 1.8.4 3.8.4 6 .3 7.8 1.8 14.7 2.8 20.6z" class="BU"/><path d="M311.6 366.3c-.8 1.5-.9 4.1-1.1 5s-4.2 4-4.5 3.8c-.9-.4 0-1.9.5-3 0 0 0-.1.1-.1.5-1.1.1-3.6.3-4.9.3-1.3-1-4.7-1-4.7l2.2-2.8s1.5 2.9 2.6 3.5c.2.1.4.2.5.3.7.7 1 1.7.4 2.9z" class="BP"/><path d="M340.8 292.9c-2.1.2-4.1 1.1-5.6 2.6-1 .9-2 2.2-2.7 3.7-1.4 3.3-.9 7.1-1.8 9.2-.8 2.1-1.3 2.5 0 3.4 1.3 1 1.5 1.9 0 2.9-1.6 1-2.7 4.1 1.7 4.4s12.9-1.3 14-2.1 4.1-2 5.5-4.2c2.9-4.3.6-7.3-1.6-8-3.4-1.2-2.1-12.5-9.5-11.9z" class="BV"/><path d="M335.1 311.1s-4.4 9.8-5.3 10.7-5.2 2.5-4.8 4c.4 1.4 3.6 2.8 4.9 2.5s4.7-6.1 4.7-6.1l.5-11.1z" class="BR"/><path d="M325.4 326.6s.2-1.7 4.4-2.2c2.3-.3 6.1-6.7 6.1-6.7l-3.8 10.1-3.7 1.6-3-2.8z" class="Ba"/><path d="M327.1 329.8s-21.5-1.5-24.5 1.9c-2.3 2.7 1.9 32.3 1.9 32.3s5.9.2 6.3-1.4c0 0-1.1-14.4-.2-16.9s.3-5.9.3-5.9 11.5 1.7 15.1.8c3.7-.8 1.1-10.8 1.1-10.8z" class="BZ"/><path d="M303.9 374.8c-1.5.6-3.4 2.6-4.1 3.1-.8.5-5.8.4-5.9 0-.4-.9 1.3-1.5 2.4-2h0c1.1-.6 2.3-2.7 3.4-3.5 1-.8 2.3-4.3 2.3-4.3l3.5-.7s-.7 3.2-.2 4.3c0 .1.1.2.1.3.2 1.1-.2 2.2-1.5 2.8z" class="BP"/><path d="M336.5 330.8s-23.5 2.4-25.5 4.8c-2.1 2.4-10.2 33.6-10.2 33.6s2.4 1.3 4.6.1c0 0 6.2-10.6 9-13.9 2.7-3.3 3.7-12 5.2-12.9.4-.3 14.2 1.3 19.3-2.6 5-3.9-2.4-9.1-2.4-9.1z" fill="#214d9a"/><path d="M346.8 330.9c-.6 1.2-1.3 2.2-2 3.2-1.8 2.4-3.8 4.2-6 4.7-3.2.7-13.9-5.6-13.4-9 .3-1.9 6.3-5.2 7.2-6.6 1-1.4 1.5-8.2 2.1-10.9.4-2.1 1.7-2.3 3.3-2.8 6.8-2.3 11.6.1 11.6.1 3.1 1.7 1.4 13.2-2.8 21.3z" class="BR"/><path d="M346.4 302.4s.4-1.7.5-3.4c.1-1.3-1.8-5.4-4.8-5.2 0 0-1.3.3-2.5 1.2-.9.8-2.3 2.4-.3 6.3l.6 1.3 6.5-.2z" class="BV"/><path d="M340.3 309.2c.1.7.7 1.1 2.1 1s3.5-1 3.3-1.6c-.1-.6-.8-1.9-1-5.4l-.3.1-4.4 1.2.3 2.7c.2 1.1 0 1.6 0 2z" class="BP"/><path d="M340.1 304.5l.3 2.7c2.5-.3 3.6-2.6 4-3.9l-4.3 1.2z" fill="#ff9d5d"/><path d="M340 306.5s5.7-1.4 4.8-5c-.9-3.5-.9-6.1-4.5-5.3-3.7.8-4 2.3-4 3.6 0 1.2 2.2 7 3.7 6.7z" class="BP"/><g class="BV"><path d="M337.6 296.8s1.9 3.7 5.5 4c2.1.2 2.7 1.6 2.7 1.6s-.6-4-1.7-6.4c.1 0-5.8-1.5-6.5.8z"/><path d="M338.3 297.3s-1.2 1.3-1.6 2.2c-.6 1.3.5 4.1 1 4.7 0 0-2.7-4.5-1.8-6.5s2.4-.4 2.4-.4z"/></g><g class="BP"><path d="M320.9 330.1l-1.3 1.3c-.8.4-1.7.1-2.2.3-.5.1-.4-.2 0-.4.3-.2 1.2-.1.8-.2-.3-.1-2.2-.4-2.9-.2-1.1.3-2-.1-2-.2-.1-.1 2.5-1.4 3.2-1.3l2.8-.1 1.6.8zm30.6-18.3s.7 16.7-1.3 19.1c-1.9 2.3-10.1.7-13.6 0-.2 0-.5 0-.8.2s-.4-1.7-.4-1.7l11.3-1.8c1-.3.3-11.8.3-11.8l4.5-4z"/><path d="M336.3 330.6s-1 1-1.3 1.5c-.4.5-2.9 1.4-3 1.1s1.1-1.1 1.2-1.4 1.4-1.8 2.2-2c.9-.2.9.8.9.8z"/><path d="M335.5 329.3l-4.6 1.2c-.7.3-2.1 2.3-1.5 2.6.4.2 1.9-.6 2.7-.8s3 .2 4-1.8c.1-.2-.6-1.2-.6-1.2z"/></g><path d="M303.9 374.8c-1.5.6-3.4 2.6-4.1 3.1-.8.5-5.8.4-5.9 0-.4-.9 1.3-1.5 2.4-2h0l.2-.1s2.2.8 4 0c1.4-.6 3.5-2.8 4.9-3.7.2 1-.2 2.1-1.5 2.7z" fill="#214d9a"/><path d="M311.6 366.3c-.8 1.5-.9 4.1-1.1 5s-4.2 4-4.5 3.8c-.9-.4 0-1.9.5-3 .3 0 .7-.1 1.2-.4 1-.7 2.7-3.1 2.8-4.6.1-1.2 0-2.9.7-3.6.7.6 1 1.6.4 2.8z" fill="#0e3a76"/><path d="M330.4 333.6h-17l-5.1-12.7h17z" fill="#ff7910"/><path d="M313.2 333.1h22.5v.5h-22.3z" class="BU"/><path d="M317.7 327.2c-.1-.4.1-.8.6-.8.4 0 .9.4 1 .8s-.1.8-.6.8-.8-.3-1-.8z" fill="#fff"/><path d="M346.8 330.9c-.6 1.2-1.3 2.2-2 3.2-5.5-.2-6.8-2.4-6.8-2.4l8.8-.8zm-8.5-2.1s6.2-1.4 7-2.8c.8-1.3 1.9-10.2 1.9-10.2l2.6 3.3-.5 7.8s-3 2.9-3.2 2.8c-.2 0-7.8-.9-7.8-.9z" class="Ba"/><path d="M349.6 309.5s1.5.7 2 1.8c1.1 2 2.2 17.3-.8 19.8-3.1 2.5-12 2-13 .2 0 0-.1-1.7.5-2.6 0 0 8-1.1 8.4-1.6s-.3-11.4.1-12.3 2.8-5.3 2.8-5.3z" class="BR"/><path d="M350.9 331s-2.3 2.2-12 2.5c-7.6.2-15.6 3.3-19.3 8.6-1 1.5-1.8 3.9-2 5.5-.5 3 18.4 7.6 18.7 7.2s12.5-10.9 12.5-10.9l2.1-12.9z" class="BO"/><path d="M263.2 271.1s9.4 9.8 9.9 13.5c.4 3.7-4.5 9.4-4.5 9.4l-5.4-22.9z" class="BU"/><path d="M258.9 372.5s-.3 5.2-1.3 5.3h-5.1l-6.3-.1s0-1.5 1.9-1.8 5-1.6 6.1-4.1c1.1-2.6 4.7.7 4.7.7zm14.1 0s-.3 5.2-1.3 5.3h-5.1l-6.3-.1s0-1.5 1.9-1.8 5-1.6 6.1-4.1c1.1-2.6 4.7.7 4.7.7z" fill="#062646"/><path d="M252 316.7s1.6 10.6 7.8 29.4c6.1 18.8 7 27 7 27l6.6-.2s.1-20.5-2.7-30-.5-34.1-.5-34.1l-18.2 7.9z" class="BV"/><path d="M248.8 309.3s-.3 16 2.4 35.6 1.8 27.9 1.8 27.9l6.6.2s4-19.6 2.9-29.4S268 310 268 310l-19.2-.7z" fill="#0d458e"/><path d="M261.7 272l-3.5 2.3-5.1-1c.1-.4.4-2.1.7-3.7 0-.1 0-.2.1-.3l.5-2.4 4.8-2.1 1.8-.8s-.1 1.5-.2 1.7c-.4 3.8.9 6.3.9 6.3z" class="BP"/><path d="M254.4 270.8c.1 0 6.1-1.8 6.8-1.6s1 1.5 1 1.5l-9.9 2.2c.1 0 .8-1.6 2.1-2.1z" class="BU"/><path d="M270.6 311.3c-1 4.7-18.1 5.2-22.4.9-.5-.5-.5-2.7-.3-5.8.4-5.9 1.6-14.8 1.6-19.4 0-2.2.3-4.4.7-6.5.9-4.3 2.2-7.8 2.2-7.8s8.3-2.7 9.9-2.2c7.4 2.4 9.3 36.1 8.3 40.8z" class="BO"/><path d="M247.8 306.5c.4-5.9 1.6-14.8 1.6-19.4 0-2.2.3-4.4.7-6.5l5-.9c.1.1 4.9 20.1-7.3 26.8z" class="BU"/><path d="M250.5 298.3s.3.8-.4 1.4c-.7.5-1.2 1.4-1 2.1.2.6 1.7 1.7 2.3 1.5.5-.2 1.7-1 1.5-1.4-.1-.3.8-3-.6-4-1.3-1.1-1.8.4-1.8.4z" class="BP"/><path d="M256.2 271.7s-4.9.9-8.8 6.6-6.5 10-5.8 12 7.2 9.2 8.3 9.2 2.9-.8 3-2.7c0 0-4.6-6.9-3.7-7.9.4-.4 6-5 6.8-2.9 1.5 3.5.2-14.3.2-14.3z" class="BO"/><path d="M260.4 265.8c-1 1.8-4.9 3.3-6.6 3.8 0-.1 0-.2.1-.3l.5-2.4 4.8-2.1c1 .1 1.6.3 1.2 1z" fill="#ffa05e"/><path d="M252.6 266.7s7.7 2.4 9.1-2.4 3.4-7.7-1.5-9.4c-4.8-1.7-6.3-.2-7.2 1.3-.9 1.4-2.4 9.7-.4 10.5z" class="BP"/><path d="M253.3 255.7s.5 5.6 1.6 5.3c1.2-.2 2.2-.4 2 1.3s-1.8 3.6 1.8 3.9 8.7-8.9 7.7-10.6c-2.7-5-17.1-6.1-13.1.1z" class="BV"/><g fill="#d1e4fc"><circle transform="matrix(.7104 -.7038 .7038 .7104 -78.5972 291.8529)" cx="315.3" cy="241.4" r=".4"/><circle transform="matrix(.7104 -.7038 .7038 .7104 -79.0951 293.0315)" cx="316.5" cy="242.6" r=".4"/><circle transform="matrix(.7104 -.7038 .7038 .7104 -79.6002 294.2196)" cx="317.7" cy="243.8" r=".4"/><circle transform="matrix(.7104 -.7038 .7038 .7104 -80.1047 295.4136)" cx="318.9" cy="245" r=".4"/><circle transform="matrix(.7104 -.7038 .7038 .7104 -80.6018 296.5982)" cx="320.1" cy="246.2" r=".4"/><circle transform="matrix(.7104 -.7038 .7038 .7104 -81.1069 297.7862)" cx="321.3" cy="247.4" r=".4"/><circle transform="matrix(.7104 -.7038 .7038 .7104 -81.5912 298.9324)" cx="322.4" cy="248.6" r=".4"/><circle transform="matrix(.7104 -.7038 .7038 .7104 -82.0883 300.117)" cx="323.6" cy="249.8" r=".4"/><circle transform="matrix(.7104 -.7038 .7038 .7104 -82.5927 301.3111)" cx="324.8" cy="251" r=".4"/><circle transform="matrix(.7104 -.7038 .7038 .7104 -83.0979 302.499)" cx="326" cy="252.2" r=".4"/><circle transform="matrix(.7104 -.7038 .7038 .7104 -83.5958 303.6776)" cx="327.2" cy="253.4" r=".4"/><circle transform="matrix(.7104 -.7038 .7038 .7104 -84.0994 304.8778)" cx="328.4" cy="254.6" r=".4"/><circle transform="matrix(.2244 -.9745 .9745 .2244 -5.8153 483.1192)" cx="300.6" cy="245.2" r=".4"/><circle transform="matrix(.2244 -.9745 .9745 .2244 -7.7042 484.0223)" cx="300.2" cy="246.9" r=".4"/><circle transform="matrix(.2243 -.9745 .9745 .2243 -9.588 484.9764)" cx="299.8" cy="248.5" r=".4"/><circle transform="matrix(.2244 -.9745 .9745 .2244 -11.5329 485.8508)" cx="299.5" cy="250.2" r=".4"/><circle transform="matrix(.2244 -.9745 .9745 .2244 -13.4218 486.7539)" cx="299.1" cy="251.8" r=".4"/><circle transform="matrix(.2244 -.9745 .9745 .2244 -15.3401 487.6628)" cx="298.7" cy="253.5" r=".4"/><circle transform="matrix(.2244 -.9745 .9745 .2244 -17.1772 488.5412)" cx="298.3" cy="255.1" r=".4"/><circle transform="matrix(.2242 -.9745 .9745 .2242 -19.0175 489.5105)" cx="298" cy="256.7" r=".4"/><circle transform="matrix(.2242 -.9745 .9745 .2242 -20.9211 490.4399)" cx="297.6" cy="258.4" r=".4"/><circle transform="matrix(.2244 -.9745 .9745 .2244 -22.8936 491.2741)" cx="297.2" cy="260" r=".4"/><circle transform="matrix(.2242 -.9745 .9745 .2242 -24.7253 492.2572)" cx="296.8" cy="261.7" r=".4"/><circle transform="matrix(.2242 -.9745 .9745 .2242 -26.6491 493.1587)" cx="296.4" cy="263.3" r=".4"/></g><circle cx="306.5" cy="233.1" r="7.9" class="BT"/><g class="BS"><circle cx="306.5" cy="230" r="2.5"/><path d="M306.5 232.5c2.5 0 4.4 2 4.4 4.4H302c.1-2.4 2.1-4.4 4.5-4.4z"/></g><path d="M325.8 257.6l-.3-.7c-.3-.8-1.1-1.3-1.9-1.3h-5.4v3.4 14.7h22.4V259H328c-1 0-1.8-.5-2.2-1.4z" class="BT"/><path d="M332.8 263.8h-.8v-.4-.3c0-1.2-1-2.1-2.1-2.1h-1.3c-1.2 0-2.1 1-2.1 2.1v.3.4h-.8c-.4 0-.8.4-.8.8v3.4c0 1.9 1.6 3.5 3.5 3.5h2.1a3.33 3.33 0 0 0 3.3-3.3v-3.4a1.08 1.08 0 0 0-1-1zm-3.2 3.5v1.6c0 .1-.1.3-.3.3-.1 0-.3-.1-.3-.3v-1.6c-.5-.1-.9-.6-.9-1.1 0-.6.5-1.2 1.2-1.2.6 0 1.2.5 1.2 1.2 0 .5-.4 1-.9 1.1zm1.6-3.8c0 .1 0 .3-.1.4h-3.8c0-.1-.1-.2-.1-.4v-.3c0-.7.6-1.3 1.3-1.3h1.3c.7 0 1.3.6 1.3 1.3v.3z" class="BS"/><path d="M288 274.6c0 4 6.9 11.4 6.9 11.4s6.9-7.4 6.9-11.4-3.1-7.3-6.9-7.3c-3.9 0-6.9 3.3-6.9 7.3zm2.8-.7c0-2.2 1.8-4 4-4s4 1.8 4 4-1.8 4-4 4-4-1.8-4-4z" class="BT"/><use xlink:href="#C" class="BO"/><g class="BQ"><use xlink:href="#D"/><use xlink:href="#E"/><use xlink:href="#F"/><use xlink:href="#D" x="2.8" y="11.3"/><use xlink:href="#G"/></g><g class="BO"><path d="M124.7 259.3l-.4.1-.3-.4.6-.2h.4l.6 2.4h-.5l-.4-1.9z"/><use xlink:href="#H"/></g><g class="BQ"><use xlink:href="#D" x="4.2" y="17.4"/><use xlink:href="#I"/></g><use xlink:href="#J" class="BO"/><g class="BQ"><use xlink:href="#D" x="6"/><use xlink:href="#K"/></g><path d="M132.5 283.5c-.2-.7.1-1.2.8-1.2.6 0 1.2.5 1.4 1.2s-.1 1.2-.8 1.2-1.2-.5-1.4-1.2zm1.6 0c-.1-.4-.4-.8-.7-.8s-.5.3-.3.8c.1.4.4.8.7.8s.4-.3.3-.8z" class="BO"/><g class="BQ"><use xlink:href="#D" x="5.6" y="23.1"/><use xlink:href="#L"/><use xlink:href="#E" x="8.8" y="23.1"/><use xlink:href="#D" x="14.2" y="23.1"/><use xlink:href="#D" x="7.1" y="29.2"/><path d="M129.3 283.5c-.2-.7.1-1.2.8-1.2.6 0 1.2.5 1.4 1.2s-.1 1.2-.8 1.2-1.3-.5-1.4-1.2zm1.6 0c-.1-.4-.4-.8-.7-.8s-.5.3-.3.8c.1.4.4.8.7.8s.4-.3.3-.8z"/><use xlink:href="#M"/><use xlink:href="#D" x="18.5" y="42.7"/><use xlink:href="#D" x="9.9" y="42.7"/><use xlink:href="#N"/></g><g class="BO"><path d="M140.7 297c-.2-.7.1-1.2.8-1.2.6 0 1.2.5 1.4 1.2s-.1 1.2-.8 1.2c-.6.1-1.2-.5-1.4-1.2zm1.7 0c-.1-.4-.4-.8-.7-.8s-.5.3-.3.8c.1.4.4.8.7.8.2 0 .4-.3.3-.8z"/><use xlink:href="#J" x="12.6" y="42.7"/></g><g class="BQ"><use xlink:href="#O"/><use xlink:href="#D" x="14.5" y="47"/><use xlink:href="#P"/><use xlink:href="#C" x="10.3" y="29.6"/><use xlink:href="#L" x="105.5" y="19.6"/><use xlink:href="#D" x="116.5" y="42.7"/><use xlink:href="#D" x="107.9" y="42.7"/><use xlink:href="#G" x="105.1" y="31.4"/></g><g class="BO"><use xlink:href="#K" x="110.5" y="42.7"/><use xlink:href="#J" x="110.5" y="42.7"/></g><g class="BQ"><use xlink:href="#P" x="83.6"/><use xlink:href="#D" x="103.5" y="47"/><path d="M225.7 301.4c-.2-.7.1-1.2.8-1.2.6 0 1.2.5 1.4 1.2s-.1 1.2-.8 1.2c-.6 0-1.2-.5-1.4-1.2zm1.6 0c-.1-.4-.4-.8-.7-.8s-.5.3-.3.8c.1.4.4.8.7.8s.5-.4.3-.8z"/><use xlink:href="#O" x="97.6"/></g><g class="BO"><use xlink:href="#G" x="14.5" y="47.1"/><use xlink:href="#D" x="22.7" y="58.4"/></g><g class="BQ"><use xlink:href="#D" x="12.6" y="52.3"/><use xlink:href="#G" x="9.8" y="41"/><use xlink:href="#C" x="8.3" y="34.9"/><use xlink:href="#D" x="21.2" y="52.3"/><use xlink:href="#D" x="107.3" y="52.3"/><use xlink:href="#C" x="99.8" y="34.9"/><use xlink:href="#G" x="107.8" y="41"/><use xlink:href="#D" x="115.9" y="52.3"/><use xlink:href="#D" x="14" y="58.4"/><use xlink:href="#I" x="9.8" y="41"/><use xlink:href="#G" x="19.9" y="47.1"/><use xlink:href="#C" x="18.4" y="41"/></g><g class="BO"><use xlink:href="#N" x="8.6" y="20"/><use xlink:href="#D" x="23.9" y="62.7"/></g><g class="BQ"><use xlink:href="#C" x="7.8" y="45.3"/><use xlink:href="#C" x="16.4" y="45.3"/><use xlink:href="#I" x="22.9" y="45.3"/></g><g class="BO"><use xlink:href="#C" x="30.8" y="45.3"/><use xlink:href="#D" x="43.7" y="62.7"/></g><g class="BQ"><path d="M157.2 317.1c-.2-.7.1-1.2.8-1.2.6 0 1.2.5 1.4 1.2s-.1 1.2-.8 1.2-1.2-.5-1.4-1.2zm1.7 0c-.1-.4-.4-.8-.7-.8s-.5.3-.3.8c.1.4.4.8.7.8.2-.1.4-.4.3-.8z"/><use xlink:href="#G" x="40.9" y="51.4"/><use xlink:href="#C" x="39.4" y="45.3"/></g><g class="BO"><use xlink:href="#G" x="80.5" y="51.4"/><use xlink:href="#D" x="88.7" y="62.7"/></g><g class="BQ"><use xlink:href="#F" x="68.6" y="29.2"/><use xlink:href="#H" x="84.3" y="57.1"/><use xlink:href="#C" x="84.4" y="45.3"/></g><g class="BO"><use xlink:href="#F" x="91.6" y="29.2"/><use xlink:href="#D" x="108.4" y="62.7"/></g><g class="BQ"><use xlink:href="#C" x="92.3" y="45.3"/><use xlink:href="#C" x="100.9" y="45.3"/><use xlink:href="#I" x="107.4" y="45.3"/><path d="M151.3 312.8c-.2-.7.1-1.2.8-1.2.6 0 1.2.5 1.4 1.2s-.1 1.2-.8 1.2c-.6 0-1.2-.5-1.4-1.2zm1.6-.1c-.1-.4-.4-.8-.7-.8s-.5.3-.3.8c.1.4.4.8.7.8s.5-.3.3-.8z"/><use xlink:href="#M" x="19.2" y="15.7"/><path d="M213.7 312.8c-.2-.7.1-1.2.8-1.2.6 0 1.2.5 1.4 1.2s-.1 1.2-.8 1.2c-.6 0-1.2-.5-1.4-1.2zm1.7-.1c-.1-.4-.4-.8-.7-.8s-.5.3-.3.8c.1.4.4.8.7.8.2 0 .4-.3.3-.8z"/><use xlink:href="#L" x="89.2" y="35.3"/></g><defs ><path id="B" d="M114.9 240.6c-.2-.7.3-1.3 1-1.3s1.4.6 1.6 1.3-.3 1.3-1 1.3-1.4-.6-1.6-1.3z"/><path id="C" d="M129.7 271.8c-.2-.7.1-1.2.8-1.2.6 0 1.2.5 1.4 1.2s-.1 1.2-.8 1.2-1.2-.5-1.4-1.2zm1.6 0c-.1-.4-.4-.8-.7-.8s-.5.3-.3.8c.1.4.4.8.7.8.3-.1.4-.4.3-.8z"/><path id="D" d="M120.3 253.7l-.4.1-.2-.4.6-.2h.4l.6 2.4h-.5l-.5-1.9z"/><path id="E" d="M122.2 254.3c-.2-.7.1-1.2.8-1.2.6 0 1.2.5 1.4 1.2s-.1 1.2-.8 1.2c-.6.1-1.2-.5-1.4-1.2zm1.6 0c-.1-.4-.4-.8-.7-.8s-.5.3-.3.8c.1.4.4.8.7.8s.4-.3.3-.8z"/><path id="F" d="M133.6 287.9c-.2-.7.1-1.2.8-1.2.6 0 1.2.5 1.4 1.2s-.1 1.2-.8 1.2c-.6 0-1.2-.5-1.4-1.2zm1.6 0c-.1-.4-.4-.8-.7-.8s-.5.3-.3.8c.1.4.4.8.7.8.3-.1.5-.4.3-.8z"/><path id="G" d="M125 265.7c-.2-.7.1-1.2.8-1.2.6 0 1.2.5 1.4 1.2s-.1 1.2-.8 1.2-1.3-.5-1.4-1.2zm1.6 0c-.1-.4-.4-.8-.7-.8s-.5.3-.3.8c.1.4.4.8.7.8.3-.1.4-.4.3-.8z"/><path id="H" d="M126.6 260c-.2-.7.1-1.2.8-1.2.6 0 1.2.5 1.4 1.2s-.1 1.2-.8 1.2-1.3-.5-1.4-1.2zm1.6 0c-.1-.4-.4-.8-.7-.8s-.5.3-.3.8c.1.4.4.8.7.8.2-.1.4-.4.3-.8z"/><path id="I" d="M126.4 271.8c-.2-.7.1-1.2.8-1.2.6 0 1.2.5 1.4 1.2s-.1 1.2-.8 1.2c-.6 0-1.2-.5-1.4-1.2zm1.7 0c-.1-.4-.4-.8-.7-.8s-.5.3-.3.8c.1.4.4.8.7.8.2-.1.4-.4.3-.8z"/><path id="J" d="M131.4 254.3c-.2-.7.1-1.2.8-1.2.6 0 1.2.5 1.4 1.2s-.1 1.2-.8 1.2c-.7.1-1.2-.5-1.4-1.2zm1.6 0c-.1-.4-.4-.8-.7-.8s-.5.3-.3.8c.1.4.4.8.7.8s.4-.3.3-.8z"/><path id="K" d="M128.2 254.3c-.2-.7.1-1.2.8-1.2.6 0 1.2.5 1.4 1.2s-.1 1.2-.8 1.2c-.7.1-1.3-.5-1.4-1.2zm1.6 0c-.1-.4-.4-.8-.7-.8s-.5.3-.3.8c.1.4.4.8.7.8s.4-.3.3-.8z"/><path id="L" d="M127.8 277.4c-.2-.7.1-1.2.8-1.2.6 0 1.2.5 1.4 1.2s-.1 1.2-.8 1.2c-.7.1-1.2-.4-1.4-1.2zm1.6 0c-.1-.4-.4-.8-.7-.8s-.5.3-.3.8c.1.4.4.8.7.8s.4-.3.3-.8z"/><path id="M" d="M135.4 297c-.2-.7.1-1.2.8-1.2.6 0 1.2.5 1.4 1.2s-.1 1.2-.8 1.2c-.7.1-1.3-.4-1.4-1.2zm1.6 0c-.1-.4-.4-.8-.7-.8s-.5.3-.3.8c.1.4.4.8.7.8s.4-.3.3-.8z"/><path id="N" d="M132.1 297.1c-.2-.7.1-1.2.8-1.2.6 0 1.2.5 1.4 1.2s-.1 1.2-.8 1.2c-.6 0-1.2-.5-1.4-1.2zm1.6 0c-.1-.4-.4-.8-.7-.8s-.5.3-.3.8c.1.4.4.8.7.8.3-.1.4-.4.3-.8z"/><path id="O" d="M131.4 301.4c-.2-.7.1-1.2.8-1.2.6 0 1.2.5 1.4 1.2s-.1 1.2-.8 1.2-1.3-.5-1.4-1.2zm1.6 0c-.1-.4-.4-.8-.7-.8s-.5.3-.3.8c.1.4.4.8.7.8s.4-.4.3-.8z"/><path id="P" d="M136.7 301.4c-.2-.7.1-1.2.8-1.2.6 0 1.2.5 1.4 1.2s-.1 1.2-.8 1.2c-.6 0-1.2-.5-1.4-1.2zm1.7 0c-.1-.4-.4-.8-.7-.8s-.5.3-.3.8c.1.4.4.8.7.8.2 0 .4-.4.3-.8z"/></defs></svg>