<svg xmlns="http://www.w3.org/2000/svg" viewBox="0 0 400 520" xmlns:v="https://vecta.io/nano"><style><![CDATA[.BO{fill:#ffb27d}.BP{fill:#ed975d}.BQ{fill:#2c3a64}.BR{fill:#ee9849}.BS{fill:#a8d29f}.BT{fill:#699dee}.BU{fill:#f1a34f}.BV{fill:#82b378}.BW{fill:#2b478b}.BX{fill:#1e3d70}.BY{fill:#e58638}]]></style><path d="M16.4 363.8s-44.4-94.6 43.1-94.6c46.3 0 27.2-26 58.7-56s141.4-54 164.9 4c23.4 58-34.4 102.1 21.5 94.5 67.2-9.1 93.7 52.1 93.7 52.1H16.4z" fill="#ebf3fa"/><path d="M376.2 351.8c-4.1-3-12.6-1-18.9 1.2-.9-1.3-2.1-2.7-3.4-4 13.5-8.7 32.1-27.2 22.2-28.7-8.6-1.4-20.1 15.3-26.3 25.4-6.4-4.3-16.3-7.5-31.3-6.4-39 2.9-69.4-22.3-91.9-13.9-17.8 6.7-34.2 10.4-50 9.1.7-11.5.8-34.1-8.2-36.5-9.2-2.4-.2 23.3 4.8 36.1-1.2-.2-2.3-.3-3.5-.5-3.2-6.4-8.6-14.8-14.5-15-5.5-.3 1.3 7.3 8 13.6-19.3-4-42.2 11.6-42.5 30.2h240.8s-.4-2.7-2.3-6.3c9.4-.1 21.5-1 17-4.3z" class="BS"/><path d="M109.9 348.1h63.5v14.3h-63.5z" fill="#4a75cb"/><path d="M90.3 348.1h63.5v14.3H90.3z" class="BT"/><path d="M245.534 362.411h-47.3v-66.1h47.3z" fill="#d86713"/><path d="M230.992 362.411h-47.3v-66.1h47.3z" class="BU"/><path d="M231 296.4l14.5 9.9v-9.9z" fill="#c95c12"/><path d="M85.1 311s-8.8 6.6-10.6 6.2c-1.7-.4 6.5-7.1 6.5-7.1-3.1-1.5-12.6-.6-12.6-.6s-3.2 10.3-4.8 9.5 3.3-9 3.3-9c-3.4-.2-7.6 2.3-7.6 2.3-5.8 4.5.4 11.7.4 11.7s-1.2 3.5-4.8 6.8c0 0-5.2 3.8-5.6 10.7l.9.1s1.5-6.4 4.2-9.4c.1-.1.3-.3.4-.5.4-.4.8-.7 1-.9 1.4-1.3 3.2-3 4.1-3.1v-.5.5c.3 3.6 7.3 6.8 11.6 7.4s3-1.1 1.5-3.8c-1.5-2.6-6.2-3.8-7.3-5s1.1-1.2 3.7 0 3 4.4 7.1 6.4c4.2 2 10.5-4.9 10.5-4.9-3.3-.2-8.1-3.8-7.9-4.9s8.1 1.9 9.4 2.1c1.3.1 4.4-1.5 4.9-7 .6-5.5-8.3-7-8.3-7z" class="BV"/><path d="M38.2 315.1s9.8-5.5 5.2-12.9c0 0-3.6-4.6-7.5-5.7 0 0 2.1 11.1 0 11.3-2.1.3-1.4-12.5-1.4-12.5s-10.3-4.9-14.3-4.6c0 0 6.4 10.8 4.3 10.5S15.3 290 15.3 290s-10.5-2-12.2 4.3c-1.7 6.2 1 9.4 2.6 9.8s11.6.3 11.3 1.6-7 3.4-10.8 2.2c0 0 4.2 10.3 9.6 9.8 5.5-.5 7.2-3.9 10.5-4.2 3.4-.3 5.9.7 4.2 1.6s-7.4.3-10.2 2.6c-2.7 2.3-4.9 3.8.1 4.8 5.1 1 14.2.4 16-3.5l1.8-3.9z" class="BS"/><path d="M40.8 324.6c-2.7-5.1-2.6-9.5-2.6-9.5-3.1-9.9-30.5-18.7-30.5-18.7 34.8 14 28.6 22.6 28.6 22.6.9.5 2.3 3.2 3.3 5.1.1.3.4.8.7 1.4h0c.1.3.2.5.3.7 1.8 4.5.8 12.2.8 12.2l1.1.3c2.5-7.7-1.7-14.1-1.7-14.1z" class="BV"/><path d="M53.7 307.6s-12.9-7.2-6.9-17c0 0 4.8-6 10-7.5 0 0-2.7 14.6 0 14.9s1.9-16.5 1.9-16.5 13.6-6.5 18.9-6c0 0-8.4 14.2-5.7 13.9s12.2-14.8 12.2-14.8 13.9-2.6 16.1 5.7c2.2 8.2-1.4 12.4-3.4 12.9-2.1.5-15.3.3-14.9 2.1.3 1.7 9.3 4.5 14.2 2.9 0 0-5.5 13.6-12.7 12.9s-9.4-5.1-13.9-5.5c-4.5-.3-7.7.9-5.5 2.1s9.8.4 13.4 3.5 6.5 5-.2 6.3c-6.7 1.4-18.7.5-21.1-4.6l-2.4-5.3z" class="BS"/><path d="M93.8 282.8s-36 11.7-40.1 24.7c0 0 .2 5.8-3.4 12.5 0 0-5.6 8.4-2.4 18.7l1.4-.4s-1.2-10.2 1.1-16.1c.1-.2.2-.5.4-.9.4-.8.7-1.5.9-1.9 1.3-2.6 3.1-6.1 4.4-6.8 0 .1-8.1-11.2 37.7-29.8z" class="BV"/><path d="M53.3 361.1c13.9 0 25.2-11.3 25.2-25.2H28.1c0 13.9 11.2 25.2 25.2 25.2z" class="BU"/><path d="M59.5 360.9l-3.1.2c-13.9 0-25.2-11.3-25.2-25.2h6.3c-.1 12.8 9.5 23.4 22 25z" fill="#ffb973"/><path d="M75.7 359.3H30.8a3.12 3.12 0 0 0-3.1 3.1h51.1a3.12 3.12 0 0 0-3.1-3.1z" class="BU"/><path d="M78.6 335.9h-51c-.2 0-.4.2-.4.4s.2.4.4.4h51c.2 0 .4-.2.4-.4 0-.3-.1-.4-.4-.4z" fill="#d86713"/><path d="M273.1 203.1c-.7-.1-2.9 1.9-2.9 1.9h0c-4.7.5-11.6 1.8-14 2.3-1.8.3-6.5-1.3-11.1-3.1-5.5-2.2-10.8-4.7-10.8-4.7-3-.2-6.5 5.4-.3 8.9.9.5 4.5 1.5 8.6 2.3 5.6 1.2 12.3 2.2 14.5 1.8 2.6-.4 10.1-3.1 14.5-5.2h0c.3-.1 1.3-.6 2.1-.6s2.7-1.5 2.7-1.9-2.5-1.6-3.3-1.7z" class="BP"/><path d="M267.4 273l-2.6.5s-11.8-13.3-13.7-18.9c-1-3-7.2-4.3-13.8-6-5.7-1.5-11.6-3.2-14.4-6.7-6.1-7.4 3.8-16.6 3.8-16.6s10.5 6.2 19.5 12.7c6.3 4.5 11.9 9.1 12.8 11.7 2.1 6.5 6.5 18.8 8.4 23.3z" class="BW"/><path d="M263.9 277.4h1.5l1.3-.3c.8-.1 1.1.2 1.2.3h6.2c.2-.2 0-.7-.1-1.1-.1-.3-.3-.5-.6-.5-.7-.2-1.9-.4-3.1-1.4-.7-.6-3.2-2.2-3.2-2.2h0c-.1 0-.3.1-1.5 1.1-.6.5-1.6-.7-1.6-.7s-.2.2-.3.5c-.1.2-.2.6-.1.9.1.6-.2 1.6-.4 2.3-.1.4-.3.7-.3.7s-.2.2 1 .4z" fill="#233862"/><path d="M246.3 238.1l-8.9 10.6c-5.7-1.5-11.6-3.2-14.4-6.7-6.1-7.4 3.8-16.6 3.8-16.6s10.5 6.2 19.5 12.7z" class="BX"/><path d="M238.2 232.5l-1.9 5.7c-1.5 4.3-3.7 10.5-6.1 16.2-.5 1.3-1.1 2.5-1.6 3.7-2 4.4-4 8.1-5.8 10.1-3.2 3.4-11.1 25.5-11.1 25.5l-2-.5s-2.7-18.9 6.9-29.6c.1-.1.2-.2.2-.4.1-1.6.6-8.7 1.6-15.9.2-1.8.5-3.5.8-5.2 0-.1 0-.2.1-.3 1.5-7.9 2.9-11.4 4.7-13.1l13.3 3.8h.9z" class="BW"/><path d="M209.6 296.4h1.5l1.3-.3c.8-.1 1.1.2 1.2.3h6.2c.2-.2 0-.7-.1-1.1-.1-.3-.3-.5-.6-.5-.7-.2-1.9-.4-3.1-1.4-.7-.6-3.2-2.2-3.2-2.2h0c-.1 0-.3.1-1.5 1.1-.6.5-1.6-.7-1.6-.7s-.2.2-.3.5c-.1.2-.2.6-.1.9.1.6-.2 1.6-.4 2.3-.1.4-.3.7-.3.7s-.3.2 1 .4z" fill="#233862"/><path d="M212.4 206.9s-2.2 5.5-4.8 10.8c-2.2 4.5-4.6 8.8-6.1 9.8-2.1 1.3-8.1 5-11.9 7.8 0 0-3 0-3.5.6s-1.5 3.2-1.2 3.4c.3.3 2.7.1 3.3-.5.5-.5 1.6-.9 1.9-1h.1 0c4.7-1.4 12-4.4 14.2-5.9 1.9-1.3 6.1-6.5 9.5-11.1 2.4-3.4 4.4-6.4 4.8-7.5 2.1-6.8-4.1-8.6-6.3-6.4z" class="BO"/><path d="M224.1 185.5c-.3-.4-.5-.7-.8-1 .3 0 .7 0 1-.1.8-.3 1.1-2.8 1-3.5s-1.2-2.9-2.5-3.1-2.7 1.3-2.7 1.3c.2-1.1 2.5-1.7 2.5-1.7-4.7.9-4.4 4-4.4 4.3-4.3-1.5-6.8 6.5-6.8 6.5l11.1 6.5s0-1.8 1.1-1.7c1.6.1 2.9-3.9.5-7.5z" class="BQ"/><path d="M224.8 202.4c-2.5 1.2-5.9-.5-5.9-.5.2-.2.1-.9-.1-1.7-.2-.9-.7-2.1-1.5-3.6l-.6-.9.3-.1 4.9-2 1.6 2.7c.7 1.1 1.5 2.1 1.8 2 .1 0 3.3 2.2-.5 4.1z" class="BO"/><path d="M221.9 194c-.1 1.8-.7 4.9-3.1 6.1-.2-.9-.7-2.1-1.5-3.6l4.6-2.5z" class="BP"/><path d="M217 198.6s6.4-2.5 4.8-6.5-1.9-7-6.1-5.5-4.3 3.3-4.1 4.8c.2 1.3 3.7 7.7 5.4 7.2z" class="BO"/><path d="M219.4 191.1c3-.4 3.8-1.6 3.8-1.6s-2.7-.8-4.3-3.5c0 0-3.3-1.1-5.8.8-.2.2-.3.4-.3.7-.6-.2-1.4-.1-1.9 1.5-.7 2.4 1.9 5 1.9 5 .6-.2-.1-2.3-.2-3.5-.1-.8.4-1.9.6-2.4.3.4 3.4 4.3 7.3 4.5 0 0-2-.7-3.9-2.1.9.5 1.9.8 2.8.6z" class="BQ"/><path d="M237 210.6c-.1-.2-.1-.4-.2-.6 1-1.8 1.4-3.5 1.6-4.9.4-2.9-.3-4.8-.3-4.8s-4.5-2.4-6.4-2.7h-.1c-2-.3-6.3.6-6.3.6s.8 2.2-1.5 3.7-4.8-.4-4.8-.4c-.1.1-.2.1-.2.2 0 0-6.2 4.1-6.7 5-.6.9-2.9 5.5-2.9 5.5s.8 3.9 9.1 4.2c.7 1.7 1.2 3.3 1.4 4.6.7 5.2-.1 9.4.7 12.4.8 3.1 14.7 1.3 17.2.7s2-3.3 2.1-5.9c.1-3.1-1.8-14.7-2.7-17.6z" class="BT"/><path d="M238.5 205.1c-.2 1.4-.7 3.1-1.6 4.9-.2-1-1.1-4.5-2.5-6.1-.1 0 2.3.3 4.1 1.2z" fill="#4a82d3"/><path d="M181.9 239.5l3.1-3.5c.6-.4 3-1 3.1-.9s.1.3-.2.6-1.5.9-1.3 1 3.7-1.7 4.2-1.1-.3 3-1.6 4.2-5.4 1.6-5.6 1.8c-2.1 1.4-1.7-2.1-1.7-2.1z" class="BP"/><path d="M136.3 232.3s3.7 4.4 8.5 2.6c0 0 1-2.5 1-4.3v-.6l.1-3.2c-.2-.1-7.2-3-7.2-2.7.1 5.4-2.4 8.2-2.4 8.2z" class="BO"/><path d="M139.4 225.3c.7 1.3 3 3.7 6.4 4.6l.1-3.2c-.2 0-6.7-1.8-6.5-1.4z" class="BP"/><path d="M147.4 226.5s-7.9 1.9-9-3.1c-1.1-4.9-2.8-8 2.2-9.4s6.4.3 7.2 1.8c.7 1.6 1.6 10.1-.4 10.7z" class="BO"/><path d="M138.7 224.8c-.1.1-1.8.6-5-5.8-.5-1-.8-3.2.3-5.1 1.2-1.9 5.4-3.4 8.8-4.1 3.5-.7 4.3 1.3 5.1 3.3.9 2.1 3.3 3.8 3.3 3.8-3 1.7-6.6-.7-7.8-.3s-1.7 2.4-1.8 3-.2 1.2-1.8.6-.7 2.2-.5 2.8c0-.2.3 1.2-.6 1.8z" fill="#a9453d"/><path d="M118.3 348.1h-4.8c-1 0-2.1-1-2.4-2.9s-2.3-2.9-2.8-4.4c-.4-1.5 1.8-3.7 1.8-3.7l.4-.5.4-.5 3.8.9.2 2.1c0 .8.1 1.8 0 2.7-.1 2 .6 4.2 2.3 4.6 1.8.4 1.1 1.7 1.1 1.7zm33.3.1h-12.7c-.1 0-.2-.1-.3-.1-.8-.4-.6-3.8-.5-4.8v-.3s4.5-3.7 5.1-.9c0 .1 0 .2.1.3h0c.8 2.6 4.2 3.8 6.2 4.2 1.6.2 2 1.1 2.1 1.6z" class="BQ"/><path d="M149.1 274.8l-1.5 18.6-2.5 34c-.2 5.6-1.1 14.5-1.1 14.5s-2.1 2.1-6.4 1.2c0 0-3.8-12.7-4.9-26.2 0-.2 0-.4-.1-.7l-2.6-42.6 19.1 1.2z" class="BR"/><path d="M149.1 274.8l-1.5 18.6-14.8 23.5c0-.2 0-.4-.1-.7l-2.6-42.6 19 1.2z" class="BY"/><path d="M146 275.8s-12.2 30.6-20.2 45l-10.5 18.4s-4.6-1.8-5-3.1c0 0 3.1-27.8 8.4-34.5 3-3.8 6.6-15.3 6.8-19.3s1.1-12 1.1-12l19.4 5.5z" class="BR"/><path d="M118 270.7l-.5 4.4c-.2.6-1.8 2.4-2 2.4s-.3-.2-.2-.5c.1-.4.6-1.5.5-1.5-.2 0-1.9 3.3-2.6 3.1s-1.4-2.5-1-4.1 3.3-4.2 3.4-4.4c.8-2.3 2.4.6 2.4.6z" class="BP"/><path d="M116.7 271.7c1.4.4 1.6.3 1.6.3l7.2-13.1c.7-1.1 14-13.4 14-13.4l-3.4-12.7-16.8 22.4c-2.7 4.6-4.3 15.4-4.3 15.4s.6.7 1.7 1.1z" class="BX"/><path d="M151.6 250.5l-.4 8.5v.5l-.4 5.5-.2 2.1v.1c0 .3 0 .5-.1.8-.7 6.8-1.4 12.1-1.5 12.2-.2.1-.3.2-.5.1-1.8-.2-7.1.2-11.4-.8-3.7-.8-6.8-2.2-10.2-4.2-.4-.3-1.5-1-1.4-1.5.1-.6.2-1.4.4-2.4.7-3.6 1.8-9.8 2.2-17.1l.3-4c.4-3.4 1-6.7 1.8-9.6 1.5-5.4 3.7-9.5 6.4-11.1.4-.2 2.3 1 4.1 2.2 1.6 1 3.4 1.3 5 1.2l1.5 1.6c1.8 2.1 3.7 4.8 4.2 8.8 0 .3.1.6.1.9.1 1.9.2 3.9.1 6.2z" fill="#2a4e96"/><path d="M151.6 250.5l-.4 8.5v.5c-10.2-6.4-11.7-18-11.7-18 5 .2 9 1.4 12 3 .1 1.7.2 3.7.1 6z" class="BX"/><path d="M183.4 239.8c-.5-1.4-1.3-1.3-1.3-1.3l-16.4 3.9c-1.4.2-16.3-5.8-16.3-5.8s-5.9-2.6-8.6-.2c-2.4 2.1-2.5 4.7-1.9 7 .7 2.6 2.9 4.6 5.6 4.9 6.1.8 18.2 2.2 20.7 1.9 5.7-.8 18.5-8.2 18.5-8.2s.1-1.1-.3-2.2z" fill="#2a4e96"/><path d="M332.3 267.5s2.1 1.9 1.7 3.3-2.3 2.3-2.6 4-1.3 2.6-2.2 2.6h-4.4s-.7-1.2 1-1.5c1.6-.4 2.3-2.3 2.2-4.2-.1-1.8.2-4.3.2-4.3l3.5-.8.6.9zm-26.2 9.7c-.2.1-1 .2-2 .2h-9.9c0-.3.3-1.3 1.9-1.6 1.8-.3 5-1.4 5.7-3.7 0-.1 0-.2.1-.2.6-2.5 4.7.8 4.7.8v.3c.1.8.3 3.8-.5 4.2z" class="BQ"/><path d="M296.6 210.2l1.4 17.1 2.3 31.2c.2 5.1 1 13.3 1 13.3s1.9 1.9 5.8 1.1c0 0 3.5-11.7 4.5-24v-.6l2.4-39.1-17.4 1z" fill="#35488b"/><path d="M296.6 210.2l1.4 17.1 13.6 21.5v-.6l2.4-39.1-17.4 1.1z" class="BQ"/><path d="M299.4 211.1s11.2 28.1 18.6 41.3l9.7 16.9s4.2-1.7 4.6-2.8c0 0-2.8-25.5-7.7-31.7-2.8-3.5-6.1-14-6.2-17.7-.2-3.7-1-11-1-11l-18 5z" fill="#35488b"/><path d="M264.9 195.9l-3.5-.7c-.5 0-2.3.8-2.3.9s.1.3.4.3 1.3-.1 1.3 0c-.1.1-3 .7-3 1.3s1.6 1.7 2.9 1.8c1.4.1 4-1.5 4.3-1.5 1.7-.2-.1-2.1-.1-2.1z" class="BO"/><path d="M263.6 196.6c-.4-1.4-.3-1.6-.3-1.6l13.4-7.3c1.1-.7 13.9-14.2 13.9-14.2l13 3.6s-20.2 15.4-23.1 17c-4.8 2.7-15.8 4.3-15.8 4.3s-.8-.7-1.1-1.8z" class="BY"/><path d="M294.5 166.9s-4.6 8-9 9.1c0 0 .2-2.7 1.3-4.5l-1.2-1.4-1.7-2.3 1.5-4.1 1-2.8c.5.9 1 1.7 1.6 2.3 3 3.3 6.5 3.7 6.5 3.7z" class="BO"/><path d="M288.1 163.1s.5 4-2.5 6.8l-1.7-2.3 1.5-4.1c1.7-.4 2.7-.4 2.7-.4z" class="BP"/><path d="M282.7 168.2s6.8-2.7 5.1-6.9-2-7.4-6.4-5.9-4.6 3.5-4.4 5c.2 1.6 3.9 8.4 5.7 7.8z" class="BO"/><path d="M318 208.1c-2.8 4-23.4 9.3-23.1 6.5.1-1 .2-2.9 0-5.4-.1-.6-.1-1.2-.2-1.9-.5-3.6-1.8-8.2-4.5-13.6l-.6-1.2c-1.1-2.1-2.1-4.3-2.9-6.4-1.4-4.1-2-8.1-1.3-10.6 4.3-2 6-9.7 6-9.7s14.7 2.6 22.9 22.2c-.1 0 6.1 16.7 3.7 20.1z" class="BR"/><path d="M294.9 209.2c-.1-.6-.1-1.2-.2-1.9-.5-3.6-1.8-8.2-4.5-13.6.5-2.9 1.1-5.3 1.9-6.4 2.9-4.4 4.6-5.1 4.6-5.1s4.3 18.7-1.8 27z" class="BY"/><path d="M271.7 204.8l-4.7.4c-.6.2-2.6 1.8-2.6 2s.2.3.6.2 1.6-.6 1.6-.4-3.5 1.9-3.3 2.7 2.6 1.6 4.3 1.2 4.5-3.3 4.8-3.4c2.3-.9-.7-2.7-.7-2.7z" class="BO"/><path d="M271 206.4c-.8-1.3-.2-1.9-.2-1.9l13.5-10.8c1-1 5.5-16.8 5.5-16.8s1.6-6.4 5.2-7.1c3.2-.6 5.4 1 6.8 2.8 1.7 2.2 1.9 5.2.5 7.7-3.2 5.4-9.7 16.1-11.6 18-4.2 4.1-18.3 9.8-18.3 9.8s-.8-.7-1.4-1.7z" class="BR"/><path d="M288.8 153.5c0-.1.2-.2.5-.3 0 0-.3-.1-.7 0-.2-.5-.7-1.3-1.5-1.3 0 0 .5.1.7.6-1.2-.8-3.4-1-9 .9-7.3 2.4-3.7 6.7-2.5 7 1.1.3 3.1-1.8 5-2.1s2.8 2.3 3.5 2.5.3-.4 1-1 1.2.8 1.1 1.7c0 1 1.4 1.9 1.4 1.9l.8-1.5c.8-1.5.6-7.1-.2-8.1 0-.1 0-.2-.1-.3z" class="BW"/><path d="M173.3 347.9v8.3l-19.5-8.3z" fill="#4271bc"/><path d="M276.1 277.4h64.7v85h-64.7z" fill="#4a75cb"/><path d="M256.1 277.4h64.7v85h-64.7z" class="BT"/><path d="M340.8 277.4v12.7l-20-12.7z" fill="#4271bc"/></svg>