<svg xmlns="http://www.w3.org/2000/svg" xmlns:xlink="http://www.w3.org/1999/xlink" viewBox="0 0 760 440" xmlns:v="https://vecta.io/nano"><style><![CDATA[.Bi{fill:#a2cdfc}.Bj{fill:#ff9841}.Bk{fill:#ffa347}.Bl{fill:#469df0}.Bm{fill:#fa9960}.Bn{fill:#f46700}.Bo{fill:#ff862e}.Bp{fill:#003261}.Bq{fill:#ffb27b}.Br{fill:#2776ce}]]></style><path d="M308.5 196.6l-9.7-.2c3.1 4 3.8 7.7 1.9 10.9s-6.6 5.8-13.4 7.8c5.2-13.9 7.8-28.5 7.8-43.6 0-16.8-3.3-33.2-9.8-48.5-6.3-14.8-15.3-28.2-26.7-39.6C247.1 71.9 233.8 63 219 56.7c-15.4-6.5-31.7-9.8-48.5-9.8s-33.2 3.3-48.5 9.8c-1.8.8-3.7 1.6-5.4 2.5-5.4-1.6-10.6-3-15.6-4-25.4-5.2-43.5-1.6-50.8 10-7 11.1-3.2 27.7 10.7 47.2-1.9 3.4-3.5 7-5.1 10.7-1.2 2.8-2.2 5.5-3.2 8.3-26 1.6-39.9 6.1-45 14.4-5.9 9.7 2.2 22.6 27.9 35.2 3.5 1.7 7.3 3.4 11.3 5.2 1.3 11.7 4.3 23 9 33.9 6.3 14.8 15.3 28.2 26.7 39.7 11.5 11.4 24.8 20.4 39.6 26.7 15.4 6.5 31.7 9.8 48.5 9.8s33.1-3.3 48.5-9.8c14.8-6.3 28.2-15.3 39.6-26.7 11.1-11.1 20-24.1 26.2-38.5 12.7-2.6 21-6.7 24.4-12.2 2.2-3.9 1.9-8.1-.8-12.5zM278.7 217c-8.4 1.5-19 2.4-31.3 2.5-19.1.2-41-1.3-64.2-4.3l5.7-13c7.2 2.4 14.1 4.3 20.8 5.6 7.6 1.5 14.5 2.3 20.7 2.3 14.5 0 24.9-4.2 30.1-12.4.8-1.3 1.5-2.8 2.1-4.3h-7.4c-.1.2-.3.4-.4.7-3.8 6.1-12.3 9.2-24.3 9.2-5.7 0-12.3-.7-19.4-2.2-6.2-1.3-12.8-3-19.6-5.3 1.8-4.5 3.5-9 5.2-13.6 4.5-12.4 8.4-24.8 11.5-36.6 14.2 2.1 29.5 3.2 45.8 3.2 10.1 0 20.6-.4 31.4-1.2 1.6 7.8 2.4 15.8 2.4 23.9.1 15.8-3 31.1-9.1 45.5zm-154.2 61.8c-3.6-1.3-5.4-6.5-6.3-10.6-1.4-6.5-1.7-15.6-.7-26.4.5-5.4 1.2-11.2 2.3-17.3 14.8 3.9 29.4 9 43.6 15.1-3.2 5.5-6.4 10.7-9.7 15.3-6.2 8.9-12.2 15.7-17.5 19.8-3.4 2.6-8.1 5.4-11.7 4.1zm42-44.9c-14.9-6.4-30.2-11.7-45.7-15.8a146.83 146.83 0 0 1 1.8-8.6c4.3 1 8.7 1.9 13.1 2.8 12.9 2.6 25.8 4.9 38.4 6.7-2.4 5.3-5 10.2-7.6 14.9zm-27.9-26.2c-5-1-9.9-2.1-14.8-3.2 2.3-9.5 5.1-19.4 8.3-29.4 17 10.4 34.2 18.9 50.6 25l-6.3 14.3c-12.4-1.9-25.1-4.1-37.8-6.7zM97.1 79.8a84.76 84.76 0 0 0 4.6 8.1c8.6 13.3 19.9 22.9 27.9 28.6 4.6 3.3 9.5 6.3 14.7 9.1-4.7 10.3-9.3 21.4-13.4 32.8-.8 2.1-1.5 4.3-2.3 6.4-24.8-16.1-45.8-34.7-59.6-52.6 3.4-5.9 7.4-11.5 11.8-16.7 1.8-2.2 3.7-4.2 5.7-6.3l.8-.8c3.2-3 6.4-5.9 9.8-8.6zm106-17.9c3.6 1.3 5.4 6.5 6.3 10.6 1.4 6.5 1.7 15.6.7 26.4-1 11.8-3.4 25.1-6.9 39.4-4.2-.7-8.4-1.6-12.4-2.5-13.9-3.2-26.6-7.6-37.9-13.1 6.8-14.1 13.9-26.7 21.1-36.9 6.2-8.9 12.2-15.7 17.5-19.8 2.7-2.1 6.4-4.4 9.7-4.4.7 0 1.3.1 1.9.3zM189 142.1c4.1 1 8.4 1.8 12.7 2.6-3 11.5-6.8 23.4-11.2 35.4l-5.2 13.7c-16.4-6-33.8-14.6-51-25.3l2.7-7.8c4.1-11.2 8.5-22 13.1-32.1 11.7 5.7 24.7 10.2 38.9 13.5zm64.5-53.7c10.8 10.8 19.3 23.4 25.2 37.3 2.1 5 3.9 10.1 5.3 15.3-27.1 2-51.9 1.4-74-1.9 3.5-14.4 5.9-27.9 6.9-39.8 1.1-13.2 1-28.8-4.3-37.6l3.7 1.5a121.78 121.78 0 0 1 37.2 25.2zm-83-34.4c8.1 0 16.1.8 24 2.4-9.2 4-18.6 15.2-25.8 25.4-7.3 10.5-14.6 23.3-21.5 37.7-4.7-2.5-9.1-5.3-13.2-8.2-13.7-9.7-21.9-19.9-26.4-26.8-2.4-3.6-4-6.7-5-8.9 4.8-3.4 9.9-6.5 15.2-9.2 2.2-1.1 4.4-2.1 6.6-3.1.2-.1.3-.1.5-.2h.1c.5-.2 1-.4 1.4-.6.1-.1.3-.1.4-.2 13.8-5.4 28.5-8.3 43.7-8.3zM55.7 68.7c3.8-6.1 12.3-9.2 24.3-9.2 5.7 0 12.3.7 19.4 2.2l8.3 1.9c-9.3 5.4-17.8 12-25.5 19.7-1.6 1.6-3.2 3.2-4.7 4.9-1.9 2.1-3.7 4.3-5.4 6.5-2.8 3.5-5.3 7.2-7.7 11-10.5-15.6-13.7-28.9-8.7-37zm6.5 57.1a91.46 91.46 0 0 1 3.3-7.1c14.5 18.1 35.9 36.7 60.9 52.7-3.5 10.8-6.6 21.4-9 31.5-18.2-4.4-35-9.4-49.8-14.7-3.1-1.1-6.1-2.2-9-3.4l-5-2.1c-.3-2.5-.4-5.1-.5-7.7 0-1.2-.1-2.4-.1-3.7 0-1.4 0-2.9.1-4.3.4-10.7 2.2-21.1 5.4-31.1.5-1.7 1.1-3.4 1.7-5.1.6-1.6 1.3-3.3 2-5zm-21.1 51.4c-22.4-10.9-32.7-21.5-28.1-29 3.7-6.1 17.2-10.2 37.8-11.7a122.96 122.96 0 0 0-4.7 26.3 106.93 106.93 0 0 0-.3 8v.7c0 2.7.1 5.4.3 8-1.8-.7-3.4-1.5-5-2.3zm17 13.4l9.3 3.4c14.7 5.1 31.2 9.8 48.8 14l-1.8 8.4c-1.4-.3-2.9-.7-4.3-1-24.4-5.5-42.6-6.7-51.1-6.9-2.1-6.3-3.6-12.8-4.6-19.4 1.2.6 2.5 1.1 3.7 1.5zm4.1 26.6c-.3-.6-.5-1.3-.8-1.9 9 .4 25.8 1.7 47.2 6.6 1.5.3 3.1.7 4.6 1.1-1.1 6.4-1.9 12.6-2.4 18.3-1 10.9-1 23.5 2 32.5-9.3-5.2-17.8-11.7-25.4-19.3-10.8-10.8-19.3-23.3-25.2-37.3zm154 62.5c-14.5 6.1-29.8 9.2-45.7 9.2-12.2 0-24.1-1.8-35.6-5.5 8.7-4.6 17.4-15 24.1-24.6 3.5-5 6.9-10.5 10.4-16.4 19.7 8.9 38.7 19.9 56.5 32.7-3.2 1.6-6.4 3.2-9.7 4.6zm37.3-25.2c-6.5 6.5-13.6 12.2-21.4 16.9-18.7-13.7-38.7-25.4-59.5-34.9 2.9-5.2 5.7-10.8 8.4-16.6 19.1 2.5 37.4 4 54.1 4.4 4.4.1 8.6.1 12.7.1 10.7-.1 20.2-.8 28.3-1.9-5.6 12-13.3 22.7-22.6 32z" fill="#a0cbfa"/><path d="M547 181.1s23.5 23.1 24.6 31.8-10.6 22.3-10.6 22.3l-14-54.1z" class="Bo"/><g class="Bp"><path d="M538.5 421.1s-.8 12.3-3.1 12.5h-12.1l-15-.1s.1-3.6 4.5-4.4 11.7-3.8 14.4-9.6c2.7-6.1 11.3 1.6 11.3 1.6zm33.4 0s-.8 12.3-3.1 12.5h-12.1l-15-.1s.1-3.6 4.5-4.4 11.7-3.8 14.4-9.6c2.7-6.1 11.3 1.6 11.3 1.6z"/><path d="M521.9 289.1s3.9 25.1 18.5 69.5c14.6 44.5 16.6 63.8 16.6 63.8l15.7-.4s.1-48.6-6.6-71-1.5-80.7-1.5-80.7l-42.7 18.8z"/></g><path d="M514.3 271.7s-.6 37.8 6 84.1c6.5 46.4 4.3 66.1 4.3 66.1l15.6.5s9.4-46.4 6.7-69.6 12.8-79.6 12.8-79.6l-45.4-1.5z" fill="#00448c"/><path d="M544.6 183.3l-7.4 5.5-10.7-2.2c.1-1 .9-5 1.5-8.7 0-.2.1-.4.1-.6l1-5.8 10-5 3.7-1.9c0 .1-.3 3.4-.3 3.9-.7 8.9 2.1 14.8 2.1 14.8z" class="Bq"/><path d="M527.3 180.6c.2-.1 14.5-4.3 16.1-3.8s2.5 3.5 2.5 3.5l-23.4 5.3c-.1 0 1.8-3.8 4.8-5z" class="Bo"/><path d="M565.7 276.4c-2.4 11-42.7 12.3-53.1 2.3-1.2-1.1-1.2-6.5-.8-13.6.9-14 3.7-35.1 3.8-45.8.1-5.2.8-10.5 1.7-15.3 2-10.3 5.1-18.4 5.1-18.4s19.7-6.4 23.4-5.3c17.7 5.2 22.3 85 19.9 96.1z" class="Bj"/><path d="M511.8 265.1c.9-14 3.7-35.1 3.8-45.8.1-5.2.8-10.5 1.7-15.3l11.8-2.1c.1-.1 11.6 47.2-17.3 63.2z" class="Bo"/><path d="M518.2 245.6s.8 1.9-.9 3.2-2.8 3.4-2.4 4.9 4.1 4 5.4 3.6 3.9-2.4 3.6-3.2 1.8-7.1-1.4-9.5c-3.1-2.4-4.3 1-4.3 1z" class="Bq"/><path d="M531.4 183.1s-11.5 1.8-20.7 15.3c-9.2 13.6-15.2 23.6-13.6 28.5 1.7 4.9 17.1 21.8 19.8 21.8s7-1.9 7.2-6.3c0 0-10.9-16.3-8.7-18.7.9-1 14.1-11.8 16-6.9 3.2 8 0-33.7 0-33.7z" class="Bj"/><path d="M541.7 168.7c-2.2 4.2-10.3 7.8-13.7 9.1 0-.2.1-.4.1-.6l1-5.8 10-5c2.2.1 3.5.6 2.6 2.3z" fill="#ffa668"/><path d="M524.3 170.9s18 5.6 21.3-5.6 7.9-18.1-3.5-22.2c-11.3-4.1-14.8-.4-16.9 3.1-2 3.4-5.5 22.9-.9 24.7z" class="Bq"/><path d="M528.1 145.5s1 13.5 3.8 12.9c2.7-.6 5.2-1.1 4.8 3s-4.2 8.8 4.1 9.5c8.4.6 20.6-21.7 18.3-25.8-6.6-12.2-40.5-14.3-31 .4z" class="Bp"/><path d="M654.9 268.9s-6.9 1.8-11.3.5-11.9.8-13.1 2.4-.8 2.2 1.4 2.8 9.8 3.8 14.9 1.9c5-1.9 11.6-2 11.6-2l-3.5-5.6z" class="Bm"/><path d="M714.5 209s-7.7 55-20.6 60c-6.3 2.4-34.3 7.9-42.6 8.5 0 0-2-1.6-1.5-8.3 0 0 29.3-10.8 33.5-16.6 6.2-8.7-3.8-35.6 3.9-43.7 7.8-8.3 20.9-11.8 27.3.1z" class="Br"/><path d="M713.5 421.2v-12.1h18.9c.5 0 .9-.4.9-.9v-1.9c0-.5-.4-.9-.9-.9h-18.9V337c0-1.9-1.6-3.5-3.5-3.5h-3.7c-1.9 0-3.5 1.6-3.5 3.5v68.3h-18.9c-.5 0-.9.4-.9.9v1.9c0 .5.4.9.9.9h18.9v12.1c-13.7 1-24.6 6-27.7 12.3h66.1c-3.1-6.2-14-11.1-27.7-12.2z" fill="#0d458d"/><g class="Bp"><path d="M711.9 325c-2.3 3.8-4.9 7.4-7.6 10.8-8.3 10.5-17.4 19.2-19 27.4-.3 1.6-.8 3.4-1.5 5.2-.7 1.9-1.5 3.8-2.4 5.9-3.5 7.7-8.8 16.3-14.1 24.1-9.1 13.5-17.7 24.8-17.7 24.8l-15.7-.7c.6-1.6 7.5-20.2 16.7-43l11.5-28.6 1.5-3.8 3.4-8.5 15.5-38.4s34.4-13 38-4.6c3 6.9.6 13.7-8.6 29.4z"/><path d="M649.2 420.3s-.8 13-3.3 13.2h-28.7s.2-3.9 4.9-4.7c4.6-.8 12.4-4.1 15.2-10.2 2.9-6.4 11.9 1.7 11.9 1.7zm36.4-37s10.9 7 9.9 9.3c-.1.3-6.2 11.1-6.2 11.1l-7.8 13.8s-3.3-1.9-1.7-6.4c1.6-4.4 2.5-12.8-1.5-18.2-4.2-5.7 7.3-9.6 7.3-9.6z"/></g><path d="M671.1 293.8s-43.5 27.1-48.3 45.2 57.5 56.7 57.5 56.7 6.8-6 8-10.5L654 343.9c-3.8-4.6 55.5-16.1 62.7-27.3 7.2-11.3 4.6-20.7 4.6-20.7l-50.2-2.1z" fill="#00448c"/><path d="M752.4 328.5H664c-1.8 0-3.2 1.4-3.2 3.2v17.7c0 1.8 1.4 3.2 3.2 3.2h88.4c1.8 0 3.2-1.4 3.2-3.2v-17.7c0-1.8-1.4-3.2-3.2-3.2z" class="Bj"/><path d="M711.7 198.6s-17.2 9.6-27.5 6.9c0 0 2.3-3.3 6.6-6l-.6-2.8-1.2-8 7.9-7.1 5.3 1.1.3 1.5c2.6 10 9.2 14.4 9.2 14.4z" class="Bm"/><path d="M722.7 248.5c-1.5 19.9.5 50.3-1.2 55.5-1.5 4.5-18 1.8-24.6.3-2.4-.6-5.4-1.4-8.5-2.3-8.5-2.6-17.8-6.4-18.8-9.2 0-.1-.1-.2-.1-.3v-.2c0-.3 0-.6.1-1 .3-1.4 1.6-3 1.8-6.5.2-3.9.1-8.6.3-13.6 0-.6 0-1.2.1-1.7v-.2-.3c.1-5.6.4-11.4.8-17.2l.7-10.7c.7-8.9 1.7-16.9 3.1-21.9 2.2-8.2 6.9-13.5 11.3-17.4l3.1-2.7c3.5.8 7.7.3 11.4-1.5 4.1-1.9 5.5-3.3 6.2-2.8 9.3 7.1 16.1 29.3 14.3 53.7z" fill="#5e9af2"/><path d="M688.4 302c-8.5-2.6-17.8-6.4-18.8-9.2 0-.1-.1-.2-.1-.3v-.2c0-.3 0-.6.1-1 .3-1.4 1.6-3 1.8-6.5.2-3.9.1-8.6.3-13.6 0-.6 0-1.2.1-1.7v-.2-.3l32.2-14.6c-.1-.1 1.8 25.9-15.6 47.6z" class="Br"/><path d="M702.6 184.3c-1.2 3-4.7 9.9-12.4 12.4-1-5.1-1.2-8-1.2-8l7.9-7.1c2.2.5 4.2.9 5.3 1.1.2.6.3 1.1.4 1.6z" fill="#eb8d5a"/><path d="M685.9 188.7s17 1.9 18-8.7 3.9-17.5-6.9-19.1c-10.8-1.7-13.3 2.2-14.5 5.6s-1 21.4 3.4 22.2z" class="Bm"/><path d="M703.8 180.7s-1.1-14-16.5-15.5c-10.6-1-4.7-10.1-3.6-11.6 0 0 8.1 1.1 16.4 2.5 17.5 2.9 5.5 22.4 3.7 24.6z" fill="#0d458d"/><path d="M663.1 279.7l-42.1.9-11.9-36.8-1.5.5 12.6 38.9 42.9-.9z" class="Br"/><path d="M658.5 277.4s-6.7 2.5-11.2 1.7-11.8 2.2-12.8 3.9-.5 2.3 1.7 2.6 10.2 2.7 15 .3 11.3-3.2 11.3-3.2l-4-5.3z" class="Bm"/><path d="M711.1 211.3s-1.6 55.6-13.8 61.9c-6 3.1-33.2 11.7-41.4 13.1 0 0-2.2-1.4-2.4-8.1 0 0 27.9-13.9 31.4-20.2 5.2-9.3-7.7-34.9-.9-43.9s19.4-13.9 27.1-2.8z" fill="#5e9af2"/><path d="M250.8 216.1l-17.2 205s-1.8 12.4 7.4 12.4h75.6s-11.4-2.6-11.3-8.4c.2-6.9 20.1-211 20.1-211l-74.6 2z" class="Bn"/><path d="M321.5 429.8H246c-6.4-.1-7.6-5.7-7.6-9.4 0-1.8.2-3.1.2-3.1l.4-5.3 1.1-13.6 1-12 1.3-15.4 1.1-13 12.2-145.6 74.7-1.9L316 358.1l-1.9 19.8c-.2 2-.4 3.9-.5 5.8l-1.5 16.1-.6 7-1.2 14.8c0 .6 0 1.1.1 1.7 1.3 6.3 10 6.5 11.1 6.5z" class="Bj"/><path d="M69.4 104.5l42 168.7 5.8 23.1 19.5 78.6h363.4L428 104.5z" class="Bk"/><path d="M69.4 104.5l-5.8 2L129 380.7l7.7-5.8z" class="Bj"/><path d="M129 380.7h361.1l10-5.8H136.7z" class="Bn"/><path d="M255.8 429.9H334v3.7h-78.2zM482.5 325l-59-216.9H68.9v-3.6H428l58.8 220.1z" class="Bk"/><g class="Bn"><path d="M314.1 380.7l-.4 2.9-73.5 14.8 1-12 .5-5.7z"/><path d="M321.5 429.8H246c-6.4-.1-7.6-5.7-7.6-9.4l73.2-13.8-1.2 14.8c0 .6 0 1.1.1 1.7 1.2 6.5 9.9 6.7 11 6.7zm-25.2-109.7l-159.6 54.8-19.5-78.6z" opacity=".4"/></g><path d="M69.4 104.5H428l58.2 217.3H121.7z" class="Bl"/><path d="M328 349.3c-1-5.3-6.2-9.6-11.5-9.6s-8.8 4.3-7.8 9.6 6.2 9.6 11.5 9.6c5.4 0 8.9-4.3 7.8-9.6z" class="Bn"/><path d="M469.3 312.4H133.5l-38-151.5-2.9-11.6-2.5-9.9-5.8-23.2h330.9l6.4 23.2 2.7 9.9 3.2 11.6z" fill="#e5f2fd"/><path d="M421.6 139.4H90.1l-5.8-23.2h330.9z" class="Bi"/><path d="M100.2 123.8c-1.6 0-2.6 1.3-2.2 2.9s2 2.9 3.6 2.9 2.6-1.3 2.2-2.9-2-2.9-3.6-2.9zm9.6 0c-1.6 0-2.6 1.3-2.2 2.9s2 2.9 3.6 2.9 2.6-1.3 2.2-2.9-2-2.9-3.6-2.9zm14 2.9c-.4-1.6-2-2.9-3.6-2.9s-2.6 1.3-2.2 2.9 2 2.9 3.6 2.9 2.6-1.3 2.2-2.9z" fill="#e5f2fd"/><path d="M364.1 207.3c-2.4-9.7-12.3-17.6-22-17.6-4.7 0-8.7 1.8-11.3 5.1-2.7 3.4-3.5 8-2.3 12.9 2.4 9.7 12.3 17.6 22 17.6 4.7 0 8.7-1.8 11.3-5.1 2.7-3.5 3.5-8.1 2.3-12.9zm-3.4 12c-2.3 2.9-5.9 4.6-10.1 4.6-9.1 0-18.4-7.4-20.7-16.6-1.1-4.4-.4-8.6 2-11.7 2.3-2.9 5.9-4.5 10.1-4.5 9.1 0 18.4 7.4 20.7 16.6 1.1 4.3.4 8.5-2 11.6zm-12.2-7.9l-1.8-12.4-.1-.5h-5l.2.5 4.4 12.4zm-2.9 2.2l1.1 4.5h4.6l-1.1-4.5zm29.3 35.8c-2.4-9.7-12.3-17.6-22-17.6-4.7 0-8.7 1.8-11.3 5.1-2.7 3.4-3.5 8-2.3 12.9 2.4 9.7 12.3 17.6 22 17.6 4.7 0 8.7-1.8 11.3-5.1 2.7-3.5 3.5-8.1 2.3-12.9zm-3.4 12c-2.3 2.9-5.9 4.6-10.1 4.6-9.1 0-18.4-7.4-20.7-16.6-1.1-4.4-.4-8.6 2-11.7 2.3-2.9 5.9-4.5 10.1-4.5 9.1 0 18.4 7.4 20.7 16.5 1.1 4.4.4 8.6-2 11.7zm-12.1-7.9l-1.8-12.4-.2-.5h-4.9l.1.5 4.4 12.4zm-2.9 2.2l1.1 4.5h4.5l-1.1-4.5z" class="Bk"/><g class="Bi"><use xlink:href="#B"/><path d="M407.6 173.3c-.3-1.1-1.4-2-2.5-2h-35.7c-1.1 0-1.8.9-1.5 2s1.4 2 2.5 2h35.7c1.1 0 1.8-.9 1.5-2zm6.4 36.2c1.1 0 1.8-.9 1.5-2s-1.4-2-2.5-2h-35.7c-1.1 0-1.8.9-1.5 2s1.4 2 2.5 2H414zm3.4 5.6c-.3-1.1-1.4-2-2.5-2h-35.7c-1.1 0-1.8.9-1.5 2s1.4 2 2.5 2h35.7c1.1 0 1.7-.9 1.5-2z"/><use xlink:href="#B" x="10.8" y="42.1"/><use xlink:href="#B" x="12.7" y="49.8"/><path d="M428.2 257.2c-.3-1.1-1.4-2-2.5-2H390c-1.1 0-1.8.9-1.5 2s1.4 2 2.5 2h35.7c1.1 0 1.8-.9 1.5-2zm-22.1-92.3l-2.5-10c-.5-1.8-2.3-3.3-4.2-3.3H113.1c-1.8 0-3 1.5-2.5 3.3l2.5 10c.5 1.8 2.3 3.3 4.2 3.3h286.4c1.8 0 2.9-1.5 2.4-3.3z"/></g><path d="M316.1 151.6l4.2 16.7h-203c-1.8 0-3.7-1.5-4.2-3.3l-2.5-10c-.5-1.8.7-3.3 2.5-3.3h203z" class="Bk"/><path d="M352.6 156.8l.3 1.3h3.2l-1.7 5.5h1.7l1.6-5.6-.3-1.2zm8.6-.1c-1.8 0-2.6 1.5-2.1 3.5s2.1 3.5 3.9 3.5 2.6-1.5 2.1-3.5-2.1-3.5-3.9-3.5zm1.4 5.7c-.9 0-1.7-.9-2-2.1-.3-1.3 0-2.1.9-2.1s1.7.9 2 2.1c.4 1.2 0 2.1-.9 2.1zm11.3-.5c-.2-1-1.1-1.7-2.1-1.7s-1.5.8-1.2 1.7c.2 1 1.1 1.7 2.1 1.7 1 .1 1.4-.7 1.2-1.7zm-1.4.9c-.4 0-.7-.4-.8-.8-.1-.5 0-.8.4-.8s.7.4.8.8 0 .8-.4.8zm-1.7-6l-3.2 6.8h1.1l3.3-6.8zm-1.9 1.7c-.2-1-1.1-1.7-2.1-1.7s-1.5.8-1.2 1.7c.2 1 1.1 1.7 2.1 1.7s1.4-.8 1.2-1.7zm-2.3 0c-.1-.5 0-.8.4-.8s.7.4.8.8c.1.5 0 .8-.4.8-.3 0-.6-.4-.8-.8z" class="Bl"/><g class="Bi"><path d="M302.7 240.5c2.1 0 3.3-1.7 2.8-3.8h0c-.5-2.1-2.6-3.8-4.7-3.8h-167c-2.1 0-3.3 1.7-2.8 3.8h0c.5 2.1 2.6 3.8 4.7 3.8h167zm3.1 12.5c2.1 0 3.3-1.7 2.8-3.8s-2.6-3.8-4.7-3.8H137c-2.1 0-3.3 1.7-2.8 3.8s2.6 3.8 4.7 3.8h166.9zm6.1 9.3c-.5-2.1-2.6-3.8-4.7-3.8h-167c-2.1 0-3.3 1.7-2.8 3.8s2.6 3.8 4.7 3.8h167c2 0 3.3-1.7 2.8-3.8z"/><use xlink:href="#C"/><path d="M243.5 220.2c.7 2.6 3.3 4.7 5.9 4.7H268c2.6 0 4.2-2.1 3.6-4.7l-9-36.1c-.7-2.6-3.3-4.7-5.9-4.7h-18.6c-2.6 0-4.2 2.1-3.6 4.7l9 36.1z"/><use xlink:href="#C" x="63.9"/><path d="M205 217l-7.4-29.7c-1.1-4.4-5.5-7.9-9.9-7.9h-63.1c-4.4 0-7 3.6-6 7.9L126 217c1.1 4.4 5.5 7.9 9.9 7.9H199c4.4 0 7.1-3.5 6-7.9z"/></g><g class="Bl"><use xlink:href="#D"/><use xlink:href="#D" x="1.7" y="7"/><path d="M191.7 202.8c-.2-1-1.3-1.8-2.3-1.8h-58.9c-1 0-1.6.8-1.4 1.8s1.3 1.8 2.3 1.8h58.9c1 0 1.7-.8 1.4-1.8zm-45.3 6h-13.9c-1 0-1.6.8-1.4 1.8s1.3 1.8 2.3 1.8h13.9c1 0 1.6-.8 1.4-1.8-.3-1-1.3-1.8-2.3-1.8z"/></g><path d="M450.7 296.3l-3.9-15.6c-.6-2.3-2.9-4.2-5.2-4.2h-33.1c-2.3 0-3.7 1.9-3.1 4.2l3.9 15.6c.6 2.3 2.9 4.2 5.2 4.2h33.1c2.2-.1 3.6-1.9 3.1-4.2z" class="Bi"/><path d="M441.2 282.5c.5 0 .8-.4.7-.9s-.7-.9-1.2-.9h-30.9c-.5 0-.8.4-.7.9s.7.9 1.2.9h30.9zm.9 3.7c.5 0 .8-.4.7-.9s-.7-.9-1.2-.9h-30.9c-.5 0-.8.4-.7.9s.7.9 1.2.9h30.9zm1.6 2.7c-.1-.5-.7-.9-1.2-.9h-30.9c-.5 0-.8.4-.7.9s.7.9 1.2.9H443c.5 0 .8-.4.7-.9zm-23.8 3.1h-7.3c-.5 0-.8.4-.7.9h0c.1.5.7.9 1.2.9h7.3c.5 0 .8-.4.7-.9s-.7-.9-1.2-.9z" class="Bl"/><g class="Bk"><use xlink:href="#E"/><use xlink:href="#E" x="1.2" y="4.7"/><path d="M223 291.7h-63c-.8 0-1.3.6-1.1 1.4s1 1.4 1.8 1.4h63c.8 0 1.3-.6 1.1-1.4s-1-1.4-1.8-1.4z"/><use xlink:href="#E" x="81.3"/><use xlink:href="#E" x="82.5" y="4.7"/><path d="M304.3 291.7h-63c-.8 0-1.3.6-1.1 1.4s1 1.4 1.8 1.4h63c.8 0 1.3-.6 1.1-1.4s-1-1.4-1.8-1.4z"/><use xlink:href="#E" x="160.1"/><use xlink:href="#E" x="161.3" y="4.7"/><path d="M384.9 293.1c-.2-.8-1-1.4-1.8-1.4h-63c-.8 0-1.3.6-1.1 1.4s1 1.4 1.8 1.4h63c.8 0 1.3-.6 1.1-1.4zm12.1 9.5H154.2c-2.1 0-4.3-1.7-4.9-3.9l-4.9-19.5c-.3-1.1-.1-2.2.5-3s1.6-1.2 2.6-1.2h242.9c2.1 0 4.3 1.7 4.9 3.9l4.9 19.5c.3 1.1.1 2.2-.5 3s-1.6 1.2-2.7 1.2zm-249.4-26.1c-.6 0-1.2.2-1.5.7-.4.5-.5 1.1-.3 1.8l4.9 19.5c.4 1.5 2 2.8 3.5 2.8H397c.6 0 1.2-.2 1.5-.7.4-.5.5-1.1.3-1.8l-4.9-19.5c-.4-1.5-2-2.8-3.5-2.8H147.6z"/></g><path d="M156.1 75.5c0-.3-.3-.5-.6-.4l-5.4.8c-.2-1.7-1.2-3.4-2.8-4.3l-.3-.2c-1.7-1-3.7-1-5.3-.2l-2.2-5.4c-.1-.3-.4-.4-.6-.3-.3.1-.4.4-.3.6l2.2 5.5c-.3.3-.7.5-1 .9-.2.3-.4.5-.6.9l-.6 1-5-2.9c-.2-.1-.5-.1-.7.2-.1.2-.1.5.2.7.1 0 2.2 1.3 5 2.9l-.3.6c-.3.6-.5 1.2-.7 1.8l-6.8 1c-.3 0-.5.3-.4.6 0 .2.2.4.5.4h.1l6.6-.9a5.82 5.82 0 0 0 2.8 5l.3.2c1.8 1 3.8 1 5.5.1L148 90a.55.55 0 0 0 .5.3h.2c.3-.1.4-.4.3-.6l-2.4-6.1c.5-.4 1-1 1.4-1.6l.3-.6 5 2.9c.1 0 .2.1.3.1.2 0 .3-.1.4-.2.1-.2.1-.5-.2-.7l-5-2.9.6-1c.2-.3.3-.6.4-1 .2-.5.3-1 .3-1.5l5.6-.8c.2-.3.4-.6.4-.8z" class="Bi"/><path d="M149.3 79.3l-1.4 2.5c-1.6 2.7-5.1 3.6-7.8 2.1l-.3-.2c-2.7-1.6-3.6-5.1-2.1-7.8l1.4-2.5.6-.9 10 5.8c-.1.3-.2.7-.4 1z" fill="#ff7a70"/><path d="M41.9 140.7l-6.3-1.8c0-.7-.1-1.4-.4-2.1l-.3-.6 5.4-2.2c.3-.1.4-.4.3-.7s-.4-.4-.7-.3l-5.4 2.2-.5-1.1c-.1-.3-.3-.6-.5-.9-.3-.4-.6-.8-1-1.2l2.8-4.9c.1-.2.1-.5-.2-.7-.2-.1-.5-.1-.7.2l-2.7 4.8c-1.5-.9-3.4-1.1-5.1-.4l-.4.1c-1.8.7-3 2.3-3.4 4.1l-5.6-1.6c-.3-.1-.5.1-.6.3-.1.3.1.5.3.6l5.7 1.6c0 .4 0 .9.1 1.3l.3 1 .5 1.1-5.4 2.2c-.3.1-.4.4-.3.7a.55.55 0 0 0 .5.3h.2l5.4-2.2.3.6c.2.6.6 1.1 1 1.6l-3.4 6c-.1.2-.1.5.2.7.1 0 .2.1.2.1.2 0 .3-.1.4-.3l3.3-5.8c1.6 1.2 3.7 1.6 5.7.8l.4-.1c1.9-.8 3.1-2.4 3.4-4.3l6.1 1.7h.1c.2 0 .4-.1.5-.4.2 0 0-.3-.2-.4z" class="Bi"/><path d="M34.1 134.2l1.1 2.7c1.2 2.9-.2 6.2-3.1 7.4l-.4.1c-2.9 1.2-6.2-.2-7.4-3.1l-1.1-2.7-.3-1 10.7-4.4c.2.3.3.7.5 1z" fill="#ff7a70"/><path d="M105 320.2l-.1.1c-2.1 1.6-16.3 11.3-48.3 7L56 331l-.3 1.8-.3 1.8h0c-.1.6-.2 1.2-.2 1.7-.1.6-.2 1.2-.2 1.7-.1.6-.1 1.1-.2 1.7h0c-.1.6-.1 1.1-.2 1.7s-.1 1.1-.2 1.7-.1 1.1-.2 1.7c-.1.5-.1 1.1-.1 1.6 0 .4-.1.8-.1 1.2 0 .3-.1.7-.1 1s0 .6-.1.8v.4c0 .5-.1.9-.1 1.4s-.1 1-.1 1.5v.3 1.1.9c0 .9-.1 1.8-.1 2.7v1.2 1.4.1 1.4 1.1 1 .3 1 1.1c0 .4 0 .8.1 1.1 0 .4 0 .9.1 1.3v.1c0 .4.1.9.1 1.3s.1.9.1 1.3.1.9.1 1.3.1.9.1 1.3.1.8.1 1.2v.1c0 .4.1.8.1 1.2s.1.8.2 1.2.1.8.2 1.2.1.8.2 1.2.1.8.2 1.2.1.8.2 1.2.1.8.2 1.2l.3 1.4c.1.3.1.6.2.9.1.4.2.7.2 1.1v.1c.1.3.1.7.2 1 .1.4.2.7.3 1.1.2.7.4 1.5.5 2.2a12.59 12.59 0 0 1 .3 1c.1.3.2.7.3 1 .1.2.1.5.2.7s.1.5.2.7.1.4.2.6c.1.3.2.7.3 1 .2.6.4 1.3.6 1.9l.3.9.3.9.9 2.4c.1.2.2.5.3.7.1.3.3.7.4 1s.2.5.3.8c.6 1.4 1.3 2.7 1.9 4 .1.3.3.5.4.7.3.6.6 1.2.9 1.7l.3.6c.1.2.2.4.3.5.1.2.2.4.4.6.3.5.6.9.8 1.4.1.2.2.3.3.5.3.5.6 1 .9 1.4.1.2.2.3.3.5.7 1.1 1.5 2.1 2.2 3 .1.2.3.3.4.5.7.9 1.4 1.7 2.1 2.5.2.2.4.5.7.7l.1.1.4.4c.8.8 1.5 1.6 2.3 2.3a1.38 1.38 0 0 0 .4.3l.7.7c.2.2.4.4.7.6l.6.6c.4.3.7.6 1 .9.1.1.2.1.3.2.6.5 1.2.9 1.7 1.3.2.1.3.2.5.3.4.3.8.6 1.2.8.1.1.2.1.3.2l.6.3s.1 0 .1.1c0 0 .1 0 .1.1l.6.3c2-.7 4-1.4 5.9-2.2 12.1-5.1 21.7-12.8 29.2-21.7l.1-.1c16.3-19.2 23.3-44.1 26.3-60.6l.9-5.1c-32.1-7-41.7-21.6-42.7-23.3z" fill="#2a8fe3"/><path d="M142.3 351.4c-2.7 15-9.1 37.7-24 55.2l-.1.1c-6.9 8.1-15.6 15.1-26.7 19.8-1.7.7-3.6 1.4-5.4 2 0 0-.2-.1-.5-.3 0 0-.1 0-.1-.1 0 0-.1 0-.1-.1-.2-.1-.3-.2-.5-.3-.1-.1-.2-.1-.3-.2-.3-.2-.7-.4-1.1-.7-.1-.1-.3-.2-.4-.3-.5-.3-1-.7-1.6-1.2-.1-.1-.2-.1-.3-.2-.3-.2-.6-.5-1-.8-.2-.2-.4-.3-.6-.5s-.4-.4-.6-.5c-.2-.2-.4-.4-.7-.6l-.3-.3c-.7-.6-1.4-1.4-2.1-2.1-.1-.1-.2-.3-.4-.4l-.1-.1c-.2-.2-.4-.4-.6-.7-.6-.7-1.3-1.5-1.9-2.3-.1-.2-.2-.3-.4-.5-.7-.9-1.3-1.8-2-2.7-.1-.1-.2-.3-.3-.4-.3-.4-.6-.8-.8-1.3-.1-.1-.2-.3-.3-.4-.3-.4-.5-.8-.8-1.3l-.3-.6c-.1-.2-.2-.3-.3-.5s-.2-.4-.3-.5c-.3-.5-.6-1-.9-1.6-.1-.2-.2-.4-.4-.7-.6-1.2-1.2-2.4-1.7-3.6-.1-.2-.2-.5-.3-.7-.1-.3-.3-.6-.4-.9l-.3-.6c-.3-.7-.6-1.5-.9-2.2-.1-.3-.2-.6-.3-.8-.1-.3-.2-.6-.3-.8-.2-.6-.4-1.1-.6-1.7l-.3-.9c-.1-.2-.1-.3-.2-.5s-.1-.4-.2-.7c-.1-.2-.1-.4-.2-.7l-.3-.9c-.1-.3-.2-.6-.2-.9-.2-.7-.3-1.3-.5-2-.1-.3-.2-.7-.2-1-.1-.3-.1-.6-.2-.9v-.1c-.1-.3-.1-.6-.2-1-.1-.3-.1-.5-.2-.8-.1-.4-.2-.9-.2-1.3-.1-.4-.1-.7-.2-1.1s-.1-.7-.2-1.1-.1-.7-.2-1.1-.1-.7-.2-1.1-.1-.7-.1-1.1-.1-.7-.1-1.1-.1-.7-.1-1.1v-.1c0-.4-.1-.7-.1-1.1s-.1-.8-.1-1.2-.1-.8-.1-1.2-.1-.8-.1-1.2-.1-.8-.1-1.2v-.1c0-.4 0-.8-.1-1.2v-1-1-.9-.3-.9-1-1.3-.1-1.3-1.1c0-.8 0-1.6.1-2.5v-.8-1-.3c0-.4 0-.9.1-1.3 0-.4 0-.8.1-1.3v-.4c0-.3 0-.5.1-.8 0-.3 0-.6.1-.9 0-.4.1-.7.1-1.1 0-.5.1-1 .1-1.5s.1-1 .1-1.5c.1-.5.1-1 .2-1.5s.1-1 .2-1.5h0c.1-.5.1-1 .2-1.6.1-.5.1-1.1.2-1.6s.1-1.1.2-1.6h0c.1-.5.2-1.1.2-1.6l.3-1.6.6-3.3c29.2 3.9 42.2-4.9 44.1-6.4.1 0 .1-.1.1-.1.9 1.5 9.7 14.8 39 21.5.1 1.5-.2 3-.5 4.7z" class="Bi"/><path d="M104.2 325.1l-18.6 103c-.2-.1-.4-.3-.7-.4-.1-.1-.2-.1-.3-.2l-1.1-.7c-.1-.1-.3-.2-.4-.3-.5-.3-1-.7-1.6-1.2-.1-.1-.2-.1-.3-.2-.3-.2-.6-.5-1-.8-.2-.2-.4-.3-.6-.5s-.4-.4-.6-.5c-.2-.2-.4-.4-.7-.6l-.3-.3c-.7-.6-1.4-1.4-2.1-2.1-.1-.1-.2-.3-.4-.4l-.1-.1c-.2-.2-.4-.4-.6-.7l-1.9-2.3c-.1-.2-.2-.3-.4-.5l-2-2.7c-.1-.1-.2-.3-.3-.4-.3-.4-.6-.8-.8-1.3-.1-.1-.2-.3-.3-.4-.3-.4-.5-.8-.8-1.3l-.3-.6c-.1-.2-.2-.3-.3-.5s-.2-.4-.3-.5l-.9-1.6c-.1-.2-.2-.4-.4-.7l-1.7-3.6c-.1-.2-.2-.5-.3-.7-.1-.3-.3-.6-.4-.9l-.3-.6-.9-2.2-.3-.8-.3-.8-.6-1.7-.3-.9c-.1-.2-.1-.3-.2-.5s-.1-.4-.2-.7c-.1-.2-.1-.4-.2-.7l-.3-.9c-.1-.3-.2-.6-.2-.9l-.5-2c-.1-.3-.2-.7-.2-1-.1-.3-.1-.6-.2-.9v-.1c-.1-.3-.1-.6-.2-1-.1-.3-.1-.5-.2-.8-.1-.4-.2-.9-.2-1.3-.1-.4-.1-.7-.2-1.1s-.1-.7-.2-1.1-.1-.7-.2-1.1-.1-.7-.2-1.1-.1-.7-.1-1.1-.1-.7-.1-1.1-.1-.7-.1-1.1v-.1c0-.4-.1-.7-.1-1.1s-.1-.8-.1-1.2-.1-.8-.1-1.2-.1-.8-.1-1.2-.1-.8-.1-1.2v-.1c0-.4 0-.8-.1-1.2v-1-1-.9-.3-.9-1-1.3-.1-1.3-1.1l.1-2.5v-.8-1-.3c0-.4 0-.9.1-1.3 0-.4 0-.8.1-1.3v-.4c0-.3 0-.5.1-.8 0-.3 0-.6.1-.9 0-.4.1-.7.1-1.1 0-.5.1-1 .1-1.5s.1-1 .1-1.5c.1-.5.1-1 .2-1.5s.1-1 .2-1.5h0c.1-.5.1-1 .2-1.6.1-.5.1-1.1.2-1.6s.1-1.1.2-1.6h0c.1-.5.2-1.1.2-1.6l.3-1.6.6-3.3c32 4.3 44.6-6.6 44.6-6.6z" class="Bl"/><defs ><path id="B" d="M412.1 201.8c1.1 0 1.8-.9 1.5-2s-1.4-2-2.5-2h-35.7c-1.1 0-1.8.9-1.5 2s1.4 2 2.5 2h35.7z"/><path id="C" d="M211.3 220.2c.7 2.6 3.3 4.7 5.9 4.7h18.6c2.6 0 4.2-2.1 3.6-4.7l-9-36.1c-.7-2.6-3.3-4.7-5.9-4.7h-18.6c-2.6 0-4.2 2.1-3.6 4.7l9 36.1z"/><path id="D" d="M186.9 190.7c1 0 1.6-.8 1.4-1.8h0c-.2-1-1.3-1.8-2.3-1.8h-58.9c-1 0-1.6.8-1.4 1.8h0c.2 1 1.3 1.8 2.3 1.8h58.9z"/><path id="E" d="M221.3 284.9c.8 0 1.3-.6 1.1-1.4h0c-.2-.8-1-1.4-1.8-1.4h-63c-.8 0-1.3.6-1.1 1.4h0c.2.8 1 1.4 1.8 1.4h63z"/></defs></svg>