<svg xmlns="http://www.w3.org/2000/svg" xmlns:xlink="http://www.w3.org/1999/xlink" viewBox="0 0 760 440" xmlns:v="https://vecta.io/nano"><style><![CDATA[.Bi{fill:#ffae73}.Bj{fill:#25468f}.Bk{fill:#a9c2ff}.Bl{fill:#fff}.Bm{fill:#ff912b}.Bn{fill:#6b98f6}.Bo{fill:#cedfff}.Bp{fill:#f46700}.Bq{fill:#1e3865}.Br{fill:#5158bf}.Bs{fill:#e8f2fa}.Bt{fill:#899bfa}.Bu{fill:#f28018}.Bv{fill:#10294c}.Bw{fill:#5e9af2}.Bx{fill:#0b3563}]]></style><g opacity=".5" class="Bk"><g opacity=".5"><path d="M237.9 121.7s-5.3-44-27.8-70.3c-3-3.5-8.7-1.3-8.6 3.3v.2c.3 7.9 25.5 41 36.4 66.8z"/></g><g opacity=".5"><path d="M240.7 134.3s-22.5-55-60.9-79.4c-2.3-1.5-5.5-.9-7.1 1.3-1 1.5-1.5 3.8-.3 7.4 3 9.8 45.9 42.4 68.3 70.7z"/></g></g><g fill="#73b471"><path d="M520.7 120.3s-20.1-12.4-9.9-27.7c0 0 8.1-9.3 16.4-11.4 0 0-5.4 23.2-1 23.9s4.1-26.3 4.1-26.3 22.1-9.5 30.6-8.4c0 0-14.4 22.3-10 21.9s20.5-22.8 20.5-22.8S594 66.4 597 79.7s-3 19.7-6.3 20.4-24.5-.5-24 2.3c.4 2.8 14.5 7.8 22.6 5.6 0 0-9.7 21.3-21.2 19.8-11.5-1.6-14.8-8.9-21.9-9.7s-12.4.9-8.9 2.9c3.5 2.1 15.6 1.3 21.2 6.4s10.1 8.4-.7 10.1c-10.8 1.8-30-.4-33.5-8.8l-3.6-8.4z"/><path d="M586.7 83.4s-58.5 16.3-65.9 36.9c0 0-.1 9.4-6.3 19.8l-.2 4.1s6.6-13.8 10-15.6c-.1.1-12.2-18.6 62.4-45.2z"/><path d="M514.4 140.1s-9.5 13.1-5.1 29.8l2.3-.5s-1.5-18.2 3.6-27.1-.8-2.2-.8-2.2z"/></g><g fill="#9bd399"><path d="M439.3 119.8s-33.8 3-35.1-23.4c0 0 1.3-17.6 9.1-27.3 0 0 13.7 31.3 19.4 28.4s-17.8-33.8-17.8-33.8 17.3-30 28.1-35.9c0 0 2.5 38 7.3 33.8s4-43.8 4-43.8 23.1-22.9 38-10.2c14.9 12.8 13.4 25.3 10.2 28.9S473.9 57 476.8 59.8s23.4-3.5 30.9-12.9c0 0 7.1 32.9-7.4 40.9-14.6 8-24.6 2.5-33.5 7.6s-13.6 11.6-7.8 11 19.1-11.9 29.9-10.8 18.8 1 7.9 12.2c-10.9 11.3-34.9 25.2-46.1 18.6l-11.4-6.6z"/><path d="M483.6 20.8s-53.4 68.9-44.3 99c0 0 7.9 10.9 9.7 28.3l3.3 4.9s-4.2-21.5-1.8-26.5c0 0-30-11.1 33.1-105.7z"/><path d="M449 148.1s.4 23.2 19.7 38.7l2.2-2.6s-17.3-19.7-19.2-34.3c-1.8-14.6-2.7-1.8-2.7-1.8z"/></g><g fill="#b6cfff"><path d="M121.6 379.7s-9.5-11-.6-18.1c0 0 6.5-3.9 11.8-3.6 0 0-7.5 12.6-5.1 13.8 2.4 1.3 7.3-14.6 7.3-14.6s14.8-1.4 19.5.9c0 0-12.6 10.3-10 10.9 2.7.6 16.3-9.5 16.3-9.5s13.7 2.3 13 10.7-5.5 11-7.6 10.8-14.3-4.9-14.5-3.2c-.3 1.7 7.1 7.3 12.2 7.5 0 0-9.7 10.7-16.1 7.6s-7-8-11-9.8-7.4-1.8-5.8 0c1.7 1.9 8.9 3.7 11.2 7.7 2.3 4.1 4.4 6.8-2.3 5.8s-17.5-5.9-18-11.5l-.3-5.4z"/><path d="M167.2 370.5s-37.3-1.4-45.6 9.2c0 0-1.8 5.5-7.4 10.4l-.9 2.4s6.5-6.8 8.8-7.2c0 0-3.7-13.2 45.1-14.8z"/><path d="M114.2 390.1s-8 5.9-8.6 16.5l1.5.1s2.6-10.9 7.2-15.2c4.5-4.2-.1-1.4-.1-1.4z"/></g><g class="Bk"><path d="M88.5 365.8s15.1-8.4 8-19.9c0 0-5.6-7-11.6-8.8 0 0 3.2 17.1 0 17.5s-2.2-19.3-2.2-19.3-15.9-7.6-22.1-7c0 0 9.8 16.7 6.6 16.3s-14.3-17.3-14.3-17.3-16.3-3-18.9 6.6 1.6 14.5 4 15.1 17.9.4 17.5 2.4-10.8 5.2-16.7 3.4c0 0 6.4 15.9 14.9 15.1 8.4-.8 11-6 16.3-6.4 5.2-.4 9 1 6.4 2.4s-11.4.5-15.7 4c-4.2 3.6-7.6 5.8.2 7.4s21.9.6 24.7-5.4l2.9-6.1z"/><path d="M41.5 336.9s42.2 13.7 47 28.9c0 0-.2 6.8 4 14.7v3s-4.4-10.2-6.8-11.6c0-.1 9.4-13.3-44.2-35z"/><path d="M92.5 380.5s6.5 9.9 2.8 21.9l-1.7-.4s1.6-13.2-1.8-19.9.7-1.6.7-1.6z"/></g><g class="Bo"><path d="M112.4 354.2s-19.9-11.1-10.6-26.2c0 0 7.4-9.3 15.4-11.6 0 0-4.2 22.5 0 23s2.9-25.4 2.9-25.4 20.9-10.1 29.1-9.3c0 0-13 22-8.7 21.4 4.2-.5 18.8-22.8 18.8-22.8s21.4-4 24.9 8.7c3.4 12.7-2.1 19.1-5.3 19.9s-23.6.5-23 3.2c.5 2.6 14.3 6.9 22 4.5 0 0-8.5 20.9-19.6 19.9-11.1-1.1-14.6-7.9-21.4-8.5-6.9-.5-11.9 1.3-8.5 3.2s15.1.6 20.7 5.3 10.1 7.6-.3 9.8c-10.3 2.1-28.9.8-32.6-7.1l-3.8-8z"/><path d="M174.4 316.1s-55.6 18-62 38.1c0 0 .3 9-5.3 19.3v4s5.8-13.5 9-15.4c0 0-12.4-17.5 58.3-46z"/><path d="M107.1 373.5s-8.6 13-3.7 28.9l2.2-.6s-2.1-17.5 2.3-26.2c4.6-8.8-.8-2.1-.8-2.1z"/></g><g fill="#bbd3ff"><path d="M111.8 436.7c21.5 0 38.9-17.4 38.9-38.9H72.9c0 21.5 17.4 38.9 38.9 38.9z"/><path d="M151.2 438.7H72.3h0c0-2.7 2.1-4.8 4.8-4.8h69.3c2.7 0 4.8 2.2 4.8 4.8h0z"/></g><path d="M71.6 397.8h80v1.2h-80z" fill="#80a1e6"/><path d="M377.1 218.8l-17.4 207s-1.8 12.5 7.5 12.6h76.4s-11.5-2.6-11.4-8.5c.2-6.9 20.3-213 20.3-213l-75.4 1.9z" class="Bp"/><path d="M449.3 434.6c-3 0-62.1.1-77-.1-6.5-.1-7.7-5.8-7.7-9.5 0-1.8.2-3.1.2-3.1l.5-5.4 1.2-13.7 1-12.1 1.3-15.6 1.1-13.1 12.3-147 75.4-2-14.5 149-1.9 20-.6 5.9-1.5 16.2-.6 7.1-1.2 14.9c0 .6 0 1.2.1 1.7 1.2 6.5 10.8 6.8 11.9 6.8z" fill="#ff9841"/><g fill="#ffa347"><path d="M194 106.1l42.4 170.3 5.8 23.4 19.7 79.3h366.9l-72.8-273z"/><path d="M194 106.1l-5.9 2 66 276.9 7.8-5.9z"/></g><path d="M254.1 385h364.6l10.1-5.9H261.9z" class="Bp"/><g opacity=".4" class="Bp"><path d="M461.107 438.36h-78.9v-3.8h78.9z"/></g><path d="M441 385l-.4 2.9-74.2 15 1-12.1.5-5.8z" fill="#ff9841"/><path d="M449.3 434.6c-3 0-62.1.1-77-.1-6.5-.1-7.7-5.8-7.7-9.5l73.9-13.9-1.2 14.9c0 .6 0 1.2.1 1.7 1.2 6.6 10.8 6.9 11.9 6.9z" class="Bp"/><path d="M194 106.1h362l58.7 219.4H248.6z" fill="#469df0"/><path d="M597.6 316H258.7l-12.1-48.3-4.7-18.6-1.9-7.6-12.5-49.6-.6-2.6-6.6-26.2-2.9-11.8-2.6-10-2-8.1-3.8-15.3h334l4.2 15.3 2.3 8.1 2.8 10 3.2 11.8 21.3 77.2h0l1.8 6.6.8 3 14.7 53.4z" class="Bl"/><path d="M463.3 307.2H288.9l-9.6-46.9-3.7-14.8-1.5-6-9.8-39.2-.6-2.1-5.2-20.7-2.3-9.3-2-7.9-1.6-6.5-3-12.1h170.6z" fill="#5d6cd2"/><g opacity=".4" class="Bp"><path d="M386.1 325.5L262 379.7l-13.4-54.2z"/></g><path d="M668.7 206c0-.5.4-5.8 8.4-6 0 0-3.9.5-4.6 2.2 0 0 2.7-2.1 4.9-1.5 2.2.7 3.5 4.5 3.5 5.8s-1.2 5.3-2.6 5.7c-.5.1-1.1.1-1.7 0 .4.6.7 1.2 1.1 1.9 3.2 6.6-.1 13-2.8 12.3-1.7-.5-2.2 2.5-2.2 2.5l-16.9-13.7c-.1.1 6.1-12.8 12.9-9.2z" fill="#2a3967"/><path d="M622.7 288.1c1.4 1.2 5.2-3 5.7-3.6 0-.1.1-.1.1-.1l-1.1-3.2s-4.9-.2-5.7.6c-1 .9-.6 5 1 6.3z" class="Bi"/><path d="M662.8 399.5l3.6 1.3s15.6-21.6 17.5-40.6c.3-3.4-.4-10.6-.1-12.1.1-.7.3-1.6.4-2.6l2-11.4 6-33.5-1-.3-10.4-3.4-2.2-6.9-7.8-2s-1.7 3.4-3.3 19.5c-.3 2.1-.5 4.4-.7 6.9-.6 7.7-.6 17.2.7 28.1.4 2.8 1.8 13.8 1.7 17.2-.7 15.6-6.4 39.8-6.4 39.8z" class="Bj"/><path d="M666.9 314.5l16.9 33.6.4-2.6 2-11.4 6-33.5-1-.3-10.4-3.4-2.2-6.9-7.8-2s-1.7 3.4-3.3 19.5l-.6 7z" class="Bq"/><path d="M674.3 292.4l.4-3.4c6.6 1.7 24.1-4.9 24.1-4.9s6.3 5.6 5.5 19c-.4 6.5-1.1 34.3-1.9 42.5-.3 3 1.7 10.6 2.4 12.7 7.6 20.3-1.2 45.3-1.2 45.3l-2.3-.9-15.9-57.9c-2.8-10.5-5.1-24.1-6.6-34.6-.2 0-4.5-17.8-4.5-17.8z" class="Bj"/><path d="M669.3 253.5c11.3.6 8.8-16.2 8.1-16.1-1.4-.7-3.9-4.2-5.3-10.1l-.5.2-8.1 3.8s.9 2.6 1.5 5.2c.5 2 .9 3.9.6 4.4-.6.3-1 .4-1 .4-.1.4 1.7 12 4.7 12.2z" class="Bi"/><path d="M663.5 231.4s.9 2.6 1.5 5.2c4.8-1.3 6.2-6.3 6.6-9l-8.1 3.8z" fill="#f99352"/><path d="M662.5 234.2s11.4-2.6 9.6-9.7c-1.7-7.1-1.5-12.1-8.8-10.8-7.3 1.4-8.1 4.4-8.1 6.9.1 2.6 4.3 14.1 7.3 13.6z" class="Bi"/><path d="M654.7 216.7c1.2-2.6 2.7-2.4 3.6-2 5.3-4.9 10.6-.9 10.6-.9 2 4.9 6.4 6.9 6.4 6.9s-1.7 1.8-6.8 1.7c-1.5 0-3.1-.7-4.5-1.7 2.7 2.7 5.9 4.4 5.9 4.4-6.3-1.2-10.6-8.5-11-9.3-.5.8-1.6 2.5-1.6 3.9-.1 1.9.5 5.7-.6 5.8-.1 0-3.9-5-2-8.8z" fill="#2a3967"/><path d="M690.3 405.5h18.1s.4-2.8-.5-4.8-2.3-2.9-2-5.3c-1.1 1.2-3 2.5-5.6 2.2-.3.5-2.1 3.3-3.1 4.1-1.2.7-6.5.4-6.9 3.8zm-38.7 0h18.1s.7-2.9-.5-4.8c-1-1.7-.6-2.7.1-4.2-.8.3-1.9.6-3 .6-.9-.1-1.9-.5-2.7-.9l-5.1 5.4c-1.3.8-6.6.5-6.9 3.9z" class="Bq"/><path d="M699.1 262.9l-3-9c-2.3-6.3-3.8-9.6-5-12.2-2.4-4.9-13-4.6-13-4.6-2 7.4-7.6 11.9-7.6 11.9-3-1.8-5.2-7.9-5.2-7.9l-6.5 3.5h0 0s-2 1.2-3.8 6.3c-2.6 7.6-6.9 18.3-9.8 21.6-.7.8-2.7 1.9-5.2 3.2h0l-.1.1c.2.4.9 2.1 2 3.8.9 1.4 2.2 2.8 3.6 3.6 1.1-.5 3.1-1.3 4-1.9 3.1-1.9 7.7-4.6 11.3-10.3l1 13.5 1.8 24.3c2.8.9 5.4 1.5 7.9 2.1.2-2 .8-4.5.8-4.5 0 1.3 1.5 3.7 2.4 5.1 23.1 3.7 34-6.4 34-6.4-1-9-4.9-27.1-9.6-42.2z" fill="#59bdcd"/><g fill="#6f7deb"><path d="M675.8 235.8s1.9.1 2.3 1.4c0 0-2.5 10.1-7.6 11.9l5.3-13.3z"/><path d="M670.5 249.1s-4.9-8.9-4.9-10.1c0 0-1.9 1.7-1.7 2.9-.1 0 4.1 6.6 6.6 7.2z"/></g><g fill="#55b2bc"><path d="M683.6 245.5c-.1.5-10.2 24.4-19.1 33.3-3.9 3.9 8.6 2.7 8.7 2s10.4-35.3 10.4-35.3z"/><path d="M662 285.2l.9 13.5c27.4-6.4 25.1-50 25.1-50l-13.8 28.4-12.1 7.9c0 0 0 0-.1.2z"/></g><path d="M639.8 275.7s0 .1 0 0c-.1 0-.1 0 0 0z" class="Bk"/><path d="M653.3 257.1l5.5 24.3c.9 3.9-2.1 7-6.6 7h-131c-4.5 0-8.8-3.1-9.7-7l-5.5-24.3c0-.1-.1-.3-.1-.4-.6-3.7 2.3-6.6 6.6-6.6h131c4.3 0 8.5 2.9 9.6 6.6a.76.76 0 0 1 .2.4z" class="Bm"/><g class="Bs"><path d="M521.5 277.5h-1.3l-3.4-15.1h1.3zm8.8-8.9h-9.2l-.9-4.3h9.2zm4.3 6.1h-12.1l-1-4.2h12.2zm16.3 2.8h-1.3l-3.4-15.1h1.3z"/><path d="M552.9 268.6h-9.2l-1-4.3h9.2zm2.8 6.1h-12.1l-1-4.2h12.2zm24.7 2.8h-1.3l-3.4-15.1h1.3zm-4.9-8.9h-9.3l-.9-4.3h9.2zm1.3 6.1h-12.1l-.9-4.2h12.1zm22.4-11.1h-15.1l-.3-1.3h15.1zm-8.6 1.2l2.1 9.2h-4.3l-2.1-9.2zm6.2 0l2.7 12.1h-4.3l-2.7-12.1zm26.3 5.8h-15.2l-.3-1.3h15.2z"/><path d="M613 265.3l2.1 9.2h-4.3l-2.1-9.2zm5.8-1.4l2.7 12.1h-4.3l-2.7-12.1zm28.1 13.7h-15.1l-.3-1.3h15.1zm-11.4-11.8l2 9.2h-4.3l-2-9.2zm5.4-2.9l2.8 12.1h-4.3l-2.7-12.1z"/></g><g class="Bi"><path d="M640.2 286.3c1.5 0 3.9-.1 5.2-.6 0 0-4.4-.1-3.4-1.4.2-.3 2.3-.1 4.7-.1 1 0 3.4 1.4 3.3 1.4 1.8-.2 3.3-.6 3.9-.7.1 0 .2-.1.2-.1l1.5 4.5s-.3.1-.9.2c-1.4.4-4.4 1.1-7.2 2.2-3.9 1.5-6.8-.4-8.1-1.7-.8-.9-1.5-2-1.4-2.8 0-1 1.2-.9 2.2-.9z"/><path d="M650.7 286.6l.9 3.5 3.1-.6c.6-.1.9-.2.9-.2l5.3-1.1h0c3.4-.8 7.2-1.8 10.4-2.9.3-.1.6-.2.8-.3 1.9-.7-1.8-10.3-3.4-9.1-.4.3-.9.6-1.4 1-2.7 1.9-6.2 3.9-9.3 5.7-1.5.9-3 1.7-4.2 2.3-1.9 1-3.1 1.7-3.1 1.7z"/></g><path d="M667.3 276.9s-.2 6.6 5.9 9.7c7.1-2.6 10.9-13.1 13.8-20.4l1.2-3c1.4-3.6 2.4-7.2 3.1-10.3.4-1.8-7.5-11.1-8.5-8.9-1.5 3.5-3.2 8-4.7 12.5-.8 2.5-1.7 4.9-2.5 7.2-.5 1.4-.9 2.7-1.4 3.9-.8 2.3-1.6 4.1-2.3 5.3-.4.8-1.7 1.8-3.3 3-.3.3-.8.7-1.3 1z" fill="#59bdcd"/><path d="M547.2 133.2H212.8l-3.8-15.3h334z" fill="#3c4aaa"/><g class="Bs"><use xlink:href="#B"/><use xlink:href="#B" x="11.3" y="-0.1"/><use xlink:href="#B" x="22.6" y="-0.2"/></g><path d="M256.2 168.2s39.4.1 67.9 22 24.4 41.5 48.1 46.4c38.8 8.1 14.7-33.4 65.1-29.1l25.9 99.6H288.9l-13.3-61.7-19.4-77.2z" class="Bm"/><path d="M381.2 238.1c-2.7 0-5.7-.4-9.1-1.1-13.1-2.7-17.9-10.1-24-19.3-5.1-7.7-11.4-17.3-24.3-27.2-8.1-6.2-22.4-14.6-44.5-19.2-13.2-2.7-23.1-2.8-23.2-2.8v-.7c.1 0 10 .1 23.3 2.8 12.3 2.5 30 7.9 44.8 19.3 13 10 19.3 19.6 24.4 27.3 6.2 9.5 10.8 16.4 23.5 19 18.2 3.8 22.3-3.4 27.1-11.7 5.3-9.2 11.3-19.7 38-17.4l-.1.7c-26.2-2.2-32.1 8-37.3 17-2.4 4.2-4.7 8.1-8.7 10.6-2.5 1.9-5.8 2.7-9.9 2.7z" class="Bl"/><path d="M265.4 204.6l10 39.9 13.5 62.8h174.4l-8.8-32.6s-25.8-14.4-60.8-1.8c-35 12.5-73.8 1-76.3-27.2-2.8-31.9-32-47.3-52-41.1z" fill="#fc7400"/><g class="Bl"><path d="M309.5 223.5c-10-15.5-28.5-23.3-44-18.5l-.2-.7c15.7-4.9 34.6 3.1 44.8 18.8l-.6.4zm59.792 10.132l5.67.586-.586 5.67-5.67-.586z"/><path d="M327.429 227.87l.183-.881 95.462 19.822-.183.881z"/><circle transform="matrix(.1028 -.9947 .9947 .1028 67.6412 529.8345)" cx="327.5" cy="227.4" r="1.6"/><circle transform="matrix(.1028 -.9947 .9947 .1028 133.5824 642.5994)" cx="423" cy="247.3" r="1.6"/><path d="M304.646 174.391l4.147 3.91-3.91 4.147-4.147-3.91z"/><path d="M287.68 161.941l.635-.638 32.378 32.25-.635.638z"/><circle transform="matrix(.63 -.7766 .7766 .63 -18.9262 283.4276)" cx="288" cy="161.6" r="1.6"/><circle transform="matrix(.63 -.7766 .7766 .63 -31.9932 320.5078)" cx="320.4" cy="193.8" r="1.6"/><path d="M410.259 211.778l2.228-5.247 5.247 2.228-2.228 5.247z"/><path d="M407.587 223.217l12.111-26.461.818.375-12.111 26.461z"/><circle transform="matrix(.3214 -.9469 .9469 .3214 65.3023 537.9753)" cx="408" cy="223.4" r="1.6"/><circle transform="matrix(.3214 -.947 .947 .3214 98.6593 531.4987)" cx="420.2" cy="196.9" r="1.6"/></g><path d="M443.3 150.9l8.9 36.6c.4 1.6-1.1 2.8-3.3 2.8h-91.2c-2.2 0-4.3-1.3-4.7-2.8l-8.9-36.6c-.4-1.6 1.1-2.8 3.3-2.8h91.2c2.2 0 4.3 1.3 4.7 2.8z" class="Bo"/><g class="Bj"><path d="M367.2 172.4h-9.7l-2.3-9.7h9.7z"/><path d="M373.3 177.2h-9.7l-2.4-9.7h9.7zm16.6-4.8h-9.7l-2.3-9.7h9.7z"/></g><path d="M395.9 177.2h-9.7l-2.3-9.7h9.7z" class="Bn"/><path d="M396.4 177.6h-10.5l-2.5-10.5h10.5l2.5 10.5zm-9.9-.8h8.9l-2.1-8.9h-8.9l2.1 8.9z" fill="#183a76"/><path d="M412.6 172.4h-9.7l-2.4-9.7h9.7z" class="Bn"/><path d="M413.1 172.8h-10.5l-2.5-10.5h10.5l2.5 10.5zm-9.9-.8h8.9l-2.1-8.9h-9l2.2 8.9z" class="Bj"/><path d="M418.6 177.2h-9.7l-2.4-9.7h9.7z" class="Bn"/><g class="Bj"><path d="M419.1 177.6h-10.5l-2.5-10.5h10.5l2.5 10.5zm-9.9-.8h8.9l-2.1-8.9h-9l2.2 8.9z"/><path d="M413.1 172.8h-5.7l-1.4-5.7h5.7zm22.1-.4h-9.7l-2.3-9.7h9.7z"/><path d="M441.2 177.2h-9.7l-2.3-9.7h9.7z"/></g><path d="M434.9 172.1h-4.4l-1.1-4.4h4.5z" class="Bn"/><path d="M191 266.6h-33.6c-4.5 0-8.9-3.6-9.9-8.1l-25.3-114.1c-1-4.5 1.8-8.1 6.3-8.1h33.6c4.5 0 8.9 3.6 9.9 8.1l25.3 114.1c1 4.5-1.8 8.1-6.3 8.1z" fill="#3c4aaa"/><path d="M126.2 161.9H176v.2h-49.8zm5.9 26.9h49.8v.2h-49.8zm6 26.9h49.8v.2h-49.8z" class="Bk"/><path d="M156.6 154c.1-.6-2.5-10.5-2.5-10.5l9.1 7.4-4.5-.2-2.1 3.3z" class="Bl"/><path d="M184.2 254.9h-17.7l-3.9-17.7h17.7l3.9 17.7zm-16.9-1H183l-3.5-15.7h-15.7l3.5 15.7z" class="Bo"/><path d="M171.5 244.9h-16.7l-3.7-16.7h16.7zm-5.162 9.088l12.962-16.65 1.105.86-12.962 16.65z" fill="#ff7536"/><g class="Bo"><path d="M134.2 154c.1-.6-2.5-10.5-2.5-10.5l9.1 7.4-4.5-.2-2.1 3.3zm3.5 19.6h-1.3l-.6-2.4h9.2l.5 2.3h-1.4l-.2-1h-6.4z"/><path d="M142.9 179.5h-1.3l-1.7-7.6h1.3z"/><path d="M144.1 179.9h-3.5l-.3-1.3h3.5zm18.2.9l-1.2-.9 6.4-10.1 1.2.9zm-15.4 23.5c-2.6 0-5.1-2.1-5.7-4.7s1.1-4.7 3.6-4.7c2.6 0 5.1 2.1 5.7 4.7s-1 4.7-3.6 4.7zm-1.8-8.1c-1.9 0-3.1 1.5-2.7 3.4s2.3 3.4 4.2 3.4 3.1-1.5 2.7-3.4-2.3-3.4-4.2-3.4z"/><path d="M155.8 208.3c-.2 0-.3-.1-.5-.2l-6.2-5.2c-.3-.2-.4-.6-.2-.9.2-.2.6-.2.9 0l6.2 5.2c.3.2.4.6.2.9-.1.2-.3.2-.4.2zm13.4-13.8l2.3 4.3h4.4l-3 2.6 2.3 4.2-4.2-2.6-3 2.6.5-4.2-4.2-2.6h4.4z"/></g><path d="M597.5 157.6s.1 6.6-.9 6.5-2.4-5.6-2.4-5.5.5 5.7-.8 6-2.5-6-2.5-6 .8 5.4 0 5.5c-.9.1-2.3-5.1-2.6-5.1-.4 0 1.2 4.5.1 4.7s-3.5-6.1-2.7-6.9 2.1.1 2.1.1 1.6-1.2 2.8-.5c0 0 2.8-.6 3.7.7-.1.1 1.7-1.4 3.2.5z" fill="#fa8b79"/><path d="M615.7 132.2l22.8 82.2c1 3.5-1.2 6.4-5 6.4H479.6c-3.7 0-7.5-2.9-8.5-6.4l-22.8-82.2c-1-3.5 1.2-6.4 5-6.4h153.9c3.7 0 7.5 2.8 8.5 6.4z" class="Bo"/><path d="M496 169.3h-19.9l-5.5-19.9h19.9z" fill="#b0c0ff"/><path d="M489.8 164.4h-10.2l-2.8-10.2H487z" class="Br"/><path d="M475.417 168.777l14.347-19.86 1.297.937-14.347 19.86zM481.8 158.5H462l-5.6-19.9h19.9zm11.3 34.2h-16l-4.4-16h16z" fill="#ff7536"/><path d="M509 192.7h-16l-4.5-16h16z" fill="#fc7600"/><path d="M524.9 192.7H509l-4.5-16h16z" fill="#ff8111"/><path d="M540.9 192.7h-16l-4.4-16h16z" class="Bn"/><path d="M556.9 192.7h-16l-4.4-16h16z" class="Bt"/><path d="M572.9 192.7h-16l-4.4-16h15.9z" fill="#697ee3"/><path d="M588.9 192.7h-16l-4.5-16h16z" class="Br"/><path d="M604.8 192.7h-15.9l-4.5-16h16z" class="Bj"/><path d="M497.6 208.7h-16l-4.5-16h16z" fill="#a1b3ff"/><path d="M513.4 208.7h-16l-4.4-16h16z" class="Bt"/><path d="M529.4 208.7h-16l-4.4-16h15.9z" class="Br"/><path d="M545.4 208.7h-16l-4.5-16h16z" class="Bj"/><path d="M605.6 145.5h-83.7c-1.2 0-2.4-.9-2.7-2.1h0c-.3-1.2.4-2.1 1.5-2.1h83.7c1.2 0 2.4.9 2.7 2.1h0c.4 1.1-.3 2.1-1.5 2.1z" fill="#ff8111"/><path d="M608.6 156h-83.7c-1.2 0-2.4-.9-2.7-2.1h0c-.3-1.2.4-2.1 1.5-2.1h83.7c1.2 0 2.4.9 2.7 2.1h0c.3 1.2-.4 2.1-1.5 2.1z" class="Bn"/><path d="M611.5 166.6h-83.7c-1.2 0-2.4-.9-2.7-2.1h0c-.3-1.2.4-2.1 1.5-2.1h83.7c1.2 0 2.4.9 2.7 2.1h0c.3 1.1-.4 2.1-1.5 2.1zm-103.8-26.3h2.5c1.3 0 2.3.7 2.6 1.8.3.9-.1 1.5-.9 1.7l2.1 2.1h-1.2l-2-2h-1.2l.5 2h-1l-1.4-5.6zm3.2 2.8c.7 0 1.1-.4.9-1s-.7-.9-1.4-.9H509l.5 1.9h1.4zm-.3 10.7c-.4-1.6.4-2.9 2.1-2.9 1 0 1.7.3 2.4.8l-.4.8c-.5-.4-1-.6-1.8-.6-1 0-1.6.9-1.3 2 .3 1.2 1.3 2 2.5 2 .5 0 1-.2 1.2-.4l-.3-1.1h-1.4l-.2-.9h2.4l.7 2.4c-.4.5-1.1.9-2.1.9-1.8-.1-3.3-1.3-3.8-3zm3.2 8.4h2.5c.6 0 1.2.2 1.6.5.3.3.5.6.6 1 .2.7-.1 1-.5 1.3.7.2 1.3.6 1.5 1.4.3 1-.4 1.6-1.7 1.6h-2.6l-1.4-5.8zm2.9 2.3c.6 0 1-.3.8-.8-.1-.4-.6-.7-1.2-.7H515l.4 1.5h1.3zm1 2.4c.7 0 1-.3.9-.8s-.6-.8-1.4-.8h-1.6l.4 1.6h1.7z" class="Br"/><path d="M296.7 142.1c-.4.5-.5 1.1-.3 1.7.4 1.1 1.7 2.4 3.3 3.6.2.2.4.3.5.4l.1.1.1.1c1.5 1.3.9 1.6 3.5 4.4 3 3.1 5 3.2 5.6 2.9.5-.2-.5-1.9-1.6-3.7-.1-.1-.1-.2-.2-.3-.1-.2-.3-.5-.4-.7-1.3-2.2-1-3.3-.7-6.6.3-2.7 4.2-15 4.2-15l-5.7-1s-1.7 9.8-3.6 11.3c-1 .8-2.1.8-3.1 1.4-.1 0-.1.1-.2.1-.5.5-1.1.8-1.5 1.3z" class="Bi"/><path d="M296.7 142.1c-.4.5-.5 1.1-.3 1.7.5 1.1 1.8 2.4 3.3 3.6.2.2.4.3.5.5l.1.1.1.1c1.5 1.3.9 1.6 3.5 4.4 3 3.1 5 3.2 5.6 2.9.5-.2-.5-1.9-1.6-3.7-.6-.2-3.3-1.3-5.3-3.9-1.7-2.2-2.9-5-4.1-6.7-.1 0-.2 0-.3-.1-.5.3-1.1.6-1.5 1.1z" class="Bq"/><path d="M342.6 138.6c.4 1.8 2.9 1.5 5.7.8s2.1.1 6.1-.3 5.2-1.9 5.3-2.5c.1-.5-1.9-.7-4-1-.3 0-.5-.1-.8-.1-2.4-.3-4.1-1.8-6.3-3.1-2.1-1.2-5.1-6.1-5.1-6.1l-5.5.4 4 6.3c.7 1.1.6 2.6.5 3.7.1.6 0 1.3.1 1.9z" class="Bi"/><path d="M348.3 139.4c2.8-.7 2.1.1 6.1-.3s5.2-1.9 5.3-2.5c.1-.5-1.9-.7-4-1h0s-2.4 1.7-5.7 1.8c-2.7.1-5.6-.7-7.4-.7 0 .6-.1 1.3 0 1.9.4 1.7 2.9 1.5 5.7.8z" class="Bq"/><path d="M321.7 103.6l-5.1 13.8-6.7 18s-1.8.2-3.5-.3c-1.6-.5-3.4-1.7-3.4-1.7s1.9-19.3 5.3-30.4c.9-2.8 1.9-5.1 3-6.4 5.3-6.4 10.4 7 10.4 7z" class="Bu"/><path d="M316.5 81.8c-2.9-.9-10.5 0-18.7 1.5-2.3.4-4.6-.6-5.8-2.6h0L271.3 79s-6.8 15.2-3.1 24.8c.6 1.4 1.8 2.3 3.6 2.3h16.5c10.3 0 21.8-7.1 23.3-7.4 2.4-.5 3.4 4.4 5.8 9.5s22.9 22.7 22.9 22.7 3.1 0 4.4-.5c1.4-.5 1.9-1.2 1.9-1.2s-22.6-45-30.1-47.4z" class="Bm"/><path d="M289.8 19.8c-1.5-.9-3-1.1-4-1-.6 0-1.3 0-1.9-.1-7.9-1.2-12.7 10.3-13 13.8-.5 6.4-3.9 7.3-8.6 11.3-9.5 8-6.7 17.3-1.5 20.8 3.1 2.1 8.6 0 8.6 0 .1.1 15.1-8.4 22.4-12.4 11.1-1.7 2.4-29.8-2-32.4z" class="Bv"/><path d="M285.7 48.6s-3.6 1.3-6.1.2c-2.3-1-4.1-4.8-4-4.8 1 0 2.2-1 3.1-7l.4.2 7.5 2.7-.9 4.7c-.3 1.9-.4 3.8 0 4z" class="Bi"/><path d="M286.6 39.9l-.7 3.7c-4.3-.8-6.2-4.1-6.8-6.4l7.5 2.7z" fill="#f9924f"/><path d="M287.7 42.3s-10.3-1.4-9.3-7.8.3-10.9 6.9-10.2c6.6.6 7.5 3.2 7.7 5.4s-2.6 12.8-5.3 12.6z" class="Bi"/><g class="Bv"><path d="M292.6 26.2s-6.6 5.7-11 6.1c-4.5.5-6.2-1-6.2-1s2.6-2.2 4.2-5.7c.5-1 1.5-1.8 2.6-1.9 3.2-.2 9.3-.3 10.4 2.5z"/><path d="M288.5 25.7s2.2 2.1 2.9 3.7c.7 1.5.9 5.2.3 6.6 0 0 3.4-6.7 1.5-9.9-2-3.4-4.7-.4-4.7-.4z"/></g><path d="M294.3 63.8c-.3 20.8-.1 16.4-2.4 18.4-.5.5-2.1.8-4.1.9-6.4.4-17.6-.6-18-1.8-1.5-4.1-.4-5.3-1.7-11.6-.1-.7-.3-1.4-.5-2.2-1-4.3-2-5.7 1.6-12.6 3.3-6.2 6.7-11.3 7-11.1 8.7 5.2 9.4.8 9.4.8s8.9 9 8.7 19.2z" class="Bw"/><path d="M316.6 117.4l-6.7 18s-1.8.2-3.5-.3c-1.6-.5-3.4-1.7-3.4-1.7s1.9-19.3 5.3-30.4l8.3 14.4z" class="Bm"/><path d="M285.7 44.6s8.9 1.5 10 5.4c1 3.8 4.5 27.2 4.5 27.2s-2.5 2.5-4.6.4-6.6-21.8-6.6-21.8l-3.3-11.2z" class="Bw"/><path d="M287.8 83.1c-6.4.4-17.6-.6-18-1.8-1.5-4.1-.4-5.3-1.7-11.6l3.1-8.7s-.5 9.6 2.3 12.2c2.8 2.5 11.6 4.9 13 7 .8 1 1.2 2.1 1.3 2.9z" fill="#2776ce"/><path d="M280.5 79s6.3-1.4 7.3-.8 3.5 2.6 3.8 3.3-2.3-.5-3.1-.8c-.5-.1-2 .3-2.7.6-3 1-4.8.5-4.8.5l-.5-2.8z" class="Bi"/><path d="M276.3 43.8s-8.4.5-11.4 4.6c-4.1 5.7-12.3 30.2-7.6 33.5 5.3 3.7 24 1 24 1s.6-2.9-.2-4.3c-.9-1.4-14.9-3.7-15.6-4.3-.6-.6 8.1-12.7 8.1-14.6 0-2.1 2.7-15.9 2.7-15.9z" class="Bw"/><path d="M288.2 79.9s1.3 1.7 1.7 1.9.7.2.7.2l-.9-1.6-1.5-.5zm-.4-1.7l3.8 1.9s-.2.3-.6.2c-.5 0-1.7-.5-1.7-.5l-1.5-1.6z" class="Bi"/><g class="Bv"><path d="M320.6 82.6h-40.1v.8h39.7z"/><path d="M289.9 83.4h30.3l9.1-22.6h-30.2z"/></g><path d="M312.6 72.1c.2-.8-.2-1.4-1-1.4s-1.6.6-1.9 1.4.2 1.4 1 1.4 1.6-.6 1.9-1.4z" class="Bs"/><path d="M309.559 221.842l3.093 2.691-2.691 3.093-3.093-2.691z" class="Bl"/><path d="M269.8 276.8c-.6-2.1-.9-2.2-.9-2.2s-19.3 2.4-22.5 2.2c-1.9-.1-25.1-7.8-25.1-7.8l-14 13.5s34.8 5.7 39.8 5.4c8.1-.6 20.5-7.8 20.5-7.8s2.7-1.7 2.2-3.3z" class="Bu"/><path d="M217.1 430.6s.3 6.5 1.5 8.1l17.4.1c-.1-.7-.2-2.2-2.6-2.7-3-.5-6.6-2.7-8.5-6.7-1.8-4.1-7.8 1.2-7.8 1.2zm-34.2-.9s-1.2 8.7.4 8.8c.2 0 7 .1 10 .2 3.5.1 9.2-.1 9.2-.1.7 0 1.2-.7.8-1.4s-1.2-1.4-2.6-1.7c-3-.6-8.1-2.8-9.9-6.9-1.9-4.2-7.9 1.1-7.9 1.1z" fill="#104c82"/><path d="M226.2 340.8s-4.9 17-18.8 46.4c-13.9 29.5-14.5 43.7-14.5 43.7s-2.1.7-4.9.4c-3-.3-5.2-1.7-5.2-1.7s.9-35.1 7.5-50 7.9-55.6 7.9-55.6l28 16.8z" fill="#6f7deb"/><path d="M234 326.2s.4 26.3-4.2 58.5c-4.5 32.3-2.4 47.3-2.4 47.3s-1.2.9-4.9.9c-4.3 0-6.6-1.8-6.6-1.8s-6.5-32.3-4.6-48.4c1.9-16.2-8.9-55.4-8.9-55.4l31.6-1.1z" class="Bt"/><path d="M223.4 260.7c0 2.1-.3 4.3-1.1 5.4l-4.6 2.4-5.1-3.8s1.9-4.2 1.4-10.3c0-.4-.2-2.7-.2-2.7l2.6 1.3 7 3.5v.3c-.1.7 0 2.2 0 3.9z" class="Bi"/><path d="M197.8 329.4c1.7 7.7 37.6 4.3 37.2-.4 0-.2-.1-2.3-.2-5.3l-.7-17c-.6-6.5-1.3-12.9-1.3-17.1 0-3.6-.5-7.3-1.2-10.7-.6-3.1-1.4-5.9-2-8.1-.5-1.5-1.3-2.9-2.5-4-.8-.8-1.8-1.4-2.8-1.8l-.9-.3c-4.2-1.2-8.5-2.8-10.1-2.3-4.3 1.3-9.1 8.9-11.3 18.5-4.3 18.2-5.3 43.5-4.2 48.5z" class="Bm"/><path d="M223.4 260.7c-2.6-1.1-7.6-3.4-9-6.1-.6-1.2.3-1.6 1.8-1.6l7 3.5v.3c.1.7.2 2.2.2 3.9z" fill="#ffa05e"/><path d="M226.6 256s-12.5 3.9-14.8-3.9-5.5-12.6 2.4-15.4 10.3-.3 11.7 2.1 3.9 16 .7 17.2z" class="Bi"/><path d="M225.4 238s-.8 9.1-2.7 8.7-3.6-.7-3.3 2.1c.3 2.7.4 6-5.4 6.5s-11.6-14.6-10-17.4c4.6-8.2 28.1-9.8 21.4.1z" class="Bx"/><path d="M234.7 323.8l-.7-17-21.2-12.7c-.1 0-.9 29.6 21.9 29.7z" class="Bu"/><path d="M308 223.2l3.8 3.3s-6.6 7-5.9 14.4l-9.8 8.3-8.1-7.1 6.8-11.2c-.1 0 7.2-.3 13.2-7.7z" class="Bx"/><g class="Bl"><circle transform="matrix(.6564 -.7544 .7544 .6564 -75.5272 307.3617)" cx="299.7" cy="236.6" r="2.2"/><path d="M309.573 224.57l.603.525-11.554 13.276-.603-.525z"/></g><path d="M287.917 242.075l8.148 7.089-1.772 2.037-8.148-7.089z" fill="#6d76ff"/><path d="M205.6 345.4l-.4-.3c-2.1-1.9-2.4-5.1-.5-7.2l81.5-93.7 8.1 7.1-81.5 93.7c-1.9 2-5.1 2.2-7.2.4z" class="Bx"/><path d="M251.4 296.9s1.6-1.4 1.9-2.4c.1-.3 1.2-1.8 3-1.7 1.7.1 4.6-3.4 4.6-3.4.4.9 1.9 4.5-.2 6.2-1.7 1.5-5.9 4-8.4 5.6-2.7 1.9-.9-4.3-.9-4.3z" class="Bi"/><path d="M251.6 296.4s-21.1 3.6-22.9 2.7c-3-1.5 1.2-22.8 1.2-22.8s.2-4.8-5.5-6c-4.9-1-9.7 2.7-9.7 2.7s-4.3 3.9-3.8 8.1c1.2 9.5 3.1 28.8 9.5 31.7 8.2 3.8 31.9-10.6 31.9-10.6s.8-1 .7-2.8c-.1-1.5-1.4-3-1.4-3z" class="Bm"/><path d="M270.7 278.3s5.3-1.9 4.8-4.7-2.1-2.4-3.1-1.4-.4 5.8-1.7 6.1zM253 295.6s.7-2.1 1.5-3 1.1-2.5 1.5-1.9c.4.5-.3 2.4 0 3.1.2.5-3 1.8-3 1.8z" class="Bi"/><path d="M628.8 405.5H724v33.1h-95.2z" class="Bk"/><defs ><path id="B" d="M229.7 125.7c.4 1.4-.4 2.5-1.9 2.5s-3.1-1.1-3.5-2.5.4-2.5 1.9-2.5 3.1 1.1 3.5 2.5z"/></defs></svg>