<svg xmlns="http://www.w3.org/2000/svg" viewBox="0 0 760 440" xmlns:v="https://vecta.io/nano"><style><![CDATA[.Bi{fill:#ffb27b}.Bj{fill:#ff9841}.Bk{fill:#f46700}.Bl{fill:#469df0}.Bm{fill:#a2cdfc}.Bn{fill:#ff862e}.Bo{fill:#d14a3f}.Bp{fill:#a0cbfa}.Bq{fill:#ffa347}.Br{fill:#003261}.Bs{fill:#00448c}.Bt{fill:#2776ce}]]></style><path d="M636 424.8s82.3 8 107-41.2c35.8-71.5-35.3-127.7-88.1-117.4-115.1 22.4-87.4-224.2-272-173.9-51.9 14.1-192.2-69.9-231.3 64.9-9.3 32-42.3 35.6-90.1 55.9-93.6 39.8-50.8 212.3 16.1 213l558.4-1.3z" fill="#e8f1f8"/><path d="M381.2 157.5l-8.3-.2c2.7 3.4 3.2 6.6 1.6 9.3-1.7 2.7-5.6 5-11.5 6.7 4.5-11.9 6.7-24.4 6.7-37.3 0-14.4-2.8-28.4-8.4-41.5-5.4-12.7-13.1-24.1-22.9-33.9s-21.2-17.5-33.9-22.9c-13.2-5.6-27.1-8.4-41.5-8.4s-28.4 2.8-41.5 8.4l-4.7 2.1c-4.6-1.4-9.1-2.5-13.4-3.4-21.6-4.4-37.1-1.4-43.3 8.6-6 9.5-2.7 23.7 9.1 40.4-1.6 3-3 6-4.4 9.1-1 2.4-1.9 4.7-2.7 7.1-22.3 1.3-34.2 5.2-38.5 12.3-5 8.3 1.8 19.3 23.9 30.1 3 1.5 6.3 3 9.7 4.4 1.1 10 3.7 19.7 7.7 29 5.4 12.7 13 24.1 22.9 33.9 9.8 9.8 21.2 17.5 33.9 22.9 13.2 5.6 27.1 8.4 41.5 8.4s28.3-2.8 41.5-8.4c12.7-5.4 24.1-13.1 33.9-22.9 9.5-9.5 17.1-20.6 22.4-32.9 10.9-2.2 18-5.8 20.8-10.4 2-3.1 1.7-6.7-.6-10.5zm-25.5 17.4c-7.2 1.3-16.2 2.1-26.8 2.2-16.3.2-35.1-1.1-54.9-3.7 1.7-3.6 3.3-7.3 4.9-11.2 6.1 2.1 12.1 3.7 17.8 4.8 6.5 1.3 12.4 2 17.7 2 12.4 0 21.3-3.6 25.7-10.6.7-1.1 1.3-2.4 1.8-3.7h-6.3l-.3.6c-3.3 5.2-10.6 7.9-20.8 7.9-4.9 0-10.5-.6-16.6-1.9-5.3-1.1-11-2.6-16.7-4.5 1.5-3.8 3-7.7 4.4-11.7 3.9-10.6 7.2-21.2 9.8-31.3 12.2 1.8 25.3 2.7 39.2 2.7 8.7 0 17.6-.3 26.9-1a99.47 99.47 0 0 1 2.1 20.4 99.57 99.57 0 0 1-7.9 39zm-131.9 52.9c-3.1-1.1-4.6-5.5-5.4-9.1-1.2-5.6-1.4-13.3-.6-22.5.4-4.7 1.1-9.6 1.9-14.8 12.6 3.4 25.1 7.7 37.3 12.9-2.7 4.7-5.5 9.1-8.3 13.1-5.3 7.6-10.5 13.4-14.9 16.9-2.9 2.2-7 4.6-10 3.5zm35.9-38.4a273.77 273.77 0 0 0-39.1-13.5l1.5-7.3 11.2 2.4c11.1 2.3 22.1 4.2 32.9 5.7a250.1 250.1 0 0 1-6.5 12.7zM235.8 167l-12.6-2.8c1.9-8.1 4.3-16.6 7.1-25.2 14.5 8.9 29.3 16.2 43.3 21.3l-5.4 12.2c-10.6-1.4-21.5-3.3-32.4-5.5zM200.3 57.5c.9 1.9 2.2 4.2 3.9 6.9 7.3 11.3 17 19.6 23.9 24.5 3.9 2.8 8.1 5.4 12.6 7.8-4.1 8.8-7.9 18.3-11.5 28.1-.7 1.8-1.3 3.6-1.9 5.5-21.2-13.8-39.2-29.7-51-45 3-5 6.3-9.8 10.1-14.3l4.9-5.4.7-.7a141.94 141.94 0 0 1 8.3-7.4zm90.8-15.3c3.1 1.1 4.6 5.5 5.4 9.1 1.2 5.6 1.4 13.3.6 22.5-.9 10.1-2.9 21.5-5.9 33.7-3.6-.6-7.2-1.3-10.6-2.1-11.9-2.7-22.8-6.5-32.5-11.2 5.8-12.1 11.9-22.8 18-31.6 5.3-7.6 10.5-13.4 14.9-16.9 2.3-1.8 5.5-3.8 8.3-3.8a5.23 5.23 0 0 1 1.8.3zM279 110.8c3.5.8 7.2 1.5 10.9 2.2-2.6 9.8-5.8 20-9.6 30.3-1.4 4-2.9 7.9-4.5 11.7-14-5.2-28.9-12.5-43.6-21.6.8-2.2 1.5-4.4 2.3-6.7 3.5-9.6 7.2-18.8 11.2-27.4 10 4.8 21.1 8.7 33.3 11.5zm55.1-45.9c9.2 9.2 16.5 20 21.6 31.9 1.8 4.3 3.3 8.6 4.5 13.1-23.2 1.7-44.4 1.2-63.3-1.6 3-12.3 5-23.9 5.9-34.1 1-11.3.9-24.7-3.7-32.2 1.1.4 2.1.8 3.2 1.3 11.9 5.2 22.6 12.4 31.8 21.6zm-71-29.4c7 0 13.8.7 20.5 2.1-7.9 3.4-15.9 13-22.1 21.8-6.3 9-12.5 20-18.4 32.2-4-2.2-7.8-4.5-11.3-7C215 72.7 207.6 59.8 205 54c4.1-2.9 8.4-5.5 13-7.8 1.8-.9 3.7-1.8 5.6-2.6.1-.1.3-.1.4-.2h.1c.4-.2.8-.3 1.2-.5.1 0 .2-.1.3-.1a99.77 99.77 0 0 1 37.5-7.3zM165 48.1c3.3-5.2 10.6-7.9 20.8-7.9 4.9 0 10.5.6 16.6 1.9 2.3.5 4.7 1 7.1 1.7-8 4.6-15.3 10.2-21.8 16.8-1.4 1.4-2.7 2.8-4 4.2a126.49 126.49 0 0 0-4.7 5.6c-2.4 3-4.6 6.2-6.6 9.4-9.1-13.4-11.8-24.8-7.4-31.7zm5.5 48.8c.9-2.1 1.8-4.1 2.8-6.1 12.4 15.5 30.7 31.4 52.1 45.1-3 9.2-5.6 18.3-7.7 27-15.5-3.8-30-8-42.6-12.6-2.7-.9-5.2-1.9-7.7-2.9a187.55 187.55 0 0 1-4.3-1.8c-.2-2.2-.4-4.4-.4-6.6 0-1.1-.1-2.1-.1-3.1 0-1.2 0-2.5.1-3.7.4-9.1 1.9-18 4.6-26.6.5-1.5.9-2.9 1.5-4.3.5-1.5 1.1-2.9 1.7-4.4zm-18.1 44c-19.2-9.4-28-18.4-24-24.8 3.2-5.2 14.7-8.7 32.4-10-2.2 7.3-3.5 14.9-4 22.5-.2 2.3-.2 4.5-.3 6.8v.6c0 2.3.1 4.6.2 6.9l-4.3-2zm14.6 11.5c2.6 1 5.3 1.9 8 2.9 12.6 4.4 26.7 8.4 41.7 12-.5 2.4-1.1 4.8-1.5 7.2l-3.7-.9c-20.8-4.7-36.5-5.7-43.7-5.9-1.8-5.4-3.1-10.9-4-16.6 1.1.5 2.1.9 3.2 1.3zm3.5 22.7c-.2-.5-.4-1.1-.7-1.6 7.7.3 22.1 1.5 40.4 5.6l3.9.9c-.9 5.5-1.6 10.7-2.1 15.7-.8 9.3-.9 20.1 1.7 27.8-7.9-4.5-15.2-10-21.8-16.5a101.67 101.67 0 0 1-21.4-31.9zm131.7 53.5c-12.4 5.3-25.5 7.9-39.1 7.9a101.2 101.2 0 0 1-30.5-4.7c7.4-3.9 14.9-12.8 20.6-21.1 3-4.3 5.9-9 8.9-14 16.9 7.6 33.1 17 48.3 28-2.6 1.3-5.4 2.7-8.2 3.9zm31.9-21.6a101.47 101.47 0 0 1-18.3 14.5c-16-11.7-33.1-21.7-50.9-29.8 2.4-4.5 4.9-9.2 7.2-14.2 16.3 2.2 32 3.5 46.3 3.8 3.7.1 7.4.1 10.9.1 9.1-.1 17.2-.6 24.2-1.6-4.8 10.1-11.4 19.2-19.4 27.2z" class="Bp"/><path d="M596.6 397.2c-2.3-8.8-17.7-2-30.3 5.4-.6-.9-1.2-1.9-1.8-2.8 9.1-5.6 21.8-15 17-20.7-4.8-5.6-14.1 7.1-20 16.5-15.7-20.3-38.9-34.8-38.9-34.8s97-80.6 24.5-123.1-127.6 107.1-127.6 107.1-49.5-45.9-96.8-28.9c-48.6 17.4-18.2 49.6-60.4 58.4-5-19-14.1-45.8-26.7-47.4-16.6-2.1-9.6 18.7 15.6 49-4.9.4-10.4.7-16.8.6-67.7-.2-50.3 48.5-50.3 48.5l391.2.9c-.5-4.8-1.9-9.5-3.9-14.1 13.2-2.1 27.4-6.3 25.2-14.6z" fill="#9ad297"/><path d="M394.2 210l-17.1 202.9s-1.8 12.3 7.4 12.3h74.9s-11.3-2.6-11.2-8.3c.2-6.8 19.9-208.8 19.9-208.8l-73.9 1.9z" class="Bk"/><path d="M464.2 421.5h-74.7c-6.4-.1-7.5-5.7-7.6-9.3 0-1.7.2-3 .2-3l.4-5.3 1.1-13.4 1-11.9 1.3-15.3 1.1-12.9 12.1-144.1 73.9-1.9-14.2 146.1-1.9 19.6c-.2 2-.4 3.9-.5 5.7l-1.5 15.9-.6 6.9-1.2 14.6c0 .6 0 1.1.1 1.6 1.3 6.5 9.9 6.7 11 6.7z" class="Bj"/><path d="M214.7 99.6l41.6 166.9 5.6 22.9 19.4 77.7h359.6L569.5 99.6z" class="Bq"/><path d="M214.7 99.6l-5.8 1.9 64.7 271.4 7.7-5.8z" class="Bj"/><path d="M273.6 372.9H631l9.9-5.8H281.3z" class="Bk"/><path d="M399.1 421.6h77.4v3.7h-77.4z" class="Bq"/><g class="Bk"><path d="M456.8 372.9l-.4 2.9-72.7 14.7 1-11.9.5-5.7z"/><path d="M464.2 421.5h-74.7c-6.4-.1-7.5-5.7-7.6-9.3l72.4-13.6-1.2 14.6c0 .6 0 1.1.1 1.6 1.3 6.5 9.9 6.7 11 6.7zM439.3 313l-158 54.1-19.4-77.7z" opacity=".4"/></g><path d="M214.7 99.6h354.8l57.6 215H268.2z" class="Bl"/><path d="M470.6 341.8c-1-5.3-6.1-9.5-11.4-9.5s-8.7 4.3-7.7 9.5c1 5.3 6.1 9.5 11.4 9.5s8.8-4.2 7.7-9.5z" class="Bk"/><path d="M610.4 305.3H278.1l-37.6-149.9-2.9-11.5-2.4-9.8-5.8-23h327.5l6.3 23 2.7 9.8 3.2 11.5z" fill="#e5f2fd"/><path d="M563.2 134.1h-328l-5.8-23h327.5z" class="Bm"/><path d="M245.1 118.6c-1.6 0-2.6 1.3-2.2 2.9s2 2.9 3.6 2.9 2.6-1.3 2.2-2.9-2-2.9-3.6-2.9zm9.5 0c-1.6 0-2.6 1.3-2.2 2.9s2 2.9 3.6 2.9 2.6-1.3 2.2-2.9-2-2.9-3.6-2.9zm13.9 2.9c-.4-1.6-2-2.9-3.6-2.9s-2.6 1.3-2.2 2.9 2 2.9 3.6 2.9 2.6-1.3 2.2-2.9z" fill="#e5f2fd"/><path d="M103.4 156.2s1-3.2-.6-6.1 1-4.9.3-5.7c-.7-.9-4.9-.8-6.3 3.4s1 8.9 1 8.9l5.6-.5z" fill="#ffa668"/><path d="M85.6 179.2c3 .9 6.1-1.1 6.5-4.2l4.2-18.4s.9-1.4 3.9-1.3c3.3.1 4.2 1.8 4.2 1.8s2.1 32.4-7.5 36.9c-9.5 4.6-20.4-17.5-11.3-14.8z" class="Bn"/><g class="Br"><path d="M105.4 425h-27c-1.9-1.7-2.6-12-2.6-12s8.4-7.5 11.1-1.6c2.6 5.7 9.8 8.7 14.1 9.4 3.8.7 4.4 3.4 4.4 4.2zm-32.6 0h-27c-1.9-1.7-2.6-12-2.6-12s8.4-7.5 11.1-1.6c2.6 5.7 9.8 8.7 14.1 9.4 3.7.7 4.3 3.4 4.4 4.2z"/><path d="M92.2 283.7s-3.8 24.5-18.2 68.1c-14.3 43.6-16.3 62.5-16.3 62.5l-15.4-.4s-.1-47.6 6.5-69.5 1.4-79 1.4-79l42 18.3z"/></g><path d="M99.6 266.6s.5 37-5.9 82.4-4.2 64.7-4.2 64.7l-15.3.5S65 368.8 67.7 346c2.6-22.7-12.5-78-12.5-78l44.4-1.4z" class="Bs"/><path d="M70 180.1l7.2 5.4 10.5-2.2c-.1-1-.8-4.9-1.5-8.5 0-.2-.1-.4-.1-.6l-1-5.7-9.8-4.9-3.6-1.8c0 .1.3 3.4.3 3.9.7 8.5-2 14.4-2 14.4z" class="Bi"/><g class="Bj"><path d="M86.9 177.4c-.2-.1-14.2-4.2-15.7-3.7s-2.4 3.4-2.4 3.4l22.9 5.2c-.1 0-1.9-3.7-4.8-4.9z"/><path d="M49.2 271.2c2.4 10.8 41.8 12.1 52 2.3 1.2-1.1 1.2-6.3.8-13.3-.9-13.7-3.6-34.3-3.7-44.9-.1-5.1-.8-10.3-1.7-15-2-10.1-5-18-5-18s-19.3-6.2-22.9-5.2c-17.3 5.1-21.8 83.3-19.5 94.1z"/></g><path d="M102 260.1c-.9-13.7-3.6-34.3-3.7-44.9-.1-5.1-.8-10.3-1.7-15l-11.6-2c0 0-11.3 46.3 17 61.9z" class="Bn"/><path d="M72.7 165.8c2.1 4.1 10.1 7.6 13.5 9 0-.2-.1-.4-.1-.6l-1-5.7-9.8-4.9c-2.2 0-3.5.5-2.6 2.2z" fill="#ffa668"/><path d="M89.8 167.9s-17.6 5.5-20.9-5.5-7.7-17.7 3.4-21.7 14.5-.4 16.5 3 5.5 22.5 1 24.2z" class="Bi"/><path d="M87.3 143.7s-1.1 12.8-3.8 12.3c-2.7-.6-5.1-1-4.7 2.9s4.1 8.3-4.1 9-19.9-20.4-17.7-24.4c6.5-11.5 39.6-13.8 30.3.2z" class="Br"/><path d="M112.1 141L95 145.5l.5 7 17.4-.1c1.4-.1 2.3-2.8 2.1-5.9-.3-3.1-1.6-5.6-2.9-5.5z" class="Bp"/><g class="Bl"><ellipse transform="matrix(.9972 -.074916 .074916 .9972 -10.8988 7.5549)" cx="95.3" cy="149.1" rx="1.5" ry="3.5"/><path d="M103.1 148.7l-5.3.1c-.2 1.1.1 1.6.1 1.6l5.3.4-.1-2.1z"/></g><path d="M122 140.7l-19.6 5.2.6 8.1 20-.1c1.6-.1 2.6-3.2 2.4-6.8-.3-3.6-1.8-6.5-3.4-6.4z" class="Bp"/><ellipse transform="matrix(.9972 -.074939 .074939 .9972 -10.9521 8.1182)" cx="102.7" cy="150" rx="1.8" ry="4" class="Bl"/><path d="M107.5 156.1s-1.8-2.8-1.1-6c.8-3.2-2.3-4.4-1.9-5.4s4.5-2.1 7 1.5 1.5 8.8 1.5 8.8l-5.5 1.1z" class="Bi"/><path d="M83.4 183s10.2-1.9 19.7-1.7c3.1 0 5.6-2.7 5.2-5.8l-1.7-18.5s1.2-2 4.1-2.7c3.2-.8 4.3 1 4.3 1s11 30.2 3.1 37.2c-8 7-38.2 11.4-38.2 11.4l3.5-20.9zM733.5 57.6c-1.1 24.3-6.7 54.1-24.7 78l-2 2.6c-2 2.6-4.1 5.1-6.2 7.6-2.3 2.7-6.4 3.2-9.3 1l-79.8-59.9c-.9-.7-1.6-1.6-2-2.6-.3-.7-.4-1.4-.5-2.1-.1-1.3.3-2.6 1-3.7 1.9-2.8 3.8-5.7 5.9-8.5.6-.9 1.3-1.8 2-2.6 18-23.9 45-37.7 68-45.5 12.2-4.1 23.2-6.6 31.3-8 1.3-.2 2.6-.3 3.9-.2 1.9.2 3.6.8 5.2 1.7 3.3 2 5.6 5.5 6.1 9.9.9 8.2 1.6 19.5 1.1 32.3z" class="Bj"/><path d="M616 70.1c-2.3 3.2-4.5 6.4-6.6 9.6a4.72 4.72 0 0 0 1.1 6.4l81.8 61.4c2.3 1.8 5.6 1.4 7.6-.8 2.3-2.7 4.7-5.6 6.9-8.5L616 70.1z" fill="#2a8fe3"/><path d="M686.9 94.4c-5.2 0-10.2-1.7-14.5-4.9-5.2-3.9-8.5-9.5-9.4-15.9s.7-12.8 4.6-17.9h0c3.9-5.2 9.5-8.5 15.9-9.4s12.8.7 17.9 4.6c5.2 3.9 8.5 9.5 9.4 15.9s-.7 12.8-4.6 17.9c-3.9 5.2-9.5 8.5-15.9 9.4a19.53 19.53 0 0 1-3.4.3zm.1-42.8c-.9 0-1.8.1-2.7.2-4.9.7-9.3 3.3-12.2 7.2h0c-3 4-4.2 8.9-3.5 13.8s3.3 9.3 7.2 12.2c4 3 8.9 4.2 13.8 3.5s9.3-3.3 12.2-7.2c3-4 4.2-8.9 3.5-13.8s-3.3-9.3-7.2-12.2c-3.3-2.4-7.1-3.7-11.1-3.7z" class="Bo"/><path d="M728.2 21.1c-.2-2.1-.9-4-1.8-5.6-1.5-.9-3.3-1.5-5.2-1.7v.3c.9 8.1 1.6 19.5 1 32.3-1.1 24.3-6.7 54.1-24.7 78l-2 2.6c-.4.6-.9 1.1-1.3 1.7l7.8 5.9c.2-.2.3-.4.5-.6l2-2.6c18-23.9 23.6-53.7 24.7-78 .6-12.9-.1-24.2-1-32.3z" fill="#ffc08b"/><path d="M732.4 25.3c-.8-7.8-7.4-12.7-15.1-11.4-8.1 1.4-19.1 3.9-31.3 8l47.5 35.7c.5-12.8-.2-24.1-1.1-32.3z" fill="#2a8fe3"/><g class="Bo"><ellipse transform="matrix(.5533 -.833 .833 .5533 169.8676 562.4708)" cx="609.3" cy="122.9" rx="24" ry="16.9"/><ellipse transform="matrix(.5533 -.833 .833 .5533 162.6466 613.2599)" cx="653.1" cy="155" rx="24" ry="16.9"/></g><g class="Bj"><ellipse transform="matrix(.5533 -.833 .833 .5533 162.8599 561.7659)" cx="605.2" cy="129" rx="16.6" ry="11.7"/><ellipse transform="matrix(.5533 -.833 .833 .5533 155.7078 612.6128)" cx="649" cy="161.1" rx="16.6" ry="11.7"/></g><path d="M676.1 82.2l25.1-4.4c-2.8 5-8.2 8.5-14.3 8.5-4.2-.1-7.9-1.6-10.8-4.1zm27.1-12.9l-31.8 6c-.6-1.7-.9-3.6-.9-5.5 0-9 7.3-16.4 16.4-16.4 8.8.1 16 7.1 16.3 15.9z" fill="#ffe6d1"/><path d="M197 298.2s5.3 1.4 8.7.3c3.4-1 9.2.7 10.1 1.9s.6 1.7-1.1 2.1-7.6 3-11.5 1.5-9-1.5-9-1.5l2.8-4.3z" class="Bi"/><path d="M151 251.9s6 42.5 15.9 46.3c4.9 1.9 26.5 6.1 32.9 6.6 0 0 1.6-1.3 1.2-6.4 0 0-22.6-8.3-25.8-12.8-4.8-6.7 3-27.5-3-33.8-6.1-6.3-16.2-9-21.2.1z" class="Bt"/><path d="M160.1 415.5v-9.3h14.6a.68.68 0 0 0 .7-.7V404a.68.68 0 0 0-.7-.7h-14.6v-52.7a2.69 2.69 0 0 0-2.7-2.7h-2.9a2.69 2.69 0 0 0-2.7 2.7v52.7h-14.6a.68.68 0 0 0-.7.7v1.5a.68.68 0 0 0 .7.7h14.6v9.3c-10.6.8-19 4.6-21.4 9.5h51c-2.3-4.9-10.8-8.7-21.3-9.5z" fill="#0d458d"/><g class="Br"><path d="M153 341.4c1.7 3 3.8 5.7 5.8 8.4 6.4 8.1 13.4 14.8 14.6 21.1.2 1.3.6 2.6 1.1 4s1.1 3 1.9 4.5c2.7 5.9 6.8 12.6 10.9 18.6a414.32 414.32 0 0 0 13.7 19.1l12.1-.5c-.5-1.2-5.8-15.6-12.9-33.2l-8.9-22.1-1.2-2.9-2.7-6.6-11.9-29.7s-26.6-10.1-29.3-3.5c-2.1 5.5-.3 10.7 6.8 22.8z"/><path d="M201.4 414.8s.6 10 2.6 10.2h9.8H226s-.1-3-3.7-3.6-9.5-3.1-11.7-7.9c-2.2-5-9.2 1.3-9.2 1.3zm-28.1-28.4s-8.4 5.4-7.6 7.2l4.8 8.6 6 10.6s2.5-1.5 1.3-4.9-1.9-9.9 1.1-14.1c3.3-4.4-5.6-7.4-5.6-7.4z"/></g><path d="M184.7 317.4s33.4 20.8 37.1 34.8-44.4 43.7-44.4 43.7-5.3-4.7-6.2-8.1l26.5-31.9c2.9-3.6-42.8-12.4-48.4-21.1s-3.6-16-3.6-16l39-1.4z" class="Bs"/><path d="M190 344.1h-68.3c-1.4 0-2.5 1.1-2.5 2.5v13.7c0 1.4 1.1 2.5 2.5 2.5H190c1.4 0 2.5-1.1 2.5-2.5v-13.7c0-1.3-1.1-2.5-2.5-2.5z" class="Bj"/><path d="M174.4 249.3c-8 2.1-21.2-5.3-21.2-5.3s5.1-3.5 7-11l.3-1.2c.8-.2 2.4-.5 4.1-.9l6.1 5.5s-.1 2.3-.9 6.2c-.1.7-.3 1.4-.5 2.2 3.3 1.9 5.1 4.5 5.1 4.5z" class="Bi"/><path d="M185.7 316.4c0 .1 0 .2-.1.2-.8 2.2-7.9 5.1-14.5 7.1l-6.5 1.8c-5.1 1.2-17.9 3.2-19-.3-1.3-4.1.2-27.5-.9-42.9-1.4-18.8 3.9-35.9 11.1-41.5.5-.4 1.6.7 4.8 2.2 2.9 1.4 6.1 1.8 8.8 1.2l2.4 2.1c3.4 3 7 7.1 8.7 13.5 1 3.9 1.8 10 2.4 16.9l.6 8.3a309.68 309.68 0 0 1 .6 13.3v.2.2c0 .4.1.9.1 1.3l.2 10.5v.2c.2 2.6 1.1 3.7 1.3 4.8.1.3.1.5 0 .9z" fill="#5e9af2"/><path d="M185.7 316.4c0 .1 0 .2-.1.2-.8 2.2-7.9 5.1-14.5 7.1-13.4-16.7-11.9-36.8-11.9-36.8l24.9 11.3v.2.2c0 .4.1.9.1 1.3l.2 10.5v.2c.2 2.6 1.1 3.7 1.3 4.8a1.7 1.7 0 0 1 0 1z" class="Bt"/><path d="M170.7 236.3s-.1 2.3-.9 6.2c-6-1.9-8.7-7.3-9.6-9.6l.3-1.2c.8-.2 2.4-.5 4.1-.9l6.1 5.5z" fill="#f99156"/><path d="M173.1 236.2s-13.1 1.5-13.9-6.7-3-13.5 5.3-14.8 10.3 1.7 11.2 4.3c.9 2.8.8 16.6-2.6 17.2z" class="Bi"/><path d="M159.3 230.1s.8-10.8 12.7-12c8.2-.8 3.6-7.8 2.7-8.9l-12.7 1.9c-13.4 2.3-4.1 17.3-2.7 19z" fill="#0d458d"/><path d="M232.4 278.8l-9.2 28.4-32.5-.7v2l33.1.7 9.7-30z" class="Bt"/><path d="M194.3 304.7s5.1 1.9 8.6 1.3 9.1 1.7 9.9 3 .4 1.8-1.3 2-7.9 2.1-11.6.2-8.8-2.5-8.8-2.5l3.2-4z" class="Bi"/><path d="M153.7 253.7s1.3 42.9 10.7 47.8c4.6 2.4 25.6 9 31.9 10.1 0 0 1.7-1.1 1.9-6.3 0 0-21.6-10.7-24.3-15.6-4-7.2 6-27 .7-33.9s-15-10.7-20.9-2.1z" fill="#5e9af2"/><path d="M739.2 286.7l1.6 2.6c.8.9 1 1.5 1.7 1.8 1.6.8 4.5 2.7 4.7 6.9 0 0 0 2.4-1.6 1.6s-.9-.7-3.1-1.7-3.1-4.3-3.3-5.4l-1.8-2.4 1.8-3.4zM692.9 423c-.1.9-.6 1.5-1.4 1.9-1.5.7-4 .5-6.7.1-.3 0-.7-.1-.9-.1h-.2-.2c-2.7-.2-2.5.7-7.7.6-5.9 0-7.9-2-8.1-2.9-.2-.7 2.4-1.3 5.2-1.9.1 0 .3-.1.4-.1l1.2-.3c3.4-.8 6.8-1.8 8-5.1 1.2-3.5.9-13.9.9-13.9h10.4s-2.7 11.5-2.5 14.8c.2 1.8 1 2.3 1.3 3.8 0 .1 0 .2.1.3.1.9.3 1.9.2 2.8z" class="Bi"/><path d="M705 310.7c-.9 4.9-2.1 10-3.2 15.4-1.8 8.5-3.1 17.6-1.7 27.4.2 1.3.3 2.6.3 4.1.3 17.3-7.4 48.5-7.4 48.5s-2.1.9-5.6.7c-1.8-.1-4.6-1.3-4.6-1.3s-.7-19.4-.8-45.5c0-18.9-3.7-43.8-4.5-58.4-.5-8.8.5-20.6.5-20.6s15.4-12.4 20.9-6c5.4 6.3 9.4 17.2 6.1 35.7z" fill="#59bdcd"/><path d="M700.1 353.4c.2 1.3.3 2.6.3 4.1-11.5-16.7-14.1-53.1-14.1-53.1l12.6 6.1s1.4 6.8 2.8 15.4c-1.7 8.7-3 17.8-1.6 27.5z" fill="#2f9aa9"/><path d="M726.1 423c-.1.9-.6 1.5-1.4 1.9-1.5.7-4 .5-6.7.1-.3 0-.7-.1-.9-.1h-.2-.2c-2.7-.2-2.5.7-7.7.6-5.9 0-7.9-2-8.1-2.9-.2-.7 2.4-1.3 5.2-1.9.1 0 .3-.1.4-.1l1.2-.3c3.4-.8 6.8-1.8 8-5.1 1.2-3.5-.5-13.7-.5-13.7l9.7-.8s-.6 11.7-.3 15c.2 1.8 1.1 2.7 1.4 4.3 0 .1 0 .2.1.3 0 .8.1 1.8 0 2.7z" class="Bi"/><path d="M724.8 407s-2.5 1.2-4.3 1.5c-1.8.4-5.5-.3-5.5-.3-.7-7.5-2.2-19.3-5.3-32.5-3.4-15.1-8.6-32.9-15.7-49.8-1.5-3.6-7.8-20.7-8.9-25-3.2-13 0-11.6 0-11.6l28.2-3.3s3.5 1.8 5.1 20.2c.5 5.5.5 29.3 1.3 33.8.7 4.3 1.5 7.8 2.4 10.1 5.3 12.8 2.7 56.9 2.7 56.9z" fill="#59bdcd"/><path d="M726.1 423c-.1.9-.6 1.5-1.4 1.9-1.6.6-4.1.4-6.7.1-.3 0-.7-.1-.9-.1h-.2-.2c-2.7-.2-2.5.7-7.7.6-5.9 0-7.9-2-8.1-2.9-.2-.7 2.4-1.3 5.2-1.9.8.4 4.4 2 8.9 1.6 4-.4 8-2 10.9-2.4 0 .1 0 .2.1.3.1.9.2 1.9.1 2.8zm-33.2 0c-.1.9-.6 1.5-1.4 1.9-1.6.6-4.1.4-6.7.1-.3 0-.7-.1-.9-.1h-.2-.2c-2.7-.2-2.5.7-7.7.6-5.9 0-7.9-2-8.1-2.9-.2-.7 2.4-1.3 5.2-1.9.8.4 4.4 2 8.9 1.6 4-.4 8-2 10.9-2.4 0 .1 0 .2.1.3 0 .9.2 1.9.1 2.8z" fill="#d24b3f"/><path d="M681.6 201.5c-1-7.8 1.5-20.2 17-18.3 15.5 2 20.4 17.3 17.3 24.1s4.5 8.4 6.9 15.7c2.1 6.3 2.8 14.1 6.1 17.6 10.8 11.3-10.3 28.6-23 24.9-23.2-6.7-26.1-7.7-25.3-25.8.4-9.3 7.7-12.9 3.1-15.6-11.2-6.6 0-5-2.1-22.6z" class="Bo"/><g class="Bi"><path d="M704.4 221.8l-4.3 11.1-9.2.5-4.6-6.9c2.9-2.2 4.1-5.5 4.6-8.5.4-2.4.3-4.5.2-5.7-.1-.6-.1-.9-.1-.9l11.5-3.5h0l.5 7.3c.6 6.5 1.4 6.6 1.4 6.6z"/><path d="M686.2 221.4c.6 0 10.7-2.1 27.7 2.3 0 0-9.3 42.8-6.2 50.8 3.2 8.1 4.4 15.2 4.4 15.2l-34.4.4s.5-27.7-1.1-37.5c-1.5-9.6 9.6-31.2 9.6-31.2z"/></g><path d="M730.1 266.2c-1.7-11.9-8.1-36.3-12.4-40.3-3.8-3.5-12-3.9-12-3.9h0 0c-1.7 2.7-7.5 9.3-14.7 8.1-3.9-.6-4.7-7.6-4.8-8.6v-.1h-.1c-1.1.2-10.2 1.6-12.9 6.3-4 6.8-8.3 27.3-12.5 27-1.9-.1-21.5-7.5-21.5-7.5s-3.3 3.1-2.6 6.8c0 0 9.7 6.5 17.9 10.6 1.1.6 2.2 1.1 3.3 1.6 3 1.3 5.4 2 6.8 1.7.4-.1.8-.3 1.2-.5 1.8-1 3.8-3.3 5.8-5.8 1.3-1.7 2.6-3.6 3.7-5.3 0 0 0-.1.1-.1.5 6.5 1 13.6.5 19.1-.4 4.2-.7 13.4.1 15.7 1.5 4.9 12.6 6.2 23 5.7 4.9-.2 8.3-.5 10.8-1.1 3.6-.8 5.3-2.3 6.5-5.2 1.1-2.8-4.1-15.7-4.6-21.4-.5-5.1.3-9.3 1.6-13.4 3.7 8.5 7.4 14.5 7.9 15.8 1 2.8 16.6 20.2 16.6 20.2s1.3-.3 2.3-.9c1-.7 1.5-1.6 1.5-1.6-2.8-6.4-11.5-22.9-11.5-22.9z" fill="#ffb92c"/><path d="M716.3 290.5c-1.2 2.9-2.9 4.4-6.5 5.2-4.9-.9-8.1-9.9-9.7-14.3-1.9-5.1 8-31.2 10.8-31 2 .2 2.4 3.6 2.5 5.3-1.3 4.1-2.1 8.2-1.6 13.4.3 5.7 5.6 18.6 4.5 21.4z" class="Bn"/><path d="M639.4 249.3s-1.7-4.1-3.5-4.3-7.7-1.1-8.1-.3 0 3.8 1.3 4.9 9 2.8 9 2.8l1.3-3.1z" class="Bi"/><path d="M675.3 256.3l-3.7 5.3c-1.9 2.3-4 4.6-5.8 5.8-.4.3-.8.4-1.2.5-1.4.3-3.8-.4-6.8-1.7 1.8.1 3.5.1 5.2-.1 3-.3 3.8-3.5 8.5-8.3 2.7-2.8 3.6-2.4 3.8-1.5z" class="Bn"/><path d="M702.4 207.8c-1.7 2.8-5.9 8.7-11.6 10.1.4-2.4.3-4.5.2-5.7-.1-.6-.1-.9-.1-.9l11.5-3.5z" fill="#f99156"/><path d="M687.9 212.1s13.8 2.8 15.4-5.9c1.6-8.6 4.5-14.1-4.3-16.3s-11.1.8-12.3 3.6-2.4 17.7 1.2 18.6z" class="Bi"/><g class="Bo"><path d="M694.7 187.8s-.2 2.9 4.3 7.9c4.6 5 3.7 15 3.7 15s7.5-15.6 3.4-20.2c-4.2-4.5-11.4-2.7-11.4-2.7z"/><path d="M700.2 184s-6.9-2.3-13.7 4.4c-2.9 2.9-2.5 8.6-.9 11.9 0 0 2.4-7.1 6.8-8.6s7.8-7.7 7.8-7.7z"/></g><path d="M692.2 207.9s-.4 1-3 .6c0 0-2.2-.4-2-1.5 0-.1 2.3-.7 5 .9z" fill="#fff"/><g class="Bl"><path d="M478.3 211.2c3.8 21.3-8.7 38.5-27.8 38.5-1.2 0-2.5-.9-3.7-1 17-2 27.7-17.6 24.2-37.5s-19.9-36.3-37.6-38.3c1.2-.1 2.4-.2 3.6-.2 19-.1 37.5 17.2 41.3 38.5z"/><path d="M493.5 222.3c5.4 0 9-5 7.9-11.2s-6.4-11.2-11.8-11.2h-.8c-.8-2.3-1.8-4.5-2.8-6.7 2.7-1.9 4.2-5.6 3.4-9.9-1.1-6-6.1-10.9-11.3-11.2l-6.4.1c-.3 0-.6 0-.9.1-.6-.6-1.3-1.2-2-1.8.9-1.9 1.2-4.2.8-6.7-1.1-6.2-6.4-11.2-11.8-11.2h-.1 0l-5.3.1h-.5-.8 0c-1.5.1-2.8.7-3.9 1.5s-2 2-2.5 3.4c-.1 0-.3-.1-.4-.1 0-.4-.1-.8-.2-1.1-1.1-6.2-6.4-11.2-11.8-11.2l-5.8.1h-.1-.3-.1 0c-.4 0-.8.1-1.2.2-.3.1-8.8 3.2-5.9 14l-.6.3s-1.7-3.4-4.8-5.3c-3.8-2.3-6.2-1.8-6.6-1.7h-5.1 0c-5.3.1-8.7 5.1-7.6 11.2.5 2.9 1.9 5.5 3.9 7.5a3.04 3.04 0 0 0-.5.7h-1.8-.8c-.3 0-.7 0-1 .1h-4.5-.1-.4-.6 0c-.2 0-.3 0-.5.1-4.8.7-7.7 5.4-6.7 11.1.8 4.8 4.2 8.9 8.2 10.5-.2 2-.3 4-.4 6h-2-.3-.6-.4c-4.9.6-7.9 5.3-6.9 11.2 1.1 6.2 6.4 11.2 11.8 11.2h2.2a76.65 76.65 0 0 0 1.7 4.3c-3.8 1.4-6 5.7-5.1 10.7 1.1 6 6 10.8 11.2 11.2h0 0 .6.8l5-.1h0 .1c.7 0 1.3-.1 2-.2.8.8 1.6 1.6 2.5 2.4-1.1 1.9-1.5 4.4-1 7.2 1.1 6.2 6.4 11.2 11.8 11.2l5.8-.1h0 .1c3.3 0 5.9-1.9 7.2-4.7.7.2 1.3.3 2 .5 0 .4.1.8.2 1.1 1.1 6.2 6.4 11.2 11.8 11.2l5.9-.1h0 .4c5.2-.2 8.5-5.2 7.5-11.2-.1-.4-.2-.8-.3-1.1.2 0 .4-.1.6-.2 2.3 2.8 5.5 4.6 8.7 4.6l5.7-.1h.2c5.4 0 9-5 7.9-11.2-.4-2.3-1.4-4.5-2.8-6.3.7-.9 1.4-1.9 2.1-2.9h6.7 0 .1c5.4 0 9-5 7.9-11.2-.8-4.5-3.8-8.4-7.5-10.2.1-1.6.2-3.2.2-4.8.2-.1.5-.1.7-.1zm-43.2 26.6c-19.1 0-37.7-17.1-41.4-38.1-3.7-21.1 8.8-38.1 27.9-38.1s37.7 17.1 41.4 38.1-8.8 38.1-27.9 38.1z"/></g><path d="M493.4 222.3c5.4 0 9-5 7.9-11.2s-6.4-11.2-11.8-11.2h-.8c-.8-2.3-1.8-4.5-2.8-6.7 2.7-1.9 4.2-5.6 3.4-9.9-1.1-6.2-6.4-11.2-11.8-11.2-2 0-3.8.7-5.1 1.9-1.2-1.2-2.4-2.4-3.7-3.5.9-1.9 1.2-4.2.8-6.7-1.1-6.2-6.4-11.2-11.8-11.2-4 0-6.9 2.7-7.8 6.6-1.9-.7-3.8-1.2-5.8-1.7 0-.4-.1-.8-.2-1.1-1.1-6.2-6.4-11.2-11.8-11.2s-9 5-7.9 11.2c.1.4.2.8.3 1.1-2.2.5-4.3 1.3-6.3 2.2-2.2-4.2-6.2-7.1-10.4-7.1-5.4 0-9 5-7.9 11.2.5 2.9 1.9 5.5 3.9 7.5-.8 1.1-1.6 2.2-2.3 3.4-2-1.6-4.3-2.6-6.7-2.6-5.4 0-9 5-7.9 11.2.8 4.8 4.2 8.9 8.2 10.5-.2 2.1-.4 4.2-.4 6.3a8.33 8.33 0 0 0-2.2-.3c-5.4 0-9 5-7.9 11.2s6.4 11.2 11.8 11.2c.7 0 1.5-.1 2.1-.3.5 1.5 1.1 3 1.8 4.5-3.8 1.4-6 5.7-5.1 10.7 1.1 6.2 6.4 11.2 11.8 11.2 2.4 0 4.4-1 5.8-2.5 1.5 1.6 3 3.2 4.6 4.6-1.1 1.9-1.5 4.4-1 7.2 1.1 6.2 6.4 11.2 11.8 11.2 4 0 6.9-2.7 7.8-6.6 2.4.9 4.8 1.7 7.3 2.3 0 .4.1.8.2 1.1 1.1 6.2 6.4 11.2 11.8 11.2s9-5 7.9-11.2c-.1-.4-.2-.8-.3-1.1 1.9-.5 3.7-1.1 5.4-1.8 2.3 3.6 6 6.1 9.8 6.1 5.4 0 9-5 7.9-11.2-.4-2.3-1.4-4.5-2.8-6.3 1.2-1.5 2.2-3.1 3.2-4.8 1.7 1.1 3.7 1.8 5.7 1.8 5.4 0 9-5 7.9-11.2-.8-4.5-3.8-8.4-7.5-10.2.1-1.6.2-3.2.2-4.8.2.2.4.2.7.2zm-43.1 26.6c-19.1 0-37.7-17.1-41.4-38.1-3.7-21.1 8.8-38.1 27.9-38.1s37.7 17.1 41.4 38.1-8.8 38.1-27.9 38.1z" class="Bm"/><g class="Bk"><path d="M542.6 212.7c2.9 16.3-6.6 29.5-21.2 29.5-1 0-1.9-.7-2.9-.8 13-1.6 21.1-13.5 18.5-28.7-2.7-15.2-15.2-27.7-28.8-29.3.9-.1 1.8-.2 2.8-.2 14.6 0 28.7 13.2 31.6 29.5z"/><path d="M554.3 221.2c4.2 0 6.8-3.8 6-8.6-.8-4.7-4.9-8.6-9-8.6h-.6c-.6-1.7-1.3-3.5-2.1-5.1 2.1-1.5 3.2-4.3 2.6-7.5-.8-4.6-4.6-8.3-8.7-8.6l-4.9.1h-.7c-.5-.5-1-.9-1.5-1.4.7-1.4.9-3.2.6-5.1-.8-4.7-4.9-8.6-9-8.6h-.1 0l-4.1.1h-.3-.6 0c-1.1.1-2.2.5-3 1.2-.8.6-1.5 1.5-1.9 2.6-.1 0-.2 0-.3-.1 0-.3-.1-.6-.1-.9-.8-4.7-4.9-8.6-9-8.6l-4.5.1h-.1-.2-.1 0c-.3 0-.6.1-.9.1-.2.1-6.8 2.4-4.5 10.7l-.5.2s-1.3-2.6-3.6-4.1c-2.9-1.8-4.8-1.4-5-1.3h-3.9 0c-4.1.1-6.7 3.9-5.8 8.6.4 2.2 1.5 4.2 3 5.7-.1.2-.3.4-.4.6h-1.4-.6-.7-3.4-.1-.3-.5 0-.4c-3.6.5-5.9 4.1-5.1 8.5.6 3.7 3.2 6.8 6.3 8-.2 1.5-.3 3-.3 4.6h-1.5-.2-.5-.3c-3.7.4-6.1 4.1-5.3 8.5.8 4.7 4.9 8.6 9 8.6h1.7c.4 1.1.8 2.2 1.3 3.3-2.9 1.1-4.6 4.3-3.9 8.2.8 4.6 4.6 8.3 8.6 8.6h0 0 .5.6 3.8 0 .1c.5 0 1-.1 1.5-.2.6.6 1.2 1.2 1.9 1.8-.8 1.5-1.1 3.4-.8 5.5.8 4.7 4.9 8.6 9 8.6l4.4-.1h0 .1c2.5 0 4.5-1.4 5.5-3.6.5.1 1 .3 1.5.4 0 .3.1.6.1.9.8 4.7 4.9 8.6 9 8.6l4.5-.1h0 .3c4-.2 6.5-3.9 5.7-8.6-.1-.3-.1-.6-.2-.9.1 0 .3-.1.4-.1 1.7 2.1 4.2 3.5 6.7 3.5l4.4-.1h.2c4.2 0 6.8-3.8 6-8.6-.3-1.8-1.1-3.4-2.2-4.8.6-.7 1.1-1.5 1.6-2.2h5.1 0 .1c4.2 0 6.8-3.8 6-8.6-.6-3.5-2.9-6.4-5.8-7.8.1-1.2.2-2.4.2-3.7.2.3.4.3.6.3zm-33.1 20.3c-14.6 0-28.8-13.1-31.6-29.2s6.7-29.2 21.3-29.2 28.8 13.1 31.6 29.2c2.9 16.2-6.7 29.2-21.3 29.2z"/></g><path d="M554.2 221.2c4.2 0 6.8-3.8 6-8.6-.8-4.7-4.9-8.6-9-8.6h-.6c-.6-1.7-1.3-3.5-2.1-5.1 2.1-1.4 3.2-4.3 2.6-7.5-.8-4.7-4.9-8.6-9-8.6-1.5 0-2.9.5-3.9 1.4-.9-.9-1.9-1.8-2.8-2.7.7-1.4.9-3.2.6-5.1-.8-4.7-4.9-8.6-9-8.6-3.1 0-5.3 2.1-6 5.1-1.5-.5-2.9-1-4.4-1.3 0-.3-.1-.6-.1-.9-.8-4.7-4.9-8.6-9-8.6-4.2 0-6.8 3.8-6 8.6.1.3.1.6.2.9-1.7.4-3.3 1-4.8 1.7-1.7-3.2-4.8-5.4-7.9-5.4-4.2 0-6.8 3.8-6 8.6.4 2.2 1.5 4.2 3 5.7-.6.8-1.2 1.7-1.7 2.6-1.5-1.2-3.3-2-5.1-2-4.2 0-6.8 3.8-6 8.6.6 3.7 3.2 6.8 6.3 8-.2 1.6-.3 3.2-.3 4.8-.6-.1-1.1-.2-1.7-.2-4.2 0-6.8 3.8-6 8.6.8 4.7 4.9 8.6 9 8.6.6 0 1.1-.1 1.6-.2.4 1.2.9 2.3 1.4 3.5-2.9 1.1-4.6 4.3-3.9 8.2.8 4.7 4.9 8.6 9 8.6 1.8 0 3.3-.7 4.4-1.9 1.1 1.2 2.3 2.4 3.5 3.5-.8 1.5-1.1 3.4-.8 5.5.8 4.7 4.9 8.6 9 8.6 3 0 5.3-2.1 6-5 1.8.7 3.7 1.3 5.6 1.7 0 .3.1.6.1.9.8 4.7 4.9 8.6 9 8.6 4.2 0 6.8-3.8 6-8.6-.1-.3-.1-.6-.2-.9 1.4-.4 2.8-.8 4.1-1.4 1.7 2.8 4.6 4.7 7.5 4.7 4.2 0 6.8-3.8 6-8.6-.3-1.8-1.1-3.4-2.1-4.8.9-1.1 1.7-2.4 2.5-3.6 1.3.9 2.8 1.4 4.3 1.4 4.2 0 6.8-3.8 6-8.6-.6-3.5-2.9-6.4-5.8-7.8.1-1.2.2-2.4.2-3.7-.1-.1.1-.1.3-.1zm-33 20.3c-14.6 0-28.8-13.1-31.6-29.2s6.7-29.2 21.3-29.2 28.8 13.1 31.6 29.2c2.9 16.2-6.7 29.2-21.3 29.2z" class="Bq"/><path d="M272.6 225.2l18 67.3h16l-18-67.3zm21.4-6.9l19.9 74.2h16L310 218.3zm19.9-11.8l23 86h16l-23-86zm37.9-8.7h-16l23 85.9h16zm-76.9 20.8l17.2-13.2 1.3 4.8c.2.8.9 1.5 1.7 1.9s1.6.3 2.2-.2l18.3-17.5 2.6 2.3c.3.3.7.2.7-.2l-.8-7.3c0-.3-.3-.5-.5-.5l-7.6-.2c-.4 0-.5.4-.2.7l2.3 2.1-15.6 14.7-1.2-4.4c-.2-.8-.8-1.5-1.6-1.8-.8-.4-1.6-.3-2.1.1l-19.8 15.2c-.8.6-.8 1.9.1 2.9.6.6 1.3 1 2 1 .4-.1.8-.2 1-.4z" class="Bm"/><g fill="#c1e0ff"><path d="M270 274.1l.7 2.6c-.4-.8-.6-1.7-.7-2.6z"/><path d="M610.4 305.3H278.1l-7.5-28.6c6.9 14.8 62.9-1.4 75.4-10.4 22.9-16.6 23.1-32.9 46.9-43.9 32.2-15 64.3 8.5 90.2 2.1 79.3-19.6 145-83.9 147.1-85.9-22.3 51.5-76.5 78.7-34.8 95.6 43.2 17.4 15 71.1 15 71.1z"/></g><path d="M563.2 305.3H401.9c6.9-5.7 16.3-15.5 21.3-29.5 8.4-23.7 37.3-13.9 62.8-18s77-56 78.8-50.1c.9 3.2-10.6 45.4 6.3 50.2 16.6 4.6 23 31-7.9 47.4z" class="Bm"/><text transform="matrix(.9395 .017209 .3248 .9458 248.2937 162.5976)" font-family="Arial-BoldMT" font-size="28.457" class="Bs">LAUNCH</text></svg>