<?xml version="1.0" encoding="utf-8"?>
<!-- Generator: Adobe Illustrator 19.2.1, SVG Export Plug-In . SVG Version: 6.00 Build 0)  -->
<svg version="1.1" id="Layer_1" xmlns="http://www.w3.org/2000/svg" xmlns:xlink="http://www.w3.org/1999/xlink" x="0px" y="0px"
	 viewBox="0 0 170 96" style="enable-background:new 0 0 170 96;" xml:space="preserve">
<style type="text/css">
	.st0{fill:#1766A6;}
</style>
<g>
	<path class="st0" d="M55.8,79c-0.8,0.2-1.7,1.3-1.4,3c0.1,0.7,0.5,1.8,0.7,2.2c0.3,0.8,0.5,2,0.2,4.6c-0.5,3.2-1.7,5.5-4.4,5.4
		c-1.8,0-3.4-1.4-3.6-5c-0.2-3.4,0.1-4.8,0.6-7.8c0.2-1.3,0.3-2.5-0.7-2.3c-1.4,0.3-1.8,0.8-2.2,2.4c-0.8,2.9-1,4.9-0.9,7
		c0.2,4.3,2.1,7.2,6.5,7.2c5.1,0.1,7.1-4.8,7.3-8.9c0.2-3,0.1-5.1-0.3-6.7C57,79.2,56.7,78.7,55.8,79z"/>
	<path class="st0" d="M127.8,84.6c-4.7,0-5.7,7-6.4,7c-1.2,0-0.8-5.6-1.7-5.6c-0.8,0-1.2,0.9-1.3,1.4c-0.6,2.6-2.5,6.3-5.3,6.3
		c-0.6,0-1.8-0.3-1.8-0.9c0-0.7,4.4-0.8,4.4-4.1c0-1.2-1.1-3-2.8-3c-2.2,0-4.4,2.4-4.4,5.8c0,3,1.9,4,3.8,4c3.3,0,5.3-2.7,6.3-4.9
		c0.5,1.5,0.8,4.9,2,4.9c0.5,0,0.8-0.2,1.4-1.6c1.5-3.3,2.9-7.2,4.9-7.2c0.7,0,0.3,1.3,2.1,1.3c0.8,0,1.4-0.7,1.4-1.5
		C130.5,85.5,129.4,84.6,127.8,84.6z M112.2,87.7c1,0,1.3,1.2,1.1,2c-0.2,0.7-1.1,1.6-2.5,1.8C110.5,90.8,110.3,87.7,112.2,87.7z"/>
	<path class="st0" d="M74.1,80.2c0.1,0.8,0.5,1.5,1.5,1.5c1.1,0,1.9-1.2,1.8-2.4c-0.1-0.8-0.7-1.3-1.5-1.3
		C74.9,77.9,74,78.9,74.1,80.2z"/>
	<path class="st0" d="M106.7,84.9c-1.1,0-2,1.3-2,2.9c0,1.4,0.3,1.5,0.3,2.5c0,1.3-0.7,3.1-1.5,3.1c-2,0-2.5-7.8-3.7-7.8
		c-0.7,0-1,0.8-1.2,1.4c-1.1,3.1-2.6,6.6-5.4,6.6c-0.5,0-1.2-0.3-1.5-0.6c2-1.2,3.3-2.5,3.3-4.1c0-1.3-0.9-3.4-2.4-3.4
		c-1.9,0-4.2,2.9-4.2,6.4c0,0.6,0.1,1.1,0.2,1.4c-0.2,0.2-0.7,0.5-1.2,0.5c-1.3,0-2.8-1.4-2.9-2.3c1-2.2,3-4.7,2.6-10.7
		c-0.1-2.3-1.3-3.7-2.8-3.6c-2,0.1-3.9,4.7-3.6,9.5c0.1,0.9,0.5,3.5,1,4.8c-1,1.6-2.3,1.9-3,1.9c-1,0-2.6-0.6-2.6-3
		c0.7-2,0.3-4.4-0.8-4.4c-1.5,0-2,2.6-2,4.5c-0.5,1.1-1,2-1.8,2c-2.2,0-2.4-7-4.1-7c-1.3,0-3.6,4.4-4.3,4.4c-0.4,0-0.7-1.3-1-2.5
		c-0.1-0.3-0.1-0.8-0.4-0.8c-0.4,0-1,0.3-1.2,0.9c-0.2,0.5-0.6,2.2-1,3.7c-0.2,0.9-0.8,2.7-0.9,3.4c-0.1,0.5,0.2,0.9,0.7,0.9
		c1.2,0.1,5.8-5.5,7.2-5.5c1.8,0,2.3,5.5,4.4,5.5c1.2,0,2.4-3.2,3.1-3.2c0.8,0,1.2,3.2,3.6,3.2c3,0,4-1.9,4.9-1.9
		c0.7,0,1.5,1.9,3.4,1.9c1.1,0,2.1-0.3,3.3-1.1c0.7,0.8,1.5,1.2,2.3,1.2c4.9,0,6.3-4.4,7.3-4.4c0.9,0,0.7,4.4,3.2,4.4
		c3.4,0,5.7-5.9,5.7-9.1C107.7,85.6,107.4,84.9,106.7,84.9z M83.8,89.1c-0.3,0-0.6-0.3-0.7-2.4c-0.2-3.3,0.3-6.4,1.2-6.4
		c0.7-0.1,1.1,0.6,1.2,2C85.6,85.3,84.3,89.1,83.8,89.1z M91,92c-0.2-0.3-0.6-0.8-0.6-2.1c0-1.6,1-2.1,1.5-2.1c0.5,0,1,0.7,1,1.5
		C92.8,90.4,92.4,91.6,91,92z"/>
	<path class="st0" d="M115.9,12.6c-0.9,0-2,0.8-3.2,0.8c-0.4,0-0.8,0-1.3-0.1c0.4,0.3,0.4,1.1,0.6,1.6c0.3,0.6,0.8,0.6,1.2,0.6
		c1.1,0,3.5-0.9,3.4-2.1C116.7,13,116.5,12.6,115.9,12.6z"/>
	<path class="st0" d="M113.2,16.5c-0.9,0-1.1,0.6-1.1,0.9c0,0.7,0.7,1.1,1.7,1.1c2.7,0,5.2-2.2,5.2-4.1c0-0.9-0.4-1.6-1.5-1.8
		c0.2,0.2,0.3,0.4,0.3,0.8C117.8,14.9,115.6,16.5,113.2,16.5z"/>
	<path class="st0" d="M119.1,16.7c-1.2,2.5-4.4,3-5.4,2.8c0.3,2.5,4.1,5.9,5.2,5.8c0.7-0.1,1-3.3,1-5.8
		C119.7,18.1,119.8,17,119.1,16.7z"/>
	<path class="st0" d="M55.7,45.9c0.6,1.3,1.3,1.5,3,1.6c-1-0.9-1.2-1.6-1.2-2.3c0-1.4,1.4-3.9,2.3-5.6c1.2-2.2,2.5-5.6,2.5-7
		c0-0.6-0.2-0.9-0.5-0.9c-0.3,0-0.6,0.4-0.8,1.1c-0.4,1.4-1.7,4.3-2.4,4.3c-0.1,0-0.2-0.1-0.2-0.3c0-1,1.6-4.7,1.6-5.9
		c0-0.3-0.2-0.7-0.5-0.7c-1.1,0-2.2,6-2.8,6c-0.2,0-0.4-0.2-0.4-0.7c0-1,0.6-2.8,0.6-4.1c0-0.4-0.1-0.8-0.4-0.8
		c-1.4,0-1.3,5.5-2.2,5.5c-0.2,0-0.5-0.1-0.5-1.3c0-1.2,0.1-1.8,0.1-2.2c0-0.2-0.1-0.4-0.3-0.4c-0.8,0-1.5,2.9-1.5,5.8
		c0,3.3,0.6,5.3,1.4,5.3c0.8,0,2-2,2-2.7c0-0.3-0.2-0.5-0.4-0.9c-0.6-1,0-2.2,0.5-2.2c0.7,0,0.7,0.6,1.6,1.3c0.3,0.3,0.5,0.6,0.5,1
		c0,1.9-4,4.5-4,9c0,5.2,4,6.1,4.5,7C60.9,51,52.9,51.5,55.7,45.9z"/>
	<path class="st0" d="M60.8,42.3c-0.6,0-0.8-0.6-1-0.6c-0.2,0-0.2,0.5-0.2,0.6c0,1,0.7,1.5,1.4,1.5c1.1,0,2-0.8,2-2.6v-2.7
		c0-1,0.1-2.2,0.8-3c-0.1,0.3-0.1,0.7-0.1,1.1c0,2.3,1.3,3.8,1.3,6c0,0.8-0.2,1.3-0.9,1.3c-0.6,0-0.6-0.6-0.7-0.6
		c-0.1,0-0.3,0.3-0.3,0.7c0,0.6,0.4,1.4,1.5,1.4c0.9,0,1.7-0.9,1.7-1.8c0-2.4-1.8-5-1.8-7.5c0-1.1,0.3-1.8,0.5-2.4
		c0,5.2,4.5,9.1,4.5,11.3c0,0.5-0.4,0.9-0.9,0.9c-0.6,0-0.9-0.5-0.9-0.8c0-0.2,0-0.2-0.1-0.2c-0.2,0-0.6,0.5-0.6,1.2
		c0,0.9,0.7,1.9,2,1.9c1.5,0,2.3-1.3,2.3-2.4c0-2.8-5.4-7-5.4-11.4c0-0.8,0.1-2,0.7-3c-3.5,2.2-4.6,5.2-4.6,7.8
		C62.1,41.2,62,42.3,60.8,42.3z"/>
	<path class="st0" d="M106.4,19.5c2.4,0,4.4-0.8,4.4-2.2c0-1.2-1.1-3.6-1.9-3.6c-0.5,0-1.3,0.6-2,0.6c-0.8,0-0.6-1.1-1.5-1.1
		c-0.2,0-0.4,0.1-0.7,0.2c-1.9,0.9-3.4,0.6-3.7,0.8c-0.1,0.1-0.2,0.1-0.2,0.3C100.8,16.4,102.9,19.5,106.4,19.5z M103.6,15.7
		c0.3,0,1.2,0.4,2.3,0.6c1.3,0.2,2,0.2,2.3,0.2c0.3,0,0.5,0.1,0.5,0.2c0,0.3-0.9,0.8-2,0.8c-2,0-3.2-1.1-3.2-1.7
		C103.5,15.7,103.5,15.7,103.6,15.7z"/>
	<path class="st0" d="M66.6,64.1c3.8,0,4.8-2.7,4.8-4.5c0-4-2.4-6.8-5.6-6.8c-1.7,0-3.3,1.3-3.3,3.1c0,1.7,1.3,4.3,4.5,4.3
		c1.5,0,2.3-1.1,2.3-2.3c0-1.2-1.1-2.8-2.7-2.8c-0.5,0-0.8,0.3-0.8,0.8c0,0.6,0.9,1.3,1.9,1.3c0.3,0,0.5-0.1,0.6-0.1
		c0.1,0.1,0.1,0.2,0.1,0.3c0,0.6-0.6,1-1.5,1c-1.3,0-2.6-1-2.6-2.6c0-0.9,0.8-1.6,2-1.6c2.3,0,3.7,2.1,3.7,4.2c0,1.9-1,3-3.1,3
		c-4.2,0-6.3-3.8-5.4-7.6c-0.9,0.2-2.3,1.6-2.3,3.7C59.3,60.1,62.1,64.1,66.6,64.1z"/>
	<path class="st0" d="M79.8,63.9c-0.2,1.6-1.4,1.9-2.3,1.9c-0.7,0-1.8-0.2-1.8-0.5c-0.4-2.2-2.1-3.5-2.8-3.8c0,0.2,0.1,0.5,0.1,0.7
		c0,1.9-1.3,3.1-3.7,3.1c-0.4,0-0.9,0-1.3-0.1c2.8,3.1,4.7,1.9,6,2.5c1.7,0.8,3.1,3.1,8.5,3.1c2,0,4-0.8,5.3-1.6
		c0.2,0.8,1.1,1.5,2.4,1.5c2.3,0,3.6-0.7,3.6-1.3c0-0.2,0-0.4-0.4-0.4c-0.4,0-0.3,0.1-1.6,0.1c-1.5,0-3.8-0.6-4.9-3.1
		c-0.2-0.4-0.5-0.4-0.6-0.4c-0.7,0-1.9,2.6-6.5,2.6c-2,0-2.8-0.7-2.8-0.9c0,0,0-0.1,0.1-0.1c0.2,0,0.9,0.1,1.8,0.1
		c2.9,0,5.3-1.3,6.7-2.9c0.5-0.6,0.7-0.6,1.2-0.6c0.4,0,0.8,0.3,0.9,0.8c0.7,1.7,2.2,3,3.8,3c2.2,0,2.2-3.8,2.8-4
		c0.1,0,0.2,0.1,0.3,0.1c0.3,0,0.7-0.2,0.7-0.7c0-0.5-0.7-0.7-0.8-0.9c-0.3-0.5-0.1-1.4-0.8-1.4c-0.5,0-0.6,0.4-0.6,0.8
		c-1.1-0.3-2.1-0.5-2.9-0.5c-0.6,0-1.1,0.1-1.6,0.2c-0.3-0.5-1.6-1.6-2.7-1.9C85.1,61.8,83,63.7,79.8,63.9z M90.7,62.9
		c0.6,0,1.1,0.5,1.1,1.1c0,0.6-0.5,1.1-1.1,1.1c-0.6,0-1.1-0.5-1.1-1.1C89.6,63.4,90.1,62.9,90.7,62.9z"/>
	<path class="st0" d="M114.2,54.4c0-3.3-2.4-4.7-4.5-4.7c-3.9,0-2.9,3.4-7.4,4.4c-0.8,0.2-1.1,0.4-1.1,0.8c0,0.7,0.4,1.6,0.9,1.6
		c2,0,5-4.1,5.6-4.1c0.2,0,0.5,0,0.5,0.6c0,1.5-4.3,3.4-4.3,4.5c0,0.6,1.5,2,3,2c2.1,0,4.1-4.4,4.5-4.4c0.3,0,0.5,0.3,0.5,0.5
		c0,1.2-1.4,3.5-4,4.5c-0.5,0.2-0.6,0.4-0.6,0.6c0,0.6,0.7,1.4,1.3,1.4C109.2,62.2,114.2,57.9,114.2,54.4z M111.4,53.5
		c-0.3,0-0.6-0.1-0.8-0.2c-0.3-0.2-0.9-0.7-0.9-1.4c0-0.7,0.4-1,0.8-1c1.1,0,2.3,1,2.3,1.8C112.8,53.3,112.2,53.5,111.4,53.5z"/>
	<path class="st0" d="M62.2,28.6c1.3,0,1.9-1.1,1.9-2.2c0-1.8-1.6-3-2.9-3.4c-0.6,0.7-1.2,1.8-1.2,3C60,27.4,60.8,28.6,62.2,28.6z"
		/>
	<path class="st0" d="M53.3,30.8c0.8,0,2-0.6,3.3-1.8c-1,0.2-1.8,0.4-2.5,0.4c-0.9,0-1.7-0.4-2.5-1.6C51.6,29.9,52.2,30.8,53.3,30.8
		z"/>
	<path class="st0" d="M57.1,27.4c0,0.9,0.7,1.6,1.7,1.6c0.5,0,0.8-0.1,1-0.3c-0.7-0.7-1-1.5-1-2.3c0-0.6,0.1-0.9,0.2-1.2
		C58.3,25.3,57.1,26.1,57.1,27.4z"/>
	<path class="st0" d="M58.6,15.8c0-1.3-0.6-3.2-2.4-3.2c-1,0-1.8,0.8-1.8,1.8c0,2.1,2.1,2.9,3.9,2.9C58.5,16.9,58.6,16.4,58.6,15.8z
		"/>
	<path class="st0" d="M53.8,18.5c0.9,0,1.7-0.6,1.7-0.6c-1.5-0.4-2.4-1.6-2.4-3.1c0-0.2,0-0.3,0-0.4c-1,0.4-1.4,1.3-1.4,2.1
		C51.8,17.7,52.7,18.5,53.8,18.5z"/>
	<path class="st0" d="M61,16.9c-0.6,0-1.1,0.5-1.1,1.1c0,0.6,0.5,1.1,1.1,1.1c0.6,0,1.1-0.5,1.1-1.1C62,17.4,61.5,16.9,61,16.9z"/>
	<path class="st0" d="M61.3,20.3c0,0.6,0.5,1.1,1.1,1.1c0.6,0,1.1-0.5,1.1-1.1c0-0.6-0.5-1.1-1.1-1.1C61.7,19.3,61.3,19.7,61.3,20.3
		z"/>
	<path class="st0" d="M52.5,25.5c0,0.1,0,0.3,0,0.4c0,1.2,0.7,1.9,1.5,1.9c0.7,0,1.4-0.4,2.1-1.3c-0.3,0.1-0.6,0.1-0.9,0.1
		C54.2,26.7,53.1,26.4,52.5,25.5z"/>
	<path class="st0" d="M59.7,20c-0.3-0.5-0.2-0.9-0.4-1.1c-0.1-0.1-0.5-0.1-1-0.2c-0.2,0-0.4,0-0.6,0c-0.9,0-1.9,0.1-3.1,0.8
		c-2.3,1.5-1.9,3.9-2.3,4.5c-0.1,0.1-0.1,0.2-0.1,0.3c0,0.2,0.3,0.5,0.5,0.5c0.2,0,0.3-0.1,0.4-0.1c0.6,0,1.3,0.4,2.4,0.4
		c0.6,0,1.3-0.2,2.2-0.6c1.9-0.9,2.6-3.3,2.6-3.7C60.5,20.4,60.1,20.5,59.7,20z M56.2,24c-0.9,0-1.8-1.1-1.8-2.1
		c0-0.5,0.4-1.2,0.7-1.2c0.1,0,0.2,0.1,0.2,0.3c0.2,1.3,1,2,1.8,2.4c0.1,0.1,0.1,0.1,0.1,0.1C57.1,23.7,56.6,24,56.2,24z M58.6,22.3
		c-0.9,0-1.7-1.4-1.7-2.2c0-0.5,0.3-0.6,0.7-0.6c0.2,0,0.3,0,0.4,0.1c0.2,0.1,0.2,0.7,0.5,1.1c0.2,0.2,0.7,0.6,0.7,0.7
		C59.3,21.9,59.1,22.3,58.6,22.3z"/>
	<path class="st0" d="M93.7,27.3c-0.8,0-1.5,0.7-1.5,1.5c0,0.8,0.7,1.5,1.5,1.5c0.8,0,1.5-0.7,1.5-1.5C95.2,28,94.5,27.3,93.7,27.3z
		"/>
	<path class="st0" d="M103.1,25.6c-0.6,0-1.1,0.5-1.1,1.1c0,0.6,0.5,1.1,1.1,1.1c0.6,0,1.1-0.5,1.1-1.1
		C104.2,26.1,103.7,25.6,103.1,25.6z"/>
	<path class="st0" d="M100.5,21.2c0,0.6,0.4,1,1,1c0.6,0,1-0.4,1-1c0-0.6-0.4-1-1-1C100.9,20.2,100.5,20.7,100.5,21.2z"/>
	<path class="st0" d="M94.2,24.1c-0.6,0-1.1,0.5-1.1,1.1c0,0.6,0.5,1.1,1.1,1.1c0.6,0,1.1-0.5,1.1-1.1
		C95.2,24.6,94.8,24.1,94.2,24.1z"/>
	<path class="st0" d="M103.3,28.7c-0.7,0-1.2,0.6-1.2,1.2c0,0.7,0.6,1.2,1.2,1.2c0.7,0,1.2-0.6,1.2-1.2
		C104.5,29.3,104,28.7,103.3,28.7z"/>
	<path class="st0" d="M99.2,28.5c0,0.6,0.5,1.1,1.1,1.1c0.6,0,1.1-0.5,1.1-1.1c0-0.6-0.5-1.1-1.1-1.1C99.7,27.5,99.2,27.9,99.2,28.5
		z"/>
	<path class="st0" d="M98.5,24.5c0,0.9,0.8,1.7,1.7,1.7c0.9,0,1.7-0.8,1.7-1.7c0-0.9-0.8-1.7-1.7-1.7C99.2,22.8,98.5,23.5,98.5,24.5
		z"/>
	<path class="st0" d="M95.7,23.7c0,0.6,0.4,1,1,1c0.6,0,1-0.4,1-1c0-0.6-0.4-1-1-1C96.1,22.7,95.7,23.2,95.7,23.7z"/>
	<path class="st0" d="M100.1,34c1,0,1.8-0.8,1.8-1.8c0-1-0.8-1.8-1.8-1.8c-1,0-1.8,0.8-1.8,1.8C98.2,33.2,99.1,34,100.1,34z"/>
	<path class="st0" d="M103.4,32.3c-0.5,0-1,0.4-1,1c0,0.6,0.5,1,1,1c0.6,0,1-0.4,1-1C104.4,32.7,104,32.3,103.4,32.3z"/>
	<path class="st0" d="M95.8,30.6c0,0.6,0.5,1.1,1.1,1.1c0.6,0,1.1-0.5,1.1-1.1s-0.5-1.1-1.1-1.1C96.2,29.6,95.8,30,95.8,30.6z"/>
	<path class="st0" d="M98.8,27.2c0-0.9-0.7-1.6-1.6-1.6c-0.9,0-1.6,0.7-1.6,1.6c0,0.9,0.7,1.6,1.6,1.6
		C98.1,28.8,98.8,28.1,98.8,27.2z"/>
	<path class="st0" d="M97.4,62.5c-0.3,0-0.6,0.3-0.8,0.6c-0.6,0.7-1.4,2.1-1.4,3.6c0,1.1,0.8,2.1,2.3,2.1c4.9,0,8.6-3.1,8.6-5.6
		c0-1.4-0.8-2-1.5-2c-0.7,0.5-2.3,1.7-5,1.7C98.3,62.9,97.6,62.5,97.4,62.5z M103.1,63.6c0.1,0,0.3,0.1,0.3,0.6
		c0,0.6-0.3,1.3-1.2,1.9c-0.7,0.5-1.6,0.8-2.9,0.8c0.2-0.6,0.4-1.3,0.4-1.9c0-0.2,0-0.4-0.1-0.6h0.3C102,64.4,102.9,63.6,103.1,63.6
		z"/>
	<path class="st0" d="M100.8,58.4c-1.9,0-3,0.9-3,1.2v1.2c0,0.5,1.2,1,2.6,1c1.1,0,2.2-0.3,2.8-0.9c0.2-0.2,0.3-0.5,0.3-0.8v-0.6
		C103.5,58.8,102.4,58.4,100.8,58.4z"/>
	<path class="st0" d="M96,40.4c0.3,0,0.4,0.2,0.4,0.3c0,0.4-0.8,1.2-0.8,1.9c0,0.9,1.1,1.5,1.8,1.5c0.8,0,1.2-0.3,1.2-0.8
		c0-0.7-1.2-1.5-1.2-2.2c0-0.4,0.4-0.4,0.9-0.4c1.1,0,1.5,0.2,1.5,0.4c0,0.3-0.4,0.9-0.4,1.1c0,0.1,0.1,0.3,0.3,0.3
		c0.9,0,3.9-0.6,3.9-1.2c0-0.7-2.8-2.8-3.4-2.8c-0.1,0-0.2,0.1-0.2,0.2c0,0.2,0.1,0.5,0.1,0.7c0,0.5-0.2,0.6-0.7,0.6
		c-0.6,0-1.5-0.2-1.5-1.1c0-1.8,3.5-1.4,3.8-3.1c-1.5,0-2.3-1-3.3-1c-0.4,0-1.1,0.2-1.1,1.1c0,0.3,0.1,0.8,0.1,1.2
		c0,0.4-0.1,0.7-0.6,0.7c-0.4,0-0.5-0.5-0.5-1.1c0-0.5,0.1-1.1,0.1-1.5c0-2.7-3-1.6-3.3-3.8c-0.7,1.3-1,2.3-1,3
		c0,2.8,3.8,2.5,3.8,4.5c0,0.5-0.4,0.8-0.7,0.8c-0.6,0-1.1-1.4-2.1-1.4c-0.5,0-0.9,0.4-0.9,1.2c0,0.6,0.1,1.1,0.1,1.6
		c0,1.1-0.5,1.7-1,2.2C94.7,43,95,40.4,96,40.4z"/>
	<path class="st0" d="M107.6,42c2,0,2.9,3.1,3.3,3.1c0.4,0,0.1-1.4,0.3-1.6c0.1-0.1,0.3-0.1,0.5-0.1c0.3,0,0.8,0.1,1.1,0.1
		c0.2,0,0.3,0,0.3-0.1c0-0.3-1.6-0.8-1.6-1.2c0-0.4,0.9-1.3,0.9-1.5c0-0.1-0.1-0.1-0.1-0.1c-0.4,0-1.6,0.9-3.4,0.9
		c-0.7,0-1.3-0.1-1.3-0.6c0-0.5,0.5-0.9,1.2-1.2c0.8-0.3,2.4-0.3,2.4-0.7c0-0.3-1.5-0.3-1.5-0.6c0-0.3,0.6-1.2,0.6-1.6
		c0,0,0-0.1-0.1-0.1c-0.3,0-1,0.9-1.5,0.9c-0.4,0-0.8-1.1-1.2-1.1c-0.1,0-0.2,0.1-0.2,0.3c0,0.4,0.2,1.2,0.2,2.3
		c0,0.9-0.5,1.8-1,1.8c-0.7,0-0.9-0.8-0.9-1.4c0-1,0.5-2.1,0.5-3c0-0.2-0.1-0.3-0.2-0.3c-0.4,0-1,1.1-1.4,1.1
		c-0.3,0-0.8-1.3-1.2-1.3c-0.1,0-0.1,0.2-0.1,0.5c0,0.4,0.1,0.8,0.1,1.1c0,0.3-0.4,0.3-0.8,0.3c-0.3,0-0.9,0-0.9,0.2
		c0,0.2,0.6,0.5,1.1,0.8c1,0.6,2.4,1.3,2.4,2.8c0,1.4-2,2.3-3.3,2.6c-0.6,0.1-1.3,0.2-1.3,0.4c0,0.3,1.7,0.4,1.7,0.8
		c0,0.2-0.8,1.2-0.8,1.6c0,0.1,0.1,0.1,0.1,0.1c0.3,0,1.1-0.7,1.5-0.7c0.5,0,0.4,1.5,0.8,1.5c0.4,0,0.3-2.2,0.5-2.8c0.3-1,1-2,1.7-2
		c0.8,0,0.8,1.4,0.8,2c0,1.3-1,2.7-1,3.3c0,0.1,0.1,0.2,0.1,0.2c0.3,0,1-0.9,1.3-0.9c0.4,0,1.1,1.4,1.5,1.4c0.2,0,0.2-0.2,0.2-0.3
		c0-0.4-0.2-1.1-0.2-1.6c0-0.5,1.7-0.2,1.7-0.6c0-0.2-0.7-0.4-1.2-0.7c-1-0.6-2-1.8-2-2.8C107.1,42.2,107.4,42,107.6,42z"/>
	<path class="st0" d="M93.2,59.7c4.7,0,7-3.8,7-6.7c-0.9,0.8-3.2,1-4.4,1c-3.6,0-4.6-1.8-5.1-1.8c-0.5,0-0.5,0.8-0.5,1.1
		c0,0.3,0,0.4-0.2,0.4c-0.2,0-0.4-0.1-0.6-0.1c-0.2,0-0.3,0.1-0.3,0.4c0,1.1,1.4,1.9,2.8,1.9c1.8,0,2.7-0.8,3.2-0.8
		c0.2,0,0.3,0.2,0.3,0.4c0,0.3-0.3,0.6-0.3,0.8c0,0.4,0.9,0.1,0.9,0.6c0,0.6-1.1,1.2-2.8,1.2c-3.3,0-5.4-2.3-5.4-4.3
		c0-3.9,4.2-2.7,4.2-4.2c0-0.5-0.5-0.8-0.8-0.8c0.5-0.6,1.1-0.7,1.6-0.7c0.4,0,0.9,0.1,1.2,0.1c0.5,0,1-0.2,1-0.8
		c0-0.3-0.3-0.8-1.5-0.9c0.1-0.8,1.8-0.4,1.8-1.1c0-0.5-1-0.9-2.1-0.9c-4.5,0-7.8,3.7-7.8,7.7C85.7,55.7,88.3,59.7,93.2,59.7z"/>
	<path class="st0" d="M94.4,52.7c0.7,0,1.2-0.6,1.2-1.3c0-1-1-2-2.6-2c0.3,0.3,0.3,0.5,0.3,0.8c0,0.4-0.2,0.8-0.2,1.3
		C93.3,52.1,93.8,52.7,94.4,52.7z"/>
	<path class="st0" d="M96.6,45c0.4,0.4,0.5,0.9,0.5,1.3c0,1.1-0.9,2.3-0.9,3.4c0,1.5,1,2.4,2.3,2.4c1.5,0,2.3-1.2,2.3-2.6
		C100.9,47.6,99.4,45.5,96.6,45z M98.6,49.1c-0.4,0-0.6-0.3-0.6-0.7c0-0.2,0.1-0.5,0.2-0.8c0.1-0.3,0-0.7,0.2-0.7c0.5,0,1,0.8,1,1.3
		C99.3,48.8,99.1,49.1,98.6,49.1z"/>
	<path class="st0" d="M103.3,52.4c1.1,0,1.8-0.9,1.8-1.9c0-1.4-1.3-2.6-3.2-2.7c0.2,0.3,0.3,0.6,0.3,0.8c0,0.7-0.5,1.4-0.5,2.2
		C101.6,51.7,102.3,52.4,103.3,52.4z"/>
	<path class="st0" d="M66.6,20.3c-1.3,0-0.7-2.2-1.4-2.2c-0.6,0-0.7,1.2-0.7,1.6c0,1.5,1,3.1,3.1,3.1c2.3,0,3.6-1.1,5-2.6
		c0.3,1.6,1.1,4.3,3.5,4.3c1.3,0,2.2-1.1,2.3-2.3c-0.2,0.2-0.4,0.3-0.7,0.3c-0.5,0-0.6-0.7-0.6-1.3c0-1,0.3-2,0.7-2
		c0.2,0,0.4,0.2,0.4,0.9c0.1,0.6,0,1.2,0.3,1.2c0.3,0,0.6-1.1,0.6-1.8c0-1.7-0.8-3.2-2.5-3.2c-1.3,0-2.6,1.1-3.5,2.6
		c0.1-0.3,0.1-0.6,0.1-0.9c0-2.1-1.1-3.9-3.2-3.9c-1.7,0-3.2,1-3.8,2.9c0.2-0.2,0.7-0.5,1.2-0.5c0.5,0,0.7,0.4,0.7,1.2
		c0,0.5-0.1,1-0.3,1.6C67.5,20,67,20.3,66.6,20.3z M76.6,18c0.2,0,0.2,0.4,0.2,0.7c0,1.6-0.7,4.1-1.4,4.1c-0.2,0-0.3-0.2-0.3-0.8
		C75.1,20.6,76,18,76.6,18z M74.5,18.8c0.1,0,0.2,0.1,0.2,0.6c0,0.9-0.4,1.8-0.7,1.8c-0.3,0-0.4-0.4-0.5-1.4
		C73.9,19.2,74.2,18.8,74.5,18.8z M71.9,17.2c0.3,0,0.5,0.6,0.5,1.1c0,0.4,0,0.7-0.1,1.1c-0.7,0.8-1.1,1.1-1.3,1.1
		c-0.2,0-0.3-0.3-0.3-0.6C70.8,19.3,71.1,17.2,71.9,17.2z M70.6,15.3c0.2,0,0.3,0.2,0.3,0.4c0,0.8-1,5.7-1.9,5.7
		c-0.2,0-0.3-0.2-0.3-0.4C68.6,19.9,69.8,15.3,70.6,15.3z"/>
	<path class="st0" d="M63.8,32c0.9-2.1,3.4-3,5-3c0.3,0,0.6,0,0.7,0.1c-0.8,0.7-1,2-1.1,2.9c0,0.4-0.2,0.4-0.5,0.4
		c0,0.9,0.7,2.2,0.7,2.8c0,0.2-0.1,0.4-0.3,0.5c0,1.2,1.2,2,1.2,2.7c0,0.2-0.1,0.3-0.1,0.4c0.1,0.5,1.4,1.3,1.5,1.7
		c0.2,0.5,0.4,0.6,0.6,0.6c0.4,0,1.2-0.5,1.2-1c0-0.2-0.1-0.3-0.2-0.4c-0.5-0.4-0.8-1.2-1-1.7c-0.2,0-0.4-0.1-0.5-0.4
		c-0.1-0.5-0.2-1.6-0.4-2.2c-0.3-0.1-0.5-0.2-0.5-0.9c0-0.3,0.2-1.7,0.2-2.2c-0.2,0-0.4-0.1-0.4-0.4c0-0.8,0.8-1.5,1.1-2.6
		c1.5,1.1,1.9,2.2,1.9,3.2c0,0.5-0.1,1-0.2,1.5c1.1-0.6,2.8-1.4,2.8-3c0-1-0.4-2.1-3.4-2.5c0.9-0.3,2.1-0.5,3.1-0.5
		c1.7,0,2.7,0.5,2.9,1.7c0.3-0.5,0.6-1.1,0.6-1.7c0-1.3-1.1-2.1-2.5-2.1c-1.6,0-3,0.8-4.6,1.9c0.7-1.4,1.2-2.3,2-2.3
		c0.1,0,0.3,0,0.4,0.1c-0.3-1.2-1.5-2.3-2.1-2.3c-1.1,0-1.2,1.4-1.2,4.1c-0.8-1.8-2.2-3.8-3.9-3.8c-1.1,0-1.5,0.7-1.5,2
		c0,0.3,0,0.7,0.1,0.9c0.1-0.4,0.6-0.6,1.1-0.6c1.1,0,2.5,0.9,3.4,2.1c-1-0.2-2-0.4-2.9-0.4c-0.5,0-1,0.1-1.4,0.2
		c-0.8,0.3-1.8,1.5-1.8,3.2C63.7,31.4,63.7,31.7,63.8,32z"/>
	<path class="st0" d="M115.8,52.1c1.8-1.6,2.8-3.9,2.8-6c0-2-1.1-3.7-2.4-3.7c-1.2,0-1.8,0.9-1.8,1.9c0,0.6,0.2,1.2,0.7,1.7
		c-0.5-0.5-1.1-0.7-2-0.7c-0.9,0-1.7,0.7-1.7,1.8C111.4,49.7,115.7,48.6,115.8,52.1z"/>
	<path class="st0" d="M100.1,18.1c0-0.4-0.2-1.3-0.5-1.7c0,2.4-1.7,3.3-3.2,3.3c-0.4,0-0.7-0.1-1-0.2c0.3-0.3,0.6-0.7,0.6-1
		c0-0.2-0.2-0.3-0.4-0.3c-0.2,0-0.5,0.1-0.8,0.1c-0.7,0-1.3-0.3-2-0.9C92.2,18,92,18.9,92,19.7c0,1.4,0.6,2.8,1.2,2.9
		c0.3,0,0.3-1,0.8-1c0.2,0,0.8,0.4,2.1,0.4C97.9,22.1,100.1,20.9,100.1,18.1z"/>
	<path class="st0" d="M96.1,16.2c0,0.2,0.1,0.3,0.3,0.4c0.7,0.3,1.1,0.8,1.3,1.3c1.2-0.7,1.7-2.5,1.7-3.5c0-0.3,0-0.8-0.3-0.8
		c-0.2,0-0.5,0.3-0.7,0.3c-0.2,0-0.9-0.9-2.6-0.9c-1.9,0-2.7,1.4-2.7,2.6c0,0.3,0.1,0.6,0.2,0.9c0.2-0.7,0.9-1.6,2.1-1.6
		c0.4,0,1.2,0.2,1.4,0.5C96.3,15.6,96.1,15.9,96.1,16.2z"/>
	<path class="st0" d="M76.3,3.3c0,0.5,1.7,1.5,2.4,1.5c0.4,0,0.6-0.6,0.6-1.2c0-0.8-0.3-0.8-1-0.8C77.4,2.7,76.3,3,76.3,3.3z"/>
	<path class="st0" d="M79.2,13.4c0-0.2-0.1-0.4-0.2-0.6c-0.5-0.7-3.8-3.3-4.6-3.3c-0.1,0-0.1,0.1-0.1,0.2c0,0.9,3.3,5.4,3.9,5.4
		C78.8,15.1,79.2,14.2,79.2,13.4z"/>
	<path class="st0" d="M59.7,3.7c0.6,0,1.5-0.3,2.2-0.3c0.4,0,0.7,0.1,0.7,0.4c0,0.7-1.4,1.8-1.4,2.4c0,0.2,0.1,0.2,0.3,0.2
		c0.5,0,1.4-1.3,2.3-1.3c1.4,0,0.5,3,1.2,3c0.8,0,0.4-2.9,1.6-2.9c0.9,0,1.6,2,2.2,2C68.9,7.2,69,7,69,6.9c0-0.6-0.8-1.7-0.8-2.4
		c0-0.4,0.3-0.7,0.7-0.7c0.6,0,1.4,0.4,1.9,0.4c0.2,0,0.3-0.1,0.3-0.2c0-0.6-2.3-1.3-2.3-2.1c0-0.8,1.3-0.8,1.3-1.2
		c0-0.2-0.8-0.3-1.9-0.3c-1.7,0-1.5,1.4-2.8,1.4c-1.4,0-1-1.5-2.8-1.5c-1.1,0-2,0.2-2,0.4c0,0.3,1.2,0.2,1.2,1.1
		c0,0.9-2.7,1.2-2.7,1.7C59.2,3.6,59.4,3.7,59.7,3.7z"/>
	<path class="st0" d="M54.2,6.7c-0.6,0-1.4,0.2-1.7,0.5c-0.3,0.2-0.5,1-0.5,1.5c0,0.3,0.1,0.6,0.3,0.6C53,9.2,55,7.5,55,7
		C55,6.7,54.5,6.7,54.2,6.7z"/>
	<path class="st0" d="M51.8,5.2c0,0.8,5.2,0.1,5.2,0.9c0,0.9-4.5,4.8-4.5,6.1c0,0.3,0.2,0.4,0.5,0.4c1.4,0,4.9-2.6,5.9-2.6
		c0.3,0,0.4,0.4,0.4,0.8c0,0.7-0.2,1.7-0.2,2.5c0,0.6,0.2,1,0.7,1c1,0,1.9-1.7,2.5-1.7c0.8,0,0.3,4.9,1.6,4.9c1.1,0,1.5-5.3,2.2-5.3
		c0.7,0,1.2,1.5,1.9,1.5c0.8,0,0.4-2.7,1.3-2.7c0.9,0,3.6,3.2,4.7,3.2c0.4,0,0.5-0.3,0.5-0.7c0-1.4-1.9-4.6-1.9-5.6
		c0-0.3,0.1-0.3,0.4-0.3c1,0,4,1.4,5.5,1.4c0.5,0,0.8-0.3,0.8-0.6c0-1.6-4.3-4.5-4.3-5.7c0-0.1,0.1-0.2,0.2-0.3
		c0.7-0.8,3.8-1.3,3.8-2c0-0.3-0.6-0.3-0.9-0.3c-2.5,0-6,0.9-6,1.8c0,0.9,3.2,3.1,3.2,4.2c0,0.3-0.2,0.4-0.5,0.4
		c-0.9,0-2.8-1.1-3.8-1.1c-0.4,0-0.6,0.3-0.6,0.7c0,1.3,1.5,3.7,1.5,4.4c0,0.1,0,0.2-0.1,0.2c-0.5,0-2.7-2.6-3.5-2.6
		c-0.3,0-0.3,0.4-0.3,1v0.9c0,0.6,0,1-0.3,1c-0.7,0-1-1.9-1.7-1.9c-0.7,0-0.8,3.4-1.5,3.4c-0.8,0-0.1-3.8-0.8-3.8
		c-0.8,0-1.7,2.5-2.3,2.5c-0.2,0-0.3-0.2-0.3-0.4c0-0.8,0.4-2,0.4-2.7c0-0.4-0.1-0.6-0.4-0.6c-0.8,0-2.6,1.3-3.3,1.3
		c-0.1,0-0.2-0.1-0.2-0.2c0-0.6,2.9-2.6,2.9-3.5c0-0.9-4-0.3-4-1.3C56.1,2.9,59,2,59,1.1C59,0.4,55.6,0,54.3,0
		c-1.6,0-2.4,0.2-2.4,0.6c0,0.7,3.5,0.9,3.5,1.5C55.4,2.7,51.8,4.3,51.8,5.2z"/>
	<path class="st0" d="M111.7,3.8c-1.3,0-3.8,0.6-3.8,0.9c0,0.4,4.5,0.9,4.5,2.8c0,1.2-1,1.3-1.4,1.3c-1.5,0-2.3-1.5-2.7-1.5
		c-0.1,0-0.2,0.1-0.2,0.2c0,0.2,0.2,0.9,0.2,1.5c0,1.7-1.9,1.9-1.9,2.2c0,0.1,0.1,0.2,0.3,0.2c1.4,0.2,2.8,0.3,4.1,0.3
		c4.8,0,8.7-1.5,8.7-5.6c0-2.3-0.7-3-0.7-4.1c0-0.4,0.3-1.1,1-1.6c-1.3,0-1.5-0.4-2.4-0.4c-1.1,0-1.8,0.7-1.8,1.8
		c0,0.4,0.1,0.9,0.1,1.7c0,0.9-0.2,1.8-1,1.8c-0.8,0-1.1-0.5-1.1-1.1c0-1.1,0.6-1.8,0.6-2.5c0-1.2-1.5-1.6-3.2-1.6
		c-1.9,0-4.1,0.5-4.1,0.8C106.9,1.5,109.7,1.3,111.7,3.8z M117.3,1c0.4,0,0.7,0.3,0.7,0.7c0,0.4-0.3,0.7-0.7,0.7
		c-0.4,0-0.7-0.3-0.7-0.7C116.7,1.3,116.9,1,117.3,1z M116.8,4.8c0.7,0.2,1.1,0.9,1.1,1.7c0,1.4-1.3,3-4.9,3c-0.3,0-0.6,0-1,0
		C115.1,9,116.8,7.2,116.8,4.8z"/>
	<path class="st0" d="M119,36.6c-1.2,0-2,2.2-3.2,2.3c0.8-3.2,3.9-4.8,3.9-7.7c0-3.3-2.8-4.5-4-5.3c-2-2.8-3.4-5-6.5-5
		c-1.3,0-2.2,0.2-3.1,0.2c-1.8,0-2.3-0.7-2.5-0.7c0,0-0.1,0-0.1,0.1c0,2.5,1.3,8.1,7,8.1c3,0,4.3-1.2,5-1.2c0.8,0,3.2,0.8,3.2,3.6
		c0,1.6-1.2,3.1-1.7,3.1c-0.4,0-0.9-0.7-0.9-1.5c0-0.8,0.4-2.3,0.4-3.3c0-0.3-0.1-0.5-0.3-0.5c-0.5,0-2.7,1.4-2.7,3.2
		c0,1.6,2.3,2.5,3.2,3c-0.9,1.4-1.4,2.3-1.8,3.7c0-1-0.9-3-1.2-3.8c-1.4-4-2-4.7-4.9-5c0.4,1.6,5.6,5.4,5.6,9.3c0,0.2,0,0.6-0.1,0.7
		c-1.6-4.6-4.2-5.6-5.2-6.7c-1.6-1.7-0.7-3.4-3.2-4.4c0.2,0.2,0.2,0.5,0.2,0.8c0,0.8-0.5,1.9-0.5,2.6c0,2.7,3.2,1.9,5.1,3.4
		c1.8,1.5,2.9,3.9,3.6,6.6c0.7-1.2,1.2-2.6,2.5-2.6c0.8,0,1.1,1.1,1.1,1.8c0,0.2,0,0.3,0,0.4c1.3-1.1,1.9-2.8,1.9-4
		C119.9,37.1,119.6,36.6,119,36.6z M114,26.2c-0.3,0-0.8-0.1-1.1-0.1c-0.9,0-1.5,1.2-2,1.2c-0.2,0-0.2-0.2-0.2-0.3
		c0-0.5,0.9-1.1,0.9-1.4c0-0.2-0.4-0.3-0.6-0.3c-0.9,0-2.2,1.2-2.9,1.2c-0.1,0-0.3-0.1-0.3-0.2c0-0.3,0.9-0.8,0.9-1.2
		c0-0.3-0.4-0.4-0.7-0.4c-0.4,0-1.3,0.2-1.9,0.2c-0.3,0-0.6-0.1-0.6-0.3c0-0.5,1.7-0.2,1.7-0.8c0-0.3-0.5-0.9-0.5-1.2
		c0-0.1,0.1-0.2,0.3-0.2c0.6,0,1.2,1.7,2,1.7c0.3,0,0.4-0.2,0.4-0.6c0-0.3-0.1-0.5-0.1-0.8c0-0.3,0.1-0.4,0.2-0.4
		c0.4,0,0.8,2.4,2.1,2.4c0.5,0,0.2-1.4,0.6-1.4c0.3,0,0.4,0.4,0.4,0.7c0.1,1.6,1.5,1.6,1.5,2.2C114.3,26.1,114.2,26.2,114,26.2z"/>
	<path class="st0" d="M91.7,8.2c0,0.4,1.8,0.1,1.8,0.7c0,0.6-1.3,2.4-1.3,2.9c0,0.1,0,0.1,0.1,0.1c0.5,0,2-1.7,2.4-1.7
		c0.4,0,0.5,1,0.6,1.6c0.1,0.3,0.1,0.3,0.2,0.3c0.3,0,0.8-1.2,1.2-1.2c0.5,0,1.8,1.4,4.1,1.4c3.2,0,6.2-2.2,6.2-6.2
		c0-3.8-2.7-6.1-6.4-6.1c-1.8,0-3.1,0.9-3.7,0.9c-0.4,0-1-1-1.4-1c-0.1,0-0.3,0.3-0.3,0.7c0,0.3,0,1.2-0.3,1.2
		c-0.6,0-3.1-1.8-3.1-1.2c0,0.6,1.6,2.5,1.6,2.9c0,0.5-1.6,0.9-1.6,1.2c0,0.6,1.7,0.7,1.7,1.4C93.5,7.1,91.7,7.7,91.7,8.2z
		 M100.5,1.4c2.6,0,4.2,1.8,4.2,4.8c0,3.8-2.7,4.7-4.1,4.7c-1.8,0-3.1-0.9-3.1-1.4c0-0.2,0.2-0.4,0.4-0.4c0.6,0,1.8,0.9,2.3,0.9
		c0.1,0,0.2-0.1,0.2-0.2c0-0.5-0.4-1.3-0.4-1.7c0-0.1,0.1-0.2,0.2-0.2c0.7,0,1.8,0.3,2.3,0.3c0.2,0,0.2-0.1,0.2-0.2
		c0-0.6-1.7-1.7-1.7-2.1c0-0.3,2.1-0.8,2.1-1.3c0-0.5-2.9-0.2-2.9-0.7c0-0.4,0.6-1,0.6-1.3c0-0.1-0.1-0.2-0.3-0.2
		c-0.2,0-1.5,0.5-2,0.5c-0.3,0-0.6-0.1-0.6-0.4C97.9,2.1,98.9,1.4,100.5,1.4z M94.4,4.8c0-0.1,0.1-0.1,0.1-0.1
		c0.3,0,0.8,0.1,1.2,0.1c0.3,0,0.4-1.5,0.7-1.5c0.2,0,0.5,1.4,0.8,1.4c0.3,0,1-0.4,1.2-0.4c0.1,0,0.1,0,0.1,0.1
		c0,0.2-0.7,0.9-0.7,1.1c0,0.2,1.5,0.5,1.5,0.7c0,0.3-1.5,0.2-1.5,0.5c0,0.2,0.6,0.9,0.6,1.2c0,0.1,0,0.1-0.1,0.1
		c-0.2,0-1-0.4-1.3-0.4c-0.3,0-0.8,1.1-1,1.1c-0.1,0-0.1-0.1-0.1-0.2l-0.1-1.1c0-0.1-0.1-0.2-0.2-0.2c-0.3,0-0.9,0-1.1,0
		c-0.1,0-0.2,0-0.2-0.1c0-0.2,1.1-0.9,1.1-1.1C95.4,5.6,94.4,5.1,94.4,4.8z"/>
	<path class="st0" d="M84,55.5c-0.1-0.5-0.3-0.9-0.8-0.9c-0.4,0-0.7,0.3-0.7,0.7c0,0.4,0.3,0.8,0.3,1.2c0,0.2-0.1,0.5-0.3,0.8
		c-0.3-0.5-1.1-0.8-1.5-0.8c-2.7,0-1.7,3.9-4.6,3.9c-1.2,0-1.3-0.2-1.8-0.2c-0.2,0-0.3,0.1-0.3,0.2c0,0.7,1,2.4,3.7,2.4
		c2.7,0,5.3-1.7,5.3-3.7c0-0.3-0.1-0.7-0.2-1.1c0.1-0.2,0.4-0.3,0.6-0.3c0.4,0,0.7,0.5,1.1,0.5c0.4,0,0.7-0.3,0.7-0.7
		c0-0.3-0.2-0.6-0.5-0.7c0.2-0.2,0.4-0.4,0.4-0.7c0-0.4-0.3-0.9-0.8-0.9C84.3,55.2,84.1,55.3,84,55.5z"/>
	<path class="st0" d="M68.3,49.2c-0.9,0-2,0.5-2,1.2c0,0.5,0.2,0.8,1.9,1.2c2.1,0.5,3.2,1.7,3.4,3c0.2,1.3,0.5,2.3,1,2.9
		c0.7,0.7,2,1.4,3.1,1.4c0.9,0,1.7-0.3,1.7-1.2c0-0.9-1.3-3.1-3.2-3.1c-0.2,0-0.4,0-0.7,0c-0.2,0-0.6-0.1-0.8-0.2
		c-0.4-0.4-0.6-2.3-1.3-3.5C70.6,49.6,69.6,49.2,68.3,49.2z M74.3,55.6c0.7,0,1.8,0.8,1.8,1.5c0,0.2-0.1,0.4-0.5,0.4
		c-0.8,0-2-0.8-2-1.3C73.7,55.8,74.1,55.6,74.3,55.6z"/>
	<path class="st0" d="M81.5,48.4c0,0.7-1.2,1.4-2.9,1.4c-1.9,0-3.2-0.3-4.3-1.5c-0.3-0.3-0.4-0.6-0.8-0.6c-0.4,0-0.6,0.8-0.6,1.5
		c0,2.6,2.5,5.6,5.9,5.6c4.3,0,5.9-3,5.9-5.3c0-1.4-0.3-2.7-2.7-3.6c-1.2-0.4-1.7-1.2-2-2.5c-0.6,0.8-0.9,1.6-0.9,2
		C79.1,47.2,81.5,47.2,81.5,48.4z M82.7,49.6c0.2,0,0.4,0.2,0.4,0.5c0,1.4-1.5,3-2.5,3c-0.4,0-0.4-0.2-0.4-0.5c0-0.2,0.1-0.7,0.1-1
		c0-0.9,0.4-0.9,1.3-1.3C82.3,50,82.5,49.6,82.7,49.6z"/>
	<path class="st0" d="M77.4,37.8c0-1.1,1.9-2,1.9-3.8c0-1.1-1-2.3-2.4-3.1c0.2,0.4,0.4,1.1,0.4,1.4c0,2.1-4,3-4,4.7
		c0,2.1,3.9,3,3.9,4c0,0.3-0.2,0.5-0.6,0.5c-0.5,0-1.2-0.4-2-1.1c-0.8,0.8-1.4,1.9-1.4,3.2c0,2.6,2.7,4.8,5.4,4.8
		c0.4,0,0.9-0.1,1.3-0.2c-1.4-0.2-2.4-1.3-2.4-2.6c0-1.7,1.9-3.3,1.9-4.6C79.4,39.4,77.4,39.2,77.4,37.8z"/>
	<path class="st0" d="M57.9,50c0.1,0.9,1,1.6,1.9,1.5c0.3,0,0.7-0.1,0.9-0.3c0.2,0.8,0.9,1.4,1.9,1.3c1-0.1,1.6-0.9,1.5-1.9
		c0-0.3-0.1-0.4-0.2-0.6c0,0,0.1,0,0.2,0c1-0.2,1.6-0.9,1.5-1.9c-0.1-0.9-1-1.7-1.8-1.5c-0.3,0-0.7,0.2-0.9,0.4
		c-0.2-0.8-1-1.5-2-1.3c-0.9,0.2-1.5,0.9-1.4,1.9c0,0.2,0.1,0.3,0.1,0.5c0,0-0.2,0-0.3,0C58.7,48.2,57.8,49,57.9,50z M61.8,48.1
		c0.6-0.1,1,0.3,1.1,0.9c0.1,0.6-0.3,1-0.9,1.1c-0.6,0.1-1-0.3-1.1-0.9C60.8,48.7,61.2,48.2,61.8,48.1z"/>
</g>
</svg>
