<svg xmlns="http://www.w3.org/2000/svg" xmlns:xlink="http://www.w3.org/1999/xlink" viewBox="0 0 400 520" xmlns:v="https://vecta.io/nano"><style><![CDATA[.Bh{fill:#003261}.Bi{fill:#fa9960}.Bj{fill:#ffa347}.Bk{fill:#f46700}.Bl{fill:#469df0}.Bm{fill:#00448c}.Bn{fill:#d2e3fc}]]></style><path d="M65.4 410.4s-42.6 10.8-56.1-30c-17.6-52.8 18.5-92.9 46.3-85.5 60.4 16.3 45.8-163.2 142.8-126.6 27.3 10.3 100.9-50.9 121.4 47.2 4.9 23.3 22.2 25.9 47.3 40.7 49.2 29 26.7 154.6-8.4 155.1-35.3.6-293.3-.9-293.3-.9z" fill="#ebf2f9"/><path d="M253.8 273.1l10.7 127.7s1.1 7.7-4.6 7.8h-47.1s7.1-1.6 7-5.2c-.1-4.3-12.6-131.5-12.6-131.5l46.6 1.2z" class="Bk"/><path d="M256.8 406.3h-47.1c.7 0 6.1-.1 6.9-4.2.1-.3.1-.7.1-1 0-.8-.4-5.9-1.2-13.6l-2.4-25.9-9-92 46.5 1.2 7.6 90.8 1.5 17.7 1.3 15.9.3 3.3c.1 0 1.4 7.7-4.5 7.8z" fill="#ff9841"/><path d="M366.8 203.6l-26.2 105.1-3.5 14.4-12.2 48.9H98.4l45-168.4z" class="Bj"/><path d="M366.8 203.6l3.6 1.2-40.7 170.9-4.8-3.7z" fill="#ff9841"/><path d="M329.7 375.7h-225l-6.3-3.7h226.5z" class="Bk"/><path d="M201.9 406.3h48.7v2.3h-48.7z" class="Bj"/><g class="Bk"><path d="M260.1 375.6l-.3 3.6v.1s-31.7 3-44.3 8.1l-1.1-11.8h45.7z"/><path d="M256.8 406.3h-47.1c.7 0 6.1-.1 6.9-4.2 3.7.2 24.3.8 44.5-6.9l.3 3.3s1.3 7.7-4.6 7.8zm76-67.3l-8.2 33.1h-76.2c32.2-10.2 47.5-25.2 53.6-33.1h30.8z" opacity=".4"/></g><path d="M143.4 203.6L107.2 339h-.1L143 203.6z" fill="#7ed9f0"/><path d="M365.1 205.8L332.8 339H110l36.1-133.2z" fill="#ebf3fa"/><path d="M107.2 339h2.8l-.6 2-2.7-.3zm260-135.4v2.2h-2.1l.6-2.2z" class="Bj"/><path d="M178.9 330.3h87.5l29.4-117.7h-87.6z" fill="#fff"/><g opacity=".5" class="Bl"><path d="M199.2 302.7h58c.7 0 1.5-.6 1.6-1.3l.1-.5c.2-.7-.3-1.3-1-1.3h-58c-.7 0-1.5.6-1.6 1.3l-.1.5c-.1.7.3 1.3 1 1.3z"/><use xlink:href="#B"/><use xlink:href="#B" x="-1.8" y="7.2"/><use xlink:href="#B" x="-3.5" y="13.9"/><use xlink:href="#B" x="-8.6" y="34.4"/><path d="M197.5 309.7h58c.7 0 1.5-.6 1.6-1.3l.1-.5c.2-.7-.3-1.3-1-1.3h-58c-.7 0-1.5.6-1.6 1.3l-.1.5c-.2.7.2 1.3 1 1.3z"/></g><g opacity=".5" class="Bl"><path d="M207.5 269h58c.7 0 1.5-.6 1.6-1.3l.1-.5c.2-.7-.3-1.3-1-1.3h-58c-.7 0-1.5.6-1.6 1.3l-.1.5c-.2.8.3 1.3 1 1.3zm-2.2 6.9h58c.7 0 1.5-.6 1.6-1.3l.1-.5c.2-.7-.3-1.3-1-1.3h-58c-.7 0-1.5.6-1.6 1.3l-.1.5c-.1.7.3 1.3 1 1.3z"/></g><path d="M95.3 404.9l4.1-.1s-6.1-6.8-8-10.2l-5.2-9.5-6.8 1.7L88 399l7.3 5.9z" class="Bi"/><path d="M57.1 219.1c-1.6-.9-3.4-1-4.7-.9.3-.3 1-.5 1-.5-.8-.1-2.6.7-2.6.7-11.3-4.3-13.1 12.3-12.8 16.1.2 3.9-3.8 5.1-9.7 8.2-11.2 5.8-12.2 13.6-12.2 13.6.1.1.2.1.3.2.6-.9 1.7-2.7 2.7-3 0 .1-1.1 2.4-1.6 3.8 3.3 2.5 9.5 8.1 13.8 12 0-.8 0-1.9.3-2.4l.5 3.2 3.9 3.6c-.3-3.1 14.1-19.6 21.6-24.5 1.8-2.7 2.5-7.4 2.5-7.8-.3 3.8-1 5.9-1.5 7.1 6.3-5.9 2.6-27-1.5-29.4z" class="Bh"/><path d="M57.1 249.4s-3.6 1.9-6.4 1.2c-2.6-.7-4.3-4.1-4.2-4.1 1.1-.2 1.4-1.7 1.4-8.2l.5.1 8.3 1.7-.2 5.1c0 2 .2 4 .6 4.2z" class="Bi"/><path d="M47.7 221.9s4.1-4.4 9.3-.2c0-.1-3-.6-9.3.2z" fill="#ff7a70"/><path d="M56.7 240.1l-.2 5.1c-4.7-.1-7.1-4.4-8.1-6.7l8.3 1.6z" fill="#eb8d5a"/><path d="M47.5 237.5s-2.4-3.9-3-7.2c-.4-2.4.8-11.1 9.6-9.8a12.69 12.69 0 0 0 5 1.9c1.9 1.3 4.7 4.1 1.6 11.7l-.8 2.6-12.4.8z" class="Bh"/><path d="M90 391.2l-4.4.1-4.8.1s-11.1-12.3-17.3-32c-.1-.5-.3-.9-.5-1.4-3.4-9.9-10.4-22.3-14.1-33.6-.6-1.8-1.1-3.5-1.6-5.1-.2-.5-.3-1-.4-1.5-2.7-9.5-3.5-15.7-4.3-22.4l23.7.2c0 .1 7.4 45.6 23.7 95.6z" fill="#2b478b"/><path d="M65.7 280.4c.3 12.7 1.9 18.2 1.9 18.2s-11.5 5.8-25.1 1.5c-.2-.1.9-52.6 4.7-54.1.9 1.1 3.5 2.2 5.9 2.1 2.7-.1 3.6-1.2 3.5-2.5 2.8 1.7 8.6 16.6 9.1 34.8z" fill="#e3f0fd"/><path d="M58.3 242.4s-11 .2-11.1-6.7c0-6.9-1.4-11.5 5.6-11.9 7.1-.4 8.4 2.2 9 4.5s-.6 13.9-3.5 14.1z" class="Bi"/><path d="M61.5 224.5c-1.7-2.1-3-1.6-3.7-1-2.4-3.6-9.9 1.6-9.9 1.6-3.7 3.5-4.3 7.8-4.3 7.8s2 1.2 6.7.1c3.7-.9 6.3-6.1 7.3-8.3.7.6 2 1.9 2.5 3.3.6 1.8.8 5.4 1.8 5.2-.1-.1 2.2-5.6-.4-8.7z" class="Bh"/><path d="M102.7 253.8s1.6-5.6 7.7-4.8c.7.2 2.8 1 1.5 3.3-1 1.6-1.4.8-2.9 3s-3.2 2.7-5.1 2.4l-1.2-3.9zM50 404.5l-1.1-5.6.2-12.7h-7.7l2.9 12.1c.1.6.2 2.8-.6 5.1 0 0-.7 3.4 2.6 3.4s4.1-.3 3.7-2.3z" class="Bi"/><path d="M43.7 403.3s-.7 3.6-.3 5.2h3.4 3.6s0-3.9-.6-5.3c0 .1-2.4 3.6-6.1.1zm55.7 1.5c-1.7 0-3.3-.6-4.8-2.3-4.5-5.1-7.1-5.7-7.9-5.7-.8 1.6-1.6 3.3-.5 5.3l1.6 6.3h1.7v-6c1.1.3 2.3.9 2.8 1.9 1.2 2.4 2.1 4.1 3.2 4.1h7.8s-.1-1.9-3.9-3.6z" fill="#e05344"/><path d="M102.7 253.8s-7.2 4.1-9.8 5.2l-7.3 3.4c-1.5.7-3.3.3-4.4-1-3.9-4.6-14.1-14.5-24.6-15.8h0-.1s6.4 15.8 6.6 19 .8 52.2.8 52.2-.4 2.3 3.9 1.3c4.3-.9 5.4-1.9 5.4-1.9s-4.1-30.3-3-40.8c.2-2.1 0-4.4-.4-6.8 6.4 3.9 14 5.6 14 5.6s5.7-2.5 13.4-8.1c2.4-1.8 6.7-8.6 6.7-8.6l-1.2-3.7z" class="Bj"/><path d="M85.6 391.4l-4.8.1s-11.1-12.3-17.3-32c-.1-.5-.3-.9-.5-1.4-3.4-9.9-10.4-22.3-14.1-33.6-.6-1.8-1.1-3.5-1.6-5.1-.2-.5-.3-1-.4-1.5l3.9-3s11.8 19.2 15.5 37.2c3.2 15.7 16 34.6 19.3 39.3z" fill="#233862"/><path d="M73 272.6l-.2.7-12.4-4s-.2-.2-.1-.4c.1-.3.3-.3.3-.3l12.4 4z" class="Bh"/><path d="M51.2 353.8c.1 8.8-.4 28.9-1.5 37.3h-4.2H42c-2.9-14.5-4.9-26.5-6.4-36.9l-3.1-22c-.8-6.3-1.4-11.6-1.6-16.1 0-.7-.1-1.4-.1-2v-1.9l23.1-2.3c-.3 15.3-2.7 38.8-2.7 43.9z" fill="#2b478b"/><path d="M45.5 391.1H42c-2.9-14.5-4.9-26.5-6.4-36.9l-3.1-22c-.8-6.3-1.4-11.6-1.6-16.1l8.5 5S34 323 36 337.5c2 14.4 6.6 51.6 9.5 53.6z" fill="#233862"/><path d="M46.6 316s-1.6 5.9-7.3 5.1c-5.6-.8-13.7-4.1-13.7-4.1l5.4-17.6c3.6-12.1 8.1-27.7 10.2-37.6.6-2.8 1-5.1 1.1-6.7l4.7-9s6.9 15.6 7.3 19.6c.5 3.9-7.7 50.3-7.7 50.3z" class="Bj"/><path d="M46.3 273.9c-.3 6.4-1.8 18.8-15.2 25.4 0 0-.1 0-.1.1 3.6-12.1 8.1-27.7 10.2-37.6 2.6 3.7 5.3 8.6 5.1 12.1z" opacity=".4" class="Bk"/><path d="M70.6 270.4c0 .8-2.2 6.1-6.1 9.3-.8.6-1.4.9-1.8 1-6.3 2.2-11.8 3.3-16.3 3.8v-7.1l15.1-.9c.5-.7 1-1.8 1.2-2.8.3-1.9 1.4-3.4 4.1-3.7 2.6-.3 3.8-.4 3.8.4z" class="Bi"/><path d="M108 247.2l12.5 8.1c.2.1.3.5.2.6l-6 20.4c-.1.3-.4.3-.6.2l-12.2-9.1c-.1-.1-.2-.2-.2-.4l5.5-19.5c.2-.3.6-.5.8-.3z" class="Bh"/><path d="M107.6 246.9l12.6 8.2c.2.1.2.3.2.5l-6 20.4c-.1.3-.4.4-.7.2l-12.1-9.1c-.1-.1-.2-.3-.2-.5l5.5-19.5c.1-.2.5-.4.7-.2z" class="Bm"/><path d="M107.5 247.8l12.3 7.8-5.6 18-11.5-8.4z" fill="#fff"/><circle cx="107.1" cy="269.7" r=".5" class="Bh"/><path d="M111.7 270.8l-5.9-4.2 4-16.5 6 4.2z" fill="#fff"/><g opacity=".5" class="Bl"><path d="M112.9 261.2l-3.9-2.7s-.1-.1 0-.2v-.1c0-.1.1-.2.1-.1l3.9 2.7s.1.1 0 .2v.1l-.1.1zm.7-2.9l-3.9-2.7s-.1-.1 0-.2v-.1c0-.1.1-.2.1-.1l3.9 2.7s.1.1 0 .2v.1l-.1.1zm-.3 1l-3.9-2.7s-.1-.1 0-.2v-.1c0-.1.1-.2.1-.1l3.9 2.7s.1.1 0 .2v.1s0 .1-.1.1zm-.2.9l-3.9-2.7s-.1-.1 0-.2v-.1c0-.1.1-.2.1-.1l3.9 2.7s.1.1 0 .2v.1c0 .1-.1.1-.1.1zm-.7 2.9l-3.9-2.7s-.1-.1 0-.2v-.1c0-.1.1-.2.1-.1l3.9 2.7s.1.1 0 .2v.1c0 .1-.1.1-.1.1zm.2-1l-3.9-2.7s-.1-.1 0-.2v-.1c0-.1.1-.2.1-.1l3.9 2.7s.1.1 0 .2v.1c0 .1 0 .2-.1.1zm-1 4l-1-.7c-.1 0-.1-.2-.1-.3h0c0-.1.1-.2.2-.1l1 .7c.1 0 .1.2.1.3h0s-.1.1-.2.1zm-2.9-2.1l-1-.7c-.1 0-.1-.2-.1-.3h0c0-.1.1-.2.2-.1l1 .7c.1 0 .1.2.1.3h0c-.1.1-.1.2-.2.1z"/></g><g fill="#2c6baa"><path d="M111.4 268.6s-.1 0 0 0l-1.4-1c-.1-.1-.1-.2-.1-.4l.2-.8c0-.1.1-.2.2-.2h.1l1.4 1c.1.1.1.2.1.4l-.2.8c-.2.1-.2.2-.3.2zm-1.2-2.4c-.1 0-.1.1-.1.2l-.2.8c0 .1 0 .3.1.4l1.4 1c.1 0 .1-.1.1-.2l.2-.8c0-.1 0-.3-.1-.4l-1.4-1h0zm-1.7.4c-.1 0-.1 0 0 0l-1.4-1c-.1-.1-.1-.2-.1-.4l.2-.8c0-.1.1-.2.2-.2h.1l1.4 1c.1.1.1.2.1.4l-.2.8c-.2.1-.3.2-.3.2zm-1.2-2.4c-.1 0-.1.1-.1.2l-.2.8c0 .1 0 .3.1.4l1.4 1c.1 0 .1-.1.1-.2l.2-.8c0-.1 0-.3-.1-.4l-1.4-1h0zm3-11.8c.1-.3.2-.5.4-.4.1.1.1.2.2.3l-.1.1c0-.1 0-.2-.1-.2-.1-.1-.2 0-.2.2s0 .4.1.4h.2v.2c-.1.1-.2.1-.3 0-.3 0-.3-.3-.2-.6z"/><path d="M110.8 252.8c.1-.3.2-.5.4-.4s.2.4.1.7-.2.5-.4.4c-.1-.1-.2-.4-.1-.7zm.4.3c0-.2 0-.4-.1-.4-.1-.1-.2 0-.2.2s0 .4.1.4c.1.1.2 0 .2-.2z"/><path d="M111.6 252.7l.1.1.1.8.2-.6.1.1-.3 1-.1-.1-.1-.8-.2.7-.1-.1.3-1.1z"/><path d="M112.2 253.4l-.2-.1.1-.2.4.3-.1.2-.2-.1-.2.8-.1-.1.3-.8z"/><path d="M112.6 253.4l.2.2c.1 0 .1.1.1.2v.3c0 .2-.1.2-.2.2v.5l-.1-.1v-.4l-.1-.1-.1.3-.1-.1.3-1zm.1.7c.1 0 .1 0 .1-.1s0-.2-.1-.2l-.1-.1-.1.3.2.1zm.6-.2l.1.1v1.2l-.1-.1v-.3l-.2-.1-.1.2-.1-.1.4-.9zm0 .7v-.4l-.2.3.2.1z"/><path d="M113.5 254.7c.1-.3.2-.5.4-.4.1.1.1.2.2.3l-.1.1c0-.1 0-.2-.1-.2-.1-.1-.2 0-.2.2s0 .4.1.4h.2v.2c-.1.1-.2.1-.3 0-.2 0-.3-.3-.2-.6z"/><path d="M114.3 254.8l-.2-.1.1-.2.4.3-.1.2-.2-.1-.2.8-.1-.1.3-.8z"/></g><g fill="#095da5"><path d="M111.8 267.2c-.2.1-.5.1-.7.2v-.1s0-.1 0 0v-.1s0-.1 0 0v.1s0 .1-.1.1v-.1h-.1c0-.1 0 0-.1 0v-.1s-.1.1-.1.2v.1s0 .1-.1 0v-.1c0-.1.2-.4.1-.4 0 .1-.1.2-.1.3v.1c0 .1-.1.2-.2.2 0-.2.1-.4.1-.5s0-.1.1-.2.1-.2.1-.4c-.1.2-.1.4-.2.6 0 .2-.1.4-.1.6.1 0 .1-.1.2-.2 0 0 .1 0 .1-.1v.1s.1 0 .1-.1c0 0 .1 0 .1-.1v-.1.1h.1.1v.1h-.1v.1h.1v-.1c.3 0 .5-.1.7-.2h0zm-1 0s0 .1 0 0c0 .1 0 .1 0 0 0 .1 0 0 0 0zm-.1.1s0 .1 0 0c0 .1 0 .1 0 0 0 .1 0 0 0 0zm-2.7-3.1l-.3.8c0 .1-.1.3-.1.4s-.1.3-.2.2v-.1l.1-.1v-.1.1.1c0 .1 0 .1.1.1 0 0 .1 0 .1-.1s.1-.1.1-.2c.1-.2.1-.3.2-.5-.1-.2 0-.4 0-.6 0 0 0-.1 0 0zm-.5 1.1c0 .1 0 .1 0 0 0 .1 0 .1 0 0 0 .1 0 .1 0 0-.1.1-.1.1 0 0-.1.1-.1.1 0 0-.1.1-.1.1 0 0z"/><path d="M108.4 265.5c0-.1 0-.1-.1-.1v.1h-.1l.1-.1s0-.1 0 0v.1h-.1l-.1.1v-.1s.1-.1 0-.2v.1.1-.1-.1s-.1.1-.1.2v.1l-.1.1v-.1-.1-.1s0-.1.1-.1c-.1.1-.1.3-.1.5v.1s.1 0 .1-.1h.1.1c.1-.2.1-.2.2-.3-.1.1-.1.1 0 0 0 .1 0 .1 0 0 0 .1 0 0 0 0zm-.5-.1s0-.1.1-.1c0 .1 0 .1-.1.1.1 0 0 .1 0 0 0 .1 0 .1 0 0 0 .1 0 .1 0 0 0 .1 0 .1 0 0zm.2 0s-.1 0 0 0c-.1.1-.1.1 0 0-.1 0-.1 0 0 0zm.2 0s0 .1 0 0zm.1.1s0-.1 0 0z"/></g><path d="M73.9 273.3l-.9-.7-.2.8z" class="Bh"/><path d="M47.2 246.1s-11.5.8-14.3 6.9-3.6 26.6-.1 32.6c0 0 4.8 1.4 13.4-.2.1 0 .2 0 .3-.1 0 0 2.7-6.7.3-8 0 0-7.2.4-6.5-2 .8-2.4 6.9-29.2 6.9-29.2z" class="Bj"/><g class="Bh"><use xlink:href="#C"/><use xlink:href="#C" x="-17.8"/></g><path d="M316.9 341.5l8.2 2.8s5.2-10.6 6.5-12c1.4-1.6 2.5-14.3 3.1-25.7.6-10 .8-19 .8-19s-2.8.6-4.6 5.3c-3.1 8.1-3.1 23.8-4.8 31.9-1 4.7-7.5 16.1-9.2 16.7z" class="Bn"/><path d="M325.1 344.3c3.1-3.6 5.2-10.6 6.5-12 1.4-1.6 8.3-11 1.9-25.6-3.1 9.3-.5 14.3-1.5 19.8-1.1 5.4-6.7 14.2-6.9 17.8z" fill="#b7d3f3"/><path d="M348.7 405s.8.7 2.6.7c2.1 0 2.6-.7 2.6-.7v-28.8h-5.1V405z" class="Bh"/><g fill="#94c687"><path d="M320.3 364.5l.7 3.6c.6 2.1 1.4 3.8 2.1 5.1 2.8 4.7 8.1 9.9 20.8 11.6.6.1 1.2.2 1.9.2l3.7.3h.2.3c3.7-.1 7.8-.8 12.4-1.9 9.4-2.2 15.6-6.9 19.5-12.5l.9-1.5c.8-1.3 1.4-2.6 2-3.9 2.2-5.1 3-10.5 3.1-15.5-.1-4.8-.8-9.1-1.6-12.2-.6-2.4-1.6-4.7-3-6.7-.4-.5-.7-1-1.1-1.5-1.3-1.6-2.8-2.9-4.7-3.9-4.5-2.6-19.4-5.1-31.9 1.5-23.1 12.3-26.6 27.4-25.3 37.3z"/><path d="M324.2 374.8c3.7 4.3 7 8.7 19.7 10.1.6.1 1.2.1 1.9.2 1.2.1 2.4.2 3.7.2h.2.3c3.7-.1 7.8-.8 12.4-1.9 9.4-2.2 15.6-6.9 19.5-12.5l.9-1.5c-7.2-1.7-22.5-4.7-37.7-3.5l-24.1 2c-.2.3 2 5.5 3.2 6.9z"/></g><path d="M367.6 299.5c-.1-.5-.2-1-.4-1.4-1.8-6.4-4.8-11.1-9.4-11.8-.6 1.6-6.3 4.2-11.2 4-.5 0-1.4-.8-1.4-.8-3.9-.6-5.8-2.7-5.6-2.9-.2 0-4.1 1.1-4.1 1.1-3.4 15-3.8 23.4.3 44.8 1.5 7.8-.8 12.1-.3 12.6.9.9 10.8 1.2 18.7 1.5 1 0 1.9.1 2.8.1l10.6.3c.4-.5 1.1-5 1.6-11.4.9-10.4 1.1-25.4-1.6-36.1z" class="Bn"/><path d="M355.1 286.9l-4.7 3.9-7.2-1.1.7-6.3.5-3.9 8.6-3.4.3-.1v.1 1c-.2 6 1.8 9.8 1.8 9.8z" class="Bi"/><path d="M335.3 367.8c-24.1 1.7-31.6 1.4-32.4 2.6-5.3 7.3-5.9 8.5-16.6 23.1l-7.4 9.9h-11.3s12.1-23.2 21.9-38.9c3.8-6.2 7.3-11.2 9.5-13.2 7.5-6.9 37.5-6.7 37.5-6.7s26-.6 28.1 3.2c.3 1-11.2 18.7-29.3 20z" class="Bm"/><path d="M335.3 367.8c-24.1 1.7-31.6 1.4-32.4 2.6-5.3 7.3-5.9 8.5-16.6 23.1l3.2-28.9c3.8-6.2 7.3-11.2 9.5-13.2 7.5-6.9 37.5-6.7 37.5-6.7s26-.6 28.1 3.2c.3.9-11.2 18.6-29.3 19.9z" class="Bh"/><path d="M349.1 290.3l-4.7-.5s-.6.1-.5.9c.1.7 1.7 2.8 2.3 2.9.5 0 4.2-1.9 2.9-3.3z" fill="#095da7"/><path d="M366.7 351.9s-.8 14.6-18.9 15.9c-24.1 1.7-29 1.2-30.6 2.6-7.7 7.2-2.6 8.8-20.8 33H285s13.9-46.1 20.2-51.6c7.7-6.7 38.9-7.2 38.9-7.2s20.8-1.6 22.9 2.3c.4.9-.3 5-.3 5z" class="Bm"/><g fill="#a8d29f"><path d="M343.9 384.8c0 .1 2.5.4 3.9.5h1.7.1.4c3.7-.1 7.8-.8 12.4-1.9 12.3-2.9 19.1-9.9 22.5-17.9 2.2-5.1 3-10.5 3.1-15.5-.1-4.8-.8-9.1-1.6-12.2-.6-2.4-1.6-4.7-3-6.7l-.9-1.2a1.38 1.38 0 0 1-.3-.4c-8.5 9.1-34.2 37.4-38.3 55.3z"/><path d="M344.6 384.8c0 .1 2.5.4 3.9.5h1 .1.4c3.7-.1 7.8-.8 12.4-1.9 12.3-2.9 19.1-9.9 22.5-17.9 2.2-5.1 3-10.5 3.1-15.5-.1-4.8-.8-9.1-1.6-12.2-.6-2.4-1.6-4.7-3-6.7l-.9-1.2c-8.8 9.4-33.9 37.2-37.9 54.9z"/></g><g fill="#b7d3f3"><path d="M343.7 285s.8 3.5 2.9 5.2l-3.2 4.2s-3.9-4.6-3.8-7.9c0 0 3.1-1.4 4.1-1.5z"/><path d="M343.7 285s.6 3.3 2.7 5l-3.1 3.8s-3.4-3.9-3.7-7.3c0 0 3.1-1.4 4.1-1.5z"/><path d="M354.5 285s-4.9 4.6-8.1 5l2.2 5.5s9.6-5.7 9.6-9c0-.1-2.6-1.5-3.7-1.5z"/><path d="M354.2 284.8s-4.6 4.8-7.8 5.2l1.8 5.1s9.6-5.4 9.6-8.8c0-.1-2.6-1.5-3.6-1.5zm15.1 50.6c-.5 6.4-.4 9.7-2.3 11.6 0 0-4 1.5-9.9-.4-2-1-3.6-2.4-4.4-4.4-3.9-9.6 3.5-17.7 3.9-24 .4-6.4 6.2-11.1 6.2-11.1s7.3 18.1 6.5 28.3z"/></g><path d="M346.9 293l1.1 11.3c.4 8 .6 32 .6 32s.2 2.1-1.2 3.8-2.9 2.8-2.9 2.8-2.1-1.8-2.9-5.2c-.5-2.2.8-21.1 2.1-33.6.7-6.3 1.7-11.2 1.7-11.2s1.1-.3 1.5.1z" fill="#095da7"/><path d="M380.4 408.6H324c2.7-5.9 14.3-10.3 28.2-10.3s25.5 4.4 28.2 10.3z" fill="#94c687"/><path d="M351.4 336.6s-3.8 1-5.1 1.7-3.8 4-3.2 4.5c2.8 2.6 3.3-.3 6.7-1.2.6-.2 3.5-3.4 3.5-3.4l-1.9-1.6z" class="Bi"/><path d="M348.3 344.6l-5.7-19.8h-32.8l5.9 20.6h.1 32.7 10.2v-.8z" fill="#cecece"/><path d="M326.1 334.8c-.2-.7.2-1.3.9-1.3s1.5.6 1.7 1.3-.2 1.3-.9 1.3-1.5-.6-1.7-1.3z" class="Bj"/><path d="M357.8 286.2s6.5 1.1 9.8 4.4c3.3 3.4 8.8 31.1 7.4 34.9-1.4 3.9-12.4 11.8-20.3 15 0 0-3.9-1.8-4.1-4.8 0 0 13.4-11.3 14-14.3.6-2.8-6.8-35.2-6.8-35.2z" class="Bn"/><path d="M353.2 276.2v1c-1.7 1.8-5.6 5.6-9.3 6.3l.5-3.9 8.6-3.4h.2z" fill="#eb8d5a"/><path d="M343.5 280.3s10.3.5 10.5-6c.2-6.4 1.7-10.7-4.9-11.3s-7.9 1.8-8.5 4 .2 13 2.9 13.3z" class="Bi"/><path d="M354 274.3s-.8-8.6-10-8.3-5.2-8.4 2.7-9.7c0 0-.8 3.1 4.1 3.5 10.5 1.2 4.1 13.2 3.2 14.5z" class="Bm"/><path d="M222.8 241.9c-.7 4.4.8 12 7.1 12.8s8.9-5.8 9.4-7.7-16.5-5.1-16.5-5.1z" fill="#7a4e34"/><path d="M217.3 262s6.2-7.7 12-7.4c7 .4 11.3 7.4 11.3 7.4-11.8-.2-23.3 0-23.3 0z" fill="#d54a41"/><path d="M230.2 258.4c-.8.9-1.3.8-1.9-.3-.4-.9-1.3-2.9-1.1-3.8l1.5-9.3c.2-.9 1-1.6 2-1.4l1.9.3c.9.2 1.6 1 1.4 2l-1.5 9.3c-.2.9-1.6 2.5-2.3 3.2z" fill="#f09959"/><path d="M232.6 243.9l-1.9-.3c-.9-.2-1.8.5-2 1.4l-1.4 8.3c2 1 4.1 0 5.6-1.3l1-6.1c.3-1-.4-1.8-1.3-2z" fill="#e38540"/><ellipse transform="matrix(.1618 -.9868 .9868 .1618 -46.4657 432.9901)" cx="231.6" cy="243.8" rx="7.8" ry="5.7" fill="#f09959"/><path d="M235.7 238.5c-1.1 2.2-2.5 2-4.7 2.4s-3.3 1.1-4.2 2.5c-1.2 1.8-.8 7.6-.8 7.6s-4.5-4.7-2.9-10.7 5.6-7.7 8.9-7.2c3.4.6 4.3 2.8 4.3 2.8s1.8.3 3.2 2.6c1.8 3.1.1 9.5-1.9 11.6s-3.1 2.7-3.1 2.6c.1-.1 2.4-5.3 2.2-8.7-.3-3.5-1-5.5-1-5.5z" fill="#7a4e34"/><path d="M233.1 248.3s-1.1 1.1-2.3.9-1.9-1.6-1.9-1.6l4.2.7z" fill="#fff"/><path d="M244.6 262.4h-33.1l7.6-32.6h33.1z" fill="none" stroke="#99bbeb" stroke-width="2" stroke-miterlimit="10"/><text transform="matrix(.9973 .074075 -.074075 .9973 219.3871 224.579)" font-family="Futura-Medium" font-size="11.209" class="Bl">CV</text><defs ><path id="B" d="M204.4 282h58c.7 0 1.5-.6 1.6-1.3l.1-.5c.2-.7-.3-1.3-1-1.3h-58c-.7 0-1.5.6-1.6 1.3l-.1.5c-.2.7.3 1.3 1 1.3z"/><path id="C" d="M295.7 400.4s.5 8.1-1 8.2h-7.5l-9.3-.1s.1-2.4 2.8-2.9 7.5-2.4 8.3-6.5c.8-4.2 6.7 1.3 6.7 1.3z"/></defs></svg>