<svg xmlns="http://www.w3.org/2000/svg" xmlns:xlink="http://www.w3.org/1999/xlink" viewBox="0 0 400 520" xmlns:v="https://vecta.io/nano"><style><![CDATA[.Bh{letter-spacing:1}.Bm{fill:#ffae73}.Bn{fill:#ff912b}.Bo{fill:#1e3865}.Bp{fill:#fc7600}.Bq{fill:#cee2ff}.Br{fill:#b0d2f5}.Bs{fill:#b53c37}]]></style><path d="M17.9 409.2s-38.7-118.9 6.8-173.7C94.1 152 161.4 277.2 192.8 219c51.8-96.4 221.5-71.6 169.6 48.2-27.2 62.9 63.9 53.5 26.7 143.6l-371.2-1.6z" fill="#e8f2fa"/><path d="M276 216.4h-7c-5.7 0-10.3-4.6-10.3-10.3v-6.2c0-5.7 4.6-10.3 10.3-10.3h7c5.7 0 10.3 4.6 10.3 10.3v6.2c0 5.6-4.7 10.3-10.3 10.3z" fill="#bad7fd"/><path d="M275.7 215.2h-6.4a9.39 9.39 0 0 1-9.4-9.4v-5.6a9.39 9.39 0 0 1 9.4-9.4h6.4a9.39 9.39 0 0 1 9.4 9.4v5.6c0 5.2-4.3 9.4-9.4 9.4z" fill="#dceaff"/><g class="Br"><circle cx="272.5" cy="193.2" r=".6"/><circle transform="matrix(.4857 -.8741 .8741 .4857 -27.3462 342.0534)" cx="277" cy="194.3" r=".6"/><circle transform="matrix(.8403 -.5421 .5421 .8403 -62.2885 183.7603)" cx="280.8" cy="197.6" r=".6"/><circle cx="282.4" cy="202.6" r=".6"/><circle transform="matrix(.7071 -.7071 .7071 .7071 -64.7989 259.6738)" cx="281" cy="208" r=".6"/><circle transform="matrix(.7071 -.7072 .7072 .7071 -68.3997 258.1919)" cx="277.4" cy="211.7" r=".6"/><circle cx="272.5" cy="213.1" r=".6"/><circle transform="matrix(.8741 -.4858 .4858 .8741 -60.6368 154.608)" cx="267.9" cy="194.3" r=".6"/><circle transform="matrix(.5421 -.8403 .8403 .5421 -45.105 312.4547)" cx="264.1" cy="197.6" r=".6"/><circle cx="262.5" cy="202.6" r=".6"/><circle transform="matrix(.7071 -.7071 .7071 .7071 -69.8179 247.5577)" cx="263.9" cy="208" r=".6"/><circle transform="matrix(.7071 -.7071 .7071 .7071 -71.3139 251.1511)" cx="267.5" cy="211.7" r=".6"/><circle cx="272.9" cy="202.6" r=".6"/><path d="M272.8 195.4h.2v7.2h-.2z"/><path d="M272.66 202.352l3.776-2.964.309.393-3.776 2.964z"/></g><g fill="#c3daf6"><path d="M349.9 382.7s-4.2-4.9-.3-8c0 0 2.9-1.8 5.2-1.6 0 0-3.3 5.6-2.3 6.2s3.3-6.5 3.3-6.5 6.6-.6 8.7.4c0 0-5.6 4.6-4.4 4.9s7.3-4.2 7.3-4.2 6.1 1 5.8 4.8c-.3 3.7-2.4 4.9-3.4 4.8-.9-.1-6.4-2.2-6.5-1.4s3.1 3.2 5.4 3.4c0 0-4.3 4.8-7.2 3.4s-3.1-3.6-4.9-4.4-3.3-.8-2.6 0 4 1.6 5 3.5c1 1.8 1.9 3-1 2.6-3-.4-7.8-2.6-8-5.1l-.1-2.8z"/><path d="M370.2 378.6s-16.6-.6-20.3 4.1c0 0-.8 2.4-3.3 4.6l-.4 1.1s2.9-3 3.9-3.2c0 0-1.6-5.9 20.1-6.6z"/><path d="M346.6 387.3s-3.6 2.6-3.8 7.4l.6.1s1.1-4.9 3.2-6.8 0-.7 0-.7zm-11.4-10.8s6.7-3.8 3.6-8.9c0 0-2.5-3.1-5.2-3.9 0 0 1.4 7.6 0 7.8s-1-8.6-1-8.6-7.1-3.4-9.8-3.1c0 0 4.4 7.4 3 7.2s-6.4-7.7-6.4-7.7-7.2-1.3-8.4 3 .7 6.4 1.8 6.7 8 .2 7.8 1.1-4.8 2.3-7.4 1.5c0 0 2.9 7.1 6.6 6.7 3.8-.4 4.9-2.7 7.2-2.9s4 .4 2.9 1.1c-1.2.6-5.1.2-7 1.8s-3.4 2.6.1 3.3 9.8.3 11-2.4l1.2-2.7z"/><path d="M314.3 363.6s18.8 6.1 20.9 12.9c0 0-.1 3 1.8 6.5v1.3s-2-4.6-3-5.2c-.1.1 4.1-5.8-19.7-15.5z"/><path d="M337 383s2.9 4.4 1.2 9.8l-.7-.2s.7-5.9-.8-8.9c-1.5-2.9.3-.7.3-.7z"/></g><g fill="#d0e3f9"><path d="M345.9 371.3s-8.8-5-4.7-11.7c0 0 3.3-4.1 6.8-5.2 0 0-1.9 10 0 10.3 1.9.2 1.3-11.3 1.3-11.3s9.3-4.5 13-4.1c0 0-5.8 9.8-3.9 9.6s8.4-10.1 8.4-10.1 9.6-1.8 11.1 3.9-.9 8.5-2.4 8.8c-1.4.4-10.5.2-10.3 1.4s6.4 3.1 9.8 2c0 0-3.8 9.3-8.7 8.8-5-.5-6.5-3.5-9.6-3.8-3.1-.2-5.3.6-3.8 1.4s6.7.3 9.2 2.4 4.5 3.4-.1 4.3-12.9.4-14.5-3.2l-1.6-3.5z"/><path d="M373.5 354.3s-24.8 8-27.6 17c0 0 .1 4-2.4 8.6v1.8s2.6-6 4-6.8c0 0-5.5-7.8 26-20.6z"/><path d="M343.5 379.9s-3.8 5.8-1.6 12.9l1-.3s-1-7.8 1-11.7-.4-.9-.4-.9z"/><path d="M345.6 408.1a17.31 17.31 0 0 0 17.3-17.3h-34.7c0 9.5 7.8 17.3 17.4 17.3z"/><path d="M363.1 409H328h0c0-1.2 1-2.1 2.1-2.1H361c1.2-.1 2.1.9 2.1 2.1h0z"/></g><path d="M327.7 390.8h35.6v.5h-35.6z" fill="#97c0f8"/><path d="M127.3 407.5c.1 1.9 2.8 1.9 5.8 1.5 3-.3 2.2.4 6.4.5s5.6-1.3 5.9-1.9c.2-.5-1.8-1-4-1.5-.3-.1-.5-.1-.8-.2-2.4-.6-4.1-2.4-6.1-4-2-1.5-4.5-7-4.5-7l-5.7-.3 3.3 7c.5 1.2.3 2.8.1 3.9-.4.7-.5 1.4-.4 2z" class="Bm"/><path d="M133 409.1c3-.3 2.2.4 6.4.5s5.6-1.3 5.9-1.9c.2-.5-1.8-1-4-1.5h0s-2.7 1.5-6.2 1.1c-2.8-.3-5.7-1.5-7.6-1.7-.1.6-.2 1.3-.2 1.9.1 1.9 2.7 1.9 5.7 1.6z" class="Bo"/><path d="M87.6 407.9c.1 1.9 2.8 1.9 5.8 1.6s2.2.4 6.4.5 5.6-1.3 5.9-1.9c.2-.5-1.8-1-4-1.5-.3-.1-.5-.1-.8-.2-2.4-.6-4.1-2.5-6.1-4s0-10.5 0-10.5l-6.3-.6.3 11c0 1.4-.6 2.7-.9 3.8-.2.5-.3 1.1-.3 1.8z" class="Bm"/><path d="M93.4 409.5c3-.3 2.2.4 6.4.5s5.6-1.3 5.9-1.9c.2-.5-1.8-1-4-1.5h0s-2.7 1.4-6.2 1.1c-2.8-.3-5.7-1.5-7.6-1.7-.1.6-.2 1.3-.2 1.9.1 1.9 2.7 1.9 5.7 1.6z" class="Bo"/><path d="M106.1 253.2c1.1-4.5-.5-6.5-1.9-7.7-.7-1.6-1.4-2.8-2.2-3.3-1.4-.8-3.2-.9-4.4-.8.3-.3.9-.4.9-.4-.7-.1-2.4.6-2.4.6-10.4-4-12 11.3-11.8 14.8s.2 7.7-5.2 10.5c-10.3 5.3 3.4 25.4 3.4 25.4-.3-2.9 13-18 19.9-22.5 1.7-2.5 2.3-6.8 2.3-7.2-.3 3.5-.9 5.4-1.4 6.5 3.1-2.9 3.6-9.8 2.8-15.9z" class="Bs"/><path d="M102 270s-3.3 1.8-5.9 1.1c-2.4-.6-3.9-3.7-3.9-3.7 1-.2 1.3-1.6 1.3-7.5l.5.1 7.7 1.5-.2 4.7c-.1 1.8 0 3.6.5 3.8z" class="Bm"/><path d="M101.6 261.4l-.2 4.7c-4.3-.1-6.6-4-7.5-6.2l7.7 1.5z" fill="#f9924f"/><path d="M132.8 397.9c.4 1.2-.5 2.4-1.7 2.5l-3 .1-3.2.1c-.8 0-1.6-.3-2.1-.9-2.5-3.1-10.3-13.4-15-28.5-.1-.4-.3-.8-.4-1.3-3.1-9.1-9.6-20.5-13-30.8l-1.5-4.7c-.1-.5-.3-.9-.4-1.4-2.5-8.7-3.2-14.5-3.9-20.6l24.6.2c0 0 5.2 40.3 19.6 85.3z" fill="#214d9a"/><path d="M109.8 298.5c-.1 11.7 1.7 16.7 1.7 16.7s-10.5 5.4-23.1 1.4c-.1 0-3.4-19.3-3.1-21.1.6-3.3.6-6.6.3-9.8-.8-8.4-3-15.4-3-15.4 3.4-.8 6.6-2.1 10.2-3.5.8 1 3.3 2.1 5.5 2 2.5-.1 3.3-1.1 3.2-2.3 2.7 1.5 4.8 2.9 4.8 2.9 2.3 3.9 6.8 7.7 7.2 13.8-.1 1.5-3.7 15-3.7 15.3z" class="Bq"/><path d="M88.6 299.8c-1.1 1.5-3.1 10.8-8.3 11.9 2.6-6.6 4.7-9.5 5-11.5.6-3.8.6-7.7.3-11.4 1.7-3 3-5.1 3-5.1.1-.5 2.7-8.5 3.6-1.3.8 7.2-2.4 15.7-3.6 17.4z" fill="#4b9ba9"/><path d="M106.1 268.6s3.6 2 5.2 3.9c1.5 2 10.6 18.1 10.6 19.8 0 1.6-9.1.6-9.1.6l-6.7-24.3z" class="Bn"/><path d="M103 263.6s-10.1.2-10.2-6.2c0-6.3-1.3-10.6 5.2-10.9 6.5-.4 7.7 2 8.3 4.1.5 2.2-.6 12.8-3.3 13z" class="Bm"/><g class="Bs"><path d="M102.6 246.4s-2.8 7.4-7 8.5c-4.3 1.1-6.1 0-6.1 0s3.3-2.6 4-7.1c-.1-.1 7-5 9.1-1.4z"/><path d="M102 247s2.1 1.7 2.6 3.3.7 4.9 1.7 4.8c0 0 2.1-5-.3-7.9-2.5-3.1-4-.2-4-.2z"/></g><path d="M101.4 266.6s5.9 14.5 6 17.4c.2 2.9.7 48 .7 48s-.3 2.1 3.6 1.2c4-.9 5-1.7 5-1.7s-3.8-27.8-2.8-37.5-7.9-25.4-7.9-25.4l-4.6-2z" class="Bn"/><path d="M128.1 400.5l-3.4.1c-.6 0-1.2-.2-1.6-.7-2.3-2.8-10.4-13.3-15.2-28.7-.1-.4-.3-.8-.4-1.3-3.1-9.1-9.6-20.5-13-30.8l-1.5-4.7c-.1-.5-.3-.9-.4-1.4l3.6-2.7s10.9 17.6 14.2 34.2c2.9 14.4 14.6 31.7 17.7 36z" fill="#153d74"/><path d="M96.5 366c.1 7.6-.3 24.6-1.2 32.9-.1.8-.7 1.3-1.5 1.3h-2.6-2.4c-.5 0-.9-.3-1-.8-2.6-13-4.4-23.8-5.7-33.1L79.2 346c-.8-5.8-1.3-10.7-1.5-14.8 0-.6-.1-1.3-.1-1.9v-1.8l21.3-2.1c-.2 14.3-2.4 35.9-2.4 40.6z" fill="#214d9a"/><path d="M91.2 400.3h-2.3c-.6 0-1-.4-1.2-1-2.5-12.9-4.4-23.7-5.7-32.9l-2.9-20.3c-.8-5.8-1.3-10.7-1.5-14.8l7.8 4.6s-5 1.8-3.1 15.1c2.1 13.3 6.3 47.4 8.9 49.3z" fill="#153d74"/><path d="M92.2 331.2s-1.5 5.4-6.7 4.7-12.5-3.8-12.5-3.8l5-16.2c3.3-11.1 7.5-25.5 9.4-34.5.5-2.5.9-4.7 1.1-6.2l4.3-8.3s6.4 14.4 6.8 18c.2 3.7-7.4 46.3-7.4 46.3z" class="Bn"/><path d="M92 292.5c-.2 5.9-1.6 17.3-13.9 23.4H78c3.3-11.1 7.5-25.5 9.4-34.5 2.3 3.4 4.7 7.9 4.6 11.1z" class="Bp"/><path d="M87.1 284.4l5.7-17.5s-7.2 2.1-10.8 3.9c0 0-2.2 2.9-3.6 9.6 0 0-1.5 16.1 1.8 21.9 0 0 10.4 2.1 26.9-3.6v-3.8s-18.1.9-21.8 1.4l1.8-11.9z" class="Bm"/><path d="M92.7 266.9s-10.5.7-13 6.4c-2.5 5.6-3.3 24.4-.1 29.9 0 0 4.4 1.3 12.3-.2.1 0 .2 0 .3-.1 0 0 2.5-6.1.3-7.3 0 0-6.6.3-5.9-1.8.6-2.2 6.1-26.9 6.1-26.9z" class="Bn"/><g class="Bs"><path d="M119.1 297.3l-.3 1-17.3-5.4s-.2-.3-.1-.6c.1-.4.4-.4.4-.4l17.3 5.4z"/><path d="M120.4 298.2l-1.3-.9-.3 1z"/></g><path d="M107.1 294.9s3.9-2.4 5.6-2c1.6.4 5.8 3.4 3.8 4.1s-3.6 0-4.4.4c-.8.5-1.3 1.3-5 1.3-3.6 0 0-3.8 0-3.8z" class="Bm"/><path d="M105.7 316.3h17.9l6.9-26.1h-17.9z" class="Bo"/><path d="M113.3 288.4s-1.4.2-.8 1.8h6.1l-2-1.8h-3.3z" fill="#99aef9"/><path d="M113.3 288.4s2.7 0 3.6 2.2c1.1 2.7.7 10.1.7 10.1H132s2.3-8.7-2.5-12.3h-16.2z" fill="#fff"/><path d="M127 303.2s-2.2-1.6-2.8-.7c-.7.9.5 5.7 1.9 5.4 1.4-.4 1.4-3.7.9-4.7z" class="Bm"/><path d="M220.2 264.4c-.5-11.5 9.2-16.6 19-16.6s20.6 2.6 21.5 17.8c.6 9.8-4.6 15.9-19.7 15.9-5.1 0-9-.8-12.1-2.2l-7.5 6.7 3.7-9.3c-3.3-3-4.7-7.3-4.9-12.3z" opacity=".5" class="Bq"/><path d="M221.4 362.2h-52.5c-3.2 0-5.8-2.6-5.8-5.8v-.4h58.4v6.2z" fill="#6ca3ea"/><g fill="#8eaff1"><path d="M193.5 407H190l-1-44.8h5.4z"/><path d="M208.9 407h-34.3v-3.1l17.5-1.6 16.8 1.6z"/><circle cx="174.1" cy="406.5" r="2.8"/><circle cx="208.3" cy="406.5" r="2.8"/><path d="M203.4 365.1h-23.3c-1.5 0-2.8-1.2-2.8-2.8v-.2h28.8v.2c0 1.6-1.2 2.8-2.7 2.8z"/></g><path d="M167.9,362.2c-2.7,0-4.9-2.2-4.9-4.9v-39.1c0-7.7,5.1-14,11.3-14h25.5c6.2,0,11.3,6.3,11.3,14v44H167.9z" class="Bn"/><path d="M168.4 362.2a2.69 2.69 0 0 1-2.7-2.7v-41.3c0-7.7 5.1-14 11.3-14h25.5c6.2 0 11.3 6.3 11.3 14v10.6 33.4h-45.4z" fill="#d96400"/><path d="M227.6 362.2h-62.5a3.12 3.12 0 0 1-3.1-3.1h0a3.12 3.12 0 0 1 3.1-3.1h62.5a3.12 3.12 0 0 1 3.1 3.1h0a3.12 3.12 0 0 1-3.1 3.1z" class="Bn"/><use xlink:href="#B" class="Bm"/><use xlink:href="#C" fill="#09254c"/><path d="M236.2 343c-2.9-2-22.1-5.7-31.9-6.7l-10.8-9.4s-9.2 13.7-9.3 24.1c0 4.9 2.2 5.4 2.2 5.4l36.3.4c2.5.3 5.8 6.5 6.6 12.1.8 5.7 15.3 28.7 15.3 28.7s3 1 4.4.9c1.5-.1 2.2-.6 2.2-.6s-8.4-50.3-15-54.9z" class="Bo"/><use xlink:href="#B" x="-9" class="Bm"/><use xlink:href="#C" x="-9" class="Bo"/><path d="M227.2 343c-2.5-1.8-10.1-3.1-18.5-4.2-2.3-.3-4.2-2-4.8-4.2h0l-19.5-7.7s-9.2 13.7-9.3 24.1c0 4.9 2.2 5.4 2.2 5.4l36.3.4c2.5.3 5.8 6.5 6.6 12.1s15.3 28.7 15.3 28.7 3 1 4.4.9c1.5-.1 2.2-.6 2.2-.6s-8.4-50.3-14.9-54.9z" fill="#25468f"/><path d="M201.1 278.6s-5.7 2.9-1.5 9.2c0 0-4.9.6-6.1-.8 0 0 .2.6.4.9 0 0-4.7-.6-6.4-2.4s3.6-25.6 16.2-20.8c0 0 11.2 1 8 13.7-3.2 12.6 1 13.3 1 13.3s-1.3.4-1.8.3c0 0-.8-.5-.9-.9 0 0 0 .7.2 1 0 0-4.6-.3-6.5-2.4-2.1-2.2-3.7-8.6-2.6-11.1z" fill="#982c29"/><path d="M209.2 284.8l-.5.1c-2 .3-3.9-1.1-4.2-3.2l-.3-2.4c-.3-2 1.1-3.9 3.2-4.2l.5-.1c2-.3 3.9 1.1 4.2 3.2l.3 2.4c.2 2.1-1.2 4-3.2 4.2z" class="Bp"/><path d="M210.5 303.9c-1.7 1.3-2.8 6-5.5 6.8-10.3 2.9-15.8-9.2-17.6-15.2 1.4-.9 2.7-1.1 3.5-1.3l2.2-.3c1.1-1 2.7-4.7 2.8-10.4l.5.1 8.3 1.8s-.2 2.6-.3 5.1c0 1.9-.1 2.4 0 2.6.6.1 1.4 1.8 1.4 1.8.1.3 2.7 4 4.7 9z" class="Bm"/><path d="M204.6 285.5l-.3 5.1c-4.7-.2-7-4.5-8-6.9l8.3 1.8z" fill="#f99352"/><g class="Bq"><path d="M246.8 328.5s-4.9.2-10.2.2h-1.9c-4.3 0-8.5-.2-10.4-.6-1.8-.5-8.5-5-14-10.6l-.7 1.8c-.2 1.2-.4 2.5-.7 3.7 0 .1 0 .2-.1.3v.2.2c-.6 3.6 1.2 9 1.7 11.7.2.9.2 1.5 0 1.7-8.8 8.4-25.4 6.5-32.7 5.1-1.8-.3-2.7-2.3-1.9-3.9 2.8-5.5 8.1-17.8 7.2-30.3 0-.4 3.9-14.1 3.9-14.1s3.1-.5 6.7-.8c.3.3 1 9.3 5.5 9.8.7.1 5.4 7.2 5.4 7.2l1.4-7.3-1.7-9.6c2.1.6 3.3.9 5.1 1.6 1.2.5 2.2 1.4 2.8 2.5 3.1 5.7 13.2 24.1 14.3 24.5 1 .4 4.6 1.1 8.5 1.8h0l10.7 1.8 1.1 3.1z"/><path d="M207.2 331.6h-1.6 0z"/></g><path d="M206 288s-11-.2-10.8-7.1-1-11.5 6-11.7 8.3 2.5 8.8 4.8c.5 2.4-1.1 13.9-4 14z" class="Bm"/><path d="M236.6 328.7h-1.9c-4.3 0-8.5-.2-10.4-.6-1.8-.5-8.5-5-14-10.6 0 0 1.1-4.4 1.6-5.1s2.4 6.4 7 9.3c4.5 2.9 11.7 4.9 15.1 4.1 2.5-.6 2.7 1.5 2.6 2.9z" class="Br"/><path d="M203.8 284.2s.1.8 1.9 1c0 0 1.5.1 1.6-.8 0 0-1.4-.9-3.5-.2z" fill="#fff"/><path d="M204.4 287c-6.3-2-7.8-7.9-7.8-8l.7-.2-.3.1.3-.1c0 .1 1.5 5.6 7.4 7.5h.1l-.2.7h-.2z" fill="#0d2546"/><path d="M205.1 287.4l-.6-.2c-.3-.1-.5-.4-.4-.7h0c.1-.3.4-.5.7-.4l.6.2c.3.1.5.4.4.7h0c0 .4-.4.5-.7.4z" class="Bp"/><g fill="#982c29"><path d="M206.6 268.4s-2.8 8.4-7.1 9.8c-4.2 1.4-5.6-.3-5.6-.3s3.1-2.9 3.5-7.5c0 0 6.8-5.5 9.2-2z"/><path d="M201.4 270.8s5.7-.3 7.5 1.3c1.2 1.2 1.2 1.8 1.3 3.4 0 0 2.5-3.9-.1-6.6-2.8-2.9-8.7 1.9-8.7 1.9z"/><path d="M206.4 269.2s-1.4 8-6.7 10.9c0 0 5.1-5.2 5.2-10.4s1.5-.5 1.5-.5zm-19 16.2c1.7 1.8 6.4 2.4 6.4 2.4-.2-.3-.4-.9-.4-.9 2.4 2 8.4.5 8.4.5-4.8-1.1-3.2-7.9-1.6-8.2.9-5.2 2.8-11.6 3.7-14.5h-.3c-12.6-4.9-17.9 18.9-16.2 20.7z"/></g><g class="Bp"><path d="M197.7 284.1l-.5.1c-2 .3-3.9-1.1-4.2-3.2l-.3-2.4c-.3-2 1.1-3.9 3.2-4.2l.5-.1c2-.3 3.9 1.1 4.2 3.2l.3 2.4c.3 2.1-1.1 3.9-3.2 4.2z"/><path d="M194.8 275.4c-.3-.5.7-4.4 2.1-7.5.7-1.5 2.4-3.5 3.6-4 .4-.2 1-.1 1.5 0l1.3.5c-4 1.2-7.5 9.6-7.2 10.5v-.1l-1.3.6z"/></g><path d="M196.8 281.8h-.2c-1 .1-2-.6-2.1-1.6l-.2-1.2c-.1-1 .6-2 1.6-2.1h.2c1-.1 2 .6 2.1 1.6l.2 1.2c.1 1-.6 1.9-1.6 2.1z" class="Bn"/><path d="M223.6 324.5s4.7-.3 5.2 0c.7.4 3.3 2 3.7 2.5s1.4 2.4 1.4 2.4-.5.1-.7-.1l-1.7-1.8 1.6 2.4s-.5 0-.8-.3l-1.7-1.7-.5-.1s.5.4.8.8a5.91 5.91 0 0 1 .5.8l-.6-.1c-.1-.1-1.5-1.2-1.5-1.2l.7 1s-.5 0-.6-.1c-.2-.1-1.2-1.1-1.4-1.1s-1.5-.1-2.1-.4-2.3-1-2.3-1v-2z" class="Bm"/><g class="Br"><path d="M194.4 291.8s-3.2.9-3.9 1.6c0 0 3.3 8.4 8.1 12.4l1.3-.9v2.1l4.8 3.1c-.1 0-10.6-15.7-10.3-18.3zm16.1 43.6c-2.5-1-10.9-4.4-14.3-7.5-3.8-3.5-11.6-16.3-11.6-16.3l13.7-3.3s5.6 8.2 7.2 9.8c1.2 1.2 4.1 1.3 4.1 1.3l-.7 3.7c0 .1 0 .2-.1.3v.2.2c-.6 3.4 1.2 8.8 1.7 11.6z"/><path d="M204.4 293.2s1.5 11.5.3 16.9l2.2-4.2-.3-2 1.3.4s-1.1-9.2-2.1-10.8-1.4-1.8-1.4-1.8v1.5z"/></g><path d="M246.8 328.5s-6.1.2-12.1.2c-1.5-2.3.3-5 .3-5h0l10.7 1.8 1.1 3z" class="Bm"/><g class="Bp"><path d="M247.4,331.6h-22.5l0,0c0-1,0.8-1.8,1.8-1.8h20.7V331.6z"/><path d="M282.2 307l-8.4 24.6h-35.1l8.6-24.6z"/></g><path d="M282.2 307l-8.3 24.3-.1.3h-34.6l8.6-24.6z" class="Bn"/><path d="M263.9 319.1c-.2.9-1.2 1.7-2.1 1.7s-1.5-.8-1.3-1.7 1.2-1.7 2.1-1.7 1.5.7 1.3 1.7z" fill="#ffc08f"/><path d="M282.2 307l-8.3 24.3H258l19.4-24.3z" class="Bp"/><path d="M223.6 326.5s-11.6 1-18 .7v-6.3c4.2 1.2 18 3.7 18 3.7v1.9z" class="Bm"/><path d="M190.5 293.5s-6.6.2-8.7 2.4 2 14.8 2 14.8 12.4 15.2 18.6 16.2l4 .4c0 0-1.2-3.6 1.1-5.9 0 0-2.6-.7-2.8-1.1-.1-.3-14.2-26.8-14.2-26.8z" class="Bq"/><g class="Bo"><path d="M151.1 410.6h0c-.4 0-.7-.5-.7-1.2l1-74.7 2.8-.6-2.4 75.3c0 .7-.3 1.2-.7 1.2z"/><path d="M146 336.1h164.5c1.2 0 2.1-1 2.1-2.1v-.3c0-1.2-1-2.1-2.1-2.1H146c-1.2 0-2.1 1-2.1 2.1v.3c0 1.2 1 2.1 2.1 2.1z"/><path d="M304.4 410.6h0c.4 0 .7-.5.7-1.2l-.9-74.7-2.8-.6 2.4 75.3c-.1.7.2 1.2.6 1.2z"/><path d="M298.4 336.1h3.7c1.2 0 2.1-1 2.1-2.1v-.3c0-1.2-1-2.1-2.1-2.1h-3.7c-1.2 0-2.1 1-2.1 2.1v.3c0 1.2 1 2.1 2.1 2.1z"/></g><defs ><path id="B" d="M244.4 405.6c-.2 1.8 2.3 2.3 5.2 2.4 2.9.2 2 .8 6 1.5 4 .8 5.6-.3 5.9-.8s-1.6-1.2-3.5-2.1c-.2-.1-.5-.2-.7-.3-2.2-1-3.4-3-5.1-4.9-1.6-1.8-3.1-7.4-3.1-7.4l-5.4-1.2 2 7.2c.3 1.3-.2 2.7-.6 3.8-.4.5-.6 1.1-.7 1.8z"/><path id="C" d="M249.6 408c2.9.2 2 .8 6 1.5 4 .8 5.6-.3 5.9-.8s-1.6-1.2-3.5-2.1h0s-2.8.9-6 0c-2.6-.7-5.2-2.3-7-2.9-.2.6-.5 1.2-.5 1.8-.3 1.9 2.2 2.3 5.1 2.5z"/></defs></svg>