<svg xmlns="http://www.w3.org/2000/svg" xmlns:xlink="http://www.w3.org/1999/xlink" viewBox="0 0 400 520" xmlns:v="https://vecta.io/nano"><style><![CDATA[.Bh{letter-spacing:1}.Bm{fill:#163560}.Bn{fill:#d9935c}.Bo{fill:#e49963}.Bp{fill:#0d458d}.Bq{fill:#adcbf9}.Br{fill:#ad7041}.Bs{fill:#ff9839}.Bt{fill:#233862}]]></style><path d="M353.4 232c-16.2-13.8-35.8-97.3-102.8-53.9-34.6 22.5-93-19.3-141.4-4.9-44.4 13.2-48.7 56.9-44.4 71.1 8.7 28.7-18.3 33-43.4 45.3C-17.9 309 11 377 48.1 377.3l262-.6s53.9.1 76.3-29.6c24.2-31.9 8.9-79.3-33-115.1z" fill="#ebf2f9"/><path d="M113.6 376.4s-19.4-11.8-17.2-22.5 22.7 6.5 22.7-5.3-15.2-26.5-5.1-31c10.2-4.5 31.9 11.2 30.7 27.9s22.8-4.1 32.7 8.4c9.9 12.4-6.1 22.5-6.1 22.5h-57.7zm136.1.4s-19.4-25.5-17.2-48.8 22.7 14.2 22.7-11.4-15.2-57.4-5.1-67.3c10.2-9.9 31.9 24.4 30.7 60.5-1.2 36.2 22.8-8.8 32.7 18.1 9.9 27-6.1 48.8-6.1 48.8h-57.7z" fill="#a8d29f"/><path d="M254.6 269.2l-5.8-.1c1.9 2.4 2.3 4.6 1.1 6.5s-3.9 3.5-8.1 4.7c3.1-8.4 4.7-17.2 4.7-26.2 0-10.1-2-20-5.9-29.2-3.8-8.9-9.2-17-16.1-23.8a75.31 75.31 0 0 0-23.8-16.1c-9.3-3.9-19.1-5.9-29.2-5.9s-20 2-29.2 5.9l-3.3 1.5a92.81 92.81 0 0 0-9.4-2.4c-15.3-3.1-26.2-1-30.6 6-4.2 6.7-1.9 16.7 6.4 28.4-1.1 2.1-2.1 4.2-3.1 6.4-.7 1.7-1.3 3.3-1.9 5-15.7.9-24 3.7-27.1 8.7-3.5 5.8 1.3 13.6 16.8 21.2 2.1 1 4.4 2.1 6.8 3.1.8 7 2.6 13.9 5.4 20.4 3.8 8.9 9.2 17 16.1 23.9a75.31 75.31 0 0 0 23.8 16.1c9.3 3.9 19.1 5.9 29.2 5.9s19.9-2 29.2-5.9a75.31 75.31 0 0 0 23.8-16.1c6.7-6.7 12-14.5 15.8-23.2 7.6-1.6 12.7-4.1 14.7-7.3 1.5-2.3 1.4-4.8-.3-7.5zm-17.9 12.3c-5.1.9-11.4 1.4-18.8 1.5-11.5.1-24.7-.8-38.6-2.6 1.2-2.5 2.3-5.2 3.4-7.8 4.3 1.4 8.5 2.6 12.5 3.4 4.6.9 8.8 1.4 12.5 1.4 8.7 0 15-2.5 18.1-7.4.5-.8.9-1.7 1.2-2.6h-4.5a.76.76 0 0 0-.2.4c-2.3 3.6-7.4 5.5-14.6 5.5-3.4 0-7.4-.4-11.7-1.3-3.8-.8-7.7-1.8-11.8-3.2 1.1-2.7 2.1-5.4 3.1-8.2 2.7-7.5 5-14.9 6.9-22 8.6 1.3 17.8 1.9 27.5 1.9 6.1 0 12.4-.2 18.9-.7 1 4.7 1.5 9.5 1.5 14.4.1 9.4-1.7 18.6-5.4 27.3zm-92.8 37.2c-2.2-.8-3.3-3.9-3.8-6.4-.9-3.9-1-9.4-.4-15.9.3-3.3.7-6.8 1.4-10.4 8.9 2.4 17.7 5.4 26.2 9.1-1.9 3.3-3.9 6.4-5.8 9.2-3.7 5.3-7.3 9.4-10.5 11.9-2.1 1.6-4.9 3.3-7.1 2.5zm25.3-27c-9-3.9-18.2-7.1-27.5-9.5.3-1.7.7-3.4 1.1-5.2 2.6.6 5.2 1.2 7.9 1.7 7.8 1.6 15.5 2.9 23.1 4-1.5 3.2-3 6.2-4.6 9zm-16.8-15.8l-8.9-1.9c1.4-5.7 3.1-11.6 5-17.7 10.2 6.3 20.6 11.4 30.4 15-1.2 2.9-2.5 5.8-3.8 8.6-7.4-1.1-15-2.4-22.7-4zm-25-77c.7 1.3 1.5 3 2.8 4.9 5.2 8 12 13.8 16.8 17.2 2.8 2 5.7 3.8 8.8 5.5-2.9 6.2-5.6 12.9-8.1 19.7-.5 1.3-.9 2.6-1.4 3.8-14.9-9.7-27.6-20.9-35.8-31.6 2.1-3.5 4.5-6.9 7.1-10 1.1-1.3 2.2-2.6 3.4-3.8l.5-.5 5.9-5.2zm63.8-10.7c2.2.8 3.3 3.9 3.8 6.4.9 3.9 1 9.4.4 15.9-.6 7.1-2 15.1-4.1 23.7-2.5-.4-5-.9-7.5-1.5-8.4-1.9-16-4.6-22.8-7.9 4.1-8.5 8.4-16.1 12.7-22.2 3.7-5.3 7.3-9.4 10.5-11.9 1.6-1.3 3.9-2.6 5.8-2.6.5-.1.9-.1 1.2.1zm-8.5 48.2c2.5.6 5 1.1 7.6 1.5-1.8 6.9-4.1 14.1-6.7 21.3-1 2.8-2.1 5.5-3.1 8.2-9.9-3.6-20.4-8.8-30.7-15.2.5-1.6 1.1-3.1 1.6-4.7 2.4-6.7 5.1-13.2 7.9-19.3 7.1 3.5 14.9 6.2 23.4 8.2zm38.8-32.2c6.5 6.5 11.6 14.1 15.2 22.5 1.3 3 2.3 6.1 3.2 9.2-16.3 1.2-31.2.8-44.5-1.1 2.1-8.6 3.5-16.8 4.2-24 .7-7.9.6-17.3-2.6-22.6.7.3 1.5.6 2.2.9 8.3 3.5 15.8 8.6 22.3 15.1zm-49.9-20.7c4.9 0 9.7.5 14.4 1.5-5.6 2.4-11.2 9.1-15.5 15.3-4.4 6.3-8.8 14-12.9 22.7-2.8-1.5-5.5-3.2-7.9-4.9-8.3-5.9-13.2-12-15.9-16.1-1.4-2.2-2.4-4-3-5.4 2.9-2.1 5.9-3.9 9.1-5.5 1.3-.7 2.6-1.3 4-1.8.1 0 .2-.1.3-.1h.1c.3-.1.6-.2.9-.4.1 0 .2-.1.2-.1 8.2-3.5 17.1-5.2 26.2-5.2zm-69 8.8c2.3-3.6 7.4-5.5 14.6-5.5 3.4 0 7.4.4 11.7 1.3 1.6.3 3.3.7 5 1.2-5.6 3.2-10.7 7.2-15.4 11.8-1 1-1.9 1.9-2.8 3l-3.3 3.9c-1.7 2.1-3.2 4.4-4.6 6.6-6.4-9.4-8.3-17.5-5.2-22.3zm3.9 34.3c.6-1.4 1.3-2.9 2-4.3 8.7 10.9 21.6 22.1 36.6 31.7-2.1 6.5-3.9 12.9-5.4 19-10.9-2.6-21.1-5.6-29.9-8.8l-5.4-2-3-1.2a35.53 35.53 0 0 1-.3-4.6v-2.2-2.6c.2-6.4 1.3-12.7 3.2-18.7.3-1 .7-2 1-3 .3-1.2.7-2.2 1.2-3.3zm-12.8 30.9C80.2 251 74 244.6 76.8 240.1c2.2-3.7 10.3-6.1 22.8-7-1.5 5.1-2.5 10.5-2.8 15.8-.1 1.6-.2 3.2-.2 4.8v.4c0 1.6.1 3.2.2 4.8-1.1-.4-2.1-.9-3.1-1.4zm10.3 8.1c1.8.7 3.7 1.4 5.6 2 8.8 3.1 18.8 5.9 29.4 8.4-.4 1.7-.7 3.4-1.1 5.1l-2.6-.6c-14.7-3.3-25.7-4-30.8-4.1-1.3-3.8-2.2-7.7-2.8-11.7.8.4 1.5.7 2.3.9zm2.5 16c-.2-.4-.3-.8-.5-1.2 6.2.3 16.5 1.3 28.5 4l2.6.6c-.7 3.9-1.2 7.6-1.5 11-.6 6.6-.6 14.2 1.2 19.6-5.6-3.1-10.7-7-15.3-11.6-6.4-6.4-11.5-14-15-22.4zm92.6 37.6c-8.7 3.7-18 5.6-27.5 5.6-7.3 0-14.5-1.1-21.4-3.3 5.2-2.7 10.5-9 14.5-14.8a112.78 112.78 0 0 0 6.2-9.9 199.08 199.08 0 0 1 34 19.7 61.08 61.08 0 0 1-5.8 2.7zm22.4-15.1c-3.9 3.9-8.2 7.3-12.9 10.2-11.3-8.2-23.3-15.3-35.8-21a308.1 308.1 0 0 0 5.1-10c11.5 1.5 22.5 2.4 32.6 2.7 2.6.1 5.2.1 7.7.1 6.4-.1 12.1-.5 17-1.1-3.5 7-8 13.5-13.7 19.1z" class="Bq"/><path d="M155.3 174.7l-17.7 3 11.6-8.4.7 2.6 4.3.6z" fill="#456aa3"/><g class="Bq"><path d="M137.6 177.7l14.6-8.1 14.5-1.1z"/><path d="M149.2 169.3l-11.6 8.4 8.8-12.9z"/></g><path d="M77.4 217.9l16.8 6.5-9.7-10.5-1.2 2.4-4.4-.2z" fill="#456aa3"/><g class="Bq"><path d="M94.2 224.4l-12.7-10.8-14-3.9z"/><path d="M84.5 213.9l9.7 10.5-6.1-14.3z"/></g><path d="M133.9 376.6h126.7L303 206.3H176.3z" fill="#3b76ca"/><path d="M139.3 371.1h118.6l39.7-159.4H179z" fill="#fff"/><g fill="#a0c0ef"><use xlink:href="#B"/><use xlink:href="#B" x="7" y="-28.1"/><use xlink:href="#C"/><path d="M183.4 276H262c1 0 2-.8 2.2-1.8l.2-.7c.2-1-.4-1.8-1.3-1.8h-78.6c-1 0-2 .8-2.2 1.8l-.2.7c-.2 1 .3 1.8 1.3 1.8z"/><use xlink:href="#C" x="-9.2" y="36.9"/><use xlink:href="#C" x="-6.9" y="27.8"/><path d="M169.7 332.6h19.1c1.2 0 2.3-.9 2.6-2.1h0c.3-1.2-.4-2.1-1.6-2.1h-19.1c-1.2 0-2.3.9-2.6 2.1h0c-.3 1.1.4 2.1 1.6 2.1zm58.4 0h19.1c1.2 0 2.3-.9 2.6-2.1h0c.3-1.2-.4-2.1-1.6-2.1h-19.1c-1.2 0-2.3.9-2.6 2.1h0c-.3 1.1.5 2.1 1.6 2.1z"/></g><path d="M186.1 355.2h-27.8c-.7 0-1.4-.3-1.8-.8s-.5-1.3-.4-2l2-8c.4-1.5 1.9-2.8 3.5-2.8h27.8c.7 0 1.4.3 1.8.8s.5 1.3.4 2l-2 8c-.4 1.6-2 2.8-3.5 2.8zm-24.5-13.4c-1.4 0-2.9 1.2-3.2 2.6l-2 8c-.2.7-.1 1.3.3 1.8s.9.7 1.6.7h27.8c1.4 0 2.9-1.2 3.2-2.6l2-8c.2-.7.1-1.3-.3-1.8s-.9-.7-1.6-.7h-27.8zm83 13.4h-27.8c-.7 0-1.4-.3-1.8-.8s-.5-1.3-.4-2l2-8c.4-1.5 1.9-2.8 3.5-2.8H248c.7 0 1.4.3 1.8.8s.5 1.3.4 2l-2 8c-.5 1.6-2 2.8-3.6 2.8zm-24.5-13.4c-1.4 0-2.9 1.2-3.2 2.6l-2 8c-.2.7-.1 1.3.3 1.8s.9.7 1.6.7h27.8c1.4 0 2.9-1.2 3.2-2.6l2-8c.2-.7.1-1.3-.3-1.8s-.9-.7-1.6-.7h-27.8z" fill="#476ba7"/><g fill="#a0c0ef"><path d="M193.8 228c.9-2.9 3.9-5.2 7-5.2 1.9 0 2.7.7 3.4 1.7l-1.8 1.5c-.5-.7-1.1-1.1-2.2-1.1-1.7 0-3.4 1.4-4 3.2-.6 1.7.2 3.2 1.9 3.2 1.2 0 2-.5 3.1-1.2l.9 1.5c-1.4 1.1-2.8 1.7-4.7 1.7-3.1-.1-4.5-2.4-3.6-5.3z"/><path d="M204.2 228c.9-2.9 4-5.2 7.1-5.2s4.6 2.3 3.7 5.2-4 5.2-7.1 5.2-4.6-2.3-3.7-5.2zm8.5 0c.6-1.7-.2-3.2-2-3.2s-3.5 1.4-4.1 3.2c-.6 1.7.2 3.2 2 3.2s3.5-1.4 4.1-3.2zm6-5.1h2.1l2.7 6.2 2-6.2h2.2l-3.3 10.1h-1.9l-2.8-6.4-2.1 6.4h-2.2l3.3-10.1zm13.1 2.1h-3.1l.7-2.1h8.4l-.7 2.1H234l-2.7 8.1h-2.2l2.7-8.1zm7.7-2.1h4.6c1.3 0 2.2.4 2.6 1s.4 1.4.1 2.3c-.5 1.6-1.8 2.7-3.2 3.1l1.3 3.6h-2.6l-1.1-3.2h-1.7l-1.1 3.2h-2.2l3.3-10zm2.9 4.9c1.1 0 1.9-.6 2.2-1.5.3-1-.2-1.4-1.3-1.4h-2.2l-1 2.9h2.3zm11.1-5h2.1l1 10.2h-2.3l-.2-2.3h-4.3l-1.7 2.3h-2.3l7.7-10.2zm.4 6l-.3-3.3-2.4 3.3h2.7zm4.8-.8c.9-2.9 3.9-5.2 7-5.2 1.9 0 2.7.7 3.4 1.7l-1.8 1.5c-.5-.7-1.1-1.1-2.2-1.1-1.7 0-3.4 1.4-4 3.2-.6 1.7.2 3.2 1.9 3.2 1.2 0 2-.5 3.1-1.2l.9 1.5c-1.4 1.1-2.8 1.7-4.7 1.7-3.2-.1-4.6-2.4-3.6-5.3zm14.4-3H270l.7-2.1h8.4l-.7 2.1h-3.1l-2.7 8.1h-2.2l2.7-8.1z"/></g><path d="M250.6 340.5c-4.2 1.7-8.4 3.7-12.6 5.7.2-.5.3-.9.4-1.4.1-.4-.4-.6-.7-.2-.1.2-.3.4-.4.5.1-.3-.3-.5-.6-.3l-.1.1c.2-.5-.5-.5-.8-.1l-.4.7c-.3.4-.8.7-1.3.8-.1-.2-.2-.4-.2-.7 0-.2-.2-.3-.3-.3 0-.2-.2-.4-.5-.2-.4.2-.7.4-1 .7-.2-.4-.9-.1-1.2.3v-.1c.2-.4-.1-.8-.6-.4-.8.6-1.3 1.5-1.6 2.3-.2.3-.5.5-.8.8-.1.1-.8.7-.9.7s-.1-.4 0-.7c0 0 0-.1.1-.1.5-.7 3.1-4.3 1.3-4.2a.55.55 0 0 0-.5.3c-.7 1-1.2 2.1-1.5 3.2-.1.2-.1.5-.2.8l-.2.2c-.7.9-1.7 2.3-2.9 2.8-.1-1.5.6-3.2 1.2-4.8.2-.7.5-1.3.8-2 .1 0 .2-.1.3-.1 1.3-1.1 1.8-2.6 1.2-3.7-.2-.3-.7 0-.8.3-.9 2-1.7 3.9-2.4 5.9-.6 1.7-1.3 3.6-1.1 5.2 0 .2.2.2.4.2 1.3-.3 2.5-1.5 3.4-2.7.1.2.2.3.4.3.6.2 1.5-.5 2.1-1.1 0 .2 0 .4.1.6s.3.2.5.2c.6-.2 1.1-.6 1.6-1.1.6-.2 1.1-.7 1.6-1.3.3-.2.5-.5.8-.8.1.1.1.3.2.4.2.3.8 0 1.2-.1.4-.2.7-.4 1-.6.2 0 .4-.1.7-.2 0 .1.1.1.2.2.2.2.5.1.8-.1-.1.2-.1.3-.2.5l-1.8.9c-.4.2-.5.8 0 .8.6 0 1.1-.1 1.7-.1.3 0 .5-.2.6-.4s.2-.4.3-.7c4.3-2.2 8.7-4.2 13.2-6 .3-.4.1-1.1-.5-.9zm-19.3 6.4c0 .1-.1.2-.1.3s-.1.2-.1.2c0-.1.1-.3.2-.5zm-1.2 1c0 .2-.1.5 0 .6-.1.1-.3.2-.4.3v-.8a3.04 3.04 0 0 0 .5-.7c-.1.3-.1.4-.1.6zm-57.2-10c-1.5 2.8-2.3 5.6-3.6 8.4-.6 1.4-1.3 2.7-2.2 4-.6.9-2 2.9-3.2 2.4-.3-.1-.4-.4-.3-.7 0-.1 0-.2.1-.2.1.1.4.1.6-.1.4-.2.7-.6.9-1s.1-.8-.2-.9-.7 0-.9.3c-.3.3-.5.7-.6 1.1-.2.4-.4.9-.4 1.4 0 .6.7.9 1.4.7.8-.2 1.6-.9 2.1-1.6.7-.8 1.2-1.6 1.7-2.4 1-1.7 1.7-3.5 2.4-5.2.8-2 1.5-4.1 2.6-6.1.2-.3-.2-.4-.4-.1zm-8.1 12.6c.1.2-.1.5-.3.6l-.2.2-.1.1c0-.1-.1-.1-.2-.1.1-.1.1-.3.2-.4.1-.2.5-.8.6-.4zm18.1-3.9c-.3.2-.6.3-.9.4h-.2a3.04 3.04 0 0 0 .5-.7c.1-.4-.4-.5-.8-.3-.3.2-.6.6-.6.9v.3c-.3.2-.9.6-1.2.5a5.73 5.73 0 0 0 1.1-1.1c.1-.1.1-.2 0-.3-.2-.2-.6-.3-.9-.1a1.59 1.59 0 0 0-.8 1c-.1.1-.1.2-.1.4-.4.2-.8.3-1.2.3.1-.1.3-.2.4-.4.2-.2.1-.4-.1-.4-.4-.1-.7.3-.8.6-.6.5-1.2 1-1.9 1.4-.2.1-.4.3-.5.2.3-.2.5-.4.8-.7.5-.5.9-1.4.4-1.6-.1-.1-.3 0-.4.1-.2.3-.5.6-.7 1l-.6.9c0 .1-.1.2-.1.3-.2.2-.5.3-.8.4h-.1c.1-.1.3-.2.4-.3.4-.3.8-.7.8-1.1s-.2-.7-.5-1c-.1-.1-.2 0-.3 0-.8.6-1.4 1.4-1.7 2.2-.1.3-.1.5 0 .7l-2.1 1.5c-.1.1-.3.2-.3.2-.1 0 0-.2 0-.3v-.6c0-.4.2-.9.3-1.3s.3-.8.5-1.1c.1 0 .2 0 .3-.1.5-.4.8-1 .7-1.5 0-.2-.3-.2-.4 0-1.3 1.5-2.1 3.3-2 4.9 0 .4.2.6.6.4.2-.1.4-.3.6-.4.3-.2.5-.4.8-.5.5-.3.9-.7 1.4-1.1.3 0 .6-.1.8-.2a4.67 4.67 0 0 0 1-.5c.1.2.3.3.5.2.3 0 .6-.3.8-.4l.8-.5c.3-.2.5-.4.8-.6.1.1.2.1.3.1.2 0 .5 0 .7-.1l.8-.3.1.1c.3.1.7.1 1-.1.3-.1.7-.3 1-.6.1 0 .2.1.3.1.5.1 1-.2 1.5-.5.5-.1.3-.6 0-.4zm-10.2 2.3c.3-.5.6-1 1.1-1.3.2.2.4.5.1.8-.1.2-.4.3-.6.5s-.4.3-.6.5c-.1 0-.1.1-.2.1 0-.1.1-.4.2-.6zm2.9-1.3c-.1.3-.4.6-.6.8l-.1.1c.3-.3.5-.6.7-.9zm4.6-1.1c-.2.2-.4.4-.7.6.2-.2.5-.6.7-.6zm1.2 0c0-.1.2-.2.2-.1s-.1.2-.2.3v-.2z" fill="#365da2"/><g class="Bp"><path d="M251.2 218.5c0-.1-.1-.2-.2-.3-2.1-.8-3.6-3.1-3.6-5.8 0-3.4 2.3-6.1 5.1-6.1h-30.9c-2.8 0-5.1 2.7-5.1 6.1s2.3 6.1 5.1 6.1h29.6 0z"/><path d="M237.4 195.4a7.6 7.6 0 0 0 0 15.2 7.6 7.6 0 0 0 0-15.2zm0 10.8c-1.7 0-3.2-1.4-3.2-3.2 0-1.7 1.4-3.2 3.2-3.2 1.7 0 3.2 1.4 3.2 3.2 0 1.7-1.4 3.2-3.2 3.2z"/></g><path d="M257.3 375.5c-.1.6-.4.9-.9 1.1-.9.4-2.4.3-4.1.1-.2 0-.4-.1-.6-.1h-.1-.1c-1.6-.1-1.5.4-4.6.4-3.6 0-4.8-1.2-4.9-1.7-.1-.4 1.4-.8 3.2-1.2.1 0 .2 0 .3-.1.2-.1.5-.1.7-.2 2.1-.5 4.1-1.1 4.8-3.1.7-2.1.6-8.4.6-8.4h6.3s-1.7 6.9-1.5 9c.1 1.1.6 1.4.8 2.3v.2c0 .6.1 1.1.1 1.7z" class="Br"/><path d="M264.6 307.5l-2 9.3c-1.1 5.2-1.9 10.7-1 16.6.1.8.2 1.6.2 2.5.2 10.5-4.5 29.4-4.5 29.4s-1.3.5-3.4.4c-1.1-.1-2.8-.8-2.8-.8s-.4-11.7-.5-27.5c0-11.4-2.3-26.5-2.7-35.4-.3-5.4.3-12.5.3-12.5s9.3-7.5 12.7-3.7c3.3 3.9 5.7 10.5 3.7 21.7z" fill="#415da5"/><path d="M261.6 333.4l.2 2.5c-7-10.1-8.5-32.1-8.5-32.1l7.7 3.7 1.7 9.3c-1.1 5.2-1.9 10.7-1.1 16.6z" fill="#355493"/><path d="M277.4 375.4c-.1.6-.4.9-.9 1.1-.9.4-2.4.3-4.1.1-.2 0-.4-.1-.6-.1h-.1-.1c-1.6-.1-1.5.4-4.6.4-3.6 0-4.8-1.2-4.9-1.7-.1-.4 1.4-.8 3.2-1.2.1 0 .2 0 .3-.1.2-.1.5-.1.7-.2 2.1-.5 4.1-1.1 4.8-3.1.7-2.1-.3-8.3-.3-8.3l5.8-.5-.2 9c.1 1.1.6 1.7.8 2.6v.2c.2.7.3 1.3.2 1.8z" class="Br"/><path d="M276.6 365.8s-1.5.7-2.6.9-3.3-.2-3.3-.2a141.81 141.81 0 0 0-3.2-19.7c-2.1-9.1-5.2-19.9-9.5-30.2-.9-2.2-4.7-12.5-5.4-15.1-2-7.9 0-7 0-7l17.1-2s2.1 1.1 3.1 12.2c.3 3.3.3 17.7.8 20.5.4 2.6.9 4.7 1.5 6.1 3.1 7.8 1.5 34.5 1.5 34.5z" fill="#415da5"/><path d="M277.4 375.5c-.1.6-.4.9-.9 1.1-1 .3-2.5.3-4.1.1-.2 0-.4 0-.6-.1h-.1-.1c-1.3-.1-1.5.2-3.1.3h-2.6c-2.8-.2-3.7-1.2-3.9-1.7-.1-.4 1.4-.8 3.2-1.2.5.2 2.7 1.2 5.4 1 2.4-.2 4.9-1.2 6.6-1.5v.2c.2.6.3 1.2.2 1.8zm-20.1 0c-.1.6-.4 1-.9 1.2-1 .4-2.5.3-4.1.1-.2 0-.4 0-.6-.1h-.1-.1c-1-.1-1.4.1-2.2.3h-4.4c-2.1-.3-2.9-1.2-3-1.6s1.4-.8 3.2-1.2c.5.2 2.7 1.3 5.4 1 2.4-.2 4.9-1.3 6.6-1.5v.2a6.96 6.96 0 0 1 .2 1.6z" fill="#b84c42"/><path d="M285 292.6l1.1 1.8c.6.6.7 1 1.2 1.2 1.1.5 3.1 1.9 3.2 4.8 0 0 0 1.6-1.1 1.1s-.6-.5-2.2-1.2c-1.5-.7-2.1-3-2.3-3.7l-1.3-1.7 1.4-2.3z" class="Br"/><path d="M250.4 241.3c-.6-4.7.9-12.3 10.3-11.1s12.4 10.5 10.5 14.6 2.7 5.1 4.2 9.5c1.2 3.8 1.7 8.5 3.7 10.6 6.5 6.8-6.3 17.3-14 15.1-14-4-15.8-4.6-15.3-15.6.3-5.6 4.6-7.8 1.9-9.5-6.8-3.8 0-2.9-1.3-13.6z" fill="#aa443e"/><path d="M266.3 285.6c1.9 4.9 2.7 9.2 2.7 9.2l-20.8.3s.3-16.8-.7-22.7 5.8-19 5.8-19c.1 0 .9-.1 2.3-.2l.5-2c.2-1.4.1-2.6.1-3.3 0-.4-.1-.6-.1-.6l6.8-2.1.2-.1.3 4.4c.3 3.3.7 3.9.8 4l5.8 1.2c0 .1-5.6 26-3.7 30.9z" class="Bn"/><path d="M279.8 280.5c-1-7.2-4.9-22-7.5-24.4-2.3-2.1-7.3-2.3-7.3-2.3h0c-1 1.6-4.6 5.6-8.9 4.9-2.4-.4-2.8-4.6-2.9-5.2v-.1h-.1c-.7.1-6.2 1-7.8 3.8-2.4 4.1-5 16.5-7.6 16.4-1.2-.1-13-4.5-13-4.5s-2 1.9-1.6 4.1c0 0 5.9 3.9 10.8 6.4.7.3 1.4.7 2 .9 1.8.8 3.3 1.2 4.1 1 .2-.1.5-.2.7-.3 1.1-.6 2.3-2 3.5-3.5.8-1 1.6-2.2 2.3-3.2v-.1c.3 3.9.6 8.2.3 11.6-.2 2.6-.4 8.1 0 9.5.9 3 7.6 3.8 13.9 3.5 3-.1 5-.3 6.6-.7 2.2-.5 3.2-1.4 3.9-3.1s-2.5-9.5-2.8-12.9c-.3-3.1.2-5.6 1-8.1 2.2 5.1 4.5 8.8 4.8 9.6.6 1.7 10.1 12.2 10.1 12.2s.8-.2 1.4-.6.9-1 .9-1c-1.5-3.9-6.8-13.9-6.8-13.9z" class="Bs"/><path d="M271.4 295.3c-.7 1.8-1.7 2.6-3.9 3.1-3-.6-4.9-6-5.9-8.7-1.2-3.1 4.9-18.9 6.5-18.8 1.2.1 1.4 2.2 1.5 3.2-.8 2.5-1.3 5-1 8.1.3 3.6 3.5 11.4 2.8 13.1z" fill="#f48931"/><path d="M224.9 270.3s-1-2.5-2.1-2.6-4.7-.7-4.9-.2c-.3.5 0 2.3.8 3s5.5 1.7 5.5 1.7l.7-1.9z" class="Bn"/><path d="M246.6 274.5l-2.3 3.2c-1.1 1.4-2.4 2.8-3.5 3.5-.3.2-.5.3-.7.3-.8.2-2.3-.3-4.1-1 1.1.1 2.1 0 3.1 0 1.8-.2 2.3-2.1 5.2-5 1.7-1.8 2.2-1.5 2.3-1z" fill="#e7a329"/><path d="M263.1 245.5s-2.6 4.8-7 5.7c.2-1.4.1-2.6.1-3.3 0-.4-.1-.6-.1-.6l6.8-2.1.2.3z" fill="#cb8757"/><path d="M254.3 247.8s8.4 1.7 9.4-3.6c1-5.2 2.7-8.5-2.6-9.8s-6.7.5-7.5 2.2c-.8 1.6-1.5 10.6.7 11.2z" class="Bn"/><path d="M265.2 234.7l-3.5-4s-4.2-1.4-8.3 2.7c-1.8 1.8-1.5 5.2-.6 7.2 0 0 1.5-4.3 4.1-5.2.6-.2 1.2-.6 1.7-1 .3.8 1 2 2.3 3.4 2.8 3 2.2 9.1 2.2 9.1s4.6-9.4 2.1-12.2z" fill="#aa443e"/><path d="M256.9 245.2s-.2.6-1.8.3c0 0-1.3-.2-1.2-.9 0 0 1.3-.3 3 .6z" fill="#fff"/><g class="Bt"><path d="M306.9 376.3h12.9.1c.4-.2.5-.9.6-1.7.1-1.5-.1-3.3-.1-3.3s-4.4-3.7-5.1-.9c-.7 2.7-4.3 3.9-6.4 4.2-1.8.2-2 1.5-2 1.7z"/><path d="M318.5 376.3h13.6c.9-.8.4-5 .4-5s-4.4-3.7-5.1-.9c-.7 2.7-4.3 3.9-6.4 4.2-.2 0-.3 0-.4.1-1.4.2-2 1.2-2.1 1.6z"/></g><path d="M326.3 302.4v1.4l-1.1 40.1c0 .4 0 .9-.1 1.3v.7c-.3 6-1.1 11.8-1.9 16.4-1 5.9-2.1 10-2.1 10-4 .8-6.5-.7-6.5-.7s-1.1-9.2-1.5-14.8c-.1-1.8-.8-8-1.6-15.5l-2-18.5c0-.3-.1-.6-.1-1l-2-17.7 7-.7 11.9-1z" class="Bs"/><path d="M323.2 362.3l-11.7-21-2-18.5c0-.3-.1-.6-.1-1l-2-17.7 7-.7 11.9.2-3.1 58.7z" fill="#f48931"/><path d="M308.6 304.3s6.6 32.4 11.9 48 5.4 20 5.4 20 4.9 1.1 7.1-.2c0 0 1.2-29.6-2-37.5-2.1-5.2-3.8-16.3-3.2-20.3s1.1-12 1.1-12l-20.3 2z" class="Bs"/><path d="M316.6 260.8l7.3-2.1s-1.2-3-1.7-6.2c-.2-1.8-.2-3.5.4-4.9 0-.1.1-.2.1-.2.3-.5.1-.8-.3-.8-.6-.1-1.9.3-2.5.8h-.1c-.8.7-4.9 2.7-5.1 2.9v.1h0c0 .2-.1.4-.1.8-.1 1.9-.3 6.5 2 9.6z" class="Bn"/><path d="M327.1 306c-1.5 1.1-4 1.5-6.7 1.5-3.1-.1-6.6-.7-9.4-1.5-1.5-.4-2.8-.9-3.7-1.4-4.2-2.2-3.6-5-3.5-15.8.1-11 6.9-25.2 8.1-27.6 2.2-4.2 11.9-2.7 11.9-2.7 2.1 1 2.9 4.4 3.1 8.9.2 5-.2 11.2-.2 16.9 0 4.7.9 8.9 1.5 12.3.9 4.4 1.3 7.7-1.1 9.4z" fill="#739af0"/><path d="M328.3 296.5c-1.9 4-5.6 8.4-7.9 11-3.1-.1-6.6-.7-9.4-1.5-1.2-2.8-1.7-7.5-.6-15.2.8-5.9 6.8-29.5 6.8-29.5 4.8-.6 7.9 2 9.7 6.1.2 5-.2 11.2-.2 16.9 0 4.6.9 8.7 1.6 12.2z" fill="#4a75cb"/><path d="M305.6 315.3h4.4v-1.4c0-2.3 1.8-4.1 4.1-4.1h3.6c2.3 0 4.1 1.8 4.1 4.1v1.4h4.4c1.3 0 2.4 1.1 2.4 2.4v11.2c0 1.3-1.1 2.4-2.4 2.4h-20.7c-1.3 0-2.4-1.1-2.4-2.4v-11.2c.1-1.3 1.2-2.4 2.5-2.4zm14.7-1.4c0-1.4-1.1-2.5-2.5-2.5h-3.6c-1.4 0-2.5 1.1-2.5 2.5v1.4h8.6v-1.4z" class="Bt"/><path d="M314.7 307s-2.5 4.9-1.3 6.8c1.3 1.9 5.8-.5 6.2-1.6s0-6.3 0-6.3l-4.9 1.1z" fill="#da935b"/><path d="M325.6 268.8s-.9 13.5-.9 19c0 5.6-4.4 20.4-4.4 20.4s-2.9.2-4.1.1c-1.3-.2-2.1-.8-2.1-.8s1-17.5-.9-24.2-2-20.2-2-20.2 1-2.9 7.2-2c7.3 1.1 7.2 7.7 7.2 7.7z" fill="#739af0"/><path d="M322.5 252.2s1.7 5.3 1.3 6.2c0 0-9 1.2-12.7 4.8 0 0 1.2-5.1 2.7-6.4s8.7-4.6 8.7-4.6z" fill="#4a75cb"/><path d="M314.7 251.2c.8 0 5.9 0 7.3 1.2.1 0 .1.1.1.1-.2-1.8-.2-3.5.4-4.9-.1-.4.1-.9-.1-1.1-.5-.5-1.9.3-2.5.8h-.1c-.8.7-4.9 2.7-5.1 2.9v.1h0c.1.2.1.5 0 .9z" fill="#cb8757"/><path d="M311.4 250.9s8.4 1.6 9.3-3.6c.9-5.3 2.6-8.6-2.7-9.8-5.3-1.3-6.7.6-7.5 2.3-.6 1.5-1.2 10.5.9 11.1z" class="Bn"/><path d="M322.3 249.5s-.4-.3 1.3-2.9 2.5-1.9 2.5-4.6 1-4.4-2.2-6.2-2.7-3.5-4.6-3.9-4.7 1.2-6.4.9c-1.6-.3-6.8 6.4-3.5 8 0 0 1.5.1 2.6-.6s5-1.3 5.5-.1c.6 1.1 3.1 8.5 4.8 9.4z" class="Bt"/><path d="M175.5 373.9h3.1s-4.6-5.1-6-7.7l-3.9-7.2-5.1 1.3 6.5 9.1 5.4 4.5z" class="Bo"/><path d="M146.8 234.3c-1.2-.7-2.6-.7-3.6-.7.3-.3.8-.4.8-.4-.6-.1-2 .5-2 .5-8.5-3.3-9.8 9.2-9.6 12.1s-2.8 3.8-7.3 6.1c-8.4 4.4-9.2 10.2-9.2 10.2.1 0 .1.1.2.1.4-.7 1.3-2 2-2.2 0 .1-.9 1.8-1.2 2.8 2.5 1.9 7.1 6.1 10.4 9 0-.6 0-1.4.2-1.8l.4 2.4 2.9 2.7c-.2-2.3 10.6-14.7 16.2-18.4 1.4-2 1.9-5.6 1.9-5.9-.2 2.8-.7 4.4-1.2 5.3 4.9-4.2 2.2-20-.9-21.8z" class="Bm"/><path d="M146.8 257.1s-2.7 1.4-4.8.9c-1.9-.5-3.2-3.1-3.2-3.1.8-.2 1.1-1.3 1-6.2l.4.1 6.3 1.2-.1 3.8c-.1 1.6 0 3.1.4 3.3z" class="Bo"/><path d="M139.7 236.4s3.1-3.3 7-.2c0 0-2.3-.4-7 .2z" fill="#e37970"/><path d="M146.5 250l-.1 3.8c-3.5-.1-5.4-3.3-6.1-5.1l6.2 1.3z" fill="#d68d5d"/><path d="M139.6 248.1s-1.8-2.9-2.3-5.4c-.3-1.8.6-8.3 7.2-7.4 0 0 1.9.2 3.7 1.4 1.4 1 3.5 3.1 1.2 8.8l-.6 1.9-9.2.7z" class="Bm"/><path d="M171.5 363.7l-3.3.1-3.6.1s-8.3-9.3-13-24.1l-.3-1c-2.6-7.4-7.8-16.8-10.6-25.2l-1.2-3.8c-.1-.4-.2-.8-.3-1.1-2.1-7.1-2.6-11.8-3.2-16.8l17.8.1c-.1-.1 5.5 34.1 17.7 71.7z" fill="#80bdcc"/><path d="M153.2 280.4c.2 9.6 1.4 13.7 1.4 13.7s-8.6 4.4-18.9 1.2c-.1 0 .7-39.6 3.6-40.6.7.8 2.7 1.6 4.4 1.6 2 0 2.7-.9 2.6-1.9 2.2 1.1 6.6 12.2 6.9 26z" fill="#e7f1fd"/><path d="M147.7 251.8s-8.3.1-8.3-5c0-5.2-1.1-8.6 4.2-8.9s6.3 1.7 6.8 3.4c.4 1.6-.6 10.3-2.7 10.5z" class="Bo"/><path d="M150.1 238.3c-1.3-1.6-2.2-1.2-2.8-.7-1.8-2.7-7.5 1.2-7.5 1.2-2.8 2.7-3.2 5.8-3.2 5.8s1.5.9 5 0c2.7-.7 4.7-4.6 5.5-6.2.5.4 1.5 1.5 1.8 2.4.4 1.3.6 4 1.4 3.9 0 .1 1.7-4-.2-6.4z" class="Bm"/><path d="M181.1 260.4s1.2-4.2 5.8-3.6c.5.2 2.1.8 1.1 2.5-.7 1.2-1 .6-2.2 2.2s-2.4 2-3.8 1.8l-.9-2.9zm-39.7 113.2l-.8-4.2.1-9.5H135l2.2 9.1c0 .4.2 2.1-.4 3.8 0 0-.6 2.5 1.9 2.6 2.4 0 3-.2 2.7-1.8z" class="Bo"/><path d="M136.7 372.8s-.5 2.7-.2 3.9h2.5 2.7s0-2.9-.4-4c0 0-1.8 2.7-4.6.1zm41.9 1.1s-.1 0 0 0c-1.3 0-2.5-.4-3.6-1.7-3.4-3.8-5.3-4.3-6-4.3-.6 1.2-1.2 2.5-.4 4l1.2 4.8h1.3v-4.5c.9.2 1.7.6 2.1 1.4.9 1.8 1.6 3.1 2.4 3.1h5.9s-.1-1.5-2.9-2.8z" fill="#c45446"/><path d="M181.1 260.4l-7.4 3.9-5.5 2.5a2.92 2.92 0 0 1-3.3-.7c-3-3.5-10.6-10.9-18.5-11.9h0 0s4.8 11.9 4.9 14.3.6 39.3.6 39.3-.3 1.7 3 1c3.2-.7 4.1-1.4 4.1-1.4s-3.1-22.7-2.3-30.6c.2-1.6 0-3.3-.3-5.1 4.8 2.9 10.5 4.2 10.5 4.2s4.3-1.9 10.1-6.1c1.8-1.3 5-6.4 5-6.4l-.9-3z" class="Bp"/><path d="M168.2 363.8l-3.6.1s-8.3-9.3-13-24.1l-.3-1c-2.6-7.4-7.8-16.8-10.6-25.2l-1.2-3.8c-.1-.4-.2-.8-.3-1.1l3-2.2s8.9 14.4 11.7 28c2.2 11.6 11.8 25.7 14.3 29.3z" fill="#5f9aa8"/><path d="M158.7 274.5l-.2.5-9.3-3s-.1-.1-.1-.3c.1-.2.2-.2.2-.2l9.4 3z" class="Bm"/><path d="M142.4 335.6c.1 6.6-.3 21.8-1.1 28H138h-2.6c-2.2-10.9-3.7-19.9-4.8-27.7l-2.4-16.6c-.6-4.7-1.1-8.7-1.2-12.1 0-.5 0-1-.1-1.5v-1.5l17.4-1.7c-.2 11.6-2 29.2-1.9 33.1z" fill="#80bdcc"/><path d="M138 363.6h-2.6c-2.2-10.9-3.7-19.9-4.8-27.7l-2.4-16.6c-.6-4.7-1.1-8.7-1.2-12.1l6.4 3.8s-4.1 1.4-2.5 12.3c1.5 10.8 5 38.7 7.1 40.3z" fill="#5f9aa8"/><path d="M138.9 307.1s-1.2 4.4-5.5 3.9c-4.2-.6-10.3-3.1-10.3-3.1l4.1-13.2c2.7-9.1 6.1-20.8 7.7-28.2.4-2.1.8-3.8.9-5l3.6-6.8s5.2 11.7 5.5 14.7c.2 2.8-6 37.7-6 37.7z" class="Bp"/><path d="M138.7 275.5c-.2 4.8-1.3 14.1-11.4 19.1h-.1c2.7-9.1 6.1-20.8 7.7-28.2 1.8 2.7 3.9 6.4 3.8 9.1z" fill="#0c3b6d"/><path d="M156.9 272.8c0 .6-1.7 4.6-4.6 7-.6.5-1 .7-1.4.8-4.8 1.6-8.9 2.5-12.3 2.9v-5.3l11.4-.7c.3-.6.8-1.3.9-2.1.3-1.5 1-2.5 3.1-2.8 2-.3 2.9-.3 2.9.2z" class="Bo"/><path d="M185.1 255.4l9.4 6.1c.1.1.2.3.2.5l-4.5 15.3c-.1.2-.3.3-.5.1l-9.1-6.8c-.1-.1-.2-.2-.1-.3l4.2-14.7c-.1-.2.2-.3.4-.2z" class="Bm"/><path d="M184.7 255.2l9.5 6.2c.1.1.2.2.1.4l-4.5 15.3c-.1.2-.3.3-.5.2l-9.1-6.8c-.1-.1-.2-.2-.1-.3l4.2-14.7c0-.4.2-.4.4-.3z" fill="#1c468a"/><path d="M184.7 255.8l9.2 5.9-4.2 13.5-8.7-6.3z" fill="#fff"/><circle cx="184.3" cy="272.3" r=".4" class="Bm"/><path d="M187.8 273.1l-4.5-3.1 3.1-12.4 4.5 3.1z" fill="#fff"/><g opacity=".5" fill="#699dee"><path d="M188.7 265.9l-2.9-2.1s-.1-.1 0-.2v-.1c0-.1.1-.1.1-.1l2.9 2.1s.1.1 0 .2v.1c0 .1-.1.1-.1.1z"/><use xlink:href="#D"/><use xlink:href="#D" x="-0.2" y="0.8"/><path d="M188.9 265.2l-2.9-2.1s-.1-.1 0-.2v-.1c0-.1.1-.1.1-.1l2.9 2.1s.1.1 0 .2v.1l-.1.1zm-.6 2.1l-2.9-2.1s-.1-.1 0-.2v-.1c0-.1.1-.1.1-.1l2.9 2.1s.1.1 0 .2v.1c0 .1 0 .2-.1.1zm.2-.7l-2.9-2.1s-.1-.1 0-.2v-.1c0-.1.1-.1.1-.1l2.9 2.1s.1.1 0 .2v.1c0 .1-.1.2-.1.1zm-.7 3l-.7-.5s-.1-.1 0-.2h0c0-.1.1-.1.1-.1l.7.5s.1.1 0 .2h0c0 .1-.1.1-.1.1zm-2.2-1.6l-.7-.5s-.1-.1 0-.2h0c0-.1.1-.1.1-.1l.7.5s.1.1 0 .2h0c0 .1-.1.2-.1.1z"/></g><g fill="#476ba7"><path d="M187.6 271.5s-.1 0 0 0l-1.1-.7c-.1 0-.1-.2-.1-.3l.2-.6c0-.1.1-.2.1-.2l1 .7c.1 0 .1.2.1.3l-.2.6c.1.1 0 .2 0 .2zm-.9-1.8l-.1.1-.2.6v.3l1 .7.1-.1.2-.6v-.3l-1-.7zm-1.3.3l-1.1-.7c-.1 0-.1-.2-.1-.3l.2-.6c0-.1.1-.2.1-.2l1 .7c.1 0 .1.2.1.3l-.2.6c.1.1 0 .2 0 .2zm-.9-1.8l-.1.1-.2.6v.3l1 .7.1-.1.2-.6v-.3l-1-.7zm2.2-8.9c.1-.2.2-.4.3-.3s.1.1.1.2l-.1.1c0-.1 0-.1-.1-.2 0 .1 0 .1-.2.2.1.2.1.3.1.4h.1v.2c-.1.1-.1.1-.2 0v-.6z"/><path d="M187.1 259.6c.1-.2.2-.3.3-.3.1.1.2.3.1.5s-.2.3-.3.3-.1-.3-.1-.5zm.3.2c0-.1 0-.3-.1-.3s-.1 0-.2.2c0 .1 0 .3.1.3s.2 0 .2-.2z"/><path d="M187.7 259.5h0l.1.7.1-.5.1.1-.2.8h-.1l-.1-.6-.1.5-.1-.1.3-.9z"/><use xlink:href="#E"/><path d="M188.5 260.1l.2.1s.1.1.1.2v.2c0 .1-.1.2-.1.2v.3l-.1-.1v-.3h-.1l-.1.3-.1-.1.2-.8zm.1.5c.1-.1.1-.2.1-.2l-.1-.1v.3h0z"/><path d="M189 260.4h0v1l-.1-.1v-.2l-.2-.1-.1.2-.1-.1.5-.7zm0 .6v-.3l-.1.2.1.1z"/><path d="M189.2 261c.1-.2.2-.4.3-.3s.1.1.1.2l-.1.1c0-.1 0-.1-.1-.2 0 .1-.1.1-.2.2.1.2.1.3.1.4h.1v.2c-.1.1-.1.1-.2 0s-.1-.4 0-.6z"/><use xlink:href="#E" x="1.5" y="1"/></g><g fill="#365da2"><path d="M187.9 270.4c-.2 0-.3.1-.5.2v-.1s0-.1 0 0c0 0 0-.1 0 0 0 0 0-.1 0 0h0-.1v-.1-.1s-.1.1-.1.2v-.1c0-.1.1-.3.1-.3 0 .1-.1.2-.1.2v.1c0 .1-.1.2-.1.2 0-.1 0-.3.1-.4v-.2c.1-.1.1-.2.1-.3 0 .1-.1.3-.1.4s-.1.3-.1.4c.1 0 .1-.1.1-.1h.1v.1h.1l.1-.1h-.1v.1h.1v-.1c.1.2.2.1.4 0 0 .1 0 0 0 0zm-.8.1zm0 0s0 .1 0 0c0 .1 0 .1 0 0 0 .1 0 0 0 0zm-2.1-2.3c-.1.2-.1.4-.2.6 0 .1-.1.2-.1.3s-.1.2-.1.1v-.1-.1-.1.1.1.1s.1 0 .1-.1c0 0 .1-.1.1-.2s.1-.3.1-.4c.1 0 .1-.2.1-.3.1 0 0-.1 0 0zm-.4.8c0 .1 0 .1 0 0 0 .1 0 .1 0 0 0 .1 0 .1 0 0 0 .1 0 .1 0 0 0 .1 0 .1 0 0 0 .1 0 .1 0 0z"/><path d="M185.4 269.2c-.1 0-.1 0 0 0-.1 0-.1 0 0 0-.1 0-.1 0 0 0-.1-.1-.1-.1 0 0-.1-.1-.1-.1 0 0-.1 0-.1 0 0 0h-.1c-.1 0 0-.1.1 0-.1-.1-.1-.1 0 0l-.1-.1v.1l-.1.1v-.1.1.1-.1-.1l-.1.1v.1l-.1.1v-.1-.1-.1c-.1.1-.1.2-.1.4v.1l.1-.1c.3-.4.3-.4.4-.4-.1 0-.1 0 0 0-.1 0-.1 0 0 0zm-.4-.1s0-.1 0 0c-.1.1-.1.1 0 0-.1.1-.1 0 0 0zm.1 0c-.1 0-.1 0 0 0zm.2 0c-.1 0-.1 0 0 0-.1 0-.1 0 0 0zm0 0z"/></g><path d="M159.4 275l-.7-.5-.2.6z" class="Bm"/><path d="M139.3 254.5s-8.7.6-10.7 5.2c-2.1 4.6-2.7 20-.1 24.5 0 0 3.6 1 10-.2h.2s2-5 .2-6c0 0-5.4.3-4.8-1.5s5.2-22 5.2-22z" class="Bp"/><defs ><path id="B" d="M181.1 285.2h78.6c1 0 2-.8 2.2-1.8l.2-.7c.2-1-.4-1.8-1.3-1.8h-78.6c-1 0-2 .8-2.2 1.8l-.2.7c-.2 1 .4 1.8 1.3 1.8z"/><path id="C" d="M185.7 266.9h78.6c1 0 2-.8 2.2-1.8l.2-.7c.2-1-.4-1.8-1.3-1.8h-78.6c-1 0-2 .8-2.2 1.8l-.2.7c-.3 1 .3 1.8 1.3 1.8z"/><path id="D" d="M189.2 263.7l-2.9-2.1s-.1-.1 0-.2v-.1c0-.1.1-.1.1-.1l2.9 2.1s.1.1 0 .2v.1c0 .1 0 .1-.1.1z"/><path id="E" d="M188.2 260.1l-.1-.1v-.2l.3.2v.2l-.2-.1-.1.7-.1-.1.2-.6z"/></defs></svg>