<svg xmlns="http://www.w3.org/2000/svg" xmlns:xlink="http://www.w3.org/1999/xlink" viewBox="0 0 400 520" xmlns:v="https://vecta.io/nano"><style><![CDATA[.Bh{letter-spacing:1}.Bm{fill:#699dee}.Bn{fill:#d86713}.Bo{fill:#e49963}.Bp{fill:#2b478b}.Bq{fill:#82b479}.Br{fill:#a8d29f}.Bs{fill:#f1a34f}.Bt{fill:#163560}.Bu{fill:#233862}.Bv{font-family:Roboto-Medium}]]></style><path d="M63.4 363.7s-43 7.9-56.7-22c-17.8-38.8 18.7-68.2 46.7-62.7 61 11.9 46.3-119.8 144.2-92.9 27.5 7.6 101.9-37.3 122.7 34.7 4.9 17.1 22.4 19 47.8 29.9 49.7 21.3 27 113.4-8.5 113.8-35.5.2-296.2-.8-296.2-.8z" fill="#ebf2f9"/><path d="M302.112 364.225h-25.3v-94.4h25.3z" class="Bq"/><path d="M283.528 364.225h-18.6v-94.4h18.6z" class="Br"/><circle cx="274.6" cy="354.2" r="4.2" class="Bq"/><path d="M339.258 364.225h-25.3v-94.4h25.3z" class="Bm"/><path d="M320.774 364.225h-18.6v-94.4h18.6z" fill="#afcdfb"/><circle cx="311.7" cy="354.2" r="4.2" class="Bm"/><path d="M307.6 279.4h8.3V329h-8.3z" fill="#fff"/><path d="M376.032 364.225h-25.3v-94.4h25.3z" class="Bn"/><path d="M357.448 364.225h-18.6v-94.4h18.6z" class="Bs"/><circle cx="348.5" cy="354.2" r="4.2" class="Bn"/><path d="M344.3 279.4h8.3V329h-8.3zm-74.2.6h8.3v49.6h-8.3z" fill="#fff"/><path d="M216 251.5l8.9 106.2s.9 6.4-3.9 6.5h-39.2s5.9-1.3 5.9-4.4c-.1-3.6-10.4-109.3-10.4-109.3l38.7 1z" class="Bn"/><path d="M179.3 362.2h39.1c3.3 0 3.9-3 4-4.9 0-.9-.1-1.6-.1-1.6l-.2-2.8-.6-7-.5-6.2-.7-8-.6-6.7-6.3-75.5-38.7-1 7.4 76.5 1 10.2.3 3 .8 8.3.3 3.6.6 7.6c0 .3 0 .6-.1.9-.6 3.5-5.1 3.6-5.7 3.6z" fill="#ee9849"/><path d="M124.1 193.6H310l-21.8 87.5-3 11.9-10.1 40.7H86.8z" class="Bs"/><path d="M310 193.6l3 1-33.9 142.2-4-3.1z" fill="#ee9849"/><path d="M279.1 336.8H91.9l-5.1-3.1h188.3z" class="Bn"/><path d="M172.8 362.3h40.5v1.9h-40.5z" class="Bs"/><g class="Bn"><path d="M183.1 336.8l.3 1.5 38.1 7.7-.6-6.3-.2-2.9z"/><path d="M179.3 362.2h39.1c3.3 0 3.9-3 4-4.9l-37.9-7.1.6 7.6c0 .3 0 .6-.1.9-.6 3.4-5.1 3.5-5.7 3.5zm15.5-56l80.3 27.5 6.8-27.5z" opacity=".4"/></g><path d="M124.1 193.6H310l-28.1 112.6H94z" class="Bs"/><path d="M175.9 320.5c.5-2.8 3.2-5 6-5s4.6 2.2 4 5c-.5 2.8-3.2 5-6 5-2.7 0-4.5-2.3-4-5z" class="Bn"/><path d="M102.7 301.4h174l19.7-78.5 1.5-6.1 1.3-5.1 3.1-12H130.8l-3.3 12-1.5 5.1-1.6 6.1z" fill="#e9f3fe"/><path d="M130.8 199.7h171.5l-3.1 12H127.5z" class="Br"/><path d="M294 203.6c.8 0 1.3.7 1.1 1.5s-1 1.5-1.9 1.5c-.8 0-1.3-.7-1.1-1.5.3-.8 1.1-1.5 1.9-1.5zm-5 0c.8 0 1.3.7 1.1 1.5s-1 1.5-1.9 1.5-1.3-.7-1.1-1.5c.3-.8 1.1-1.5 1.9-1.5zm-7.2 1.5c.2-.8 1-1.5 1.9-1.5.8 0 1.3.7 1.1 1.5s-1 1.5-1.9 1.5c-.8 0-1.3-.7-1.1-1.5z" fill="#e9f3fe"/><path d="M39.9 353.4s-2.2 2.1-1.8 3.5c.4 1.5 2.4 2.4 2.7 4.2s1.4 2.8 2.3 2.8h4.6s.7-1.3-1-1.6c-1.7-.4-2.4-2.5-2.3-4.4s-.2-4.5-.2-4.5l-3.7-.9-.6.9zm40.2 10.4H67.8c-.1 0-.2 0-.2-.1-.8-.4-.6-3.5-.5-4.5v-.3s4.3-3.5 4.9-.8c0 .1 0 .2.1.2.7 2.5 4.1 3.6 6 3.9 1.5.3 1.9 1.2 2 1.6z" class="Bu"/><path d="M77.6 293l-1.4 18-2.4 32.9c-.2 5.4-1.1 14-1.1 14s-2.1 2.1-6.2 1.2c0 0-3.7-12.3-4.7-25.4v-.6l-2.5-41.3 18.3 1.2z" class="Bm"/><path d="M77.6 293l-1.4 18-14.4 22.8v-.6l-2.5-41.3 18.3 1.1z" fill="#4a75cb"/><path d="M74.6 293.9S62.8 323.6 55 337.5l-10.2 17.8s-4.5-1.8-4.9-3c0 0 3-26.9 8.2-33.5 2.9-3.7 6.4-14.8 6.6-18.7s1.1-11.6 1.1-11.6l18.8 5.4z" class="Bm"/><g fill="#ffb27d"><path d="M86.6 285.7l.7 1.3s3.4.5 2.5 4.1c0 0-.5 1.5-1.5 1-.9-.5-.5-.4-1.8-1.1-1.4-.6-2.1-1.8-1.8-2.9l-.2-1.2 2.1-1.2zm-18.1-37.5c.5-3.1.5-4.9.5-4.9l-6-4.8c.2 6.7-4 9.9-4 9.9s8 3.9 12.6 2.5c.1-.2-1.1-1.7-3.1-2.7z"/><path d="M70.5 243.1s-7.6 1.3-8.4-3.5c-.7-4.8-2.2-7.8 2.7-8.8 4.8-1 6.1.7 6.7 2.2s1 9.6-1 10.1z"/></g><path d="M62.2 239.9s.2-6.4 7.1-7.4c4.8-.7 1.9-4.7 1.3-5.3l-7.4 1.5c-7.8 1.7-1.8 10.3-1 11.2z" class="Bt"/><path d="M85.8 287.6c1-1 1.8-2.4 1.8-2.4l-9.4-11.9c-.7-1.1-6-19-6-19l-13.3-2.7s11.1 22.9 13 25.7c3 4.6 12.2 11.5 12.2 11.5s.9-.4 1.7-1.2z" class="Bq"/><path d="M78.1 293.6c-.1.1-.3.2-.5.2-1.7 0-6.8.9-11.1.5-3.6-.3-6.8-1.4-10.2-3-.5-.2-1.5-.8-1.5-1.3 0-.6.1-1.4.1-2.4.2-3.5.7-9.6.3-16.7-.1-1.3-.1-2.6-.1-3.9 0-9.5 1.8-18 5.6-20.8.3-.2 2.3.8 4.2 1.7 1.7.8 2.9.8 4.5.5l2.1 1.5c1.9 1.8 4.1 4.3 5 8 .8 3.2 1.3 8.9 1.5 14.8l.2 8v.1.8c.1 6.7 0 11.9-.1 12z" class="Br"/><path d="M55 287.7c.2-3.5.7-9.6.3-16.7-.1-1.3-.1-2.6-.1-3.9l2.9-6.6h4c-.1 0 2.8 20-7.1 27.2z" class="Bq"/><path d="M47.2 289l-.8 1.3s1.5 3.1-2 4.3c0 0-1.5.4-1.6-.7-.1-1 .1-.6-.1-2.1s.4-2.8 1.5-3.2l.9-.8 2.1 1.2z" fill="#ffb27d"/><path d="M45.2 289.3c1.4.3 3 .2 3 .2l4.8-14.4c.5-1.2 12.7-15.4 12.7-15.4l-5-12.6s-13.1 21.9-14.4 25c-2.2 5.1-3 16.5-3 16.5s.8.5 1.9.7z" class="Br"/><text><tspan class="Bh Bp Bv" font-size="12" x="167.498" y="243.248">Job </tspan><tspan x="195.498" class="Bh Bp Bv" font-size="15" y="243.248">search</tspan></text><path d="M252.4 248.3h-88.8c-5.3 0-9.6-4.3-9.6-9.6h0c0-5.3 4.3-9.6 9.6-9.6h88.8c5.3 0 9.6 4.3 9.6 9.6h0c0 5.3-4.3 9.6-9.6 9.6z" fill="none" stroke="#2b478b" stroke-miterlimit="10"/><path d="M310.6 359.5l-1.8 7.6h-2.7l-.1-7.6zm-22.8.3l-5.2 7.3-2-2.5 3.1-5.8z" class="Bo"/><path d="M301.2 259.3c.9-.5 2.1-.6 2.8-.5-.2-.2-.6-.3-.6-.3.5-.1 1.6.4 1.6.4 6.8-2.6 7.8 7.4 7.7 9.7s2.3 3.1 5.8 4.9c6.7 3.5 7.3 8.1 7.3 8.1-.1 0-.1.1-.2.1-.3-.6-1-1.6-1.6-1.8 0 .1.7 1.5.9 2.3-2 1.5-5.7 4.9-8.3 7.2 0-.5 0-1.1-.2-1.5l-.3 1.9-2.3 2.2c.2-1.9-8.5-11.7-13-14.7-1.1-1.6-1.5-4.5-1.5-4.7.2 2.3.6 3.5.9 4.2-3.7-3.5-1.5-16.1 1-17.5z" class="Bt"/><path d="M301.1 277.4s2.2 1.2 3.8.7c1.6-.4 2.6-2.4 2.6-2.4-.7-.1-.8-1-.8-4.9l-.3.1-5 1 .1 3.1c0 1.1-.1 2.3-.4 2.4z" class="Bo"/><path d="M301.4 271.8l.1 3.1c2.8-.1 4.3-2.6 4.9-4.1l-5 1z" fill="#d68d5d"/><path d="M306.9 270.3s1.5-2.3 1.8-4.3c.3-1.4-.5-6.7-5.7-5.9 0 0-1.5.2-3 1.1-1.1.8-2.8 2.4-1 7l.5 1.5 7.4.6z" class="Bt"/><path d="M281.4 362.6l2.7.1 2.9.1s6.6-7.4 10.4-19.2l.3-.8c2-5.9 6.3-13.4 8.5-20.1.4-1.1.7-2.1 1-3l.3-.9c1.6-5.7 2.1-9.4 2.6-13.4l-16.1.1c-.2-.2-2.8 27.1-12.6 57.1z" class="Bp"/><path d="M296 296c0 7.6-1.1 10.9-1.1 10.9s6.9 3.5 15.1.9c.1 0 6.1-1.2 6.1-1.2l-1.9-5.9c-1.7-3.7-2-5.5-2.2-6.6-.4-2.1-.4-4.3-.2-6.4.5-5.5 2-10.1 2-10.1-2.2-.5-4.3-1.4-6.6-2.3-.5.7-2.2 1.4-3.6 1.3-1.6 0-2.2-.7-2.1-1.5-1.7 1-3.1 1.9-3.1 1.9-1.5 2.6-4.5 5.1-4.7 9 0 1 2.3 9.8 2.3 10z" fill="#e7f1fd"/><path d="M286.7 284.7c2.4-2.8 8.5-8.7 14.8-9.5l-5.4 10.6s-.3 1.8-1.9 2.9c-3.9 2.6-9 3.7-9 3.7s-3.4-1.5-8-4.9c-1.5-1.1-4-5.1-4-5.1l.7-2.3s4.4 2.4 5.9 3.1c.9.4 2.9 1.4 4.4 2 .8.5 1.8.2 2.5-.5z" class="Bm"/><path d="M300.5 273.2s6.6.1 6.6-4 .9-6.9-3.4-7.1c-4.2-.2-5.1 1.3-5.4 2.7s.4 8.3 2.2 8.4z" class="Bo"/><g class="Bt"><path d="M300.7 262s1.8 4.8 4.6 5.6c2.8.7 4 0 4 0s-2.1-1.7-2.6-4.7c0-.1-4.6-3.2-6-.9z"/><path d="M301.1 262.4s-1.4 1.1-1.7 2.1c-.3 1.1-.5 3.2-1.1 3.1 0 0-1.4-3.3.2-5.2s2.6 0 2.6 0z"/></g><path d="M273.8 280.1s-.9-3.4-4.6-2.9c-.4.1-1.7.6-.9 2 .6 1 .8.5 1.8 1.8.9 1.3 1.9 1.6 3.1 1.5l.6-2.4zm35.1 86.6s-.2 1.5.3 3.1c0 0 .4 2-1.5 2.1-2 0-2.5-.2-2.3-1.4l.7-3.4 2.8-.4z" class="Bo"/><path d="M305.2 372.8l.1.1h3.9c.1 0 .1-.1.1-.1.2-1-.1-2.9-.1-2.9-2.3 2.1-3.7-.1-3.7-.1-.3.9-.3 3-.3 3z" class="Bn"/><path d="M275.8 370.7s3.7-4.1 4.8-6.2l2.7 1.4-6.1 5.7-1.4-.2v-.7z" class="Bo"/><path d="M273.5 372.8h5c.5-.4.9-1.2 1.5-2.3.3-.6 1-.9 1.7-1.1v3.4h1l1-3.6c.6-1.2.1-2.3-.4-3.2-.5 0-2 .4-4.7 3.4-.9 1-1.9 1.4-2.9 1.3-1.6.8-2 1.7-2.2 2.1z" class="Bn"/><path d="M301.5 275.2s-3.8 9.5-3.9 11.4-.5 31.4-.5 31.4.2 1.4-2.4.8-3.3-1.1-3.3-1.1 2.5-18.2 1.8-24.5 5.2-16.6 5.2-16.6l3.1-1.4z" class="Bm"/><path d="M284.1 362.6l2.9.1s6.6-7.4 10.4-19.2l.3-.8c2-5.9 6.3-13.4 8.5-20.1.4-1.1.7-2.1 1-3l.3-.9-2.4-1.8s-7.1 11.5-9.3 22.3c-2.1 9.3-9.7 20.6-11.7 23.4z" class="Bu"/><path d="M304.7 340.1c0 5.3.2 17.4.9 22.4h2.5 2.1c1.7-8.7 2.9-15.9 3.8-22.1l1.9-13.2c.5-3.8.9-7 1-9.6v-1.2-1.2l-13.9-1.4c.3 9.2 1.7 23.3 1.7 26.3z" class="Bp"/><path d="M308.1 362.5h2.1c1.7-8.7 2.9-15.9 3.8-22.1l1.9-13.2c.5-3.8.9-7 1-9.6l-5.1 3s3.3 1.1 2 9.8c-1.2 8.6-3.9 30.9-5.7 32.1z" class="Bu"/><path d="M307.5 317.4s1 3.5 4.4 3.1c3.4-.5 8.2-2.5 8.2-2.5l-3.2-10.6c-2.2-7.3-4.9-16.6-6.1-22.5-.4-1.7-.6-3-.7-4l-2.8-5.4s-4.2 9.4-4.4 11.8c-.4 2.2 4.6 30.1 4.6 30.1z" class="Bm"/><path d="M307.6 292.1c.2 3.8 1.1 11.3 9.1 15.3h.1c-2.2-7.3-4.9-16.6-6.1-22.5-1.5 2.2-3.1 5.1-3.1 7.2z" fill="#4a75cb"/><path d="M259.835 263.355l2.546-2.546 10.112 10.112-2.546 2.546z" class="Bp"/><path d="M325.1 326.1h0c-2 2-5.2 2-7.2.1l-48.5-48.5c-2-2-2-5.2 0-7.1l.1-.1c2-2 5.2-2 7.1 0l48.5 48.5c2 1.9 2 5.1 0 7.1zM201.4 202.4c-16.5 16.5-16.5 43.2 0 59.7s43.2 16.5 59.7 0 16.5-43.2 0-59.7-43.2-16.5-59.7 0zm56.4 56.4c-14.7 14.7-38.4 14.7-53.1 0s-14.7-38.4 0-53.1 38.4-14.7 53.1 0c14.6 14.6 14.6 38.4 0 53.1z" fill="#c65447"/><path d="M310.9 286.8l-3.7-11.4s4.7 1.4 7 2.6c0 0 1.5 1.9 2.4 6.3 0 0 1 10.5-1.2 14.3 0 0-6.8 1.4-17.6-2.4v-2.5l14.3.9-1.2-7.8z" class="Bo"/><path d="M307.2 275.4s6.9.5 8.5 4.2c1.7 3.7 2.2 15.9.1 19.5 0 0-2.9.8-8-.1h-.2s-1.6-4-.2-4.8c0 0 4.3.2 3.9-1.2-.5-1.5-4.1-17.6-4.1-17.6z" class="Bm"/><path d="M299 294.4s-.9-1.1-1.1-2.3-.8-2-2.5-2.2c-1.6-.2-2.3-.2-2.3.2 0 .5 1.3 3.7 3.7 5.6 2.3 1.8 2.2-1.3 2.2-1.3z" class="Bo"/><path d="M247.8 198.3l-50.3 50.3c.8 1.7 1.8 3.3 2.8 4.8l52.2-52.2c-1.4-1.2-3-2.1-4.7-2.9zm-3.4-1.5c-4.1-1.5-8.5-2.4-13.2-2.4-20.7 0-37.6 16.8-37.6 37.6 0 4.6.8 9.1 2.4 13.2l48.4-48.4zm-29.8 68.8c5 2.5 10.7 3.9 16.6 3.9 20.7 0 37.6-16.8 37.6-37.6a36.89 36.89 0 0 0-3.9-16.6l-50.3 50.3z" opacity=".4" fill="#fff"/><image width="100" height="100" xlink:href="7F1254B259EF6645.png" transform="matrix(.1957 0 0 .1957 185.0138 270.2056)" overflow="visible"/></svg>