<svg xmlns="http://www.w3.org/2000/svg" xmlns:xlink="http://www.w3.org/1999/xlink" viewBox="0 0 400 520" xmlns:v="https://vecta.io/nano"><style><![CDATA[.Bn{fill:#ffb27d}.Bo{fill:#233862}.Bp{fill:#fff}.Bq{fill:#e54a52}.Br{fill:#f99746}.Bs{fill:#f48938}.Bt{fill:#2b478b}.Bu{fill:#9cc4ff}.Bv{fill:#ed7d2b}]]></style><path d="M17.9 409.2s-38.7-118.9 6.8-173.7C94.1 152 161.4 277.2 192.8 219c51.8-96.4 221.5-71.6 169.6 48.2-27.2 62.9 63.9 53.5 26.7 143.6l-371.2-1.6z" fill="#e8f2fa"/><path d="M276 216.4h-7c-5.7 0-10.3-4.6-10.3-10.3v-6.2c0-5.7 4.6-10.3 10.3-10.3h7c5.7 0 10.3 4.6 10.3 10.3v6.2c0 5.6-4.7 10.3-10.3 10.3z" fill="#bad7fd"/><path d="M275.7 215.2h-6.4a9.39 9.39 0 0 1-9.4-9.4v-5.6a9.39 9.39 0 0 1 9.4-9.4h6.4a9.39 9.39 0 0 1 9.4 9.4v5.6c0 5.2-4.3 9.4-9.4 9.4z" fill="#dceaff"/><g fill="#b0d2f5"><circle cx="272.5" cy="193.2" r=".6"/><circle transform="matrix(.4857 -.8741 .8741 .4857 -27.367 342.0836)" cx="277" cy="194.3" r=".6"/><circle transform="matrix(.8403 -.5421 .5421 .8403 -62.2715 183.7681)" cx="280.8" cy="197.6" r=".6"/><circle cx="282.4" cy="202.6" r=".6"/><circle transform="matrix(.7071 -.7071 .7071 .7071 -64.8224 259.616)" cx="281" cy="208.1" r=".6"/><circle transform="matrix(.7071 -.7072 .7072 .7071 -68.4293 258.2289)" cx="277.5" cy="211.7" r=".6"/><circle cx="272.5" cy="213.1" r=".6"/><circle transform="matrix(.8741 -.4858 .4858 .8741 -60.6504 154.6216)" cx="267.9" cy="194.3" r=".6"/><circle transform="matrix(.5421 -.8403 .8403 .5421 -45.1547 312.4345)" cx="264.1" cy="197.7" r=".6"/><circle cx="262.5" cy="202.6" r=".6"/><circle transform="matrix(.7071 -.7071 .7071 .7071 -69.8164 247.5098)" cx="263.9" cy="208" r=".6"/><circle transform="matrix(.7071 -.7071 .7071 .7071 -71.3337 251.1752)" cx="267.5" cy="211.7" r=".6"/><circle cx="272.9" cy="202.6" r=".6"/><path d="M272.8 195.4h.2v7.2h-.2z"/><path d="M272.661 202.34l3.776-2.964.309.393-3.776 2.964z"/></g><g fill="#c3daf6"><path d="M349.9 382.7s-4.2-4.9-.3-8c0 0 2.9-1.8 5.2-1.6 0 0-3.3 5.6-2.3 6.2s3.3-6.5 3.3-6.5 6.6-.6 8.7.4c0 0-5.6 4.6-4.4 4.9s7.3-4.2 7.3-4.2 6.1 1 5.8 4.8c-.3 3.7-2.4 4.9-3.4 4.8-.9-.1-6.4-2.2-6.5-1.4s3.1 3.2 5.4 3.4c0 0-4.3 4.8-7.2 3.4s-3.1-3.6-4.9-4.4-3.3-.8-2.6 0 4 1.6 5 3.5c1 1.8 1.9 3-1 2.6-3-.4-7.8-2.6-8-5.1l-.1-2.8z"/><path d="M370.2 378.6s-16.6-.6-20.3 4.1c0 0-.8 2.4-3.3 4.6l-.4 1.1s2.9-3 3.9-3.2c0 0-1.6-5.9 20.1-6.6z"/><path d="M346.6 387.3s-3.6 2.6-3.8 7.4l.6.1s1.1-4.9 3.2-6.8 0-.7 0-.7zm-11.4-10.8s6.7-3.8 3.6-8.9c0 0-2.5-3.1-5.2-3.9 0 0 1.4 7.6 0 7.8s-1-8.6-1-8.6-7.1-3.4-9.8-3.1c0 0 4.4 7.4 3 7.2s-6.4-7.7-6.4-7.7-7.2-1.3-8.4 3 .7 6.4 1.8 6.7 8 .2 7.8 1.1-4.8 2.3-7.4 1.5c0 0 2.9 7.1 6.6 6.7 3.8-.4 4.9-2.7 7.2-2.9s4 .4 2.9 1.1c-1.2.6-5.1.2-7 1.8s-3.4 2.6.1 3.3 9.8.3 11-2.4l1.2-2.7z"/><path d="M314.3 363.6s18.8 6.1 20.9 12.9c0 0-.1 3 1.8 6.5v1.3s-2-4.6-3-5.2c-.1.1 4.1-5.8-19.7-15.5z"/><path d="M337 383s2.9 4.4 1.2 9.8l-.7-.2s.7-5.9-.8-8.9c-1.5-2.9.3-.7.3-.7z"/></g><g fill="#d0e3f9"><path d="M345.9 371.3s-8.8-5-4.7-11.7c0 0 3.3-4.1 6.8-5.2 0 0-1.9 10 0 10.3 1.9.2 1.3-11.3 1.3-11.3s9.3-4.5 13-4.1c0 0-5.8 9.8-3.9 9.6s8.4-10.1 8.4-10.1 9.6-1.8 11.1 3.9-.9 8.5-2.4 8.8c-1.4.4-10.5.2-10.3 1.4s6.4 3.1 9.8 2c0 0-3.8 9.3-8.7 8.8-5-.5-6.5-3.5-9.6-3.8-3.1-.2-5.3.6-3.8 1.4s6.7.3 9.2 2.4 4.5 3.4-.1 4.3-12.9.4-14.5-3.2l-1.6-3.5z"/><path d="M373.5 354.3s-24.8 8-27.6 17c0 0 .1 4-2.4 8.6v1.8s2.6-6 4-6.8c0 0-5.5-7.8 26-20.6z"/><path d="M343.5 379.9s-3.8 5.8-1.6 12.9l1-.3s-1-7.8 1-11.7-.4-.9-.4-.9z"/><path d="M345.6 408.1a17.31 17.31 0 0 0 17.3-17.3h-34.7c0 9.5 7.8 17.3 17.4 17.3z"/><path d="M363.1 409H328h0c0-1.2 1-2.1 2.1-2.1H361c1.2-.1 2.1.9 2.1 2.1h0z"/></g><path d="M327.7 390.8h35.6v.5h-35.6z" fill="#97c0f8"/><path d="M220.2 264.4c-.5-11.5 9.2-16.6 19-16.6s20.6 2.6 21.5 17.8c.6 9.8-4.6 15.9-19.7 15.9-5.1 0-9-.8-12.1-2.2l-7.5 6.7 3.7-9.3c-3.3-3-4.7-7.3-4.9-12.3z" opacity=".5" fill="#cee2ff" enable-background="new"/><g class="Bs"><use xlink:href="#B"/><path d="M303.5 372.4c-.3-.7-1.5-1-2.4-.9-2.6.8-4.1 5.6-3.4 7.4.4.5 1.1.7 1.8.6a5.73 5.73 0 0 0 1.4-.4c.1-.1.2-.2.2-.3-.3-1-.4-3.9 2.4-6.4z"/><use xlink:href="#B" x="4.7" y="1.8"/><use xlink:href="#C"/><use xlink:href="#B" x="10.1" y="2.8"/><use xlink:href="#C" x="5.4" y="1"/><path d="M315.8 377.4c.9.2 1.5.9 1.9 1.6.4.8.7 1.7.7 2.6.4-.1.6-.4.8-.7.5-.7.9-1.6.8-2.4-.1-1-.9-2.1-1.6-2.7-.4-.3-.7-.2-1.2-.1"/><path d="M318.4 375.7c-.3-.7-1.5-1-2.4-.9-2.6.7-4.2 5.6-3.5 7.4.4.5 1.1.7 1.8.7a5.73 5.73 0 0 0 1.4-.4c.1-.1.2-.2.2-.3-.2-1.1-.3-4 2.5-6.5zm2.1 3.1c.8.3 1.4 1 1.8 1.7.4.8.7 1.7.6 2.6.4-.1.6-.4.8-.7.5-.7 1-1.5 1-2.4 0-1-.8-2.1-1.4-2.8-.3-.4-.7-.2-1.2-.1"/><path d="M323.2 377.2c-.3-.7-1.4-1.1-2.3-1.1-2.7.6-4.5 5.4-3.8 7.2.3.5 1.1.8 1.8.7.6 0 .9-.1 1.4-.3.1-.1.2-.2.2-.3-.3-1-.2-3.9 2.7-6.2z"/><use xlink:href="#D"/><path d="M328.5 381c0-.8-1-1.5-1.8-1.8-2.7-.4-6 3.5-6.1 5.5.1.6.8 1.1 1.4 1.3s.9.2 1.4.2c.2 0 .3-.1.3-.2.2-1.2 1.3-3.9 4.8-5z"/><use xlink:href="#D" x="4.9" y="2.5"/><path d="M333.4 383.5c0-.8-1-1.5-1.8-1.8-2.7-.4-6 3.5-6.1 5.5.1.6.8 1.1 1.4 1.3s.9.2 1.4.2c.2 0 .3-.1.3-.2.2-1.2 1.3-3.8 4.8-5zm2.3 3.5c.6.7.7 1.5.6 2.3-.1.9-.4 1.8-1 2.5.3.1.7 0 1.1-.2.8-.3 1.6-.8 2.1-1.5.5-.8.5-2.2.3-3.1-.1-.5-.4-.6-1-.7"/><path d="M338.8 387c.1-.7-.6-1.7-1.4-2.1-2.6-.8-6.7 2.4-7.2 4.3 0 .6.5 1.2 1.1 1.5.5.3.8.4 1.4.5.1 0 .3 0 .3-.2.4-1.1 2.1-3.5 5.8-4zm-.1 4.8c.2.8 0 1.6-.5 2.4s-1.1 1.5-2 2c.3.2.7.2 1 .2.9-.1 1.9-.2 2.6-.7.8-.6 1.4-1.6 1.6-2.8.1-.5-.2-.7-.6-1"/><path d="M341.5 392.8c.5-.6.2-1.7-.4-2.4-2-1.6-7.2 0-8.5 1.6-.3.6-.1 1.3.4 1.8.4.4.6.6 1.1.9.1.1.3.1.4 0 .8-.9 3.4-2.6 7-1.9zm-1.7 3.1c-.1.8-.7 1.5-1.4 2-.8.6-1.7 1.1-2.7 1.3.2.3.5.4.9.5.9.2 1.8.4 2.7.1 1-.3 2.2-1.2 2.8-2.3.3-.4-.1-.4-.3-.9"/><path d="M342.1 397.5c.5-.6.4-1.7-.1-2.4-1.8-1.8-7.2-.8-8.7.7-.4.6-.2 1.3.1 1.8a2.93 2.93 0 0 0 .9 1c.1.1.3.1.4 0 1.1-.8 3.9-2.2 7.4-1.1zm-3.6 2.5c-.4.8-1.2 1.3-2.1 1.6s-2 .6-3 .5c.1.3.4.5.7.7.7.5 1.6.9 2.5.9 1.1 0 2.5-.5 3.5-1.5.4-.3.1-.4 0-.9"/><path d="M340.2 402.2c.7-.4 1-1.5.8-2.3-1.1-2.2-6.5-2.7-8.5-1.7-.5.4-.7 1.1-.5 1.8.1.5.3.8.6 1.2.1.1.2.2.4.1 1.1-.5 4.2-1.1 7.2.9zm-4.3 2c-.8.5-1.7.6-2.7.5s-2-.3-2.9-.8c-.1.3 0 .6.2.9.4.7.9 1.4 1.8 1.8s2.5.6 3.9.2c.6-.1.3-.3.5-.8"/><path d="M336.2 406.8c.9-.1 1.7-.9 1.9-1.7.3-2.4-4.3-5.1-6.5-5.1-.7.2-1.2.7-1.4 1.3-.2.5-.2.8-.2 1.3 0 .1.1.2.3.2 1.3.2 4.4 1 5.9 4zm-5.1-.3c-.9.3-1.9.1-2.7-.2-.9-.4-1.8-.8-2.5-1.5-.2.3-.2.6-.1.9.1.8.4 1.6 1.1 2.2.7.7 2.2 1.3 3.6 1.2.6.1.4-.2.7-.6"/><path d="M330.5 409.1c.8.2 1.9-.4 2.4-1.1 1.1-2.2-2.4-6-4.5-6.5-.7 0-1.4.4-1.8.9-.3.5-.5.7-.6 1.2 0 .1 0 .3.2.3 1.2.4 3.9 1.9 4.3 5.2zm-5.6-1.2c-.9 0-1.8-.4-2.5-1-.8-.6-1.4-1.3-1.7-2.2-.3.2-.4.5-.5.8-.2.8-.2 1.7.2 2.4.5.9 1.6 1.8 3 2.2.5.2.5-.1.9-.4"/><path d="M323.3 410.2c.7.4 2 .1 2.7-.3 1.8-1.8 0-6.4-1.8-7.5-.7-.3-1.5-.1-2 .3a2.93 2.93 0 0 0-1 .9c-.1.1-.1.3.1.3.9.8 2.8 3.1 2 6.3z"/><use xlink:href="#E"/><use xlink:href="#F"/><use xlink:href="#E" x="-4.5"/><use xlink:href="#G"/><use xlink:href="#E" x="-9.3"/><use xlink:href="#F" x="-9.3"/><use xlink:href="#E" x="-14"/><use xlink:href="#G" x="-9.5"/><path d="M191.4 337c-.7.5-1.6.5-2.4.4-.9-.2-1.8-.5-2.6-1.1-.1.3 0 .7.2 1 .4.8.9 1.7 1.6 2.2.9.6 1.9.8 3.2.5.5-.1.6-.4.7-.9"/><path d="M191.4 340c.8.2 1.7-.5 2.1-1.2.8-2.5-2.6-6.8-4.5-7.4-.7-.1-1.2.4-1.6 1-.3.5-.4.8-.4 1.3 0 .1.1.3.2.3 1.1.5 3.6 2.3 4.2 6zm-3.5-.6c-.8.2-1.7-.1-2.4-.6-.8-.5-1.6-1.2-2.1-2-.2.3-.2.7-.2 1 .1.9.3 1.9.8 2.6.6.8 1.9 1.7 3.2 1.8.5.1.4-.2.7-.6"/><path d="M187.3 342.2c.7.3 1.7-.2 2.2-.9 1.1-2.3-1.8-7-3.8-7.9-.6-.1-1.3.2-1.7.8a6.72 6.72 0 0 0-.6 1.2c0 .1 0 .3.1.4 1.2.6 3.6 2.7 3.8 6.4zm-3.7-2.5c-.8-.1-1.6-.7-2.2-1.4-.7-.8-1.2-1.6-1.5-2.6-.3.2-.4.5-.5.9-.2.9-.2 1.8.1 2.7.4 1 1.4 2.2 2.6 2.8.4.3.4-.1.8-.3"/><path d="M182.2 342.1c.6.5 1.8.4 2.4-.1 1.7-1.8.2-7.1-1.4-8.5-.6-.3-1.3-.2-1.8.1s-.6.5-.9.9c-.1.1-.1.3 0 .4.8 1 2.5 3.7 1.7 7.2zm-3.4-3.3c-.7-.5-1.2-1.4-1.4-2.3-.3-1-.4-2-.2-3-.3 0-.6.2-.8.5-.5.6-1 1.4-1.1 2.3-.1 1 .3 2.6 1.2 3.7.3.5.4.2.9.2"/><path d="M176.4 340c.4.8 1.5 1.2 2.3 1.2 2.3-.6 3.2-5.8 2.4-7.9-.4-.6-1.1-.9-1.8-.9-.6 0-.8.1-1.3.3-.1.1-.2.2-.1.3.5 1.3.8 4.5-1.5 7zm-1.5-4.9c-.6-.7-.8-1.7-.8-2.6 0-1 .1-2 .6-2.9-.3-.1-.6 0-.9.2-.7.4-1.4 1-1.7 1.8-.4.9-.4 2.5.2 3.8.1.5.4.3.8.5"/><path d="M172.2 335.5c.1.8 1.1 1.6 1.9 1.9 2.5.2 4.8-4.4 4.5-6.6-.2-.7-.9-1.2-1.5-1.4s-.8-.2-1.3-.1c-.1 0-.2.1-.2.3.1 1.2-.4 4.3-3.4 5.9zm-1.5-5.3c-.3-.9-.1-1.9.2-2.7.4-.9.8-1.7 1.6-2.3-.3-.2-.6-.2-.9-.2-.8.1-1.6.3-2.2.9-.7.7-1.3 2-1.2 3.5-.1.5.2.4.6.8"/><path d="M168.1 329.3c-.2.8.4 1.9 1.1 2.5 2.3 1.2 6.1-1.9 6.6-3.9 0-.7-.4-1.4-.9-1.9-.5-.4-.7-.5-1.2-.7-.1 0-.3 0-.3.2-.4 1.2-2 3.7-5.3 3.8zm-.5-4.2c0-.9.5-1.7 1-2.3.6-.7 1.4-1.3 2.2-1.5-.2-.3-.5-.5-.8-.6-.8-.2-1.7-.4-2.4-.1-.9.4-1.9 1.4-2.3 2.7-.2.5.1.5.4 1"/><path d="M165.3 323.4c-.4.7-.2 1.9.3 2.7 1.8 2 6.4.6 7.6-1 .3-.6.1-1.4-.3-2.1-.3-.5-.5-.7-.9-1.1-.1-.1-.3-.1-.3 0-.8.9-3.2 2.6-6.4 1.5z"/><use xlink:href="#H"/><use xlink:href="#I"/><use xlink:href="#H" x="-0.6" y="-4.7"/><use xlink:href="#I" x="-0.7" y="-4.7"/><use xlink:href="#H" x="-1.2" y="-9.4"/><use xlink:href="#I" x="-1.3" y="-9.4"/></g><path d="M262.2 305.3v-18.7h-14v14.7h-57.6v-14.7h-14v18.7c0 15.2-3.6 47-35.2 57.8-3.2 1.1-5.4 4.2-5.4 7.6v33.6a7.13 7.13 0 0 0 7.1 7.1h152.5a7.13 7.13 0 0 0 7.1-7.1v-33.6c0-3.4-2.2-6.5-5.4-7.6-31.5-10.8-35.1-42.6-35.1-57.8z" class="Br"/><path d="M218.3 374.4c-31.9 0-59.4-1.8-82.2-4.9-.1.4-.1.8-.1 1.2v33.6a7.13 7.13 0 0 0 7.1 7.1h152.5a7.13 7.13 0 0 0 7.1-7.1v-33.6c0-.5-.1-1-.1-1.5-23.2 3.3-51.4 5.2-84.3 5.2z" opacity=".25" class="Bq"/><path d="M176.6 287.4h14m57.6 0h14" opacity=".75" fill="none" stroke="#e54a52" stroke-width="11" stroke-miterlimit="10"/><path d="M123.2 289.3v21.1h46.1v-19.3c0-2.4 1.9-4.3 4.3-4.3h91.5c2.4 0 4.3 1.9 4.3 4.3v19.3h46.1v-21.1c0-17.4-14.1-31.4-31.4-31.4H154.6c-17.3-.1-31.4 14-31.4 31.4z" class="Br"/><path d="M164.9 310.4h-38a4.48 4.48 0 0 1-4.5-4.5V296a4.48 4.48 0 0 1 4.5-4.5h38a4.48 4.48 0 0 1 4.5 4.5v9.9a4.55 4.55 0 0 1-4.5 4.5zm146.9.6h-38a4.48 4.48 0 0 1-4.5-4.5v-9.9a4.48 4.48 0 0 1 4.5-4.5h38a4.48 4.48 0 0 1 4.5 4.5v9.9a4.48 4.48 0 0 1-4.5 4.5z" opacity=".25" class="Bq"/><path d="M136,401.1v3.1c0,3.9,3.2,7.1,7.1,7.1h152.5c3.9,0,7.1-3.2,7.1-7.1v-3.1H136z" class="Bs"/><use xlink:href="#J" opacity=".25" class="Bq"/><use xlink:href="#J" y="-4.4" class="Bp"/><path d="M232.3 326.6c-.9 2.2-3.4 3.2-5.6 2.3s-3.2-3.4-2.3-5.6 3.4-3.2 5.6-2.3 3.2 3.4 2.3 5.6zm-11-3.7c.2 2.4-1.5 4.5-3.9 4.7s-4.5-1.5-4.7-3.9 1.5-4.5 3.9-4.7 4.5 1.5 4.7 3.9zm-11.4 1.8c1.3 2 .8 4.6-1.2 6-2 1.3-4.6.8-6-1.2-1.3-2-.8-4.6 1.2-6s4.7-.7 6 1.2zm-9.2 7.1c2.1 1.1 2.9 3.7 1.8 5.8s-3.7 2.9-5.8 1.8-2.9-3.7-1.8-5.8 3.7-2.9 5.8-1.8zm-4.8 10.6c2.4 0 4.3 1.9 4.3 4.3s-1.9 4.3-4.3 4.3-4.3-1.9-4.3-4.3 1.9-4.3 4.3-4.3zm.7 11.6c2.1-1.1 4.7-.3 5.8 1.8s.3 4.7-1.8 5.8-4.7.3-5.8-1.8-.3-4.7 1.8-5.8zm6.1 9.8c1.3-2 4-2.5 6-1.2s2.5 4 1.2 6-4 2.5-6 1.2-2.5-4-1.2-6zm10.1 5.9c.2-2.4 2.3-4.1 4.7-3.9s4.1 2.3 3.9 4.7-2.3 4.1-4.7 3.9c-2.4-.3-4.2-2.4-3.9-4.7zm11.6.3c-.9-2.2.1-4.7 2.3-5.6s4.7.1 5.6 2.3-.1 4.7-2.3 5.6c-2.2 1-4.7-.1-5.6-2.3zm10.4-5.1c-1.8-1.5-2.1-4.2-.6-6s4.2-2.1 6-.6 2.1 4.2.6 6c-1.4 1.9-4.2 2.1-6 .6z" class="Bs"/><path d="M191.6 347.4c0-.2-.1-.5-.1-.7 0-2.4 1.9-4.3 4.3-4.3s4.3 1.9 4.3 4.3c0 .3 0 .5-.1.7-.4-2-2.1-3.6-4.2-3.6a4.48 4.48 0 0 0-4.2 3.6zm42.6 13c1.5-1.8 4.2-2.1 6-.6a4.61 4.61 0 0 1 1.5 2.6c.3-1.5-.3-3-1.5-4.1-1.8-1.5-4.5-1.2-6 .6-.8 1-1.1 2.3-.9 3.5.1-.8.4-1.5.9-2zm-31.8-4.7c-1.1-2.1-3.7-2.9-5.8-1.8-1.7.9-2.5 2.8-2.2 4.5.2-1.3 1-2.4 2.2-3.1 2.1-1.1 4.7-.3 5.8 1.8.2.4.4.8.4 1.3.2-.8.1-1.8-.4-2.7zm6.3 7c-2-1.3-4.6-.8-6 1.2-.6 1-.8 2.1-.7 3.1.1-.6.3-1.1.7-1.6 1.3-2 4-2.5 6-1.2 1 .7 1.6 1.7 1.8 2.8.3-1.7-.4-3.4-1.8-4.3zM194.8 335c1.1-2.1 3.7-2.9 5.8-1.8 1.2.6 2 1.8 2.2 3.1.3-1.8-.5-3.6-2.2-4.5-2.1-1.1-4.7-.3-5.8 1.8-.5.9-.6 1.8-.4 2.8.1-.5.2-.9.4-1.4zm35.2-14c-2.2-.9-4.7.1-5.6 2.3-.3.8-.4 1.6-.3 2.4.1-.3.1-.6.3-.9.9-2.2 3.4-3.2 5.6-2.3 1.4.6 2.3 1.8 2.6 3.2.3-2-.7-3.9-2.6-4.7zm-3.3 43.4c-1.9.8-2.9 2.8-2.6 4.7.2-1.4 1.2-2.7 2.6-3.2 2.2-.9 4.7.1 5.6 2.3l.3.9c.1-.8.1-1.6-.3-2.4-.9-2.1-3.4-3.2-5.6-2.3zm-9.2 1.4c-2.4-.2-4.5 1.5-4.7 3.9v1.2c.4-2.2 2.4-3.8 4.7-3.5 2 .2 3.5 1.7 3.8 3.5v-.3c.3-2.5-1.5-4.6-3.8-4.8zm-.9-46.8c-2.4.2-4.1 2.3-3.9 4.7v.3c.3-1.9 1.8-3.3 3.8-3.5 2.3-.2 4.3 1.3 4.7 3.5.1-.4.1-.8 0-1.2-.1-2.3-2.2-4-4.6-3.8zm-12.7 4.6c-1.5 1-2.1 2.7-1.8 4.3.2-1.1.8-2.2 1.8-2.8 2-1.3 4.6-.8 6 1.2.3.5.6 1.1.7 1.6.2-1 0-2.2-.7-3.1-1.3-2-4-2.6-6-1.2z" class="Bq"/><path d="M256.5 342.5l-17.1-.7v1.1c0 .2 0 .5.2.7 1 .9 2.9 2.3 6 2.9 5 1 10.9.7 10.9.7v-4.7z" fill="#a33646"/><path d="M256.5 341.6a.47.47 0 0 0-.5-.5h-16.2c-.4 0-.5.8-.2 1.1 1 .9 2.9 2.3 6 2.9 5 1 10.9.7 10.9.7v-4.2z" class="Bq"/><path d="M230 250.8c-2.8 5-6.2 7.2-6.2 7.2l-15 .1s23.3-11.1 21.2-7.3z" class="Bo"/><path d="M219.3 289.4c-.4.5-.4 1-.2 1.5.4 1 1.6 2 3 3.1.2.1.3.3.5.4l.1.1s.1 0 .1.1c1.3 1.1.8 1.4 3.2 3.8 2.7 2.7 4.5 2.7 5 2.4.4-.2-.5-1.6-1.5-3.2 0-.1-.1-.2-.1-.2-.1-.2-.3-.4-.4-.6-1.2-1.9-.9-2.8-.7-5.7.2-2.4 3.4-13.2 3.4-13.2l-5-.8s-1.3 8.6-3 10c-.9.7-1.9.8-2.7 1.3-.1 0-.1.1-.2.1-.6.1-1.1.5-1.5.9z" class="Bn"/><path d="M219.3 289.4c-.4.5-.4 1-.2 1.5.5 1 1.6 2 3 3.1.2.1.3.3.5.4l.1.1s.1 0 .1.1c1.3 1.1.8 1.4 3.2 3.8 2.7 2.7 4.5 2.7 5 2.4.4-.2-.5-1.6-1.5-3.2-.5-.2-2.9-1.1-4.7-3.3-1.6-2-2.7-4.5-3.8-6-.1 0-.1.1-.2.1-.6.2-1.1.6-1.5 1z" class="Bo"/><path d="M259.6 285.5c.3 1.5 2.5 1.2 5 .6 2.4-.6 1.9.1 5.4-.4s4.5-1.8 4.6-2.3-1.6-.6-3.5-.8c-.2 0-.5 0-.7-.1-2.1-.2-3.7-1.5-5.6-2.6-1.8-1-4.6-5.2-4.6-5.2l-4.8.5 3.6 5.4c.6 1 .6 2.3.5 3.3 0 .5-.1 1 .1 1.6z" class="Bn"/><path d="M264.5 286.1c2.4-.6 1.9.1 5.4-.4s4.5-1.8 4.6-2.3-1.6-.6-3.5-.8h0s-2.1 1.5-5 1.7c-2.4.1-4.9-.5-6.5-.5 0 .5-.1 1.1.1 1.6.3 1.6 2.5 1.3 4.9.7zm-23.9-30.9l-4.2 12.1-5.5 15.9s-1.6.2-3.1-.2c-1.4-.4-3-1.4-3-1.4s1.3-16.9 4.1-26.7c.7-2.5 1.6-4.5 2.5-5.7 4.5-5.6 9.2 6 9.2 6z" class="Bo"/><path d="M235.7 236.2c-3-.9-11.3.5-19.7 2.3l-1.8-2.9-18.2-1.1s-5.7 13.4-2.3 21.8c.5 1.2 1.4 1.9 3 1.9l1-.1 13.7-.1c9-.2 19-6.6 20.3-6.9 2.1-.5 3.1 3.8 5.3 8.2s20.5 19.5 20.5 19.5 2.8 0 3.9-.5c1.2-.5 1.7-1.1 1.7-1.1s-20.8-39-27.4-41z" class="Bt"/><path d="M211.2 182.3c-1.4-.8-2.7-.9-3.5-.8-.6 0-1.2 0-1.7-.1-6.9-.8-10.8 9.3-11 12.3-.3 5.6-3.3 6.5-7.4 10.1-8.2 7.2-5.6 15.3-1 18.2 2.8 1.8 7.6-.1 7.6-.1.1 0 13-7.6 19.4-11.3 9.6-1.6 1.5-26.1-2.4-28.3z" class="Bo"/><path d="M208.1 207.7s-3.2 1.2-5.3.3c-2-.9-3.6-4.1-3.6-4.1.9-.1 1.9-.9 2.6-6.2l.4.1 6.6 2.2-.7 4.1c-.3 1.7-.4 3.3 0 3.6z" class="Bn"/><path d="M208.7 200l-.7 4.1c-3.8-.6-5.3-4.3-5.9-6.4l6.6 2.3z" fill="#ed975d"/><path d="M209.8 202s-9-1-8.3-6.6.1-9.5 5.8-9.1c5.8.4 6.6 2.7 6.8 4.6.3 2-2 11.3-4.3 11.1z" class="Bn"/><g class="Bo"><path d="M213.8 187.9s-5.7 5.1-9.6 5.6-5.4-.8-5.4-.8 2.3-2 3.6-5.1c.4-.9 1.2-1.6 2.2-1.7 2.8-.3 8.1-.5 9.2 2z"/><path d="M210.2 187.5s2 1.8 2.6 3.2c.6 1.3.9 4.5.4 5.8 0 0 2.9-5.9 1.1-8.7-1.9-3-4.1-.3-4.1-.3z"/></g><path d="M215.9 220.8c.1 18.2.2 14.4-1.7 16.2-.5.4-1.8.7-3.6.9-5.6.5-15.4-.2-15.8-1.3-1.4-3.5-.5-4.7-1.7-10.1-.1-.6-.3-1.2-.5-1.9-1-3.7-1.9-5 1.2-11.1 2.8-5.5 5.7-10 6-9.9 7.7 4.4 8.2.6 8.2.6s7.9 7.7 7.9 16.6z" class="Bu"/><path d="M236.3 267.4l-5.5 15.9s-1.6.2-3.1-.2c-1.4-.4-3-1.4-3-1.4s1.3-16.9 4.1-26.7l7.5 12.4z" class="Bt"/><path d="M208 204.1s7.9 1.2 8.8 4.5l6.8 23.1s-4 .8-5.8-1c-1.9-1.8-6.7-16.9-6.7-16.9l-3.1-9.7z" class="Bu"/><path d="M210.6 237.8c-5.6.5-15.4-.2-15.8-1.3-1.4-3.5-.5-4.7-1.7-10.1l2.5-7.6s-.3 8.5 2.3 10.6c2.5 2.2 10.3 4.1 11.5 5.9.6.9 1 1.8 1.2 2.5z" fill="#7da6ef"/><path d="M204.1 234.4s5.5-1.3 6.4-.9c.9.5 3.1 2.2 3.4 2.8s-2-.4-2.7-.6c-.5-.1-1.7.3-2.3.6-2.6.9-4.2.5-4.2.5l-.6-2.4z" class="Bn"/><path d="M199.8 203.5s-7.4.6-9.9 4.2c-3.5 5.1-10.2 26.7-6.1 29.5 4.7 3.1 21 .4 21 .4s.5-2.6-.3-3.8-13.2-3-13.7-3.5c-.6-.6 6.9-11.2 6.9-13 0-1.6 2.1-13.8 2.1-13.8z" class="Bu"/><g class="Bn"><path d="M210.8 235s1.2 1.5 1.6 1.6c.4.2.6.1.6.1l-.8-1.4-1.4-.3z"/><path d="M210.5 233.5l3.4 1.6s-.1.2-.6.2c-.4 0-1.5-.4-1.5-.4l-1.3-1.4z"/></g><path d="M212.4 239l26.6-.6 7.6-20-26.6.5z" class="Br"/><path d="M239.3 237.6l-35.1.7v.8l34.8-.7z" class="Bv"/><path d="M232.1 228.6c.2-.7-.2-1.3-.9-1.2-.7 0-1.4.6-1.6 1.3s.2 1.3.9 1.2c.7 0 1.4-.6 1.6-1.3z" class="Bp"/><path d="M48.1 409.9s0-3 .4-4l2-5h6.1l1.2 4.9c.1 1.2 0 4.1 0 4.1h-9.7zm38.6 0s0-3-.4-4l-2-5h-6.1l-1.2 4.9c-.1 1.2 0 4.1 0 4.1h9.7z" class="Bo"/><path d="M62.3 242.5s-.2 6.6-1.1 9.6l-6.7 4.7 25.3 3.8-6-8.3s-1.8-8.9-.9-12.2c1-3.3-10.6 2.4-10.6 2.4z" class="Bn"/><path d="M62.3 243.4s2 4.8 5.8 4.7 4.6-4.4 4.6-4.4l-10.4-.3z" fill="#ed985f"/><path d="M60.1 239.5s-1.2-6.1-2.1-7.9c-.8-1.8-1.6-10.1 7.9-10.5 0 0 3.6.4 5.6-.8 0 0 0 1.2-.5 1.6 0 0 3.3-.8 5.8 2.1 2.5 2.8-1.7 12.7-1.5 15.1l-15.2.4z" fill="#2c3a64"/><path d="M67.6 246.3c-2.7 0-7.8-3.7-7.8-8.2v-7c0-1.6 1.1-3 2.5-3h10.4c1.4 0 2.5 1.3 2.5 3v6.6c.2 4.7-4.4 8.6-7.6 8.6z" class="Bn"/><path d="M59.9 234.8s0-4.2 3.4-4.9c3.3-.6 10.8 2.1 11.9-1s-14.5-3-15.3-1.1c-.8 2 0 7 0 7z" fill="#2c3a64"/><g class="Bt"><path d="M48.8 306.6s1.1 32.5-.5 51.1 0 44.4 0 44.4 5.1 2.8 10.6 0c0 0 6.1-35.9 6-44.4 0-9.1 6.6-49.7 6.6-49.7l-22.7-1.4z"/><path d="M86.5 402.1s-5.1 2.8-10.6 0c0 0-6.1-35.9-6-44.4 0-3.8-1.2-13.3-2.5-22.9l-4.1-26.7 23.6-1.5s-1.9 32.6-.4 51.2c1.6 18.5 0 44.3 0 44.3z"/></g><path d="M86.6 312s-10.1 1.9-19.2 1.9c-4 0-8.4-.4-11.8-.9-3.8-.5-6.6-1-6.6-1s-2 .2-.8-9.9c.9-7.7.6-14.6.4-21.7v-2.8c.4-8.3 2.9-23.2 4.8-24 0 0 2.8-1.1 7.9-1.6 0 .1 2.9 4.4 6.4 4.8 2.1-.8 3.8-1.6 6.2-4.7 3 .3 6.2.9 9.7 1.9 0 0 .4 1.6 1.7 29 .5 11 4.2 29.1 1.3 29z" class="Bp"/><path d="M69.9 357.7c0-3.8-1.2-13.3-2.5-22.9 1.4-5.8 4.9-11.3 4.9-11.3 4.3 12.2-2.4 34.2-2.4 34.2z" class="Bo"/><path d="M39.3 286.4c-.2.2.6 2.3 1.8 5 2.5 5.6 6.7 13.7 6.7 13.7-.6 2.3-1.3 3.7-1.3 3.7-7.1-5.6-11.7-10.3-14.6-13.9-4.1-5.1-4.9-8-4.9-8 15.8-32.1 26.9-33.3 26.9-33.3l-1.3 21.2c0 0-12.6 10.9-13.3 11.6z" class="Bp"/><g class="Bn"><path d="M47 305.5s3.8-3.5 5.4-1.6c1.6 2 1.8 5.1.6 4.9s-3.7-1.3-4-.8c-.4.6-1.9 1.6-2.4.8s.4-3.3.4-3.3z"/><path d="M47.8 305.1c-.6 2.3-1.3 3.7-1.3 3.7-7.1-5.6-11.7-10.3-14.6-13.9 2.2-.2 5.4-.9 9.1-3.6 2.6 5.6 6.8 13.8 6.8 13.8z"/></g><path d="M108.8 286.8s-.8 2.9-4.9 8c-2.9 3.6-7.5 8.4-14.6 13.9 0 0-.7-1.4-1.3-3.7 0 0 4.2-8.2 6.7-13.7 1.2-2.7 2.1-4.8 1.8-5-.6-.5-8.3-7.2-11.7-10.2l-1.6-1.4-.8-20.9c0 .1 10.6.9 26.4 33z" class="Bp"/><g class="Bn"><path d="M88.8 305.5s-3.8-3.5-5.4-1.6c-1.6 2-1.8 5.1-.6 4.9s3.7-1.3 4-.8c.4.6 1.9 1.6 2.4.8.6-.8-.4-3.3-.4-3.3z"/><path d="M88 305.1c.6 2.3 1.3 3.7 1.3 3.7 7.1-5.6 11.7-10.3 14.6-13.9-2.2-.2-5.4-.9-9.1-3.6-2.6 5.6-6.8 13.8-6.8 13.8z"/></g><g class="Bv"><path d="M61.6 250.5s-1.1.5-1.4 1.7c0 0 4.5 4.6 7.5 4.7l-6.1-6.4z"/><path d="M67.6 257l5.8-6.7s1.2.8 1.2 2.1c0 0-4.5 4.7-7 4.6z"/></g><path d="M66.6 256.5s-4.4 38.3-2.9 43c.8 2.4 1.9 4.5 2.7 5.9.6 1 2.1 1 2.7 0 1.2-2 2.7-5 2.7-6.5 0-2.4-3.4-42.5-3.4-42.5l-1.8.1z" class="Br"/><path d="M65.4 254.6s2.7-.3 4.3-.1c.3 0 .5.4.3.7-.5.8-1.4 2.3-2.4 2.3-1.2-.1-3.4-2.8-2.2-2.9z" class="Bv"/><path d="M65.5 241.8s.9 1.2 2.3 1.1c1.5 0 2.2-1.1 2.2-1.1s-2.5-.4-4.5 0z" class="Bp"/><defs ><path id="B" d="M300.9 374.1c.9.2 1.5.9 1.9 1.6.4.8.8 1.6.7 2.6.3-.1.6-.4.8-.7.5-.7.9-1.6.8-2.4-.1-1-.9-2.1-1.6-2.7-.4-.3-.7-.2-1.2-.1"/><path id="C" d="M308.1 374.2c-.3-.7-1.5-1-2.4-.9-2.6.8-4.1 5.6-3.4 7.4.4.5 1.1.7 1.8.6a5.73 5.73 0 0 0 1.4-.4c.1-.1.2-.2.2-.3-.3-1.1-.3-4 2.4-6.4z"/><path id="D" d="M325.5 381.5c.7.6 1 1.4 1.1 2.2.1.9 0 1.8-.4 2.6a1.69 1.69 0 0 0 1-.3c.7-.5 1.4-1.1 1.7-1.9.3-.9 0-2.2-.4-3.1-.2-.5-.6-.5-1.1-.6"/><path id="E" d="M318.9 408.6c-.9-.3-1.5-1-1.9-1.7-.5-.8-.8-1.7-.8-2.6-.4.1-.6.4-.8.6-.5.7-.9 1.5-.8 2.3.1.9.8 2.2 1.9 3 .4.4.5 0 1-.1"/><path id="F" d="M316.6 410.3c.5.6 1.8.7 2.7.5 2.4-1.1 2.5-6 1.3-7.6-.5-.4-1.4-.5-2-.3s-.9.3-1.3.6c-.1.1-.2.2-.1.3a6.26 6.26 0 0 1-.6 6.5z"/><path id="G" d="M312 410.3c.5.6 1.8.7 2.7.5 2.4-1.1 2.5-6 1.3-7.6-.5-.4-1.4-.5-2-.3s-.9.3-1.3.6c-.1.1-.2.2-.1.3.6 1 1.5 3.7-.6 6.5z"/><path id="H" d="M165.7 320.3c.2-.9.8-1.6 1.4-2.1.7-.6 1.5-1 2.4-1.1-.1-.3-.4-.5-.7-.7-.7-.4-1.6-.7-2.4-.5-.9.2-2.1 1-2.7 2.3-.3.4 0 .5.2 1"/><path id="I" d="M163.8 318.2c-.5.6-.5 1.9-.1 2.7 1.4 2.3 6.2 1.7 7.7.2.4-.6.3-1.4 0-2.1-.2-.6-.4-.8-.7-1.2-.1-.1-.2-.1-.3 0-1 .8-3.6 2.1-6.6.4z"/><path id="J" d="M219.4 313.8c-20.5 0-37.1 16.6-37.1 37.1s16.6 37.1 37.1 37.1 37.1-16.6 37.1-37.1c0-20.4-16.6-37.1-37.1-37.1zm0 47.1a9.86 9.86 0 1 1 0-19.8 9.86 9.86 0 0 1 9.9 9.9c0 5.4-4.4 9.9-9.9 9.9z"/></defs></svg>