<svg xmlns="http://www.w3.org/2000/svg" xmlns:xlink="http://www.w3.org/1999/xlink" viewBox="0 0 760 440" xmlns:v="https://vecta.io/nano"><style><![CDATA[.Bi{fill:#fff}.Bj{fill:#ff862e}.Bk{fill:#1874ba}.Bl{fill:#f18a00}.Bm{fill:#101537}.Bn{fill:#fcc100}.Bo{fill:#231f20}.Bp{fill:#3b405f}.Bq{fill:#003053}]]></style><g fill-rule="evenodd"><g class="Bl"><path d="M593.7 172.2c5.5-1.5 10.7-3.7 15.5-6.4l13.3 13.3c1.8 1.8 4.8 1.8 6.6 0l20.3-20.3c1.8-1.8 1.8-4.8 0-6.6l-13.3-13.3c2.7-4.8 4.9-10 6.4-15.5h18.7c2.6 0 4.7-2.1 4.7-4.7V89.9c0-2.6-2.1-4.7-4.7-4.7h-18.7c-1.5-5.5-3.7-10.7-6.4-15.5l13.3-13.3c1.8-1.8 1.8-4.8 0-6.6l-20.3-20.3c-1.8-1.8-4.8-1.8-6.6 0l-13.3 13.3c-4.8-2.7-10-4.9-15.5-6.4V17.5c0-2.6-2.1-4.7-4.7-4.7h-28.7c-2.6 0-4.7 2.1-4.7 4.7v18.7c-5.5 1.5-10.7 3.7-15.5 6.4l-13.3-13.3c-1.8-1.8-4.8-1.8-6.6 0l-20.3 20.3c-1.8 1.8-1.8 4.8 0 6.6l13.3 13.3a70.3 70.3 0 0 0-6.4 15.5h-18.7c-2.6 0-4.7 2.1-4.7 4.7v28.7c0 2.6 2.1 4.7 4.7 4.7h18.7c1.5 5.5 3.7 10.7 6.4 15.5l-13.3 13.3c-1.8 1.8-1.8 4.8 0 6.6l20.3 20.3c1.8 1.8 4.8 1.8 6.6 0l13.3-13.3c4.8 2.7 10 4.9 15.5 6.4V191c0 2.6 2.1 4.7 4.7 4.7H589c2.6 0 4.7-2.1 4.7-4.7v-18.8h0zm-19-31.2c-20.3 0-36.8-16.5-36.8-36.8s16.5-36.8 36.8-36.8 36.8 16.5 36.8 36.8c-.1 20.4-16.5 36.8-36.8 36.8z"/><path d="M593.1 172.2c5.5-1.5 10.7-3.7 15.5-6.4l13.3 13.3c1.8 1.8 4.8 1.8 6.6 0l20.3-20.3c1.8-1.8 1.8-4.8 0-6.6l-13.3-13.3c2.7-4.8 4.9-10 6.4-15.5h18.7c2.6 0 4.7-2.1 4.7-4.7V90c0-2.6-2.1-4.7-4.7-4.7h-18.7c-1.5-5.5-3.7-10.7-6.4-15.5l13.3-13.3c1.8-1.8 1.8-4.8 0-6.6l-20.3-20.3c-1.8-1.8-4.8-1.8-6.6 0l-13.3 13.3c-4.8-2.7-10-4.9-15.5-6.4V17.8c0-2.6-2.1-4.7-4.7-4.7h-28.7c-2.6 0-4.7 2.1-4.7 4.7v18.7c-5.5 1.5-10.7 3.7-15.5 6.4l-13.3-13.3c-1.8-1.8-4.8-1.8-6.6 0l-20.3 20.3c-1.8 1.8-1.8 4.8 0 6.6l13.3 13.3a70.3 70.3 0 0 0-6.4 15.5h-18.7c-2.6 0-4.7 2.1-4.7 4.7v28.7c0 2.6 2.1 4.7 4.7 4.7h18.7c1.5 5.5 3.7 10.7 6.4 15.5l-13.3 13.3c-1.8 1.8-1.8 4.8 0 6.6l20.3 20.3c1.8 1.8 4.8 1.8 6.6 0l13.3-13.3c4.8 2.7 10 4.9 15.5 6.4v18.7c0 2.6 2.1 4.7 4.7 4.7h28.7c2.6 0 4.7-2.1 4.7-4.7v-18.7h0zm-19-31.2c-20.3 0-36.8-16.5-36.8-36.8s16.5-36.8 36.8-36.8 36.8 16.5 36.8 36.8c-.1 20.4-16.5 36.8-36.8 36.8z"/><path d="M592.6 172.2c5.5-1.5 10.7-3.7 15.5-6.4l13.3 13.3c1.8 1.8 4.8 1.8 6.6 0l20.3-20.3c1.8-1.8 1.8-4.8 0-6.6L635 138.9c2.7-4.8 4.9-10 6.4-15.5h18.7c2.6 0 4.7-2.1 4.7-4.7V90c0-2.6-2.1-4.7-4.7-4.7h-18.7c-1.5-5.5-3.7-10.7-6.4-15.5l13.3-13.3c1.8-1.8 1.8-4.8 0-6.6L628 29.6c-1.8-1.8-4.8-1.8-6.6 0l-13.3 13.3c-4.8-2.7-10-4.9-15.5-6.4V17.8c0-2.6-2.1-4.7-4.7-4.7h-28.7c-2.6 0-4.7 2.1-4.7 4.7v18.7c-5.5 1.5-10.7 3.7-15.5 6.4l-13.3-13.3c-1.8-1.8-4.8-1.8-6.6 0l-20.3 20.3c-1.8 1.8-1.8 4.8 0 6.6l13.3 13.3a70.3 70.3 0 0 0-6.4 15.5H487c-2.6 0-4.7 2.1-4.7 4.7v28.7c0 2.6 2.1 4.7 4.7 4.7h18.7c1.5 5.5 3.7 10.7 6.4 15.5l-13.3 13.3c-1.8 1.8-1.8 4.8 0 6.6l20.3 20.3c1.8 1.8 4.8 1.8 6.6 0l13.3-13.3c4.8 2.7 10 4.9 15.5 6.4v18.7c0 2.6 2.1 4.7 4.7 4.7h28.7c2.6 0 4.7-2.1 4.7-4.7v-18.7h0zM573.5 141c-20.3 0-36.8-16.5-36.8-36.8s16.5-36.8 36.8-36.8 36.8 16.5 36.8 36.8c0 20.4-16.5 36.8-36.8 36.8z"/><path d="M592 172.2c5.5-1.5 10.7-3.7 15.5-6.4l13.3 13.3c1.8 1.8 4.8 1.8 6.6 0l20.3-20.3c1.8-1.8 1.8-4.8 0-6.6l-13.3-13.3c2.7-4.8 4.9-10 6.4-15.5h18.7c2.6 0 4.7-2.1 4.7-4.7V90c0-2.6-2.1-4.7-4.7-4.7h-18.7c-1.5-5.5-3.7-10.7-6.4-15.5l13.3-13.3c1.8-1.8 1.8-4.8 0-6.6l-20.3-20.3c-1.8-1.8-4.8-1.8-6.6 0l-13.3 13.3c-4.8-2.7-10-4.9-15.5-6.4V17.8c0-2.6-2.1-4.7-4.7-4.7h-28.7c-2.6 0-4.7 2.1-4.7 4.7v18.7c-5.5 1.5-10.7 3.7-15.5 6.4l-13.3-13.3c-1.8-1.8-4.8-1.8-6.6 0l-20.3 20.3c-1.8 1.8-1.8 4.8 0 6.6l13.3 13.3a70.3 70.3 0 0 0-6.4 15.5h-18.7c-2.6 0-4.7 2.1-4.7 4.7v28.7c0 2.6 2.1 4.7 4.7 4.7h18.7c1.5 5.5 3.7 10.7 6.4 15.5l-13.3 13.3c-1.8 1.8-1.8 4.8 0 6.6l20.3 20.3c1.8 1.8 4.8 1.8 6.6 0l13.3-13.3c4.8 2.7 10 4.9 15.5 6.4v18.7c0 2.6 2.1 4.7 4.7 4.7h28.7c2.6 0 4.7-2.1 4.7-4.7v-18.7h0zM572.9 141c-20.3 0-36.8-16.5-36.8-36.8s16.5-36.8 36.8-36.8 36.8 16.5 36.8 36.8c0 20.4-16.5 36.8-36.8 36.8z"/><path d="M591.4 172.2c5.5-1.5 10.7-3.7 15.5-6.4l13.3 13.3c1.8 1.8 4.8 1.8 6.6 0l20.3-20.3c1.8-1.8 1.8-4.8 0-6.6l-13.3-13.3c2.7-4.8 4.9-10 6.4-15.5h18.7c2.6 0 4.7-2.1 4.7-4.7V90c0-2.6-2.1-4.7-4.7-4.7h-18.7c-1.5-5.5-3.7-10.7-6.4-15.5l13.3-13.3c1.8-1.8 1.8-4.8 0-6.6l-20.3-20.3c-1.8-1.8-4.8-1.8-6.6 0l-13.3 13.3c-4.8-2.7-10-4.9-15.5-6.4V17.8c0-2.6-2.1-4.7-4.7-4.7H558c-2.6 0-4.7 2.1-4.7 4.7v18.7c-5.5 1.5-10.7 3.7-15.5 6.4l-13.3-13.3c-1.8-1.8-4.8-1.8-6.6 0l-20.3 20.3c-1.8 1.8-1.8 4.8 0 6.6l13.3 13.3a70.3 70.3 0 0 0-6.4 15.5h-18.7c-2.6 0-4.7 2.1-4.7 4.7v28.7c0 2.6 2.1 4.7 4.7 4.7h18.7c1.5 5.5 3.7 10.7 6.4 15.5l-13.3 13.3c-1.8 1.8-1.8 4.8 0 6.6l20.3 20.3c1.8 1.8 4.8 1.8 6.6 0l13.3-13.3c4.8 2.7 10 4.9 15.5 6.4v18.7c0 2.6 2.1 4.7 4.7 4.7h28.7c2.6 0 4.7-2.1 4.7-4.7v-18.7h0zM572.3 141c-20.3 0-36.8-16.5-36.8-36.8s16.5-36.8 36.8-36.8 36.8 16.5 36.8 36.8c0 20.4-16.5 36.8-36.8 36.8z"/><path d="M590.8 172.2c5.5-1.5 10.7-3.7 15.5-6.4l13.3 13.3c1.8 1.8 4.8 1.8 6.6 0l20.3-20.3c1.8-1.8 1.8-4.8 0-6.6l-13.3-13.3c2.7-4.8 4.9-10 6.4-15.5h18.7c2.6 0 4.7-2.1 4.7-4.7V90c0-2.6-2.1-4.7-4.7-4.7h-18.7c-1.5-5.5-3.7-10.7-6.4-15.5l13.3-13.3c1.8-1.8 1.8-4.8 0-6.6l-20.3-20.3c-1.8-1.8-4.8-1.8-6.6 0l-13.3 13.3c-4.8-2.7-10-4.9-15.5-6.4V17.8c0-2.6-2.1-4.7-4.7-4.7h-28.7c-2.6 0-4.7 2.1-4.7 4.7v18.7c-5.5 1.5-10.7 3.7-15.5 6.4l-13.3-13.3c-1.8-1.8-4.8-1.8-6.6 0L497 49.9c-1.8 1.8-1.8 4.8 0 6.6l13.3 13.3a70.3 70.3 0 0 0-6.4 15.5h-18.7c-2.6 0-4.7 2.1-4.7 4.7v28.7c0 2.6 2.1 4.7 4.7 4.7h18.7c1.5 5.5 3.7 10.7 6.4 15.5L497 152.2c-1.8 1.8-1.8 4.8 0 6.6l20.3 20.3c1.8 1.8 4.8 1.8 6.6 0l13.3-13.3c4.8 2.7 10 4.9 15.5 6.4v18.7c0 2.6 2.1 4.7 4.7 4.7h28.7c2.6 0 4.7-2.1 4.7-4.7v-18.7h0zm-19-31.2c-20.3 0-36.8-16.5-36.8-36.8s16.5-36.8 36.8-36.8 36.8 16.5 36.8 36.8c-.1 20.4-16.5 36.8-36.8 36.8z"/><path d="M590.2 172.2c5.5-1.5 10.7-3.7 15.5-6.4l13.3 13.3c1.8 1.8 4.8 1.8 6.6 0l20.3-20.3c1.8-1.8 1.8-4.8 0-6.6l-13.3-13.3c2.7-4.8 4.9-10 6.4-15.5h18.7c2.6 0 4.7-2.1 4.7-4.7V90c0-2.6-2.1-4.7-4.7-4.7H639c-1.5-5.5-3.7-10.7-6.4-15.5l13.3-13.3c1.8-1.8 1.8-4.8 0-6.6l-20.3-20.3c-1.8-1.8-4.8-1.8-6.6 0l-13.3 13.3c-4.8-2.7-10-4.9-15.5-6.4V17.8c0-2.6-2.1-4.7-4.7-4.7h-28.7c-2.6 0-4.7 2.1-4.7 4.7v18.7c-5.5 1.5-10.7 3.7-15.5 6.4l-13.3-13.3c-1.8-1.8-4.8-1.8-6.6 0l-20.3 20.3c-1.8 1.8-1.8 4.8 0 6.6l13.3 13.3a70.3 70.3 0 0 0-6.4 15.5h-18.7c-2.6 0-4.7 2.1-4.7 4.7v28.7c0 2.6 2.1 4.7 4.7 4.7h18.7c1.5 5.5 3.7 10.7 6.4 15.5l-13.3 13.3c-1.8 1.8-1.8 4.8 0 6.6l20.3 20.3c1.8 1.8 4.8 1.8 6.6 0l13.3-13.3c4.8 2.7 10 4.9 15.5 6.4v18.7c0 2.6 2.1 4.7 4.7 4.7h28.7c2.6 0 4.7-2.1 4.7-4.7v-18.7h0zm-19-31.2c-20.3 0-36.8-16.5-36.8-36.8s16.5-36.8 36.8-36.8S608 83.9 608 104.2c-.1 20.4-16.5 36.8-36.8 36.8z"/><path d="M589.7 172.2c5.5-1.5 10.7-3.7 15.5-6.4l13.3 13.3c1.8 1.8 4.8 1.8 6.6 0l20.3-20.3c1.8-1.8 1.8-4.8 0-6.6l-13.3-13.3c2.7-4.8 4.9-10 6.4-15.5h18.7c2.6 0 4.7-2.1 4.7-4.7V90c0-2.6-2.1-4.7-4.7-4.7h-18.7c-1.5-5.5-3.7-10.7-6.4-15.5l13.3-13.3c1.8-1.8 1.8-4.8 0-6.6l-20.3-20.3c-1.8-1.8-4.8-1.8-6.6 0l-13.3 13.3c-4.8-2.7-10-4.9-15.5-6.4V17.8c0-2.6-2.1-4.7-4.7-4.7h-28.7c-2.6 0-4.7 2.1-4.7 4.7v18.7c-5.5 1.5-10.7 3.7-15.5 6.4l-13.3-13.3c-1.8-1.8-4.8-1.8-6.6 0l-20.3 20.3c-1.8 1.8-1.8 4.8 0 6.6l13.3 13.3a70.3 70.3 0 0 0-6.4 15.5h-18.7c-2.6 0-4.7 2.1-4.7 4.7v28.7c0 2.6 2.1 4.7 4.7 4.7h18.7c1.5 5.5 3.7 10.7 6.4 15.5l-13.3 13.3c-1.8 1.8-1.8 4.8 0 6.6l20.3 20.3c1.8 1.8 4.8 1.8 6.6 0l13.3-13.3c4.8 2.7 10 4.9 15.5 6.4v18.7c0 2.6 2.1 4.7 4.7 4.7H585c2.6 0 4.7-2.1 4.7-4.7v-18.7h0zM570.6 141c-20.3 0-36.8-16.5-36.8-36.8s16.5-36.8 36.8-36.8 36.8 16.5 36.8 36.8c0 20.4-16.5 36.8-36.8 36.8z"/><path d="M589.1 172.2c5.5-1.5 10.7-3.7 15.5-6.4l13.3 13.3c1.8 1.8 4.8 1.8 6.6 0l20.3-20.3c1.8-1.8 1.8-4.8 0-6.6l-13.3-13.3c2.7-4.8 4.9-10 6.4-15.5h18.7c2.6 0 4.7-2.1 4.7-4.7V90c0-2.6-2.1-4.7-4.7-4.7h-18.7c-1.5-5.5-3.7-10.7-6.4-15.5l13.3-13.3c1.8-1.8 1.8-4.8 0-6.6l-20.3-20.3c-1.8-1.8-4.8-1.8-6.6 0l-13.3 13.3c-4.8-2.7-10-4.9-15.5-6.4V17.8c0-2.6-2.1-4.7-4.7-4.7h-28.7c-2.6 0-4.7 2.1-4.7 4.7v18.7c-5.5 1.5-10.7 3.7-15.5 6.4l-13.3-13.3c-1.8-1.8-4.8-1.8-6.6 0l-20.3 20.3c-1.8 1.8-1.8 4.8 0 6.6l13.3 13.3a70.3 70.3 0 0 0-6.4 15.5h-18.7c-2.6 0-4.7 2.1-4.7 4.7v28.7c0 2.6 2.1 4.7 4.7 4.7h18.7c1.5 5.5 3.7 10.7 6.4 15.5l-13.3 13.3c-1.8 1.8-1.8 4.8 0 6.6l20.3 20.3c1.8 1.8 4.8 1.8 6.6 0l13.3-13.3c4.8 2.7 10 4.9 15.5 6.4v18.7c0 2.6 2.1 4.7 4.7 4.7h28.7c2.6 0 4.7-2.1 4.7-4.7v-18.7h0zM570 141c-20.3 0-36.8-16.5-36.8-36.8s16.5-36.8 36.8-36.8 36.8 16.5 36.8 36.8c0 20.4-16.5 36.8-36.8 36.8z"/><path d="M588.5 172.2c5.5-1.5 10.7-3.7 15.5-6.4l13.3 13.3c1.8 1.8 4.8 1.8 6.6 0l20.3-20.3c1.8-1.8 1.8-4.8 0-6.6l-13.3-13.3c2.7-4.8 4.9-10 6.4-15.5H656c2.6 0 4.7-2.1 4.7-4.7V90c0-2.6-2.1-4.7-4.7-4.7h-18.7c-1.5-5.5-3.7-10.7-6.4-15.5l13.3-13.3c1.8-1.8 1.8-4.8 0-6.6l-20.3-20.3c-1.8-1.8-4.8-1.8-6.6 0L604 42.9c-4.8-2.7-10-4.9-15.5-6.4V17.8c0-2.6-2.1-4.7-4.7-4.7h-28.7c-2.6 0-4.7 2.1-4.7 4.7v18.7c-5.5 1.5-10.7 3.7-15.5 6.4l-13.3-13.3c-1.8-1.8-4.8-1.8-6.6 0l-20.3 20.3c-1.8 1.8-1.8 4.8 0 6.6L508 69.8a70.3 70.3 0 0 0-6.4 15.5h-18.7c-2.6 0-4.7 2.1-4.7 4.7v28.7c0 2.6 2.1 4.7 4.7 4.7h18.7c1.5 5.5 3.7 10.7 6.4 15.5l-13.3 13.3c-1.8 1.8-1.8 4.8 0 6.6l20.3 20.3c1.8 1.8 4.8 1.8 6.6 0l13.3-13.3c4.8 2.7 10 4.9 15.5 6.4v18.7c0 2.6 2.1 4.7 4.7 4.7h28.7c2.6 0 4.7-2.1 4.7-4.7v-18.7h0zM569.4 141c-20.3 0-36.8-16.5-36.8-36.8s16.5-36.8 36.8-36.8 36.8 16.5 36.8 36.8c0 20.4-16.5 36.8-36.8 36.8z"/><path d="M587.9 172.2c5.5-1.5 10.7-3.7 15.5-6.4l13.3 13.3c1.8 1.8 4.8 1.8 6.6 0l20.3-20.3c1.8-1.8 1.8-4.8 0-6.6l-13.3-13.3c2.7-4.8 4.9-10 6.4-15.5h18.7c2.6 0 4.7-2.1 4.7-4.7V90c0-2.6-2.1-4.7-4.7-4.7h-18.7c-1.5-5.5-3.7-10.7-6.4-15.5l13.3-13.3c1.8-1.8 1.8-4.8 0-6.6l-20.3-20.3c-1.8-1.8-4.8-1.8-6.6 0l-13.3 13.3c-4.8-2.7-10-4.9-15.5-6.4V17.8c0-2.6-2.1-4.7-4.7-4.7h-28.7c-2.6 0-4.7 2.1-4.7 4.7v18.7c-5.5 1.5-10.7 3.7-15.5 6.4L521 29.6c-1.8-1.8-4.8-1.8-6.6 0l-20.3 20.3c-1.8 1.8-1.8 4.8 0 6.6l13.3 13.3a70.3 70.3 0 0 0-6.4 15.5h-18.7c-2.6 0-4.7 2.1-4.7 4.7v28.7c0 2.6 2.1 4.7 4.7 4.7H501c1.5 5.5 3.7 10.7 6.4 15.5l-13.3 13.3c-1.8 1.8-1.8 4.8 0 6.6l20.3 20.3c1.8 1.8 4.8 1.8 6.6 0l13.3-13.3c4.8 2.7 10 4.9 15.5 6.4v18.7c0 2.6 2.1 4.7 4.7 4.7h28.7c2.6 0 4.7-2.1 4.7-4.7v-18.7h0zM568.8 141c-20.3 0-36.8-16.5-36.8-36.8s16.5-36.8 36.8-36.8 36.8 16.5 36.8 36.8c0 20.4-16.4 36.8-36.8 36.8z"/><path d="M587.3 172.2c5.5-1.5 10.7-3.7 15.5-6.4l13.3 13.3c1.8 1.8 4.8 1.8 6.6 0l20.3-20.3c1.8-1.8 1.8-4.8 0-6.6l-13.3-13.3c2.7-4.8 4.9-10 6.4-15.5h18.7c2.6 0 4.7-2.1 4.7-4.7V90c0-2.6-2.1-4.7-4.7-4.7h-18.7c-1.5-5.5-3.7-10.7-6.4-15.5L643 56.5c1.8-1.8 1.8-4.8 0-6.6l-20.3-20.3c-1.8-1.8-4.8-1.8-6.6 0l-13.3 13.3c-4.8-2.7-10-4.9-15.5-6.4V17.8c0-2.6-2.1-4.7-4.7-4.7h-28.7c-2.6 0-4.7 2.1-4.7 4.7v18.7c-5.5 1.5-10.7 3.7-15.5 6.4l-13.3-13.3c-1.8-1.8-4.8-1.8-6.6 0l-20.3 20.3c-1.8 1.8-1.8 4.8 0 6.6l13.3 13.3a70.3 70.3 0 0 0-6.4 15.5h-18.7c-2.6 0-4.7 2.1-4.7 4.7v28.7c0 2.6 2.1 4.7 4.7 4.7h18.7c1.5 5.5 3.7 10.7 6.4 15.5l-13.3 13.3c-1.8 1.8-1.8 4.8 0 6.6l20.3 20.3c1.8 1.8 4.8 1.8 6.6 0l13.3-13.3c4.8 2.7 10 4.9 15.5 6.4v18.7c0 2.6 2.1 4.7 4.7 4.7h28.7c2.6 0 4.7-2.1 4.7-4.7v-18.7h0zm-19-31.2c-20.3 0-36.8-16.5-36.8-36.8s16.5-36.8 36.8-36.8 36.8 16.5 36.8 36.8c-.1 20.4-16.5 36.8-36.8 36.8z"/><path d="M586.7 172.2c5.5-1.5 10.7-3.7 15.5-6.4l13.3 13.3c1.8 1.8 4.8 1.8 6.6 0l20.3-20.3c1.8-1.8 1.8-4.8 0-6.6l-13.3-13.3c2.7-4.8 4.9-10 6.4-15.5h18.7c2.6 0 4.7-2.1 4.7-4.7V90c0-2.6-2.1-4.7-4.7-4.7h-18.7c-1.5-5.5-3.7-10.7-6.4-15.5l13.3-13.3c1.8-1.8 1.8-4.8 0-6.6l-20.3-20.3c-1.8-1.8-4.8-1.8-6.6 0l-13.3 13.3c-4.8-2.7-10-4.9-15.5-6.4V17.8c0-2.6-2.1-4.7-4.7-4.7h-28.7c-2.6 0-4.7 2.1-4.7 4.7v18.7c-5.5 1.5-10.7 3.7-15.5 6.4l-13.3-13.3c-1.8-1.8-4.8-1.8-6.6 0l-20.3 20.3c-1.8 1.8-1.8 4.8 0 6.6l13.3 13.3a70.3 70.3 0 0 0-6.4 15.5h-18.7c-2.6 0-4.7 2.1-4.7 4.7v28.7c0 2.6 2.1 4.7 4.7 4.7h18.7c1.5 5.5 3.7 10.7 6.4 15.5l-13.3 13.3c-1.8 1.8-1.8 4.8 0 6.6l20.3 20.3c1.8 1.8 4.8 1.8 6.6 0l13.3-13.3c4.8 2.7 10 4.9 15.5 6.4v18.7c0 2.6 2.1 4.7 4.7 4.7H582c2.6 0 4.7-2.1 4.7-4.7v-18.7h0zm-19-31.2c-20.3 0-36.8-16.5-36.8-36.8s16.5-36.8 36.8-36.8 36.8 16.5 36.8 36.8c0 20.4-16.5 36.8-36.8 36.8z"/><path d="M586.2 172.2c5.5-1.5 10.7-3.7 15.5-6.4l13.3 13.3c1.8 1.8 4.8 1.8 6.6 0l20.3-20.3c1.8-1.8 1.8-4.8 0-6.6l-13.3-13.3c2.7-4.8 4.9-10 6.4-15.5h18.7c2.6 0 4.7-2.1 4.7-4.7V90c0-2.6-2.1-4.7-4.7-4.7H635c-1.5-5.5-3.7-10.7-6.4-15.5l13.3-13.3c1.8-1.8 1.8-4.8 0-6.6l-20.3-20.3c-1.8-1.8-4.8-1.8-6.6 0l-13.3 13.3c-4.8-2.7-10-4.9-15.5-6.4V17.8c0-2.6-2.1-4.7-4.7-4.7h-28.7c-2.6 0-4.7 2.1-4.7 4.7v18.7c-5.5 1.5-10.7 3.7-15.5 6.4l-13.3-13.3c-1.8-1.8-4.8-1.8-6.6 0l-20.3 20.3c-1.8 1.8-1.8 4.8 0 6.6l13.3 13.3a70.3 70.3 0 0 0-6.4 15.5h-18.7c-2.6 0-4.7 2.1-4.7 4.7v28.7c0 2.6 2.1 4.7 4.7 4.7h18.7c1.5 5.5 3.7 10.7 6.4 15.5l-13.3 13.3c-1.8 1.8-1.8 4.8 0 6.6l20.3 20.3c1.8 1.8 4.8 1.8 6.6 0l13.3-13.3c4.8 2.7 10 4.9 15.5 6.4v18.7c0 2.6 2.1 4.7 4.7 4.7h28.7c2.6 0 4.7-2.1 4.7-4.7v-18.7h0zM567.1 141c-20.3 0-36.8-16.5-36.8-36.8s16.5-36.8 36.8-36.8 36.8 16.5 36.8 36.8c0 20.4-16.5 36.8-36.8 36.8z"/><path d="M585.6 172.2c5.5-1.5 10.7-3.7 15.5-6.4l13.3 13.3c1.8 1.8 4.8 1.8 6.6 0l20.3-20.3c1.8-1.8 1.8-4.8 0-6.6L628 138.9c2.7-4.8 4.9-10 6.4-15.5h18.7c2.6 0 4.7-2.1 4.7-4.7V90c0-2.6-2.1-4.7-4.7-4.7h-18.7c-1.5-5.5-3.7-10.7-6.4-15.5l13.3-13.3c1.8-1.8 1.8-4.8 0-6.6L621 29.6c-1.8-1.8-4.8-1.8-6.6 0l-13.3 13.3c-4.8-2.7-10-4.9-15.5-6.4V17.8c0-2.6-2.1-4.7-4.7-4.7h-28.7c-2.6 0-4.7 2.1-4.7 4.7v18.7c-5.5 1.5-10.7 3.7-15.5 6.4l-13.3-13.3c-1.8-1.8-4.8-1.8-6.6 0l-20.3 20.3c-1.8 1.8-1.8 4.8 0 6.6l13.3 13.3a70.3 70.3 0 0 0-6.4 15.5H480c-2.6 0-4.7 2.1-4.7 4.7v28.7c0 2.6 2.1 4.7 4.7 4.7h18.7c1.5 5.5 3.7 10.7 6.4 15.5l-13.3 13.3c-1.8 1.8-1.8 4.8 0 6.6l20.3 20.3c1.8 1.8 4.8 1.8 6.6 0l13.3-13.3c4.8 2.7 10 4.9 15.5 6.4v18.7c0 2.6 2.1 4.7 4.7 4.7h28.7c2.6 0 4.7-2.1 4.7-4.7v-18.7h0zM566.5 141c-20.3 0-36.8-16.5-36.8-36.8s16.5-36.8 36.8-36.8 36.8 16.5 36.8 36.8c0 20.4-16.5 36.8-36.8 36.8z"/><path d="M585 172.2c5.5-1.5 10.7-3.7 15.5-6.4l13.3 13.3c1.8 1.8 4.8 1.8 6.6 0l20.3-20.3c1.8-1.8 1.8-4.8 0-6.6l-13.3-13.3c2.7-4.8 4.9-10 6.4-15.5h18.7c2.6 0 4.7-2.1 4.7-4.7V90c0-2.6-2.1-4.7-4.7-4.7h-18.7c-1.5-5.5-3.7-10.7-6.4-15.5l13.3-13.3c1.8-1.8 1.8-4.8 0-6.6l-20.3-20.3c-1.8-1.8-4.8-1.8-6.6 0l-13.3 13.3c-4.8-2.7-10-4.9-15.5-6.4V17.8c0-2.6-2.1-4.7-4.7-4.7h-28.7c-2.6 0-4.7 2.1-4.7 4.7v18.7c-5.5 1.5-10.7 3.7-15.5 6.4l-13.3-13.3c-1.8-1.8-4.8-1.8-6.6 0l-20.3 20.3c-1.8 1.8-1.8 4.8 0 6.6l13.3 13.3a70.3 70.3 0 0 0-6.4 15.5h-18.7c-2.6 0-4.7 2.1-4.7 4.7v28.7c0 2.6 2.1 4.7 4.7 4.7h18.7c1.5 5.5 3.7 10.7 6.4 15.5l-13.3 13.3c-1.8 1.8-1.8 4.8 0 6.6l20.3 20.3c1.8 1.8 4.8 1.8 6.6 0l13.3-13.3c4.8 2.7 10 4.9 15.5 6.4v18.7c0 2.6 2.1 4.7 4.7 4.7h28.7c2.6 0 4.7-2.1 4.7-4.7v-18.7h0zM565.9 141c-20.3 0-36.8-16.5-36.8-36.8s16.5-36.8 36.8-36.8 36.8 16.5 36.8 36.8c0 20.4-16.5 36.8-36.8 36.8z"/><path d="M584.4 172.2c5.5-1.5 10.7-3.7 15.5-6.4l13.3 13.3c1.8 1.8 4.8 1.8 6.6 0l20.3-20.3c1.8-1.8 1.8-4.8 0-6.6l-13.3-13.3c2.7-4.8 4.9-10 6.4-15.5h18.7c2.6 0 4.7-2.1 4.7-4.7V90c0-2.6-2.1-4.7-4.7-4.7h-18.7c-1.5-5.5-3.7-10.7-6.4-15.5l13.3-13.3c1.8-1.8 1.8-4.8 0-6.6l-20.3-20.3c-1.8-1.8-4.8-1.8-6.6 0l-13.3 13.3c-4.8-2.7-10-4.9-15.5-6.4V17.8c0-2.6-2.1-4.7-4.7-4.7H551c-2.6 0-4.7 2.1-4.7 4.7v18.7c-5.5 1.5-10.7 3.7-15.5 6.4l-13.3-13.3c-1.8-1.8-4.8-1.8-6.6 0l-20.3 20.3c-1.8 1.8-1.8 4.8 0 6.6l13.3 13.3a70.3 70.3 0 0 0-6.4 15.5h-18.7c-2.6 0-4.7 2.1-4.7 4.7v28.7c0 2.6 2.1 4.7 4.7 4.7h18.7c1.5 5.5 3.7 10.7 6.4 15.5l-13.3 13.3c-1.8 1.8-1.8 4.8 0 6.6l20.3 20.3c1.8 1.8 4.8 1.8 6.6 0l13.3-13.3c4.8 2.7 10 4.9 15.5 6.4v18.7c0 2.6 2.1 4.7 4.7 4.7h28.7c2.6 0 4.7-2.1 4.7-4.7v-18.7h0zm-19-31.2c-20.3 0-36.8-16.5-36.8-36.8s16.5-36.8 36.8-36.8 36.8 16.5 36.8 36.8c-.1 20.4-16.5 36.8-36.8 36.8z"/><path d="M583.8 172.2c5.5-1.5 10.7-3.7 15.5-6.4l13.3 13.3c1.8 1.8 4.8 1.8 6.6 0l20.3-20.3c1.8-1.8 1.8-4.8 0-6.6l-13.3-13.3c2.7-4.8 4.9-10 6.4-15.5h18.7c2.6 0 4.7-2.1 4.7-4.7V90c0-2.6-2.1-4.7-4.7-4.7h-18.7c-1.5-5.5-3.7-10.7-6.4-15.5l13.3-13.3c1.8-1.8 1.8-4.8 0-6.6l-20.3-20.3c-1.8-1.8-4.8-1.8-6.6 0l-13.3 13.3c-4.8-2.7-10-4.9-15.5-6.4V17.8c0-2.6-2.1-4.7-4.7-4.7h-28.7c-2.6 0-4.7 2.1-4.7 4.7v18.7c-5.5 1.5-10.7 3.7-15.5 6.4l-13.3-13.3c-1.8-1.8-4.8-1.8-6.6 0L490 49.9c-1.8 1.8-1.8 4.8 0 6.6l13.3 13.3a70.3 70.3 0 0 0-6.4 15.5h-18.7c-2.6 0-4.7 2.1-4.7 4.7v28.7c0 2.6 2.1 4.7 4.7 4.7h18.7c1.5 5.5 3.7 10.7 6.4 15.5L490 152.2c-1.8 1.8-1.8 4.8 0 6.6l20.3 20.3c1.8 1.8 4.8 1.8 6.6 0l13.3-13.3c4.8 2.7 10 4.9 15.5 6.4v18.7c0 2.6 2.1 4.7 4.7 4.7h28.7c2.6 0 4.7-2.1 4.7-4.7v-18.7h0zm-19-31.2c-20.3 0-36.8-16.5-36.8-36.8s16.5-36.8 36.8-36.8 36.8 16.5 36.8 36.8c-.1 20.4-16.5 36.8-36.8 36.8z"/><path d="M583.3 172.2c5.5-1.5 10.7-3.7 15.5-6.4l13.3 13.3c1.8 1.8 4.8 1.8 6.6 0l20.3-20.3c1.8-1.8 1.8-4.8 0-6.6l-13.3-13.3c2.7-4.8 4.9-10 6.4-15.5h18.7c2.6 0 4.7-2.1 4.7-4.7V90c0-2.6-2.1-4.7-4.7-4.7h-18.7c-1.5-5.5-3.7-10.7-6.4-15.5L639 56.5c1.8-1.8 1.8-4.8 0-6.6l-20.3-20.3c-1.8-1.8-4.8-1.8-6.6 0l-13.3 13.3c-4.8-2.7-10-4.9-15.5-6.4V17.8c0-2.6-2.1-4.7-4.7-4.7h-28.7c-2.6 0-4.7 2.1-4.7 4.7v18.7c-5.5 1.5-10.7 3.7-15.5 6.4l-13.3-13.3c-1.8-1.8-4.8-1.8-6.6 0l-20.3 20.3c-1.8 1.8-1.8 4.8 0 6.6l13.3 13.3a70.3 70.3 0 0 0-6.4 15.5h-18.7c-2.6 0-4.7 2.1-4.7 4.7v28.7c0 2.6 2.1 4.7 4.7 4.7h18.7c1.5 5.5 3.7 10.7 6.4 15.5l-13.3 13.3c-1.8 1.8-1.8 4.8 0 6.6l20.3 20.3c1.8 1.8 4.8 1.8 6.6 0l13.3-13.3c4.8 2.7 10 4.9 15.5 6.4v18.7c0 2.6 2.1 4.7 4.7 4.7h28.7c2.6 0 4.7-2.1 4.7-4.7v-18.7h0zM564.2 141c-20.3 0-36.8-16.5-36.8-36.8s16.5-36.8 36.8-36.8S601 83.9 601 104.2c0 20.4-16.5 36.8-36.8 36.8z"/><path d="M582.7 172.2c5.5-1.5 10.7-3.7 15.5-6.4l13.3 13.3c1.8 1.8 4.8 1.8 6.6 0l20.3-20.3c1.8-1.8 1.8-4.8 0-6.6l-13.3-13.3c2.7-4.8 4.9-10 6.4-15.5h18.7c2.6 0 4.7-2.1 4.7-4.7V90c0-2.6-2.1-4.7-4.7-4.7h-18.7c-1.5-5.5-3.7-10.7-6.4-15.5l13.3-13.3c1.8-1.8 1.8-4.8 0-6.6l-20.3-20.3c-1.8-1.8-4.8-1.8-6.6 0l-13.3 13.3c-4.8-2.7-10-4.9-15.5-6.4V17.8c0-2.6-2.1-4.7-4.7-4.7h-28.7c-2.6 0-4.7 2.1-4.7 4.7v18.7c-5.5 1.5-10.7 3.7-15.5 6.4l-13.3-13.3c-1.8-1.8-4.8-1.8-6.6 0l-20.3 20.3c-1.8 1.8-1.8 4.8 0 6.6l13.3 13.3a70.3 70.3 0 0 0-6.4 15.5h-18.7c-2.6 0-4.7 2.1-4.7 4.7v28.7c0 2.6 2.1 4.7 4.7 4.7h18.7c1.5 5.5 3.7 10.7 6.4 15.5l-13.3 13.3c-1.8 1.8-1.8 4.8 0 6.6l20.3 20.3c1.8 1.8 4.8 1.8 6.6 0l13.3-13.3c4.8 2.7 10 4.9 15.5 6.4v18.7c0 2.6 2.1 4.7 4.7 4.7H578c2.6 0 4.7-2.1 4.7-4.7v-18.7h0zM563.6 141c-20.3 0-36.8-16.5-36.8-36.8s16.5-36.8 36.8-36.8 36.8 16.5 36.8 36.8c0 20.4-16.5 36.8-36.8 36.8z"/><path d="M582.1 172.2c5.5-1.5 10.7-3.7 15.5-6.4l13.3 13.3c1.8 1.8 4.8 1.8 6.6 0l20.3-20.3c1.8-1.8 1.8-4.8 0-6.6l-13.3-13.3c2.7-4.8 4.9-10 6.4-15.5h18.7c2.6 0 4.7-2.1 4.7-4.7V90c0-2.6-2.1-4.7-4.7-4.7h-18.7c-1.5-5.5-3.7-10.7-6.4-15.5l13.3-13.3c1.8-1.8 1.8-4.8 0-6.6l-20.3-20.3c-1.8-1.8-4.8-1.8-6.6 0l-13.3 13.3c-4.8-2.7-10-4.9-15.5-6.4V17.8c0-2.6-2.1-4.7-4.7-4.7h-28.7c-2.6 0-4.7 2.1-4.7 4.7v18.7c-5.5 1.5-10.7 3.7-15.5 6.4l-13.3-13.3c-1.8-1.8-4.8-1.8-6.6 0l-20.3 20.3c-1.8 1.8-1.8 4.8 0 6.6l13.3 13.3a70.3 70.3 0 0 0-6.4 15.5h-18.7c-2.6 0-4.7 2.1-4.7 4.7v28.7c0 2.6 2.1 4.7 4.7 4.7h18.7c1.5 5.5 3.7 10.7 6.4 15.5l-13.3 13.3c-1.8 1.8-1.8 4.8 0 6.6l20.3 20.3c1.8 1.8 4.8 1.8 6.6 0l13.3-13.3c4.8 2.7 10 4.9 15.5 6.4v18.7c0 2.6 2.1 4.7 4.7 4.7h28.7c2.6 0 4.7-2.1 4.7-4.7v-18.7h0zM563 141c-20.3 0-36.8-16.5-36.8-36.8s16.5-36.8 36.8-36.8 36.8 16.5 36.8 36.8c0 20.4-16.5 36.8-36.8 36.8z"/><use xlink:href="#B"/></g><use xlink:href="#B" class="Bn"/><path d="M562.5 146.2c11.6 0 22.1-4.7 29.6-12.3 7.6-7.6 12.3-18.1 12.3-29.6 0-11.6-4.7-22.1-12.3-29.6-7.6-7.6-18.1-12.3-29.6-12.3-11.6 0-22.1 4.7-29.6 12.3-7.6 7.6-12.3 18.1-12.3 29.6 0 11.6 4.7 22.1 12.3 29.6 7.5 7.6 18 12.3 29.6 12.3h0zm31.3-10.6a44.28 44.28 0 0 1-62.8 0 44.28 44.28 0 0 1-13-31.4 44.28 44.28 0 1 1 88.8 0c0 12.3-4.9 23.4-13 31.4zm-31.3 32.1c17.5 0 33.4-7.1 44.8-18.6 11.5-11.5 18.6-27.3 18.6-44.8s-7.1-33.4-18.6-44.8C595.8 48 580 40.9 562.5 40.9s-33.4 7.1-44.8 18.6C506.1 70.9 499 86.7 499 104.3c0 17.5 7.1 33.4 18.6 44.8 11.5 11.5 27.3 18.6 44.9 18.6h0zm46.5-16.9c-11.9 11.9-28.4 19.3-46.6 19.3s-34.7-7.4-46.6-19.3-19.3-28.4-19.3-46.6 7.4-34.7 19.3-46.6 28.4-19.3 46.6-19.3 34.7 7.4 46.6 19.3 19.3 28.4 19.3 46.6-7.4 34.7-19.3 46.6z" class="Bi"/><path d="M420.5 401h147.7c7.8 0 14.2 6.4 14.2 14.2h0c0 7.8-6.4 14.2-14.2 14.2H420.5c-7.8 0-14.2-6.4-14.2-14.2h0c0-7.8 6.4-14.2 14.2-14.2z" class="Bo"/><path d="M309.8 258.9c1.7-5 3.1-9.9 4.4-14.8 1.2-4.9 2.2-9.7 3-14.3 2.8-17.4 2.5-33.1-.4-47.2-3.2-15.3-9.4-28.6-17.8-40.2-7.8-10.7-17.4-19.8-28.4-27.3-11.7-8.1-24.9-14.4-38.6-19.1-4.7-1.6-9.4-2.9-14.2-4.1a191.51 191.51 0 0 0-14.7-3h0c-.6-.1-1.1.1-1.5.4s-.7.8-.8 1.3v.1c-.3 1.9-6.3 43.2 4 84.5 10.4 41.8 37.3 83.6 103.2 85.1.5 0 .9-.1 1.3-.4l.5-1h0 0zM202.6 92.2c2.1 1.5 10.7 7.9 22.1 18.9-5.5-.4-17.9-1.3-23.7-.9.5-9 1.2-15.5 1.6-18h0zm-1.6 19.9h0c6.7-.4 23.5.9 26 1.1 5.7 5.6 12 12.2 18.5 20l-44.5.3c-.3-8-.3-15.2 0-21.4h0zm.1 23.3l46-.3c6.1 7.3 12.3 15.5 18.3 24.5-9.2.4-53.3 2.4-61.1 4.2-1.8-9.9-2.8-19.5-3.2-28.4h0zm3.6 30.3c7.9-1.8 56.5-3.9 62-4.2 4.8 7.3 9.6 15.2 14 23.7l-69.4 4h-.2c-1.7-4.8-3.1-9.7-4.4-14.6-.8-2.9-1.4-5.9-2-8.9h0zm7 25.5l70-4c3.5 6.7 6.7 13.7 9.8 21-11.4.8-69.2 3.8-69.4 3.8s-.3.1-.4.1c-4-6.7-7.3-13.7-10-20.9h0zm11.1 22.6l69.5-3.8a273.35 273.35 0 0 1 7.2 19.9c-14.3 3-59.6 3.1-59.8 3.1-.3 0-.5.1-.7.3-6.4-5.8-11.7-12.4-16.2-19.5h0zm18.1 21.2c7.3 0 46.2-.4 59.2-3.2 1.4 4.4 2.6 9 3.8 13.6-5.3.7-29.3 3.4-43.7 1.3-.4-.1-.8.1-1 .5-6.9-3.5-13-7.6-18.3-12.2h0zm22.2 14c15 1.5 36.6-1.1 41.2-1.7.9 3.6 1.7 7.2 2.4 10.9-17.1-.5-31.5-3.9-43.6-9.2h0zm45.3 7.4l-2.2-10c3.3-4.9 7.2-13.8 9.2-18.9l-.3 2c-.8 4.6-1.7 9.3-3 14.1-1.1 4.2-2.3 8.4-3.7 12.8h0zm7.6-33.9a.89.89 0 0 0-1 .6s-5 13.4-9.5 20.7c-1.1-4.5-2.4-8.8-3.7-13.1 1.4-2.4 9.3-16 14.9-32 .5 7.5.3 15.4-.7 23.8h0zm.4-27.2c-.4 0-.7.3-.9.7-4.9 14.7-11.9 27.6-14.6 32.3-2.1-6.6-4.5-13-7-19.1 2-3 13.5-21 18.2-35.4.9 3 1.7 6.2 2.4 9.4.9 3.8 1.5 7.9 1.9 12.1h0zm-5-24.2c-.3.1-.5.3-.6.7-3.9 13.1-14.3 30-17.6 35.1-3-7.2-6.3-14.1-9.7-20.7 13.2-15.9 18.2-30.3 19.4-33.9 3.3 5.9 6.2 12.1 8.5 18.8h0zm-9.8-20.7c-.2.1-.4.3-.4.6 0 0-4.2 15.6-18.7 33.4-4.5-8.5-9.2-16.4-14.1-23.8 6-7.6 15.2-28.1 16.5-30.9a103.6 103.6 0 0 1 12.3 14.1c1.6 2.1 3 4.3 4.4 6.6h0zm-18.2-22.2c-.1.1-.1.2-.2.3 0 .1-9.7 22-16 30.3-6.1-9.2-12.4-17.5-18.6-24.9 5.6-10.3 8.6-22.3 9.1-24.3 4 2.2 7.9 4.6 11.6 7.2 5 3.6 9.7 7.3 14.1 11.4h0zM256 108.8c0 .1-.1.2-.1.2s-2.9 12.5-8.6 23.4c-6.6-7.9-13.1-14.7-18.9-20.4 2.4-5.9 3.6-12.4 3.8-13.6 8.3 2.9 16.3 6.3 23.8 10.4h0zm-25.6-11v.1s-1 6.5-3.4 12.5c-10.6-10.2-18.8-16.6-22.1-19.1 4.1.7 8.3 1.6 12.4 2.6 4.3 1.2 8.7 2.5 13.1 3.9z" fill="#9fb2d9"/><path d="M285.4 426.2c-5.5-17.6-18.9-48.3-51.5-84.9-51.5-57.8-83.8-123.2-53.4-146.4 29.9-22.8 105.1 62.8 138.1 228-13.2 2.4-24.2 3.4-33.2 3.3z" fill="#b4c5e6"/><path d="M301.8 417.2c-1.7-.6-6.4-2.1-13-2.2-.5 0-.8-.4-.8-.9s.4-.8.9-.8c5.8.1 10.2 1.2 12.6 2-.6-2.8-1.3-5.5-2-8.2l-15.2-4.8c-.5-.1-.7-.6-.6-1 .1-.5.6-.7 1-.6 3.2.8 10.8 3.3 14.3 4.5l-3.9-14.7c-2.7-.8-11.2-3.2-20.9-4.8-.5-.1-.8-.5-.7-1s.5-.8 1-.7c8.8 1.5 16.6 3.6 20.1 4.6-1.3-4.8-2.7-9.5-4.1-14.1-3.7-1.1-15.9-4.5-29.8-6.9-.5-.1-.8-.5-.7-1s.5-.8 1-.7c12.9 2.2 24.3 5.3 28.9 6.6l-5.7-17.4c-3.8-1.4-19.8-6.8-33.1-6.7-.5 0-.8-.4-.9-.8 0-.5.4-.8.8-.9 12.4-.1 27 4.5 32.4 6.4-2.4-6.9-4.9-13.4-7.5-19.7-5.4-1.4-27.2-6.4-39.4-2.5-.4.1-.9-.1-1.1-.5-.1-.4.1-.9.5-1.1 11.8-3.8 32.1.4 39.1 2.1-2.7-6.6-5.5-12.9-8.2-19-4.1-.3-21.5-1.5-39.1 1.4-.5.1-.9-.2-1-.7s.2-.9.7-1c16.7-2.7 33.1-1.9 38.6-1.5l-5-10.3c-3.9-.4-20.8-1.7-44.8 1.9-.5.1-.9-.2-1-.7s.2-.9.7-1c22.4-3.3 38.7-2.4 44.2-2-4-7.8-8-15.1-12-21.7-5.2.1-31.4.7-46.3 4.7-.5.1-.9-.1-1-.6s.1-.9.6-1c14.3-3.9 38.8-4.6 45.7-4.8-2.3-3.9-4.7-7.5-6.9-11-4.4.1-24.8.8-44.6 5.3-.5.1-.9-.2-1-.6-.1-.5.2-.9.6-1 18.7-4.2 37.8-5.1 43.9-5.3-5.4-8.1-10.7-15.1-15.6-21.2-4.3-.3-23.6-1.4-39.4 2.2-.5.1-.9-.2-1-.6-.1-.5.2-.9.6-1 14.6-3.3 32-2.7 38.3-2.3l-6-7c-3.3-.7-15.7-2.9-32.9-1.8-.5 0-.9-.3-.9-.8s.3-.9.8-.9c14.7-.9 26 .5 31.2 1.4-15.8-17.2-26.9-23.8-27-23.8-.6-.4-.8-1.1-.4-1.7s1.1-.8 1.7-.4c.1 0 4.9 2.9 12.8 9.8-1.5-3.9-3.7-9.4-4.5-10.3-.3-.4-.3-.9.1-1.2s.9-.3 1.2.1c1.2 1.3 4.7 10.7 5.9 13.9 3.2 2.9 6.7 6.4 10.6 10.5l-3-18.3c-.1-.5.2-.9.7-1s.9.2 1 .7l3.4 20.8c2.6 2.9 5.4 6 8.2 9.5l-2.7-21.4a.75.75 0 0 1 1.6-.2l3.1 24.1c4.2 5.3 8.6 11.2 13.1 17.8l-1.4-21.7c0-.5.3-.9.8-.9s.9.3.9.8l1.5 24.6 6.2 9.7-.8-19.5c0-.5.3-.9.8-.9s.9.3.9.8l1 22.5a345.81 345.81 0 0 1 11.5 20.6l.6-18.6c0-.5.4-.8.9-.8s.8.4.8.9l-.7 21.6 4.5 9.2 1.4-13.9c0-.5.5-.8.9-.8.5 0 .8.5.8.9l-1.7 16.7c2.8 5.9 5.5 12.1 8.2 18.6L279 314c.1-.5.5-.8.9-.7.5.1.8.5.7.9l-2.5 18.2 6.9 18 2.4-13.4c.1-.5.5-.8 1-.7s.8.5.7 1l-3 16.3 5.7 17.1 3.6-11.7c.1-.4.6-.7 1.1-.6.4.1.7.6.6 1.1l-4.3 14.1 3.9 13.2 4.4-9.6c.2-.4.7-.6 1.1-.4s.6.7.4 1.1l-5.2 11.4c1.2 4.2 2.3 8.4 3.4 12.8l3.2-6.1c.2-.4.7-.6 1.1-.4s.6.7.4 1.1l-4.1 7.7 2.4 10 4.3-4.4c.3-.3.9-.3 1.2 0s.3.9 0 1.2l-5.1 5.2 1.9 8.4-2.5.3-1.8-7.9z" class="Bi"/><path d="M294.3 438c-8.6-10.1-24.7-25.1-52-38.1-46.3-22.1-83.3-55.4-71.8-80.9 11.1-24.5 76.8 6.8 140.6 102.7L294.3 438h0z" fill="#9fb2d9"/><path d="M182.4 327c-.9-.3-1.4-1.3-1.1-2.2s1.3-1.4 2.2-1.1c.1 0 5.5 1.7 14.3 5.8l-6.2-7.8c-.4-.5-.3-1.2.2-1.6s1.2-.3 1.6.2l9.3 11.6c4.1 2 8.7 4.5 13.7 7.5l-5.8-10.5c-.3-.6-.1-1.3.5-1.6s1.3-.1 1.6.5l7.8 14.1a255.54 255.54 0 0 1 16.4 11.2l-4.7-9.3c-.3-.6-.1-1.3.5-1.6s1.3-.1 1.6.5l6.9 13.6c5.9 4.6 12.1 9.8 18.3 15.7l-3.5-9.4c-.2-.6.1-1.3.7-1.5s1.3.1 1.5.7l5.2 13.9c5.8 5.7 11.5 11.9 17.3 18.7l-.8-5.9c-.1-.6.4-1.2 1-1.3s1.2.4 1.3 1l1.3 9.6c4.3 5.3 8.5 11 12.7 17l-.6-5.9c-.1-.6.4-1.2 1-1.3s1.2.4 1.3 1l1 10.2c2 3 4 6.1 5.9 9.3l-2.6 2.5c-1.9-3.2-3.9-6.3-5.9-9.3-2.8-.7-9.5-2.2-12.7-1.6-.6.1-1.2-.3-1.4-.9-.1-.6.3-1.2.9-1.4 2.8-.5 7.8.3 11.3 1.1l-4.8-6.9c-2.8-.4-9.8-1.2-15 0-.6.1-1.2-.3-1.4-.9-.1-.6.3-1.2.9-1.4 4.4-1 10.1-.6 13.6-.2-3.4-4.5-6.8-8.9-10.2-12.9-4.2.4-17.4 1.7-23.2 4-.6.2-1.3 0-1.5-.6s0-1.3.6-1.5c5.4-2.2 16.8-3.5 22.2-4-3.7-4.3-7.4-8.4-11.2-12.2-4.1.3-17.6 1.4-27.5 5.2-.6.2-1.3-.1-1.5-.7s.1-1.3.7-1.5c8.9-3.4 20.6-4.7 26.2-5.2l-5.5-5.4c-4.2 0-18.5.5-33.2 5.4-.6.2-1.3-.1-1.5-.7s.1-1.3.7-1.5c12.9-4.3 25.5-5.3 31.5-5.5-6.7-6.2-13.4-11.6-19.7-16.3-5 1.3-24.7 6.5-34 11-.6.3-1.3 0-1.6-.5-.3-.6 0-1.3.5-1.6 8.6-4.2 25.6-8.9 32.6-10.7-4.8-3.5-9.4-6.5-13.7-9.2l-26.3 9.9c-.6.3-1.3 0-1.5-.6-.3-.6 0-1.3.6-1.5 3.8-1.6 18.4-7 24.7-9.3-5.7-3.4-10.9-6.3-15.4-8.5l-17.3 7.8c-.6.3-1.3.1-1.6-.5s-.1-1.3.5-1.6c2.2-1.2 10.7-4.9 15.7-7.1-9.5-4.5-15.3-6.3-15.4-6.3z" fill="#b4c5e6"/><path d="M455.7 322h77.7c.6 0 1.2.5 1.3 1.2l13.9 98.8c.1.6-.4 1.2-1 1.2H441.4c-.6 0-1.1-.5-1-1.2l13.9-98.8c.2-.7.8-1.2 1.4-1.2z" class="Bm"/><g class="Bp"><path d="M297.8 104.3h392c3.2 0 5.7 2.6 5.7 5.7v248.9c0 3.2-2.6 5.7-5.7 5.7h-392c-3.2 0-5.7-2.6-5.7-5.7V110c-.1-3.2 2.5-5.7 5.7-5.7z"/><path d="M450.8 322h77.7c.6 0 1.2.5 1.3 1.2l13.9 98.8c.1.6-.4 1.2-1 1.2H436.5c-.6 0-1.1-.5-1-1.2l13.9-98.8c.2-.7.7-1.2 1.4-1.2z"/></g><path d="M415.8 401h147.7c7.8 0 14.2 6.4 14.2 14.2h0c0 7.8-6.4 14.2-14.2 14.2H415.8c-7.8 0-14.2-6.4-14.2-14.2h0c0-7.8 6.4-14.2 14.2-14.2z" class="Bm"/><path d="M293.6 104.3h392c3.2 0 5.7 2.6 5.7 5.7v248.9c0 3.2-2.6 5.7-5.7 5.7h-392c-3.2 0-5.7-2.6-5.7-5.7V110c0-3.2 2.6-5.7 5.7-5.7z" fill="#aeabba"/><path d="M293.6 106.1h392c2.1 0 3.9 1.7 3.9 3.9v228.1c0 1.3-1.1 2.4-2.4 2.4H292.2c-1.3 0-2.4-1.1-2.4-2.4V110c0-2.1 1.7-3.9 3.8-3.9z" fill="#4c4c4c"/><path d="M300.7 117.1h377.9v212.5H300.7z" class="Bi"/><path d="M551.8 240.4h113.8a3.33 3.33 0 0 1 3.3 3.3v76.5a3.33 3.33 0 0 1-3.3 3.3H551.8a3.33 3.33 0 0 1-3.3-3.3v-76.5a3.33 3.33 0 0 1 3.3-3.3z" class="Bk"/><path d="M317.6 165.2h73c4.6 0 8.3 3.8 8.3 8.3v25.7c0 4.6-3.8 8.3-8.3 8.3h-73c-4.6 0-8.3-3.8-8.3-8.3v-25.7c-.1-4.6 3.7-8.3 8.3-8.3zm-5 68.5h154.2a3.33 3.33 0 0 0 3.3-3.3v-10.3a3.33 3.33 0 0 0-3.3-3.3H312.6a3.33 3.33 0 0 0-3.3 3.3v10.3c-.1 1.8 1.4 3.3 3.3 3.3z" fill="#e4e1e8"/><path d="M312.6 258.9h223.8a3.33 3.33 0 0 0 3.3-3.3v-10.3a3.33 3.33 0 0 0-3.3-3.3H312.6a3.33 3.33 0 0 0-3.3 3.3v10.3c-.1 1.8 1.4 3.3 3.3 3.3z" class="Bj"/><path d="M319.2 272.3h102.5 102.5c1.2 0 2.2.7 2.2 1.5v4.2c0 .8-1 1.5-2.2 1.5H421.7 319.2c-1.2 0-2.2-.6-2.2-1.5v-4.2c0-.8 1-1.5 2.2-1.5z" class="Bk"/><path d="M319.2 286.1h74.7 74.8c1.2 0 2.2.6 2.2 1.4v4.2c0 .8-1 1.4-2.2 1.4h-74.8-74.6c-1.2 0-2.2-.6-2.2-1.4v-4.2c-.1-.7.9-1.4 2.1-1.4z" fill="#e4e1e8"/><path d="M319.3 299.9h60.3 60.3c1.2 0 2.2.6 2.2 1.5v4.2c0 .8-1 1.5-2.2 1.5h-60.3c-20.1 0-40.3-.1-60.3 0-1.2 0-2.2-.7-2.2-1.5v-4.2c0-.9 1-1.5 2.2-1.5z" class="Bj"/><path d="M319.3 313.6h88.1 88.2c1.2 0 2.2.7 2.2 1.5v4.2c0 .8-1 1.5-2.2 1.5h-88.2-88.1c-1.2 0-2.2-.6-2.2-1.5v-4.2c0-.8 1-1.5 2.2-1.5zm97.4-148.4h60.1c4.6 0 8.3 3.8 8.3 8.3v25.7c0 4.6-3.8 8.3-8.3 8.3h-60.1c-4.6 0-8.3-3.8-8.3-8.3v-25.7c-.1-4.6 3.7-8.3 8.3-8.3z" class="Bk"/><path d="M312.6 126.4h278.9a3.33 3.33 0 0 1 3.3 3.3V140a3.33 3.33 0 0 1-3.3 3.3H312.6a3.33 3.33 0 0 1-3.3-3.3v-10.3c-.1-1.8 1.5-3.3 3.3-3.3z" class="Bj"/><use xlink:href="#C" fill="#c0cdea"/><use xlink:href="#C" x="25" class="Bj"/><g class="Bk"><use xlink:href="#C" x="50"/><path d="M607.7 160h53.7c1 0 1.8.9 1.8 1.9v13.5c0 1.1-.8 1.9-1.8 1.9h-53.7c-1 0-1.8-.9-1.8-1.9v-13.5c0-1 .8-1.9 1.8-1.9z"/></g><path d="M610.4 193.8h48.4c2.5 0 4.5 2.1 4.5 4.6l-.1 32.8c0 2.5-2 4.6-4.5 4.6h-48.4c-2.4 0-4.5-2.1-4.5-4.6v-32.8c.1-2.5 2.1-4.6 4.6-4.6z" class="Bj"/><g fill="#004c84"><use xlink:href="#D"/><use xlink:href="#D" y="-16.4"/><use xlink:href="#D" y="16.4"/><path d="M559.3 293h101.1c1.5 0 2.8.7 2.8 1.6v4.5c0 .9-1.3 1.6-2.8 1.6H559.3c-1.5 0-2.8-.7-2.8-1.6v-4.5c0-.9 1.3-1.6 2.8-1.6zm0 16.3h101c1.5 0 2.8.7 2.8 1.6v4.6c0 .9-1.3 1.6-2.8 1.6h-101c-1.5 0-2.8-.7-2.8-1.6v-4.6c0-.8 1.3-1.6 2.8-1.6z"/></g><path d="M502.1 160.1l87.4-.1c4.4 0 8.1 3.8 8.1 8.4l-.1 59.2c0 4.5-3.6 8.3-8.1 8.3H502c-4.4 0-8-3.8-8-8.3v-59.1c0-4.7 3.7-8.4 8.1-8.4z" fill="#c0cdea"/><path d="M520.2 374.9l3.7 26.1h16.9l-5.1-36.3h-87.1-4.9l-1.3 9.1h4.9H519c.5 0 1.1.5 1.2 1.1z" fill="#2d304f"/><path d="M113.6 233.3c-17.4-17.7-30.3 4.8-28.5 27.3s22.2 102.9 16 130.2c-.5 2.1-.8 3.7-.9 4.9h3.7c.3-.5.6-1 1-1.6 19.7-33.5 32.6-136.5 8.7-160.8z" class="Bq"/><g class="Bk"><path d="M103.4 395.7c22.1-62.7-1.5-158.1-1.6-158.4-.1-.5-.7-.9-1.2-.7-.5.1-.9.7-.7 1.2.1.3 23.7 96 1.4 157.9h2.1z"/><path d="M70.8 272.2c-18.3-9.7-22.9 11.5-15.8 28.9 6.7 16.3 38.9 68.7 44.8 94.6h5.8c4-35.6-11.2-111-34.8-123.5z"/></g><path d="M103.6 395.7c-2.4-53.9-41.1-117.1-41.2-117.3-.2-.4-.8-.5-1.1-.3-.4.2-.5.8-.3 1.1.1.2 38.6 63.1 41 116.4h1.6z" class="Bq"/><path d="M148.1 296.7c17.7-7.7 20.5 12.3 12.7 28.1-6.1 12.2-30.3 46.2-42.5 71h-10.8c3.1-35.9 20.6-90.4 40.6-99.1z" class="Bk"/><path d="M111.3 395.7c10.6-46 44.1-92.5 44.2-92.7.2-.3.7-.4 1.1-.2.3.3.4.7.2 1.1-.1.2-33.3 46.2-43.9 91.8h-1.6z" class="Bq"/><g class="Bm"><path d="M85.9 372h51.9c1.6 0 2.8 1.3 2.8 2.8v12.8c0 1.6-1.3 2.8-2.8 2.8H85.9c-1.6 0-2.8-1.3-2.8-2.8v-12.8c-.1-1.5 1.2-2.8 2.8-2.8z"/><path d="M94.8 382.5h34.1l8.9 8-7.3 28h-18.7-18.7l-7.2-28z"/></g><path d="M137.8 390.5l-1.5 5.8h-49l-1.4-5.8z" class="Bo"/><path d="M684.9 437.1H73.5a10.93 10.93 0 0 1-10.9-10.9h0a10.93 10.93 0 0 1 10.9-10.9h611.4a10.93 10.93 0 0 1 10.9 10.9h0c0 5.9-4.9 10.9-10.9 10.9z" fill="#4c4c4c"/><path d="M309.6 230.4s-13 3.1-5.7 21.4c2.9 7.2-4.6 16.3-8.2 11.7-5.7-7.1-9.7-32.3-8.9-34.8 1.3-4 19.9-11.4 22.8 1.7z" fill="#022d51"/><path d="M289.2 229.2s6.4 5.4 9.8 22 7.8 21.6 11.3 26.8 15.7 26.9 15.8 27.9c.1 1.1-2.9 2.1-4.2 1.5s-22-25.1-23.7-27.9-6-6.4-7.8-15.4c-1.7-9.1-11.4-27-1.2-34.9z" class="Bj"/><path d="M303.1 218l-3.9 7s-8.6 2.9-10.9 9c-2.2 6.1-7.7-10.5-8-16.5-.4-6 2.4-6.8 2.4-6.8s9.2-.5 14.5-4.6 5.9 11.9 5.9 11.9z" fill="#fdddb1"/><path d="M236.8 272.1s15.8 51.4 18.2 66.7-2 32.3-3.4 53.8c0 0 0 4.6-1.4 7.1s-6.4.8-6.6-5.5c-.2-6.4-2.1-43.7-2.6-50.1s-26.2-46.9-26.9-50.9c-.8-4.1 2-28.7 22.7-21.1z" class="Bl"/><path d="M202.4 250.4l-5.7.9s-8 7.5-8.7 26.4 4 52.3 2.1 60.8-12.5 37.5-17.2 49.8-.9 11.8 1.6 11.3c2.6-.5 25.7-41.7 31.6-52.8s18.4-71.4 19.8-75.9c1.5-4.5-23.5-20.5-23.5-20.5z" class="Bn"/><g fill="#ff9841"><path d="M282.7 210.7s-36.4-1.7-63.5 22.6c0 0-5.8 5.7-13.1 9.2s-9.3 6-9.4 8.8 7.4 22.3 34.1 24.2c0 0 8.3 1.1 10-1.9 1.8-2.9 3.8-8.4 9-10.5s19.2-.8 23.9-5.9 13.7-34.2 13.8-35-4.8-11.5-4.8-11.5z"/><path d="M282.7 210.7s-1.4 6.8 3 16 7 16.7 7.3 27.2c.4 10.5-1.9 19.5 1.5 25.3 3.4 5.9 23.3 21.3 24.4 22.5s-.1 5.7-2 6c-1.9.4-30.9-17.3-35.6-23.9s-11.3-20.6-13.4-40.7c-2.1-20 8.3-32.9 14.8-32.4z"/></g><path d="M253.7 374.9s1.3.5 1.3 1.9-2 31.5-1.3 33.5 10 5.2 11.7 5.6 3.6 2.3 1.7 4.8c0 0 .1 1.4-.4 1.8s-7.5.6-11.9-.4-6.9-1.7-10.6-1.7-4.7-.3-4.6-2.5c0 0-.5-3 .5-8 .9-5 1.3-6.2 1-16.4l-.7-16.5c0-1.4.8-1.8 2.4-2.1 1.5-.4 6.3-.5 10.9 0z" class="Bp"/><path d="M267.2 420.7s.1 1.4-.4 1.8-7.5.6-11.9-.4-6.9-1.7-10.6-1.7-4.7-.3-4.6-2.5c.8.2 4 .6 7 .7s6.6 1.7 12.4 2.3c5.7.7 8.1-.2 8.1-.2z" fill="#c7c3d1"/><path d="M188.2 378.3s1 1 .3 2.3c-.6 1.3-15.6 27.4-15.9 29.5s6.7 9.1 8.1 10.2 2.2 3.7-.5 5.1c0 0-.5 1.3-1.1 1.4s-7-2.7-10.5-5.5-5.5-4.6-8.8-6.2-4.1-2.3-3.1-4.3c0 0 .9-2.9 3.9-7s3.9-5 8.1-14.3l6.6-15.2c.6-1.3 1.5-1.3 3.1-.9 1.5.5 5.8 2.5 9.8 4.9z" class="Bp"/><path d="M180.2 425.4s-.5 1.3-1.1 1.4-7-2.7-10.5-5.5-5.5-4.6-8.8-6.2-4.1-2.3-3.1-4.3c.5.8 1.6 1.9 4.2 3.3s4.7 2.6 8.8 6.3c4 3.5 10.5 5 10.5 5z" fill="#c7c3d1"/><path d="M328.9 205.9c2.1 7.4-4.7 19.8-9.2 24.6-2.1 2.2-4.9-.5-5.4-.3-4.1 1.3-3.4 6.2-9.8-.1-4.6-4.5-7.3-10-8.5-15.6-1.3-5.6 5.7-16 10.8-16.4s17.6-2.8 22.1 7.8z" fill="#d1a26f"/><ellipse transform="matrix(.7071 -.7071 .7071 .7071 -44.618 355.8151)" cx="407.2" cy="231.8" rx="63.7" ry="33.9" fill="#e9f2fa"/><path d="M399 195v4.3c0 4.6-3.8 8.3-8.3 8.3h-7.1c4.9-4.8 10.1-9.1 15.4-12.6zm-35.6 38.7H448c3.3-5.8 5.8-11.5 7.3-17H375c-4.7 5.6-8.6 11.4-11.6 17z" fill="#b2cde5"/><path d="M355.2 258.9H428l2.1-2.1c4.8-4.8 9-9.8 12.6-14.9h-83.3c-2.4 6-3.8 11.8-4.2 17z" class="Bj"/><path d="M357.3 272.3H411c-4.5 2.9-9.1 5.3-13.5 7.1h-34.6c-.6-.5-1.2-1-1.7-1.5a16.65 16.65 0 0 1-3.9-5.6zm99.7-64.7h-40.4c-4.6 0-8.3-3.8-8.3-8.3v-9.9c17.5-9.1 34.1-10.3 42.9-1.5 4.7 4.7 6.5 11.6 5.8 19.7z" fill="#5096d1"/><path d="M316.9 213.9c-4.5 4.9-.5 15.1-9.5 16.4-10.3 1.5-12.3 5.5-13 9.4-2 10.8-8.1 11.1-17.2 5.7-5.6-3.4-8.3-9.2-21.7.5-16.4 11.9-39-31.3-8.2-35.5 14.4-2 17.2-1.6 23.9-11.6 9.3-13.8 20.8 6.1 33.4-13.2 8.3-12.7 37.3 4.5 28.4 20.9-5.1 9.4-11.6 2.4-16.1 7.4z" fill="#003261"/><path d="M317.4 288.8s-7 .2-8.3 4.9c0 0-.1.3.4.9.5.5 11.6 13.8 12.4 14.6.3.3 1.2.1 2-.4l.2.4c.2.4 4.8-.2 5-.4s2.9-2 2.3-2.7-3.4-.3-4.2-.6c-.7-.3-1.8-2-1.8-2-2.1-4.1-7.1-14.1-8-14.7z" class="Bl"/><path d="M354.7 284.3h0a4.89 4.89 0 0 1 0 6.9l-65.4 65.4a4.89 4.89 0 0 1-6.9 0h0a4.89 4.89 0 0 1 0-6.9l65.4-65.4a4.89 4.89 0 0 1 6.9 0z" class="Bm"/><path d="M369 282.2l-12.4 12.4c-4 4-10 4.5-13.3 1.1h0c-3.3-3.3-2.8-9.3 1.1-13.3l12.4-12.4 12.2 12.2z" class="Bo"/><g class="Bl"><path d="M447.4 186.4c-11.8-11.8-41-1.7-65.2 22.5s-34.3 53.4-22.5 65.2l6 6 1.8-1.8c.3.1.6.1.9.2-1.6-5.2-3.4-12.2-3.4-17.7 0-10 12.4-33.6 43.6-56.8 24.7-18.3 39.3-13.9 44.3-11.2l.5-.5-6-5.9z"/><path d="M460.2 192.9c13.8 13.8 4 46.1-22 72-26 26-58.2 35.8-72 22l-7-7 1.9-1.9c-.1-.3-.2-.7-.3-1.1 6 2.1 13.9 4.4 20 4.7 11.2.5 37.1-12.2 61.5-46.1 19.3-26.8 13.6-43.4 10.4-49.2l.5-.5 7 7.1z"/></g><path d="M453.2 185.9c13.8 13.8 4 46.1-22 72s-58.2 35.8-72 22-4-46.1 22-72 58.1-35.9 72-22h0zM446 193c-10.6-10.6-37.1-1.4-59.1 20.6s-31.3 48.5-20.6 59.1c10.6 10.6 37.1 1.4 59.1-20.6s31.3-48.5 20.6-59.1zm-138.3 99.3s-1.6 4.7-5.4 7.4c0 0-.4.8.2 1.3s17.7 8.6 19.5 10.1 1.9 4.4 3.6 4.8 2.2-.5 2.4-.9c.1-.4 1-.5 1.2-.8s.1-.8.4-1.1.9-.4 1.1-.7.2-.8.3-1.3-.1-1.8-1.8-3.1c-1.7-1.4-3.9-1.1-5.7-3.1-1.9-1.9-10.9-9-14.9-12.7 0 .2-.4-.3-.9.1z" class="Bn"/><path d="M671.3 331a28.17 28.17 0 1 1 0 56.4 28.17 28.17 0 1 1 0-56.4h0zm0 13.3c-8.2 0-14.9 6.7-14.9 14.9s6.7 14.9 14.9 14.9 14.9-6.7 14.9-14.9c0-8.3-6.7-14.9-14.9-14.9z" class="Bi"/><path d="M668,318.2v54c0,23.6-19.3,43-43,43h-20.9c-23.6,0-43-19.3-43-43v-54H668z" fill="#edf1f9"/><path d="M605.8 415.2h-1.7c-23.6 0-43-19.3-43-43v-54h87.7v54c0 23.6-19.3 43-43 43z" class="Bi"/><path d="M668 325.5v6.6c-.4.1-.9.3-1.3.4-13.4 4-31.9 6.4-52.2 6.4s-38.7-2.5-52.2-6.4c-.4-.1-.9-.3-1.3-.4v-6.6c1.5.5 3.1 1.1 4.8 1.6 12.4 3.7 29.6 5.9 48.7 5.9s36.3-2.3 48.7-5.9c1.7-.5 3.3-1 4.8-1.6z" fill="#469df0"/><path d="M614.5 325.3c29.4 0 53.4-3.2 53.4-7.1s-24-7.1-53.4-7.1-53.4 3.2-53.4 7.1 24 7.1 53.4 7.1z" fill="#edf1f9"/><path d="M664.4 320.8c-7.8 2.6-27.1 4.5-49.8 4.5s-42.1-1.9-49.8-4.5c7.8-2.6 27.1-4.5 49.8-4.5 22.6 0 42 1.8 49.8 4.5z" fill="#080321"/><path d="M588 281.4h5a3.76 3.76 0 0 0 3.7-3.7h0a3.76 3.76 0 0 0-3.7-3.7h-14.2c-5.3 0-9.6-4.3-9.6-9.6h0c0-5.3 4.3-9.6 9.6-9.6h47.9c5.3 0 9.6 4.3 9.6 9.6h0c0 5.3-4.3 9.6-9.6 9.6H619a3.76 3.76 0 0 0-3.7 3.7h0a3.76 3.76 0 0 0 3.7 3.7h12.5c4.1 0 7.4 3.3 7.4 7.4h0c0 4.1-3.3 7.4-7.4 7.4h-.2c-8.1 0-14.7 6.6-14.7 14.7v6.7c0 1.9-1.6 3.5-3.5 3.5h0c-1.9 0-3.5-1.6-3.5-3.5v-12.8c0-4.7-3.9-8.6-8.6-8.6h-13c-4.1 0-7.4-3.3-7.4-7.4h0c0-4.1 3.4-7.4 7.4-7.4h0zm61.7-26.5h0c5.3 0 9.6 4.3 9.6 9.6h0c0 5.3-4.3 9.6-9.6 9.6h0c-5.3 0-9.6-4.3-9.6-9.6h0c0-5.3 4.4-9.6 9.6-9.6z" class="Bi"/><path d="M444.8 3.6h-75.2c-5.5 0-9.9 4.5-9.9 9.9v41 3 26.1c0 .5.3.8.7 1s.9.1 1.2-.2l16.9-16.9h66.3c5.5 0 9.9-4.5 9.9-9.9v-44c0-5.5-4.4-10-9.9-10z" fill="#ff9841"/><path d="M429.4 41c3 0 5.5-2.5 5.5-5.5s-2.5-5.5-5.5-5.5-5.5 2.5-5.5 5.5 2.4 5.5 5.5 5.5zm-22.2 0c3 0 5.5-2.5 5.5-5.5s-2.5-5.5-5.5-5.5-5.5 2.5-5.5 5.5 2.5 5.5 5.5 5.5zM385 41c3 0 5.5-2.5 5.5-5.5S388 30 385 30s-5.5 2.5-5.5 5.5c.1 3 2.5 5.5 5.5 5.5z" class="Bi"/><path d="M285.8 40.6H340c3.9 0 7.2 3.2 7.2 7.2v29.5 2.2 18.8c0 .3-.2.6-.5.7s-.6.1-.9-.2l-12.2-12.2h-47.8c-3.9 0-7.2-3.2-7.2-7.2V47.8a7.17 7.17 0 0 1 7.2-7.2z" fill="#469df0"/><path d="M298.8 51.1c-2.2 2.2-3.3 5.2-3.3 8.1s1.1 5.8 3.3 8.1c2.2 2.2 5.2 3.3 8.1 3.3 2.2 0 4.4-.6 6.3-1.9l2.8 2.8c0 .7.3 1.4.9 2l8.1 8.1c1.2 1.2 3.1 1.2 4.3 0s1.2-3.1 0-4.3l-8.1-8.1c-.5-.6-1.3-.8-2-.9l-2.8-2.8c1.3-1.9 1.9-4.1 1.9-6.3 0-2.9-1.1-5.8-3.3-8.1-2.2-2.2-5.2-3.3-8.1-3.3s-5.9 1.1-8.1 3.3h0zm1.3 8.1a6.91 6.91 0 0 1 6.8-6.8 6.91 6.91 0 0 1 6.8 6.8 6.91 6.91 0 0 1-6.8 6.8 6.91 6.91 0 0 1-4.8-2c-1.4-1.3-2-3-2-4.8z" class="Bi"/></g><defs ><path id="B" d="M581.5 172.2c5.5-1.5 10.7-3.7 15.5-6.4l13.3 13.3c1.8 1.8 4.8 1.8 6.6 0l20.3-20.3c1.8-1.8 1.8-4.8 0-6.6L624 138.8c2.7-4.8 4.9-10 6.4-15.5h18.7c2.6 0 4.7-2.1 4.7-4.7V89.9c0-2.6-2.1-4.7-4.7-4.7h-18.7c-1.5-5.5-3.7-10.7-6.4-15.5l13.3-13.3c1.8-1.8 1.8-4.8 0-6.6L617 29.5c-1.8-1.8-4.8-1.8-6.6 0L597 42.7c-4.8-2.7-10-4.9-15.5-6.4V17.5c0-2.6-2.1-4.7-4.7-4.7h-28.7c-2.6 0-4.7 2.1-4.7 4.7v18.7c-5.5 1.5-10.7 3.7-15.5 6.4l-13.3-13.3c-1.8-1.8-4.8-1.8-6.6 0l-20.3 20.3c-1.8 1.8-1.8 4.8 0 6.6L501 69.5a70.3 70.3 0 0 0-6.4 15.5h-18.7c-2.6 0-4.7 2.1-4.7 4.7v28.7c0 2.6 2.1 4.7 4.7 4.7h18.7c1.5 5.5 3.7 10.7 6.4 15.5l-13.3 13.3c-1.8 1.8-1.8 4.8 0 6.6L508 179c1.8 1.8 4.8 1.8 6.6 0l13.3-13.3c4.8 2.7 10 4.9 15.5 6.4V191c0 2.6 2.1 4.7 4.7 4.7h28.7c2.6 0 4.7-2.1 4.7-4.7v-18.8h0zm-19-31.2c-20.3 0-36.8-16.5-36.8-36.8s16.5-36.8 36.8-36.8 36.8 16.5 36.8 36.8c-.1 20.4-16.5 36.8-36.8 36.8z"/><path id="C" d="M613.6 141.4a6.49 6.49 0 1 0 0-13 6.49 6.49 0 1 0 0 13z"/><path id="D" d="M559.3 260.3h101.1c1.5 0 2.8.7 2.8 1.6v4.6c0 .9-1.3 1.6-2.8 1.6H559.3c-1.5 0-2.8-.7-2.8-1.6v-4.6c0-.9 1.3-1.6 2.8-1.6z"/></defs></svg>