<svg xmlns="http://www.w3.org/2000/svg" xmlns:xlink="http://www.w3.org/1999/xlink" viewBox="0 0 760 440" xmlns:v="https://vecta.io/nano"><style><![CDATA[.Bi{fill:#ffb27d}.Bj{fill:#233862}.Bk{fill:#8cb4f4}.Bl{fill:#2b478b}]]></style><path d="M68.1 436s-90.6-109.2-46.3-221.6C50.6 141.2 158.9 101 220 141.2c26 17.1 109.6.6 154.2-70.2 86.7-137.6 389.1-54 334 157.2-26.6 102.2 81.1 105.9 26.2 208.1L68.1 436z" fill="#ebf3fa"/><g fill="#c8dbf4"><path d="M135.1 256.3s-9.1-10.7-.6-17.4c0 0 6.3-3.8 11.4-3.5 0 0-7.2 12.1-4.9 13.3s7.1-14.1 7.1-14.1 14.3-1.4 18.8.8c0 0-12.2 10-9.6 10.6s15.7-9.2 15.7-9.2 13.3 2.3 12.6 10.4-5.3 10.6-7.3 10.4-13.8-4.7-14-3.1c-.3 1.6 6.8 7 11.8 7.3 0 0-9.4 10.3-15.6 7.3s-6.7-7.7-10.6-9.5-7.2-1.8-5.6 0 8.6 3.6 10.8 7.5 4.2 6.6-2.2 5.6-16.9-5.7-17.3-11.1-.5-5.3-.5-5.3z"/><path d="M179.1 247.4s-36-1.4-44 8.9c0 0-1.8 5.3-7.2 10.1l-.8 2.3s6.2-6.6 8.5-7c0 0-3.5-12.7 43.5-14.3z"/><path d="M128 266.4s-7.7 5.7-8.3 15.9l1.4.1s2.5-10.6 6.9-14.7c4.5-4.1 0-1.3 0-1.3zm-24.8-23.5s14.5-8.1 7.8-19.2c0 0-5.4-6.8-11.2-8.5 0 0 3.1 16.5 0 16.9s-2.1-18.6-2.1-18.6-15.3-7.4-21.3-6.8c0 0 9.5 16.1 6.4 15.7S69 205.7 69 205.7s-15.7-2.9-18.2 6.4 1.6 14 3.9 14.5c2.3.6 17.3.4 16.9 2.3s-10.5 5-16.1 3.3c0 0 6.2 15.3 14.3 14.5s10.7-5.8 15.7-6.2 8.7 1 6.2 2.3c-2.5 1.4-11.1.4-15.1 3.9-4.1 3.5-7.4 5.6.2 7.1 7.6 1.6 21.1.6 23.8-5.2l2.6-5.7z"/><path d="M57.8 215s40.7 13.2 45.4 27.9c0 0-.2 6.6 3.9 14.2v2.9s-4.3-9.9-6.6-11.2c0-.1 9.1-12.8-42.7-33.8z"/><path d="M107.1 257.1s6.3 9.5 2.7 21.1l-1.6-.4s1.6-12.8-1.7-19.2c-3.4-6.5.6-1.5.6-1.5z"/></g><g fill="#d4e4f8"><path d="M126.3 231.7s-19.2-10.7-10.2-25.3c0 0 7.2-8.9 14.8-11.2 0 0-4.1 21.7 0 22.2s2.8-24.5 2.8-24.5 20.2-9.7 28.1-8.9c0 0-12.5 21.2-8.4 20.7s18.1-22 18.1-22 20.7-3.8 24 8.4c3.3 12.3-2 18.4-5.1 19.2s-22.7.5-22.2 3.1 13.8 6.6 21.2 4.3c0 0-8.2 20.2-18.9 19.2s-14.1-7.7-20.7-8.2-11.5 1.3-8.2 3.1 14.6.6 19.9 5.1c5.4 4.6 9.7 7.4-.3 9.4s-27.9.8-31.4-6.9l-3.5-7.7z"/><path d="M186.1 194.9s-53.7 17.4-59.8 36.8c0 0 .3 8.7-5.1 18.7v3.8s5.6-13 8.7-14.8c0 0-12-16.9 56.2-44.5z"/><path d="M121.2 250.4s-8.3 12.6-3.6 27.9l2.1-.6s-2.1-16.9 2.3-25.3c4.4-8.5-.8-2-.8-2z"/><path d="M125.7 311.4c20.7 0 37.5-16.8 37.5-37.5H88.1c0 20.7 16.8 37.5 37.6 37.5z"/><path d="M163.7,313.3H87.6v-0.1c0-2.5,2-4.5,4.5-4.5h67.2c2.5,0,4.5,2,4.5,4.5V313.3z"/></g><path d="M86.9 273.9h77.2v1.2H86.9z" fill="#9fc1f4"/><g class="Bk"><path d="M319.4 435.3h.2c1.5 0 2.7-1.3 2.5-2.7L312 331.5l-8.8.8 14.5 101.6c.1.8.9 1.4 1.7 1.4zm-97.4 0h-.2c-1.5 0-2.7-1.3-2.5-2.7l10.1-101.1 8.8.8-14.5 101.6c-.2.8-.9 1.4-1.7 1.4zm168.8 0h.2c1.5 0 2.7-1.3 2.5-2.7l-10.1-101.1-8.8.8 14.5 101.6c.1.8.9 1.4 1.7 1.4zM225 316.8l-18-88.7c-2.3-12 7.6-23 20.6-22.7l34.6.8c12 .3 22.3 8.3 25.7 19.8l26.3 90.9H225z"/><path d="M235.8 316.8l-18-88.7c-2.3-12 7.6-23 20.6-22.7l34.6.8c12 .3 22.3 8.3 25.7 19.8l26.3 90.9h-89.2z"/><path d="M232.8 333h131.4c4.3 0 7.8-3.5 7.8-7.8v-.5c0-4.3-3.5-7.8-7.8-7.8H225v8.3c0 4.2 3.5 7.8 7.8 7.8z"/><path d="M298.1 333h79.8c4.3 0 7.8-3.5 7.8-7.8v-.5c0-4.3-3.5-7.8-7.8-7.8h-79.8c-4.3 0-7.8 3.5-7.8 7.8v.5c0 4.2 3.5 7.8 7.8 7.8z"/></g><path d="M184.1 315.6v3c0 1.1-.3 1.9-.8 1.9H72.9c-.4 0-.8-.9-.8-1.9v-3c0-1.1.3-1.9.8-1.9h110.5c.3 0 .7.9.7 1.9z" fill="#9abfe2"/><path d="M184.1 315.6v3c0 1.1-.3 1.9-.7 1.9H95.7c-.4 0-.7-.9-.7-1.9v-3c0-1.1.3-1.9.7-1.9h87.7c.4 0 .7.9.7 1.9z" fill="#bad4f4"/><path d="M77.7 320.6h78.4v114.3H77.7z" fill="#c8dbf4"/><path d="M99.7 320.6h78.4v114.3H99.7z" fill="#dfebfd"/><g fill="#b7d3f3"><path d="M173.9 428.6h-70V323.8h70v104.8zm-69.2-.8h68.5V324.6h-68.5v103.2z"/><path d="M104.3 358.5h69.2v.8h-69.2zm0 35.3h69.2v.8h-69.2zm41.7-63.2h-12.8a1.11 1.11 0 0 1-1.1-1.1h0a1.11 1.11 0 0 1 1.1-1.1H146a1.11 1.11 0 0 1 1.1 1.1h0c0 .5-.5 1.1-1.1 1.1z"/><use xlink:href="#B"/><use xlink:href="#B" y="36"/></g><path d="M480.7 115.1h-27.2a15.41 15.41 0 0 1-15.4-15.4V74.2a15.41 15.41 0 0 1 15.4-15.4h27.2a15.41 15.41 0 0 1 15.4 15.4v25.5c0 8.4-7 15.4-15.4 15.4z" fill="#c0d8fb"/><path d="M479.5 112.6h-24.9c-7.7 0-14.1-6.3-14.1-14.1V75.3c0-7.7 6.3-14.1 14.1-14.1h24.9c7.7 0 14.1 6.3 14.1 14.1v23.3c-.1 7.7-6.4 14-14.1 14z" fill="#dfebfd"/><g fill="#b7d3f3"><circle cx="467.1" cy="66.4" r="1.2"/><circle transform="matrix(.4857 -.8741 .8741 .4857 185.0817 451.906)" cx="476.6" cy="68.7" r="1.2"/><circle transform="matrix(.8404 -.542 .542 .8404 36.3234 274.6972)" cx="484.5" cy="75.7" r="1.2"/><circle cx="488" cy="86.1" r="1.2"/><circle transform="matrix(.7071 -.7071 .7071 .7071 73.0524 371.5428)" cx="485" cy="97.6" r="1.2"/><circle transform="matrix(.7071 -.7071 .7071 .7071 65.4938 368.4234)" cx="477.5" cy="105.2" r="1.2"/><circle cx="467.1" cy="108.2" r="1.2"/><circle transform="matrix(.8741 -.4857 .4857 .8741 24.2443 230.8582)" cx="457.5" cy="68.7" r="1.2"/><circle transform="matrix(.5421 -.8403 .8403 .5421 142.256 412.4306)" cx="449.6" cy="75.7" r="1.2"/><circle cx="446.1" cy="86.1" r="1.2"/><circle transform="matrix(.7071 -.7071 .7071 .7071 62.5188 346.1125)" cx="449.1" cy="97.6" r="1.2"/><circle transform="matrix(.7071 -.7071 .7071 .7071 59.3798 353.663)" cx="456.6" cy="105.2" r="1.2"/><circle cx="467.9" cy="86.1" r="1.2"/><path d="M467.8 71.1h.3v15h-.3z"/><path d="M467.511 85.707l7.945-6.237.618.787-7.945 6.237z"/></g><path d="M344.4 298.2c-7.4 12.9-16.7 17.9-16.7 17.9h-38.8c-.1 0 61.2-27.7 55.5-17.9z" class="Bj"/><path d="M392.3 426.4c-.4 4.1 5.2 5.1 11.8 5.5s4.6 1.7 13.6 3.4 12.6-.7 13.3-1.9c.6-1.1-3.6-2.8-8-4.8-.6-.2-1.1-.5-1.7-.7-5-2.3-7.8-6.8-11.6-11-3.7-4-7.1-16.7-7.1-16.7l-12.2-2.7 4.5 16.3c.7 2.9-.4 6.1-1.3 8.5-.7 1.4-1.2 2.7-1.3 4.1z" class="Bi"/><path d="M404.1 432c6.6.4 4.6 1.7 13.6 3.4s12.6-.7 13.3-1.9c.6-1.1-3.6-2.8-8-4.8l-.1.1s-6.4 2.1-13.6 0c-5.9-1.7-11.7-5.3-15.8-6.5-.5 1.3-1 2.7-1.2 4.1-.5 4.1 5.2 5.2 11.8 5.6z" fill="#0f2549"/><path d="M373.8 285c-6.6-4.6-50-12.8-72.2-15.2L277 248.5s-20.9 30.9-21 54.5c-.1 11 5 12.1 5 12.1l82 .9c5.6.6 13.1 14.6 14.9 27.4 1.9 12.8 34.6 64.8 34.6 64.8s6.8 2.2 10 2c3.4-.2 5-1.3 5-1.3S388.6 295.4 373.8 285z" class="Bj"/><path d="M371.9 426.4c-.4 4.1 5.2 5.1 11.8 5.5s4.6 1.7 13.6 3.4 12.6-.7 13.3-1.9c.6-1.1-3.6-2.8-8-4.8-.6-.2-1.1-.5-1.7-.7-5-2.3-7.8-6.8-11.6-11-3.7-4-7.1-16.7-7.1-16.7l-12.2-2.7 4.5 16.3c.7 2.9-.4 6.1-1.3 8.5-.6 1.4-1.1 2.7-1.3 4.1z" class="Bi"/><path d="M383.7 432c6.6.4 4.6 1.7 13.6 3.4s12.6-.7 13.3-1.9c.6-1.1-3.6-2.8-8-4.8l-.1.1s-6.4 2.1-13.6 0c-5.9-1.7-11.7-5.3-15.8-6.5-.5 1.3-1 2.7-1.2 4.1-.4 4.1 5.3 5.2 11.8 5.6z" class="Bj"/><path d="M353.3 285c-5.7-4-22.9-7.1-41.8-9.4-5.2-.6-9.5-4.4-10.8-9.6h0l-44.1-17.5s-20.9 30.9-21 54.5c-.1 11 5 12.1 5 12.1l82 .9c5.6.6 13.1 14.6 14.9 27.4 1.9 12.8 34.6 64.8 34.6 64.8s6.8 2.2 10 2c3.4-.2 5-1.3 5-1.3s-19-113.5-33.8-123.9z" class="Bl"/><path d="M294.3 120.1c-6.1-3.2-15.3-3.6-16.8-3.8-17.9-2.4-28.7 23.6-29.3 31.5-1.2 14.5-8.9 16.8-19.7 25.9-21.7 18.3-15.3 39.5-3.5 47.4 7.1 4.7 19.7 0 19.7 0 .2.1 34.3-19.1 51.2-28.4 25.2-3.6 13.8-64.5-1.6-72.6z" class="Bj"/><path d="M290.5 183.7c.1 0-8 3.7-13.8 1.8-5.5-1.8-10.3-10-10.2-10 2.4-.3 4.8-2.7 5.5-16.5l1 .3 17.6 4.5s-.7 5.6-1 10.9c-.1 4.2-.1 8.5.9 9z" class="Bi"/><path d="M290.7 163.6s0 1.2-.7 6.4c-10-2.5-14.4-5.8-17.5-9.6l18.2 3.2z" fill="#ed975d"/><path d="M294.5 164.3s-23.3 3.8-25.5-10.8c-2.1-14.6-6.6-23.9 8.2-26.9s18.5 2.1 20.4 6.8 2.9 29.6-3.1 30.9z" class="Bi"/><g class="Bj"><path d="M294.5 126s-10.6 16.7-20.1 20.7-14.1 2-14.1 2 4.3-6.5 5.4-15.3c.3-2.6 2-4.8 4.4-5.8 6.9-2.7 20-7 24.4-1.6z"/><path d="M285.2 127.7s6.2 3.2 8.8 6.2c2.5 2.9 5.3 10.7 5.1 14.2 0 0 3.1-16.8-3.3-22.6-6.8-6.2-10.6 2.2-10.6 2.2z"/></g><g fill="#fff"><path d="M309.2 219.3c-.7 47.4-.2 37.5-5.4 42-1.3 1.1-4.8 1.7-9.4 2-14.5 1-40.1-1.4-41.1-4.1-3.4-9.3-1-12.2-3.8-26.4-.3-1.5-.7-3.2-1.1-4.9-2.3-9.8-4.6-13.1 3.7-28.8 7.5-14.2 16.3-25.8 17-25.4 19.8 11.8 20.5 1.9 20.5 1.9s19.9 20.6 19.6 43.7z"/><path d="M289.7 175.6s20.3 3.4 22.7 12.2l16.5 60.4s-10.4 1.9-15.1-2.9c-4.8-4.8-16.7-44.4-16.7-44.4l-7.4-25.3z"/></g><path d="M294.4 263.3c-14.5 1-40.1-1.4-41.1-4.1-3.4-9.3-1-12.2-3.8-26.4l7-19.7s-1.2 22 5.3 27.8 26.6 11.2 29.7 16c1.6 2.2 2.6 4.6 2.9 6.4z" fill="#ebf3ff"/><path d="M277.8 254.1s14.3-3.2 16.7-1.9c2.3 1.3 8 5.9 8.7 7.5s-5.2-1.2-7.1-1.7c-1.2-.3-4.5.8-6.1 1.3-6.8 2.3-10.9 1.1-10.9 1.1l-1.3-6.3z" class="Bi"/><path d="M269.2 173.7s-20.3 1.2-27 10.5c-9.4 13.1-28 68.9-17.3 76.3 12 8.4 54.7 2.2 54.7 2.2s1.4-6.6-.6-9.9c-2-3.2-34.1-8.4-35.6-9.9-1.4-1.4 18.6-28.9 18.6-33.3s7.2-35.9 7.2-35.9z" fill="#fff"/><path d="M295.1 256.2s3 3.9 4 4.3c1 .5 1.6.3 1.6.3l-2-3.6-3.6-1zm-.7-4l8.7 4.2s-.4.6-1.4.6c-1.1 0-3.8-1-3.8-1l-3.5-3.8z" class="Bi"/><g fill="#ed7d2b"><path d="M326.6 262.2H286h0c0-1.8 1.4-3.2 3.2-3.2h37.4v3.2z"/><path d="M326.5 218h62.8l-15.1 44.2H311z"/></g><path d="M390.2 218l-15.1 44.2H312l15.4-44.2z" fill="#f99746"/><path d="M356.4 239.7c-.4 1.7-2.1 3.1-3.8 3.1s-2.7-1.4-2.4-3.1c.4-1.7 2.1-3.1 3.8-3.1s2.7 1.4 2.4 3.1z" fill="#fff"/><g fill="#182d4f"><path d="M274.7 272.2h269.6c2.7 0 4.8-2.2 4.8-4.8v-.4c0-2.7-2.2-4.8-4.8-4.8H274.7c-2.7 0-4.8 2.2-4.8 4.8v.3c0 2.7 2.2 4.9 4.8 4.9z"/><path d="M553.7 436h.1c1.4-.2 2.4-1.4 2.2-2.8l-24.5-165.9-9 .3 28.8 166.8c.3 1 1.4 1.7 2.4 1.6zm-290.9 0h-.1c-1.4-.2-2.4-1.4-2.2-2.8L285 267.3l9 .3-28.8 166.8c-.3 1-1.3 1.7-2.4 1.6zm56.7 0h-.1c-1.4-.2-2.4-1.4-2.2-2.8l24.5-165.9 9 .3-28.8 166.8c-.3 1-1.3 1.7-2.4 1.6z"/></g><g class="Bj"><use xlink:href="#C"/><path d="M596.8 277.8c-1.8 0-83.3 15.3-96.8 32-6.7 8.3-7.7 104.7-7.7 104.7s8.3 10.3 26.3 4.3c0 0 13.2-65.9 12.2-85.9-.3-5.5 55.7-.8 66-3.5 10.2-2.7 35.3-24.9 29.8-35.8-5.5-10.8-29.8-15.8-29.8-15.8z"/></g><path d="M500.4 254.3s-16.4.2-20.3 1.9-11.8 5.5-9.7 6.1 12.2-.2 14.4.1 4.9-.1 6.2-.1h7.6l1.8-8zm-19.3-39.5s-5.6-4-11.1-4.8c-3.1-.4-6.1-1-8-1.6-5-1.8-15.1-10.8-14.3-11.9 2.4-3.4 14.2 3.8 16.2 3s-3.9-5-1.9-6.5c1.1-.8 3.6 3.1 5.7 3.5 2.8.5 5 4.5 5.9 4.7 1.6.4 8.9 5.8 8.9 5.8l-1.4 7.8z" class="Bi"/><path d="M588.7 168s-12.5 3.9-24.9 37.9c-12.3 34-17 35.8-21.5 37.1s-43.8 9.2-43.8 9.2v10.1h60.7s22.7-21.6 29.6-36.2c6.7-14.6-.1-58.1-.1-58.1z" fill="#ed7d2b"/><use xlink:href="#C" x="-21.5" fill="#1b3051"/><path d="M572.8 277.8c-1.8 0-83.3 15.3-96.8 32-6.7 8.3-7.7 104.7-7.7 104.7s8.3 10.3 26.3 4.3c0 0 13.2-65.9 12.2-85.9-.3-5.5 55.7-.8 66-3.5 10.2-2.7 35.3-24.9 29.8-35.8-5.6-10.8-29.8-15.8-29.8-15.8z" class="Bl"/><path d="M577.9 178.7c5.9-.5 12-2 17.3-3.8 6.6-2.2 12-5.3 8.5-11.4-3.2-5.6-8.3-18.1-8-28.5l-12.4 10-8.4 6.8s0 4 1 11l.6 4.1c.2 1.2-.4 2.4-1.4 3-.1 0-.1.1-.2.1-4.1 2.7-1.9 9.1 3 8.7z" class="Bi"/><path d="M575 150.2s-.4 1.4.3 6.8c7.5-1.2 14.5-7.2 14.5-7.2-3.8-1-5.2-5.2-8-4.8l-6.8 5.2z" fill="#ed975d"/><path d="M568.1 151.4s28.8 4.8 31.5-13.2 8.2-29.5-10-33.3c-18.3-3.8-22.9 2.5-25.3 8.3-2.3 5.8-3.6 36.5 3.8 38.2z" class="Bi"/><path d="M560.1 105.3c-1.2 4.3 2.1 9.6 7.6 11.3 8.2 2.6 6.4 12.7 10.1 12.6s5.2-5.8 8.5-1.3c2.8 3.9-2.4 8.5-2 10.6.6 3.6 6.3 11.1 11.5 10.7 5.1-.4 14.8-24.8 12.8-32.4-1.9-7.6-9.6-15.5-16.9-16.6s-17.4 2-19.7 2-11.3.7-11.9 3.1z" class="Bl"/><g fill="#f99746"><path d="M627 192.9c-4.2-16.8-15.7-34.3-23.5-34.3-13.3 0-32.3 3.5-40 22.5-5.7 14-13.2 94.4-4.7 100.1 19.5 13.1 64.8 39.8 72.8 12.5 7.4-24.9 2.6-71.7-4.6-100.8z"/><path d="M594.8 176.3c-3.8-9.8-16-13.2-24.3-6.8-4.5 3.5-10 8.5-16.7 15.6-24.7 26.3-29.8 26.2-34.4 25.6-4.6-.5-43.9-8.9-43.9-8.9s-2 1.5-3.2 3.9c-1.6 3.2-.8 5.4-.8 5.4-1.5-1 13.9 9.7 21.6 13.9 10.2 5.6 25.5 10.9 31.6 12.9 1.7.6 3.6.5 5.3-.1 9-3.3 39.4-15.1 64.2-35.8 6.5-5.4 4.1-16.6.6-25.7z"/></g><path d="M604.8 158.8l-3-6.8s-26.9 2.2-31.4 17.5c.1 0 20.9-10.4 34.4-10.7z" fill="#fff"/><path d="M670.1 435.3h.2c1.5 0 2.7-1.3 2.5-2.7l-10.1-101.1-8.8.8 14.5 101.6c.1.8.8 1.4 1.7 1.4zm-52.1 0h.2c1.5 0 2.7-1.3 2.5-2.7l-10.1-101.1-8.8.8 14.5 101.6c.1.8.8 1.4 1.7 1.4z" class="Bk"/><path d="M520.2 435.3h-.2c-1.5 0-2.7-1.3-2.5-2.7l10.1-101.1 8.8.8-14.5 101.6c-.1.8-.9 1.4-1.7 1.4z" fill="#73a2e5"/><path d="M667.2 317.2l9.6-84.4c1.3-12.2-2.8-24.1-20.4-25l-30.9-1.9c-18.3-.8-26.6 14.5-28.9 26.2l-18.3 92.8 88.9-7.7z" class="Bk"/><path d="M659.2 333H527.8c-4.3 0-7.8-3.5-7.8-7.8v-.5c0-4.3 3.5-7.8 7.8-7.8h139.3v8.3c0 4.2-3.6 7.8-7.9 7.8z" fill="#73a2e5"/><path d="M659.2 333h-73c-4.3 0-7.8-3.5-7.8-7.8v-.5c0-4.3 3.5-7.8 7.8-7.8h80.9v8.3c0 4.2-3.6 7.8-7.9 7.8z" class="Bk"/><defs ><path id="B" d="M146 365.1h-12.8a1.11 1.11 0 0 1-1.1-1.1h0a1.11 1.11 0 0 1 1.1-1.1H146a1.11 1.11 0 0 1 1.1 1.1h0a1.11 1.11 0 0 1-1.1 1.1z"/><path id="C" d="M464.1 435.9h48.6c2.3-2.9 1.5-13.4 1.1-16.8-.1-.7-.1-1.1-.1-1.1s-16.6-13.3-18.9-3.1c-.1.3-.2.6-.2.9-2.9 9.5-15.8 13.8-23.2 15-4.8.8-6.6 3.3-7.3 5.1z"/></defs></svg>