<?xml version="1.0" encoding="utf-8"?>
<!-- Generator: Adobe Illustrator 19.2.1, SVG Export Plug-In . SVG Version: 6.00 Build 0)  -->
<svg version="1.1" id="Layer_1" xmlns="http://www.w3.org/2000/svg" xmlns:xlink="http://www.w3.org/1999/xlink" x="0px" y="0px"
	 viewBox="0 0 1262 500" style="enable-background:new 0 0 1262 500;" xml:space="preserve">
<style type="text/css">
	.st0{fill:#EBF3FA;}
	.st1{fill:#808DCF;}
	.st2{fill:#A6B2ED;}
	.st3{fill:#D7D7F3;}
	.st4{fill:#FFFFFF;}
	.st5{fill:#F5E0DD;}
	.st6{fill:#2B1710;}
	.st7{fill:#E2B2A8;}
	.st8{fill:#D1A59D;}
	.st9{fill:#FFB15E;}
	.st10{fill:#FFA642;}
	.st11{fill:#FFBF78;}
	.st12{fill:#46539C;}
	.st13{fill:#FF7A52;}
	.st14{fill:#E0B3A8;}
	.st15{fill:#5D6AAB;}
	.st16{fill:#534ACF;}
	.st17{fill:#FFA442;}
	.st18{fill:#FFB27D;}
	.st19{fill:#233862;}
	.st20{fill:#F99746;}
	.st21{fill:#ED7D2B;}
	.st22{fill:#163560;}
	.st23{fill:#ED975D;}
	.st24{fill:#2B478B;}
	.st25{fill:#2A4E96;}
	.st26{fill:#AEC3FF;}
	.st27{fill:#E2915A;}
	.st28{fill:#DB6516;}
	.st29{fill:#9DB0F4;}
	.st30{font-family:'Futura-CondensedExtraBold';}
	.st31{font-size:318.6184px;}
</style>
<g>
	<g>
		<g>
			<path class="st0" d="M1002.6,70.2c-139.6-23.8-317.7,32.7-316.7,175.2C526.6,283,512.7,406.7,550.3,486.8h670
				C1300.5,242.4,1142.2,93.9,1002.6,70.2z"/>
		</g>
		<g>
			<circle class="st0" cx="600.8" cy="168.1" r="87.1"/>
		</g>
		<g>
			<circle class="st0" cx="673" cy="113.7" r="36.6"/>
		</g>
	</g>
	<g>
		<g>
			<path class="st1" d="M545,229.4c0,0-35.4,90.5-2.3,170.5c14.4,34.9,39.4,62,63.1,81.4h69.5c6.9-33.8,11.5-85.2-8.1-132.8
				C634,268.5,545,229.4,545,229.4z"/>
		</g>
		
			<image style="overflow:visible;" width="137" height="253" xlink:href="CD0D1B1DA35C9D3B.png"  transform="matrix(1 0 0 1 545 229)">
		</image>
	</g>
	<g>
		<g>
			<path class="st2" d="M498.2,368.1c0,0-1.2,53.5,31,88.5c14,15.3,32.1,24.5,48,30.1l35.9-13.1c-2.8-18.8-10.1-46.2-29.3-67.1
				C551.6,371.4,498.2,368.1,498.2,368.1z"/>
		</g>
		
			<image style="overflow:visible;" width="116" height="111" xlink:href="CD0D1B1DA35C9D39.png"  transform="matrix(1 0 0 1 498 368)">
		</image>
	</g>
	<g>
		<g>
			<path class="st1" d="M1222.3,305.8c0,0,25,63.9,1.7,120.3c-10.2,24.6-27.8,43.7-44.5,57.4h-49c-4.9-23.8-8.1-60.1,5.7-93.7
				C1159.6,333.4,1222.3,305.8,1222.3,305.8z"/>
		</g>
		
			<image style="overflow:visible;" width="97" height="179" xlink:href="CD0D1B1DA35C9D3F.png"  transform="matrix(1 0 0 1 1126 305)">
		</image>
	</g>
	<g>
		<g>
			<path class="st2" d="M1253.7,412.7c0,0,0.8,37.7-21.9,62.4c-9.9,10.8-22.6,17.3-33.8,21.2l-25.3-9.3c2-13.2,7.2-32.6,20.7-47.3
				C1216,415.1,1253.7,412.7,1253.7,412.7z"/>
		</g>
		
			<image style="overflow:visible;" width="82" height="79" xlink:href="CD0D1B1DA35C9D38.png"  transform="matrix(1 0 0 1 1172 412)">
		</image>
	</g>
	<g>
		<g>
			<path class="st2" d="M1063,408.4c0,0-0.8,37.7,21.9,62.4c9.9,10.8,22.6,17.3,33.8,21.2l25.3-9.3c-2-13.2-7.2-32.6-20.7-47.3
				C1100.7,410.7,1063,408.4,1063,408.4z"/>
		</g>
		
			<image style="overflow:visible;" width="82" height="79" xlink:href="CD0D1B1DA35C9D36.png"  transform="matrix(1 0 0 1 1063 408)">
		</image>
	</g>
	<g>
		<g>
			<g>
				<path class="st3" d="M852.2,403.3l-33.6-9.5v-42c0-7-5.7-12.8-12.8-12.8H627.2c-7,0-12.8,5.7-12.8,12.8v101.5
					c0,7,5.7,12.8,12.8,12.8h178.6c7,0,12.8-5.7,12.8-12.8v-40.3L852.2,403.3z"/>
			</g>
		</g>
		<g>
			<path class="st4" d="M836,415.5l-33.6-9.5v-42c0-7-5.7-12.8-12.8-12.8H611c-7,0-12.8,5.7-12.8,12.8v101.5c0,7,5.7,12.8,12.8,12.8
				h178.6c7,0,12.8-5.7,12.8-12.8v-40.3L836,415.5z"/>
		</g>
		<g>
			<circle class="st5" cx="698" cy="418" r="15.7"/>
		</g>
		<g>
			<circle class="st5" cx="758.1" cy="418" r="15.7"/>
		</g>
		<g>
			<circle class="st5" cx="638.8" cy="418" r="15.7"/>
		</g>
	</g>
	<g>
		<g>
			<path class="st6" d="M654.9,232.3c-5.1,1.9-1.8,12-8.8,14.9c-6.9,2.8-11,6.4-11.6,18c-0.5,11.6-0.2,16.2-13.5,22.8
				c-13.3,6.6-14.8,21.5-10,37.4s0,25.1,0,25.1h45.4l21.5-87.2c0.4-10.3-2.8-17.1-2.8-17.1L654.9,232.3z"/>
		</g>
		<g>
			<path class="st7" d="M684.9,263.3c37.9-2.6,40.3-22.3,39.8-24.2c-2.4-4.3-1.4-5.7-0.5-7.8c0.9-2.1,2.2-6.6,2.4-6.1
				c1.4,2.8,0.7,6.6,0.7,6.6c3.1,7.1,7.6,12.1,4.3,15.4c-5.7,18.3-20.9,32.3-54.8,34.6C676.1,275.4,684.9,263.3,684.9,263.3z"/>
		</g>
		<g>
			<path class="st8" d="M691.8,262.6c-2.2,0.3-4.5,0.5-6.9,0.7c0,0-8.8,12.1-8.1,18.5c2.8-0.2,5.5-0.5,8.1-0.8
				C687.5,276.6,691.2,269.5,691.8,262.6z"/>
		</g>
		<g>
			<path class="st9" d="M676.6,261.2l11.6-0.9c-0.7,12.3-9,21.6-9,21.6L676.6,261.2z"/>
		</g>
		<g>
			<g>
				<path class="st4" d="M695.2,406.6c-1.3,7.3-2.1,13.9-2.3,18.8c-3.3,5.8-1.9,9.1-1.9,9.1h28c0.8-1.3,1.5-2.7,2-4.1
					c-6.1-4-16-6-16.3-6.9c-0.3-1,1.5-7.8,4.2-16.9H695.2z"/>
			</g>
			<g>
				<path class="st10" d="M690.9,434.4H725c-3.7-6.9-20-9.8-20.4-11c-4.2-0.6-6.6,2.6-7.3,3.1c-2.5,0.6-4.4-1.2-4.4-1.2
					C689.6,431.2,690.9,434.4,690.9,434.4z"/>
			</g>
			<g>
				<path class="st11" d="M723.8,432.7c-4.6,0.2-15.3,0.3-19.2-1.2c-4.3-1.7-7.9-2.2-13.5-2c-0.9,3.1-0.1,4.9-0.1,4.9H725
					C724.7,433.8,724.3,433.2,723.8,432.7z"/>
			</g>
			<g>
				<circle class="st11" cx="701.8" cy="427.7" r="1.4"/>
			</g>
			<g>
				<g>
					<path class="st6" d="M706.9,427.2C706.9,427.2,706.9,427.1,706.9,427.2c-0.1,0-0.2-0.1-0.2-0.2c0-0.1,0.4-2.2,2.9-2.9
						c0.1,0,0.2,0,0.2,0.1c0,0.1,0,0.2-0.1,0.2c-2.3,0.6-2.6,2.5-2.7,2.6C707,427.1,707,427.2,706.9,427.2z"/>
				</g>
			</g>
			<g>
				<g>
					<path class="st6" d="M710.2,428.5C710.2,428.5,710.2,428.4,710.2,428.5c-0.1,0-0.2-0.1-0.2-0.2c0-0.1,0.4-2.2,2.9-2.9
						c0.1,0,0.2,0,0.2,0.1c0,0.1,0,0.2-0.1,0.2c-2.3,0.6-2.6,2.5-2.7,2.6C710.4,428.4,710.3,428.5,710.2,428.5z"/>
				</g>
			</g>
			<g>
				<polygon class="st7" points="695.2,406.6 697.2,394.6 712.3,397.3 708.8,406.6 				"/>
			</g>
		</g>
		<g>
			<g>
				<path class="st4" d="M777.9,339.3l-14.1-19.6l-10.8,9.1l13.2,12.4l0.8,3.9c0,0,3.2,1.2,5.2,1.2c2,0,6-1.4,6-1.4L777.9,339.3z"/>
			</g>
			<g>
				<polygon class="st7" points="757.4,333 768,325.6 763.8,319.8 752.9,328.8 				"/>
			</g>
			<g>
				<path class="st12" d="M675,309.4c0,0,34.9-36.8,45-37.9c10.1-1.1,48.9,49.4,48.9,49.4l-16.4,13c0,0-32.9-29.5-35.6-28.3
					c-2.7,1.2-18.7,24.7-18.7,24.7L670,327L675,309.4z"/>
			</g>
			<g>
				<path class="st10" d="M764.2,350.3h34.1c-3.7-6.9-20-9.8-20.4-11c-4.2-0.6-6.6,2.6-7.3,3.1c-2.5,0.6-4.4-1.2-4.4-1.2
					C762.9,347,764.2,350.3,764.2,350.3z"/>
			</g>
			<g>
				<path class="st11" d="M797.1,348.6c-4.6,0.2-15.3,0.3-19.2-1.2c-4.3-1.7-7.9-2.2-13.5-2c-0.9,3.1-0.1,4.9-0.1,4.9h34.1
					C798,349.7,797.6,349.1,797.1,348.6z"/>
			</g>
			<g>
				<circle class="st11" cx="775.1" cy="343.6" r="1.4"/>
			</g>
			<g>
				<g>
					<path class="st6" d="M780.2,343C780.1,343,780.1,343,780.2,343c-0.1,0-0.2-0.1-0.2-0.2c0-0.1,0.4-2.2,2.9-2.9
						c0.1,0,0.2,0,0.2,0.1c0,0.1,0,0.2-0.1,0.2c-2.3,0.6-2.6,2.5-2.7,2.6C780.3,343,780.2,343,780.2,343z"/>
				</g>
			</g>
			<g>
				<g>
					<path class="st6" d="M783.5,344.3C783.5,344.3,783.5,344.3,783.5,344.3c-0.1,0-0.2-0.1-0.2-0.2c0-0.1,0.4-2.2,2.9-2.9
						c0.1,0,0.2,0,0.2,0.1c0,0.1,0,0.2-0.1,0.2c-2.3,0.6-2.6,2.5-2.7,2.6C783.6,344.3,783.6,344.3,783.5,344.3z"/>
				</g>
			</g>
		</g>
		
			<image style="overflow:visible;" width="40" height="55" xlink:href="CD0D1B1DA35C9D37.png"  transform="matrix(1 0 0 1 644 261)">
		</image>
		<g>
			<path class="st6" d="M663.2,253.6c-6.2,2.2-11-3.2-9.9-8.2c-2.1-9.6,0.4-19.7,15.7-17c7.3-0.3,11.7,8.7,6.2,12.2
				C668.5,248.9,663.2,253.6,663.2,253.6z"/>
		</g>
		<g>
			<path class="st7" d="M656.2,265c0-0.2,3.1-1.5,3.9-3.8c0.8-2.3,0.5-7.6-1.1-14.6c2.9,0.3,3.5-2.1,2.9-5.8
				c-0.6-3.8,0.2-10.1,7.7-10.3c3.3,2.9,5.1,4.8,5.6,9.2c0.5,4.4,1.5,7.4,1.3,9.6c-0.2,2.2-1.8,6.4-7,7.1c0,2.8,0.1,5.5,4.3,5.2
				C670.8,269.1,656.2,265,656.2,265z"/>
		</g>
		<g>
			<path class="st6" d="M669.6,230.4c0.6,6.2-7.8,8.5-9.4,8.4C658.6,238.7,661.2,229,669.6,230.4z"/>
		</g>
		<g>
			<g>
				
					<ellipse transform="matrix(1.528889e-02 -0.9999 0.9999 1.528889e-02 399.8875 902.3501)" class="st13" cx="658.1" cy="248.2" rx="2.1" ry="2.1"/>
			</g>
			<g>
				<g>
					<path class="st14" d="M658.1,246.7c-0.5,0-0.9,0.2-1.2,0.5c0,0,0,0.1,0,0.1s0.1,0,0.1,0c0.3-0.3,0.6-0.5,1-0.5
						c0.2,0,0.4,0.1,0.6,0.1c0,0,0,0-0.1,0c-0.5,0-0.9,0.4-0.9,0.9c0,0.5,0.4,0.9,0.9,0.9c0.4,0,0.7-0.2,0.8-0.5
						c0,0.4-0.2,0.7-0.6,1c0,0,0,0.1,0,0.1c0,0,0,0,0.1,0c0,0,0,0,0.1,0c0.4-0.3,0.6-0.7,0.6-1.2
						C659.6,247.4,658.9,246.7,658.1,246.7z M658.6,248.6c-0.4,0-0.7-0.3-0.7-0.7c0-0.4,0.3-0.7,0.7-0.7c0.4,0,0.7,0.3,0.7,0.7
						C659.3,248.3,659,248.6,658.6,248.6z"/>
				</g>
			</g>
		</g>
		<g>
			<path class="st15" d="M652.4,315c-9.2,17.2-9.6,29.3,3.6,35.3h55.1c-13.5,26.3-19.2,50.2-19.2,50.2l26.7,4.6
				c0,0,23.1-63,22.8-70.8c-0.4-7.8-61.9-12.8-61.9-12.8c0-3.9-0.9-6.5-0.9-6.5H652.4z"/>
		</g>
		<g>
			<g>
				<path class="st16" d="M656.2,328.7l-0.3-0.8c0.1,0,6.9-2.9,8.1-12.4l0.9,0.1C663.6,325.6,656.5,328.6,656.2,328.7z"/>
			</g>
		</g>
		<g>
			<g>
				<g>
					<path class="st16" d="M656.2,318.9c0,0-0.1,0-0.1,0c-0.2-0.1-0.4-0.3-0.3-0.6c0.3-0.9,0.6-1.8,0.9-2.6c0.1-0.2,0.4-0.4,0.6-0.3
						c0.2,0.1,0.4,0.4,0.3,0.6c-0.3,0.8-0.6,1.7-0.9,2.6C656.5,318.8,656.4,318.9,656.2,318.9z"/>
				</g>
			</g>
			<g>
				<g>
					<path class="st16" d="M702.3,389.1c-0.1,0-0.1,0-0.2,0c-0.2-0.1-0.3-0.4-0.2-0.6l2.1-5.1c0.1-0.2,0.4-0.3,0.6-0.2
						c0.2,0.1,0.3,0.4,0.2,0.6l-2.1,5.1C702.6,389,702.4,389.1,702.3,389.1z M706.5,378.8c-0.1,0-0.1,0-0.2,0
						c-0.2-0.1-0.3-0.4-0.2-0.6l2.1-5.1c0.1-0.2,0.4-0.3,0.6-0.2c0.2,0.1,0.3,0.4,0.2,0.6l-2.1,5.1
						C706.8,378.7,706.6,378.8,706.5,378.8z M710.7,368.6c-0.1,0-0.1,0-0.2,0c-0.2-0.1-0.3-0.4-0.2-0.6c0.7-1.7,1.4-3.4,2.1-5.1
						c0.1-0.2,0.4-0.3,0.6-0.2c0.2,0.1,0.3,0.4,0.2,0.6c-0.7,1.7-1.4,3.4-2.1,5.1C711,368.5,710.9,368.6,710.7,368.6z M714.9,358.3
						c-0.1,0-0.1,0-0.2,0c-0.2-0.1-0.3-0.4-0.2-0.6c0.7-1.8,1.4-3.5,2.1-5.1c0.1-0.2,0.4-0.3,0.6-0.3c0.2,0.1,0.3,0.4,0.3,0.6
						c-0.7,1.6-1.4,3.3-2.1,5.1C715.2,358.2,715,358.3,714.9,358.3z M719,348c-0.1,0-0.1,0-0.2,0c-0.2-0.1-0.3-0.4-0.3-0.6
						c1-2.5,1.7-4.3,2-5.2c0.1-0.2,0.3-0.4,0.6-0.3c0.2,0.1,0.4,0.3,0.3,0.6c-0.3,0.9-1,2.6-2,5.2C719.4,347.9,719.2,348,719,348z
						 M716.7,341.1C716.7,341.1,716.7,341.1,716.7,341.1c-1.5-0.2-3.3-0.4-5.6-0.5c-0.2,0-0.4-0.2-0.4-0.5c0-0.2,0.2-0.4,0.5-0.4
						c2.2,0.2,4.1,0.4,5.5,0.5c0.2,0,0.4,0.3,0.4,0.5C717.1,340.9,716.9,341.1,716.7,341.1z M705.6,340.1
						C705.6,340.1,705.6,340.1,705.6,340.1c-1.8-0.1-3.6-0.2-5.6-0.3c-0.3,0-0.4-0.2-0.4-0.5c0-0.3,0.2-0.4,0.5-0.4
						c1.9,0.1,3.8,0.2,5.5,0.3c0.3,0,0.4,0.2,0.4,0.5C706.1,339.9,705.9,340.1,705.6,340.1z M694.6,339.5
						C694.6,339.5,694.6,339.5,694.6,339.5c-1.9-0.1-3.7-0.2-5.6-0.3c-0.3,0-0.4-0.2-0.4-0.5c0-0.3,0.2-0.4,0.5-0.4
						c1.8,0.1,3.7,0.2,5.5,0.3c0.3,0,0.4,0.2,0.4,0.5C695,339.3,694.8,339.5,694.6,339.5z M683.5,338.9
						C683.5,338.9,683.5,338.9,683.5,338.9c-1.9-0.1-3.8-0.2-5.6-0.3c-0.3,0-0.4-0.2-0.4-0.5c0-0.3,0.2-0.4,0.5-0.4
						c1.8,0.1,3.6,0.2,5.5,0.3c0.3,0,0.4,0.2,0.4,0.5C683.9,338.7,683.7,338.9,683.5,338.9z M672.4,338.3
						C672.4,338.3,672.4,338.3,672.4,338.3c-2.2-0.1-4-0.3-5.6-0.4c-0.3,0-0.4-0.2-0.4-0.5c0-0.3,0.2-0.4,0.5-0.4
						c1.6,0.1,3.4,0.2,5.5,0.4c0.3,0,0.4,0.2,0.4,0.5C672.9,338.1,672.7,338.3,672.4,338.3z M661.4,337.4
						C661.3,337.4,661.3,337.4,661.4,337.4c-0.8-0.1-1.4-0.2-1.8-0.3c-1.4-0.4-2.5-1.2-3.4-2.3c-0.2-0.2-0.1-0.5,0.1-0.6
						c0.2-0.2,0.5-0.1,0.6,0.1c0.7,1,1.7,1.7,2.9,2c0.3,0.1,0.9,0.2,1.6,0.3c0.2,0,0.4,0.3,0.4,0.5
						C661.8,337.3,661.6,337.4,661.4,337.4z M654.8,329.8c-0.2,0-0.4-0.2-0.5-0.4c-0.1-0.7-0.1-1.3-0.1-2.1c0-1.1,0.1-2.3,0.3-3.6
						c0-0.2,0.3-0.4,0.5-0.4c0.2,0,0.4,0.3,0.4,0.5c-0.2,1.2-0.2,2.4-0.2,3.4c0,0.7,0,1.3,0.1,2
						C655.3,329.5,655.1,329.8,654.8,329.8C654.8,329.8,654.8,329.8,654.8,329.8z"/>
				</g>
			</g>
			<g>
				<g>
					<path class="st16" d="M699.2,396.5c-0.1,0-0.1,0-0.2,0c-0.2-0.1-0.3-0.4-0.2-0.6l1-2.5c0.1-0.2,0.4-0.3,0.6-0.2
						c0.2,0.1,0.3,0.4,0.2,0.6l-1,2.5C699.5,396.4,699.4,396.5,699.2,396.5z"/>
				</g>
			</g>
		</g>
		<g>
			<path class="st7" d="M655.3,288c-9.2,21.3-10.1,57.5-10,59.2c-0.4,3.4-2.4,3.1-6.4,3.7c-4,0.6-10.9,0.1-4.7-1.7
				c-6.3,0.2-10.7,2.7-11.1,1.4s4.5-3.9,12.2-6.4c0.4-38.5,2.7-57.6,2.7-57.6L655.3,288z"/>
		</g>
		<g>
			<path class="st8" d="M637.1,295.3c6.6-2.4,12.4-3.4,16.7-3.6c0.5-1.3,1-2.5,1.5-3.7l-17.3-1.4C638,286.6,637.6,289.5,637.1,295.3
				z"/>
		</g>
		<g>
			<path class="st9" d="M649.8,267.6c-7.4,3.8-14.7,20.2-14.7,20.2l20.4,1.7C661.4,277.5,656.7,266.6,649.8,267.6z"/>
		</g>
		<g>
			<path class="st8" d="M636.5,304.9c-0.2,3.6-0.4,7.8-0.6,12.4C642.5,314,641.7,307.9,636.5,304.9z"/>
		</g>
		<g>
			<path class="st8" d="M720.1,266.1c-4.8-1.5-9.6,0.7-11.1,7.8C713.4,271.7,717.1,269,720.1,266.1z"/>
		</g>
	</g>
	<g>
		<g>
			<g>
				<path class="st3" d="M764.1,138.9l12,37c0.5,1.7,2.1,2.8,3.8,2.8h38.9c3.9,0,5.5,5,2.4,7.3L789.8,209c-1.4,1-2,2.8-1.5,4.5
					l12,37c1.2,3.7-3,6.8-6.2,4.5l-31.5-22.9c-1.4-1-3.3-1-4.7,0L726.4,255c-3.2,2.3-7.4-0.8-6.2-4.5l12-37c0.5-1.7-0.1-3.5-1.5-4.5
					l-31.5-22.9c-3.2-2.3-1.5-7.3,2.4-7.3h38.9c1.7,0,3.3-1.1,3.8-2.8l12-37C757.6,135.2,762.9,135.2,764.1,138.9z"/>
			</g>
		</g>
		<g>
			<path class="st17" d="M757.1,143l12,37c0.5,1.7,2.1,2.8,3.8,2.8h38.9c3.9,0,5.5,5,2.4,7.3L782.8,213c-1.4,1-2,2.8-1.5,4.5l12,37
				c1.2,3.7-3,6.8-6.2,4.5l-31.5-22.9c-1.4-1-3.3-1-4.7,0l-31.5,22.9c-3.2,2.3-7.4-0.8-6.2-4.5l12-37c0.5-1.7-0.1-3.5-1.5-4.5
				l-31.5-22.9c-3.2-2.3-1.5-7.3,2.4-7.3h38.9c1.7,0,3.3-1.1,3.8-2.8l12-37C750.7,139.3,755.9,139.3,757.1,143z"/>
		</g>
	</g>
	<g>
		<g>
			<g>
				<path class="st3" d="M987,28.6l12,37c0.5,1.7,2.1,2.8,3.8,2.8h38.9c3.9,0,5.5,5,2.4,7.3l-31.5,22.9c-1.4,1-2,2.8-1.5,4.5l12,37
					c1.2,3.7-3,6.8-6.2,4.5l-31.5-22.9c-1.4-1-3.3-1-4.7,0l-31.5,22.9c-3.2,2.3-7.4-0.8-6.2-4.5l12-37c0.5-1.7-0.1-3.5-1.5-4.5
					l-31.5-22.9c-3.2-2.3-1.5-7.3,2.4-7.3h38.9c1.7,0,3.3-1.1,3.8-2.8l12-37C980.5,24.8,985.7,24.8,987,28.6z"/>
			</g>
		</g>
		<g>
			<path class="st17" d="M980,32.6l12,37c0.5,1.7,2.1,2.8,3.8,2.8h38.9c3.9,0,5.5,5,2.4,7.3l-31.5,22.9c-1.4,1-2,2.8-1.5,4.5l12,37
				c1.2,3.7-3,6.8-6.2,4.5l-31.5-22.9c-1.4-1-3.3-1-4.7,0l-31.5,22.9c-3.2,2.3-7.4-0.8-6.2-4.5l12-37c0.5-1.7-0.1-3.5-1.5-4.5
				l-31.5-22.9c-3.2-2.3-1.5-7.3,2.4-7.3h38.9c1.7,0,3.3-1.1,3.8-2.8l12-37C973.5,28.9,978.8,28.9,980,32.6z"/>
		</g>
	</g>
	<g>
		<g>
			<path class="st2" d="M593.4,124.4H530v28c0,2.9,1.1,5.6,2.9,7.6c2.1,2.3,5,3.7,8.4,3.7h53l10.3,13.9v-13.9v-28
				c0-3.2-1.3-6.1-3.5-8.2C599.1,125.5,596.4,124.4,593.4,124.4z"/>
		</g>
		<g>
			<g>
				<path class="st3" d="M565.9,139.9h-25.3c-2.4,0-4.4-2-4.4-4.4V135c0-2.4,2-4.4,4.4-4.4h25.3c2.4,0,4.4,2,4.4,4.4v0.6
					C570.3,138,568.3,139.9,565.9,139.9z"/>
			</g>
		</g>
		<g>
			<g>
				<path class="st3" d="M589.4,155.3h-48.8c-2.4,0-4.4-2-4.4-4.4v-0.6c0-2.4,2-4.4,4.4-4.4h48.8c2.4,0,4.4,2,4.4,4.4v0.6
					C593.8,153.4,591.8,155.3,589.4,155.3z"/>
			</g>
		</g>
		<g>
			<g>
				<path class="st3" d="M586.9,139.9h-8c-2.4,0-4.4-2-4.4-4.4V135c0-2.4,2-4.4,4.4-4.4h8c2.4,0,4.4,2,4.4,4.4v0.6
					C591.2,138,589.3,139.9,586.9,139.9z"/>
			</g>
		</g>
		<g>
			<g>
				<path class="st3" d="M610.1,144.3h-74.7v33c0,3.4,1.3,6.6,3.4,8.9c2.4,2.7,5.9,4.4,9.9,4.4h62.5l12.2,16.3v-16.3v-33
					c0-3.8-1.6-7.2-4.1-9.6C616.9,145.6,613.6,144.3,610.1,144.3z"/>
			</g>
		</g>
		<g>
			<path class="st4" d="M620.3,149.7h-74.7v33c0,3.4,1.3,6.6,3.4,8.9c2.4,2.7,5.9,4.4,9.9,4.4h62.5l12.2,16.3V196v-33
				c0-3.8-1.6-7.2-4.1-9.6C627.1,151.1,623.9,149.7,620.3,149.7z"/>
		</g>
		<g>
			<g>
				<path class="st3" d="M587.9,168h-29.8c-2.8,0-5.1-2.3-5.1-5.1v-0.7c0-2.8,2.3-5.1,5.1-5.1h29.8c2.8,0,5.1,2.3,5.1,5.1v0.7
					C593,165.7,590.7,168,587.9,168z"/>
			</g>
		</g>
		<g>
			<g>
				<path class="st3" d="M615.6,186.2h-57.5c-2.8,0-5.1-2.3-5.1-5.1v-0.7c0-2.8,2.3-5.1,5.1-5.1h57.5c2.8,0,5.1,2.3,5.1,5.1v0.7
					C620.8,183.9,618.5,186.2,615.6,186.2z"/>
			</g>
		</g>
		<g>
			<g>
				<path class="st3" d="M612.6,168h-9.5c-2.8,0-5.1-2.3-5.1-5.1v-0.7c0-2.8,2.3-5.1,5.1-5.1h9.5c2.8,0,5.1,2.3,5.1,5.1v0.7
					C617.8,165.7,615.5,168,612.6,168z"/>
			</g>
		</g>
	</g>
	<g>
		<g>
			<g>
				<path class="st3" d="M1126,151.8v14.8c0,9.7,7.9,17.6,17.6,17.6h48.9l17.9,17.9v-17.9v-32.3c0-9.7-7.9-17.6-17.6-17.6h-49.2
					C1133.8,134.2,1126,142.1,1126,151.8z"/>
			</g>
		</g>
		<g>
			<path class="st4" d="M1116.7,147.2v14.8c0,9.7,7.9,17.6,17.6,17.6h48.9l17.9,17.9v-17.9v-32.3c0-9.7-7.9-17.6-17.6-17.6h-49.2
				C1124.6,129.6,1116.7,137.5,1116.7,147.2z"/>
		</g>
		<g>
			<g>
				<g>
					<rect x="1138.9" y="147.5" class="st2" width="9.5" height="21.8"/>
				</g>
			</g>
			<g>
				<g>
					<path class="st2" d="M1154.8,169.3h-3.9v-21.8h3.9c5.7-1.3,7.2-6.9,7.7-10.6c0.3-2.3,3.4-2.9,4.5-0.9c0.5,0.9,0.8,2.1,0.9,3.5
						c0.1,3.9,0.1,6.5,0.1,6.5h2c4.7,0,8.5,3.8,8.5,8.5v6.6c0,4.5-3.6,8.3-8.1,8.5L1154.8,169.3z"/>
				</g>
			</g>
		</g>
	</g>
	<g>
		<g>
			<g>
				<path class="st2" d="M873.3,109.9h-31.9c-5.4,0-9.9,4.4-9.9,9.9v32.6c0,5.4,4.4,9.9,9.9,9.9h11.5l4.8,18.2l4.9-18.2h10.7
					c5.4,0,9.9-4.4,9.9-9.9v-32.6C883.1,114.4,878.7,109.9,873.3,109.9z"/>
			</g>
		</g>
		<g>
			<g>
				<path class="st3" d="M861.4,129.5L861.4,129.5L861.4,129.5c-3.4-5.5-11.3-3.8-10.9,3.5c0.4,7.3,10.9,17.5,10.9,17.5l0-0.1l0,0.1
					c0,0,10.5-10.2,10.9-17.5C872.6,125.7,864.8,124.1,861.4,129.5z"/>
			</g>
		</g>
		<g>
			<g>
				<path class="st4" d="M857.3,126.1L857.3,126.1L857.3,126.1c-3.8-6.1-12.6-4.2-12.2,3.9c0.4,8.2,12.2,19.6,12.2,19.6l0-0.1l0,0.1
					c0,0,11.7-11.4,12.2-19.6C870,121.9,861.1,120,857.3,126.1z"/>
			</g>
		</g>
	</g>
	<g>
		<g>
			<g>
				<path class="st17" d="M1014.6,398.8h-31.9c-5.4,0-9.9,4.4-9.9,9.9v32.6c0,5.4,4.4,9.9,9.9,9.9h11.5h9.7h10.7
					c5.4,0,9.9-4.4,9.9-9.9v-32.6C1024.5,403.2,1020,398.8,1014.6,398.8z"/>
			</g>
		</g>
		<g>
			<g>
				<path class="st3" d="M1002.7,418.3L1002.7,418.3L1002.7,418.3c-3.4-5.5-11.3-3.8-10.9,3.5c0.4,7.3,10.9,17.5,10.9,17.5l0-0.1
					l0,0.1c0,0,10.5-10.2,10.9-17.5C1014,414.6,1006.1,412.9,1002.7,418.3z"/>
			</g>
		</g>
		<g>
			<g>
				<path class="st4" d="M998.7,414.9L998.7,414.9L998.7,414.9c-3.8-6.1-12.6-4.2-12.2,3.9c0.4,8.2,12.2,19.6,12.2,19.6l0-0.1l0,0.1
					c0,0,11.7-11.4,12.2-19.6C1011.3,410.7,1002.5,408.8,998.7,414.9z"/>
			</g>
		</g>
	</g>
	<g>
		<polygon class="st18" points="939.7,468.4 938.2,457.3 944.6,451.8 946.7,466.5 		"/>
		<path class="st19" d="M961.6,478.6h-27.1c0,0-0.6-4.2,0.8-7.2c1.5-3,3.4-4.9,3.6-7.2c1.7,1.9,4,2.8,7.8,2.5c0.4,0.8,3,4.9,4.7,6.1
			C953.3,473.9,961.1,473.5,961.6,478.6z"/>
		<path class="st20" d="M956.3,315.6c-1.9,14-3.2,27.6-4.4,40.1c-6.2,66.4-5.1,106.7-5.1,106.7s-0.4,1.1-4.4,1.1
			c-2.3,0-4.4-0.4-4.4-0.4s-14-43.3-12.9-67.9c0.2-3,0.4-5.7,0.9-7.9c3.2-12.7-12.5-60.9,4.7-78.9
			C948.2,290.4,957.1,308.9,956.3,315.6z"/>
		<path class="st21" d="M956.3,315.6c-1.9,14-3.2,27.6-4.4,40.1l-26.7,39.5c0.2-3,0.4-5.7,0.9-7.9c3.2-12.7-12.5-60.9,4.7-78.9
			C948.2,290.4,957.1,308.9,956.3,315.6z"/>
		<path class="st18" d="M977.3,180.5c0,0-0.6-3.2-1.5-5.7c-0.4-0.9,1.9-8.1,3.4-9.3c1.7-0.8,5.7,4,4.5,7.8c-0.6,1.9-1.7,8.1-1.7,8.1
			L977.3,180.5z"/>
		<path class="st18" d="M977.3,180.5c0,0-0.8-1.9-1.7-2.3c-0.8-0.2-1.7-3.4-2.3-4.5c0,0,0.6-0.8,1.5,0.2c0.6,0.6,1.9,2.5,1.9,2.5
			L977.3,180.5z"/>
		<path class="st18" d="M866.3,191.4c-0.2,0.4-0.4,0.9-0.6,1.5c0-0.2,0-0.4,0-0.4c0-1.1-4.4-7.4-5.9-7.8c-1.9-0.4-4.4,5.5-2.1,8.5
			c0.9,1.7,4,7.4,4,7.4l4.5-2.3c0,0,0.2-2.1,0.8-2.6c0.6-0.6,0.6-3.6,0.6-5.1C867.6,190.7,866.9,190.1,866.3,191.4z"/>
		<path class="st18" d="M894.7,465c-0.4-3.6-0.4-13.2-0.4-13.2s9.8-3,9.5-0.9c-1.9,10.4-1.1,15.7-1.1,15.7l-4,2.5L894.7,465z"/>
		<path class="st20" d="M948.2,314.8c0,0-37.6,103.1-44.8,147.6c0,0-1.7,1.1-4.9,0.8c-3.6-0.4-4.7-3-4.7-3s-6.8-53.5,6.8-72.1
			c9.3-12.9-4.2-68.9,17.6-73.2C939.5,310.4,948.2,314.8,948.2,314.8z"/>
		<path class="st22" d="M941.4,215.9L941.4,215.9C941.4,215.7,941.4,215.7,941.4,215.9c-0.2-0.9-0.4-1.9-0.8-2.8l0,0
			c-0.8-2.6-1.7-5.3-2.6-7.6c-0.6-1.1-1.1-2.5-1.9-3.6c0-0.2-0.2-0.4-0.2-0.4l0,0c-1.5-2.5-2.8-4.2-4.4-4.7
			c-2.5-0.9-5.1-0.6-7.2-0.2c0.4-0.6,1.5-0.8,1.5-0.8c-1.1,0-3.6,1.7-3.6,1.7c-17.4-4-16.3,20.6-15.1,26.1
			c1.1,5.5-4.5,8.1-12.3,13.8c-14.9,10.8-14.8,22.3-14.8,22.3c0.2,0,0.2,0.2,0.4,0.2c0.6-1.5,1.9-4.4,3.2-4.9c0,0.2-1.1,3.6-1.5,5.7
			c2.3,1.1,5.5,3.2,8.7,5.3l0,0c4.7,2.8,9.6,6.2,13.6,8.9c-0.2-0.9-0.4-2.6,0-3.6l1.1,4.2l0.2,0.6c2.6,1.9,4.7,3,5.7,4
			c0.2,0,0.2,0.2,0.2,0.2c0.2,0.2,0.4,0.4,0.4,0.4c-0.4-1.5,1.1-5.1,3.6-9.8c0.2-0.4,0.4-0.6,0.6-0.9c0.8-1.5,1.9-3,2.6-4.7
			c0.4-0.6,0.6-1.1,0.9-1.9l0,0c0.2-0.4,0.6-0.9,0.8-1.5l0,0c0.8-1.1,1.5-2.3,2.3-3.4c2.1-3,4.2-5.9,6.2-8.5c3-4,6.1-7.4,8.5-9.6
			c0-0.2,0.2-0.4,0.2-0.6c0.4-0.8,0.6-1.9,0.9-2.8c0-0.4,0.2-0.6,0.2-0.9c0.6-3.2,0.6-6.6,0.6-7.4c0.2,3.2,0.2,5.5,0,7.4
			c0,0.4,0,0.8-0.2,0.9l0,0c-0.2,0.8-0.2,1.5-0.4,2.1c0.4-0.4,0.8-0.9,0.9-1.7c0.2-0.4,0.4-0.8,0.6-1.1
			C943.7,230.8,943.3,223,941.4,215.9z"/>
		<path class="st18" d="M938.2,240.6c0,0-4.9,3.4-8.9,3c-4-0.4-7.2-4.9-7.2-4.9c1.7-0.6,1.7-2.8,0.2-12.3h0.8l12.5,0.6
			c0,0,0.2,4,0.8,7.4C936.9,237.4,937.6,240.4,938.2,240.6z"/>
		<path class="st23" d="M935.5,227c0,0,0.2,4,0.8,7.4c-6.8,0.8-11.2-4.9-13.2-7.9L935.5,227z"/>
		<path class="st22" d="M921.5,225.3c0,0-4.4-5.1-5.9-9.8c-0.9-3.2-1.1-16.3,11.9-16.3c0,0,3.6-0.2,7.6,1.7c3,1.5,7.6,4.9,4.9,16.6
			l-0.6,4L921.5,225.3z"/>
		<path class="st4" d="M957.7,312.9c0,0-16.1,9.6-36.5,4.7c-0.2,0-16.6-2.6-16.6-2.6c0.2-0.8,2.5-13.4,2.6-14.4
			c3.6-9.5,10.2-59.8,15.7-62.4c1.5,1.7,5.5,2.6,8.7,2.3c4-0.4,5.3-2.1,4.9-4c4.4,2.1,7.8,4.2,7.8,4.2
			C948.6,246.7,957.7,312.9,957.7,312.9z"/>
		<path class="st18" d="M938.4,230.2c0,0-15.9,2.6-17.6-7.4c-1.5-10-4.5-16.3,5.5-18.4c10.2-2.1,12.7,1.5,14,4.7
			C941.8,212.3,942.3,229.1,938.4,230.2z"/>
		<path class="st22" d="M933.6,203c0,0-2.6,12.5-9.3,15.1s-9.6,1.5-9.6,1.5s4.5-4.9,4.5-12.3C919.6,207.3,929.5,197.9,933.6,203z"/>
		<path class="st22" d="M932.9,203.9c0,0,3.6,2.1,4.9,4.5c1.1,2.5,2.3,7.6,4,7.2c0,0,2.1-8.3-2.3-12.5
			C934.4,199.4,932.9,203.9,932.9,203.9z"/>
		<path class="st24" d="M982.5,180.7c-0.6-0.2-1.7-0.8-2.8-0.8c-0.9,0-2.5,0.2-2.5,0.2s-4.5,28-4.9,29.5
			c-0.4,1.5-19.5,22.9-24.6,22.9c-4.7,0-10.2,3.4-11.2,4.2c0,0,10.8,22.9,11.2,27.2c0.6,4.7,6.1,76.4,6.1,76.4s-0.4,3.2,5.9,1.7
			c6.2-1.9,7.8-3.2,7.8-3.2s-5.7-56.6-7-74.2c-0.2-2.5-0.6-4.5-0.9-6.6c-0.6-2.1-0.2-4.2,0.9-5.7c7.9-10.8,20.4-28.4,21-32
			C983,214.7,982.5,180.7,982.5,180.7z"/>
		<path class="st19" d="M917,478.6h-27.1c0,0-0.6-4.2,0.8-7.2c1.5-3,3.4-4.9,3.6-7.2c1.7,1.9,4,2.8,7.8,2.5c0.4,0.8,3,4.9,4.7,6.1
			C908.5,473.9,916.4,473.5,917,478.6z"/>
		<path class="st24" d="M935.5,265.8c-0.8-5.5-12.5-28-12.5-28s-7.4-2.3-12.1-0.4c-4.9,1.9-29.9-12.3-30.6-13.6
			c-0.8-1.1-14-26.1-14-26.1s-0.9-0.6-2.8,0.2c-1.9,0.8-1.9,2.6-1.9,2.6s10.2,31.2,13.1,36.1c1.7,2.8,15.5,13.1,26.3,20.6
			c2.1,1.5,3,4,2.8,6.2c-1.5,10.6-1.9,16.6-3.4,35.2c-1.5,15.3-1.9,44.6-1.9,44.6s12.1,4.2,20.4,4.7c8.3,0.6,10.2-8.1,10.2-8.1
			S936.5,271.7,935.5,265.8z"/>
		<path class="st4" d="M933.1,225.3c0,0,2.1,1.1,4.4,0.8c1.7-0.2,1.9-2.1,1.9-2.1s-0.9-0.4-2.8,0
			C934.6,224.2,933.1,225.3,933.1,225.3z"/>
	</g>
	<g>
		<path class="st19" d="M1135.4,469.2c0,0,0.8,8.8-1.2,9.7h-24c0,0,0-2.7,3.8-3.5c3.8-0.6,10.5-2.7,11.7-7.9
			C1127,462.7,1135.4,469.2,1135.4,469.2z"/>
		<path class="st19" d="M1203.6,465.9c0,0,0.6,12.3-1.2,13h-24c0,0,0-2.7,3.8-3.5c3.8-0.8,10.5-2.7,11.7-7.9
			C1195.4,462.7,1203.6,465.9,1203.6,465.9z"/>
		<path class="st25" d="M1204.4,467.3c0,0-4.7,2.4-6.7,2.9c-2.3,0.5-6.5,0.2-6.5,0.2c-8.2-21.8-33.2-110-33.2-110
			c-1.2,24.4-5.6,48.8-10.2,68.4c-0.2,0.5-0.3,0.9-0.3,1.7l0,0c-0.2,0.5-0.2,0.9-0.3,1.5l0,0c-5.6,23.1-11.1,38.8-11.1,38.8
			s-1.5,1.8-5.5,0.9c-4.6-0.9-6.1-2.9-6.1-2.9c2.9-94.2,4.6-147.1,4.6-147.1s39.7-21.4,50.5-3.2
			C1190.6,336.5,1204.4,467.3,1204.4,467.3z"/>
		<path class="st26" d="M1188.5,330.9c-5.3-18.5-6.1-36-5.9-50.4c0-20.6,2-35.2-4.2-37.6c0,0-19.1-5.6-32.5-8
			c-2.1-1.2-4.4-2.3-6.2-3.2c-4.1-1.7-20.5-25.3-23.2-30.9c-2.7-5.8-7.4-30.3-7.4-30.3l-6.4,2c0,0-2,27.6-0.9,34.9
			c0.9,7.1,21.1,38.4,22.8,41l0,0c7.1,26.2,0,68.7,3.3,78.3c1.7,4.9,32.9,14,50.1,12.7c0.8,0,1.7-0.2,2.4-0.3l0,0
			c4.1-0.5,7-1.8,8-4.1C1188.9,333.9,1188.9,332.4,1188.5,330.9z"/>
		<path class="st18" d="M1109,170.4c0,0,3.6-10.5,0.9-10.6c-2.6-0.3-9.1-0.3-10,1.5s2.7,11.2,2.7,11.2L1109,170.4z"/>
		<g>
			<g>
				<g>
					<path class="st21" d="M1040.9,196.3l-21.1-12.7c0.9-1.5,2.4-2.6,4.1-2.9s3.5-0.2,4.9,0.8c1.4,0.8,3.2,0.3,3.9-0.9l5.8-9.6
						l4.9,2.9l-5.8,9.6c-0.5,0.6-0.5,1.5-0.3,2.1s0.6,1.4,1.4,1.8c1.5,0.9,2.6,2.4,2.9,4.1C1042.1,193,1041.9,194.7,1040.9,196.3z"
						/>
					<path class="st20" d="M1040.9,196.3l-14.1-8.5c-3.3-2.7-1.7-5,0-5.5c1.7-0.3,3.5-0.2,4.9,0.8c1.4,0.8,3.2,0.3,3.9-0.9l5.8-9.6
						l2,1.2l-5.8,9.6c-0.5,0.6-0.5,1.5-0.3,2.1c0.2,0.6,0.6,1.4,1.4,1.8c1.5,0.9,2.6,2.4,2.9,4.1
						C1042.1,193,1041.9,194.7,1040.9,196.3z"/>
					<path class="st20" d="M1102.8,134.6l-17,21.5c-5.9,9.9-16.2,14.6-26.1,14.9l0,0c-3.3,0.2-6.7-0.2-9.7-1.2
						c-2.4-0.6-5.5,0.6-7,3.3l-0.3,0.5c-0.9,1.7-1.8,2.9-1.8,2.9l-3.6-2.1c0,0,0.8-1.4,1.8-3.2c1.8-2.9,1.7-6.5-0.3-8.6
						c-8.2-9.1-11.2-24.4-3.5-37.5l11.7-24.9L1102.8,134.6z"/>
					<g>
						<path class="st21" d="M1031.3,143.1c1.5-8-2.4-12.4-6.7-17.1c-3.3-3.8-6.7-7.6-7.6-13.2c-0.8-6.4,2.1-12.9,7.4-16.2
							c3.9-2.4,8.3-2.6,12.1-0.2c5.3,3.5,7.1,9.9,5.6,18.8c-1.2,6.4-3.6,11.8-3.8,12.1l-3.3-1.5c0.2-0.2,9.1-20-0.6-26.4
							c-3.3-2.1-6.5-0.8-8.2,0.2c-3.9,2.4-6.4,7.7-5.8,12.6c0.6,4.6,3.5,7.9,6.5,11.2c4.2,4.9,9.1,10.3,7.6,20.2L1031.3,143.1z"/>
					</g>
					<g>
						<path class="st20" d="M1072,167.8c6.5-4.9,12.3-3.6,18.4-2.1c4.9,1.2,9.9,2.4,15.2,0.5c6.1-2.3,10.3-7.9,10.8-14.1
							c0.3-4.7-1.7-8.6-5.5-10.8c-5.5-3.2-12.1-1.8-19.3,3.8c-5.3,3.9-8.8,8.6-8.9,8.8l2.9,2.1c0.2-0.2,13.7-17.3,23.5-11.7
							c3.5,2,3.8,5.5,3.6,7.4c-0.3,4.7-3.9,9.1-8.5,10.9c-4.4,1.7-8.6,0.5-13-0.5c-6.4-1.7-13.3-3.3-21.2,2.7L1072,167.8z"/>
					</g>
					<path class="st21" d="M1059.5,171.2c-3.3,0.2-6.7-0.2-9.7-1.2c-2.4-0.6-5.5,0.6-7,3.3l-0.3,0.5c-1.4,0.6-2.1,1.5-2.6,2.4
						l-2.7-1.7c0,0,0.8-1.4,1.8-3.2c1.8-2.9,1.7-6.5-0.3-8.6c-8.2-9.1-11.2-24.4-3.5-37.5l11.7-24.9l9.4,5.6
						C1056,106.5,1018.3,157.4,1059.5,171.2z"/>
					<path class="st20" d="M1042.8,179.2l-9.1-5.6c-1.4-0.8-1.7-2.4-0.8-3.6l0,0c0.8-1.4,2.4-1.7,3.6-0.8l9.1,5.6
						c1.4,0.8,1.7,2.4,0.8,3.6l0,0C1045.9,179.5,1044.2,180,1042.8,179.2z"/>
				</g>
				<g>
					<path class="st4" d="M1045.7,148.3l0.9-1.7c4.7,2.4,5.3,2.3,7.1-0.9l9.7-16.1c1.4-2.3,0.6-2.9-0.9-4.2l-1.2-0.9l0.8-1.5
						c3.6,1.7,8,3.2,11.1,3.8l-13.7,22.6c-2,3.3-2,3.8,2.4,6.7l-0.9,1.7L1045.7,148.3z"/>
				</g>
			</g>
		</g>
		<path class="st18" d="M1100,161.2c0,0-0.3,3.6,0.8,4.2c1.2,0.6,1.5-4.2,1.5-4.2s0,4.1,0.9,4.2c0.8,0.3,1.5-4.6,1.5-4.6
			s0.2,3.9,0.6,3.8c0.6-0.2,0.9-3.8,0.9-3.8s0.3,2.7,1.2,2.3c0.8-0.5,1.7-3.6,1.7-3.6L1100,161.2z"/>
		<path class="st18" d="M1109,170.4c0,0,2.4-2,2.9-3.6c0.5-1.8,2.1-4.7,1.4-5s-3.3,3.5-3.3,3.5L1109,170.4z"/>
		<path class="st18" d="M1151.6,231.8l-0.3,1.7c0,0-1.5,4.9,4.6,6.8c6.1,2,11.1,2.7,11.7-0.9c0-3.2,0-7.9,0.3-10.5
			c0.2-0.9,0.5-2,0.8-2.9l-12-2.6l-3.6-0.2L1151.6,231.8z"/>
		<path class="st27" d="M1153.3,223.2l-1.2,5.9c11.2,2.9,16.2-2.1,16.7-3.2l-12-2.6L1153.3,223.2z"/>
		<path class="st18" d="M1170.4,223.5c-3.5,7-13,4.1-17.1,2.4c-1.2-0.5-1.8-0.8-1.8-0.8c-1.4-0.6-1.4-2.9-0.9-5.9
			c0.8-5.6,3.9-13.2,5.5-15c2.3-2.6,5.8-5.3,14.9-0.2C1180,209.2,1175,214.6,1170.4,223.5z"/>
		<path class="st19" d="M1154.8,196.3c0,0,4.4,0.8,10.2,0.2c4.6-0.6,9.1,2.7,10.6,4.1c0-0.3,0-0.6-0.2-1.2c0,0,0.6,0.8,0.5,1.5
			c0,0,0.2,0.2,0,0.2c0,0,0.9,0.2,1.4,0.5c0,0-0.3-0.2-0.6,0l0,0c5.6,4.9,3.3,15.2,0.5,17c-3.3,2.1-8.8,8-8.8,8s0.2-2.1,1.4-4.4
			c1.2-2.3-0.9-2.9-3.5-4.9c-2.4-2,0.8-4.4-1.2-7c-1.8-2.6-10.8-3.9-10.3-5.5C1152.2,202.9,1154.8,196.7,1154.8,196.3z"/>
		<path class="st4" d="M1156.3,220.9c0,0-0.6,0.8-2.9-0.2c0,0-2-0.8-1.5-2C1151.9,219,1154.2,218.8,1156.3,220.9z"/>
		<path class="st21" d="M1153.7,245c0,0-5.5,36-46,60.8l-3.8,10.9h14.6c0,0,36.4-30.5,38.8-70.8L1153.7,245z"/>
		<polygon class="st28" points="1153.7,245 1153.7,239.6 1160.4,241.4 1157.4,246.1 		"/>
		<path class="st29" d="M1151.6,231.8l-3.9,3.3c0,0-1.2,4.7,1.5,9.7l7.9-4.6C1156.9,240.6,1152.4,238.2,1151.6,231.8z"/>
		<path class="st29" d="M1156.9,240.6c0,0,0.8,4.2,2.7,6.4c0,0,8.8-1.5,11.2-5.8l-3.8-5.8C1167.5,235.2,1166.6,239.3,1156.9,240.6z"
			/>
		<path class="st18" d="M1210.2,333.8c0,0,0,8-0.6,9.7c-0.8,1.7-4.1,6.8-5.6,7.9c-1.5,1.2,0.3-6.4-0.2-7.9c-0.5-1.4-1.2,2.7-1.8,2.9
			c-0.6,0.2-0.9-3.5-1.2-4.7s2.9-4.9,3.9-7.9C1205.9,330.9,1210.2,333.8,1210.2,333.8z"/>
		<path class="st26" d="M1178.2,242.9c0,0,7.9,2.1,13,13.8c5.6,12.3,20.5,39.3,20.9,43.1s-0.9,38.7-0.9,38.7s-6.5,0.3-8.5-2.7
			c0,0-2.3-30.6-3.3-32.5c-0.9-1.7-26.5-32.2-24.4-39.9C1177.1,255.5,1178.2,242.9,1178.2,242.9z"/>
		<path class="st29" d="M1188.3,334.8c-2,1.7-4.6,3.2-8,4.1l0,0c-0.8,0.3-1.7,0.3-2.4,0.3c-14.3-1.5-12.1-57-5.3-61.1
			c7.4-4.2,9.9,2.3,9.9,2.3c0,14.6,0.8,32.2,5.9,50.4C1188.9,332.4,1188.9,333.9,1188.3,334.8z"/>
		<path class="st19" d="M1147.2,431.6c0.2-0.5,0.2-0.8,0.3-1.5C1147.5,430.7,1147.4,431.2,1147.2,431.6z"/>
		<path class="st19" d="M1148,428.7c4.4-20.6-0.3-76.1,1.8-77.2c2.1-1.2,8.3,8.8,8.3,8.8C1156.9,384.6,1152.5,409,1148,428.7z"/>
	</g>
	<g>
		<g>
			<g>
				<path class="st3" d="M1100.4,208.5l12,37c0.5,1.7,2.1,2.8,3.8,2.8h38.9c3.9,0,5.5,5,2.4,7.3l-31.5,22.9c-1.4,1-2,2.8-1.5,4.5
					l12,37c1.2,3.7-3,6.8-6.2,4.5l-31.5-22.9c-1.4-1-3.3-1-4.7,0l-31.5,22.9c-3.2,2.3-7.4-0.8-6.2-4.5l12-37
					c0.5-1.7-0.1-3.5-1.5-4.5l-31.5-22.9c-3.2-2.3-1.5-7.3,2.4-7.3h38.9c1.7,0,3.3-1.1,3.8-2.8l12-37
					C1093.9,204.7,1099.2,204.7,1100.4,208.5z"/>
			</g>
		</g>
		<g>
			<path class="st17" d="M1093.4,212.5l12,37c0.5,1.7,2.1,2.8,3.8,2.8h38.9c3.9,0,5.5,5,2.4,7.3l-31.5,22.9c-1.4,1-2,2.8-1.5,4.5
				l12,37c1.2,3.7-3,6.8-6.2,4.5l-31.5-22.9c-1.4-1-3.3-1-4.7,0l-31.5,22.9c-3.2,2.3-7.4-0.8-6.2-4.5l12-37c0.5-1.7-0.1-3.5-1.5-4.5
				l-31.5-22.9c-3.2-2.3-1.5-7.3,2.4-7.3h38.9c1.7,0,3.3-1.1,3.8-2.8l12-37C1087,208.8,1092.2,208.8,1093.4,212.5z"/>
		</g>
	</g>
	<g>
		<g>
			<g>
				<path class="st3" d="M884.3,210.8l12,36.9c0.5,1.7,2.1,2.8,3.8,2.8h38.8c3.9,0,5.5,5,2.4,7.3l-31.4,22.8c-1.4,1-2,2.8-1.5,4.5
					l12,36.9c1.2,3.7-3,6.8-6.2,4.5l-31.4-22.8c-1.4-1-3.3-1-4.7,0l-31.4,22.8c-3.1,2.3-7.4-0.8-6.2-4.5l12-36.9
					c0.5-1.7-0.1-3.5-1.5-4.5l-31.4-22.8c-3.1-2.3-1.5-7.3,2.4-7.3h38.8c1.7,0,3.3-1.1,3.8-2.8l12-36.9
					C877.8,207.1,883.1,207.1,884.3,210.8z"/>
			</g>
		</g>
		<g>
			<path class="st17" d="M877.3,214.8l12,36.9c0.5,1.7,2.1,2.8,3.8,2.8h38.8c3.9,0,5.5,5,2.4,7.3l-31.4,22.8c-1.4,1-2,2.8-1.5,4.5
				l12,36.9c1.2,3.7-3,6.8-6.2,4.5l-31.4-22.8c-1.4-1-3.3-1-4.7,0l-31.4,22.8c-3.1,2.3-7.4-0.8-6.2-4.5l12-36.9
				c0.5-1.7-0.1-3.5-1.5-4.5l-31.4-22.8c-3.1-2.3-1.5-7.3,2.4-7.3h38.8c1.7,0,3.3-1.1,3.8-2.8l12-36.9
				C870.9,211.1,876.1,211.1,877.3,214.8z"/>
		</g>
	</g>
</g>
<path class="st4" d="M666.2,251.3c0,0,3.1,1.1,6.4,0.8c2.5-0.2,2.8-2.1,2.8-2.1s-1.4-0.4-4.2,0C668.4,250.2,666.2,251.3,666.2,251.3
	z"/>
<text transform="matrix(0.8023 0 0 1 5.5854 415.3672)" class="st21 st30 st31">CRM</text>
</svg>
