<?xml version="1.0" encoding="utf-8"?>
<!-- Generator: Adobe Illustrator 19.2.1, SVG Export Plug-In . SVG Version: 6.00 Build 0)  -->
<svg version="1.1" id="Layer_1" xmlns="http://www.w3.org/2000/svg" xmlns:xlink="http://www.w3.org/1999/xlink" x="0px" y="0px"
	 viewBox="0 0 1262 500" style="enable-background:new 0 0 1262 500;" xml:space="preserve">
<style type="text/css">
	.st0{fill:#78ACEA;}
	.st1{fill:#AFCDFB;}
	.st2{opacity:0.4;fill:#5E92DD;}
	.st3{fill:#95C0F4;}
	.st4{fill:#8CBAF1;}
	.st5{opacity:0.9;fill:#78ACEA;}
	.st6{fill:#FCECDB;}
	.st7{fill:#F99746;}
	.st8{fill:#F9E5D1;}
	.st9{fill:#EFCBAB;}
	.st10{fill:#B7D3F3;}
	.st11{fill:#D2E3FC;}
	.st12{fill:#C5DCF8;}
	.st13{fill:#FFB27D;}
	.st14{fill:#1C468A;}
	.st15{fill:#163560;}
	.st16{fill:#B5453C;}
	.st17{fill:#ED975D;}
	.st18{fill:#FFFFFF;}
	.st19{fill:#ED7D2B;}
	.st20{fill:#F9DDBF;}
	.st21{fill:#ED893E;}
	.st22{fill:#233862;}
	.st23{fill:#2A4E96;}
	.st24{fill:#ED985F;}
	.st25{fill:#2C3A64;}
</style>
<g>
	<g>
		<path class="st0" d="M818.9,493H629.6c-17.8,0-32.4-14.6-32.4-32.4V43.5c0-17.8,14.6-32.4,32.4-32.4h189.2
			c17.8,0,32.4,14.6,32.4,32.4v417.1C851.2,478.4,836.7,493,818.9,493z"/>
		<path class="st1" d="M864.6,24.2V480c0,7.1-5.8,13-13,13H623.7c-7.1,0-13-5.8-13-13V24.2c0-7.1,5.8-13,13-13h227.9
			C858.8,11.2,864.6,17,864.6,24.2z"/>
		<g>
			<path class="st2" d="M774.9,29.4h-66c-1.4,0-2.6-1.2-2.6-2.6l0,0c0-1.4,1.2-2.6,2.6-2.6h66c1.4,0,2.6,1.2,2.6,2.6l0,0
				C777.5,28.3,776.3,29.4,774.9,29.4z"/>
			<path class="st2" d="M697.2,29.4L697.2,29.4c-1.4,0-2.6-1.2-2.6-2.6l0,0c0-1.4,1.2-2.6,2.6-2.6l0,0c1.4,0,2.6,1.2,2.6,2.6l0,0
				C699.7,28.3,698.6,29.4,697.2,29.4z"/>
		</g>
		<path class="st3" d="M757.4,466.4c0,4.5-1.8,8.7-4.8,11.7c-3,3-7.2,4.9-11.8,4.9c-9.1,0-16.6-7.4-16.6-16.6c0-5.9,3.1-11,7.7-14
			c2.6-1.6,5.6-2.6,8.9-2.6C750,449.8,757.4,457.2,757.4,466.4z"/>
		<rect x="625.9" y="40.9" class="st3" width="225.2" height="400.8"/>
		<path class="st4" d="M752.6,478c-3,3-7.2,4.9-11.8,4.9c-9.1,0-16.6-7.4-16.6-16.6c0-5.9,3.1-11,7.7-14
			C733.6,459.4,738.4,471.2,752.6,478z"/>
	</g>
	<path class="st5" d="M847.8,88.8h-0.5H743.1H638.3c-1.8,0-3.2,1.9-3.2,4.2v134c0,2.3,1.5,4.2,3.2,4.2h104.8h104.2h0.5
		c1.8,0,3.2-1.9,3.2-4.2V93C851.1,90.7,849.6,88.8,847.8,88.8z"/>
	<path class="st5" d="M769.7,251.6h-0.4H688h-81.7c-1.4,0-2.5,1.9-2.5,4.2v134c0,2.3,1.1,4.2,2.5,4.2H688h81.3h0.4
		c1.4,0,2.5-1.9,2.5-4.2v-134C772.2,253.4,771.1,251.6,769.7,251.6z"/>
	<g>
		<path class="st6" d="M927.5,80.9v134c0,2.3-1.9,4.2-4.2,4.2H652c-2.3,0-4.2-1.9-4.2-4.2v-134c0-2.3,1.9-4.2,4.2-4.2h271.3
			C925.6,76.7,927.5,78.6,927.5,80.9z"/>
		<path class="st7" d="M927.5,80.9v134c0,2.3-2.2,4.2-4.9,4.2h-135V76.7h135C925.3,76.7,927.5,78.6,927.5,80.9z"/>
		<g>
			<path class="st6" d="M853.9,128.7h-47.8c-1.7,0-3-1.4-3-3l0,0c0-1.7,1.4-3,3-3h47.8c1.7,0,3,1.4,3,3l0,0
				C857,127.4,855.6,128.7,853.9,128.7z"/>
			<path class="st6" d="M841.7,137.8h-35.6c-1.7,0-3-1.4-3-3v0c0-1.7,1.4-3,3-3h35.6c1.7,0,3,1.4,3,3l0,0
				C844.8,136.5,843.4,137.8,841.7,137.8z"/>
		</g>
		<g>
			<path class="st6" d="M806.8,94.6c1.1-1.5,2.7-2.3,4.5-2.3c1.8,0,3.3,0.8,4.5,2.2c1.1,1.5,1.7,3.3,1.7,5.6s-0.6,4.1-1.7,5.6
				c-1.1,1.5-2.6,2.2-4.5,2.2c-1.8,0-3.3-0.8-4.5-2.2c-1.1-1.5-1.7-3.3-1.7-5.6C805.1,98,805.6,96.1,806.8,94.6z M814.6,95.7
				c-0.9-1.2-2-1.8-3.3-1.8s-2.4,0.6-3.3,1.8c-0.9,1.2-1.3,2.7-1.3,4.5c0,1.8,0.4,3.3,1.3,4.5c0.9,1.2,2,1.8,3.3,1.8
				c1.4,0,2.5-0.6,3.3-1.8c0.9-1.2,1.3-2.7,1.3-4.5C815.9,98.4,815.4,96.9,814.6,95.7z"/>
			<path class="st6" d="M829.8,94.3c1,1.2,1.5,3,1.5,5.2c0.1,4.7-2.5,8.6-6.6,8.5c-1.2,0-2.3-0.3-3.2-0.9v-1.5c0.9,0.6,2,1,3.1,1
				c3.6,0,5.1-3.3,5.1-6.4c-0.8,1.4-2.4,2.2-4.4,2.2c-1.4,0-2.5-0.5-3.5-1.3c-0.9-0.9-1.4-2.1-1.4-3.5c0-1.5,0.5-2.7,1.5-3.7
				c1-1,2.2-1.4,3.7-1.4C827.3,92.4,828.7,93,829.8,94.3z M823,94.9c-0.7,0.7-1,1.5-1,2.6c0,1,0.3,1.9,1.1,2.5
				c0.7,0.6,1.6,0.9,2.6,0.9c0.9,0,1.7-0.3,2.5-0.8c0.8-0.6,1.3-1.3,1.5-2.1c-0.3-2.6-1.7-4.1-4-4.1C824.6,93.9,823.8,94.2,823,94.9
				z"/>
			<path class="st6" d="M834.5,97.9c0.4-0.4,1.2-0.4,1.6,0c0.4,0.4,0.4,1.2,0,1.6c-0.4,0.4-1.2,0.4-1.6,0
				C834,99.1,834,98.4,834.5,97.9z M834.5,105.9c0.4-0.4,1.2-0.4,1.6,0c0.4,0.4,0.4,1.2,0,1.6c-0.4,0.4-1.2,0.4-1.6,0
				C834,107.1,834,106.4,834.5,105.9z"/>
			<path class="st6" d="M841.9,107.7V94.4l-3.4,1.9v-1.5l3.6-2.1h1.4v15.1H841.9z"/>
			<path class="st6" d="M849,94.6c1.1-1.5,2.7-2.3,4.5-2.3c1.8,0,3.3,0.8,4.5,2.2c1.1,1.5,1.7,3.3,1.7,5.6s-0.6,4.1-1.7,5.6
				c-1.1,1.5-2.6,2.2-4.5,2.2c-1.8,0-3.3-0.8-4.5-2.2c-1.1-1.5-1.7-3.3-1.7-5.6C847.3,98,847.9,96.1,849,94.6z M856.8,95.7
				c-0.9-1.2-2-1.8-3.3-1.8c-1.3,0-2.4,0.6-3.3,1.8c-0.9,1.2-1.3,2.7-1.3,4.5c0,1.8,0.4,3.3,1.3,4.5c0.9,1.2,2,1.8,3.3,1.8
				c1.4,0,2.5-0.6,3.3-1.8c0.9-1.2,1.3-2.7,1.3-4.5C858.1,98.4,857.7,96.9,856.8,95.7z"/>
			<path class="st6" d="M869,107.7V92.6h6.3c3,0,4.8,1.7,4.8,4.2c0,2.6-1.8,4.2-4.8,4.2h-4.7v6.7H869z M870.6,99.6h4.6
				c2.1,0,3.4-1,3.4-2.8c0-1.8-1.2-2.8-3.4-2.8h-4.6V99.6z"/>
			<path class="st6" d="M883.3,107.7V92.6h1.6l5.5,7.3l5.5-7.3h1.6v15.1h-1.6V95.1l-4.9,6.6h-1l-5-6.6v12.7H883.3z"/>
		</g>
		<path class="st8" d="M728.3,219.1H652c-2.3,0-4.2-1.9-4.2-4.2v-91C668.6,148.4,709.4,196.6,728.3,219.1z"/>
		<path class="st7" d="M717.2,94.4c-15.3,0-27.7,12.4-27.7,27.7c0,15.3,27.7,49.2,27.7,49.2s27.7-34,27.7-49.2
			C744.9,106.7,732.5,94.4,717.2,94.4z M717.2,134.7c-7.1,0-12.9-5.8-12.9-12.9c0-7.1,5.8-12.9,12.9-12.9c7.1,0,12.9,5.8,12.9,12.9
			C730.1,128.9,724.4,134.7,717.2,134.7z"/>
		<g>
			<path class="st9" d="M714.9,194.2h-47.8c-1.7,0-3-1.4-3-3l0,0c0-1.7,1.4-3,3-3h47.8c1.7,0,3,1.4,3,3l0,0
				C717.9,192.8,716.6,194.2,714.9,194.2z"/>
			<path class="st9" d="M702.7,203.3h-35.6c-1.7,0-3-1.4-3-3l0,0c0-1.7,1.4-3,3-3h35.6c1.7,0,3,1.4,3,3v0
				C705.8,202,704.4,203.3,702.7,203.3z"/>
		</g>
	</g>
	<g>
		<path class="st6" d="M793.5,245.5v134c0,2.3-1.9,4.2-4.2,4.2H518c-2.3,0-4.2-1.9-4.2-4.2v-134c0-2.3,1.9-4.2,4.2-4.2h271.3
			C791.6,241.3,793.5,243.2,793.5,245.5z"/>
		<path class="st7" d="M793.5,245.5v134c0,2.3-1.9,4.2-4.2,4.2H668.7V241.3h120.7C791.6,241.3,793.5,243.2,793.5,245.5z"/>
		<g>
			<g>
				<path class="st6" d="M730.2,341.5c-2.4,0-4.6-1.3-5.8-3.3l-17.8-30.5c-1.9-3.2-0.8-7.4,2.4-9.3c3.2-1.9,7.4-0.8,9.3,2.4
					l11.4,19.6l21.5-44.3c1.6-3.4,5.7-4.8,9-3.1c3.4,1.6,4.8,5.7,3.1,9l-27.1,55.7c-1.1,2.2-3.3,3.7-5.8,3.8
					C730.4,341.5,730.3,341.5,730.2,341.5z"/>
			</g>
			<g>
				<path class="st6" d="M730.2,357.2c-23.2,0-42-18.8-42-42c0-23.2,18.8-42,42-42c23.2,0,42,18.8,42,42
					C772.2,338.3,753.3,357.2,730.2,357.2z M730.2,278.1c-20.4,0-37.1,16.6-37.1,37.1c0,20.4,16.6,37.1,37.1,37.1
					c20.4,0,37.1-16.6,37.1-37.1C767.3,294.7,750.6,278.1,730.2,278.1z"/>
			</g>
		</g>
		<path class="st8" d="M593.3,383.6H518c-2.3,0-4.2-1.9-4.2-4.2V275.8L593.3,383.6z"/>
		<g>
			<g>
				<path class="st7" d="M550.2,264.5c-8.3,0-15,6.7-15,15c0,8.3,6.7,15,15,15c8.3,0,15-6.7,15-15
					C565.3,271.2,558.5,264.5,550.2,264.5z M560.7,280h-10.4c-0.3,0-0.5-0.2-0.5-0.5v-11.2c0-0.3,0.2-0.5,0.5-0.5
					c0.3,0,0.5,0.2,0.5,0.5v10.7h9.9c0.3,0,0.5,0.2,0.5,0.5C561.1,279.8,560.9,280,560.7,280z"/>
				<g>
					<path class="st9" d="M627.6,274h-47.8c-1.7,0-3-1.4-3-3l0,0c0-1.7,1.4-3,3-3h47.8c1.7,0,3,1.4,3,3l0,0
						C630.7,272.6,629.3,274,627.6,274z"/>
					<path class="st9" d="M615.5,283.1h-35.6c-1.7,0-3-1.4-3-3l0,0c0-1.7,1.4-3,3-3h35.6c1.7,0,3,1.4,3,3v0
						C618.5,281.7,617.2,283.1,615.5,283.1z"/>
				</g>
			</g>
			<g>
				<path class="st7" d="M548.7,322.7c-7.5,0-13.5,6.1-13.5,13.5c0,7.5,13.5,24.1,13.5,24.1s13.5-16.6,13.5-24.1
					C562.3,328.8,556.2,322.7,548.7,322.7z M548.7,342.5c-3.5,0-6.3-2.8-6.3-6.3c0-3.5,2.8-6.3,6.3-6.3c3.5,0,6.3,2.8,6.3,6.3
					C555.1,339.6,552.2,342.5,548.7,342.5z"/>
				<g>
					<path class="st9" d="M624,332.6h-47.8c-1.7,0-3-1.4-3-3l0,0c0-1.7,1.4-3,3-3H624c1.7,0,3,1.4,3,3l0,0
						C627.1,331.2,625.7,332.6,624,332.6z"/>
					<path class="st9" d="M611.8,341.7h-35.6c-1.7,0-3-1.4-3-3l0,0c0-1.7,1.4-3,3-3h35.6c1.7,0,3,1.4,3,3v0
						C614.9,340.4,613.5,341.7,611.8,341.7z"/>
				</g>
			</g>
		</g>
	</g>
	<g>
		<g>
			<path class="st10" d="M255.7,321.9c-1-24.5-3.1-45.7-5.7-60.6c-4.1-23.6-7.8-37.3-7.8-37.4c-0.5-2.1-8.3-10.5-25.6-10.2
				c-17.3,0.3-15.7,11.3-15.7,11.3l0,0c0,0.4,0,0.7,0.1,1c0.2,0.6,16.1,58.2,15.4,132.5c0,1-0.1,2.8-0.1,4.1c0,0,40.1,1,40.1,0
				C257.8,356.1,257.1,338.1,255.7,321.9z"/>
			<path class="st11" d="M260.7,358.1c0,1-0.6,1.9-1.2,1.9h0c-0.7,0-1.2-0.8-1.2-1.9h-34.4c0,1-0.6,1.9-1.2,1.9h0
				c-0.7,0-1.2-0.9-1.2-1.9c0.2-21.3-1-41.2-2.9-58.7c-4.6-43.7-13-73-13.1-73.4c-0.1-0.3-0.1-0.6-0.1-1c0,0-1.6-11,15.7-11.3
				c17.3-0.3,25.1,8.2,25.6,10.2c0,0.1,2.1,7.8,4.9,21.7c0.9,4.6,1.9,9.9,2.9,15.7c2.6,14.8,4.7,36.1,5.7,60.6
				C261.6,338.1,262.1,351.7,260.7,358.1z"/>
			<path class="st12" d="M218.9,360h134.7c0,0-3.1-12.7-81.2-10.8C217.3,350.5,218.9,360,218.9,360z"/>
			<g>
				<path class="st10" d="M208,492.6c15.6-79.1,11.6-127.6,11.6-128.2c0-1.2,2.2-2.3,3.4-2.4c1.2,0,6.6-0.4,7.2,0.7
					c0.8,1.4,4,61.2-19.3,129.9H208z"/>
			</g>
			<g>
				<path class="st10" d="M333.8,492.6c-15.6-79.1-11.6-127.6-11.6-128.2c0-1.2-2.2-2.3-3.4-2.4c-1.2,0-6.6-0.4-7.2,0.7
					c-0.8,1.4-4,61.2,19.3,129.9H333.8z"/>
			</g>
			<g>
				<path class="st10" d="M358.7,492.6c-15.6-79.1-11.6-127.6-11.6-128.2c0-1.2-2.2-2.3-3.4-2.4c-1.2,0-6.6-0.4-7.2,0.7
					c-0.8,1.4-4,61.2,19.3,129.9H358.7z"/>
			</g>
			<g>
				<path class="st10" d="M233.1,492.6c15.6-79.1,11.6-127.6,11.6-128.2c0-1.2,2.2-2.3,3.4-2.4c1.2,0,6.6-0.4,7.2,0.7
					c0.8,1.4,4,61.2-19.3,129.9H233.1z"/>
			</g>
			<path class="st10" d="M352.8,364.1H219.9c-2,0-3.7-1.7-3.7-3.7l0,0c0-2,1.7-3.7,3.7-3.7h132.9c2,0,3.7,1.7,3.7,3.7l0,0
				C356.5,362.4,354.8,364.1,352.8,364.1z"/>
			<g>
				<path class="st13" d="M349,242.4l44.8-9.7l2.6,6.4c0,0-49.4,29.4-54,28C337.8,265.6,349,242.4,349,242.4z"/>
				<path class="st13" d="M308.3,444.9c-1.1,1.3-1.3,2.7-0.7,4.3c0,0,0,0,0,0c1,2.8,4.4,6,8.4,9.2c0.5,0.4,1,0.8,1.3,1.1
					c0.1,0.1,0.2,0.2,0.3,0.3c0.1,0.1,0.2,0.1,0.2,0.2c3.7,3.4,2.3,4.2,8.9,11c7.5,7.8,12.7,8,14.2,7.3c1.2-0.6-1.3-4.8-4.1-9.4
					c-0.1-0.2-0.3-0.5-0.4-0.7c-0.4-0.6-0.7-1.3-1.1-1.9c-3.3-5.6-2.4-8.3-1.7-16.6c0.6-6.8,10.6-38,10.6-38l-14.4-2.5
					c0,0-4.3,24.8-9.1,28.6c-2.6,2-5.4,2.1-7.9,3.6c-0.2,0.1-0.3,0.2-0.5,0.3C310.8,442.7,309.4,443.7,308.3,444.9z"/>
				<path class="st14" d="M308.3,444.9c-1.1,1.3-1.3,2.7-0.7,4.3c0,0,0,0,0,0c1.3,2.8,4.6,6,8.4,9.1c0.5,0.4,0.9,0.8,1.3,1.1
					c0.1,0.1,0.2,0.2,0.3,0.3c0.1,0.1,0.2,0.1,0.2,0.2c3.7,3.4,2.3,4.2,8.9,11c7.5,7.8,12.7,8,14.2,7.3c1.2-0.6-1.3-4.8-4.1-9.4
					c-1.5-0.5-8.3-3.3-13.4-9.9c-4.5-5.8-7.6-13.2-10.6-17.5c-0.2,0.1-0.3,0.2-0.5,0.3C310.8,442.7,309.4,443.7,308.3,444.9z"/>
				<path class="st13" d="M424.6,435.9c0.9,4.5,7.2,3.7,14.3,2c7.1-1.7,5.4,0.3,15.5-0.8c10.1-1.1,13.1-4.9,13.5-6.4
					c0.3-1.3-4.7-1.8-10.1-2.4c-0.7-0.1-1.3-0.2-2-0.2c-6-0.8-10.5-4.7-15.9-7.9c-5.2-3-12.9-15.4-12.9-15.4l-13.8,1.1
					c0,0,7.3,11,10.1,15.8c1.7,2.8,1.6,6.6,1.4,9.4C424.4,432.8,424.3,434.4,424.6,435.9z"/>
				<path class="st14" d="M438.9,437.9c7.1-1.7,5.4,0.3,15.5-0.8c10.1-1.1,13.1-4.9,13.5-6.4c0.3-1.3-4.7-1.8-10.1-2.4l0,0.1
					c0,0-6.1,4.3-14.5,4.5c-6.8,0.2-14.1-1.8-18.8-1.7c-0.1,1.6-0.2,3.2,0.1,4.7C425.5,440.4,431.8,439.6,438.9,437.9z"/>
				<path class="st13" d="M393.8,232.7c0,0,3.3-8.1,6.9-8.4c3.6-0.3,15.2-2.1,16-0.5c0.8,1.6,0,7.6-2.5,9.7
					c-2.5,2.1-17.8,5.6-17.8,5.6L393.8,232.7z"/>
				<path class="st15" d="M371.6,347.5l-29.8,80.3c0,0-4.6,0.4-9-0.8c-4-1.2-8.7-4.2-8.7-4.2s7.4-77.1,21-93.1
					C358.6,313.5,371.6,347.5,371.6,347.5z"/>
				<path class="st14" d="M253.6,315c0,0,85.7-29,104.8-22.8c19.1,6.2,76.5,120.3,76.5,120.3s-1.3,1.7-4.8,3
					c-3.3,1.2-11.2,1.2-11.2,1.2s-51.8-44.4-58-57.3c-6.2-12.9-8.6-25.3-14.8-24c-6.2,1.2-79.5,30.2-96.2,12.9
					c-16.6-17.3-12.3-39.7-12.3-39.7L253.6,315z"/>
				<path class="st16" d="M302.5,110.7c-3.7-2.1-8.1-2.3-11.2-2.2c0.8-0.8,2.4-1.1,2.4-1.1c-1.9-0.3-6.2,1.6-6.2,1.6
					c-26.8-10.3-31,29.1-30.4,38.3c0.6,9.2,0.6,19.7-12.7,27.9c-26.3,16.2-4.1,44.4-4.1,44.4c0.2,0.1,12.2,20.5,12.2,20.5
					c-0.7-7.4,33.5-46.5,51.3-58.2c4.3-6.4,5.9-17.7,6-18.6c-0.7,8.9-2.3,14-3.6,16.8C321.1,166.3,312.3,116.2,302.5,110.7z"/>
				<path class="st13" d="M302.6,182.5c0.1,0-8.6,4.6-15.1,2.8c-6.2-1.7-10.2-9.7-10.1-9.7c2.6-0.5,3.4-4.1,3.3-19.5l1.2,0.2
					l19.8,3.9c0,0-0.5,6.2-0.5,12.1C301.1,177.3,301.4,182,302.6,182.5z"/>
				<path class="st17" d="M301.6,160.3c0,0-0.5,6.2-0.5,12.1c-11.1-0.3-16.9-10.4-19.3-16L301.6,160.3z"/>
				<path class="st16" d="M279.8,154.2c0,0-5.8-9.2-7.2-17c-1-5.6,1.9-26.4,22.7-23.4c0,0,6.1,0.6,11.8,4.4
					c4.5,3.1,11.1,9.7,3.8,27.8l-1.9,6.1L279.8,154.2z"/>
				<path class="st13" d="M305.3,165.9c0,0-26.2,0.4-26.2-15.9c0-16.3-3.4-27.3,13.3-28.2c16.7-1,20,5.3,21.3,10.7
					C315.1,137.9,312.1,165.3,305.3,165.9z"/>
				<path class="st16" d="M304.3,121.3c0,0-7.2,19.2-18.2,22c-11,2.8-15.8-0.1-15.8-0.1s8.4-6.7,10.2-18.4
					C280.6,124.8,298.9,112.2,304.3,121.3z"/>
				<path class="st16" d="M302.6,122.9c0,0,5.4,4.3,6.7,8.4c1.3,4.2,1.9,12.7,4.4,12.4c0,0,5.4-13-0.7-20.4
					C306.5,115.5,302.6,122.9,302.6,122.9z"/>
				<path class="st14" d="M244.2,253.1c-2.6-10.8,6.2-31.9,15.4-49.3c8.3-15.8,17-28.6,17.8-28.1c22,13,24,2.2,24,2.2l0,0
					c0,0,20,2.6,25.6,12.4c7,12.1,14.6,45.8,22.1,52.2c-1.2,3.5-0.7,5.4,0.6,9.8c0.3,0.9,0.6,1.8,0.9,2.7c1.1,3.1,2.6,5.6,3.8,7.8
					c-3.8,2.3-11.2,6.7-16.6,3.6c-8.3-4.9-14.8-19.6-18.4-25.5c0,0,0,0,0-0.1c-7.9,44.8,2.8,55-2.6,59.7c-5.8,5-14-2.4-32.1,5.5
					c-11.9,5.1-28.3,12.6-39.4,13.9c-5.8,0.7-10.1-0.3-11.6-4.3C229.4,304,249.1,273.7,244.2,253.1z"/>
				<path class="st18" d="M299.5,156c0,0,0.5,2.1,5.6,1.8c0,0,4.3-0.3,4.2-2.5C309.3,155.2,305.1,153.5,299.5,156z"/>
				<path class="st15" d="M233.5,315.4c1.4,3.9,5.8,4.9,11.6,4.3c7.7-3.3,40.8-16.2,40.4-24.9c-0.6-12.9-6.4-13.3-2.3-29.2
					c3.3-12.8-27.3-36.5-32.2-41.7c-9.2,17.4-9.4,18.2-6.9,29.1C249.1,273.7,229.4,304,233.5,315.4z"/>
				<path class="st14" d="M229.7,269c5.9-8.3,12-12.6,16-14.8c-0.9-2.4,24.7-33.8,24.7-38.7c0-4.9,6.8-39.9,6.8-39.9
					s-21.4,1.3-28.8,11.6C239.3,200.2,220.1,249.8,229.7,269z"/>
				<path class="st13" d="M245.8,254.2l42.7,11.1l-4,7.2c0,0-52-0.4-54.7-3.5C227,265.8,245.8,254.2,245.8,254.2z"/>
				<path class="st15" d="M319.2,240.7c3.6,5.9,10.1,20.7,18.4,25.5c5.4,3.2,12.8-1.2,16.6-3.6c-1.2-2.2-2.6-4.7-3.8-7.8
					c-3.1,0.7-6.8,1.6-9.2,2.3C336.6,258.6,319.2,240.7,319.2,240.7z"/>
				<path class="st13" d="M288.5,265.3c0,0,13.4-3.8,16.6-2.9c3.2,0.9,14.1,8.1,12.6,10.1c-1.5,2-11.2-1.2-15.6-0.6
					c-4.4,0.6-7.9,2.8-11.1,2.3c-3.2-0.5-6.5-1.7-6.5-1.7L288.5,265.3z"/>
				<path class="st13" d="M288.5,265.3c0,0,6.6-3.4,8.4-5.3c0.2-0.2,0.6-0.2,0.8,0.1c0.5,0.8,1,2.3-1.3,3.8
					C293.1,266.1,288.5,265.3,288.5,265.3z"/>
			</g>
		</g>
		<g>
			<path class="st19" d="M350.4,284.2h-62.6l0,0c0-2.8,2.2-5,5-5h57.6V284.2z"/>
			<polygon class="st19" points="350.3,216.1 447,216.1 423.8,284.2 326.4,284.2 			"/>
			<polygon class="st7" points="448.4,216.1 425.2,284.2 327.9,284.2 351.7,216.1 			"/>
			<path class="st20" d="M396.2,249.5c-0.6,2.6-3.2,4.7-5.8,4.7c-2.6,0-4.2-2.1-3.6-4.7c0.6-2.6,3.2-4.7,5.8-4.7
				C395.2,244.8,396.8,246.9,396.2,249.5z"/>
			<path class="st21" d="M448.4,216.1l-23.2,68.1h-64.5c42.7-14.6,54.1-59,56-68.1H448.4z"/>
		</g>
	</g>
	<g>
		<g>
			<path class="st3" d="M167.6,492.6c1.2,0,2.3-0.9,2.5-2l12.1-68.8l17.5-99l4.9-27.7l-12.4-0.4l-2.2,16.1l-15.2,113l-9,67
				C165.7,491.7,166.5,492.6,167.6,492.6z"/>
		</g>
		<path class="st0" d="M190,310.8c8.1,3.6,9.7,12,9.7,12l4.9-27.7l-12.4-0.4L190,310.8z"/>
	</g>
	<g>
		<g>
			<path class="st3" d="M477.1,492.6c-1.2,0-2.3-0.9-2.5-2l-12.1-68.8l-17.5-99l-4.9-27.7l12.4-0.4l2.2,16.1l15.2,113l9,67
				C479.1,491.7,478.2,492.6,477.1,492.6z"/>
		</g>
		<path class="st0" d="M454.8,310.8c-8.1,3.6-9.7,12-9.7,12l-4.9-27.7l12.4-0.4L454.8,310.8z"/>
	</g>
	<path class="st0" d="M162.6,305.9h312.1c6,0,10.9-4.9,10.9-10.9v0c0-6-4.9-10.9-10.9-10.9H162.6c-6,0-10.9,4.9-10.9,10.9v0
		C151.7,301,156.6,305.9,162.6,305.9z"/>
	<g>
		<path class="st13" d="M900.8,137.8c0,0-4.4-14.4-7-15.9c-2.5-1.5-13.1-6.7-13.7-5.3c-0.6,1.4,5.7,8.2,7.1,10.5
			c1.4,2.3,2.1,4.5,1.1,3.5c-1-1-6.3-4.3-6.9-3.5c-0.6,0.7,2.7,3.5,4.2,5.8c1.5,2.2,3.2,6,8.7,6.9
			C899.9,140.6,900.8,137.8,900.8,137.8z"/>
		<path class="st13" d="M1063,258.7c0,0-1.3,13-2.8,15.4c-1.5,2.5-7.7,10.3-10.3,11.8c-2.7,1.5,1.6-10.3,1.1-12.6
			c-0.5-2.3-2.2,4.2-3.4,4.4c-1.2,0.2-0.9-5.7-0.9-7.9c0-2.1,5.7-7.4,7.7-12C1056.4,253.3,1063,258.7,1063,258.7z"/>
		<path class="st22" d="M1022.3,125.7c0,0-10.8,52.9-70.1,70.2c-18.5,5.4-60.6-55.6-60.6-55.6s1.5-5.6,10.7-4.3
			c0,0,41,27.1,46.1,30.1c4.6,2.6,34.7-33.6,48.4-39.4C1010.6,120.7,1022.3,125.7,1022.3,125.7z"/>
		<g>
			<path class="st22" d="M1093.1,458.3c0,0,7.4,6.7,5.9,11.5c-1.4,4.8-8.1,8-9,13.8c-0.9,5.8-4.5,9-7.7,9c-3.2,0-15.4,0-15.4,0
				s-2.4-4.1,3.4-5.3c5.7-1.2,7.9-8.1,7.6-14.5c-0.4-6.4,0.5-14.8,0.5-14.8l12.2-2.8L1093.1,458.3z"/>
			<path class="st22" d="M1002.8,475.7c0,0,1.3,15.3-1.9,16.9l-41.4-0.1c0,0,0-4.8,6.6-5.8c6.6-1.1,18.3-4.9,20.3-13.6
				C988.5,464.3,1002.8,475.7,1002.8,475.7z"/>
			<path class="st7" d="M967.9,259.7c0,0,2.2,26.8,4.7,59c3.5,43.8,7.7,97.5,8.1,107.7c0.7,17.7,3.6,46,3.6,46s6.8,6.7,20.5,3.9
				c0,0,12.2-40.4,15.6-83.1c0.1-0.7,0.1-1.4,0.2-2.1c3.2-43.5,8.3-135,8.3-135L967.9,259.7z"/>
			<path class="st19" d="M967.9,259.7c0,0,2.2,26.8,4.7,59l47.8,74.4c0.1-0.7,0.1-1.4,0.2-2.1c3.2-43.5,8.3-135,8.3-135L967.9,259.7
				z"/>
			<path class="st7" d="M977.9,262.9c0,0,39.3,97,65.2,142.6c25.8,45.6,33.9,58.3,33.9,58.3s14.8-5.8,16.2-9.8
				c0,0-9.9-88-27.2-109.5c-9.8-12.1-21.3-48.5-21.8-61.2c-0.5-12.7-3.5-37.9-3.5-37.9L977.9,262.9z"/>
		</g>
		<path class="st13" d="M1029.6,113.4c0,0-26.6,12.8-41.9,8.1c0,0,3.8-4.8,10.4-8.3c-0.5-3.1-0.9-5.7-1.2-8
			c-0.6-5.2-0.6-8.2-0.6-8.2l10.3-8.1l9.7-7.7C1015.5,102.9,1029.6,113.4,1029.6,113.4z"/>
		<path class="st23" d="M1043.6,250.4c0.1,1.6-3.4,3.5-5,4.2c-11.4,5-22,8.5-34,9.6c-14.2,1.5-31-1.7-36.8-1.6
			c-0.6,0-1.1-0.2-1.6-0.6c-0.4-0.3-0.7-17.4-0.4-39c0-0.9,0-1.7,0.1-2.6v-0.3c0.1-8.4,0.4-17.2,0.8-26.1c0.8-19.4,2.4-38.1,5-48.4
			c3.1-12.2,10.2-20.3,16.6-26.1l5.3-4.6c5.3,1,10.9,0.8,16.5-2c6.1-3,12.7-6.2,13.8-5.3c8,5.9,13.4,19,16.3,35.9c0,0.1,0,0.2,0,0.2
			c1.6,9.6,2.4,20.4,2.4,31.7c0,4.2-0.1,8.5-0.4,12.7c-1.2,19.2-0.4,36.3,0.4,48.1c0.2,2.3,0.3,4.5,0.4,6.4
			C1043.4,245.9,1043.6,248.5,1043.6,250.4z"/>
		<path class="st22" d="M1042.7,236.2c-44.1-50.9-16.7-87.9-16.7-87.9l14.3-4.7c1.6,9.6,2.4,20.4,2.4,31.7c0,4.2-0.1,8.5-0.4,12.7
			C1041.2,207.2,1041.9,224.3,1042.7,236.2z"/>
		<path class="st24" d="M1016.4,89.5c0,0-6.7,12.3-19.5,15.7c-0.6-5.2-0.6-8.2-0.6-8.2l10.3-8.1L1016.4,89.5z"/>
		<path class="st13" d="M991.6,96.6c0,0,25.4,4.2,27.8-11.4c2.4-15.6,7.3-25.6-8.8-28.9c-16.1-3.3-20.2,2.2-22.2,7.2
			C986.2,68.5,985,95.1,991.6,96.6z"/>
		<path class="st25" d="M1028.5,54.4c0.2-0.3,0.8-0.5,1.9-0.5c0,0-0.9-0.6-2.2-0.6c-0.2-1.6-1.1-4.6-4-5.3c0,0,1.5,0.8,1.7,2.6
			c-3.3-3.4-10.3-5.8-29.7-4.3c-25.6,2-17.2,18.4-13.9,20.4c3.3,2,11.7-3.4,17.9-2.9c6.2,0.5,7.4,9.4,9.5,10.6
			c2.1,1.2,1.3-0.9,4.1-2.2c2.8-1.3,3.1,3.4,2.3,6.5c-0.8,3.1,3.1,7.1,3.1,7.1s0,0,3.9-4.2c3.9-4.2,7.7-22.2,5.9-26
			C1028.9,55.1,1028.7,54.7,1028.5,54.4z"/>
		<path class="st23" d="M1023.9,107.4c0,0,16.1,7.6,23.8,19.3c11.9,18.1,25.8,84.2,26,90.3s-10.1,49.3-10.1,49.3s-10.5-0.7-13.2-6
			c0,0,2.1-44.4,0.8-47.2c-1.3-2.9-43.8-59.5-39-71.6C1016.9,129.3,1023.9,107.4,1023.9,107.4z"/>
	</g>
	<path class="st6" d="M889.4,206.7h-60.5c-6.3,0-11.4-5.1-11.4-11.4v0c0-6.3,5.1-11.4,11.4-11.4h60.5c6.3,0,11.4,5.1,11.4,11.4v0
		C900.8,201.6,895.7,206.7,889.4,206.7z"/>
	<g>
		<g>
			<path class="st7" d="M859,200.3c-0.4,0-0.9-0.2-1.1-0.6l-3.3-5.7c-0.4-0.6-0.1-1.4,0.5-1.7c0.6-0.4,1.4-0.1,1.7,0.5l2.1,3.6
				l4-8.3c0.3-0.6,1.1-0.9,1.7-0.6c0.6,0.3,0.9,1.1,0.6,1.7l-5.1,10.4C859.9,200,859.5,200.2,859,200.3
				C859,200.3,859,200.3,859,200.3z"/>
		</g>
		<g>
			<path class="st7" d="M859,203.2c-4.3,0-7.8-3.5-7.8-7.8c0-4.3,3.5-7.8,7.8-7.8s7.8,3.5,7.8,7.8
				C866.8,199.7,863.3,203.2,859,203.2z M859,188.4c-3.8,0-6.9,3.1-6.9,6.9c0,3.8,3.1,6.9,6.9,6.9c3.8,0,6.9-3.1,6.9-6.9
				C865.9,191.5,862.8,188.4,859,188.4z"/>
		</g>
	</g>
	<g>
		<path class="st11" d="M501.7,124.6H434c-8.9,0-16.2,7.3-16.2,16.2v25.6c0,4.1,1.5,7.8,4,10.6l-4,18.4l23.2-12.8h60.6
			c8.9,0,16.2-7.3,16.2-16.2v-25.6C517.9,131.9,510.6,124.6,501.7,124.6z"/>
		<path class="st10" d="M503,144.1h-70.1c-1.4,0-2.6-1.2-2.6-2.6l0,0c0-1.4,1.2-2.6,2.6-2.6H503c1.4,0,2.6,1.2,2.6,2.6l0,0
			C505.6,142.9,504.4,144.1,503,144.1z"/>
		<path class="st10" d="M503,155.6h-70.1c-1.4,0-2.6-1.2-2.6-2.6l0,0c0-1.4,1.2-2.6,2.6-2.6H503c1.4,0,2.6,1.2,2.6,2.6l0,0
			C505.6,154.4,504.4,155.6,503,155.6z"/>
		<path class="st10" d="M503,166.6h-70.1c-1.4,0-2.6-1.2-2.6-2.6l0,0c0-1.4,1.2-2.6,2.6-2.6H503c1.4,0,2.6,1.2,2.6,2.6l0,0
			C505.6,165.5,504.4,166.6,503,166.6z"/>
	</g>
</g>
</svg>
