<?xml version="1.0" encoding="utf-8"?>
<!-- Generator: Adobe Illustrator 19.2.1, SVG Export Plug-In . SVG Version: 6.00 Build 0)  -->
<svg version="1.1" id="Layer_1" xmlns="http://www.w3.org/2000/svg" xmlns:xlink="http://www.w3.org/1999/xlink" x="0px" y="0px"
	 viewBox="0 0 1262 500" style="enable-background:new 0 0 1262 500;" xml:space="preserve">
<style type="text/css">
	.st0{fill:#4A75CB;}
	.st1{fill:#699FF0;}
	.st2{fill:#EBF2F9;}
	.st3{fill:#ADCBF9;}
	.st4{fill:#F1A34F;}
	.st5{fill:#D86713;}
	.st6{fill:#EE9849;}
	.st7{fill:#C95C12;}
	.st8{fill:#163560;}
	.st9{fill:#B77446;}
	.st10{fill:#365DA4;}
	.st11{fill:#285493;}
	.st12{fill:#D9935C;}
	.st13{fill:#80BDCC;}
	.st14{fill:#5F9AA8;}
	.st15{fill:#A86337;}
	.st16{fill:#CA5F00;}
	.st17{fill:#E69D43;}
	.st18{fill:#CC7C46;}
	.st19{fill:#FFFFFF;}
	.st20{fill:#B84C42;}
	.st21{fill:#B74B42;}
	.st22{fill:#E58638;}
	.st23{fill:#A6C7F9;}
	.st24{fill:#A6D9F1;}
	.st25{opacity:0.4;fill:#D86713;}
	.st26{opacity:0.2;fill:#D86713;}
	.st27{fill:#3B76CA;}
	.st28{fill:#466AA5;}
	.st29{fill:#699DEE;}
	.st30{fill:#E49963;}
	.st31{fill:#D38957;}
	.st32{fill:#2F5791;}
	.st33{fill:#C65447;}
	.st34{fill:#FFB27D;}
	.st35{fill:#E58D5C;}
	.st36{fill:#CC620A;}
	.st37{fill:#D68D5D;}
	.st38{fill:#992B25;}
	.st39{fill:#739AF0;}
	.st40{fill:#373480;}
	.st41{fill:#575B9F;}
	.st42{fill:#E2E7F2;}
	.st43{fill:#CED4EA;}
	.st44{fill:#BCC5DD;}
	.st45{fill:#1C468A;}
</style>
<g>
	<g>
		<g>
			<path class="st0" d="M956.6,21.8H736.4c-6.9,0-12.6,5.6-12.6,12.6v440.3c0,6.9,5.6,12.6,12.6,12.6h220.2
				c6.9,0,12.6-5.6,12.6-12.6V34.3C969.1,27.4,963.5,21.8,956.6,21.8z"/>
			<path class="st1" d="M932.8,21.8H712.6c-6.9,0-12.6,5.6-12.6,12.6v440.3c0,6.9,5.6,12.6,12.6,12.6h220.2
				c6.9,0,12.6-5.6,12.6-12.6V34.3C945.3,27.4,939.7,21.8,932.8,21.8z"/>
			<rect x="709.3" y="59" class="st2" width="227.2" height="377.2"/>
			<g>
				<path class="st0" d="M850.5,39.4h-63.8c-1.4,0-2.5,1.1-2.5,2.5c0,1.4,1.1,2.5,2.5,2.5h63.8c1.4,0,2.5-1.1,2.5-2.5
					C853,40.5,851.9,39.4,850.5,39.4z"/>
				<path class="st0" d="M861.8,39.4L861.8,39.4c-1.4,0-2.5,1.1-2.5,2.5c0,1.4,1.1,2.5,2.5,2.5l0,0c1.4,0,2.5-1.1,2.5-2.5
					C864.3,40.5,863.2,39.4,861.8,39.4z"/>
			</g>
			<circle class="st0" cx="817.6" cy="464.8" r="12.7"/>
		</g>
		<rect x="708.4" y="303.3" class="st3" width="228.1" height="137"/>
		<g>
			<g>
				<path class="st1" d="M814.6,415.7c-25,0-45.4-20.4-45.4-45.4c0-25,20.4-45.4,45.4-45.4c25,0,45.4,20.4,45.4,45.4
					C860,395.4,839.7,415.7,814.6,415.7z M814.6,330.9c-21.8,0-39.5,17.7-39.5,39.5c0,21.8,17.7,39.5,39.5,39.5
					c21.8,0,39.5-17.7,39.5-39.5C854.1,348.6,836.4,330.9,814.6,330.9z"/>
			</g>
			<path class="st4" d="M784,363.6c0,0,19.9,23,31.7,33.5c0,0,22.9-47.1,50.3-80c0,0-31.8,23.6-58.5,53.3
				C807.6,370.5,800.2,369.4,784,363.6z"/>
		</g>
		<g>
			<polygon class="st5" points="782.7,128.4 889.4,128.4 903,230.5 814.2,230.5 			"/>
			<g>
				<g>
					<path class="st5" d="M852.3,139.6C852.3,139.6,852.3,139.6,852.3,139.6c-0.9,0-1.6-0.7-1.6-1.6c0.3-22.4-3.2-37.3-10.4-44.4
						c-3.6-3.5-8.1-5.1-13.7-4.8c-21.2,1-22.8,48.8-22.8,49.3c0,0.9-0.8,1.6-1.6,1.5c-0.9,0-1.6-0.8-1.5-1.6
						c0.1-2.1,1.7-51.2,25.9-52.3c6.4-0.3,11.8,1.6,16.1,5.7c8,7.8,11.7,23,11.4,46.7C853.9,138.9,853.2,139.6,852.3,139.6z"/>
				</g>
				<polygon class="st6" points="867.1,128.4 768.3,128.4 747.4,230.5 856,230.5 				"/>
				<g>
					<path class="st5" d="M842.1,139.6C842,139.6,842,139.6,842.1,139.6c-0.9,0-1.6-0.7-1.6-1.6c0.3-22.4-3.2-37.3-10.4-44.4
						c-3.6-3.5-8.1-5.1-13.7-4.8c-21.2,1-22.8,48.8-22.8,49.3c0,0.9-0.8,1.6-1.6,1.5c-0.9,0-1.6-0.8-1.5-1.6
						c0.1-2.1,1.7-51.2,25.9-52.3c6.4-0.3,11.8,1.6,16.1,5.7c8,7.8,11.7,23,11.4,46.7C843.6,138.9,842.9,139.6,842.1,139.6z"/>
				</g>
			</g>
			<polygon class="st7" points="878.5,132.3 869.6,230.5 894.2,230.5 			"/>
		</g>
		<g>
			<path class="st3" d="M743.5,260l63.8-0.1c1.3,0,2.4-1.1,2.4-2.4c0-1.3-1.1-2.4-2.4-2.4l-63.8,0.1c-1.3,0-2.4,1.1-2.4,2.4l0,0
				C741,258.9,742.1,260,743.5,260z"/>
			<path class="st3" d="M734.6,260l0.2,0c1.3,0,2.4-1.1,2.4-2.4c0-1.3-1.1-2.4-2.4-2.4l-0.2,0c-1.3,0-2.4,1.1-2.4,2.4
				C732.1,258.9,733.2,260,734.6,260z"/>
			<path class="st3" d="M743.5,268.6l63.8-0.1c1.3,0,2.4-1.1,2.4-2.4s-1.1-2.4-2.4-2.4l-63.8,0.1c-1.3,0-2.4,1.1-2.4,2.4l0,0
				C741.1,267.5,742.2,268.6,743.5,268.6z"/>
			<path class="st3" d="M734.6,268.6l0.2,0c1.3,0,2.4-1.1,2.4-2.4c0-1.3-1.1-2.4-2.4-2.4l-0.2,0c-1.3,0-2.4,1.1-2.4,2.4
				C732.1,267.6,733.2,268.6,734.6,268.6z"/>
			<path class="st3" d="M807.3,272.2l-63.8,0.1c-1.3,0-2.4,1.1-2.4,2.4c0,1.3,1.1,2.4,2.4,2.4l63.8-0.1c1.3,0,2.4-1.1,2.4-2.4
				C809.8,273.3,808.7,272.2,807.3,272.2z"/>
			<path class="st3" d="M734.8,272.4l-0.2,0c-1.3,0-2.4,1.1-2.4,2.4l0,0c0,1.3,1.1,2.4,2.4,2.4l0.2,0c1.3,0,2.4-1.1,2.4-2.4
				C737.2,273.5,736.1,272.4,734.8,272.4z"/>
		</g>
	</g>
	<g>
		<path class="st8" d="M374.4,183.7c0,0-21.6-9.4-25.2,12.7c-1.7,10.7,7.6,21.4,5.3,26.9c-2.3,5.5-11.2,17.4-5.5,22.9
			c0,0-0.4-5.3,3-9.3c0,0-4.6,14.7,4.9,16.6c9.5,1.9,25.2-6.6,24.1-21.4C379.9,217.2,374.4,183.7,374.4,183.7z"/>
		<path class="st8" d="M389.9,187.1c0,0-4.7-6.4-17-4.2c-12.3,2.1-8.5,27.5,2,31.9L389.9,187.1z"/>
		<path class="st9" d="M440.8,484.1c-0.3,0.8-1.7,2.4-5.6,3.1h-9.8c-2.1-0.4-2.7-0.8-6.1-0.4c-5.2,0.6-9.9,0.6-10.1-2.6
			c-0.1-1.2,0.1-2.3,0.3-3.4c0.4-2.1,2.1-3.6,1.8-6c-0.7-5.2-7.4-21.2-7.4-21.2l11.5-2.1c0,0,2.9,18.6,6.1,22.7
			c2.8,3.6,6.5,5.9,10.8,7c0.5,0.1,1,0.2,1.4,0.3C437.5,482.4,441.1,483.2,440.8,484.1z"/>
		<path class="st10" d="M440.8,484.1c-0.3,0.8-1.7,2.4-5.6,3.1h-9.8c-2.1-0.4-2.7-0.8-6.1-0.4c-5.2,0.6-9.9,0.6-10.1-2.6
			c-0.1-1.2,0.1-2.3,0.3-3.4c3.4,0.3,8.4,2.4,13.4,2.8c6.1,0.6,10.8-2,10.8-2l0-0.1C437.5,482.4,441.1,483.2,440.8,484.1z"/>
		<g>
			<path class="st10" d="M419.5,464.9c0,0-3,2-5.8,2.5c-4.2,0.8-6.2-0.1-6.2-0.1s-20.4-51.2-19.2-68.5c0-0.4,0-0.9,0-1.3
				c0-3-0.4-7-1.1-11.6c-0.3-1.7-0.6-3.5-0.9-5.3c-0.8-4.3-1.8-8.9-2.9-13.6c-0.5-2.1-1-4.2-1.5-6.2c-5.1-20.5-11.4-40.6-11.4-40.6
				s36.8-12,38.9-0.8c0.8,4.3,3.5,21.6,2.3,47.9c-1,21.2-0.3,37.8,1.5,57C414.6,441.2,417.4,455.8,419.5,464.9z"/>
		</g>
		<path class="st11" d="M388.3,397.5c0-3-0.4-7-1.1-11.6c-0.3-1.7-0.6-3.5-0.9-5.3c-0.8-4.3-1.8-8.9-2.9-13.6
			c-0.5-2.1-1-4.2-1.5-6.2c0.7-6.2,1.3-10.5,1.3-10.5S398.3,371,388.3,397.5z"/>
		<path class="st9" d="M394.3,484.1c-0.3,0.8-1.7,2.4-5.6,3.1H379c-2.1-0.4-2.7-0.8-6.1-0.4c-5.2,0.6-9.9,0.6-10.1-2.6
			c-0.1-1.2,0.1-2.3,0.3-3.4c0.4-2.1,1.8-3.6,1.8-6c0-7-1.6-19.8-1.6-19.8l10.8,3.9c0,0-2.4,12.7,1,15.3c3.7,2.8,6.5,5.9,10.8,7
			c0.5,0.1,1,0.2,1.4,0.3C391.1,482.4,394.7,483.2,394.3,484.1z"/>
		<path class="st10" d="M394.3,484.1c-0.3,0.8-1.7,2.4-5.6,3.1H379c-2.1-0.4-2.7-0.8-6.1-0.4c-5.2,0.6-9.9,0.6-10.1-2.6
			c-0.1-1.2,0.1-2.3,0.3-3.4c3.4,0.3,8.5,2.4,13.4,2.8c6.1,0.6,10.8-2,10.8-2l0-0.1C391.1,482.4,394.7,483.2,394.3,484.1z"/>
		<path class="st10" d="M392.5,316.2c0,0-12,59.7-14,92.2c-2,32.5-4.5,59.4-4.5,59.4s-2.6,0.9-5.6,0.8c-3.2-0.2-5.7-1.2-5.7-1.2
			s-11.9-48.9-7.9-68.4c3.9-19.6,0.7-37.6-1.2-53.8c-2.7-23.3,7.7-34.1,15-41.4C375.8,296.1,392.5,316.2,392.5,316.2z"/>
		<path class="st12" d="M395.1,238.1l-5.7,8.6l-11.6-0.6l-5.3-13.8c0,0,1.6-0.3,2.4-17.5l14.4,4.4c0,0-0.8,4.5,0.3,9.4
			C390.3,232,391.9,235.6,395.1,238.1z"/>
		<path class="st12" d="M396.7,232c-0.7,0-14.3-4.5-33.7,3.4c0,0,9.2,52.7,5.3,62.8c-4,10.1-5.5,19-5.5,19l42.9,0.5
			c0,0-0.6-34.5,1.4-46.7C409.1,258.7,396.7,232,396.7,232z"/>
		<path class="st13" d="M468,267.5c-0.1-1.5-0.6-1.8-0.6-1.8c-13.7,2-22.8,1.9-27.3,2.8c-3.5,0.7-4.9,0.8-5.5-0.1
			c-19-26.7-32.4-35-32.4-35s-1.4-0.9-7-1.6c0,0-0.8,10.1-6,11c-9,1.5-16.3-6.8-18.4-10.1c0,0-10.3,2.6-13.4,6.1
			c-2.2,2.5-1.9,8.4-1.2,12.2c0.2,1.2,0.4,2.2,0.7,2.7c0.6,1.7,3.1,14.1,4.2,19.1c0,0.1,0.1,0.2,0.1,0.3c0.1,0.3,0.1,0.6,0.2,0.9
			c0,0,0,0,0,0c0.1,0.3,0.1,0.5,0.2,0.6c0,0.1,0.1,0.2,0.1,0.2c0,0,0,0,0,0c1.6,5.1,2.6,10.3,2,16.6c-0.1,0.7-0.2,1.7-0.5,2.7
			c-1.4,7.4-7.4,22-8.7,28.7c0.7,1.5,2.3,2.7,4.3,3.7c2.6,1.2,5.7,2.1,8.3,2.7c2,0.4,5,1,8.4,1.3c1.8,0.2,3.8,0.4,5.8,0.5
			c0.3,0,0.6,0,0.8,0c12.9,0.6,27.4,0.3,29.3-5.8c0.9-3-2.7-20.7-3.2-26c-0.8-9.3,0.5-21.9,1.1-31.8c10.6,11.7,21.6,15.9,21.6,15.9
			c2.6-0.1,5.6-0.6,8.8-1.3c3.4-0.8,6.9-1.8,10.3-2.8c9.6-3,18.6-7.3,18.6-7.3S468.3,270.8,468,267.5z"/>
		<path class="st14" d="M391.2,311c-2.4,8.3-3.9,15.1-10,19.8c-2-0.1-4-0.3-5.8-0.5c-3.5-0.4-6.5-0.9-8.4-1.3
			c-2.5-0.6-5.7-1.4-8.3-2.7c-2-1-3.6-2.1-4.3-3.7c1.2-6.7,7.2-21.3,8.7-28.7c0.1-0.7,0.2-1.4,0.3-1.9c0.5-6.6-0.3-12.1-1.8-17.4
			c0,0,0,0,0,0c-0.1-0.3-0.2-0.6-0.2-0.8c0,0,0,0,0,0c-0.1-0.2-0.1-0.5-0.2-0.9c0-0.1,0-0.2-0.1-0.3c-1-4.7-3.6-19.4-4.2-21.3
			c-0.2-0.6-0.4-1.6-0.6-2.9l5.2-5c0,0,29.7,12.7,36.2,30.1C404,291,394.7,299.1,391.2,311z"/>
		<path class="st14" d="M450,279.1c-6.6,2.1-13.7,3.9-19.1,4.2c0,0-10.9-4-21.6-15.9c-0.4-2-1.1-5.6,1.3-4.7
			c3.4,1.4,16.1,17.6,20.9,18C435,280.9,444.7,279.7,450,279.1z"/>
		<path class="st13" d="M426.6,274.4c0,0-14.6,7.3-27.3,10.4c-3.6,0.9-7.2,1.5-10.2,1.6c0,0-13.7-4.1-24-18.8
			c-19-27-4.6-31.2-4.6-31.2s13.4,8.4,32.4,35c0.7,0.9,2.3,0.7,6.6-0.1c4.6-0.9,13.8-0.8,26.4-2.7c0,0,0.2,0.5,0.3,2
			C426.6,274,426.6,274.4,426.6,274.4z"/>
		<path class="st15" d="M468.6,271.8c0,0-9,4.3-18.6,7.3c-3.4,1.1-7,2.1-10.3,2.8c-1.4-6.1-0.4-10.8,0.5-13.5
			c4.5-0.9,14-0.9,27.7-2.9L468.6,271.8z"/>
		<path class="st15" d="M464.4,266.3c0,0,3.5-0.7,6.4-2.1c2.9-1.4,10.6-2.4,12.2-0.9c1.6,1.5-1.7,7.8-8.8,8c-7,0.2-9.1,1.3-9.1,1.3
			L464.4,266.3z"/>
		<g>
			<path class="st16" d="M476.9,244.9l-39.2,7.6c-1.7,0.3-3.1,2-3.1,3.7v27.1c0,1.7,1.4,2.9,3.1,2.5l39.2-7.6c1.7-0.3,3.1-2,3.1-3.7
				v-27.1C480.1,245.7,478.7,244.6,476.9,244.9z"/>
			<path class="st17" d="M478.5,244.9l-39.2,7.6c-1.7,0.3-3.1,2-3.1,3.7v27.1c0,1.7,1.4,2.9,3.1,2.5l39.2-7.6c1.7-0.3,3.1-2,3.1-3.7
				v-27.1C481.6,245.7,480.2,244.6,478.5,244.9z"/>
			<path class="st16" d="M439.9,254.7c-0.7,0.1-1.3,0.8-1.3,1.5s0.6,1.2,1.3,1c0.7-0.1,1.3-0.8,1.3-1.5
				C441.2,255,440.6,254.6,439.9,254.7z"/>
		</g>
		<path class="st9" d="M444.3,265.4c-1.7-1.6-10-0.6-13.1,0.9c-1.8,0.9-3.8,1.5-5.2,1.9c0,0,0,0,0,0c-12.7,1.9-21.9,2.3-26.5,3.2
			c1.4,3.1,2.5,7.9-0.3,13.4c12.1-2.9,26.3-9.4,27.5-10c1.4-0.4,3.9-0.8,8.1-0.9C442.4,273.7,446,267,444.3,265.4z"/>
		<path class="st18" d="M389.6,228.6c-6-0.5-14.7-13.8-14.7-13.8l14.4,4.4C389.3,219.2,388.6,223.7,389.6,228.6z"/>
		<path class="st12" d="M393.1,220.2c0,0-17.3,3.5-19.3-7.3c-2-10.8-5.6-17.6,5.4-20.3c10.9-2.7,13.9,1,15.4,4.5
			C396.2,200.5,397.6,219,393.1,220.2z"/>
		<path class="st8" d="M384.7,189.9c0,0,0.3,3.7-5.4,9.9c-5.7,6.2-2.5,16-2.5,16s-11.4-16.7-6.3-22.4
			C375.6,187.5,384.7,189.9,384.7,189.9z"/>
		<path class="st8" d="M377.7,185.1c0,0,8.6-2.9,17.1,5.5c3.7,3.6,3.1,10.7,1.2,14.9c0,0-3-8.8-8.5-10.8
			C382,192.8,377.7,185.1,377.7,185.1z"/>
		<path class="st19" d="M387.7,214.9c0,0,0.5,1.3,3.7,0.7c0,0,2.7-0.5,2.5-1.9C393.9,213.6,391.1,212.9,387.7,214.9z"/>
	</g>
	<g>
		<path class="st12" d="M548.3,258.6l-2.6,4.2c-1.4,1.6-1.7,2.4-2.8,2.9c-2.6,1.3-7.4,4.5-7.7,11.4c0,0,0.1,3.9,2.7,2.6
			c2.6-1.3,1.5-1.1,5.2-2.8c3.7-1.7,5.1-7.1,5.4-8.9l3-4L548.3,258.6z"/>
		<g>
			<path class="st12" d="M713.1,196.8c0,0,2.8-6.8,5.8-7c3-0.3,12.7-1.8,13.4-0.4c0.7,1.4,0,6.4-2.1,8.1c-2.1,1.8-14.9,4.7-14.9,4.7
				L713.1,196.8z"/>
			<path class="st12" d="M666.5,482.9c-0.3,1.1-2.3,3.2-7.4,4.2h-13.4c-1.8-0.3-2.8-0.7-5.2-0.5c-0.1,0-0.2,0-0.3,0
				c-0.1,0-0.2,0-0.4,0c-0.5,0-1,0.1-1.6,0.2c-0.8,0.1-1.5,0.2-2.3,0.3c-0.3,0-0.7,0.1-1,0.1h-5.6c-0.2,0-0.4-0.1-0.6-0.1
				c-0.6-0.1-1.2-0.3-1.7-0.5c0,0,0,0,0,0c-1.3-0.6-2.2-1.6-2.3-3.1c-0.1-1.5,0.1-3,0.4-4.5c0-0.2,0.1-0.4,0.1-0.5
				c0.5-2.5,1.9-3.4,2.2-6.3c0.5-5.5-4-24.4-4-24.4h17.2c0,0-0.5,17.1,1.5,22.9c1.9,5.5,7.5,7.1,13.1,8.5c0.6,0.1,1.3,0.3,1.9,0.4
				c0.2,0,0.5,0.1,0.7,0.2C662.6,480.8,666.9,481.8,666.5,482.9z"/>
			<g>
				<path class="st13" d="M604.8,298.2c1.5,8.2,3.5,16.6,5.3,25.3c2.9,14.1,5.1,29.1,2.8,45.2c-0.3,2.1-0.4,4.4-0.5,6.8
					c-0.4,28.5,12.3,80.1,12.3,80.1s3.5,1.5,9.3,1.2c3-0.1,7.6-2.1,7.6-2.1s1.2-32,1.3-75.1c0.1-31.2,6.2-72.3,7.4-96.4
					c0.7-14.6-0.9-34.1-0.9-34.1s-25.4-20.4-34.5-10C605.9,249.6,599.3,267.7,604.8,298.2z"/>
			</g>
			<path class="st14" d="M612.9,368.7c-0.3,2.1-0.4,4.4-0.5,6.8c19-27.5,23.2-87.6,23.2-87.6l-20.9,10.1c0,0-2.3,11.3-4.7,25.4
				C613,337.6,615.2,352.6,612.9,368.7z"/>
			<path class="st12" d="M611.6,483.2c-0.3,1-2,2.9-6.4,4h-15.6c-1.2-0.2-2.2-0.4-4.1-0.3c-0.1,0-0.2,0-0.3,0c-0.1,0-0.2,0-0.4,0
				c-0.5,0-1,0.1-1.6,0.2c-0.1,0-10.8-0.1-11.1-0.2c0,0,0,0,0,0c-1.3-0.6-2.2-1.6-2.3-3.1c-0.1-1.5,0.1-3,0.4-4.5
				c0-0.2,0.1-0.4,0.1-0.5c0.5-2.5,2-4.1,2.3-7c0.5-5.5-0.5-24.7-0.5-24.7l15.9,1.3c0,0-2.8,16.9-0.8,22.7c1.9,5.4,7.5,7.1,13.1,8.5
				c0.6,0.1,1.3,0.3,1.9,0.4c0.2,0.1,0.5,0.1,0.7,0.2C607.7,481,612,482,611.6,483.2z"/>
			<path class="st13" d="M572.2,457.1c0,0,4.1,1.9,7,2.5c3,0.6,9.1-0.6,9.1-0.6c1.1-12.4,3.7-31.8,8.7-53.7
				c5.7-24.9,14.1-54.3,25.9-82.2c2.5-6,12.9-34.1,14.7-41.2c5.3-21.5,0-19.2,0-19.2l-46.6-5.5c0,0-5.7,3-8.4,33.3
				c-0.8,9.1-0.9,48.3-2.1,55.7c-1.1,7-2.5,12.9-4,16.7C567.8,384.3,572.2,457.1,572.2,457.1z"/>
			<path class="st20" d="M611.6,483.2c-0.3,1-2,2.9-6.4,4h-15.6c-1.2-0.2-2.2-0.4-4.1-0.3c-0.1,0-0.2,0-0.3,0c-0.1,0-0.2,0-0.4,0
				c-0.5,0-1,0.1-1.6,0.2c-0.2,0-0.5,0.1-0.7,0.1h-9.4c-0.4-0.1-0.7-0.2-1-0.3c0,0,0,0,0,0c-1.3-0.6-2.2-1.6-2.3-3.1
				c-0.1-1.5,0.1-3.1,0.4-4.6c0-0.2,0.1-0.4,0.1-0.5c4.7,0.7,11.4,3.3,17.9,3.9c7.4,0.7,13.4-2,14.7-2.6
				C607.7,481.1,612,482,611.6,483.2z"/>
			<path class="st20" d="M666.5,483c-0.3,1.1-2.3,3.2-7.4,4.2h-13.4c-1.8-0.3-2.8-0.7-5.2-0.5c-0.1,0-0.2,0-0.3,0
				c-0.1,0-0.2,0-0.4,0c-0.5,0-1,0.1-1.6,0.2c-1,0.1-2,0.2-2.9,0.3c-2.2,0.2-4.2,0.2-5.9,0c-0.8-0.1-1.6-0.3-2.3-0.5c0,0,0,0,0,0
				c-1.3-0.6-2.2-1.6-2.3-3.1c-0.1-1.5,0.1-3.1,0.4-4.6c0-0.2,0.1-0.4,0.1-0.5c4.7,0.7,11.4,3.3,17.9,3.9c7.4,0.7,13.4-2,14.7-2.6
				C662.6,480.9,666.9,481.8,666.5,483z"/>
			<path class="st21" d="M643.4,117.8c1.6-12.9-2.4-33.4-28.1-30.1c-25.7,3.3-33.7,28.5-28.6,39.7c5.2,11.2-7.4,13.9-11.4,26
				c-3.4,10.4-4.6,23.2-10.1,29c-17.8,18.6,17,47.2,38,41.2c38.2-11,43.1-12.6,41.8-42.7c-0.7-15.4-12.7-21.3-5.1-25.8
				C658.4,144.3,639.9,146.9,643.4,117.8z"/>
			<path class="st12" d="M605.7,151.5l7.1,18.3l15.3,0.7l7.6-11.4c-4.8-3.7-6.8-9.1-7.6-14c-0.6-3.9-0.4-7.5-0.3-9.4
				c0.1-1,0.2-1.6,0.2-1.6l-19-5.8l-0.1,0c-0.2,5-0.5,9-0.8,12.1C607.1,151.2,605.7,151.5,605.7,151.5z"/>
			<path class="st12" d="M635.7,150.8c-1,0-17.6-3.4-45.8,3.8c0,0,15.4,70.6,10.2,83.9c-5.2,13.3-7.2,25.1-7.2,25.1l56.8,0.7
				c0,0-0.8-45.7,1.8-61.8C654.1,186.4,635.7,150.8,635.7,150.8z"/>
			<path class="st17" d="M713.4,193.4c0,0-32.4,12.2-35.6,12.4c-7,0.5-14.1-33.3-20.7-44.6c-4.4-7.6-19.4-10.1-21.3-10.3
				c0,0-0.1,0-0.1,0c0,0,0,0,0,0c0,0-0.1,0-0.1,0l0,0.2c-0.1,1.5-1.4,13.1-7.9,14.2c-11.9,2-21.5-9-24.3-13.3l0,0c0,0,0,0,0,0
				c0,0-13.5,0.5-19.8,6.4c-7.1,6.6-17.6,46.9-20.5,66.5c0,0-14.3,27.2-18.8,38c0,0,0.9,1.5,2.6,2.6c1.7,1.1,3.7,1.5,3.7,1.5
				s25.8-28.8,27.5-33.3c0.8-2.2,6.9-12.1,13-26.1c2.1,6.8,3.4,13.7,2.7,22.1c-0.8,9.3-9.6,30.7-7.7,35.2c2,4.8,4.7,7.2,10.7,8.6
				c4.1,1,9.8,1.4,17.9,1.8c17.1,0.8,35.4-1.3,37.9-9.4c1.2-3.9,0.7-19,0.1-26c-0.8-9.2,0-20.9,0.8-31.6c0,0.1,0.1,0.1,0.1,0.2
				c1.9,2.8,4,5.9,6.2,8.7c3.3,4.2,6.7,8,9.6,9.6c0.7,0.4,1.4,0.7,2,0.9c2.2,0.5,6.3-0.7,11.2-2.8c1.7-0.8,3.6-1.6,5.4-2.6
				c13.5-6.8,29.5-17.5,29.5-17.5C718.8,198.4,713.4,193.4,713.4,193.4z"/>
			<path class="st22" d="M586.2,264.8c2,4.8,4.7,7.2,10.7,8.6c8-1.5,13.3-16.3,16.1-23.6c3.1-8.4-13.2-51.5-17.8-51.1
				c-3.4,0.3-4,5.8-4.1,8.6c2.2,6.8,3.5,13.8,2.7,22.3C593,238.9,584.3,260.3,586.2,264.8z"/>
			<path class="st22" d="M653.8,208.4c1.9,2.8,4,5.9,6.2,8.7c3.1,3.8,6.6,7.6,9.6,9.6c0.7,0.4,1.4,0.7,2,0.9
				c2.2,0.5,6.3-0.7,11.2-2.8c-2.9,0.2-5.7,0.1-8.5-0.1c-4.9-0.4-6.3-5.7-14.1-13.7C655.6,206.2,654.2,206.9,653.8,208.4z"/>
			<path class="st18" d="M609,128.3c2.9,4.7,9.8,14.4,19.1,16.7c-0.6-3.9-0.4-7.5-0.3-9.4c0.1-1,0.2-1.6,0.2-1.6L609,128.3z"/>
			<path class="st12" d="M633,135.4c0,0-22.8,4.6-25.5-9.7s-7.4-23.3,7.1-26.8c14.5-3.5,18.3,1.4,20.4,5.9
				C637,109.4,638.9,133.9,633,135.4z"/>
			<path class="st21" d="M621.8,95.3c0,0,0.4,4.8-7.1,13.1c-7.5,8.2-6.1,24.8-6.1,24.8s-12.3-25.8-5.6-33.4
				C609.9,92.3,621.8,95.3,621.8,95.3z"/>
			<path class="st21" d="M612.7,89c0,0,11.4-3.8,22.6,7.3c4.9,4.8,4.1,14.2,1.5,19.7c0,0-4-11.7-11.3-14.2
				C618.3,99.2,612.7,89,612.7,89z"/>
			<path class="st19" d="M625.9,128.4c0,0,0.6,1.7,4.9,0.9c0,0,3.6-0.6,3.3-2.5C634.1,126.8,630.4,125.8,625.9,128.4z"/>
		</g>
	</g>
	<path class="st23" d="M286.6,422.4H41.1c-3.4,0-6.2,2.7-6.2,6v0c0,3.3,2.8,6,6.2,6h5.7v49c0,2.1,1.8,3.8,4,3.8h23.2
		c2.2,0,4-1.7,4-3.8v-49H239v49c0,2.1,1.8,3.8,4,3.8h23.1c2.2,0,4-1.7,4-3.8v-49h16.5c3.4,0,6.2-2.7,6.2-6v0
		C292.9,425.1,290.1,422.4,286.6,422.4z"/>
	<g>
		<g>
			<path class="st24" d="M483.1,31.5h-60c-15.8,0-28.7,12.9-28.7,28.7v49.4c0,15.8,12.9,28.7,28.7,28.7h60
				c15.8,0,28.7-12.9,28.7-28.7V60.2C511.8,44.4,498.9,31.5,483.1,31.5z"/>
			<g>
				<path class="st5" d="M422.3,79.3c0,0-22.6,11.2-23,14l47.2,0.1c0,0,11.1-2.2,13.3-11C463.2,69.2,469,70,469,70l-0.3,23.5l6.7,0
					c0,0,10.1-34.9,10.1-41.8c0-6.9-2.8-8.8-2.8-8.8s-17.6,1.3-38.3,33.2C444.3,76.1,440.3,80,422.3,79.3z"/>
			</g>
			<g>
				<path class="st4" d="M440.3,100.4c0,0-20.1,15.2-20,18l46.4-8.5c0,0,10.5-4.2,11.1-13.3c0.9-13.6,6.8-13.9,6.8-13.9l4,23.1
					l6.6-1.2c0,0,3.5-36.2,2.3-43c-1.2-6.8-4.4-8.1-4.4-8.1s-17.1,4.5-31.6,39.6C461.3,93.2,458,97.8,440.3,100.4z"/>
				<path class="st2" d="M432.8,96.7c0,0,1.9,7-2,9.4c-3.7,2.3-7,2.7-7,2.7s11.3-0.6,13.9,9.3c0,0-3.4-10.5,6.8-12.8
					C444.4,105.4,437.2,108.3,432.8,96.7z"/>
			</g>
		</g>
		<g>
			
				<ellipse transform="matrix(0.9205 -0.3908 0.3908 0.9205 -39.6771 190.5431)" class="st24" cx="448.3" cy="192.8" rx="1.8" ry="1.8"/>
			
				<ellipse transform="matrix(0.9204 -0.3909 0.3909 0.9204 -33.3439 194.8386)" class="st24" cx="462" cy="179.3" rx="3.4" ry="3.4"/>
			
				<ellipse transform="matrix(0.9204 -0.3909 0.3909 0.9204 -23.7305 196.4424)" class="st24" cx="470.7" cy="156.5" rx="5.4" ry="5.4"/>
		</g>
	</g>
	<g>
		<g>
			<path class="st6" d="M157.4,198.5h-36.9c-9.7,0-17.7,7.9-17.7,17.7v30.4c0,9.7,7.9,17.7,17.7,17.7h36.9c9.7,0,17.7-7.9,17.7-17.7
				v-30.4C175,206.5,167.1,198.5,157.4,198.5z"/>
			<g>
				<g>
					<path class="st22" d="M134,219c0,2.7-0.8,4.9-2.5,6.8c-1.7,1.9-3.8,2.8-6.4,2.8c-2.6,0-4.7-0.9-6.4-2.8
						c-1.7-1.9-2.5-4.1-2.5-6.8c0-2.7,0.8-5.1,2.5-7c1.7-1.9,3.8-2.9,6.5-2.9c2.7,0,4.8,1,6.5,3C133.2,214,134,216.3,134,219z
						 M125.1,223.9c1.3,0,2.3-0.5,3.1-1.5c0.6-0.9,1-2,1-3.4c0-1.3-0.3-2.5-1-3.4c-0.7-1.1-1.7-1.6-3-1.6c-1.3,0-2.4,0.5-3.1,1.6
						c-0.6,0.9-1,2-1,3.5c0,1.3,0.4,2.4,1.1,3.4C122.9,223.4,123.9,223.9,125.1,223.9z M147.8,211.1c0,0.6-0.2,1.4-0.7,2.3
						l-9.6,19.8c-0.5,1.1-1.3,2.8-2.4,5c-1.3,2.7-3.3,6.8-5.9,12.3c-0.8,1.6-1.8,2.4-3.1,2.4c-0.7,0-1.3-0.2-1.8-0.7
						c-0.5-0.5-0.7-1.1-0.7-1.8c0-0.6,0.3-1.5,0.9-2.7l17.5-36.4c0.8-1.7,1.8-2.5,3-2.5C146.9,208.7,147.8,209.5,147.8,211.1z
						 M155.3,242.8c0,2.7-0.8,5-2.5,6.8c-1.7,1.9-3.8,2.8-6.4,2.8c-2.5,0-4.7-0.9-6.4-2.8c-1.7-1.9-2.5-4.2-2.5-6.8
						c0-2.8,0.8-5.1,2.5-7c1.6-1.9,3.8-2.8,6.5-2.8c2.7,0,4.9,0.9,6.5,2.8C154.5,237.6,155.3,240,155.3,242.8z M150.4,242.6
						c0-1.4-0.3-2.5-1-3.4c-0.8-1-1.8-1.5-3.1-1.5c-1.3,0-2.3,0.5-3,1.6c-0.6,0.9-1,2.1-1,3.4c0,1.3,0.3,2.4,1,3.3
						c0.8,1,1.7,1.6,3,1.6c1.3,0,2.3-0.5,3.1-1.6C150.1,245.2,150.4,244,150.4,242.6z"/>
				</g>
				<g>
					<path class="st19" d="M156.3,235.8c-1.6-1.9-3.8-2.8-6.5-2.8c-2.7,0-4.9,0.9-6.5,2.8c-1.6,1.9-2.5,4.2-2.5,7
						c0,2.6,0.8,4.9,2.5,6.8c1.7,1.9,3.8,2.8,6.4,2.8c2.6,0,4.8-0.9,6.4-2.8c1.7-1.9,2.5-4.1,2.5-6.8
						C158.7,240,157.9,237.6,156.3,235.8z M152.8,246.1c-0.8,1-1.8,1.6-3.1,1.6c-1.2,0-2.2-0.5-3-1.6c-0.7-0.9-1-2-1-3.3
						c0-1.4,0.3-2.5,1-3.4c0.7-1.1,1.7-1.6,3-1.6c1.3,0,2.3,0.5,3.1,1.5c0.6,0.9,1,2.1,1,3.4C153.8,244,153.4,245.2,152.8,246.1z"/>
					<path class="st19" d="M134.9,225.8c1.7-1.9,2.5-4.1,2.5-6.8c0-2.7-0.8-5-2.3-6.9c-1.7-2-3.8-3-6.5-3c-2.7,0-4.8,1-6.5,2.9
						c-1.7,1.9-2.5,4.2-2.5,7c0,2.7,0.8,4.9,2.5,6.8c1.7,1.9,3.8,2.8,6.4,2.8C131.1,228.7,133.3,227.7,134.9,225.8z M125.6,222.4
						c-0.7-1-1.1-2.1-1.1-3.4c0-1.4,0.3-2.6,1-3.5c0.7-1,1.7-1.6,3.1-1.6c1.3,0,2.3,0.5,3,1.6c0.6,0.9,1,2.1,1,3.4
						c0,1.4-0.3,2.5-1,3.4c-0.8,1-1.8,1.5-3.1,1.5C127.3,223.9,126.3,223.4,125.6,222.4z"/>
					<path class="st19" d="M150.5,213.4c0.5-1,0.7-1.7,0.7-2.3c0-1.5-1-2.3-2.8-2.3c-1.2,0-2.2,0.8-3,2.5l-17.5,36.4
						c-0.6,1.2-0.9,2.1-0.9,2.7c0,0.7,0.2,1.3,0.7,1.8c0.5,0.5,1.1,0.7,1.8,0.7c1.3,0,2.3-0.8,3.1-2.4c2.6-5.5,4.6-9.6,5.9-12.3
						c1.1-2.2,1.9-3.9,2.4-5L150.5,213.4z"/>
				</g>
			</g>
		</g>
		<g>
			
				<ellipse transform="matrix(0.9205 -0.3909 0.3909 0.9205 -105.6266 76.8518)" class="st6" cx="136" cy="297.9" rx="1.1" ry="1.1"/>
			
				<ellipse transform="matrix(0.9204 -0.3909 0.3909 0.9204 -101.7452 79.4896)" class="st6" cx="144.4" cy="289.7" rx="2.1" ry="2.1"/>
			
				<ellipse transform="matrix(0.9204 -0.3909 0.3909 0.9204 -95.8269 80.4669)" class="st6" cx="149.8" cy="275.6" rx="3.3" ry="3.3"/>
		</g>
	</g>
	<g>
		<path class="st24" d="M1159.9,173.7h-60.2c-15.8,0-28.8,13-28.8,28.8v49.6c0,15.8,13,28.8,28.8,28.8h60.2
			c15.8,0,28.8-13,28.8-28.8v-49.6C1188.7,186.7,1175.8,173.7,1159.9,173.7z"/>
		<g>
			
				<ellipse transform="matrix(0.9204 -0.3909 0.3909 0.9204 -41.7465 466.4636)" class="st24" cx="1125.1" cy="335.8" rx="1.8" ry="1.8"/>
			
				<ellipse transform="matrix(0.9204 -0.3909 0.3909 0.9204 -35.3922 470.7588)" class="st24" cx="1138.7" cy="322.3" rx="3.4" ry="3.4"/>
			
				<ellipse transform="matrix(0.9204 -0.3909 0.3909 0.9204 -25.7489 472.3718)" class="st24" cx="1147.5" cy="299.4" rx="5.4" ry="5.4"/>
		</g>
		<g>
			<path class="st17" d="M1173.3,211l-79.5-15.4c-1.5-0.3-3,0.7-3.3,2.2l-8.4,43.6c-0.3,1.5,0.7,3,2.2,3.3l79.5,15.4
				c1.5,0.3,3-0.7,3.3-2.2l8.4-43.6C1175.8,212.8,1174.8,211.3,1173.3,211z"/>
			
				<rect x="1126.3" y="172.2" transform="matrix(0.1898 -0.9818 0.9818 0.1898 704.9741 1285.2574)" class="st5" width="9.9" height="86.6"/>
			
				<rect x="1115" y="198.5" transform="matrix(0.1898 -0.9818 0.9818 0.1898 685.7473 1280.8392)" class="st25" width="7.8" height="53"/>
			<path class="st5" d="M1099.5,231.5l-6.5-1.2c-1.1-0.2-2.3,0.5-2.5,1.7l-1.1,5.6c-0.2,1.1,0.5,2.3,1.7,2.5l6.5,1.2
				c1.1,0.2,2.3-0.5,2.5-1.7l1.1-5.6C1101.4,232.8,1100.7,231.7,1099.5,231.5z"/>
			<g>
				<path class="st26" d="M1162.7,242.2l-51.1-9.9c-0.4-0.1-0.9,0.2-1,0.6l-0.2,0.8c-0.1,0.4,0.2,0.9,0.6,1l51.1,9.9
					c0.4,0.1,0.9-0.2,1-0.6l0.2-0.8C1163.4,242.7,1163.1,242.3,1162.7,242.2z"/>
				<path class="st26" d="M1161.8,246.7l-51.1-9.9c-0.4-0.1-0.9,0.2-0.9,0.6l-0.1,0.7c-0.1,0.4,0.2,0.9,0.6,0.9l51.1,9.9
					c0.4,0.1,0.9-0.2,0.9-0.6l0.1-0.7C1162.5,247.3,1162.2,246.8,1161.8,246.7z"/>
				<path class="st26" d="M1161,250.9l-51-9.9c-0.5-0.1-0.9,0.2-1,0.7l-0.2,0.8c-0.1,0.5,0.2,0.9,0.7,1l51,9.9
					c0.5,0.1,0.9-0.2,1-0.7l0.2-0.8C1161.7,251.5,1161.4,251,1161,250.9z"/>
			</g>
		</g>
	</g>
	<g>
		<polygon class="st27" points="24,437.1 65,437.1 70.2,488 36.1,488 		"/>
		<g>
			<g>
				<path class="st28" d="M50.8,442.6C50.8,442.6,50.7,442.6,50.8,442.6c-0.4,0-0.7-0.2-0.7-0.4c0.1-6.1-1.4-10-4.5-11.7
					c-1.3-0.7-2.8-1-4.6-0.9c-6.7,0.2-8.6,9.2-8.7,12.6c0,0.2-0.4,0.4-0.7,0.4c-0.4,0-0.7-0.2-0.7-0.4c0-0.5,0.7-13,10-13.3
					c2.2-0.1,4.1,0.3,5.6,1.1c3.5,1.8,5.1,5.8,5,12.2C51.4,442.5,51.1,442.6,50.8,442.6z"/>
			</g>
			<polygon class="st29" points="18.4,437.1 10.4,488 52.2,488 56.4,437.1 			"/>
			<g>
				<path class="st28" d="M46.8,442.6C46.8,442.6,46.8,442.6,46.8,442.6c-0.4,0-0.7-0.2-0.7-0.4c0.1-6.1-1.4-10-4.5-11.7
					c-1.3-0.7-2.8-1-4.6-0.9c-6.7,0.2-8.6,9.2-8.7,12.6c0,0.2-0.3,0.4-0.7,0.4c-0.4,0-0.7-0.2-0.7-0.4c0-0.5,0.7-13,10-13.3
					c2.2-0.1,4.1,0.3,5.6,1.1c3.5,1.8,5.1,5.8,5,12.2C47.5,442.5,47.2,442.6,46.8,442.6z"/>
			</g>
		</g>
	</g>
	<g>
		<polygon class="st5" points="163.2,387.7 199.6,387.7 204.2,422.5 173.9,422.5 		"/>
		<g>
			<g>
				<path class="st5" d="M186.9,391.5C186.9,391.5,186.9,391.5,186.9,391.5c-0.3,0-0.5-0.3-0.5-0.5c0.1-7.6-1.1-12.7-3.5-15.1
					c-1.2-1.2-2.8-1.7-4.7-1.6c-7.2,0.3-7.8,16.6-7.8,16.8c0,0.3-0.3,0.5-0.6,0.5c-0.3,0-0.5-0.3-0.5-0.6c0-0.7,0.6-17.5,8.8-17.9
					c2.2-0.1,4,0.6,5.5,2c2.7,2.6,4,7.9,3.9,15.9C187.5,391.3,187.2,391.5,186.9,391.5z"/>
			</g>
			<polygon class="st17" points="158.3,387.7 151.1,422.5 188.2,422.5 192,387.7 			"/>
			<g>
				<path class="st5" d="M166.3,391.5C166.3,391.5,166.3,391.5,166.3,391.5c-0.3,0-0.6-0.3-0.5-0.6c0-0.7,0.6-17.5,8.8-17.9
					c2.2-0.1,4,0.6,5.5,2c2.7,2.6,4,7.9,3.9,15.9c0,0.3-0.2,0.5-0.5,0.5c0,0,0,0,0,0c-0.3,0-0.5-0.3-0.5-0.5
					c0.1-7.6-1.1-12.7-3.5-15.1c-1.2-1.2-2.8-1.7-4.7-1.6c-3.7,0.2-5.6,4.7-6.6,8.4c-1.1,4.2-1.2,8.4-1.2,8.4
					C166.9,391.3,166.6,391.5,166.3,391.5z"/>
			</g>
		</g>
		<polygon class="st7" points="195.9,389 192.8,422.5 201.2,422.5 		"/>
	</g>
	<g>
		<path class="st30" d="M128.8,374.6c0,0,4.2-2.6,6-2.2c1.8,0.4,6.7,1.8,6.9,3.8c0.2,2-7.1,5.3-12.4,3.5
			C123.9,377.9,128.8,374.6,128.8,374.6z"/>
		<path class="st31" d="M106.7,483.1c0,0.9,0.5,1.5,1.2,2c0,0,0,0,0,0c1.4,0.8,3.7,0.2,6.4,0.1c0.3,0,0.9,0.7,1.2,0.7
			c0.1,0,0.1,0,0.2,0c0.1,0,0.1,0,0.2,0c2.7,0.1,2.4,0.9,7.5,1.3c5.8,0.5,7.9-1.3,8.3-2.1c0.3-0.7-2.2-1.5-5-2.3
			c-0.1,0-0.3-0.1-0.4-0.1c-0.4-0.1-0.7-0.2-1.1-0.4c-3.3-1.1-6.6-2.4-7.4-5.7c-0.9-3.5,1.7-13.5,1.7-13.5l-9.2-1
			c0,0-0.9,10.4-1.5,13.6c-0.3,1.7-1.1,3.1-1.5,4.6c0,0.1-0.1,0.2-0.1,0.3C107,481.3,106.7,482.2,106.7,483.1z"/>
		<g>
			<path class="st32" d="M106.7,483.1c0,0.9,0.5,1.5,1.2,2c0,0,0,0,0,0c2,1.3,5.7-0.5,11.6,2.2c0.3,0.1,2.2,0,3.6,0
				c1.8,0,4.4,0.1,5,0c2.8-0.5,3.2-1.8,3.4-2.3c0.3-0.7-2.2-1.5-5-2.3c-0.8,0.3-4.5,1.6-8.9,0.8c-3.9-0.7-7.7-2.6-10.5-3.3
				c0,0.1-0.1,0.2-0.1,0.3C107,481.3,106.7,482.2,106.7,483.1z"/>
			<polygon class="st32" points="107.7,484.7 109,487.2 112,487.2 112,485.4 			"/>
		</g>
		<path class="st21" d="M59.3,394.8L89,392c0,0,45.5,0.2,49.7,6.2c0,0,8.1,5.6-1.1,28.9c-9.2,23.3-20,46.5-20,46.5s-2.7,0.8-6.5,0.5
			c-1.5-0.1-3.5-0.6-3.5-0.6s2.1-34.7,6.7-48.2c4.6-13.5,6-10.9-2.1-10.1c-8.1,0.8-34.2,6.8-46.2,5.3
			C54,418.8,59.3,394.8,59.3,394.8z"/>
		<path class="st30" d="M222.4,483.1c0,0.9-0.5,1.5-1.2,2c0,0,0,0,0,0c-1.4,0.8-3.9,0.9-6.6,0.7c-0.3,0-0.7,0-0.9,0
			c-0.1,0-0.1,0-0.2,0c-0.1,0-0.1,0-0.2,0c-2.7,0.1-2.4,0.9-7.5,1.3c-5.8,0.5-7.9-1.3-8.3-2.1c-0.3-0.7,2.2-1.5,5-2.3
			c0.1,0,0.3-0.1,0.4-0.1c0.4-0.1,0.7-0.2,1.1-0.4c3.3-1.1,6.6-2.4,7.4-5.7c0.9-3.5-1.7-13.5-1.7-13.5l9.2-1c0,0,0.9,10.4,1.5,13.6
			c0.3,1.7,1.1,3.1,1.5,4.6c0,0.1,0.1,0.2,0.1,0.3C222.2,481.3,222.4,482.2,222.4,483.1z"/>
		<path class="st33" d="M222.4,483.1c0,0.9-0.5,1.5-1.2,2c0,0,0,0,0,0c-1.5,0.7-3.9,0.8-6.6,0.7c-0.3,0-0.7,0-0.9,0
			c-0.1,0-0.1,0-0.2,0c-0.1,0-0.1,0-0.2,0c-2.7,0.1-2.4,0.9-7.5,1.3c-5.8,0.5-7.9-1.3-8.3-2.1c-0.3-0.7,2.2-1.5,5-2.3
			c0.8,0.3,4.5,1.6,8.9,0.8c3.9-0.7,7.7-2.6,10.5-3.3c0,0.1,0.1,0.2,0.1,0.3C222.2,481.3,222.4,482.2,222.4,483.1z"/>
		<path class="st30" d="M101,483.1c0,0.9,0.5,1.5,1.2,2c0,0,0,0,0,0c1.4,0.8,3.7,0.2,6.4,0.1c0.3,0,0.9,0.7,1.2,0.7
			c0.1,0,0.1,0,0.2,0c0.1,0,0.1,0,0.2,0c2.7,0.1,2.4,0.9,7.5,1.3c5.8,0.5,7.9-1.3,8.3-2.1c0.3-0.7-2.2-1.5-5-2.3
			c-0.1,0-0.3-0.1-0.4-0.1c-0.4-0.1-0.7-0.2-1.1-0.4c-3.3-1.1-6.6-2.4-7.4-5.7c-0.9-3.5,1.7-13.5,1.7-13.5l-9.2-1
			c0,0-0.9,10.4-1.5,13.6c-0.3,1.7-1.1,3.1-1.5,4.6c0,0.1-0.1,0.2-0.1,0.3C101.3,481.3,101,482.2,101,483.1z"/>
		<path class="st30" d="M162.8,471.4c-0.5,2.5-4.1,2.1-8.2,1.1c-4.1-1-3.1,0.2-8.9-0.5c-5.8-0.6-7.5-2.8-7.7-3.7
			c-0.2-0.8,2.7-1,5.8-1.4c0.4,0,0.8-0.1,1.2-0.1c3.5-0.4,6-2.7,9.1-4.5c3-1.7,7.4-8.8,7.4-8.8l7.9,0.6c0,0-4.2,6.3-5.8,9.1
			c-0.9,1.6-0.9,3.7-0.8,5.4C163,469.6,163,470.5,162.8,471.4z"/>
		<path class="st33" d="M154.6,472.5c-4.1-1-3.1,0.2-8.9-0.5c-5.8-0.6-7.5-2.8-7.7-3.7c-0.2-0.8,2.7-1,5.8-1.4l0,0.1
			c0,0,3.5,2.5,8.3,2.6c3.9,0.1,8.1-1,10.8-1c0.1,0.9,0.1,1.8-0.1,2.7C162.3,473.9,158.7,473.5,154.6,472.5z"/>
		<path class="st34" d="M180.5,355c0,0-1.9-4.6-4-4.8c-2.1-0.2-8.7-1.2-9.2-0.3c-0.5,0.9,0,4.3,1.4,5.6c1.4,1.2,10.2,3.2,10.2,3.2
			L180.5,355z"/>
		<path class="st10" d="M193.2,420.7l17.1,45.9c0,0,2.6,0.3,5.1-0.5c2.3-0.7,5-2.4,5-2.4s-4.2-44.1-12-53.3
			C200.6,401.3,193.2,420.7,193.2,420.7z"/>
		<path class="st28" d="M260.7,402.1c0,0-49.1-16.6-60-13.1c-10.9,3.5-43.8,68.9-43.8,68.9s0.7,1,2.8,1.7c1.9,0.7,6.4,0.7,6.4,0.7
			s29.6-25.4,33.2-32.8c3.5-7.4,4.9-14.5,8.5-13.8c3.5,0.7,45.5,17.3,55.1,7.4c9.5-9.9,7-22.7,7-22.7L260.7,402.1z"/>
		<path class="st21" d="M230.7,325c-0.8-1.6-1.7-4.5-2.1-9.6c0.1,0.5,0.9,7,3.4,10.6c10.2,6.7,29.8,29.1,29.4,33.3
			c0,0,6.9-11.7,7-11.8c0,0,12.7-16.2-2.4-25.4c-7.7-4.7-7.6-10.7-7.3-16c0.3-5.2-2.1-27.8-17.4-21.9c0,0-2.5-1.1-3.6-0.9
			c0,0,0.9,0.2,1.4,0.6c-1.8-0.1-4.3,0-6.4,1.2C227.1,288.4,222.1,317,230.7,325z"/>
		<path class="st34" d="M232.7,326.3c-0.1,0,4.9,2.6,8.7,1.6c3.5-1,5.8-5.5,5.8-5.5c-1.5-0.3-1.9-2.3-1.9-11.2l-0.7,0.1l-11.3,2.2
			c0,0,0.3,3.6,0.3,6.9C233.5,323.3,233.3,326,232.7,326.3z"/>
		<path class="st35" d="M233.2,313.6c0,0,0.3,3.6,0.3,6.9c6.3-0.2,9.7-6,11.1-9.2L233.2,313.6z"/>
		<path class="st21" d="M245.7,310.1c0,0,3.3-5.3,4.1-9.7c0.6-3.2-1.1-15.1-13-13.4c0,0-3.5,0.3-6.7,2.5c-2.6,1.8-6.3,5.5-2.2,15.9
			l1.1,3.5L245.7,310.1z"/>
		<path class="st34" d="M231.1,316.8c0,0,15,0.2,15-9.1c0-9.3,2-15.6-7.6-16.2c-9.6-0.6-11.4,3-12.2,6.1
			C225.5,300.8,227.2,316.5,231.1,316.8z"/>
		<path class="st21" d="M231.7,291.3c0,0,4.1,11,10.4,12.6c6.3,1.6,9-0.1,9-0.1s-4.8-3.8-5.8-10.5
			C245.3,293.3,234.8,286.1,231.7,291.3z"/>
		<path class="st21" d="M232.7,292.2c0,0-3.1,2.4-3.8,4.8c-0.7,2.4-1.1,7.3-2.5,7.1c0,0-3.1-7.5,0.4-11.7
			C230.4,288,232.7,292.2,232.7,292.2z"/>
		<path class="st29" d="M266.1,366.7c1.5-6.2-3.6-18.3-8.8-28.2c-4.8-9-9.7-16.4-10.2-16.1c-12.6,7.5-13.7,1.3-13.7,1.3
			s-11.4,1.5-14.7,7.1c-4.5,7.7-9.3,30.8-14.1,30.5c-2.2-0.2-24.3-8.5-24.3-8.5s-3.7,3.5-3,7.7c0,0,10.9,7.3,20.2,12
			c4.9,2.5,9.3,4.2,11.4,3.7c4.2-1,10.8-10.7,14.3-16.5c0,0,0,0,0,0c4.5,25.7-1.6,31.5,1.5,34.2c3.3,2.9,8-1.4,18.4,3.1
			c6.8,2.9,16.2,7.2,22.6,7.9c3.3,0.4,5.8-0.2,6.6-2.4C274.6,395.9,263.3,378.5,266.1,366.7z"/>
		<path class="st19" d="M234.5,311.1c0,0-0.3,1.2-3.2,1c0,0-2.5-0.2-2.4-1.5C228.8,310.7,231.2,309.7,234.5,311.1z"/>
		<path class="st27" d="M272.2,402.4c-0.8,2.2-3.3,2.8-6.6,2.4c-4.4-1.9-23.4-9.3-23.1-14.2c0.3-7.4,3.6-7.6,1.3-16.7
			c-1.9-7.3,15.6-20.9,18.4-23.8c5.3,10,5.4,10.4,3.9,16.6C263.3,378.5,274.6,395.9,272.2,402.4z"/>
		<path class="st27" d="M223.2,359.6c-3.6,5.7-10.1,15.5-14.3,16.5c-2.1,0.5-6.5-1.2-11.4-3.7c3.6,0.9,7,0.9,10.4,0.6
			c3.6-0.4,4.7-4.8,10.5-11.5C222.1,357.1,223,358.2,223.2,359.6z"/>
		<g>
			<path class="st36" d="M239.5,380.3l-4.4-11c-0.1-0.4-0.6-0.6-1-0.6l-6.2,0.7c-0.2,0-0.4,0.1-0.4,0.3l0,0l-0.6,0.8l5.5,12.1
				l5.9-0.7l0.4-0.2l0.7-0.9l0,0C239.5,380.6,239.6,380.5,239.5,380.3z"/>
			<path class="st6" d="M238.8,381.2l-4.4-11c-0.1-0.4-0.6-0.6-1-0.6l-6.2,0.7c-0.4,0-0.6,0.4-0.5,0.7l4.4,11c0.1,0.4,0.6,0.6,1,0.6
				l6.2-0.7C238.8,381.8,239,381.5,238.8,381.2z"/>
			<path class="st36" d="M229.7,371c-0.1-0.2-0.3-0.3-0.5-0.3l-1.5,0.1c-0.2,0-0.3,0.2-0.3,0.4c0.1,0.2,0.3,0.3,0.5,0.3l1.5-0.1
				C229.7,371.4,229.8,371.2,229.7,371z"/>
		</g>
		<path class="st34" d="M240.8,373.7c0,0-3.2-2.5-6.2-1.9c-3,0.6-4.5,2.6-4.4,3.6c0.1,0.9,1.7,3.6,4,3.8c2.3,0.2,8.8-1.4,8.8-1.4
			L240.8,373.7z"/>
		<path class="st29" d="M247.1,322.4c0,0,12.2,0.8,16.5,6.7c6,8.3,16.3,42.3,13.5,50l-37.2-0.2c0,0-0.9-4.2,0.4-6.3
			c1.3-2,21.6-5.3,22.6-6.3c0.9-0.9-11.8-18.4-11.8-21.2C251.1,342.4,247.1,322.4,247.1,322.4z"/>
		<path class="st33" d="M55.2,396.9l27.9-2.4c0,0,45.5,0.2,49.7,6c0,0,6.9,4.3-2.3,26.8c-9.2,22.5-18.5,47.3-18.5,47.3
			s-2.1,0.3-4.5,0.1c-3.1-0.3-4.2-1.3-4.2-1.3s0.6-30.8,5.2-43.9c4.6-13.1,6.4-11.7-1.8-11c-8.1,0.7-30.9,6.4-46.7,3.4
			C48.2,419.8,55.2,396.9,55.2,396.9z"/>
		<path class="st8" d="M84.7,284.2c0,0-9.3-4.8-13.6,7.5c0,0,4.2-5.2,6.4-4.9C79.6,287,84.7,284.2,84.7,284.2z"/>
		<g>
			<path class="st10" d="M101,483.1c0,0.9,0.5,1.5,1.2,2c0,0,0,0,0,0c2,1.3,5.7-0.5,11.6,2.2c0.3,0.1,2.2,0,3.6,0c1.8,0,4.4,0.1,5,0
				c2.8-0.5,3.2-1.8,3.4-2.3c0.3-0.7-2.2-1.5-5-2.3c-0.8,0.3-4.5,1.6-8.9,0.8c-3.9-0.7-7.7-2.6-10.5-3.3c0,0.1-0.1,0.2-0.1,0.3
				C101.3,481.3,101,482.2,101,483.1z"/>
			<polygon class="st10" points="101.9,484.7 103.3,487.2 106.2,487.2 106.2,485.4 			"/>
		</g>
		<path class="st6" d="M130.8,380c0,0.3-0.1,0.5-0.2,0.7c-1.2,2.6-25.6,5.9-28.7,4.2c-1.4-0.7-3.4-13.1-5.1-26.5
			c-2.2-16.6-4.1-34.8-4.1-34.8s10.2,3.2,11.3,8.6c1.2,5.4,1.4,38.8,4.5,40.5c3.1,1.6,16,0.2,20.5,0.9
			C128.9,373.7,131.3,377.4,130.8,380z"/>
		<path class="st8" d="M93.3,285.2c-1.9-1.5-4.7-1.3-6.4-1.2c0.5-0.5,1.4-0.6,1.4-0.6c-1.1-0.2-3.6,0.9-3.6,0.9
			c-15.3-5.9-17.2,21.9-4,25.1C85.8,310.5,112.8,300.8,93.3,285.2z"/>
		<path class="st30" d="M93.4,326.3c0.1,0-4.9,2.6-8.7,1.6c-3.5-1-5.8-5.5-5.8-5.5c1.5-0.3,1.9-2.3,1.9-11.2l0.7,0.1l11.3,2.2
			c0,0-0.3,3.6-0.3,6.9C92.6,323.3,92.8,326,93.4,326.3z"/>
		<path class="st37" d="M92.9,313.6c0,0-0.3,3.6-0.3,6.9c-6.3-0.2-9.7-6-11.1-9.2L92.9,313.6z"/>
		<path class="st8" d="M80.4,310.1c0,0-3.3-5.3-4.1-9.7c-0.6-3.2,1.1-15.1,13-13.4c0,0,3.5,0.3,6.7,2.5c2.6,1.8,6.3,5.5,2.2,15.9
			l-1.1,3.5L80.4,310.1z"/>
		<path class="st30" d="M95,316.8c0,0-15,0.2-15-9.1c0-9.3-2-15.6,7.6-16.2c9.6-0.6,11.4,3,12.2,6.1
			C100.6,300.8,98.9,316.5,95,316.8z"/>
		<path class="st8" d="M94.4,291.3c0,0-4.1,11-10.4,12.6c-6.3,1.6-9-0.1-9-0.1s4.8-3.8,5.8-10.5C80.8,293.3,91.3,286.1,94.4,291.3z"
			/>
		<path class="st22" d="M98.6,337.5c-0.3-1.1,2-1.9,2.5-0.9c1,1.8,1.2,4,1.6,5.8c1.2,5.1,0,12.1,0,12.1L98.6,337.5z"/>
		<path class="st8" d="M93.4,292.2c0,0,3.1,2.4,3.8,4.8c0.7,2.4,1.1,7.3,2.5,7.1c0,0,3.1-7.5-0.4-11.7
			C95.7,288,93.4,292.2,93.4,292.2z"/>
		<path class="st19" d="M91.6,311.1c0,0,0.3,1.2,3.2,1c0,0,2.5-0.2,2.4-1.5C97.3,310.7,94.9,309.7,91.6,311.1z"/>
		<path class="st22" d="M130.8,380c0,0.3-0.1,0.5-0.2,0.7c-1.2,2.6-25.6,5.9-28.7,4.2c-1.4-0.7-3.8-16.1-2-29.8
			c1.8,7.8,2.4,23.9,6.7,24.7C111.5,380.7,124.4,379.1,130.8,380z"/>
		<path class="st6" d="M103.7,355.1c-6.1,29.3-1,33.8-4.2,36.7c0,0-2.8,1.2-2.8,1.2c-3.3,2.9-3.4-0.6-13.7,3.9
			c-4.9,2.1-11.3,5-16.8,6.6c-2.1,0.6-4,1.1-5.8,1.3c-3.3,0.4-5.8-0.2-6.6-2.4c-2.4-6.5,8.9-23.9,6.1-35.7c0-0.1,0-0.2-0.1-0.3
			c-0.2-1-0.2-2.2-0.1-3.5c0.5-6.6,4.7-16.2,9-24.4c4.8-9,9.7-16.4,10.2-16.1c12.6,7.5,13.7,1.3,13.7,1.3S105.8,345.1,103.7,355.1z"
			/>
		<path class="st22" d="M97.8,392.6C97.8,392.6,97.8,392.6,97.8,392.6c-3.3,2.9-4.4-0.2-14.7,4.3c-4.9,2.1-11.3,5-16.8,6.6
			c-2.5,0.8-4.5,1.2-5.8,1.3c-3.3,0.4-5.8-0.2-6.6-2.4c-2.4-6.5,8.9-23.9,6.1-35.7c0-0.1,4.1-14.3,8.3-22.2
			c0.1-5,23.8-0.5,18.8,28.7C85.5,382.1,96.5,385.7,97.8,392.6z"/>
		<path class="st30" d="M96.7,394.1c0,0,4.6-1.1,6.7-0.2s6.4,3.1,6,4.2c-0.4,1.2-5.4,1.8-7.5,0.6c-2.1-1.2-3.7,0.3-6.3-0.5
			C93.1,397.3,96.7,394.1,96.7,394.1z"/>
		<path class="st6" d="M79,322.4c0,0-17.1,0.2-20.1,8.5c-3.1,8.2-2.1,37.2,2.4,45.9c4.5,8.7,29.9,20.5,32.7,20.9
			c2.8,0.5,4.6-3.9,4.5-4.4c-0.1-0.5-26.7-22-26.6-24.2C71.9,366.8,79,322.4,79,322.4z"/>
		<g>
			<path class="st38" d="M140.1,365.8L140.1,365.8c-0.2-0.2-0.4-0.3-0.7-0.3l-8.5,0.9c-0.5,0.1-1,0.5-1.1,1l-2.6,16
				c0,0.3,0,0.5,0.2,0.6l0,0l1.2,1l0.6,0.1l8.1-0.8l3.8-17.8L140.1,365.8z"/>
			<path class="st33" d="M140.6,366.6l-8.5,0.9c-0.5,0.1-1,0.5-1.1,1l-2.6,16c-0.1,0.5,0.3,0.9,0.8,0.8l8.5-0.9c0.5-0.1,1-0.5,1.1-1
				l2.6-16C141.5,366.9,141.1,366.5,140.6,366.6z"/>
			<path class="st38" d="M140.2,367.4l-2,0.3c-0.3,0-0.6,0.3-0.6,0.6c0,0.3,0.2,0.5,0.5,0.5l2-0.3c0.3,0,0.6-0.3,0.6-0.6
				C140.7,367.6,140.5,367.4,140.2,367.4z"/>
		</g>
	</g>
	<g>
		<path class="st8" d="M1200.8,486.9c0,0,22.6,1.9,23.6-2.4c0.1-0.6,3.3-22,3.3-22l3.9-27.4c0,0-6.6-0.8-9.2,7
			c-2.6,7.8-10.2,20.3-21.5,23.6C1189.1,469.2,1200.8,486.9,1200.8,486.9z"/>
		<path class="st30" d="M1093.4,376.1l2,0.7c0,0,5.3-8.9,16.1-5.3c0,0,4.3,1.8,1.8,4.2c-2.6,2.4-1.9,1.1-5.5,4.5
			c-3.5,3.4-8.4,5.1-11.7,4l-3.7-1.3L1093.4,376.1z"/>
		<path class="st8" d="M1002.4,450.9c0,0,75.2-57.5,96.6-58.1c21.4-0.6,90.8,94.4,90.8,94.4h-26c0,0-45.8-24.4-61.9-47.6
			c-1.6-2.3-5.1-2.2-6.6,0.2c-8.3,13.3-30.1,46-44.2,47.4C1036.1,488.7,1002.4,450.9,1002.4,450.9z"/>
		<path class="st30" d="M1009.6,294.5c0,0-0.5,3.8-1.1,8.4c-0.8,6-1.9,13.5-2.6,15.9l-22.6,5.7l-1.7-16.5c0,0,5.7-11.4,5.6-27.5
			L1009.6,294.5z"/>
		<g>
			<path class="st0" d="M989.9,328.8l32.2,39.4l11.2,13.8c0,0,20.1,3.8,30.7,4.7c7.6,0.7,32-2.4,32-2.4l-0.7-7.3
				c0,0-15.1-6.4-22.3-7.9c-7.3-1.5-25.8-5.7-25.8-5.7c-7-2.5-33.6-36.9-33.6-36.9L989.9,328.8z"/>
		</g>
		<path class="st39" d="M968.9,469.5l65.8-5.4c0,0,0.2-1.3,0.5-3.5c0.1-0.7,0.1-1.4,0.2-2.1c0.2-6.6-2.4-15.4-3.5-24.1
			c-0.7-5.7-0.8-11.4,0.9-16.3c2-5.7,3-16.4,3.4-26.7c0.5-12.8,0.2-24.8,0.2-24.9c0.7-8.2-1.3-17.2-4.5-25.8
			c-6.4-17-18.4-26.6-24-32.3c0,0-6.9,1.7-24.7-3.7c-0.5-0.2-2.1,2.1-2.7,3.4c0,0-7.7,9.8-10.9,33.6
			C966.6,362.9,968.9,469.5,968.9,469.5z"/>
		<path class="st0" d="M985.4,351.3c0.1,3,26.6,87.3,23.4,93.5c-15.7,30.1,23.9,16.5,26,8.8c-0.8-5.2-1.9-29-0.1-36
			c1.5-5.8,1-16.1,1.4-26.3c-0.7-3.7-2.2-7.6-4.3-11.3C1022,378.4,984.4,328.1,985.4,351.3z"/>
		<g>
			<path class="st40" d="M1117,367.8l-8.2-5.6c-0.1,0-0.1-0.1-0.2-0.1l0,0l-1.5-0.6l-7.5,23.7l6.6,5.3l1.2,0.5c0,0,0,0,0,0l0,0l0,0
				c0.5,0.2,1.2-0.1,1.5-0.8l8.5-20.8C1117.6,368.7,1117.4,368.1,1117,367.8z"/>
			<path class="st41" d="M1115.6,367.2l-8.2-5.6c-0.6-0.4-1.4,0-1.7,0.7l-8.1,19.9c-0.2,0.6-0.1,1.2,0.3,1.5l7.8,6.5
				c0.5,0.5,1.4,0.1,1.7-0.7l8.5-20.8C1116.1,368.1,1116,367.5,1115.6,367.2z"/>
			<polygon class="st42" points="1099.1,381.2 1106.8,387.6 1114.5,368.7 1106.5,363.2 			"/>
			<path class="st40" d="M1101.8,384.6c-0.3-0.1-0.6,0.1-0.7,0.5c-0.1,0.4,0,0.8,0.3,0.9c0.3,0.1,0.6-0.1,0.7-0.5
				C1102.3,385.1,1102.1,384.7,1101.8,384.6z"/>
			<polygon class="st43" points="1106.8,364.5 1100.1,380.7 1106.7,385.9 1113.4,369.1 			"/>
			<polygon class="st44" points="1107.1,366.8 1102.3,378.2 1107,381.8 1111.6,370 			"/>
		</g>
		<path class="st30" d="M1094.3,387.6l4.1-0.1c0,0,4.1-8.6,13.6-4.5c0,0,3.8,2,1.7,4.2c-2.1,2.2-1.6,1-4.5,4.2
			c-2.9,3.2-6.9,4.6-9.8,3.4l-3.2-1.4L1094.3,387.6z"/>
		<path class="st39" d="M991.5,308.4c0,0,16.2,6.8,24.5,21.4c5.6,9.7,15.2,26.2,21,36.2c3.1,5.3,8.3,9.1,14.2,10.4l19.6,4.3
			l27.5,6.9c0,0,0.7,1.2,0.5,3.1c-0.2,2.7-2,3.3-2,3.3s-25.7,6.2-34.9,6.9c-22.5,1.7-33.2-1.3-36.5-2.5c-0.7-0.3-1.4-0.7-2-1.2
			c-3.5-2.8-16.7-13.9-23.7-24.5c-6.8-10.3-25.5-37.1-25.5-37.1L991.5,308.4z"/>
		<path class="st45" d="M968.9,444c0,0-6.9,43.2,13,43.2c19.9,0,219,0,219,0s6-4.1,6.5-11.9c0.4-8.3-2.2-11.2-2.2-11.2
			s-78.4-2.7-94.3-8.1C1031.1,429.4,968.9,444,968.9,444z"/>
		<path class="st37" d="M1009.6,294.5c0,0-0.5,3.8-1.1,8.4c-20.9-6.1-21.3-22.3-21.3-22.3L1009.6,294.5z"/>
		<path class="st30" d="M1012.9,295.7c0,0-25.4,0.8-25.7-15.1s-3.7-26.4,12.6-27.6s19.5,4.8,20.8,10.1
			C1022,268.4,1019.5,295.1,1012.9,295.7z"/>
		<path class="st45" d="M987.3,280.6c0,0,6.6-21.5,29.2-20.4c13.4,0.7,11.5-14.8,11.5-14.8s-17.9-4.1-32.4-0.1
			C970.7,252.2,985,277.2,987.3,280.6z"/>
	</g>
</g>
</svg>
