<?xml version="1.0" encoding="utf-8"?>
<!-- Generator: Adobe Illustrator 19.2.1, SVG Export Plug-In . SVG Version: 6.00 Build 0)  -->
<svg version="1.1" id="Layer_1" xmlns="http://www.w3.org/2000/svg" xmlns:xlink="http://www.w3.org/1999/xlink" x="0px" y="0px"
	 viewBox="0 0 1262 500" style="enable-background:new 0 0 1262 500;" xml:space="preserve">
<style type="text/css">
	.st0{fill:#0592F5;}
	.st1{fill:#1EB8FF;}
	.st2{fill:#FFFFFF;}
	.st3{fill:#005EE1;}
	.st4{fill:#C83C39;}
	.st5{fill:#ED7D2B;}
	.st6{fill:#9AB8DE;}
	.st7{fill:#545454;}
	.st8{fill:#B7B7B7;}
	.st9{opacity:0.5;}
	.st10{fill:#95C0F4;}
	.st11{fill:#0051B6;}
	.st12{fill:#CEDCEC;}
	.st13{fill:#FD615B;}
	.st14{clip-path:url(#SVGID_2_);}
	.st15{fill:#F99746;}
	.st16{fill:#434C56;}
	.st17{fill:#FCB88C;}
	.st18{fill:#FD896A;}
	.st19{fill:#F0ECE6;}
</style>
<g>
	<g>
		<g>
			<g>
				<g>
					<g>
						<g>
							<path class="st0" d="M720.8,61h45.8c2.5,0,4.6-2.1,4.6-4.6V16.1c0-2.5-2.1-4.6-4.6-4.6h-45.8c-2.5,0-4.6,2.1-4.6,4.6v40.3
								C716.2,58.9,718.3,61,720.8,61z"/>
						</g>
					</g>
				</g>
			</g>
			<g>
				<g>
					<g>
						<g>
							<path class="st1" d="M724.5,61h45.8c2.5,0,4.6-2.1,4.6-4.6V16.1c0-2.5-2.1-4.6-4.6-4.6h-45.8c-2.5,0-4.6,2.1-4.6,4.6v40.3
								C719.9,58.9,722,61,724.5,61z"/>
						</g>
					</g>
				</g>
			</g>
			<g>
				<g>
					<path class="st2" d="M735.4,30.4c-0.1,2.1,0.5,4.1,1.6,5.7c0.5,0.8,1.1,1.6,1.6,2.4l8.7,14.1l5.7-9.2c1.5-2.5,3.2-4.8,4.7-7.3
						c1.1-1.6,1.7-3.5,1.7-5.5c0-6.2-5.8-11.2-12.9-10.8C740.4,20.2,735.5,24.9,735.4,30.4z M742.3,29.4c0-2.5,2.3-4.6,5.1-4.6
						c2.8,0,5.1,2,5.1,4.6s-2.3,4.6-5.1,4.6C744.6,33.9,742.3,31.9,742.3,29.4z"/>
				</g>
			</g>
		</g>
		<g>
			<g>
				<g>
					<g>
						<g>
							<g>
								<path class="st3" d="M795.6,61.3H845c1.5,0,2.8-1.1,2.8-2.5V14.4c0-1.4-1.3-2.5-2.8-2.5h-49.4c-1.5,0-2.8,1.1-2.8,2.5v44.4
									C792.8,60.1,794.1,61.3,795.6,61.3z"/>
							</g>
						</g>
					</g>
				</g>
			</g>
			<g>
				<g>
					<g>
						<g>
							<g>
								<path class="st0" d="M799.3,61.3h49.4c1.5,0,2.8-1.1,2.8-2.5V14.4c0-1.4-1.3-2.5-2.8-2.5h-49.4c-1.5,0-2.8,1.1-2.8,2.5v44.4
									C796.5,60.1,797.8,61.3,799.3,61.3z"/>
							</g>
						</g>
					</g>
				</g>
			</g>
			<g>
				<g>
					<g>
						<g>
							<path class="st2" d="M806,36.6c0,9,8.1,16.2,18.1,16.2c10,0,18.1-7.3,18.1-16.2c0-9-8.1-16.2-18.1-16.2
								C814.1,20.3,806,27.6,806,36.6z M816.1,42.6c-0.6-1.8-0.9-3.7-1-5.7h8.2v5.7H816.1z M820.3,51.1c-4.6-0.9-8.5-3.5-10.8-7.3
								h5.5c0.8,1.9,1.8,3.7,3.1,5.2C818.8,49.8,819.6,50.5,820.3,51.1z M823.3,43.9l0,7.6c-0.5-0.3-2.3-1.3-4-3.3
								c-1.1-1.3-2-2.7-2.7-4.3H823.3z M817,28.6c1.9-3.8,4.8-6.2,5.7-6.9c0.2,0,0.4,0,0.6,0v6.9H817z M810,28.6
								c2.3-3.3,6-5.6,10.1-6.5c-0.8,0.8-1.6,1.6-2.3,2.5c-1,1.2-1.8,2.6-2.4,4H810z M815.1,35.6c0.1-1.9,0.5-3.9,1.3-5.7h6.9v5.7
								H815.1z M807.5,35.6c0.1-2,0.7-3.9,1.7-5.7h5.7c-0.7,1.8-1.1,3.8-1.2,5.7H807.5z M813.7,36.9c0,2,0.4,3.9,0.9,5.7h-5.8
								c-0.9-1.8-1.3-3.7-1.4-5.7H813.7z M834.2,36.9h6.4c0,2-0.5,3.9-1.4,5.7h-5.9C833.8,40.8,834.1,38.9,834.2,36.9z M824.7,28.6
								v-6.9c0.2,0,0.3,0,0.5,0c0.6,0.5,2.1,1.7,3.7,3.7c0.8,1,1.5,2.1,2,3.2H824.7z M831.5,29.9c0.7,1.8,1.2,3.8,1.3,5.7h-8v-5.7
								H831.5z M832.5,28.6c-0.6-1.4-1.5-2.7-2.4-4c-0.7-0.9-1.5-1.8-2.3-2.6c4.2,0.9,8,3.2,10.3,6.6H832.5z M832.7,36.9
								c0,2-0.4,3.9-1,5.7h-7v-5.7H832.7z M834.2,35.6c-0.1-1.9-0.5-3.8-1.2-5.7h5.8c1,1.8,1.6,3.7,1.7,5.7H834.2z M838.5,43.9
								c-2.3,3.7-6.4,6.4-11,7.3c0.8-0.6,1.5-1.3,2.2-2.1c1.3-1.5,2.4-3.3,3.1-5.2H838.5z M831.3,43.9c-2,4.7-5.4,6.9-6.5,7.5v-7.5
								H831.3z"/>
						</g>
					</g>
				</g>
			</g>
		</g>
		<g>
			<g>
				<g>
					<g>
						<g>
							<path class="st4" d="M875.8,61.3h45.8c2.5,0,4.6-2.1,4.6-4.6V16.4c0-2.5-2.1-4.6-4.6-4.6h-45.8c-2.5,0-4.6,2.1-4.6,4.6v40.3
								C871.2,59.2,873.3,61.3,875.8,61.3z"/>
						</g>
					</g>
				</g>
			</g>
			<g>
				<g>
					<g>
						<g>
							<path class="st5" d="M879.6,61.3h45.8c2.5,0,4.6-2.1,4.6-4.6V16.4c0-2.5-2.1-4.6-4.6-4.6h-45.8c-2.5,0-4.6,2.1-4.6,4.6v40.3
								C875,59.2,877,61.3,879.6,61.3z"/>
						</g>
					</g>
				</g>
			</g>
			<g>
				<g>
					<g>
						<path class="st2" d="M888.4,27.2c0.1-0.3,0.2-0.6,0.3-1c0.3-1.1,0.9-2.1,1.8-3c0.6-0.6,1.3-1.2,2.1-1.6
							c1.1-0.6,2.4-0.3,3.2,0.6c1.5,1.6,2.9,3.2,4.3,4.8c0.9,1,0.7,2.3-0.4,3.2c-0.8,0.6-1.6,1.2-2.4,1.8c-0.1,0.1-0.2,0.1-0.3,0.2
							c1.9,4.7,5.2,8.3,9.9,10.9c0.6-0.4,1.2-0.9,1.8-1.3c0.3-0.2,0.6-0.5,0.9-0.7c0.9-0.6,2-0.7,3-0.1c0.3,0.2,0.6,0.5,0.8,0.7
							c1.3,1.4,2.6,2.9,3.9,4.3c0.4,0.5,0.7,1,0.8,1.5c0,0.2,0,0.4-0.1,0.6c-0.2,0.4-0.4,0.8-0.7,1.1c-0.8,0.7-1.6,1.3-2.6,1.7
							c-1.2,0.5-2.4,0.8-3.7,0.7c-0.9-0.1-1.7-0.2-2.5-0.4c-2.1-0.5-4.1-1.4-5.9-2.5c-1.8-1.1-3.4-2.4-5-3.8c-2-1.9-3.8-4-5.5-6.2
							c-1.3-1.7-2.4-3.5-3.1-5.5c-0.4-1-0.6-2-0.7-3.1c0-0.4,0-0.8-0.1-1.3C888.3,28.2,888.4,27.7,888.4,27.2z"/>
					</g>
				</g>
			</g>
		</g>
	</g>
	<g>
		<g>
			<g>
				<g>
					<g>
						<path class="st6" d="M513.5,68.9c-0.5,0-1-0.1-1.6-0.2l-20.1-6.5h-67.4c-6,0-10.9-4.4-10.9-9.8V18.8c0-5.4,4.9-9.8,10.9-9.8
							h74.8c6,0,10.9,4.4,10.9,9.8v26.8l7.6,17.7c0.7,1.5,0.3,3.2-1,4.3C515.9,68.4,514.7,68.9,513.5,68.9z M424.5,12.5
							c-3.8,0-7,2.8-7,6.3v33.5c0,3.5,3.1,6.3,7,6.3h68l20.8,6.7c0.3,0.1,0.6,0,0.7-0.1c0.1-0.1,0.3-0.3,0.1-0.6l-7.9-18.3V18.8
							c0-3.5-3.1-6.3-7-6.3H424.5z"/>
					</g>
				</g>
			</g>
		</g>
		<g>
			<g>
				<g>
					<g>
						<g>
							<path class="st6" d="M480.8,44.1c-4.6,0-8.4-3.4-8.4-7.6s3.8-7.6,8.4-7.6c4.6,0,8.4,3.4,8.4,7.6S485.4,44.1,480.8,44.1z
								 M480.8,32.5c-2.5,0-4.5,1.8-4.5,4c0,2.2,2,4.1,4.5,4.1c2.5,0,4.5-1.8,4.5-4.1C485.3,34.3,483.3,32.5,480.8,32.5z"/>
						</g>
					</g>
				</g>
			</g>
			<g>
				<g>
					<g>
						<g>
							<path class="st6" d="M460.4,44.1c-4.6,0-8.4-3.4-8.4-7.6s3.8-7.6,8.4-7.6c4.6,0,8.4,3.4,8.4,7.6S465,44.1,460.4,44.1z
								 M460.4,32.5c-2.5,0-4.5,1.8-4.5,4c0,2.2,2,4.1,4.5,4.1c2.5,0,4.5-1.8,4.5-4.1C464.9,34.3,462.8,32.5,460.4,32.5z"/>
						</g>
					</g>
				</g>
			</g>
			<g>
				<g>
					<g>
						<g>
							<path class="st6" d="M439.9,44.1c-4.6,0-8.4-3.4-8.4-7.6s3.8-7.6,8.4-7.6c4.6,0,8.4,3.4,8.4,7.6S444.6,44.1,439.9,44.1z
								 M439.9,32.5c-2.5,0-4.5,1.8-4.5,4c0,2.2,2,4.1,4.5,4.1c2.5,0,4.5-1.8,4.5-4.1C444.4,34.3,442.4,32.5,439.9,32.5z"/>
						</g>
					</g>
				</g>
			</g>
		</g>
	</g>
</g>
<g>
	<g>
		<g>
			<g>
				<g>
					<g>
						<g>
							<g>
								<g>
									<g>
										<g>
											<path class="st7" d="M1002.7,96.6v374.8c0,11.9-9.7,21.6-21.6,21.6H278.8c-11.9,0-21.6-9.7-21.6-21.6V96.6
												c0-11.9,9.7-21.6,21.6-21.6h702.3C993,75,1002.7,84.7,1002.7,96.6z"/>
										</g>
									</g>
								</g>
							</g>
						</g>
					</g>
					<g>
						<g>
							<g>
								<path class="st8" d="M1002.7,421.2v50.2c0,11.9-9.7,21.6-21.6,21.6H278.8c-11.9,0-21.6-9.7-21.6-21.6v-50.2H1002.7z"/>
							</g>
						</g>
					</g>
					<g class="st9">
						<g>
							<g>
								<g>
									<g>
										<g>
											<path class="st2" d="M671.1,467.2h-82.3c-5.5,0-9.9-4.5-9.9-9.9V457c0-5.5,4.5-10,9.9-10h82.3c5.5,0,10,4.5,10,10v0.3
												C681.1,462.7,676.6,467.2,671.1,467.2z"/>
										</g>
									</g>
								</g>
							</g>
						</g>
					</g>
					<g>
						<g>
							<g>
								<g>
									<g>
										<path class="st10" d="M976.4,109.7v311.5H283.6V109.7c0-4.6,3.7-8.3,8.3-8.3H968C972.6,101.4,976.4,105.1,976.4,109.7z"/>
									</g>
								</g>
							</g>
						</g>
					</g>
					<g class="st9">
						<g>
							<g>
								<path class="st11" d="M976.4,271.4v120.3h-29.5c-2.3,0-4.1-1.8-4.1-4.1V275.5c0-2.3,1.8-4.1,4.1-4.1H976.4z"/>
							</g>
						</g>
					</g>
					<g>
						<g>
							<g>
								<rect x="283.4" y="393.1" class="st11" width="692.9" height="28.1"/>
							</g>
						</g>
					</g>
					<g>
						<g>
							<g>
								<g>
									<g>
										<g>
											<path class="st2" d="M976.4,109.7v28.9H283.6v-28.9c0-4.6,3.7-8.3,8.3-8.3H968C972.6,101.4,976.4,105.1,976.4,109.7z"/>
										</g>
									</g>
								</g>
							</g>
						</g>
						<g>
							<g>
								<path class="st12" d="M864.4,127.7H356.1c-1.9,0-3.4-1.6-3.4-3.5v-8.4c0-1.9,1.5-3.5,3.4-3.5h508.3c1.9,0,3.4,1.6,3.4,3.5
									v8.4C867.8,126.1,866.3,127.7,864.4,127.7z"/>
							</g>
						</g>
						<polygon class="st12" points="312.8,112 302,120.8 312.8,128 						"/>
						<polygon class="st12" points="321.7,112 332.5,120.8 321.7,128 						"/>
						<g>
							<g>
								<g>
									<g>
										<circle class="st11" cx="921.3" cy="120" r="7.7"/>
									</g>
								</g>
							</g>
							<g>
								<g>
									<g>
										<g>
											<circle class="st13" cx="897.9" cy="120" r="7.7"/>
										</g>
									</g>
								</g>
								<g>
									<g>
										<g>
											<circle cx="944.8" cy="120" r="7.7"/>
										</g>
									</g>
								</g>
							</g>
						</g>
					</g>
				</g>
				<g>
					<defs>
						<rect id="SVGID_1_" x="283.6" y="16" width="692.8" height="405.2"/>
					</defs>
					<clipPath id="SVGID_2_">
						<use xlink:href="#SVGID_1_"  style="overflow:visible;"/>
					</clipPath>
					<g class="st14">
						<g>
							<g>
								<g>
									<g>
										<g>
											<g>
												<g>
													<g>
														<g>
															<g>
																<path class="st2" d="M782,415.7c-30.1,0-50.6-8.1-62.3-24.5c-28-39.4-56.7-129.2-59.9-139.4
																	c-5.1-16.1,3.9-33.3,20-38.3c16.1-5.1,33.3,3.9,38.3,20v0c7.6,24.2,30.9,91.2,49.6,119.7c3,0.8,11.2,2.3,28.4,0.6
																	c13.5-1.3,24.7-3.9,24.8-3.9c16.4-3.8,32.9,6.4,36.7,22.9c3.8,16.4-6.4,32.9-22.9,36.7c-0.8,0.2-19.6,4.5-40.8,5.8
																	C789.9,415.5,785.9,415.7,782,415.7z"/>
															</g>
														</g>
													</g>
												</g>
											</g>
										</g>
									</g>
								</g>
								<g>
									<g>
										<g>
											<g>
												<g>
													<g>
														<g>
															<g>
																<g>
																	<g>
																		<g>
																			<g>
																				<g>
																					<g>
																						<path class="st2" d="M731.3,518.2c-14.4,13.4-35.9,24.6-60.9,31.7c-19.1,5.5-40.4,8.6-62,8.5
																							c-28.5-0.1-57.8-5.7-84.2-18.5c-8-21.8-16.8-99.7-19.1-123c-0.5-4.6-0.8-9.3-1.2-13.9
																							c-1.5-22.3-1.2-44.8-0.1-68.4c0.1-1.3,0.1-2.6,0.2-3.8c0.9-19.4,2.4-39.4,3.7-60.7
																							c2.7-42.2,16.7-68.2,41.2-72.1c11.4-1.8,20.4-5,27-8.1c0.8-0.4,1.6-0.8,2.3-1.1c7.9-4,12.4-7.6,12.4-7.6h54.6
																							c4.7,6.8,10.6,11.2,17,14.2c0.7,0.3,1.4,0.7,2.1,1c19.4,8.4,42,6.7,46.6,30.1c2.9,14.7-8.3,44.8-7.1,106
																							c0.1,4.5,0.2,9.1,0.5,14c0.2,4.5,0.5,9.2,0.9,14c0.3,4.5,0.7,9.1,1.2,13.9c0.4,4.2,0.9,8.5,1.4,12.8
																							c0.5,4.5,1.1,9.1,1.8,13.9C713.2,426.2,723,485.5,731.3,518.2z"/>
																					</g>
																				</g>
																			</g>
																		</g>
																	</g>
																</g>
															</g>
														</g>
													</g>
												</g>
											</g>
										</g>
									</g>
								</g>
								<g>
									<g>
										<g>
											<g>
												<g>
													<g>
														<g>
															<g>
																<g>
																	<path class="st12" d="M571.6,189c0,0-15.1,2.9-21,8.6l7.5,35.1l17.9,10l-15.4,4.4l5.4,74.1l25.1,20.1l-7.1-125.9
																		C583.9,215.5,581.2,201.9,571.6,189z"/>
																</g>
															</g>
														</g>
													</g>
												</g>
											</g>
										</g>
									</g>
								</g>
								<g>
									<g>
										<g>
											<g>
												<g>
													<path class="st12" d="M665.7,195.2c0,0,13.1,1.4,19.3,6.9l-6.1,27.2l-12.2,12.9l10.3,4.6l-1.5,73.9l-16.8,21.5
														l-5.7-114.4C652.9,227.8,659.4,207.5,665.7,195.2z"/>
												</g>
											</g>
										</g>
									</g>
								</g>
								<g>
									<g>
										<g>
											<g>
												<g>
													<g>
														<g>
															<g>
																<g>
																	<path class="st2" d="M743.6,561.7c-1.3-4.5-2.5-9-3.7-13.6c-0.3-0.9-0.5-1.9-0.8-2.9c-0.6-2.3-1.2-4.6-1.8-6.9
																		c-0.3-0.9-0.5-1.9-0.7-2.9c-7.6-29.3-14.6-59.9-19.8-90.1l-46.2,104.4c0,0,0.2,4.4,0.5,11.8H743.6z"/>
																</g>
															</g>
														</g>
													</g>
												</g>
											</g>
										</g>
									</g>
								</g>
								<g>
									<g>
										<g>
											<g>
												<g>
													<g>
														<g>
															<g>
																<g>
																	<path class="st12" d="M680.4,561.7c-7-114.8-11.6-233.9-11.7-235.8c0-0.8-0.7-1.4-1.5-1.4c-0.8,0-1.4,0.7-1.4,1.5
																		c0.1,1.9,4.6,120.8,11.7,235.7H680.4z"/>
																</g>
															</g>
														</g>
													</g>
												</g>
											</g>
										</g>
									</g>
								</g>
								<g>
									<g>
										<g>
											<g>
												<g>
													<g>
														<g>
															<g>
																<g>
																	<path class="st12" d="M687.1,742.6c-0.8,0-1.5-0.6-1.5-1.5c0-0.8,0.6-1.5,1.5-1.5c0.6,0,63.3-1.1,107.4-22.5
																		c0.7-0.4,1.6-0.1,2,0.7c0.4,0.7,0.1,1.6-0.7,2C751.1,741.5,687.8,742.6,687.1,742.6
																		C687.1,742.6,687.1,742.6,687.1,742.6z"/>
																</g>
															</g>
														</g>
													</g>
												</g>
											</g>
										</g>
									</g>
								</g>
								<g>
									<g>
										<g>
											<g>
												<g>
													<g>
														<g>
															<g>
																<g>
																	<path class="st15" d="M670.5,549.9c-19.1,5.5-40.4,8.6-62,8.5c-0.1-0.2-0.2-0.3-0.2-0.3s-11.6-116.1-13.5-158.5
																		c-1.8-42.2-13.3-180.1-13.4-181.3c0,0,0,0,0,0c0.9-0.9,1.7-1.8,2.5-2.6c4.2,7,9.1,14,14.4,18.7l23.1-31.4
																		c0.3-0.5,0.9-0.7,1.4-0.7c0.6,0,1.1,0.3,1.4,0.7l21.6,30.6c1.1-2.1,3-5.4,5.1-9.4c1.3,2.2,2,3.7,2,3.7v0
																		L670.5,549.9z"/>
																</g>
															</g>
														</g>
													</g>
												</g>
											</g>
										</g>
									</g>
								</g>
								<g>
									<g>
										<g>
											<g>
												<g>
													<g>
														<g>
															<g>
																<g>
																	<g>
																		<path class="st12" d="M708.6,359.5c-1.7-32.2-1.7-70.7-1.7-71.2c0-1-0.8-1.8-1.8-1.8c-1,0-1.8,0.8-1.8,1.8
																			c0,0.5,0,39,1.7,71.2H708.6z"/>
																	</g>
																</g>
															</g>
														</g>
													</g>
												</g>
											</g>
										</g>
									</g>
								</g>
								<g>
									<g>
										<g>
											<g>
												<g>
													<g>
														<g>
															<g>
																<g>
																	<g>
																		
																			<ellipse transform="matrix(8.516639e-02 -0.9964 0.9964 8.516639e-02 80.3038 1092.1952)" class="st3" cx="634.9" cy="502.4" rx="4.1" ry="4.1"/>
																	</g>
																</g>
															</g>
														</g>
													</g>
												</g>
											</g>
										</g>
									</g>
								</g>
								<g>
									<g>
										<g>
											<g>
												<g>
													<g>
														<g>
															<g>
																<g>
																	<g>
																		<path class="st3" d="M640.9,525.8c0.4,3-2.4,5.4-5.4,4.5c-1.5-0.5-2.6-1.8-2.8-3.3c-0.4-3,2.4-5.4,5.4-4.5
																			C639.6,522.9,640.7,524.3,640.9,525.8z"/>
																	</g>
																</g>
															</g>
														</g>
													</g>
												</g>
											</g>
										</g>
									</g>
								</g>
							</g>
							<g>
								<g>
									<g>
										<g>
											<g>
												<g>
													<g>
														<g>
															<g>
																<path d="M677.6,48.1c0,0,7.1,8.5,6.2,17.7c0,0,4.2,10.1,2.3,18.5c-1.9,8.3-7,18.9-7,18.9s-4-40.4-13-43.1
																	c-9-2.7-19.7-10.4-19.7-10.4S652,39.3,677.6,48.1z"/>
															</g>
														</g>
													</g>
												</g>
											</g>
										</g>
									</g>
									<g>
										<g>
											<g>
												<g>
													<g>
														<path d="M685.3,53.3c0,0,13.5,10.9,0,21.9C671.8,86.2,685.3,53.3,685.3,53.3z"/>
													</g>
												</g>
											</g>
										</g>
									</g>
									<g>
										<g>
											<g>
												<g>
													<g>
														<g>
															<g>
																<path d="M578.7,74.3c0,0-3.9,9.5,0.2,14.7c4.1,5.2-1.4,12.7,4.2,17.8c5.6,5.1,15.3,3,15.3,3s6.4-49.7,11.2-54
																	C609.6,55.7,593.1,54.6,578.7,74.3z"/>
															</g>
														</g>
													</g>
												</g>
											</g>
										</g>
									</g>
									<g>
										<g>
											<g>
												<g>
													<g>
														<path d="M584.8,74c0,0-6.6-19-3.3-26.3C584.8,40.4,595,40,595,40s4.7-19,27.4-18.2c22.6,0.7,63.5,13.1,77,2.9
															c0,0,4.4,35.4-14.2,37.2C666.5,63.7,604.7,49.5,584.8,74z"/>
													</g>
												</g>
											</g>
										</g>
									</g>
									<g>
										<g>
											<g>
												<g>
													<g>
														<g>
															<path class="st16" d="M600.1,47.3c-0.1,0-0.1,0-0.2,0c-0.4-0.1-0.6-0.4-0.5-0.8c0-0.2,4.2-16.5,19.7-17.8
																c8.8-0.8,18.5,0.8,28,2.3c10.9,1.7,22.2,3.5,32.1,1.8c0.4-0.1,0.7,0.2,0.8,0.5c0.1,0.4-0.2,0.7-0.5,0.8
																c-10.1,1.8-21.5,0-32.6-1.8c-9.4-1.5-19.1-3-27.7-2.2c-14.6,1.3-18.5,16.7-18.6,16.8
																C600.7,47.1,600.4,47.3,600.1,47.3z"/>
														</g>
													</g>
												</g>
											</g>
										</g>
									</g>
									<g>
										<g>
											<g>
												<g>
													<g>
														<g>
															<g>
																<g>
																	<g>
																		<g>
																			<g>
																				<g>
																					<g>
																						<path class="st17" d="M648.3,169.1l-1.1,14.4c-1.8,1.2-3.8,1.9-5.4,3.2c-28.3,22.8-51.5-7.6-51.5-7.6
																							l3.9-49.8l47.7,35.1L648.3,169.1z"/>
																					</g>
																				</g>
																			</g>
																		</g>
																	</g>
																</g>
															</g>
														</g>
													</g>
												</g>
											</g>
										</g>
										<g>
											<g>
												<g>
													<g>
														<g>
															<g>
																<g>
																	<g>
																		<g>
																			<g>
																				<g>
																					<g>
																						<path d="M648.3,168.7l-1.1,14.8c-1.8,1.2-3.6,2.3-5.4,3.2c-20.6-10.1-34.3-33.5-34.3-33.5l34.3,11.3
																							L648.3,168.7z"/>
																					</g>
																				</g>
																			</g>
																		</g>
																	</g>
																</g>
															</g>
														</g>
													</g>
												</g>
											</g>
										</g>
									</g>
									<g>
										<g>
											<g>
												<g>
													<g>
														<g>
															<g>
																<g>
																	<g>
																		<g>
																			<g>
																				<g>
																					<path class="st18" d="M671.2,106.9c0,0,8.9-9,12.8,1c3.9,10-1.2,29.2-13.4,25.1L671.2,106.9z"/>
																				</g>
																			</g>
																		</g>
																	</g>
																</g>
															</g>
														</g>
													</g>
												</g>
											</g>
										</g>
									</g>
									<g>
										<g>
											<g>
												<g>
													<g>
														<g>
															<path class="st17" d="M677.2,141.4c0,0-2.3,29.7-33.1,27.2c-30.7-2.4-49.7-28.2-50.7-29.4c0,0,0,0,0,0l0.1-6.3
																l0.8-32.5l0.4-17.4c0,0-1.5-31.5,28.6-34.8c22-2.5,42,2.7,51.3,14.8c0.3,0.4,0.6,0.8,0.9,1.2c2.9,4.2,4.6,9.2,4.7,15
																l-1.5,31.2l-0.4,7.6L677.2,141.4z"/>
														</g>
													</g>
												</g>
											</g>
										</g>
									</g>
									<g>
										<g>
											<g>
												<g>
													<g>
														<path d="M652.6,115.7c-0.3,0-0.6-0.1-0.8-0.4c-0.4-0.5-0.3-1.2,0.2-1.5l6.2-5l-5.1-5.3c-0.2-0.2-0.3-0.4-0.3-0.7
															l-0.5-12.3c0-0.6,0.4-1.1,1-1.1c0.6,0,1.1,0.4,1.1,1l0.5,11.9l5.6,5.9c0.2,0.2,0.3,0.5,0.3,0.8c0,0.3-0.2,0.6-0.4,0.8
															l-7.1,5.7C653.1,115.7,652.9,115.7,652.6,115.7z"/>
													</g>
												</g>
											</g>
										</g>
									</g>
									<g>
										<g>
											<g>
												<g>
													<g>
														<path d="M647.7,82.5c-1.2-1.9-3.1-3.2-5.3-3.9c-3.5-1-9.8-2.1-15.3,0.5c-8,3.9-3.9,10,5.2,9.8
															c9-0.2,13.3-0.3,15.7-2.7C649,85.2,648.5,83.8,647.7,82.5z"/>
													</g>
												</g>
											</g>
										</g>
									</g>
									<g>
										<g>
											<g>
												<g>
													<g>
														<path d="M658.3,83.2c1.2-2.3,3.5-2.9,5.7-3.2c3.6-0.5,10.1-0.6,15.1,2.8c7.3,5,2.3,10.4-6.6,8.9
															c-8.9-1.5-11.9-1.2-13.9-3.9C657.8,86.7,657.6,84.5,658.3,83.2z"/>
													</g>
												</g>
											</g>
										</g>
									</g>
									<g>
										<g>
											<g>
												<g>
													<g>
														<g>
															<g>
																<g>
																	<g>
																		<g>
																			<g>
																				<g>
																					
																						<ellipse transform="matrix(7.757351e-02 -0.997 0.997 7.757351e-02 469.5812 727.9459)" class="st18" cx="628.2" cy="110.2" rx="3.9" ry="10"/>
																				</g>
																			</g>
																		</g>
																	</g>
																</g>
															</g>
														</g>
													</g>
												</g>
											</g>
										</g>
									</g>
									<g>
										<g>
											<g>
												<g>
													<g>
														<g>
															<g>
																<g>
																	<g>
																		<g>
																			<g>
																				<g>
																					<path class="st18" d="M678.3,117.9c-0.8,0-1.6,0-2.4-0.1c-5.5-0.4-9.8-2.5-9.6-4.7c0.2-2.2,4.8-3.6,10.2-3.1
																						c0.7,0.1,1.5,0.1,2.2,0.3L678.3,117.9z"/>
																				</g>
																			</g>
																		</g>
																	</g>
																</g>
															</g>
														</g>
													</g>
												</g>
											</g>
										</g>
									</g>
									<g>
										<g>
											<g>
												<g>
													<g>
														<g>
															<g>
																<g>
																	<path d="M607.1,99.2c0,0,7.7,19.5,17.7,16.8c10-2.6,21.7-2.1,30.5,2.4c0,0,15.2-8.4,23.9-1.9
																		c5.9,4.4,0.7,46.4-20.7,51.6c-21.4,5.2-49.4-4.1-55.6-24.3c-6.3-20.2-5.3-37.3-5.3-37.3L607.1,99.2z"/>
																</g>
															</g>
														</g>
													</g>
												</g>
											</g>
										</g>
									</g>
									<g>
										<g>
											<g>
												<g>
													<g>
														<g>
															<g>
																<path class="st16" d="M653.6,141c-0.1-0.5-0.6-0.8-1.1-0.7c-4.3,0.7-8.1-0.7-8.4-0.8c-0.5-0.2-1.1,0-1.3,0.6
																	c-0.2,0.5,0,1.1,0.6,1.3c0.3,0.1,4.5,1.8,9.4,1C653.3,142.2,653.7,141.6,653.6,141L653.6,141z"/>
															</g>
														</g>
													</g>
												</g>
											</g>
										</g>
									</g>
									<path class="st2" d="M634.2,123.7c0,0,18.7,2.3,30.4,1.9c0,0-2.1,12.1-15.2,11.8C637.1,137,634.2,123.7,634.2,123.7z"/>
									<g>
										<g>
											<g>
												<g>
													<g>
														<g>
															<g>
																<g>
																	<g>
																		<g>
																			<g>
																				<g>
																					<path d="M675.4,64.2c-4.7-2.1-8.3-0.8-16.1,2c-11.3,3.9-23.1-1.3-33.5-7.7c-10.4-6.3-17.4,0.8-14.1,6.1
																						c3.3,5.3,2.6,9.4-2,15.5c-4.6,6.1,7,10,0.1,14.5c-2.9,1.9-3,5.1-2.1,8.1c1,3.3-2.1,6.4-5.5,5.5l0,0
																						c-3.4-1.2-7.9-7.8-7.9-7.8l0.4-17.4c0,0-1.5-31.5,28.6-34.8c22-2.5,42,2.7,51.3,14.8
																						C674.9,63.4,675.2,63.8,675.4,64.2z"/>
																				</g>
																			</g>
																		</g>
																	</g>
																</g>
															</g>
														</g>
													</g>
												</g>
											</g>
										</g>
									</g>
									<g>
										<g>
											<g>
												<g>
													<g>
														<g>
															<path class="st16" d="M667.7,58.1c-13.5,0-27.7-3.2-28.5-3.4c-0.4-0.1-0.6-0.4-0.5-0.8c0.1-0.4,0.4-0.6,0.8-0.5
																c0.3,0.1,31.8,7.2,45.5,0.4c9-4.5,9.7-16.6,9.7-16.8c0-0.4,0.3-0.6,0.7-0.6c0.4,0,0.6,0.3,0.6,0.7
																c0,0.5-0.7,13-10.4,17.9C680.9,57.3,674.4,58.1,667.7,58.1z"/>
														</g>
													</g>
												</g>
											</g>
										</g>
									</g>
									<g>
										<g>
											<g>
												<g>
													<g>
														<g>
															<g>
																<g>
																	<g>
																		<g>
																			<g>
																				<g>
																					
																						<ellipse transform="matrix(7.755083e-02 -0.997 0.997 7.755083e-02 484.3461 724.5104)" cx="633.7" cy="100.5" rx="5.4" ry="3"/>
																				</g>
																			</g>
																		</g>
																	</g>
																</g>
															</g>
														</g>
													</g>
												</g>
											</g>
										</g>
									</g>
									<g>
										<g>
											<g>
												<g>
													<g>
														<g>
															<g>
																<g>
																	<g>
																		<g>
																			<g>
																				<g>
																					
																						<ellipse transform="matrix(7.751980e-02 -0.997 0.997 7.751980e-02 510.0441 756.0029)" cx="663.6" cy="102.4" rx="5.4" ry="3"/>
																				</g>
																			</g>
																		</g>
																	</g>
																</g>
															</g>
														</g>
													</g>
												</g>
											</g>
										</g>
									</g>
									<g>
										<g>
											<g>
												<g>
													<g>
														<g>
															<g>
																<g>
																	<g>
																		<g>
																			<g>
																				<g>
																					<path d="M604,127.9c-0.2,0.3-4.8,9.1-10.6,11.3c0,0,0,0,0,0l0.2-6.3C593.5,132.9,598.5,132.5,604,127.9z"/>
																				</g>
																			</g>
																		</g>
																	</g>
																</g>
															</g>
														</g>
													</g>
												</g>
											</g>
										</g>
									</g>
									<g>
										<g>
											<g>
												<g>
													<g>
														<g>
															<g>
																<g>
																	<g>
																		<g>
																			<g>
																				<g>
																					<path class="st17" d="M600.2,106.9c0,0-10.6-16.9-20.3-5c-8,9.8,3.5,37.7,18.4,29.6L600.2,106.9z"/>
																				</g>
																			</g>
																		</g>
																	</g>
																</g>
															</g>
														</g>
													</g>
												</g>
											</g>
										</g>
									</g>
									<g>
										<g>
											<g>
												<g>
													<g>
														<g>
															<g>
																<g>
																	<g>
																		<g>
																			<g>
																				<g>
																					<path d="M597,126.6c-0.6,0-1.1-0.6-1.1-1.2c-0.4-12.2-10.2-17.2-10.6-17.4c-0.6-0.3-0.9-1-0.6-1.6
																						c0.3-0.6,1-0.9,1.6-0.6c0.5,0.2,11.5,5.8,11.9,19.5c0,0.7-0.5,1.2-1.2,1.3C597.1,126.6,597,126.6,597,126.6z"
																						/>
																				</g>
																			</g>
																		</g>
																	</g>
																</g>
															</g>
														</g>
													</g>
												</g>
											</g>
										</g>
									</g>
									<g>
										<g>
											<g>
												<g>
													<g>
														<g>
															<g>
																<g>
																	<g>
																		<g>
																			<g>
																				<g>
																					<path d="M586.2,118.3c-0.4,0-0.7-0.2-0.9-0.5c-0.4-0.6-0.2-1.3,0.3-1.7c0.5-0.4,5.2-3.5,8.8-2.2
																						c0.6,0.2,1,0.9,0.8,1.6c-0.2,0.6-0.9,1-1.6,0.8c-2.1-0.7-5.4,1.2-6.6,1.9C586.7,118.2,586.4,118.3,586.2,118.3
																						z"/>
																				</g>
																			</g>
																		</g>
																	</g>
																</g>
															</g>
														</g>
													</g>
												</g>
											</g>
										</g>
									</g>
								</g>
								<g>
									<g>
										<g>
											<g>
												<g>
													<g>
														<g>
															<g>
																<g>
																	<path class="st15" d="M591,169.9c0,0-16,4.3-20.5,22.8c8.5,14.5,9.9,29.6,27.8,41.5c13.2-14,27.4-28.2,24.6-39.6
																		C622.8,194.6,602.7,188,591,169.9z"/>
																</g>
															</g>
														</g>
													</g>
												</g>
											</g>
										</g>
									</g>
								</g>
								<g>
									<g>
										<g>
											<g>
												<g>
													<g>
														<path class="st15" d="M648.5,176.3c0,0,13.3,3.1,18.9,21.6c-5.1,13.7-11.4,25-21.3,36.9l-22.5-29.2l0-11.1
															C623.6,194.6,636.7,194.4,648.5,176.3z"/>
													</g>
												</g>
											</g>
										</g>
									</g>
								</g>
								<g>
									<g>
										<g>
											<g>
												<g>
													<g>
														<g>
															<g>
																<g>
																	<g>
																		<polygon points="658.7,429.6 649.8,452.4 649.8,452.4 645.8,462.7 634.5,491.7 628.5,480.7 626.4,476.8 
																			621.6,468 619.4,464.1 614.6,455.3 612.5,451.4 607.7,442.6 607.7,442.6 605.6,438.7 601.1,430.5 601.2,429.6 
																			601.7,422.9 602.9,407.8 603.4,401.2 604.7,386.1 605.2,379.4 606.4,364.3 606.9,357.7 608.1,342.6 608.7,336 
																			609.9,320.9 610.4,314.2 611.6,299.1 612.2,292.5 613.4,277.4 613.9,270.7 615.1,255.7 615.7,249 616.9,233.4 
																			628.4,232.7 628.8,235.3 629.6,240.6 631.4,252.5 632.2,257.7 634.1,269.6 634.9,274.9 636.7,286.8 637.5,292 
																			639.3,303.9 640.2,309.2 642,321.1 642.8,326.4 644.6,338.3 645.4,343.5 647.3,355.4 648.1,360.7 649.9,372.6 
																			650.7,377.9 652.5,389.8 653.3,395 655.2,406.9 656,412.2 657.8,424.1 658.6,429.3 																		"/>
																	</g>
																</g>
															</g>
														</g>
													</g>
												</g>
											</g>
										</g>
									</g>
									<g>
										<g>
											<g>
												<g>
													<g>
														<g>
															<g>
																<g>
																	<polygon points="607.5,222.9 622.8,245.7 637.6,222.9 622.8,203.9 																	"/>
																</g>
															</g>
														</g>
													</g>
												</g>
											</g>
										</g>
									</g>
									<g>
										<g>
											<g>
												<g>
													<g>
														<g>
															<g>
																<path class="st5" d="M668.2,198.7c-5.2,10.4-11.1,21.5-15.2,29.1c-3.2,5.9-5.4,9.8-5.4,9.8
																	c-0.3,0.5-0.8,0.9-1.4,0.9c-0.6,0-1.2-0.2-1.5-0.7l-21.8-30.9L600,237.8c-0.3,0.4-0.7,0.6-1.2,0.7
																	c-0.1,0-0.2,0-0.2,0c-0.4,0-0.8-0.1-1.1-0.4c-5.9-4.7-11.5-12.3-16.1-20c0,0,0,0,0,0c-7.3-12-12.2-24-12.6-24.8
																	c-0.4-0.9,0.1-1.9,1-2.3c0.9-0.4,1.9,0.1,2.3,1c0.1,0.2,4.9,11.8,11.8,23.5c4.2,7,9.1,14,14.4,18.7l23.1-31.4
																	c0.3-0.5,0.9-0.7,1.4-0.7c0.6,0,1.1,0.3,1.4,0.7l21.6,30.6c1.1-2.1,3-5.4,5.1-9.4c4-7.5,9.4-17.5,14.1-27
																	c0.4-0.9,1.5-1.2,2.4-0.8C668.2,196.7,668.6,197.8,668.2,198.7z"/>
															</g>
														</g>
													</g>
												</g>
											</g>
										</g>
										<g>
											<g>
												<g>
													<g>
														<g>
															<g>
																<g>
																	<g>
																		<path class="st5" d="M622.8,205.6c-1,0-1.8-0.8-1.8-1.8V196c0-1,0.8-1.8,1.8-1.8c1,0,1.8,0.8,1.8,1.8v7.9
																			C624.6,204.8,623.8,205.6,622.8,205.6z"/>
																	</g>
																</g>
															</g>
														</g>
													</g>
												</g>
											</g>
										</g>
									</g>
								</g>
							</g>
						</g>
						<g>
							<g>
								<g>
									<g>
										<g>
											<g>
												<g>
													<g>
														<path class="st2" d="M609.2,561.7L590.1,328l-85,88.8c0,0,4.9,78.7,5.7,144.9H609.2z"/>
													</g>
												</g>
											</g>
										</g>
									</g>
								</g>
							</g>
							<g>
								<g>
									<g>
										<g>
											<g>
												<g>
													<g>
														<g>
															<path class="st12" d="M594,756c-39.9,0-92.9-6.6-95.7-6.9c-0.8-0.1-1.4-0.8-1.3-1.6c0.1-0.8,0.8-1.4,1.6-1.3
																c0.9,0.1,89.9,11.2,124.6,5c0.8-0.1,1.6,0.4,1.7,1.2c0.1,0.8-0.4,1.6-1.2,1.7C615.9,755.4,605.5,756,594,756z"/>
														</g>
													</g>
												</g>
											</g>
										</g>
									</g>
								</g>
							</g>
							<g>
								<g>
									<g>
										<g>
											<g>
												<g>
													<g>
														<path class="st12" d="M603.4,561.7c-7.7-95.3-20-233.9-20.2-235.8c-0.1-0.8-0.8-1.4-1.6-1.3c-0.8,0.1-1.4,0.8-1.3,1.6
															c0.2,1.9,12.4,140.3,20.1,235.5H603.4z"/>
													</g>
												</g>
											</g>
										</g>
									</g>
								</g>
							</g>
						</g>
						<g>
							<g>
								<g>
									<g>
										<g>
											<path class="st17" d="M695.6,311.3c0,0,4.9-16.8,17.7-21.1s19.7-4.1,24.5-1c4.7,3,6.4,9.6,5.3,13.3
												C741.9,306.2,695.6,311.3,695.6,311.3z"/>
										</g>
									</g>
								</g>
							</g>
							<g>
								<g>
									<g>
										<g>
											<g>
												<g>
													<g>
														<path class="st2" d="M716.8,326.5c-7-15.4-25.1-22.1-40.5-15.1l-0.6,0.3l-4.1,1.9l-4.3,1.9c-2.9,1.3-5.8,2.6-8.8,3.8
															c-5.9,2.5-11.8,5-17.7,7.3c-11.9,4.7-23.8,9.2-35.7,13.2c-5.9,2-11.9,3.9-17.8,5.5c-5.9,1.7-11.7,3.2-17.4,4.5
															c-1.4,0.3-2.8,0.6-4.2,0.9c-1.4,0.3-2.8,0.6-4.1,0.8c-2.8,0.5-5.4,0.9-8,1.2c-1.8,0.2-3.6,0.4-5.2,0.4
															c0.1-3.9,0.5-8.4,1-13c0.6-5.8,1.5-11.8,2.6-17.9c1.3-7.5,2.7-15,4.4-22.7c-5.3-30.7-6.1-61.9-10.9-92.7
															c-17.6-4.5-35.5,6.1-40.1,23.6l-1.4,5.2l-1.3,5l-2.4,10c-1.6,6.7-3.1,13.4-4.6,20.1c-2.9,13.5-5.6,27.1-7.7,41.1
															c-1.1,7-2,14.2-2.7,21.6c-0.2,1.9-0.4,3.7-0.5,5.6c-0.1,1.9-0.3,3.8-0.4,5.8c-0.1,2-0.2,3.9-0.2,6l0,3.1
															c0,0.5,0,1,0,1.6l0,1.6l0.1,3.3l0.2,3.5l0.1,1.8c0.1,0.6,0.1,1.3,0.2,1.9l0.5,3.9c0.3,1.5,0.6,3,0.9,4.5l0.1,0.4
															l0.2,0.7l0.1,0.6l0.2,0.7c0.3,0.9,0.5,1.8,0.8,2.7c0.3,0.9,0.6,1.8,0.9,2.7l0.1,0.3c0,0.1,0.1,0.3,0.2,0.4l0.4,0.9
															c0.2,0.6,0.5,1.1,0.8,1.7c0.3,0.6,0.5,1.1,0.8,1.7l0.4,0.8l0.5,0.8c0.7,1.1,1.3,2.2,2.1,3.3c0.7,1.1,1.5,2.1,2.3,3.1
															c0.8,1,1.7,2,2.5,2.9c0.9,0.9,1.8,1.7,2.7,2.6c0.5,0.4,0.9,0.9,1.4,1.2l1.4,1.1c0.9,0.7,1.9,1.4,2.8,2.1
															c0.9,0.6,1.8,1.1,2.8,1.7c1.9,1.2,3.6,1.9,5.5,2.7c0.9,0.4,1.7,0.7,2.6,1c0.2,0.1,0.5,0.2,0.7,0.3
															c0.6,0.2,1.2,0.4,1.8,0.6c1.6,0.5,3.2,0.9,4.8,1.3c1.5,0.3,3,0.6,4.5,0.9c1.4,0.2,2.8,0.4,4.2,0.6
															c5.4,0.6,10.2,0.6,14.7,0.5c4.5-0.2,8.7-0.6,12.8-1.1c4-0.5,8-1.2,11.7-1.9c3.8-0.7,7.5-1.5,11.1-2.4
															c7.2-1.7,14.2-3.7,21.1-5.8c6.9-2.1,13.6-4.3,20.2-6.6c13.2-4.6,26.1-9.7,38.8-15c6.4-2.7,12.7-5.4,18.9-8.2
															c3.1-1.4,6.3-2.8,9.4-4.3l4.7-2.2l4.9-2.3C717.1,359.6,723.7,341.7,716.8,326.5z"/>
													</g>
												</g>
											</g>
										</g>
									</g>
								</g>
							</g>
							<g>
								<g>
									<g>
										<g>
											<path class="st12" d="M518.5,412.6c-0.2-0.1-0.5-0.2-0.7-0.3c-0.9-0.3-1.7-0.6-2.6-1c-1.8-0.8-3.5-1.6-5.5-2.7
												c-0.9-0.5-1.9-1.1-2.8-1.7c-1-0.7-1.9-1.4-2.8-2.1l-1.4-1.1c-0.5-0.4-0.9-0.8-1.4-1.2c-0.9-0.8-1.8-1.7-2.7-2.6
												c-0.9-0.9-1.7-1.9-2.5-2.9c-0.8-1-1.6-2-2.3-3.1c-0.7-1.1-1.4-2.2-2.1-3.3l-0.5-0.8l-0.4-0.8c-0.3-0.6-0.6-1.1-0.8-1.7
												c-0.3-0.6-0.5-1.1-0.8-1.7l-0.4-0.9c-0.1-0.1-0.1-0.3-0.2-0.4l-0.1-0.3c-0.3-0.9-0.6-1.8-0.9-2.7
												c-0.3-0.9-0.6-1.8-0.8-2.7l-0.2-0.7l-0.1-0.6l-0.2-0.7c5.6-0.7,13.6,0.1,22.3,6.5C519,390.7,519.5,403.9,518.5,412.6z"/>
										</g>
									</g>
								</g>
							</g>
							<g>
								<g>
									<g>
										<g>
											<path class="st12" d="M663,365.2c-0.7,0-1.3-0.5-1.5-1.2c-0.2-0.8,0.3-1.7,1.1-1.9c0.2,0,15.3-3.9,29.8-13.8
												c0.7-0.5,1.7-0.3,2.1,0.4c0.5,0.7,0.3,1.7-0.4,2.1c-14.9,10.2-30.1,14.1-30.8,14.2C663.3,365.1,663.1,365.2,663,365.2z"
												/>
										</g>
									</g>
								</g>
							</g>
							<g>
								<g>
									<g>
										<g>
											<circle class="st12" cx="671.1" cy="325.9" r="3.4"/>
										</g>
									</g>
								</g>
							</g>
							<g>
								<g>
									<g>
										<g>
											<g>
												<g>
													<g>
														<g>
															<path class="st12" d="M522.2,372.4c-0.4,0-0.9-0.2-1.3-0.5c-0.7-0.7-0.8-1.9-0.1-2.6c0.5-0.6,13.5-14.5,27-18
																c1-0.3,2,0.3,2.3,1.3c0.3,1-0.3,2-1.3,2.3c-12.4,3.3-25.1,16.8-25.2,17C523.2,372.3,522.7,372.4,522.2,372.4z"/>
														</g>
													</g>
												</g>
											</g>
										</g>
									</g>
								</g>
								<g>
									<g>
										<g>
											<g>
												<g>
													<g>
														<g>
															<path class="st12" d="M547.1,355.3c-0.3,0-0.7-0.1-0.9-0.3c-4.3-2.6-12.7-4.7-12.7-4.7c-1-0.2-1.6-1.2-1.3-2.2
																c0.2-1,1.2-1.6,2.2-1.3c0.4,0.1,9,2.3,13.8,5.2c0.9,0.5,1.1,1.7,0.6,2.5C548.3,355,547.7,355.3,547.1,355.3z"/>
														</g>
													</g>
												</g>
											</g>
										</g>
									</g>
								</g>
							</g>
							<g>
								<g>
									<g>
										<g>
											<g>
												<g>
													<g>
														<g>
															<path class="st12" d="M548.3,354.9c-1,0-1.8-0.8-1.8-1.8c0-28.4,9.6-69.9,9.7-70.3c0.2-1,1.2-1.6,2.2-1.4
																c1,0.2,1.6,1.2,1.4,2.2c-0.1,0.4-9.6,41.5-9.6,69.5C550.2,354.1,549.3,354.9,548.3,354.9z"/>
														</g>
													</g>
												</g>
											</g>
										</g>
									</g>
								</g>
							</g>
							<g>
								<g>
									<g>
										<g>
											<g>
												<g>
													<g>
														<path class="st12" d="M545.9,421.3c-2,0-4-0.1-6-0.2c-25.4-2.1-33.8-9.6-34.2-9.9c-0.7-0.7-0.8-1.9-0.1-2.6
															c0.7-0.7,1.8-0.8,2.6-0.1c0.1,0.1,8.2,7,32,9c24.3,2,52.2-10.2,52.5-10.4c0.9-0.4,2,0,2.4,0.9c0.4,0.9,0,2-0.9,2.4
															C593.1,410.9,569.3,421.3,545.9,421.3z"/>
													</g>
												</g>
											</g>
										</g>
									</g>
								</g>
							</g>
							<g>
								<g>
									<g>
										<g>
											<g>
												<g>
													<g>
														<g>
															<g>
																<path class="st13" d="M757.2,337.6c-1.4-0.1-2.6-0.9-3.4-2.2L714,269c-1.3-2.1-0.6-4.9,1.5-6.2
																	c2.1-1.3,4.9-0.6,6.2,1.5l39.8,66.5c1.3,2.1,0.6,4.9-1.5,6.2C759.1,337.5,758.2,337.7,757.2,337.6z"/>
															</g>
														</g>
													</g>
												</g>
											</g>
										</g>
									</g>
								</g>
							</g>
							<g>
								<g>
									<g>
										<g>
											<g>
												<path class="st17" d="M739.1,349.6c-12.2,1.3-19.3,1-35.9,5.1c-16.7,4.1-33.6-27.2-18.7-42.3c0,0,4.6-7.8,9.6-11.7
													c5-3.9,30.8-11.7,38.4-11.5c6.4,0.2,16,0,20.1,2.9c10.3,7.3-6.7,13-6.7,13s7.2,0.1,8.2,6c1,5.8-3,6.8-3,6.8
													s2.8,1.6,4.8,5.7c2.1,4.1-2.7,8-2.7,8s5.5,2.6,4.2,7.3C755.3,346.4,739.1,349.6,739.1,349.6z"/>
											</g>
										</g>
									</g>
								</g>
								<g>
									<g>
										<g>
											<g>
												<path class="st18" d="M734,308.4c-0.4,0-0.7-0.3-0.8-0.7c0-0.4,0.3-0.8,0.7-0.8c0.1,0,6-0.3,11.6-2.4
													c0.4-0.1,0.8,0.1,1,0.5c0.1,0.4-0.1,0.8-0.4,1C740.3,308.1,734.3,308.4,734,308.4C734,308.4,734,308.4,734,308.4z"/>
											</g>
										</g>
									</g>
								</g>
								<g>
									<g>
										<g>
											<g>
												<path class="st18" d="M739.9,321.4c-0.4,0-0.7-0.3-0.8-0.7c0-0.4,0.3-0.8,0.7-0.8c0,0,4-0.3,9.6-2.4
													c0.4-0.1,0.8,0.1,1,0.4c0.1,0.4-0.1,0.8-0.4,1C744.2,321.1,740.2,321.4,739.9,321.4C740,321.4,739.9,321.4,739.9,321.4z
													"/>
											</g>
										</g>
									</g>
								</g>
								<g>
									<g>
										<g>
											<g>
												<path class="st18" d="M742.1,335.2C742.1,335.2,742.1,335.2,742.1,335.2c-0.5,0-0.8-0.4-0.8-0.8c0-0.4,0.3-0.8,0.8-0.8
													c0,0,0,0,0,0c0.1,0,4.7,0,9.4-2.5c0.4-0.2,0.8-0.1,1,0.3c0.2,0.4,0.1,0.8-0.3,1C747.3,335.1,742.5,335.2,742.1,335.2z"
													/>
											</g>
										</g>
									</g>
								</g>
							</g>
						</g>
						<g>
							<g>
								<g>
									<g>
										<g>
											<g>
												<g>
													<g>
														<g>
															<path class="st16" d="M816.3,436.1l69-148.4c1.2-2.5,0.1-4.5-2.4-4.5l-104.6,0.5c-2.5,0-5.5,2.1-6.7,4.6l-69,148.4
																c-1.2,2.5-0.1,4.5,2.4,4.5l104.6-0.5C812.2,440.7,815.2,438.6,816.3,436.1z"/>
														</g>
													</g>
												</g>
											</g>
										</g>
									</g>
								</g>
							</g>
							<g>
								<g>
									<g>
										<g>
											<g>
												<g>
													<g>
														<g>
															<path d="M828.9,436.1l69-148.4c1.2-2.5,0.1-4.5-2.4-4.5l-104.6,0.5c-2.5,0-5.5,2.1-6.7,4.6l-69,148.4
																c-1.2,2.5-0.1,4.5,2.4,4.5l104.6-0.5C824.8,440.7,827.8,438.6,828.9,436.1z"/>
														</g>
													</g>
												</g>
											</g>
										</g>
									</g>
								</g>
							</g>
							<g>
								<g>
									<g>
										<g>
											<g>
												<g>
													<g>
														<g>
															<g>
																<path class="st17" d="M873.4,340.6l2.7-6.1c0,0,5.2,11.6-0.8,21.8c-6,10.2-11.5,23.6-14.4,29.9
																	c-2.9,6.3-6.2,20.6-11.2,23.1c-5,2.5-10,0.8-17.6-3.9c-7.7-4.7-5.1-9.6,0.2-10.3c5.8-0.8,13.6,0.1,13.6,0.1
																	s-2.5-1.8-12.5-6.5c-10.6-5-6-10.9-0.1-11.2c8.3-0.4,21.5,1.8,21.5,1.8s-11.4-4.9-18.7-8c-7.4-3.1-1.3-11.1,11.2-8
																	c12.6,3.1,12.9,1.3,12.9,1.3s-2.8-2.5-12-5.9c-9.1-3.4-12.5-10-6.3-11.3c6.1-1.3,24.9,5.1,24.9,5.1l2.8-5.1
																	C871,345.4,872.3,342.9,873.4,340.6z"/>
															</g>
														</g>
													</g>
												</g>
											</g>
										</g>
									</g>
								</g>
							</g>
							<g>
								<g>
									<g>
										<g>
											<g>
												<g>
													<path class="st16" d="M825.1,361.9c-3.5,7.7-12.6,13.9-20.3,13.9c-7.7,0-11-6.2-7.5-13.9c3.5-7.7,12.6-13.9,20.3-13.9
														C825.2,348,828.6,354.2,825.1,361.9z"/>
												</g>
											</g>
										</g>
									</g>
								</g>
							</g>
						</g>
						<g>
							<g>
								<g>
									<g>
										<g>
											<g>
												<g>
													<g>
														<circle cx="568.9" cy="319.7" r="20"/>
													</g>
												</g>
											</g>
										</g>
									</g>
									<g>
										<g>
											<g>
												<g>
													<g>
														<circle class="st16" cx="568.9" cy="319.7" r="10.8"/>
													</g>
												</g>
											</g>
										</g>
									</g>
								</g>
							</g>
							<g>
								<g>
									<g>
										<g>
											<g>
												<path d="M673.8,273c-10.8,0-19.5,8.7-19.5,19.5v27.6c0,0.3,0.1,0.5,0.1,0.8c1.4-0.6,2.8-1.1,4.2-1.7c0,0,0.1,0,0.1,0
													c0.1,0,0.2-0.1,0.3-0.1v-26.6c0-8.1,6.6-14.8,14.8-14.8c8.1,0,14.8,6.6,14.8,14.8v13.7c1.5-1.6,3.1-3.2,4.7-4.7v-9.1
													C693.3,281.7,684.6,273,673.8,273z"/>
											</g>
										</g>
									</g>
								</g>
							</g>
							<g>
								<g>
									<g>
										<g>
											<g>
												<path class="st16" d="M656.7,314.7c-3,0-5.4,2.4-5.4,5.4c0,0.7,0.1,1.4,0.4,2c2.3-1,4.7-1.9,7-2.8c0,0,0.1,0,0.1,0
													c0.5-0.3,1-0.5,1.6-0.8c0.1-0.1,0.2-0.1,0.4-0.1c0.3-0.2,0.6-0.3,0.9-0.5C660.7,316,658.9,314.7,656.7,314.7z"/>
											</g>
										</g>
									</g>
								</g>
							</g>
							<g>
								<g>
									<g>
										<g>
											<path d="M591.2,167.3c-9.2,2.8-16.6,7.5-21.2,13.5c-9.9,13-14.1,37.4-12.6,72.6c1.1,26,5.1,48.6,5.1,48.8
												c0.2,1.1,1.2,1.9,2.3,1.9c0.1,0,0.3,0,0.4,0c1.3-0.2,2.1-1.4,1.9-2.7c-0.2-0.9-15.5-88.7,6.6-117.8
												c3.8-5,9.9-8.9,17.5-11.4C591.2,170.5,591.3,168.9,591.2,167.3z"/>
										</g>
									</g>
								</g>
								<g>
									<g>
										<g>
											<path d="M679.8,242.6c-0.3-24.3-4.4-42.7-12.1-54.5c-4.4-6.8-11.2-12.5-19.8-16.6c0.1,1.8-0.3,3-0.3,4.8
												c6.7,3.6,12.6,8.9,16.2,14.4c17.2,26.5,9.7,83.6,9.6,84.2c-0.2,1.3,0.7,2.5,2,2.6c1.3,0.2,2.5-0.7,2.6-2
												C678.1,275.4,680,260.6,679.8,242.6z"/>
										</g>
									</g>
								</g>
							</g>
						</g>
					</g>
				</g>
				<g>
					<g>
						<g>
							<path class="st12" d="M678,377.9c-0.4,0.9-1.5,1.4-2.4,0.9c-10.4-5-17.4-16.5-20.5-33.4c-1.9-10.4-1.7-19.8-1.6-23.6
								c0-1,0.9-1.7,1.9-1.7l0,0c0.9,0.1,1.6,0.9,1.6,1.8c-0.3,8.2-0.4,43.9,20.1,53.7C677.9,376.1,678.3,377.1,678,377.9L678,377.9
								z"/>
						</g>
					</g>
				</g>
			</g>
			<g>
				<g>
					<g>
						<g>
							<g>
								<g>
									<g>
										<g>
											<g>
												<path class="st1" d="M326.7,378.2l-17.6-30.5c-0.3-0.5-0.3-1.1,0-1.6l17.6-30.5c0.3-0.5,0.8-0.8,1.4-0.8h35.2
													c0.6,0,1.1,0.3,1.4,0.8l17.6,30.5c0.3,0.5,0.3,1.1,0,1.6l-17.6,30.5c-0.3,0.5-0.8,0.8-1.4,0.8h-35.2
													C327.5,379,327,378.7,326.7,378.2z"/>
											</g>
										</g>
									</g>
								</g>
								<g>
									<g>
										<g>
											<g>
												<g>
													<path class="st2" d="M365.9,339.8c-0.2-1.1-1.2-1.7-2-2c0.2-0.2,0.4-0.4,0.5-0.6c0.8,0.5,2.1,1.7,3.3,4.8
														c0,0.1,0.1,0.2,0.1,0.4c0,0,0,0.1,0,0.1c0,0,0,0,0,0c-0.2,0-0.4-0.1-0.6-0.2C366.7,341.8,366.1,340.8,365.9,339.8z"/>
												</g>
											</g>
										</g>
									</g>
									<g>
										<g>
											<g>
												<g>
													<g>
														<g>
															<path class="st2" d="M323,349.9L323,349.9c0,0.7,0,1.4,0.2,2.2c0.1,0.4,0.1,0.8,0.2,1.2c0,0.1,0.1,0.2,0.1,0.3
																c0-0.1-0.1-0.2-0.1-0.3c2.4,0.4,3.9-1.4,4-1.4c0.1-0.2,0.4-0.2,0.5-0.1c0.2,0.1,0.2,0.4,0.1,0.5
																c-0.1,0.1-1.5,1.8-3.8,1.8c-0.2,0-0.3,0-0.5,0c0-0.1-0.1-0.2-0.1-0.3c0,0.1,0.1,0.2,0.1,0.3c0.1,0.4,0.3,0.8,0.4,1.1
																c0.1,0.2,0.2,0.4,0.3,0.6c1.3,2.2,3.3,2.8,4.9,3c0.1,0.2,2.2,3.5,5.4,4.6c0.1,0,0.2,0.1,0.2,0.1
																c0.1-0.1,0.2-0.3,0.3-0.5c0.1-0.2,0.2-0.5,0.5-1c0.8-1.2,2.4-1.8,4.2-1.6c0.7,0.1,1.2-0.5,1.7-1
																c0.3-0.3,0.5-0.6,0.8-0.8c0.4-0.2,0.8-0.1,1.3,0c0.7,0.1,1.2,0.2,1.4-0.1c0.6-1.2,2.3-1,2.4-1c0.2,0,0.3,0.2,0.3,0.4
																c0,0.1-0.1,0.2-0.2,0.3c-0.1,0-0.1,0-0.2,0c0,0-1.3-0.1-1.7,0.6c-0.4,0.8-1.4,0.6-2.1,0.5c-0.3-0.1-0.8-0.1-0.9-0.1
																c-0.2,0.1-0.4,0.3-0.6,0.6c-0.5,0.6-1.2,1.4-2.3,1.3c-1.1-0.1-2.7,0.1-3.5,1.3c-0.2,0.3-0.4,0.6-0.5,0.8
																c-0.1,0.1-0.1,0.3-0.2,0.4c2.7,0.6,4-0.5,4-0.5s1.1,0.4,2.2-0.1c0.9-0.4,0.8-1.8,0.8-2.1l6.3,1.4h0l0,0
																c0.1-0.1,0.2-0.1,0.3-0.1c2.5,0.1,4.2-1.2,5.1-2.9c0,0,0,0,0,0c-0.2-0.3-1.1-1.2-3.5-1.7c-0.2,0-0.3-0.2-0.3-0.4
																c0-0.2,0.2-0.3,0.4-0.3c2.1,0.4,3.1,1.1,3.7,1.7c0.1-0.3,0.2-0.5,0.2-0.8c0.3-2.1-1.3-3.5-1.4-3.5
																c-0.2-0.1-0.2-0.4-0.1-0.5c0.1-0.2,0.4-0.2,0.5-0.1c0.1,0.1,2.1,1.7,1.7,4.2c-0.1,0.5-0.2,1.1-0.5,1.6c0,0,0,0,0,0
																c0,0,0,0,0,0c0,0,0,0,0,0c0,0,0,0,0,0c-0.3,0.7-0.8,1.4-1.4,1.9c-0.5,0.5-1.1,0.8-1.7,1.1c0,0,0,0,0,0
																c-0.9,0-1.7,0-2.2-0.1c0.5,0.1,1.3,0.2,2.2,0.1c0.7,0,1.4-0.1,2.1-0.3c0.7-0.2,1.5-0.5,2.2-1
																c2.1-1.4,2.5-4.6,1.8-6.1l0,0c-0.1,0-0.2-0.1-0.3-0.2c0,0-1-2.9-2.8-3.1c-0.7-0.1-1.3,0.1-1.9,0.3
																c-1,0.3-1.9,0.6-3.2-0.4c-0.6-0.5-1.1-1-1.5-1.6c-0.9-1-1.6-1.9-3-2.2l0,0c-0.2,0.1-0.3,0.1-0.5,0.2
																c-0.4,0.1-0.9,0.1-1.4,0.1c-0.7,0-1.4-0.1-1.9-0.6c-0.6-0.5-0.9-1.2-1-2.2c0-0.6-0.1-1.2-0.1-1.7
																c-0.1-1.5-0.1-2.1-0.6-2.4c-0.2-0.1-0.2-0.3-0.1-0.5c0.1-0.2,0.3-0.2,0.5-0.1c0.9,0.5,0.9,1.4,1,3c0,0.5,0,1,0.1,1.6
																c0.1,0.8,0.3,1.4,0.7,1.7c0.7,0.5,1.8,0.4,2.8,0.3c0.1,0,0.1,0,0.2,0c0.1-0.1,0.2-0.2,0.3-0.2
																c0.9-0.7,0.9-2.6,0.9-2.6c0-0.2,0.2-0.4,0.4-0.4c0.2,0,0.4,0.2,0.4,0.4c0,0.1,0,1.8-0.8,2.9l0,0
																c1.2,0.4,2,1.3,2.8,2.3c0.4,0.5,0.9,1,1.4,1.5c0.9,0.8,1.6,0.6,2.5,0.3c0.6-0.2,1.3-0.4,2.2-0.4
																c2.2,0.2,3.3,3.2,3.4,3.5h-0.7c0,0,0,0,0,0h1.4c3.2,0,5.9-1.6,7.6-3.9c-0.6,0.2-1.3,0.3-2.1,0.3
																c-0.3,0-0.6,0-0.9-0.1c-1.1-0.3-1.5-1.1-1.9-1.9c-0.2-0.4-0.4-0.8-0.6-1.1c-0.1-0.1-0.3-0.3-0.5-0.3
																c-0.4-0.1-1-0.3-1.7-0.4c-2-0.4-4.5-1-5-2.4c-0.1-0.2,0-0.4,0.2-0.5c0.2-0.1,0.4,0,0.5,0.2c0.4,1,2.8,1.5,4.4,1.9
																c0.7,0.2,1.3,0.3,1.8,0.4c0.3,0.1,0.5,0.3,0.7,0.4c0.4,0.2,1,0.1,1.5-0.2c0.3-0.2,0.7-0.5,0.7-1.1
																c0-0.5,0.2-1,0.5-1.3c0.6-0.5,1.4-0.5,1.4-0.5c0.2,0,0.4,0.2,0.3,0.4s-0.2,0.4-0.4,0.3c0,0-0.3,0-0.6,0.1
																c1.7,0.6,2.4,2.6,2.4,2.6c0.1,0.2,0,0.4-0.2,0.5c0,0-0.1,0-0.1,0c-0.1,0-0.3-0.1-0.3-0.2c0,0-0.7-1.9-2.2-2.3
																c0,0.1,0,0.2,0,0.3c0,0.7-0.4,1.3-1,1.7c-0.4,0.2-0.9,0.4-1.3,0.4c0,0,0,0,0,0c0.1,0.2,0.2,0.3,0.2,0.5
																c0.3,0.7,0.6,1.3,1.4,1.5c1.3,0.3,2.8-0.3,3.5-0.5h0c1.1-2,1.5-4.4,0.9-6.8c0-0.2-0.1-0.4-0.2-0.6
																c0.1,0.2,0.1,0.4,0.2,0.6c0,0,0,0,0,0c-0.4,0-0.8-0.1-1.2-0.3c-0.9-0.5-1.5-1.7-1.7-2.9c-0.2-1.2-1.9-1.5-2.2-1.6
																c0,0,0,0,0,0c-0.1,0-0.2,0-0.2,0.1c-0.6,0.1-1.2,0.1-1.7,0c-0.1,0-0.1,0-0.2,0c0,0,0,0,0,0c0.8,0.4,1.8,1,2,1.9
																c0.2,0.8,0,1.5-0.5,1.9c-0.4,0.4-1.1,0.6-1.7,0.5c-0.5-0.1-1.4-0.2-2,0.1c-0.2,0.1-0.3,0.3-0.4,0.6
																c0,0.2-0.2,0.3-0.4,0.3c0,0,0,0-0.1,0c-0.2,0-0.3-0.2-0.3-0.4c0.1-0.5,0.3-0.8,0.7-1.1c0.7-0.5,1.8-0.4,2.5-0.2
																c0.4,0.1,0.7,0,1-0.3c0.3-0.3,0.4-0.8,0.3-1.3c-0.2-0.9-1.9-1.6-2.7-1.8c0,0,0,0,0,0c-0.2,0.1-0.3,0.3-0.5,0.5
																c-0.1,0.1-0.2,0.1-0.3,0.1c-0.1,0-0.2,0-0.2-0.1c-0.2-0.1-0.2-0.4,0-0.5c0.3-0.3,0.5-0.5,0.8-0.7c0,0,0,0,0,0
																c0,0,0,0,0,0c0,0,0,0,0,0c0,0,0,0,0,0c0.5-0.3,0.9-0.3,1.4-0.3c-0.2-0.5-0.7-1.4-1.9-1.9c-1.9-0.8-2.9-0.7-2.9-0.7
																c-0.2,0-0.4-0.1-0.4-0.3c0-0.2,0.1-0.4,0.3-0.4c0,0,1.2-0.1,3.3,0.8c0.1,0,0.1,0.1,0.2,0.1c0,0,0,0,0,0
																c0.4-1.5-0.7-2.5-1.1-2.8c0.6,0.3,1.1,0.6,1.6,0.8c0.3,0.7,0.5,1.5,0.2,2.4c0,0,0,0,0,0c1.1,0.7,1.4,1.7,1.5,2.2
																c0,0,0,0,0,0c0.4,0.1,0.8,0.1,1.2,0c0.8-0.2,1.1-0.6,1.2-0.8c-0.1,0-0.1,0-0.1,0s-1-2-4-3.8c0,0,0,0,0,0
																c-0.5-0.3-1-0.6-1.6-0.8c-1-0.5-2.1-0.9-3.4-1.2c0.2,0.3,0.3,0.7,0.2,1c-0.1,0.2-0.2,0.4-0.5,0.4c-0.2,0.1-0.6,0-1,0
																c-1.1-0.1-2.7-0.1-3.4,0.9c-0.1,0.1-0.2,0.2-0.3,0.2c-0.1,0-0.1,0-0.2-0.1c-0.2-0.1-0.2-0.3-0.1-0.5
																c0.9-1.4,2.9-1.3,4.1-1.3c0.3,0,0.6,0,0.8,0c0-0.2-0.2-0.6-0.5-1c0.3,0.1,0.7,0.2,1,0.2c0,0,0,0,0,0
																c-0.3-0.1-0.7-0.2-1-0.2c0,0-0.1,0-0.1,0c-3.6-0.8-6.8-0.8-9.3-0.5l0,0c-0.1,0.5-0.2,1.1,0,1.3l0,0
																c0.4,0.4,0.6,0.6,2.3,0.6c0.5,0,0.8,0.1,1.1,0.4c0.4,0.4,0.3,1.1,0.3,1.8c0,0.5-0.1,1.1,0.1,1.5
																c0.2,0.3,0.4,0.4,0.6,0.4c0.4-0.1,0.9-0.6,1.1-1.3c0.4-1.6,2.5-1.6,2.6-1.6c0.2,0,0.4,0.2,0.4,0.4
																c0,0.2-0.2,0.4-0.4,0.4c0,0,0,0,0,0c-0.1,0-1.7,0-1.9,1c-0.2,0.9-0.9,1.7-1.7,1.8c-0.1,0-0.1,0-0.2,0
																c-0.5,0-0.9-0.3-1.2-0.7c-0.3-0.6-0.3-1.3-0.2-1.9c0-0.5,0.1-1-0.1-1.2c-0.1-0.1-0.3-0.2-0.5-0.2
																c-1.9,0-2.2-0.3-2.8-0.8l0,0c-0.4-0.4-0.4-1.2-0.3-1.7c0.2,0,0.4-0.1,0.7-0.1c-0.2,0-0.4,0-0.7,0.1
																c-1.3,0.2-2.3,0.4-3,0.6c0.8,0.4,1.7,1.1,1.5,2.2c-0.1,0.5-0.2,1-0.1,1.1c0,0.1,0.2,0.1,0.5,0.2l0.1,0
																c0.1,0,0.1,0,0.2,0.1c1.2,0.4,5,1.6,4.3,3.8c-0.2,0.5-0.3,0.9-0.4,1.2c-0.1,0.2-0.2,0.5-0.2,0.6c0,0,0.1,0.1,0.4,0.1
																c0.4,0.1,1.7,0.4,2.8,1.3c1.2,1.1,1.8,2.6,1.6,4.4c0,0.2-0.2,0.3-0.4,0.3c0,0,0,0,0,0c-0.2,0-0.4-0.2-0.3-0.4
																c0.3-4-3.1-4.8-3.8-5c-0.4-0.1-0.7-0.2-0.9-0.5c-0.2-0.3,0-0.7,0.2-1.2c0.1-0.3,0.3-0.7,0.4-1.2c0.3-1-1-2-3.8-2.9
																c-0.1,0-0.1,0-0.2-0.1l-0.1,0c-0.4-0.1-0.8-0.3-0.9-0.6c-0.1-0.3-0.1-0.7,0-1.5c0.2-1.2-1.9-1.7-1.9-1.7
																c-0.1,0-0.1,0-0.1-0.1c0,0,0,0,0,0c-0.4,0-1.5,0.1-2.9,0.4c-1.4,0.4-3,1-4.5,2.2c0.6,0,1.6-0.1,2.7-0.5
																c1.4-0.5,2.3-0.7,3-0.3c0.4,0.2,0.6,0.6,0.8,1.1c0.1,0.2-0.1,0.4-0.3,0.4c-0.2,0.1-0.4-0.1-0.4-0.3
																c-0.1-0.4-0.3-0.6-0.4-0.6c-0.4-0.2-1.3,0-2.4,0.4c-1.3,0.4-2.4,0.5-3.1,0.5c-0.4,0-0.6,0-0.6,0c0,0,0,0,0,0
																c0,0,0,0,0,0c-0.7,0.7-1.3,1.5-1.8,2.4c0,0,0,0,0,0c0.7-0.3,1.6-0.5,2.5-0.1c0.7,0.3,0.8,0.9,0.9,1.3
																c0,0,0,0.1,0,0.1c0,0,0,0,0,0c0.7-0.9,2.3-2.4,5.1-2.1c3.3,0.3,6.5,5.2,7.3,6.5c0.1-0.1,0.3-0.3,0.5-0.4
																c1-0.6,2.1-0.3,2.1-0.3c0.2,0.1,0.3,0.3,0.2,0.5c-0.1,0.2-0.3,0.3-0.5,0.2c0,0-0.8-0.2-1.5,0.2c-0.6,0.3-1,1-1.1,2.1
																c0,0.2-0.2,0.3-0.4,0.3c0,0,0,0-0.1,0c-0.2,0-0.3-0.2-0.3-0.4c0.1-0.6,0.3-1.2,0.5-1.6c-0.4-0.7-3.7-6.1-6.9-6.4
																c-2.7-0.3-4.1,1.4-4.6,2c0.2,0.1,0.4,0.2,0.7,0.2c0.8,0.1,1.3,0.3,1.7,0.7c0.6,0.7,0.5,1.7,0.3,3.3
																c0,0.2,0,0.3,0,0.5c-0.1,1,0.2,2.1,0.4,3.1c0.1,0.3,0.2,0.7,0.2,1c0.1,0.3,1.4,3.4,3.9,4.3c1.2,0.4,2.2,0.5,3.1,0.6
																c1.3,0.2,2.5,0.3,3.5,1.1c0.2,0.1,0.2,0.4,0.1,0.5c-0.1,0.1-0.2,0.1-0.3,0.1c-0.1,0-0.2,0-0.2-0.1
																c-0.9-0.7-1.9-0.8-3.1-0.9c-1-0.1-2-0.2-3.3-0.6c-0.4-0.1-0.8-0.3-1.2-0.6c-0.1,0.3-0.3,0.8-0.2,1.4
																c0.9,0.8,3,1.3,3,1.3c0.2,0,0.3,0.2,0.3,0.4c0,0.2-0.2,0.3-0.4,0.3c0,0,0,0-0.1,0c-0.1,0-2.5-0.5-3.5-1.5
																c-0.3-0.3-1.1-0.1-2,0c-0.8,0.1-1.8,0.3-2.7,0.2c-0.2,0.6-0.6,1.8-1.5,2.2c0,0-0.1,0-0.1,0c-0.1,0-0.3-0.1-0.3-0.2
																c-0.1-0.2,0-0.4,0.2-0.5c0.5-0.2,0.9-1.1,1-1.7c-0.5-0.1-1-0.4-1.4-0.7c-0.2-0.1-0.2-0.4,0-0.5
																c0.1-0.2,0.4-0.2,0.5,0c0.4,0.4,0.9,0.5,1.4,0.6c0,0,0,0,0,0c0,0,0,0,0,0c0.9,0.1,1.9,0,2.8-0.2
																c0.7-0.1,1.4-0.2,1.9-0.1c0-0.6,0.2-1.1,0.3-1.4c-0.8-0.7-1.4-1.5-1.8-2.2l0,0c-0.1,0.4-0.3,0.8-0.7,1.2
																c-0.5,0.5-1.2,0.7-2,0.7c-0.6,0-1.2-0.1-1.8-0.4c-1.1-0.4-2.4-1.4-2.5-2.7l0-0.3c-0.1-1-0.1-1.8-0.3-2
																c-0.1-0.1-0.3,0-0.4,0c-0.2,0-0.4-0.1-0.4-0.3c0-0.2,0.1-0.4,0.3-0.4c0.3-0.1,0.7-0.1,1,0.1c0.5,0.4,0.5,1.1,0.6,2.5
																l0,0.3c0.1,0.8,0.8,1.6,2,2.1c1.2,0.5,2.4,0.4,3.1-0.2c0.8-0.7,0.6-1.7,0.2-3.2c-0.3-1-0.5-2.1-0.4-3.3
																c0-0.2,0-0.3,0-0.5c0.1-1.4,0.2-2.3-0.1-2.8c-0.2-0.2-0.6-0.4-1.2-0.4c-0.7-0.1-1.1-0.3-1.4-0.6c0,0,0,0,0,0
																c0,0,0,0,0,0c0,0,0,0,0,0c0,0,0,0,0,0c-0.2-0.3-0.3-0.6-0.4-0.9c-0.1-0.4-0.2-0.7-0.5-0.8c-1-0.5-2.5,0.4-2.5,0.4
																c-0.1,0.1-0.2,0.1-0.3,0c-0.7,0.6-2.7,2.5-4.1,5.5c-0.1,0.2-0.2,0.3-0.2,0.5c0.1-0.2,0.2-0.3,0.2-0.5
																c0,0,0,0.1,0,0.1c0,0,0.2,1.8,1.1,1.8c0,0,0,0,0,0c0.4,0,0.6-0.7,0.7-1.6c0.1-0.8,0.3-1.6,0.7-2.1
																c1.3-1.5,3.2-1.9,5.3-1c0.2,0.1,0.3,0.3,0.2,0.5c-0.1,0.2-0.3,0.3-0.5,0.2c-1.8-0.8-3.3-0.5-4.4,0.8c0,0,0,0,0,0
																c0.7-0.2,1.4-0.1,2,0.5c0.3,0.3,0.5,0.8,0.7,1.3c0.4,1,0.7,1.7,1.6,1.7c0.3,0,0.5-0.1,0.6-0.2
																c0.3-0.4,0.1-1.3,0.1-1.6c-0.1-0.2,0.1-0.4,0.2-0.5c0.2-0.1,0.4,0.1,0.5,0.2c0,0.1,0.4,1.4-0.2,2.2
																c-0.2,0.2-0.5,0.5-1.2,0.5c0,0,0,0,0,0c-1.4,0-1.9-1.2-2.2-2.1c-0.2-0.4-0.3-0.8-0.5-1c-0.2-0.2-0.8-0.8-1.9,0.1
																c-0.1,0.2-0.1,0.5-0.1,0.7c-0.2,1-0.4,2.2-1.4,2.2c0,0-0.1,0-0.1,0c-0.9,0-1.4-0.8-1.6-1.5c-0.1,0.4-0.3,0.7-0.4,1.1
																c0,0,0,0,0,0c-0.3,1-0.5,2.1-0.6,3.3c0,0.1,0,0.2,0,0.3c0-0.1,0-0.2,0-0.3c0.5,0.5,1.2,0.6,1.9,0.6
																c1.3,0,2.5-0.5,2.5-0.5c0.2-0.1,0.4,0,0.5,0.2c0.1,0.2,0,0.4-0.2,0.5c-0.1,0-1.4,0.6-2.8,0.6
																C324.3,350.4,323.6,350.3,323,349.9z M350.9,339.7c-0.1-0.2-0.1-0.4,0.1-0.5c0.2-0.1,0.4-0.1,0.5,0.1
																c0,0,0.4,0.6,0.9,0.7c0.2,0,0.5-0.1,0.8-0.3c0.8-0.7,0.6-3.3,0.3-4.8c0-0.2,0.1-0.4,0.3-0.4c0.2,0,0.4,0.1,0.4,0.3
																c0.1,0.4,0.8,4.3-0.6,5.5c0,0,0,0,0,0c0.5,0.4,1.2,0.8,1.8,0.8c0.8-0.1,1.4-1.4,1.6-1.8c0.1-0.2,0.3-0.3,0.5-0.2
																c0.2,0.1,0.3,0.3,0.2,0.5c-0.1,0.2-0.8,2.2-2.2,2.3c-0.1,0-0.2,0-0.2,0c-1,0-2-0.8-2.4-1.1c-0.1,0-0.3,0.1-0.4,0.1
																c-0.1,0-0.2,0-0.2,0C351.4,340.6,350.9,339.7,350.9,339.7z M334.2,355.1c1.4-0.3,2.6,0.2,3.9,0.7
																c0.8,0.3,1.7,0.7,2.7,0.9c2.5,0.6,4.8-1.8,4.8-1.8c0.1-0.1,0.4-0.2,0.5,0c0.1,0.1,0.2,0.4,0,0.5
																c-0.1,0.1-2,2.1-4.5,2.1c-0.3,0-0.6,0-1-0.1c-1.1-0.2-2.1-0.6-2.9-1l0,0c-1,0-1.8,0.9-1.8,0.9
																c-0.1,0.1-0.2,0.1-0.3,0.1c-0.1,0-0.2,0-0.2-0.1c-0.2-0.1-0.2-0.4,0-0.5c0,0,0.5-0.5,1.2-0.9
																c-0.8-0.3-1.5-0.4-2.3-0.2c-0.2,0-0.4-0.1-0.4-0.3C333.9,355.3,334,355.1,334.2,355.1z M328.1,356.1
																c0.8,0,1-1.4,1.1-1.4c0-0.2,0.2-0.3,0.4-0.3c0.2,0,0.3,0.2,0.3,0.4c-0.1,0.5-0.4,1.3-1,1.7l0,0
																c0.6,0.3,1.2,0.3,2.1,0c0.2-0.1,0.4,0.1,0.4,0.3c0.1,0.2-0.1,0.4-0.3,0.4c-0.5,0.1-0.9,0.2-1.3,0.2
																c-0.8,0-1.4-0.3-2.1-0.7c0,0,0,0,0,0c-0.3-0.2-0.5-0.4-0.8-0.6l0,0c-1.1-0.8-2.3-0.4-2.6-0.3
																c-0.1-0.2-0.2-0.4-0.3-0.6c0.1-0.1,1.8-0.7,3.3,0.4l0,0C327.7,355.8,327.9,355.9,328.1,356.1z"/>
														</g>
													</g>
												</g>
											</g>
										</g>
									</g>
								</g>
							</g>
						</g>
						<g>
							<g>
								<g>
									<g>
										<path class="st11" d="M476.7,331.9h-77.5c-0.8,0-1.5-0.7-1.5-1.5s0.7-1.5,1.5-1.5h77.5c0.8,0,1.5,0.7,1.5,1.5
											S477.6,331.9,476.7,331.9z"/>
									</g>
								</g>
								<g>
									<g>
										<path class="st11" d="M476.7,343.1h-77.5c-0.8,0-1.5-0.7-1.5-1.5c0-0.8,0.7-1.5,1.5-1.5h77.5c0.8,0,1.5,0.7,1.5,1.5
											C478.2,342.4,477.6,343.1,476.7,343.1z"/>
									</g>
								</g>
								<g>
									<g>
										<path class="st11" d="M476.7,353.9h-77.5c-0.8,0-1.5-0.7-1.5-1.5s0.7-1.5,1.5-1.5h77.5c0.8,0,1.5,0.7,1.5,1.5
											S477.6,353.9,476.7,353.9z"/>
									</g>
								</g>
							</g>
							<g>
								<g>
									<g>
										<path class="st11" d="M476.7,365h-77.5c-0.8,0-1.5-0.7-1.5-1.5c0-0.8,0.7-1.5,1.5-1.5h77.5c0.8,0,1.5,0.7,1.5,1.5
											C478.2,364.4,477.6,365,476.7,365z"/>
									</g>
								</g>
							</g>
						</g>
					</g>
					<g>
						<g>
							<g>
								<g>
									<g>
										<path class="st11" d="M468.6,250h-75.2c-0.8,0-1.5-0.7-1.5-1.5c0-0.8,0.7-1.5,1.5-1.5h75.2c0.8,0,1.5,0.7,1.5,1.5
											C470.1,249.3,469.4,250,468.6,250z"/>
									</g>
								</g>
								<g>
									<g>
										<path class="st11" d="M468.6,261.1h-75.2c-0.8,0-1.5-0.7-1.5-1.5s0.7-1.5,1.5-1.5h75.2c0.8,0,1.5,0.7,1.5,1.5
											S469.4,261.1,468.6,261.1z"/>
									</g>
								</g>
								<g>
									<g>
										<path class="st11" d="M468.6,272h-75.2c-0.8,0-1.5-0.7-1.5-1.5c0-0.8,0.7-1.5,1.5-1.5h75.2c0.8,0,1.5,0.7,1.5,1.5
											C470.1,271.3,469.4,272,468.6,272z"/>
									</g>
								</g>
							</g>
							<g>
								<g>
									<g>
										<path class="st11" d="M468.6,283.1h-75.2c-0.8,0-1.5-0.7-1.5-1.5s0.7-1.5,1.5-1.5h75.2c0.8,0,1.5,0.7,1.5,1.5
											S469.4,283.1,468.6,283.1z"/>
									</g>
								</g>
							</g>
						</g>
						<g>
							<g>
								<g>
									<circle class="st1" cx="348" cy="265.3" r="35.1"/>
								</g>
							</g>
							<g>
								<g>
									<g>
										<g>
											<g>
												<g>
													<path class="st11" d="M366.7,258.3l-6.7,12.2L337.2,258l6.7-12.2c3.4-6.3,11.4-8.6,17.7-5.2c3.2,1.7,5.3,4.6,6.3,7.8
														C368.7,251.6,368.4,255.2,366.7,258.3z"/>
												</g>
											</g>
										</g>
									</g>
									<g>
										<g>
											<g>
												<g>
													<path class="st2" d="M336,260.2l22.9,12.5l-6.7,12.2c-3.4,6.3-11.4,8.6-17.7,5.2c-6.3-3.4-8.6-11.4-5.2-17.7L336,260.2
														z"/>
												</g>
											</g>
										</g>
									</g>
								</g>
							</g>
						</g>
					</g>
					<g>
						<g>
							<g>
								<g>
									<g>
										<path class="st11" d="M469.7,172h-77.5c-0.8,0-1.5-0.7-1.5-1.5c0-0.8,0.7-1.5,1.5-1.5h77.5c0.8,0,1.5,0.7,1.5,1.5
											C471.2,171.4,470.6,172,469.7,172z"/>
									</g>
								</g>
								<g>
									<g>
										<path class="st11" d="M469.7,183.2h-77.5c-0.8,0-1.5-0.7-1.5-1.5c0-0.8,0.7-1.5,1.5-1.5h77.5c0.8,0,1.5,0.7,1.5,1.5
											C471.2,182.5,470.6,183.2,469.7,183.2z"/>
									</g>
								</g>
								<g>
									<g>
										<path class="st11" d="M469.7,194h-77.5c-0.8,0-1.5-0.7-1.5-1.5c0-0.8,0.7-1.5,1.5-1.5h77.5c0.8,0,1.5,0.7,1.5,1.5
											C471.2,193.4,470.6,194,469.7,194z"/>
									</g>
								</g>
							</g>
							<g>
								<g>
									<g>
										<path class="st11" d="M469.7,205.2h-77.5c-0.8,0-1.5-0.7-1.5-1.5s0.7-1.5,1.5-1.5h77.5c0.8,0,1.5,0.7,1.5,1.5
											S470.6,205.2,469.7,205.2z"/>
									</g>
								</g>
							</g>
						</g>
						<g>
							<g>
								<g>
									<circle class="st1" cx="347.5" cy="187" r="35.1"/>
								</g>
							</g>
							<g>
								<g>
									<g>
										<g>
											<g>
												<g>
													<g>
														<g>
															<g>
																<path class="st2" d="M359.3,167.3h-23.6c-0.4,0-0.8-0.4-0.8-0.8c0-0.4,0.4-0.8,0.8-0.8h23.6c0.4,0,0.8,0.4,0.8,0.8
																	C360.1,167,359.7,167.3,359.3,167.3z"/>
															</g>
														</g>
													</g>
												</g>
											</g>
											<g>
												<g>
													<g>
														<g>
															<g>
																<path class="st2" d="M359.3,174h-23.6c-0.4,0-0.8-0.4-0.8-0.8s0.4-0.8,0.8-0.8h23.6c0.4,0,0.8,0.4,0.8,0.8
																	S359.7,174,359.3,174z"/>
															</g>
														</g>
													</g>
												</g>
											</g>
											<g>
												<g>
													<g>
														<g>
															<g>
																<path class="st2" d="M359.3,180.8h-23.6c-0.4,0-0.8-0.4-0.8-0.8s0.4-0.8,0.8-0.8h23.6c0.4,0,0.8,0.4,0.8,0.8
																	S359.7,180.8,359.3,180.8z"/>
															</g>
														</g>
													</g>
												</g>
											</g>
											<g>
												<g>
													<g>
														<g>
															<g>
																<path class="st2" d="M359.3,194.2h-23.6c-0.4,0-0.8-0.4-0.8-0.8s0.4-0.8,0.8-0.8h23.6c0.4,0,0.8,0.4,0.8,0.8
																	S359.7,194.2,359.3,194.2z"/>
															</g>
														</g>
													</g>
												</g>
											</g>
											<g>
												<g>
													<g>
														<g>
															<g>
																<path class="st2" d="M359.3,200.9h-23.6c-0.4,0-0.8-0.4-0.8-0.8s0.4-0.8,0.8-0.8h23.6c0.4,0,0.8,0.4,0.8,0.8
																	S359.7,200.9,359.3,200.9z"/>
															</g>
														</g>
													</g>
												</g>
											</g>
											<g>
												<g>
													<g>
														<g>
															<g>
																<path class="st2" d="M359.3,207.6h-23.6c-0.4,0-0.8-0.4-0.8-0.8c0-0.4,0.4-0.8,0.8-0.8h23.6c0.4,0,0.8,0.4,0.8,0.8
																	C360.1,207.3,359.7,207.6,359.3,207.6z"/>
															</g>
														</g>
													</g>
												</g>
											</g>
										</g>
										<g>
											<g>
												<g>
													<g>
														<g>
															<path class="st11" d="M340.5,182c-1.5,0.6-2.7,1.2-3.6,1.8c-0.8-0.6-1.5-1.3-2.1-2c-5.9-6.9-4.2-18.2-4.1-18.7
																c0.1-0.9,1-1.6,2-1.4c0.9,0.1,1.6,1,1.4,2c0,0-0.2,1.6-0.2,3.7c0,3.5,0.6,8.7,3.6,12.2
																C338.2,180.6,339.3,181.4,340.5,182z"/>
														</g>
													</g>
												</g>
											</g>
											<g>
												<g>
													<g>
														<g>
															<path class="st11" d="M364.4,208.5c-0.1,0.9-0.9,1.5-1.7,1.5c-0.1,0-0.1,0-0.2,0c-0.9-0.1-1.6-1-1.5-1.9
																c0-0.1,1.3-11.1-4-17.1c-0.8-0.9-1.7-1.6-2.7-2.2c1.2-0.4,2.5-0.9,3.7-1.6c0.5,0.5,1.1,1,1.6,1.5
																C365.9,195.8,364.5,207.9,364.4,208.5z"/>
														</g>
													</g>
												</g>
											</g>
										</g>
										<g>
											<g>
												<g>
													<g>
														<path class="st11" d="M332.2,210c-0.9,0-1.6-0.6-1.7-1.5c-0.1-0.5-1.5-12.6,4.8-19.8c3-3.4,7.1-5.1,12.4-5.1
															c4.3,0,7.6-1.3,9.9-3.9c4.9-5.7,3.4-15.8,3.3-15.9c-0.1-0.9,0.5-1.8,1.4-2c0.9-0.1,1.8,0.5,2,1.4
															c0.1,0.5,1.8,11.8-4.1,18.7c-2.9,3.4-7.1,5.2-12.5,5.2c-4.2,0-7.5,1.3-9.8,3.9c-5.3,6-4,17-4,17.1
															c0.1,0.9-0.6,1.8-1.5,1.9C332.4,210,332.3,210,332.2,210z"/>
													</g>
												</g>
											</g>
										</g>
									</g>
								</g>
							</g>
						</g>
					</g>
				</g>
				<g>
					<g>
						<g>
							<path class="st2" d="M972.9,386.1h-37c-1.9,0-3.5-1.6-3.5-3.5V269.3c0-1.9,1.6-3.5,3.5-3.5h37c1.9,0,3.5,1.6,3.5,3.5v113.4
								C976.4,384.6,974.8,386.1,972.9,386.1z"/>
						</g>
					</g>
					<g>
						<g>
							<path class="st6" d="M931.1,341.8h1.3v-38.2h-1.3c-2,0-3.6,1.6-3.6,3.6v31.1C927.5,340.2,929.1,341.8,931.1,341.8z"/>
						</g>
					</g>
					<g>
						<g>
							<g>
								<g>
									<circle class="st13" cx="954.5" cy="363.3" r="14.8"/>
								</g>
							</g>
							<g>
								<g>
									<g>
										<g>
											<path class="st2" d="M961.4,371.8c-0.4,0-0.8-0.2-1.1-0.5l-13.9-13.9c-0.6-0.6-0.6-1.6,0-2.2c0.6-0.6,1.6-0.6,2.2,0
												l13.9,13.9c0.6,0.6,0.6,1.6,0,2.2C962.2,371.7,961.8,371.8,961.4,371.8z"/>
										</g>
									</g>
								</g>
								<g>
									<g>
										<g>
											<path class="st2" d="M947.5,371.8c-0.4,0-0.8-0.2-1.1-0.5c-0.6-0.6-0.6-1.6,0-2.2l13.9-13.9c0.6-0.6,1.6-0.6,2.2,0
												c0.6,0.6,0.6,1.6,0,2.2l-13.9,13.9C948.3,371.7,947.9,371.8,947.5,371.8z"/>
										</g>
									</g>
								</g>
							</g>
						</g>
						<g>
							<g>
								<g>
									<path d="M969.5,318.4h-30c-1.1,0-1.9,0.9-1.9,1.9v16.6c0,1.1,0.9,1.9,1.9,1.9h30c1.1,0,1.9-0.9,1.9-1.9v-16.6
										C971.4,319.2,970.5,318.4,969.5,318.4z M942.7,326c-1.4,0-2.6-1.2-2.6-2.6c0-1.4,1.2-2.6,2.6-2.6c1.4,0,2.6,1.2,2.6,2.6
										C945.3,324.8,944.2,326,942.7,326z M954.5,335.5c-4,0-7.2-3.2-7.2-7.2c0-4,3.2-7.2,7.2-7.2c4,0,7.2,3.2,7.2,7.2
										C961.6,332.3,958.4,335.5,954.5,335.5z"/>
								</g>
							</g>
							<g>
								<g>
									<path d="M961.4,313.9v4.4h-3.5v-2.2c0-0.2-0.2-0.4-0.4-0.4h-6.1c-0.2,0-0.4,0.2-0.4,0.4v2.2h-3.5v-4.4
										c0-0.5,0.4-0.9,0.9-0.9h12.1C961,313,961.4,313.4,961.4,313.9z"/>
								</g>
							</g>
						</g>
						<g>
							<g>
								<g>
									<path d="M956.7,295h-4.3c-1.1,0-1.9-0.9-1.9-1.9v-17.3c0-1.1,0.9-1.9,1.9-1.9h4.3c1.1,0,1.9,0.9,1.9,1.9v17.3
										C958.6,294.1,957.7,295,956.7,295z"/>
								</g>
							</g>
							<g>
								<g>
									<path d="M955,300h-0.9c-0.2,0-0.4-0.2-0.4-0.4v-9.1c0-0.2,0.2-0.4,0.4-0.4h0.9c0.2,0,0.4,0.2,0.4,0.4v9.1
										C955.4,299.8,955.2,300,955,300z"/>
								</g>
							</g>
							<g>
								<g>
									<path d="M961.9,300.8h-14.6c-0.5,0-0.8-0.4-0.8-0.8v-1.8c0-0.5,0.4-0.8,0.8-0.8h14.6c0.5,0,0.8,0.4,0.8,0.8v1.8
										C962.7,300.4,962.3,300.8,961.9,300.8z"/>
								</g>
							</g>
						</g>
					</g>
				</g>
				<g>
					<g>
						<g>
							<g>
								<circle class="st1" cx="795.2" cy="248.5" r="16.4"/>
							</g>
						</g>
						<g>
							<g>
								<g>
									<path class="st2" d="M791,257.5c-0.3,0-0.6-0.1-0.9-0.3l-4.4-3.9c-0.5-0.5-0.6-1.3-0.1-1.9c0.5-0.5,1.3-0.6,1.9-0.1l3.4,3
										l11.9-14.3c0.5-0.6,1.3-0.6,1.9-0.2c0.6,0.5,0.6,1.3,0.2,1.9l-12.8,15.4c-0.2,0.3-0.6,0.5-0.9,0.5
										C791.1,257.5,791.1,257.5,791,257.5z"/>
								</g>
							</g>
						</g>
					</g>
					<g>
						<g>
							<g>
								<circle class="st1" cx="836.3" cy="248.5" r="16.4"/>
							</g>
						</g>
						<g>
							<g>
								<g>
									<path class="st2" d="M832.1,257.5c-0.3,0-0.6-0.1-0.9-0.3l-4.4-3.9c-0.5-0.5-0.6-1.3-0.1-1.9c0.5-0.5,1.3-0.6,1.9-0.1
										l3.4,3l11.9-14.3c0.5-0.6,1.3-0.6,1.9-0.2c0.6,0.5,0.6,1.3,0.2,1.9l-12.8,15.4c-0.2,0.3-0.6,0.5-0.9,0.5
										C832.2,257.5,832.2,257.5,832.1,257.5z"/>
								</g>
							</g>
						</g>
					</g>
					<g>
						<g>
							<g>
								<circle class="st1" cx="878" cy="248.5" r="16.4"/>
							</g>
						</g>
						<g>
							<g>
								<g>
									<path class="st2" d="M885.5,239.9c0.5-0.6,1.3-0.6,1.9-0.2c0.6,0.5,0.6,1.3,0.2,1.9l-12.8,15.4c-0.2,0.3-0.6,0.5-0.9,0.5
										c0,0-0.1,0-0.1,0c-0.3,0-0.6-0.1-0.9-0.3l-4.4-3.9c-0.5-0.5-0.6-1.3-0.1-1.9c0.5-0.5,1.3-0.6,1.9-0.1l3.4,3"/>
								</g>
							</g>
						</g>
					</g>
				</g>
				<g>
					<g>
						<g>
							<g>
								<g>
									<g>
										<g>
											<path class="st5" d="M795.2,175c-1.2,15.6-23.1,33.5-31.7,39.8c-2,1.4-4.6,1.4-6.6,0c-8.6-6.3-30.5-24.2-31.7-39.8
												c-1.5-19.4,22.5-29.8,35-9.1C772.7,145.3,796.7,155.7,795.2,175z"/>
										</g>
									</g>
									<g>
										<g>
											<g>
												<path class="st19" d="M790,180.2c-0.1,0.3-0.4,0.6-0.7,0.6h-6.4c-0.3,0-0.6-0.2-0.7-0.5l-0.3-0.8l-1.6-4.2l-1.3,3.3
													c-0.1,0.3-0.3,0.4-0.6,0.4h-3.9c-0.3,0-0.5-0.2-0.6-0.4l-1.2-3.1l-4.6,11.6c-0.1,0.3-0.3,0.4-0.6,0.4
													c-0.3,0-0.5-0.2-0.6-0.4l-2.3-5.9l-6.8,17.3c-0.1,0.3-0.3,0.4-0.6,0.4c-0.3,0-0.5-0.2-0.6-0.4l-7.3-18.6h-2.8
													c-0.3,0-0.5-0.2-0.6-0.4l-1.5-3.7l-1.8,4.5c-0.1,0.3-0.3,0.4-0.6,0.4h-10.6c-0.3,0-0.6-0.2-0.7-0.6
													c-0.1-0.4,0.3-0.8,0.7-0.8h10.2l2.2-5.6c0.1-0.3,0.3-0.4,0.6-0.4c0.3,0,0.5,0.2,0.6,0.4l1.9,4.8h2.8
													c0.3,0,0.5,0.2,0.6,0.4l6.9,17.4l6.8-17.3c0.1-0.3,0.3-0.4,0.6-0.4c0.3,0,0.5,0.2,0.6,0.4l2.3,5.9l4.6-11.6
													c0.1-0.3,0.3-0.4,0.6-0.4c0.3,0,0.5,0.2,0.6,0.4l1.7,4.3h3l1.8-4.5c0.1-0.3,0.3-0.4,0.6-0.4c0.3,0,0.5,0.2,0.6,0.4
													l2.4,6.2h6C789.7,179.4,790,179.8,790,180.2z"/>
											</g>
										</g>
									</g>
								</g>
							</g>
						</g>
					</g>
					<g>
						<g>
							<g>
								<g>
									<path class="st11" d="M892.7,166.6h-77.5c-0.8,0-1.5-0.7-1.5-1.5s0.7-1.5,1.5-1.5h77.5c0.8,0,1.5,0.7,1.5,1.5
										S893.5,166.6,892.7,166.6z"/>
								</g>
							</g>
							<g>
								<g>
									<path class="st11" d="M892.7,177.7h-77.5c-0.8,0-1.5-0.7-1.5-1.5c0-0.8,0.7-1.5,1.5-1.5h77.5c0.8,0,1.5,0.7,1.5,1.5
										C894.2,177.1,893.5,177.7,892.7,177.7z"/>
								</g>
							</g>
							<g>
								<g>
									<path class="st11" d="M892.7,188.6h-77.5c-0.8,0-1.5-0.7-1.5-1.5c0-0.8,0.7-1.5,1.5-1.5h77.5c0.8,0,1.5,0.7,1.5,1.5
										C894.2,187.9,893.5,188.6,892.7,188.6z"/>
								</g>
							</g>
						</g>
						<g>
							<g>
								<g>
									<path class="st11" d="M892.7,199.7h-77.5c-0.8,0-1.5-0.7-1.5-1.5c0-0.8,0.7-1.5,1.5-1.5h77.5c0.8,0,1.5,0.7,1.5,1.5
										C894.2,199.1,893.5,199.7,892.7,199.7z"/>
								</g>
							</g>
						</g>
					</g>
				</g>
				<g>
					<g>
						<g>
							<g>
								<g>
									<path class="st2" d="M942.7,207.1c-0.3-0.1-0.6-0.2-0.8-0.5l-5.9-8.3c0,0-0.1,0-0.1,0l-5,3.6c-0.3,0.2-0.8,0.3-1.2,0.1
										c-0.4-0.2-0.7-0.5-0.7-0.9l-3-21c-0.1-0.4,0.1-0.9,0.5-1.2c0.4-0.3,0.8-0.3,1.3-0.1l19,9.5c0.4,0.2,0.6,0.6,0.7,1
										c0,0.4-0.2,0.8-0.5,1.1l-5,3.6c0,0,0,0,0,0.1c0,0,0,0,0,0.1l5.9,8.3c0.2,0.3,0.3,0.6,0.2,0.9c-0.1,0.3-0.2,0.6-0.5,0.8
										l-3.9,2.8C943.4,207.1,943.1,207.2,942.7,207.1C942.8,207.1,942.8,207.1,942.7,207.1z"/>
								</g>
							</g>
						</g>
					</g>
				</g>
			</g>
		</g>
	</g>
</g>
</svg>
