<?xml version="1.0" encoding="utf-8"?>
<!-- Generator: Adobe Illustrator 19.2.1, SVG Export Plug-In . SVG Version: 6.00 Build 0)  -->
<svg version="1.1" id="Layer_1" xmlns="http://www.w3.org/2000/svg" xmlns:xlink="http://www.w3.org/1999/xlink" x="0px" y="0px"
	 viewBox="0 0 1262 500" style="enable-background:new 0 0 1262 500;" xml:space="preserve">
<style type="text/css">
	.st0{fill:#AFCDFB;}
	.st1{fill:#CDE0FB;}
	.st2{fill:#699DEE;}
	.st3{fill:#FFFFFF;}
	.st4{fill:#F99746;}
	.st5{fill:#ED985F;}
	.st6{fill:#233862;}
	.st7{fill:#FFB27D;}
	.st8{fill:#B5453C;}
	.st9{fill:#DD6D22;}
	.st10{fill:#9E332E;}
	.st11{fill:#ED7D2B;}
	.st12{fill:#F4A269;}
	.st13{fill:#C65447;}
	.st14{fill:#EF7E29;}
	.st15{fill:#1C468A;}
	.st16{fill:#163560;}
	.st17{fill:#2B478B;}
	.st18{fill:#ED975D;}
	.st19{clip-path:url(#SVGID_2_);}
	.st20{fill:#B56F40;}
	.st21{fill:#99592E;}
	.st22{fill:#B64C41;}
	.st23{clip-path:url(#SVGID_4_);}
	.st24{fill:#E39B6B;}
	.st25{clip-path:url(#SVGID_6_);}
	.st26{clip-path:url(#SVGID_8_);}
	.st27{fill:#2C3A64;}
	.st28{fill:#A53D38;}
	.st29{clip-path:url(#SVGID_10_);}
	.st30{font-family:'Futura-Medium';}
	.st31{font-size:22.1377px;}
</style>
<g>
	<g>
		<path class="st0" d="M547.8,271.5c0,0,37.1-63.2,54.7-56C620,222.6,547.8,271.5,547.8,271.5z"/>
		<path class="st0" d="M546.8,281.9c0,0,82.7-69.8,111.7-53.7c28.9,16-20.4,27.2-39.1,29.8C600.7,260.6,546.8,281.9,546.8,281.9z"/>
		<path class="st0" d="M539.8,272.6c0,0-0.2-2.5-0.6-6.2c-0.8-7.2-2.1-18.7-3.5-24.6c-2-8.8,3.2-17,13.4-10.4
			c10.2,6.7-7.1,37.9-7.1,37.9L539.8,272.6z"/>
	</g>
	<path class="st1" d="M639.3,444.3c-6.3-19.2,24.5-32.1,24.5-32.1s37.3,16.3,43.2,13.4c5.9-2.9-29.2-20.1-29.2-20.1
		c9.8-7.9,45.1-12.6,45.1-12.6s20.1,34.3,25.1,30.1c5-4.2-19.3-29.5-19.3-29.5c12.2-3.6,29.4,2,29.4,2c24.5,11.6,8.4,42.5,8.4,42.5
		s7.2,11.8,23,20.3h0c0,0,3.2,1.4,7.6,4.5l-2.8,1.8c-0.7-0.6-1.4-1.2-2.2-1.7c0,0,0,0,0,0c0,0,0,0,0,0c-0.5-0.3-1.1-0.7-2-1.3
		c0,0,0,0,0,0c0,0,0,0,0,0c-1.9-1.1-3.3-2-4.3-2.6c0,0,0,0,0,0c-5.9-3.5-14.1-7.9-17.4-7.8c0,0,0-0.6-0.2-1.7
		c0.1,0.5,0.2,1.1,0.2,1.7c1.9,13.3-20.7,30.5-35.7,36.5c-15,5.9-11.7-1.6-8.5-12.3c3.2-10.7,19.1-18.9,22-24.2
		c2.9-5.3-5.1-3.4-13.5,3c-8.4,6.5-7,18.2-20.4,28.8c-13.4,10.7-41.8-9-41.8-9c11.8-3.4,25.9-20.4,24.4-24.2
		c-1.5-3.8-27.4,13.6-32.2,15.3C658,467,645.6,463.5,639.3,444.3z"/>
	<path class="st1" d="M810.3,237.8c23.8-18.1,56.9,18.7,56.9,18.7s-4.6,60.2,2.3,67c6.9,6.8,13.9-50.7,13.9-50.7
		c15.9,9.9,39.6,57,39.6,57s-38.3,44.9-29.9,49.8c8.4,4.9,31.9-41.5,31.9-41.5c11,15.3,11.5,42.2,11.5,42.2
		c-4.2,40-55.3,32.5-55.3,32.5s-12.9,15.8-17.2,42.1v0c0,0-0.4,5.2-2.6,12.8l-3.9-3c0.5-1.3,0.9-2.6,1.3-3.8c0,0,0,0,0,0
		c0,0,0,0,0-0.1c0.2-0.8,0.5-2,0.8-3.4c0,0,0,0,0,0c0,0,0,0,0,0c0.6-3.2,1.1-5.6,1.6-7.2c0,0,0,0,0,0c2.1-10.1,4.2-23.5,2.4-28.2
		c0,0,0.9-0.3,2.2-1.1c-0.7,0.4-1.4,0.7-2.2,1.1c-17.7,9.2-52.9-14.1-68.5-32.2c-15.7-18.1-3.5-17.1,13-17.9
		c16.5-0.8,35.8,17.5,44.6,19c8.8,1.4,2.3-8.9-10.9-17.4c-13.1-8.6-28.8-0.9-50.3-14.4c-21.5-13.5-7.8-62.9-7.8-62.9
		c10.5,14.9,41.2,26.3,45.8,22.3c4.6-4-32.5-31.8-37.1-37.6C787.8,275.1,786.6,256,810.3,237.8z"/>
	<path class="st2" d="M978.2,496.3H416.7V152.9c0-10,8.1-18.1,18.1-18.1h525.3c10,0,18.1,8.1,18.1,18.1V496.3z"/>
	<rect x="423.2" y="167.5" class="st3" width="548.4" height="320.8"/>
	<g>
		<path class="st2" d="M526.3,331.2c-1.2,0-2.4,0-3.6-0.1c-0.6,0-1.1-0.6-1.1-1.2c0-0.6,0.6-1.1,1.2-1.1c2.3,0.1,4.6,0.1,6.9,0
			c0.6,0,1.2,0.4,1.2,1.1c0,0.6-0.4,1.2-1.1,1.2C528.8,331.2,527.6,331.2,526.3,331.2z M515.8,330.3c-0.1,0-0.1,0-0.2,0
			c-2.4-0.4-4.7-0.9-7-1.5c-0.6-0.2-1-0.8-0.8-1.4c0.2-0.6,0.8-1,1.4-0.8c2.2,0.6,4.5,1.1,6.8,1.5c0.6,0.1,1,0.7,0.9,1.3
			C516.9,329.9,516.4,330.3,515.8,330.3z M536.9,330.3c-0.5,0-1-0.4-1.1-1c-0.1-0.6,0.3-1.2,0.9-1.3c2.3-0.4,4.6-0.9,6.8-1.5
			c0.6-0.2,1.2,0.2,1.4,0.8c0.2,0.6-0.2,1.2-0.8,1.4c-2.3,0.6-4.7,1.2-7,1.5C537,330.3,537,330.3,536.9,330.3z M502.3,326.6
			c-0.1,0-0.3,0-0.4-0.1c-2.2-0.9-4.4-1.9-6.5-3c-0.6-0.3-0.8-1-0.5-1.5c0.3-0.6,1-0.8,1.5-0.5c2,1.1,4.2,2.1,6.3,2.9
			c0.6,0.2,0.9,0.9,0.6,1.5C503.1,326.3,502.7,326.6,502.3,326.6z M550.5,326.6c-0.5,0-0.9-0.3-1.1-0.7c-0.2-0.6,0.1-1.2,0.6-1.5
			c2.1-0.9,4.3-1.8,6.3-2.9c0.6-0.3,1.2-0.1,1.5,0.5c0.3,0.6,0.1,1.2-0.5,1.5c-2.1,1.1-4.3,2.1-6.5,3
			C550.8,326.5,550.6,326.6,550.5,326.6z M489.8,320c-0.2,0-0.4-0.1-0.6-0.2c-2-1.3-3.9-2.8-5.7-4.3c-0.5-0.4-0.5-1.1-0.1-1.6
			c0.4-0.5,1.1-0.5,1.6-0.1c1.8,1.5,3.6,2.9,5.5,4.2c0.5,0.4,0.7,1.1,0.3,1.6C490.5,319.8,490.2,320,489.8,320z M563,319.9
			c-0.4,0-0.7-0.2-0.9-0.5c-0.4-0.5-0.2-1.2,0.3-1.6c1.9-1.3,3.8-2.7,5.5-4.2c0.5-0.4,1.2-0.3,1.6,0.1c0.4,0.5,0.3,1.2-0.1,1.6
			c-1.8,1.5-3.7,3-5.7,4.3C563.4,319.9,563.2,319.9,563,319.9z M479.1,310.9c-0.3,0-0.6-0.1-0.8-0.4c-1.6-1.7-3.2-3.6-4.7-5.5
			c-0.4-0.5-0.3-1.2,0.2-1.6c0.5-0.4,1.2-0.3,1.6,0.2c1.4,1.8,2.9,3.6,4.5,5.3c0.4,0.5,0.4,1.2,0,1.6
			C479.6,310.8,479.3,310.9,479.1,310.9z M573.7,310.8c-0.3,0-0.6-0.1-0.8-0.3c-0.5-0.4-0.5-1.1,0-1.6c1.6-1.7,3.1-3.5,4.5-5.3
			c0.4-0.5,1.1-0.6,1.6-0.2c0.5,0.4,0.6,1.1,0.2,1.6c-1.4,1.9-3,3.7-4.7,5.5C574.3,310.7,574,310.8,573.7,310.8z M470.5,299.6
			c-0.4,0-0.8-0.2-1-0.5c-1.2-2-2.4-4.2-3.4-6.3c-0.3-0.6,0-1.2,0.6-1.5c0.6-0.3,1.2,0,1.5,0.6c1,2.1,2.1,4.1,3.3,6.1
			c0.3,0.5,0.2,1.2-0.4,1.6C470.9,299.6,470.7,299.6,470.5,299.6z M582.2,299.6c-0.2,0-0.4-0.1-0.6-0.2c-0.5-0.3-0.7-1-0.4-1.6
			c1.2-2,2.3-4,3.3-6.1c0.3-0.6,0.9-0.8,1.5-0.6c0.6,0.3,0.8,0.9,0.6,1.5c-1,2.2-2.1,4.3-3.4,6.3C583,299.4,582.6,299.6,582.2,299.6
			z M464.6,286.9c-0.5,0-0.9-0.3-1.1-0.8c-0.8-2.3-1.4-4.6-1.9-6.9c-0.1-0.6,0.3-1.2,0.9-1.4c0.6-0.1,1.2,0.3,1.4,0.9
			c0.5,2.2,1.1,4.5,1.9,6.7c0.2,0.6-0.1,1.2-0.7,1.4C464.8,286.8,464.7,286.9,464.6,286.9z M588.2,286.8c-0.1,0-0.2,0-0.4-0.1
			c-0.6-0.2-0.9-0.8-0.7-1.4c0.7-2.2,1.4-4.4,1.9-6.7c0.1-0.6,0.7-1,1.3-0.9c0.6,0.1,1,0.7,0.9,1.3c-0.5,2.3-1.2,4.7-1.9,6.9
			C589.1,286.5,588.6,286.8,588.2,286.8z M461.5,273.1c-0.6,0-1.1-0.4-1.1-1c-0.3-2.4-0.4-4.8-0.4-7.2c0-0.6,0.5-1.1,1.1-1.1h0
			c0.6,0,1.1,0.5,1.1,1.1c0,2.3,0.1,4.6,0.4,6.9c0.1,0.6-0.4,1.2-1,1.2C461.6,273.1,461.6,273.1,461.5,273.1z M591.2,273
			c0,0-0.1,0-0.1,0c-0.6-0.1-1.1-0.6-1-1.2c0.2-2.3,0.4-4.6,0.4-6.9v-0.1c0-0.6,0.5-1.1,1.1-1.1c0,0,0,0,0,0c0.6,0,1.1,0.5,1.1,1.1
			v0.1c0,2.4-0.1,4.8-0.4,7.2C592.2,272.6,591.7,273,591.2,273z M461.5,259c0,0-0.1,0-0.1,0c-0.6-0.1-1.1-0.6-1-1.2
			c0.3-2.4,0.6-4.8,1.1-7.1c0.1-0.6,0.7-1,1.3-0.9c0.6,0.1,1,0.7,0.9,1.3c-0.5,2.2-0.9,4.5-1.1,6.8C462.6,258.6,462.1,259,461.5,259
			z M591.2,258.8c-0.6,0-1.1-0.4-1.1-1c-0.3-2.3-0.6-4.6-1.1-6.8c-0.1-0.6,0.3-1.2,0.9-1.4c0.6-0.1,1.2,0.3,1.4,0.9
			c0.5,2.3,0.9,4.7,1.2,7.1c0.1,0.6-0.4,1.2-1,1.2C591.2,258.8,591.2,258.8,591.2,258.8z M464.5,245.2c-0.1,0-0.2,0-0.4-0.1
			c-0.6-0.2-0.9-0.8-0.7-1.4c0.8-2.3,1.7-4.5,2.7-6.7c0.3-0.6,0.9-0.8,1.5-0.6c0.6,0.3,0.8,0.9,0.6,1.5c-1,2.1-1.8,4.3-2.6,6.4
			C465.4,244.9,465,245.2,464.5,245.2z M588.1,245c-0.5,0-0.9-0.3-1.1-0.8c-0.7-2.2-1.6-4.3-2.6-6.4c-0.3-0.6,0-1.2,0.5-1.5
			c0.6-0.3,1.2,0,1.5,0.5c1,2.2,1.9,4.4,2.7,6.7c0.2,0.6-0.1,1.2-0.7,1.4C588.4,245,588.2,245,588.1,245z M470.4,232.4
			c-0.2,0-0.4-0.1-0.6-0.2c-0.5-0.3-0.7-1-0.4-1.6c1.2-2,2.6-4,4-5.9c0.4-0.5,1.1-0.6,1.6-0.2c0.5,0.4,0.6,1.1,0.2,1.6
			c-1.4,1.8-2.7,3.8-3.9,5.7C471.2,232.2,470.8,232.4,470.4,232.4z M582.2,232.3c-0.4,0-0.8-0.2-1-0.5c-1.2-2-2.5-3.9-3.9-5.7
			c-0.4-0.5-0.3-1.2,0.2-1.6c0.5-0.4,1.2-0.3,1.6,0.2c1.4,1.9,2.8,3.9,4,5.9c0.3,0.5,0.2,1.2-0.4,1.6
			C582.6,232.2,582.4,232.3,582.2,232.3z M479,221.2c-0.3,0-0.6-0.1-0.8-0.3c-0.5-0.4-0.5-1.1,0-1.6c1.6-1.7,3.4-3.4,5.2-4.9
			c0.5-0.4,1.2-0.3,1.6,0.1c0.4,0.5,0.3,1.2-0.1,1.6c-1.8,1.5-3.4,3.1-5,4.8C479.6,221.1,479.3,221.2,479,221.2z M573.6,221.1
			c-0.3,0-0.6-0.1-0.8-0.4c-1.6-1.7-3.3-3.3-5-4.8c-0.5-0.4-0.5-1.1-0.1-1.6c0.4-0.5,1.1-0.5,1.6-0.1c1.8,1.5,3.6,3.2,5.2,4.9
			c0.4,0.5,0.4,1.2,0,1.6C574.2,221,573.9,221.1,573.6,221.1z M489.7,212.1c-0.4,0-0.7-0.2-0.9-0.5c-0.4-0.5-0.2-1.2,0.3-1.6
			c2-1.3,4-2.6,6.1-3.7c0.6-0.3,1.2-0.1,1.5,0.5c0.3,0.6,0.1,1.2-0.5,1.5c-2,1.1-4,2.3-5.9,3.6C490.1,212,489.9,212.1,489.7,212.1z
			 M562.8,212c-0.2,0-0.4-0.1-0.6-0.2c-1.9-1.3-3.9-2.5-5.9-3.6c-0.6-0.3-0.8-1-0.5-1.5c0.3-0.6,1-0.8,1.5-0.5
			c2.1,1.1,4.2,2.4,6.2,3.7c0.5,0.4,0.7,1.1,0.3,1.6C563.6,211.8,563.2,212,562.8,212z M502.1,205.4c-0.4,0-0.9-0.3-1.1-0.7
			c-0.2-0.6,0-1.2,0.6-1.5c2.2-0.9,4.5-1.7,6.8-2.3c0.6-0.2,1.2,0.2,1.4,0.8c0.2,0.6-0.2,1.2-0.8,1.4c-2.2,0.6-4.4,1.4-6.6,2.2
			C502.4,205.4,502.3,205.4,502.1,205.4z M550.4,205.4c-0.1,0-0.3,0-0.4-0.1c-2.1-0.9-4.4-1.6-6.6-2.2c-0.6-0.2-1-0.8-0.8-1.4
			c0.2-0.6,0.8-1,1.4-0.8c2.3,0.6,4.6,1.4,6.8,2.3c0.6,0.2,0.9,0.9,0.6,1.5C551.3,205.1,550.8,205.4,550.4,205.4z M515.7,201.7
			c-0.5,0-1-0.4-1.1-0.9c-0.1-0.6,0.3-1.2,0.9-1.3c2.3-0.4,4.7-0.6,7.1-0.8c0.6,0,1.2,0.4,1.2,1.1c0,0.6-0.4,1.2-1.1,1.2
			c-2.3,0.1-4.6,0.4-6.9,0.8C515.8,201.7,515.8,201.7,515.7,201.7z M536.8,201.6c-0.1,0-0.1,0-0.2,0c-2.3-0.4-4.6-0.6-6.9-0.7
			c-0.6,0-1.1-0.6-1.1-1.2c0-0.6,0.6-1.1,1.2-1.1c2.4,0.1,4.8,0.4,7.1,0.8c0.6,0.1,1,0.7,0.9,1.3
			C537.8,201.2,537.3,201.6,536.8,201.6z"/>
	</g>
	<g>
		<path class="st2" d="M535.3,467.7c-1.2,0-2.4,0-3.5-0.1c-0.6,0-1.1-0.6-1-1.2c0-0.6,0.6-1.1,1.2-1c1.1,0.1,2.2,0.1,3.3,0.1
			c0,0,0,0,0,0c1.1,0,2.3,0,3.4-0.1c0.6,0,1.2,0.4,1.2,1c0,0.6-0.4,1.2-1,1.2C537.7,467.6,536.5,467.7,535.3,467.7z M525,466.5
			c-0.1,0-0.2,0-0.3,0c-2.3-0.5-4.6-1.2-6.8-2.1c-0.6-0.2-0.9-0.9-0.6-1.5c0.2-0.6,0.9-0.9,1.5-0.6c2.1,0.8,4.3,1.5,6.5,2
			c0.6,0.1,1,0.7,0.9,1.4C526,466.2,525.5,466.5,525,466.5z M545.6,466.5c-0.5,0-1-0.4-1.1-0.9c-0.1-0.6,0.2-1.2,0.9-1.4
			c2.2-0.5,4.4-1.2,6.4-2c0.6-0.2,1.2,0.1,1.5,0.6c0.2,0.6-0.1,1.2-0.6,1.5c-2.2,0.9-4.5,1.6-6.8,2.1
			C545.8,466.5,545.7,466.5,545.6,466.5z M512.2,461.5c-0.2,0-0.4,0-0.6-0.2c-2-1.2-4-2.5-5.9-4c-0.5-0.4-0.6-1.1-0.2-1.6
			c0.4-0.5,1.1-0.6,1.6-0.2c1.8,1.4,3.6,2.7,5.6,3.8c0.5,0.3,0.7,1,0.4,1.5C512.9,461.3,512.6,461.5,512.2,461.5z M558.4,461.5
			c-0.4,0-0.8-0.2-1-0.6c-0.3-0.5-0.1-1.2,0.4-1.5c1.9-1.1,3.8-2.4,5.6-3.8c0.5-0.4,1.2-0.3,1.6,0.2c0.4,0.5,0.3,1.2-0.2,1.6
			c-1.8,1.5-3.8,2.8-5.8,4C558.8,461.4,558.6,461.5,558.4,461.5z M501.4,452.9c-0.3,0-0.6-0.1-0.8-0.4c-1.6-1.7-3.1-3.6-4.4-5.5
			c-0.4-0.5-0.2-1.2,0.3-1.6c0.5-0.4,1.2-0.2,1.6,0.3c1.3,1.9,2.7,3.6,4.2,5.3c0.4,0.5,0.4,1.2-0.1,1.6
			C501.9,452.8,501.7,452.9,501.4,452.9z M569.2,452.9c-0.3,0-0.6-0.1-0.8-0.3c-0.5-0.4-0.5-1.1-0.1-1.6c1.5-1.6,2.9-3.4,4.2-5.3
			c0.4-0.5,1.1-0.6,1.6-0.3c0.5,0.4,0.6,1.1,0.3,1.6c-1.3,1.9-2.8,3.8-4.4,5.5C569.8,452.7,569.5,452.9,569.2,452.9z M493.6,441.5
			c-0.4,0-0.8-0.2-1-0.6c-1-2.1-1.9-4.3-2.6-6.6c-0.2-0.6,0.2-1.2,0.7-1.4c0.6-0.2,1.2,0.2,1.4,0.7c0.7,2.1,1.5,4.3,2.5,6.3
			c0.3,0.6,0,1.2-0.5,1.5C493.9,441.5,493.8,441.5,493.6,441.5z M577,441.5c-0.2,0-0.3,0-0.5-0.1c-0.6-0.3-0.8-0.9-0.5-1.5
			c1-2,1.8-4.1,2.5-6.3c0.2-0.6,0.8-0.9,1.4-0.7c0.6,0.2,0.9,0.8,0.7,1.4c-0.7,2.3-1.6,4.5-2.6,6.6
			C577.8,441.2,577.4,441.5,577,441.5z M489.5,428.3c-0.6,0-1-0.4-1.1-1c-0.3-2.3-0.5-4.7-0.5-7.1c0-0.6,0.5-1.1,1.1-1.1h0
			c0.6,0,1.1,0.5,1.1,1.1c0,2.3,0.2,4.5,0.5,6.7c0.1,0.6-0.3,1.2-1,1.3C489.6,428.3,489.6,428.3,489.5,428.3z M581.1,428.3
			c-0.1,0-0.1,0-0.2,0c-0.6-0.1-1-0.7-1-1.3c0.3-2.2,0.5-4.5,0.5-6.7l0-0.1c0-0.6,0.5-1.1,1.1-1.1c0.6,0,1.1,0.5,1.1,1.1v0.1
			c0,2.4-0.2,4.7-0.5,7.1C582.1,427.9,581.6,428.3,581.1,428.3z M489.5,414.5c-0.1,0-0.1,0-0.2,0c-0.6-0.1-1-0.7-1-1.3
			c0.3-2.3,0.9-4.7,1.6-6.9c0.2-0.6,0.8-0.9,1.4-0.8c0.6,0.2,0.9,0.8,0.8,1.4c-0.7,2.1-1.2,4.4-1.5,6.6
			C490.5,414.1,490.1,414.5,489.5,414.5z M581,414.4c-0.6,0-1-0.4-1.1-1c-0.3-2.2-0.8-4.4-1.5-6.6c-0.2-0.6,0.1-1.2,0.7-1.4
			c0.6-0.2,1.2,0.1,1.4,0.7c0.7,2.2,1.2,4.6,1.6,6.9c0.1,0.6-0.3,1.2-1,1.3C581.2,414.4,581.1,414.4,581,414.4z M493.6,401.3
			c-0.2,0-0.3,0-0.5-0.1c-0.6-0.3-0.8-0.9-0.5-1.5c1-2.1,2.2-4.2,3.5-6.1c0.4-0.5,1.1-0.7,1.6-0.3c0.5,0.4,0.7,1.1,0.3,1.6
			c-1.3,1.9-2.4,3.8-3.4,5.8C494.4,401.1,494,401.3,493.6,401.3z M577,401.2c-0.4,0-0.8-0.2-1-0.6c-1-2-2.1-4-3.4-5.8
			c-0.4-0.5-0.2-1.2,0.3-1.6c0.5-0.4,1.2-0.2,1.6,0.3c1.3,1.9,2.5,4,3.6,6.1c0.3,0.6,0,1.2-0.5,1.5
			C577.3,401.2,577.1,401.2,577,401.2z M501.3,389.9c-0.3,0-0.6-0.1-0.8-0.3c-0.5-0.4-0.5-1.1-0.1-1.6c1.6-1.7,3.3-3.4,5.2-4.8
			c0.5-0.4,1.2-0.3,1.6,0.2c0.4,0.5,0.3,1.2-0.2,1.6c-1.8,1.4-3.4,2.9-4.9,4.6C501.9,389.8,501.6,389.9,501.3,389.9z M569.2,389.8
			c-0.3,0-0.6-0.1-0.8-0.4c-1.5-1.6-3.2-3.2-5-4.6c-0.5-0.4-0.6-1.1-0.2-1.6c0.4-0.5,1.1-0.6,1.6-0.2c1.8,1.5,3.6,3.1,5.2,4.8
			c0.4,0.5,0.4,1.2-0.1,1.6C569.7,389.7,569.4,389.8,569.2,389.8z M512.1,381.3c-0.4,0-0.8-0.2-1-0.6c-0.3-0.5-0.1-1.2,0.4-1.5
			c2-1.2,4.2-2.2,6.4-3.1c0.6-0.2,1.2,0.1,1.5,0.6c0.2,0.6-0.1,1.2-0.6,1.5c-2.1,0.8-4.1,1.8-6.1,2.9
			C512.5,381.3,512.3,381.3,512.1,381.3z M558.4,381.2c-0.2,0-0.4,0-0.6-0.2c-1.9-1.1-4-2.1-6.1-2.9c-0.6-0.2-0.9-0.9-0.6-1.5
			c0.2-0.6,0.9-0.9,1.5-0.6c2.2,0.9,4.3,1.9,6.4,3.1c0.5,0.3,0.7,1,0.4,1.5C559.1,381,558.8,381.2,558.4,381.2z M524.9,376.3
			c-0.5,0-1-0.4-1.1-0.9c-0.1-0.6,0.2-1.2,0.9-1.4c2.3-0.5,4.6-0.9,7-1.1c0.6,0,1.2,0.4,1.2,1c0,0.6-0.4,1.2-1,1.2
			c-2.2,0.2-4.5,0.5-6.7,1C525.1,376.3,525,376.3,524.9,376.3z M545.5,376.2c-0.1,0-0.2,0-0.3,0c-2.2-0.5-4.4-0.8-6.7-1
			c-0.6,0-1.1-0.6-1-1.2c0-0.6,0.6-1.1,1.2-1c2.4,0.2,4.7,0.5,7,1c0.6,0.1,1,0.7,0.9,1.4C546.5,375.9,546,376.2,545.5,376.2z"/>
	</g>
	<g>
		<path class="st2" d="M860.9,476C860.9,476,860.8,476,860.9,476c-2.4-0.2-4.8-0.5-7.1-1c-0.6-0.1-1-0.7-0.9-1.3
			c0.1-0.6,0.7-1,1.3-0.9c2.2,0.5,4.5,0.8,6.7,0.9c0.6,0,1.1,0.6,1.1,1.2C862,475.6,861.5,476,860.9,476z M867.9,476
			c-0.6,0-1.1-0.5-1.1-1.1c0-0.6,0.4-1.2,1.1-1.2c2.3-0.2,4.5-0.5,6.7-0.9c0.6-0.1,1.2,0.3,1.3,0.9c0.1,0.6-0.3,1.2-0.9,1.3
			C872.7,475.5,870.3,475.9,867.9,476C867.9,476,867.9,476,867.9,476z M847.3,473.2c-0.1,0-0.3,0-0.4-0.1c-2.2-0.8-4.4-1.7-6.5-2.8
			c-0.6-0.3-0.8-1-0.5-1.5c0.3-0.6,1-0.8,1.5-0.5c2,1,4.1,2,6.2,2.7c0.6,0.2,0.9,0.9,0.7,1.4C848.2,472.9,847.7,473.2,847.3,473.2z
			 M881.5,473.2c-0.5,0-0.9-0.3-1.1-0.8c-0.2-0.6,0.1-1.2,0.7-1.4c2.1-0.8,4.2-1.7,6.2-2.7c0.6-0.3,1.2-0.1,1.5,0.5
			c0.3,0.6,0.1,1.2-0.5,1.5c-2.1,1.1-4.3,2-6.5,2.8C881.7,473.2,881.6,473.2,881.5,473.2z M834.9,466.8c-0.2,0-0.5-0.1-0.7-0.2
			c-1.9-1.4-3.8-2.9-5.5-4.5c-0.5-0.4-0.5-1.1-0.1-1.6c0.4-0.5,1.1-0.5,1.6-0.1c1.7,1.5,3.4,3,5.3,4.3c0.5,0.4,0.6,1.1,0.3,1.6
			C835.6,466.7,835.3,466.8,834.9,466.8z M893.8,466.8c-0.4,0-0.7-0.2-0.9-0.5c-0.4-0.5-0.2-1.2,0.3-1.6c1.8-1.3,3.6-2.8,5.3-4.3
			c0.5-0.4,1.2-0.4,1.6,0.1c0.4,0.5,0.4,1.2-0.1,1.6c-1.7,1.6-3.6,3.1-5.5,4.5C894.3,466.7,894,466.8,893.8,466.8z M824.8,457.3
			c-0.3,0-0.7-0.1-0.9-0.4c-1.5-1.8-2.9-3.8-4.1-5.8c-0.3-0.5-0.2-1.2,0.4-1.6c0.5-0.3,1.2-0.2,1.6,0.4c1.2,1.9,2.5,3.8,3.9,5.6
			c0.4,0.5,0.3,1.2-0.2,1.6C825.3,457.3,825,457.3,824.8,457.3z M904,457.3c-0.3,0-0.5-0.1-0.7-0.3c-0.5-0.4-0.6-1.1-0.2-1.6
			c1.4-1.8,2.8-3.6,3.9-5.6c0.3-0.5,1-0.7,1.6-0.4c0.5,0.3,0.7,1,0.4,1.6c-1.2,2-2.6,4-4.1,5.8C904.6,457.2,904.3,457.3,904,457.3z
			 M817.5,445.5c-0.4,0-0.9-0.3-1-0.7c-0.9-2.2-1.8-4.4-2.4-6.7c-0.2-0.6,0.2-1.2,0.8-1.4c0.6-0.2,1.2,0.2,1.4,0.8
			c0.6,2.2,1.4,4.3,2.3,6.4c0.3,0.6,0,1.2-0.6,1.5C817.8,445.4,817.7,445.5,817.5,445.5z M911.2,445.4c-0.2,0-0.3,0-0.5-0.1
			c-0.6-0.2-0.8-0.9-0.6-1.5c0.9-2.1,1.7-4.2,2.3-6.4c0.2-0.6,0.8-1,1.4-0.8c0.6,0.2,1,0.8,0.8,1.4c-0.6,2.3-1.4,4.5-2.4,6.7
			C912,445.2,911.6,445.4,911.2,445.4z M813.8,432.1c-0.6,0-1-0.4-1.1-1c-0.3-2.3-0.5-4.7-0.5-7.1c0-0.6,0.5-1.1,1.1-1.1
			c0,0,0,0,0,0c0.6,0,1.1,0.5,1.1,1.1c0,2.3,0.2,4.6,0.5,6.8c0.1,0.6-0.3,1.2-1,1.3C813.9,432.1,813.8,432.1,813.8,432.1z
			 M914.9,432c-0.1,0-0.1,0-0.2,0c-0.6-0.1-1.1-0.7-1-1.3c0.3-2.2,0.5-4.5,0.5-6.8v-0.1c0-0.6,0.5-1.1,1.1-1.1
			c0.6,0,1.1,0.5,1.1,1.1v0.1c0,2.4-0.2,4.8-0.5,7.1C916,431.6,915.5,432,914.9,432z M813.8,418.2c-0.1,0-0.1,0-0.2,0
			c-0.6-0.1-1.1-0.7-1-1.3c0.3-2.3,0.8-4.7,1.4-7c0.2-0.6,0.8-1,1.4-0.8c0.6,0.2,1,0.8,0.8,1.4c-0.6,2.2-1.1,4.4-1.4,6.7
			C814.8,417.8,814.3,418.2,813.8,418.2z M914.9,418c-0.6,0-1-0.4-1.1-1c-0.3-2.2-0.8-4.5-1.4-6.7c-0.2-0.6,0.2-1.2,0.8-1.4
			c0.6-0.2,1.2,0.2,1.4,0.8c0.6,2.3,1.1,4.6,1.5,7c0.1,0.6-0.3,1.2-1,1.3C915,418,915,418,914.9,418z M817.5,404.8
			c-0.2,0-0.3,0-0.5-0.1c-0.6-0.2-0.8-0.9-0.6-1.5c0.9-2.2,2-4.3,3.3-6.3c0.3-0.5,1-0.7,1.6-0.4c0.5,0.3,0.7,1,0.4,1.6
			c-1.2,1.9-2.2,4-3.1,6.1C818.4,404.6,817.9,404.8,817.5,404.8z M911.1,404.7c-0.4,0-0.9-0.3-1-0.7c-0.9-2.1-2-4.1-3.1-6
			c-0.3-0.5-0.2-1.2,0.4-1.6c0.5-0.3,1.2-0.2,1.6,0.4c1.2,2,2.3,4.1,3.3,6.3c0.3,0.6,0,1.2-0.6,1.5
			C911.5,404.6,911.3,404.7,911.1,404.7z M824.7,392.9c-0.3,0-0.5-0.1-0.7-0.3c-0.5-0.4-0.6-1.1-0.2-1.6c1.5-1.8,3.1-3.6,4.9-5.2
			c0.5-0.4,1.2-0.4,1.6,0.1c0.4,0.5,0.4,1.2-0.1,1.6c-1.7,1.5-3.2,3.2-4.6,5C825.4,392.8,825,392.9,824.7,392.9z M903.9,392.8
			c-0.3,0-0.7-0.1-0.9-0.4c-1.4-1.8-3-3.4-4.7-5c-0.5-0.4-0.5-1.1-0.1-1.6c0.4-0.5,1.1-0.5,1.6-0.1c1.7,1.6,3.4,3.4,4.9,5.2
			c0.4,0.5,0.3,1.2-0.2,1.6C904.4,392.7,904.2,392.8,903.9,392.8z M834.9,383.4c-0.4,0-0.7-0.2-0.9-0.5c-0.4-0.5-0.2-1.2,0.3-1.6
			c1.9-1.4,4-2.6,6.1-3.7c0.6-0.3,1.2-0.1,1.5,0.5c0.3,0.6,0.1,1.2-0.5,1.5c-2,1-4,2.2-5.8,3.5C835.3,383.4,835.1,383.4,834.9,383.4
			z M893.7,383.3c-0.2,0-0.5-0.1-0.7-0.2c-1.9-1.3-3.8-2.5-5.8-3.5c-0.6-0.3-0.8-1-0.5-1.5c0.3-0.6,1-0.8,1.5-0.5
			c2.1,1.1,4.1,2.3,6.1,3.7c0.5,0.4,0.6,1.1,0.3,1.6C894.4,383.2,894.1,383.3,893.7,383.3z M847.2,377c-0.5,0-0.9-0.3-1.1-0.8
			c-0.2-0.6,0.1-1.2,0.7-1.4c2.2-0.8,4.5-1.4,6.9-1.9c0.6-0.1,1.2,0.3,1.3,0.9c0.1,0.6-0.3,1.2-0.9,1.3c-2.2,0.5-4.4,1.1-6.6,1.8
			C847.4,377,847.3,377,847.2,377z M881.4,377c-0.1,0-0.3,0-0.4-0.1c-2.1-0.8-4.3-1.4-6.6-1.8c-0.6-0.1-1-0.7-0.9-1.3
			c0.1-0.6,0.7-1,1.3-0.9c2.3,0.5,4.6,1.1,6.9,1.9c0.6,0.2,0.9,0.9,0.7,1.4C882.3,376.7,881.8,377,881.4,377z M860.8,374.2
			c-0.6,0-1.1-0.5-1.1-1.1c0-0.6,0.4-1.2,1.1-1.2c2.3-0.2,4.8-0.2,7.1,0c0.6,0,1.1,0.6,1.1,1.2c0,0.6-0.6,1.1-1.2,1.1
			C865.4,374,863.1,374,860.8,374.2C860.8,374.2,860.8,374.2,860.8,374.2z"/>
	</g>
	<g>
		<path class="st4" d="M932.7,111l-8.1,5.8l-8.1-5.7c1.8-2.5,4.8-4.2,8.1-4.2C927.9,106.8,930.9,108.5,932.7,111z"/>
		<g>
			<path class="st4" d="M924.6,92.7c-8.1,0-15.3,4-19.7,10.2l5.1,3.6c3.2-4.6,8.5-7.5,14.5-7.5c5.9,0,11.2,2.9,14.4,7.4l5.1-3.7
				C939.8,96.6,932.7,92.7,924.6,92.7z"/>
		</g>
		<g>
			<path class="st4" d="M924.6,65.8c-17.2,0-32.4,8.5-41.6,21.6l5.1,3.6c8.1-11.4,21.4-18.9,36.5-18.9c14.9,0,28.2,7.4,36.3,18.7
				l5.1-3.7C956.8,74.2,941.7,65.8,924.6,65.8z"/>
		</g>
		<g>
			<path class="st4" d="M924.6,79.9c-12.2,0-23.1,6.3-29.7,15.8l5.1,3.7c5.5-7.9,14.4-13.1,24.5-13.1c10,0,18.9,5.1,24.4,12.9
				l5.1-3.8C947.5,86,936.7,79.9,924.6,79.9z"/>
		</g>
	</g>
	<g id="girl_2_2_">
		<path class="st5" d="M1012.3,391.1c0,0,29,12.6,34.2,12.4c5.3-0.2,37.7-9.9,37.7-9.9l-0.8,5.6c0,0-25,14.4-33.7,15.2
			c-8.6,0.8-38-7.7-40.9-9.5C1005.9,403.1,1004,392.9,1012.3,391.1z"/>
		<path class="st6" d="M1007.9,344.7c0,0-10.7-2-16,1.9c-9.6,7-10.2,31.3-13.8,34.9c-3.6,3.6-12.3,2.1-13.1,20.8
			c-0.8,18.7,3.5,20.3-1.6,28.6c-5.1,8.4,2.1,16.7,2.1,16.7s-2.9-4.6-1.7-7.9c0,0,1.2,7.3,5.9,9.1c4.7,1.7,5.4,3,6.1,5.5
			c0,0,39.8-20.4,39.8-34.9c0-14.5,7.8-28.8,4-35.1c0,0,1.7,2.7,1.9,5.7c0,0,2.3-4.4-1.7-8.5c-4-4.1,4.7-12.6,3.4-22.4
			C1022.5,352.4,1017.8,345,1007.9,344.7z"/>
		<path class="st7" d="M1015.8,404.9c-2.5,1.8-5.7,3.2-9.7,4.1c-15,3.5-20.8-9.2-22.9-17.9c2-1.2,4-1.4,5.1-1.6
			c1.1-0.1,2.2-0.2,3.2-0.3c1.7-1.3,4.2-6.6,4.8-14.8l0.7,0.2l11.8,3.2c0,0-0.5,3.8-0.8,7.3c-0.2,2.8-0.2,5.4,0.3,6.1
			c0.9,0.2,1.5,0.3,1.5,0.3s0,0,0,0C1009.8,391.9,1013.2,397.6,1015.8,404.9z"/>
		<path class="st5" d="M1008.7,377.9c0,0-0.5,3.8-0.8,7.3c-6.7-0.7-9.8-7.1-11-10.6L1008.7,377.9z"/>
		<path class="st7" d="M1010.7,381.5c0,0-15.9-0.9-15.2-10.8c0.7-9.9-0.9-16.7,9.3-16.5c10.2,0.1,11.9,4.1,12.5,7.4
			C1017.8,364.9,1014.8,381.4,1010.7,381.5z"/>
		<path class="st6" d="M1017.2,356c-2.2-3.2-4.1-2.6-5.2-1.8c-8.3-5.4-18-1.9-18-1.9c-1.6,7-3.4,13.8-3.4,13.8s2.8,2,9.6,0.8
			c2.1-0.4,4-1.7,5.7-3.3c-3,4.3-6.9,7.3-6.9,7.3c8.2-3.1,12.2-14,12.6-15.1c0.9,0.9,2.7,3,3.1,4.9c0.6,2.6,3.2,6.6,4.8,6.5
			C1019.3,367.2,1020.5,360.8,1017.2,356z"/>
		<path class="st8" d="M978.6,437.2c-1.4-7.3-6.1-36.7-1.4-46.1c1.7-3.4,8.3-3.7,15.5-3.4c2.3,1.5,10.8,7,14.4,6.3c0,0,0.1,0,0.2,0
			c1.7-0.4,2.3-1.6,0.9-2.6c0,0,3.6-0.3,8,0.5c2.5,0.5,9.3,4,9.3,4s-3.4,6.2-8.5,8.3c0.9,7.7-0.4,11-8.4,28.8
			c-6.7,15,0.9,28.4,0.9,28.4s-39.6,31.8-39.8,15.6C969.6,464.7,980.4,446.6,978.6,437.2z"/>
		<path class="st9" d="M1011.5,495.9c2.2-0.2,4.1-1.4,5.3-3.2c0.2-0.3,0.4-0.6,0.6-0.9c4.5-6.8,6.3-27.7,16.4-49.9
			c2.5-5.4,11.3-6.4,13.7-12.5c0,0,5.9-19.8-11.4-20.4c-17.3-0.6-46.4,55.2-46.8,61.1C988.9,475.6,977.9,499.7,1011.5,495.9z"/>
		<path class="st10" d="M1080.4,495.4h-24.7c0,0-0.9-3.9,0.7-6.6c1.4-2.4,0.9-3.7-0.2-5.7c1.1,0.5,2.6,0.9,4.2,0.8
			c1.2-0.1,2.5-0.6,3.7-1.3c1.1,1.2,5.6,6.4,7,7.4C1072.7,491.2,1079.9,490.8,1080.4,495.4z"/>
		<path class="st10" d="M981.2,398.8c0,0-3.2,29.2,17.6,35.3c20.8,6.1,26.7-26.9,9.9-29.2C991.9,402.5,981.2,398.8,981.2,398.8z"/>
		<path class="st11" d="M1048.1,414.6c1.5,11.1,7.3,46.3,17.5,63.4c3.3,5.5-8.3,8.6-8.4,8.6c-1.6-0.4-4.1-2.9-5.3-4
			c-8.3-7.5-25.2-28.7-25.2-45.7c0-8.3-0.1-24.1,5.9-28.1C1036.4,406.4,1047.5,410.2,1048.1,414.6z"/>
		<path class="st4" d="M996.8,495.4c0,0,0.9-1.3,2.5-3.7c1.9-2.9,4-8.5,6.5-15.8c2.7-7.6,5.8-17,9.8-26.7c1.2-3,2.5-6,3.9-9.1
			c2.5-5.4,9.3-4.7,11.7-10.8c0,0,9.4-21.2-7.9-21.8c-17.3-0.6-50.2,56.8-52.1,62.3C969.2,476,959.1,501.3,996.8,495.4z"/>
		<path class="st8" d="M1062.3,495.4h-24.7c0,0-0.9-3.9,0.7-6.6c1.4-2.4,0.9-3.7-0.2-5.7c1.1,0.5,2.6,0.9,4.2,0.8
			c1.2-0.1,2.5-0.6,3.7-1.3c1.1,1.2,5.6,6.4,7,7.4C1054.6,491.2,1061.8,490.8,1062.3,495.4z"/>
		<path class="st11" d="M1005.9,476c2.7-7.6,5.8-17,9.8-26.7c-1-7.4-3.3-13.8-7-16.4C1008.7,432.9,999.6,461.1,1005.9,476z"/>
		<path class="st4" d="M1033.7,413.8c1.5,11.1,3.6,47,13.8,64.2c3.3,5.5-8.3,8.6-8.4,8.6c-1.6-0.4-4.1-2.9-5.3-4
			c-8.3-7.5-25.2-28.7-25.2-45.7c0-8.3,9.7-23.4,15.7-27.5C1028.1,407.1,1033.2,409.4,1033.7,413.8z"/>
		<g>
			<path class="st10" d="M1087.1,379.3l-25.2-2.7c-0.7-0.1-1.4,0.3-1.7,1l-9,23.7c-0.4,1,0.3,2.2,1.5,2.2l25.1,1
				c0.7,0,1.3-0.4,1.6-1l9.2-22.1C1088.9,380.5,1088.2,379.4,1087.1,379.3z"/>
			<path class="st8" d="M1089.3,379.5l-25.2-2.7c-0.7-0.1-1.4,0.3-1.7,1l-9,23.7c-0.4,1,0.3,2.2,1.5,2.2l25.1,1c0.7,0,1.3-0.4,1.6-1
				l9.2-22.1C1091.1,380.8,1090.4,379.6,1089.3,379.5z"/>
			<path class="st10" d="M1075.3,390.6c0.3-0.8-0.1-1.5-1-1.5c-0.8,0-1.8,0.7-2.1,1.5c-0.3,0.8,0.1,1.5,1,1.5
				C1074.1,392.1,1075,391.4,1075.3,390.6z"/>
			<path class="st10" d="M1088.5,381.8c0.2-0.4-0.1-0.8-0.5-0.8c-0.4,0-0.9,0.3-1,0.8c-0.2,0.4,0.1,0.8,0.5,0.8
				C1087.9,382.5,1088.4,382.2,1088.5,381.8z"/>
		</g>
		<path class="st7" d="M983.1,391.1c0,0,35,12.9,40.2,12.6c3.4-0.2,31.6-10.1,31.6-10.1l2.5,4.8c0,0-27.5,17.7-35,17.6
			c-14.9-0.2-40.1-9.3-42.9-11.1C976.7,403.1,974.9,392.9,983.1,391.1z"/>
		<path class="st7" d="M1055,393.6c0,0,2.5-3.9,5.1-4c2.5-0.1,6.9,1.7,8.4,2c1.5,0.3,5.7,1.7,4.5,3.7c-1.3,2.1-7.1,2.5-9.6,2.1
			c-2.5-0.5-5.7,1-5.7,1L1055,393.6z"/>
		<path class="st7" d="M1059.4,389.7c0,0,4-1.8,5.2-2.2c1.1-0.3,0.9,0,0.6,1.1c-0.3,1.1-2.4,2.1-2.4,2.5
			C1062.7,391.4,1059.4,389.7,1059.4,389.7z"/>
		<path class="st7" d="M1086.7,391.6c0,0-2.5-4-3.4-4.2c-2.5-0.5-2.5,2.8-2,5c0.6,2.3,2.5,4.5,3.1,4.3
			C1084.9,396.5,1087.3,393.7,1086.7,391.6z"/>
		<path class="st7" d="M1086.8,392.4c0,0,0.8,4.5-3.5,6.8L1086.8,392.4z"/>
		<path class="st3" d="M1013.7,375.8c0,0-1.5-0.6-5.7-0.3c0,0,0.2,1.7,3.3,1.8C1013,377.4,1013.7,375.8,1013.7,375.8z"/>
		<path class="st8" d="M1001.2,397.5c0,0-3.1,9.9-13.9,12.2c0,0-17.7-5.5-8.9-17.6C978.4,392.1,987.1,385.6,1001.2,397.5z"/>
	</g>
	<g>
		<g>
			<path class="st12" d="M498,48.7c0,0,4.6,6.9,7.3,21.3c2.3,12.6,4.3,17.3,7.7,19.9c3.3,2.6,22,10.2,22,10.2l-1.4,3.3
				c0,0-27.3-3.7-30.4-8.3c-3.1-4.6-14.8-31.5-13.9-37.7C490.3,51.1,498,48.7,498,48.7z"/>
			<g>
				<path class="st7" d="M564.9,199.3c-0.2,2.7,3.5,3.3,7.8,3.5c4.3,0.2,3,1.1,8.9,2.2c5.9,1.1,8.2-0.5,8.7-1.3
					c0.4-0.7-2.4-1.8-5.3-3.1c-0.4-0.2-0.7-0.3-1.1-0.5c-3.3-1.4-5.1-4.4-7.7-7.1c-2.4-2.6-4.7-10.9-4.7-10.9l-8-1.7
					c0,0,2.2,7.4,3,10.6c0.5,1.9-0.2,4-0.8,5.6C565.3,197.5,565,198.4,564.9,199.3z"/>
				<path class="st13" d="M572.6,202.8c4.3,0.2,3,1.1,8.9,2.2c5.9,1.1,8.2-0.5,8.7-1.3c0.4-0.7-2.4-1.8-5.3-3.1l0,0
					c0,0-4.1,1.4-8.9,0.1c-3.9-1.1-7.7-3.4-10.3-4.1c-0.3,0.9-0.7,1.8-0.7,2.7C564.6,202,568.4,202.6,572.6,202.8z"/>
			</g>
			<path class="st14" d="M485.3,104.5c0,0,53.1-4,63.1,2.3c10,6.3,26,79.9,26,79.9s-1,0.8-3.2,1c-2.1,0.2-6.6-1-6.6-1
				s-23.1-32.9-24.7-41.2c-1.6-8.3-1.2-15.7-4.9-15.9c-3.7-0.2-49.8,5.6-56.8-6.7c-7-12.3-1.2-24.4-1.2-24.4L485.3,104.5z"/>
			<g>
				<path class="st7" d="M544.6,207.9c-0.2,2.7,3.5,3.3,7.8,3.5c4.3,0.2,3,1.1,8.9,2.2c5.9,1.1,8.2-0.5,8.7-1.3
					c0.4-0.7-2.4-1.8-5.3-3.1c-0.4-0.2-0.7-0.3-1.1-0.5c-3.3-1.4-5.1-4.4-7.7-7.1c-2.4-2.6-4.7-10.9-4.7-10.9l-8-1.7
					c0,0,2.2,7.4,3,10.6c0.5,1.9-0.2,4-0.8,5.6C545,206,544.6,206.9,544.6,207.9z"/>
				<path class="st13" d="M552.3,211.4c4.3,0.2,3,1.1,8.9,2.2c5.9,1.1,8.2-0.5,8.7-1.3c0.4-0.7-2.4-1.8-5.3-3.1l0,0
					c0,0-4.1,1.4-8.9,0.1c-3.9-1.1-7.7-3.4-10.3-4.1c-0.3,0.9-0.7,1.8-0.7,2.7C544.3,210.5,548,211.2,552.3,211.4z"/>
			</g>
			<path class="st4" d="M474.9,107.8c0,0,47.2,2.2,57,8.9c9.8,6.7,22.9,80.8,22.9,80.8s-1,0.8-3.2,0.9c-2.1,0.1-6.5-1.2-6.5-1.2
				s-21.8-33.8-23.1-42.1c-1.3-8.3-0.6-15.7-4.3-16.1c-3.7-0.3-50,3.7-56.5-8.9C454.6,117.6,474.9,107.8,474.9,107.8z"/>
			<path class="st8" d="M491.7,3.9c-2.1-1.4-4.7-1.7-6.5-1.7c0.5-0.5,1.4-0.6,1.4-0.6c-1.1-0.2-3.7,0.7-3.7,0.7
				c-15.3-7.1-19.4,15.9-19.4,21.3c0,5.4-0.4,11.6-8.6,15.9c-16.1,8.5-4.2,25.9-4.2,25.9c0.1,0.1,10.7,14.1,10.7,14.1
				c-0.1-4.4,17.2-27.6,28.1-33.8c2.8-3.6,4.1-10.2,4.3-10.7c-0.8,5.2-1.9,8.1-2.8,9.7C500.4,37.3,497.2,7.6,491.7,3.9z"/>
			<path class="st7" d="M472.9,40.8c0,0,4.4-0.4,8.8,0c3,0.3,5.9,1.2,7.6,1.9c4.2,1.7,3.7,9.1-5,7.7C475.6,49.1,472.3,43,472.9,40.8
				z"/>
			<path class="st7" d="M488.9,46.2c0.1,0,1.2,6.3-4.5,6.1c-3.8-0.2-11.8-4.7-11.1-7.9c0.3-1.5,3.2-5.5,3.7-14.5l0.7,0.2l11.5,3.1
				c0,0-0.5,3.6-0.7,7.1C488.3,43.1,488.3,45.8,488.9,46.2z"/>
			<path class="st12" d="M489.2,33.1c0,0-0.5,3.6-0.7,7.1c-6.5-0.6-9.5-6.8-10.7-10.2L489.2,33.1z"/>
			<path class="st8" d="M476.6,28.6c0,0-3.1-5.6-3.6-10.3c-0.4-3.3,2.1-15.4,14.3-12.8c0,0,3.5,0.6,6.7,3.1c2.5,2,6.1,6.1,1.1,16.5
				l-1.4,3.5L476.6,28.6z"/>
			<path class="st7" d="M491.2,36.5c0,0-15.4-0.8-14.8-10.4c0.6-9.6-0.9-16.2,8.9-16.1c9.9,0.1,11.5,3.9,12.1,7.1
				C498,20.4,495.2,36.4,491.2,36.5z"/>
			<path class="st8" d="M492.4,10.3c0,0-5,11-11.6,12.2c-6.6,1.2-9.3-0.7-9.3-0.7s1.8-6.9,3.3-13.7C474.8,8,489.5,4.7,492.4,10.3z"
				/>
			<path class="st8" d="M491.3,11.1c0,0,3,2.7,3.6,5.2c0.6,2.5,0.6,7.6,2.1,7.5c0,0,3.7-7.4,0.4-12C493.9,6.9,491.3,11.1,491.3,11.1
				z"/>
			<path class="st15" d="M506.6,105.3c-1.2,1.5-5.1,2-9.3,2.6c-3.3,0.5-6.7,1.2-9.2,2.7c-5.6,3.3-23.7,14.3-29.1,13.8
				c-2.1-0.2-1.7-4.1-0.4-9.4c2-8.3,6.1-19.7,6.1-24.7c0-2.7,0.9-9.2,2.1-16.5c0.1-0.6,0.2-1.2,0.3-1.8c2.4-14.3,5.7-31.2,5.7-31.2
				s3.7,8.1,10.9,8.1c7.2,0,5.5-6.1,5.5-6.1s6.6,0.8,8.1,2.4c1.6,1.7,5.5,8.9,6.3,10.9c0,0,0.2,2.5-6,3.7c0,0,1.5,6.8,1.7,11.3
				c0.1,3.4-2.3,13.8-3,20.4c-0.2,2.3-0.3,4.1,0.1,4.9c0.5,1.1,2,2.1,3.8,3.1C503.7,101.6,508.1,103.5,506.6,105.3z"/>
			<path class="st16" d="M500.2,99.5c4,6.8-10.8,8.8-13.3,10.3c-5.6,3.3-22.6,15.1-27.9,14.6c-2.1-0.2-1.7-4.1-0.4-9.4
				c2-8.3,6.1-19.7,6.1-24.7c0-2.7,0.9-9.2,2.1-16.5l6.4-6.2c0,0,6.9,17.8,13.4,20.7c3.4,1.5,7,2.5,9.6,3.1
				c-0.2,2.3-0.3,4.1,0.1,4.9C496.9,97.4,498.5,98.5,500.2,99.5z"/>
			<path class="st7" d="M470.9,46.1c0,0-5.5-3.3-10.8,3c-5.3,6.3,3.8,51.4,11.6,53.8c8.7,2.6,33.9-0.4,33.9-0.4l-0.5-3.9
				c0,0-26.8-5.1-27.9-6.6C476.1,90.5,473.7,46.8,470.9,46.1z"/>
			<path class="st15" d="M472.9,40.8c0,0-11.3,1-14.5,4.7c-3.3,3.7-4.2,13.7-4.2,13.7s9.9,8,21.9,4.9L472.9,40.8z"/>
			<g>
				<rect x="508.3" y="104.6" class="st10" width="14.9" height="1.8"/>
				<path class="st10" d="M520,106.1c0.1-0.6,13.7-21.8,13.7-21.8h30.1l-15.1,21.2L520,106.1z"/>
				<path class="st8" d="M521.3,106.3c0.1-0.6,13.7-22.1,13.7-22.1h28.8l-14.4,22.1H521.3z"/>
				<path class="st10" d="M546.6,95.4c-0.3,0.9-1.2,1.6-2.1,1.6s-1.3-0.7-1-1.6c0.3-0.9,1.2-1.6,2.1-1.6
					C546.5,93.8,546.9,94.5,546.6,95.4z"/>
			</g>
			<path class="st7" d="M503,98.3c0,0,8.7-1.7,9.7-1.3c1,0.4,6.5,5.4,5.9,6.3c-0.6,1-2.8,1.7-5.4,0.8c-2.5-0.8-8-1.3-9-2.5
				C503.3,100.4,503,98.3,503,98.3z"/>
		</g>
	</g>
	<g>
		<g id="man_3_">
			<path class="st7" d="M327.8,266.7c-1.2,3.3-3.4,7.2-5.7,8.2c-2.6,1.1-3.6,2.6-3.6,2.6l-2.1-1.2l-2.5-1.4c0,0,0.1-0.3,0.2-0.7
				c0.1-0.4,0.3-1.1,0.6-1.8c0,0,0.8-1,0.3-2.2c-0.5-1.2-0.4-3.1,0.4-4.3c0.8-1.2,1.6-4,2-3.9c1.2,0.2-0.6,4.1-0.1,4.8
				c0.4,0.7,1,0.4,1.1,0.4c0,0,0,0,0,0c3.2-1.4,7.2-9.1,8.9-8.1C328.1,259.5,328.3,265.3,327.8,266.7z"/>
			<g>
				<path class="st17" d="M316.6,271.4l4.1,2.9c0.3,0.2,0.7,0.1,0.9-0.2l10.4-14.8c0.2-0.3,0.1-0.7-0.2-0.9l-4.1-2.9
					c-0.3-0.2-0.7-0.1-0.9,0.2l-10.4,14.8C316.2,270.8,316.3,271.2,316.6,271.4z"/>
				<path class="st6" d="M320.3,274l2.4,1.7c0.2,0.2,0.5,0.1,0.7-0.1l10.6-15.1c0.2-0.2,0.1-0.5-0.1-0.7l-2.4-1.7
					c-0.2-0.2-0.5-0.1-0.7,0.1l-10.6,15.1C320,273.5,320.1,273.8,320.3,274z"/>
			</g>
			<path class="st6" d="M258.3,250.1c0,0,20.7,36.1,28.2,42.7l27.5-20.5c0,0,4,1.2,5.7,5.2c0,0-16.7,34-33.1,35.5
				c-16.4,1.4-39.5-40.8-39.5-40.8L258.3,250.1z"/>
			<g>
				<path class="st6" d="M211.5,495.4h-11.9c-1.5-0.8-2.8-2.7-3.3-5.5c-0.6-3.8-4.9-5.9-5.8-9.1c-0.9-3.1,3.8-7.6,3.8-7.6l0.8-1
					l0.8-1.1l7.9,1.9c0,0,0.2,1.9,0.3,4.3c0.1,1.7,0.1,3.7,0,5.5c-0.2,4.2,1.2,8.7,4.9,9.5C211.9,492.9,211.8,494.5,211.5,495.4z"/>
				<path class="st6" d="M280.8,495.4h-27.3c-1.3-1.6-0.8-7.5-0.6-9.5c0-0.4,0.1-0.6,0.1-0.6s9.3-7.5,10.6-1.7
					c0,0.2,0.1,0.4,0.1,0.5c1.6,5.3,8.9,7.8,13,8.4C279.5,493,280.5,494.4,280.8,495.4z"/>
				<path class="st4" d="M275.6,342.9c0,0-1.4,17.7-3.1,38.9c-2.3,28.9-5,64.3-5.3,71c-0.5,11.7-2.3,30.3-2.3,30.3
					s-4.4,4.4-13.3,2.6c0,0-7.9-26.6-10.2-54.8c0-0.5-0.1-0.9-0.1-1.4c-2.1-28.7-5.4-89.1-5.4-89.1L275.6,342.9z"/>
				<path class="st11" d="M275.6,342.9c0,0-1.4,17.7-3.1,38.9l-31,49.1c0-0.5-0.1-0.9-0.1-1.4c-2.1-28.7-5.4-89.1-5.4-89.1
					L275.6,342.9z"/>
				<path class="st4" d="M269.2,345c0,0-25.5,64-42.3,94.1c-16.8,30.1-22,38.5-22,38.5s-9.6-3.8-10.5-6.5c0,0,6.4-58.1,17.7-72.2
					c6.4-8,13.8-32,14.2-40.4c0.3-8.4,2.3-25,2.3-25L269.2,345z"/>
			</g>
			<path class="st7" d="M262.8,251.7c-10,3.1-27.2-5.3-27.2-5.3s9.2-6.9,8.7-21.3l7.7,6.2l5.2,4.2c0,0,0,2.5-0.6,6.9
				c-0.2,1.1-0.3,2.4-0.6,3.8C260.4,248.5,262.8,251.7,262.8,251.7z"/>
			<path class="st18" d="M257.2,235.5c0,0,0,2.5-0.6,6.9c-5.8-1-12.4-10.4-12.4-10.4c3-0.9,5.5-1,7.7-0.7L257.2,235.5z"/>
			<path class="st7" d="M260.3,235.3c0,0-16.5,2.7-18-7.6c-1.5-10.3-4.7-16.9,5.7-19c10.5-2.2,13.1,1.4,14.4,4.7
				C263.8,216.7,264.5,234.3,260.3,235.3z"/>
			<path class="st17" d="M276.7,344.3c-0.3,0.2-0.6,0.4-1,0.4c-3.7-0.1-14.7,2-23.9,1.1c-7.8-0.7-14.7-3.1-22.1-6.4
				c-1-0.4-3.2-1.6-3.2-2.7c0-1.2,0.2-2.9,0.3-5.1c0.5-7.6,1.4-20.8,0.5-36c-0.2-2.8-0.2-5.6-0.3-8.4c-0.1-20.6,4-38.6,12.2-44.8
				c0.7-0.5,5,1.6,8.9,3.5c3.6,1.8,7.3,2,10.7,1.3l3.4,3c4.2,3.9,8.8,9.2,10.8,17.2c1.7,6.8,2.7,19.2,3.2,32
				c0.2,5.8,0.5,11.6,0.5,17.2v0.2c0,0.5,0,1.2,0,1.7C277.2,332.9,277,344.1,276.7,344.3z"/>
			<path class="st6" d="M226.8,331.6c0.5-7.6,1.4-20.8,0.5-36c-0.2-2.8-0.2-5.6-0.3-8.4c3.4-8.3,6.2-14.3,6.2-14.3h8.6
				C241.9,272.9,248.2,316,226.8,331.6z"/>
			<g>
				<path class="st6" d="M182.7,380.4l36.7,5.2c4.8,0.7,9.2-2.7,9.9-7.4l2.3-15.9c0.7-4.8-2.7-9.2-7.4-9.9l-36.7-5.2
					c-4.8-0.7-9.2,2.7-9.9,7.4l-2.3,15.9C174.6,375.2,177.9,379.7,182.7,380.4z"/>
				<path class="st17" d="M226.2,357.1L226.2,357.1c-1-2.6-3.3-4.6-6.1-5.3h0c0,0,0,0,0,0c-0.3-0.1-0.6-0.1-0.8-0.2l-7.3-1l0.5-3.4
					c0.1-0.8-0.1-1.5-0.6-2.2c-0.5-0.6-1.1-1-1.9-1.1l-1.9-0.3l-7.7-1.1l-1.4-0.2c-1.6-0.2-3.1,0.9-3.3,2.5l-0.5,3.4l-12.6-1.8
					c-4.8-0.7-9.3,2.7-10,7.5l-2.3,16.1c-0.7,4.8,2.7,9.3,7.5,10l36.6,5.2c0.6,0.1,1.3,0.1,1.9,0.1h0c0,0,0,0,0,0
					c1-0.1,2-0.3,2.9-0.7c2.7-1.2,4.7-3.7,5.2-6.8l2.3-16.1C227,360,226.8,358.5,226.2,357.1z M197.6,345c0.1-0.5,0.4-0.8,0.9-0.9
					c0.1,0,0.2,0,0.3,0l1.6,0.2l6,0.9l3.3,0.5c0.6,0.1,1,0.6,0.9,1.2l-0.5,3.4l-13.1-1.9L197.6,345z"/>
			</g>
			<path class="st7" d="M210.6,333c0,0-1.9,2.6-2,3.6c-0.5,7,2.7,7.9-5.6,11.8c0,0-3.5,1.3-3.6-1.4c-0.1-2.7,2.4-2.8,2-6.6
				c-0.5-4.4-0.5-4.4,2.4-6.7l1.9-3.2L210.6,333z"/>
			<path class="st17" d="M205.7,335c3.1,0.6,6.5,0.4,6.5,0.4s9.2-28.4,10.4-31c1.2-2.6,27.3-33.3,27.3-33.3L239,243.8
				c0,0-28.3,47.2-31.1,53.8c-4.7,11-6.4,35.5-6.4,35.5S203.3,334.5,205.7,335z"/>
			<path class="st17" d="M242.3,226.7c0,0,1.7-0.3,1.4-2.6c-0.3-2.3-0.3-5.4,1.6-4.8c1.9,0.6,2,2.1,2.8,1.2c0.8-0.9,0.8-4.6,6.4-4.9
				c5.6-0.3,7.9,1.7,10.5,0.5c2.6-1.2,2.8-5.1,2.8-5.1s-0.7,1.4-1.9,1.9c0,0,4.4-6-0.7-10.1c-5.1-4.1-10.2-1.4-13.2-1.2
				c-6.5,0.4-10.6,0.8-12.7,5C237.2,210.9,238.1,222.6,242.3,226.7z"/>
			<path class="st7" d="M207.6,336.1c0,0,1.9,1.9,2,2.7c0.4,2.6,1.2,3.7,0.8,4c-0.9,0.6-2.1-1.3-2.7-3
				C207.1,338,207.6,336.1,207.6,336.1z"/>
		</g>
	</g>
	<g>
		<g>
			<defs>
				<circle id="SVGID_1_" cx="855.4" cy="254" r="60.7"/>
			</defs>
			<use xlink:href="#SVGID_1_"  style="overflow:visible;fill:#DFEBFA;"/>
			<clipPath id="SVGID_2_">
				<use xlink:href="#SVGID_1_"  style="overflow:visible;"/>
			</clipPath>
			<g class="st19">
				<path class="st6" d="M855,211.2c-1.6-0.5-4.1-2.4-6.3-0.3c-2,1.8-2.9-0.9-5.5,3.3c-0.9,1.4-3.4-1.4-5.1,1.9
					c-1.7,3.3-1.9,6.8-1.5,15c0.4,8.2,5.7,23.2,14,24.7c13.7-1.8,10.1,2.8,14.4-1.5s8.9-11.2,8.7-21.8c-0.2-10.7-0.7-14.1-2.9-17.1
					c-2.1-2.9-3.1-3.3-4.7-2.9c-2.6,0.6-4.3-3.8-7-1.8C856.7,212.2,855,211.2,855,211.2z"/>
				<path class="st20" d="M845.8,251c0,0-0.1,12.4-1.6,18l-12.3,9l47.3,6.1l-11.6-15.3c0,0-3.8-16.5-2.1-22.7
					C867.2,239.9,845.8,251,845.8,251z"/>
				<path class="st21" d="M845.8,252.7c0,0,3.9,8.9,10.9,8.6c7-0.3,8.5-8.3,8.5-8.3L845.8,252.7z"/>
				<path class="st20" d="M855.9,257.8c-5.1,0-14.6-6.6-14.8-15l-0.3-13.1c-0.1-3.1,2-5.6,4.6-5.7l19.4-0.4c2.6-0.1,4.8,2.4,4.9,5.5
					l0.3,12.4C870.2,250.3,861.7,257.8,855.9,257.8z"/>
				<path class="st6" d="M838.1,236.8c3.9-3,3.3-7.6,8.2-8.6c3.9-0.8,6.3-4.1,10.8-2.4c4.1,1.5,7.8,0.4,10,3.2
					c2.2,2.7,2,5.5,4.5,8.8c2.1-11.2-3.2-17.1-10.3-18.6c-7.2-1.5-16.6-0.4-20.5,5.5C837,230.6,838.1,236.8,838.1,236.8z"/>
				<path class="st22" d="M811.9,326.9c0,0-0.2,3,0.6,1c-0.3,14.2-0.6,24.1-1.3,33.7h87.2c-0.4-6.5-0.9-19.6,1.7-32.8
					c0.6-2.9-6.3-13.2-5.4-16c6.9-21.3-8.9-41-8.9-41c-6.5-1.6-12.6-2.6-18.1-3.1c-4.3,5.9-6.7,10.1-10.7,11.7
					c-6.5-0.8-12.7-11.3-12.7-11.5c-9.3,1.2-14.6,3.2-14.6,3.2s0,0,0,0c-1.8,0.9-19.6,11.7-14.9,35
					C815.6,311.6,811.3,319.5,811.9,326.9z"/>
				<path class="st22" d="M844.2,269l-14.6,35.3l-13.8,8.5l-13.9,6.9c1.3-2.9,8-13.9-0.6-23.5c-4.3-4.8-11.2-4.1-17-2.1
					c0.5-0.2,0.9-0.5,1.4-0.7h0c15.7-7.6,26.6-17.9,34.3-21.6c4.2-2,10.1-3.8,13.1-3.8C838,268,844.7,269,844.2,269z"/>
				<path class="st22" d="M887.5,268.8c8.5,4.1,34.6,26.5,34.6,26.5c-0.9-0.5-10.4-6.1-17.8,2.5c-7.8,9-6.2,17.7-6.2,17.7l-3.3-2.6
					l-0.1,0l-15.4-14l-11.6-30.1C867.6,268.8,882.3,266.3,887.5,268.8z"/>
			</g>
		</g>
	</g>
	<g>
		<g>
			<defs>
				<circle id="SVGID_3_" cx="864.4" cy="424" r="46.7"/>
			</defs>
			<use xlink:href="#SVGID_3_"  style="overflow:visible;fill:#DFEBFA;"/>
			<clipPath id="SVGID_4_">
				<use xlink:href="#SVGID_3_"  style="overflow:visible;"/>
			</clipPath>
			<g class="st23">
				<path class="st6" d="M867.9,401.1c-5.4-4.1-20.3-0.7-18.9,13.8c1.3,13.4,8.4,18.2,12.6,20.9c9.2-0.1,9.7-2.9,10.2-3.5
					c7.2-8,6.9-16.7,5.1-24.4C875.6,402.3,870.3,400.2,867.9,401.1z"/>
				<path class="st4" d="M866.8,393.5c-2.7-3.5-7-5-8.8-1c-2.1,4.8-8-3.6-8.7,4.3c-0.4,5.4-10.1-1.5-7.4,7.4
					c1.9,6.1-7.1,5.9-1.8,11.3c4,4.1-3.5,10.7,3,12c5.2,1,6.2,0.8,6,3.3c-0.3,4.4,1.7,6.3,7.6,5.8c5.9-0.5,7.4-1.6,11.7,1.3
					c3.8,2.5,5.4-4.1,11.6-5.1c5.7-0.9-0.5-8.6,2.8-10.5c6.4-3.6-0.6-6.8,0.8-9.1c2.6-4.6,3.7-10.2-1.4-12.3
					c-5.6-2.3-3.4-8.5-9.3-7.7C868.9,393.8,867.6,394.7,866.8,393.5z"/>
				<path class="st7" d="M857.9,429.5c0,0,2,10.7-2.1,14l-9.5,6.9l36.4,4.7l-8.9-11.8c0,0-4.2-4.5-2.4-14.2
					C872.3,424.3,857.9,429.5,857.9,429.5z"/>
				<path class="st24" d="M858.1,431c0.1,0.6,0.2,1.4,0.2,2.3c1.4,2,3.8,4.5,7.1,4.3c3-0.1,4.6-2.1,5.5-3.7c0-0.8,0-1.7,0.2-2.7
					L858.1,431z"/>
				<path class="st7" d="M864.7,434.9c-3.9,0-11.2-5-11.4-11.5l-0.2-10.1c-0.1-2.4,1.6-6.3,3.6-6.3l14.9-0.3c2,0,3.7,3.8,3.7,6.1
					l0.2,9.5C875.7,429.2,869.2,434.9,864.7,434.9z"/>
				<path class="st4" d="M852.7,424c2.7-3.5,2.1-9.4,5.9-10.2c3-0.6,7.3-2.7,10.7-6.1c2,0.3,4.5,2.5,5.5,5.4c0.9,2.7,0.7,3,2.6,4.7
					c1.6-8.6-2.8-11.3-8.3-12.5s-12.7-0.3-15.7,4.2C850.2,414,852.7,424,852.7,424z"/>
				<path class="st15" d="M855.8,443.5l-11.2,27.1l-10.6,6.6l-10.7,5.3c1-2.2,6.2-10.7-0.5-18.1c-3.3-3.7-8.6-3.1-13.1-1.6
					c0.4-0.2,0.7-0.3,1.1-0.5h0c12.1-5.9,20.4-13.7,26.4-16.6c3.2-1.5,7.8-2.9,10-2.9C851,442.7,856.1,443.5,855.8,443.5z"/>
				<path class="st15" d="M889,443.3c6.5,3.2,26.6,20.3,26.6,20.3c-0.7-0.4-8-4.7-13.7,1.9c-6,6.9-4.8,13.6-4.8,13.6l-2.5-2l0,0
					l-11.9-10.8l-8.9-23.1C873.8,443.3,885.1,441.4,889,443.3z"/>
				<path class="st15" d="M834.8,487.3L834.8,487.3c0.2,1.9,0,4.3-0.5,7.2h57.2c0.2-3.2,0.6-6.6,1.2-10.6c0.4-2.3,1-4.5,1.7-6.6
					c5.3-16.4-6.8-31.5-6.8-31.5c-5-1.2-9.7-2-13.9-2.4c-3.3,4.5-5.2,7.7-8.2,9c-5-0.6-9.8-8.7-9.8-8.8c-7.2,0.9-11.2,2.5-11.2,2.5
					s0,0,0,0c-1.4,0.7-15.1,9-11.4,26.9C833.8,476.3,834.3,481.6,834.8,487.3z"/>
			</g>
		</g>
	</g>
	<g>
		<g>
			<defs>
				<circle id="SVGID_5_" cx="697.4" cy="331.6" r="70.6"/>
			</defs>
			<use xlink:href="#SVGID_5_"  style="overflow:visible;fill:#DFEBFA;"/>
			<clipPath id="SVGID_6_">
				<use xlink:href="#SVGID_5_"  style="overflow:visible;"/>
			</clipPath>
			<g class="st25">
				<path class="st6" d="M703.1,291.1c-8.2-6.2-30.7-1.1-28.5,20.9c2,20.3,12.6,27.6,19.1,31.6c13.9-0.1,14.7-4.4,15.5-5.3
					c10.8-12,10.5-25.3,7.7-36.9C714.7,292.8,706.7,289.6,703.1,291.1z"/>
				<path class="st6" d="M706.1,288.7c-11-14-34.2,2.1-33,19.8c1.2,17.7-16.2,15.7-7.7,32c8.5,16.2-33.6,7.5-20.7,31.9
					c48.7,22,107.5,15.3,107.9-5.2c0.5-20.5-14.5-18-20.8-27.4S728.4,285,706.1,288.7z"/>
				<path class="st7" d="M687.9,333.5c0,0,1.5,12.6-3.2,21.6l-14.3,10.5l55,7l-13.5-17.8c0,0-5.8-7.1-3.3-26.6
					C709.6,320.9,687.9,333.5,687.9,333.5z"/>
				<path class="st24" d="M708,339.6c0-1-0.1-2.1,0-3.2l-19.9-0.2c0,0.8,0.1,1.8,0,2.8c2,3,5.8,7.4,11.1,7.1
					C704.2,345.9,706.8,342.4,708,339.6z"/>
				<path class="st7" d="M698.2,342.1c-5.9,0-17-7.6-17.2-17.4l-0.3-15.2c-0.1-3.6,2.3-9.5,5.4-9.5l22.6-0.5c3-0.1,5.6,5.7,5.7,9.3
					l0.3,14.4C714.9,333.4,705,342.1,698.2,342.1z"/>
				<path class="st6" d="M680,325.6c4.1-5.2,3.1-14.3,8.9-15.5c4.6-1,11-4.1,16.2-9.2c3,0.4,6,7.1,7.6,11.5
					c1.4,4.1,3.6,11.3,6.4,13.9c2.5-13-4.2-31.7-15.4-32.1c-8.5-0.3-18.2,2.6-22.7,9.5C676.4,310.5,680,325.6,680,325.6z"/>
				<path class="st4" d="M684.7,355.1l-16.9,41l-16,9.9l-16.1,8c1.5-3.4,9.3-16.1-0.8-27.3c-5-5.5-13-4.7-19.8-2.5
					c0.5-0.3,1.1-0.5,1.6-0.8h0c18.3-8.9,30.9-20.7,39.9-25.1c4.9-2.3,11.7-4.4,15.2-4.4C677.5,353.9,685.2,355.1,684.7,355.1z"/>
				<path class="st4" d="M735,354.8c9.8,4.8,40.2,30.7,40.2,30.7c-1-0.6-12.1-7-20.7,2.9c-9,10.4-7.2,20.6-7.2,20.6l-3.8-3l-0.1-0.1
					l-17.9-16.3l-13.5-35C711.9,354.8,729,351.9,735,354.8z"/>
				<path class="st4" d="M652.9,419.6h90.5c0.1-0.9,0.2-1.6,0.3-2.2c0.7-3.4-1.5-8-0.4-11.3c8-24.8-10.3-47.6-10.3-47.6
					c-7.6-1.9-14.6-3-21.1-3.6c-4.9,6.9-7.8,11.7-12.4,13.6c-7.5-0.9-14.8-13.2-14.8-13.4c-10.8,1.3-16.9,3.8-16.9,3.8s0,0,0,0
					c-2.1,1-22.8,13.6-17.3,40.7C651.4,404.3,652.2,411.6,652.9,419.6z"/>
			</g>
		</g>
	</g>
	<g>
		<g>
			<defs>
				<circle id="SVGID_7_" cx="535.3" cy="420.2" r="41.6"/>
			</defs>
			<use xlink:href="#SVGID_7_"  style="overflow:visible;fill:#DFEBFA;"/>
			<clipPath id="SVGID_8_">
				<use xlink:href="#SVGID_7_"  style="overflow:visible;"/>
			</clipPath>
			<g class="st26">
				<path class="st27" d="M537.8,394.6c-12.2-7.7-22.4,5.8-21.9,17.2s6.4,17.2,6.4,17.2h32.5c-5.4-9.6,0.4-20.7-5.4-28.7
					C544.6,393.9,537.8,394.6,537.8,394.6z"/>
				<path class="st20" d="M528.1,419.9c0,0,1.4,9.8-1.4,12.5l-8.5,6.2l32.5,4.2l-7.9-10.5c0,0-3.9-3.2-1.4-15.6
					C542.1,412.4,528.1,419.9,528.1,419.9z"/>
				<path class="st21" d="M528.4,422.6c1.3,1.7,4,3.9,6.9,3.7c2.3-0.1,4.2-1.9,5.2-3.4c0-0.6,0.1-1.2,0.1-1.9l-12.4-0.1
					C528.3,421.3,528.3,421.9,528.4,422.6z"/>
				<path class="st20" d="M534.6,424.8c-3.5,0-10-4.5-10.1-10.3l-0.2-9c0-2.1,1.4-3.9,3.2-3.9l13.3-0.3c1.8,0,3.3,1.7,3.3,3.8
					l0.2,8.5C544.5,419.6,538.6,424.7,534.6,424.8z"/>
				<path class="st28" d="M526.7,432.4l-10,24.2l-9.5,5.8l-9.5,4.7c0.9-2,5.5-9.5-0.4-16.1c-2.9-3.3-7.7-2.8-11.7-1.5
					c0.3-0.2,0.6-0.3,1-0.5h0c10.8-5.2,18.2-12.2,23.6-14.8c2.9-1.4,6.9-2.6,9-2.6C522.4,431.7,527,432.4,526.7,432.4z"/>
				<path class="st28" d="M556.3,432.2c5.8,2.8,23.7,18.1,23.7,18.1c-0.6-0.4-7.1-4.2-12.2,1.7c-5.3,6.2-4.3,12.2-4.3,12.2l-2.3-1.8
					l0,0l-10.6-9.6l-7.9-20.6C542.7,432.2,552.8,430.5,556.3,432.2z"/>
				<path class="st28" d="M507.7,468.7H563c-1.1-2.6-2.1-5.2-1.8-6.2c4.7-14.6-6.1-28.1-6.1-28.1c-4.5-1.1-8.6-1.8-12.4-2.1
					c-2.9,4.1-4.6,6.9-7.3,8.1c-4.4-0.5-8.7-7.8-8.7-7.9c-6.4,0.8-10,2.2-10,2.2s0,0,0,0c-1.2,0.6-13.4,8-10.2,24
					C506.9,461.1,507.4,464.7,507.7,468.7z"/>
			</g>
		</g>
	</g>
	<g>
		<g>
			<defs>
				<circle id="SVGID_9_" cx="526.3" cy="264.9" r="58.7"/>
			</defs>
			<use xlink:href="#SVGID_9_"  style="overflow:visible;fill:#DFEBFA;"/>
			<clipPath id="SVGID_10_">
				<use xlink:href="#SVGID_9_"  style="overflow:visible;"/>
			</clipPath>
			<g class="st29">
				<path class="st8" d="M527.6,228.5c-17.7-8.8-46,9.7-29.9,63.4c45,24.6,54.5-6.5,54.5-6.5C555.3,248.2,547.1,225.6,527.6,228.5z"
					/>
				<path class="st7" d="M516.2,264.4c0,0,2,13.8-2,17.6l-11.9,8.7l45.7,5.9l-11.2-14.8c0,0-5.5-4.5-2-21.9
					C536,253.8,516.2,264.4,516.2,264.4z"/>
				<path class="st24" d="M516.6,268.1c1.9,2.4,5.6,5.4,9.8,5.2c3.2-0.2,5.9-2.6,7.3-4.7c0-0.8,0.1-1.7,0.2-2.7l-17.5-0.2
					C516.5,266.3,516.5,267.1,516.6,268.1z"/>
				<path class="st7" d="M525.4,271.2c-4.9,0-14.1-6.3-14.3-14.5l-0.3-12.7c-0.1-3,2-5.4,4.5-5.5l18.8-0.4c2.5-0.1,4.6,2.3,4.7,5.3
					l0.3,11.9C539.3,264,531.1,271.2,525.4,271.2z"/>
				<path class="st2" d="M514.2,282l-14.1,34.1l-13.3,8.2l-13.4,6.7c1.3-2.8,7.8-13.4-0.6-22.7c-4.1-4.6-10.8-3.9-16.5-2.1
					c0.5-0.2,0.9-0.4,1.3-0.7h0c15.2-7.4,25.7-17.3,33.2-20.8c4-1.9,9.8-3.6,12.6-3.7C508.2,281,514.6,282,514.2,282z"/>
				<path class="st2" d="M556,281.7c8.2,4,33.4,25.6,33.4,25.6c-0.8-0.5-10.1-5.9-17.2,2.4c-7.5,8.7-6,17.1-6,17.1l-3.2-2.5l-0.1,0
					L548,310.8l-11.2-29.1C536.8,281.7,551,279.3,556,281.7z"/>
				<path class="st2" d="M487.5,333.1h77.9c-1.5-3.7-2.9-7.4-2.5-8.7c6.7-20.6-8.6-39.6-8.6-39.6c-6.3-1.5-12.2-2.5-17.5-3
					c-4.1,5.7-6.5,9.7-10.3,11.3c-6.2-0.7-12.3-10.9-12.3-11.1c-9,1.1-14.1,3.1-14.1,3.1s0,0,0,0c-1.7,0.9-18.9,11.3-14.4,33.8
					C486.4,322.4,487,327.4,487.5,333.1z"/>
				<path class="st8" d="M541.2,253.5c-3.9-9.7-11.5-14.3-11.5-14.3c-12.8,1.3-10.9,16.7-23.8,19c3.1-17.5,2.8-26,14.4-25
					c11.7,1,20.4-1.1,21.6,5S541.2,253.5,541.2,253.5z"/>
			</g>
		</g>
	</g>
	<g>
		<path class="st2" d="M855.4,321.8c-0.6,0-1.1-0.5-1.1-1.1c0-0.6,0.5-1.1,1.1-1.1c2.3,0,4.6-0.1,6.8-0.4c0.6-0.1,1.2,0.4,1.2,1
			c0.1,0.6-0.4,1.2-1,1.2C860.2,321.7,857.8,321.8,855.4,321.8L855.4,321.8z M848.5,321.5c0,0-0.1,0-0.1,0c-2.3-0.2-4.7-0.6-7-1.1
			c-0.6-0.1-1-0.7-0.9-1.3c0.1-0.6,0.7-1,1.3-0.9c2.2,0.5,4.5,0.8,6.8,1.1c0.6,0.1,1.1,0.6,1,1.2C849.5,321,849.1,321.5,848.5,321.5
			z M869.3,320.4c-0.5,0-1-0.4-1.1-0.9c-0.1-0.6,0.3-1.2,0.9-1.3c2.2-0.5,4.5-1.1,6.6-1.8c0.6-0.2,1.2,0.1,1.4,0.7
			c0.2,0.6-0.1,1.2-0.7,1.4c-2.2,0.7-4.5,1.3-6.9,1.8C869.5,320.4,869.4,320.4,869.3,320.4z M834.8,318.6c-0.1,0-0.2,0-0.3-0.1
			c-2.2-0.7-4.5-1.6-6.6-2.5c-0.6-0.3-0.8-0.9-0.6-1.5c0.3-0.6,0.9-0.8,1.5-0.6c2.1,0.9,4.2,1.8,6.4,2.5c0.6,0.2,0.9,0.8,0.7,1.4
			C835.8,318.3,835.3,318.6,834.8,318.6z M882.6,316.1c-0.4,0-0.8-0.3-1-0.7c-0.3-0.6,0-1.2,0.6-1.5c2.1-0.9,4.1-2,6.1-3.1
			c0.5-0.3,1.2-0.1,1.5,0.4c0.3,0.5,0.1,1.2-0.4,1.5c-2,1.2-4.2,2.3-6.3,3.2C882.9,316,882.7,316.1,882.6,316.1z M822.1,312.9
			c-0.2,0-0.4,0-0.6-0.2c-2-1.2-4-2.5-6-3.9c-0.5-0.4-0.6-1.1-0.3-1.6c0.4-0.5,1.1-0.6,1.6-0.3c1.8,1.3,3.8,2.6,5.8,3.7
			c0.5,0.3,0.7,1,0.4,1.5C822.9,312.7,822.5,312.9,822.1,312.9z M894.6,309.1c-0.4,0-0.7-0.2-0.9-0.5c-0.4-0.5-0.3-1.2,0.2-1.6
			c1.8-1.3,3.6-2.8,5.3-4.3c0.5-0.4,1.2-0.4,1.6,0.1c0.4,0.5,0.4,1.2-0.1,1.6c-1.8,1.6-3.6,3.1-5.5,4.5
			C895.1,309,894.8,309.1,894.6,309.1z M810.8,304.7c-0.3,0-0.5-0.1-0.8-0.3c-1.8-1.6-3.4-3.3-5-5c-0.4-0.5-0.4-1.2,0.1-1.6
			c0.5-0.4,1.2-0.4,1.6,0.1c1.5,1.7,3.2,3.3,4.9,4.8c0.5,0.4,0.5,1.1,0.1,1.6C811.5,304.6,811.1,304.7,810.8,304.7z M905,299.8
			c-0.3,0-0.5-0.1-0.8-0.3c-0.5-0.4-0.5-1.1-0.1-1.6c1.5-1.7,3-3.5,4.3-5.3c0.4-0.5,1.1-0.6,1.6-0.2c0.5,0.4,0.6,1.1,0.2,1.6
			c-1.4,1.9-2.9,3.8-4.5,5.5C905.6,299.6,905.3,299.8,905,299.8z M801.5,294.4c-0.3,0-0.7-0.2-0.9-0.5c-1.4-1.9-2.7-3.9-3.9-5.9
			c-0.3-0.5-0.1-1.2,0.4-1.5c0.5-0.3,1.2-0.1,1.5,0.4c1.1,2,2.4,3.9,3.7,5.7c0.4,0.5,0.3,1.2-0.2,1.6
			C802,294.3,801.7,294.4,801.5,294.4z M913.2,288.5c-0.2,0-0.4,0-0.6-0.2c-0.5-0.3-0.7-1-0.4-1.5c1.1-2,2.2-4,3.1-6.1
			c0.3-0.6,0.9-0.8,1.5-0.6c0.6,0.3,0.8,0.9,0.6,1.5c-1,2.2-2,4.3-3.2,6.3C913.9,288.3,913.5,288.5,913.2,288.5z M794.5,282.3
			c-0.4,0-0.8-0.2-1-0.7c-1-2.2-1.8-4.4-2.6-6.6c-0.2-0.6,0.1-1.2,0.7-1.4c0.6-0.2,1.2,0.1,1.4,0.7c0.7,2.2,1.5,4.3,2.5,6.4
			c0.3,0.6,0,1.2-0.6,1.5C794.8,282.3,794.7,282.3,794.5,282.3z M918.8,275.8c-0.1,0-0.2,0-0.4-0.1c-0.6-0.2-0.9-0.8-0.7-1.4
			c0.7-2.2,1.3-4.4,1.8-6.6c0.1-0.6,0.7-1,1.3-0.9c0.6,0.1,1,0.7,0.9,1.3c-0.5,2.3-1.1,4.6-1.8,6.9
			C919.8,275.5,919.3,275.8,918.8,275.8z M790.2,269.1c-0.5,0-1-0.4-1.1-0.9c-0.5-2.3-0.9-4.7-1.1-7c-0.1-0.6,0.4-1.2,1-1.2
			c0.6-0.1,1.2,0.4,1.2,1c0.2,2.3,0.6,4.5,1.1,6.8c0.1,0.6-0.3,1.2-0.9,1.3C790.4,269.1,790.3,269.1,790.2,269.1z M921.7,262.1
			c0,0-0.1,0-0.1,0c-0.6-0.1-1.1-0.6-1-1.2c0.2-2.3,0.4-4.6,0.4-6.8v-0.1c0-0.6,0.5-1.1,1.1-1.1c0,0,0,0,0,0c0.6,0,1.1,0.5,1.1,1.1
			l0,0.2c0,2.4-0.1,4.7-0.4,7.1C922.8,261.7,922.3,262.1,921.7,262.1z M788.7,255.2c-0.6,0-1.1-0.5-1.1-1.1l0-0.1
			c0-2.3,0.1-4.7,0.4-7c0.1-0.6,0.6-1.1,1.2-1c0.6,0.1,1.1,0.6,1,1.2c-0.2,2.2-0.3,4.5-0.3,6.8l0,0.1
			C789.9,254.7,789.4,255.2,788.7,255.2z M921.7,248c-0.6,0-1.1-0.4-1.1-1c-0.2-2.3-0.6-4.5-1.1-6.8c-0.1-0.6,0.3-1.2,0.9-1.3
			c0.6-0.1,1.2,0.3,1.3,0.9c0.5,2.3,0.9,4.7,1.1,7c0.1,0.6-0.4,1.2-1,1.2C921.8,248,921.7,248,921.7,248z M790.2,241.4
			c-0.1,0-0.2,0-0.2,0c-0.6-0.1-1-0.7-0.9-1.3c0.5-2.3,1.1-4.6,1.8-6.9c0.2-0.6,0.8-0.9,1.4-0.7c0.6,0.2,0.9,0.8,0.7,1.4
			c-0.7,2.2-1.3,4.4-1.8,6.6C791.2,241,790.7,241.4,790.2,241.4z M918.8,234.4c-0.5,0-0.9-0.3-1.1-0.8c-0.7-2.2-1.5-4.3-2.5-6.4
			c-0.3-0.6,0-1.2,0.6-1.5c0.6-0.3,1.2,0,1.5,0.6c1,2.2,1.8,4.4,2.6,6.6c0.2,0.6-0.1,1.2-0.7,1.4C919,234.4,918.9,234.4,918.8,234.4
			z M794.5,228.1c-0.2,0-0.3,0-0.5-0.1c-0.6-0.3-0.8-0.9-0.6-1.5c1-2.2,2-4.3,3.2-6.3c0.3-0.5,1-0.7,1.5-0.4c0.5,0.3,0.7,1,0.4,1.5
			c-1.1,2-2.2,4-3.1,6.1C795.3,227.9,794.9,228.1,794.5,228.1z M913.1,221.7c-0.4,0-0.8-0.2-1-0.6c-1.1-2-2.4-3.9-3.8-5.7
			c-0.4-0.5-0.3-1.2,0.2-1.6c0.5-0.4,1.2-0.3,1.6,0.2c1.4,1.9,2.7,3.9,3.9,5.9c0.3,0.5,0.1,1.2-0.4,1.5
			C913.5,221.7,913.3,221.7,913.1,221.7z M801.4,216c-0.2,0-0.5-0.1-0.7-0.2c-0.5-0.4-0.6-1.1-0.3-1.6c1.4-1.9,2.9-3.8,4.5-5.5
			c0.4-0.5,1.1-0.5,1.6-0.1c0.5,0.4,0.5,1.1,0.1,1.6c-1.5,1.7-3,3.5-4.3,5.3C802.1,215.9,801.8,216,801.4,216z M904.9,210.5
			c-0.3,0-0.6-0.1-0.8-0.4c-1.5-1.7-3.2-3.3-4.9-4.8c-0.5-0.4-0.5-1.1-0.1-1.6c0.4-0.5,1.1-0.5,1.6-0.1c1.8,1.6,3.4,3.3,5,5
			c0.4,0.5,0.4,1.2-0.1,1.6C905.4,210.4,905.1,210.5,904.9,210.5z M810.7,205.7c-0.3,0-0.6-0.1-0.8-0.4c-0.4-0.5-0.4-1.2,0.1-1.6
			c1.8-1.6,3.6-3.1,5.5-4.5c0.5-0.4,1.2-0.3,1.6,0.2c0.4,0.5,0.3,1.2-0.2,1.6c-1.8,1.3-3.6,2.8-5.3,4.3
			C811.3,205.6,811,205.7,810.7,205.7z M894.5,201.1c-0.2,0-0.5-0.1-0.7-0.2c-1.8-1.3-3.8-2.6-5.8-3.7c-0.5-0.3-0.7-1-0.4-1.5
			c0.3-0.5,1-0.7,1.5-0.4c2,1.2,4,2.5,6,3.9c0.5,0.4,0.6,1.1,0.3,1.6C895.2,201,894.8,201.1,894.5,201.1z M822,197.5
			c-0.4,0-0.8-0.2-1-0.6c-0.3-0.5-0.1-1.2,0.4-1.5c2-1.2,4.2-2.3,6.3-3.2c0.6-0.3,1.2,0,1.5,0.6c0.3,0.6,0,1.2-0.6,1.5
			c-2.1,0.9-4.1,2-6.1,3.1C822.4,197.4,822.2,197.5,822,197.5z M882.4,194.2c-0.2,0-0.3,0-0.5-0.1c-2.1-0.9-4.2-1.7-6.4-2.4
			c-0.6-0.2-0.9-0.8-0.7-1.4c0.2-0.6,0.8-0.9,1.4-0.7c2.2,0.7,4.5,1.6,6.6,2.5c0.6,0.3,0.8,0.9,0.6,1.5
			C883.3,193.9,882.9,194.2,882.4,194.2z M834.7,191.8c-0.5,0-0.9-0.3-1.1-0.8c-0.2-0.6,0.1-1.2,0.7-1.4c2.2-0.7,4.5-1.4,6.9-1.8
			c0.6-0.1,1.2,0.3,1.3,0.9c0.1,0.6-0.3,1.2-0.9,1.3c-2.2,0.5-4.5,1.1-6.6,1.8C834.9,191.7,834.8,191.8,834.7,191.8z M869.2,189.9
			c-0.1,0-0.2,0-0.2,0c-2.2-0.5-4.5-0.8-6.8-1.1c-0.6-0.1-1.1-0.6-1-1.2c0.1-0.6,0.6-1.1,1.2-1c2.3,0.2,4.7,0.6,7,1.1
			c0.6,0.1,1,0.7,0.9,1.3C870.2,189.5,869.7,189.9,869.2,189.9z M848.3,188.9c-0.6,0-1.1-0.4-1.1-1c-0.1-0.6,0.4-1.2,1-1.2
			c2.3-0.2,4.7-0.4,7.1-0.4l0,0c0.6,0,1.1,0.5,1.1,1.1c0,0.6-0.5,1.1-1.1,1.1c-2.3,0-4.6,0.1-6.8,0.4
			C848.4,188.9,848.4,188.9,848.3,188.9z"/>
	</g>
	<g>
		<path class="st2" d="M694,410.7C694,410.7,694,410.7,694,410.7c-2.4-0.1-4.8-0.3-7.1-0.6c-0.6-0.1-1.1-0.7-1-1.3s0.7-1.1,1.3-1
			c2.3,0.3,4.6,0.5,6.9,0.6c0.6,0,1.1,0.6,1.1,1.2C695.1,410.2,694.6,410.7,694,410.7z M701,410.7c-0.6,0-1.1-0.5-1.1-1.1
			c0-0.6,0.5-1.2,1.1-1.2c2.3-0.1,4.6-0.3,6.9-0.6c0.6-0.1,1.2,0.4,1.3,1c0.1,0.6-0.4,1.2-1,1.3C705.8,410.4,703.4,410.6,701,410.7
			C701,410.7,701,410.7,701,410.7z M680.1,408.8c-0.1,0-0.2,0-0.3,0c-2.3-0.5-4.6-1.2-6.9-1.9c-0.6-0.2-0.9-0.8-0.7-1.4
			c0.2-0.6,0.8-0.9,1.4-0.7c2.2,0.7,4.4,1.3,6.7,1.8c0.6,0.1,1,0.7,0.9,1.4C681.1,408.5,680.6,408.8,680.1,408.8z M714.9,408.8
			c-0.5,0-1-0.4-1.1-0.9c-0.1-0.6,0.2-1.2,0.9-1.4c2.2-0.5,4.5-1.1,6.7-1.8c0.6-0.2,1.2,0.1,1.4,0.7c0.2,0.6-0.1,1.2-0.7,1.4
			c-2.2,0.7-4.5,1.4-6.9,1.9C715,408.8,714.9,408.8,714.9,408.8z M666.8,404.5c-0.1,0-0.3,0-0.4-0.1c-2.2-0.9-4.3-2-6.4-3.1
			c-0.6-0.3-0.8-1-0.5-1.5c0.3-0.6,1-0.8,1.5-0.5c2,1.1,4.1,2.1,6.2,3c0.6,0.2,0.8,0.9,0.6,1.5C667.7,404.3,667.2,404.5,666.8,404.5
			z M728.2,404.5c-0.4,0-0.9-0.3-1-0.7c-0.2-0.6,0-1.2,0.6-1.5c2.1-0.9,4.2-1.9,6.2-3c0.6-0.3,1.2-0.1,1.5,0.5
			c0.3,0.6,0.1,1.2-0.5,1.5c-2.1,1.1-4.2,2.2-6.4,3.1C728.5,404.5,728.3,404.5,728.2,404.5z M654.5,397.9c-0.2,0-0.4-0.1-0.6-0.2
			c-2-1.3-3.9-2.7-5.8-4.2c-0.5-0.4-0.6-1.1-0.2-1.6c0.4-0.5,1.1-0.6,1.6-0.2c1.8,1.4,3.7,2.8,5.6,4.1c0.5,0.3,0.7,1,0.3,1.6
			C655.2,397.7,654.8,397.9,654.5,397.9z M740.5,397.9c-0.4,0-0.7-0.2-0.9-0.5c-0.3-0.5-0.2-1.2,0.3-1.6c1.9-1.3,3.8-2.6,5.6-4.1
			c0.5-0.4,1.2-0.3,1.6,0.2c0.4,0.5,0.3,1.2-0.2,1.6c-1.8,1.5-3.8,2.9-5.7,4.2C740.9,397.8,740.7,397.9,740.5,397.9z M643.5,389.2
			c-0.3,0-0.6-0.1-0.8-0.3c-1.7-1.6-3.4-3.4-4.9-5.1c-0.4-0.5-0.4-1.2,0.1-1.6c0.5-0.4,1.2-0.4,1.6,0.1c1.5,1.7,3.1,3.4,4.8,5
			c0.5,0.4,0.5,1.1,0,1.6C644.1,389.1,643.8,389.2,643.5,389.2z M751.4,389.1c-0.3,0-0.6-0.1-0.8-0.3c-0.4-0.5-0.4-1.2,0-1.6
			c1.7-1.6,3.3-3.3,4.8-5c0.4-0.5,1.1-0.5,1.6-0.1c0.5,0.4,0.5,1.1,0.1,1.6c-1.6,1.8-3.2,3.5-4.9,5.1
			C752,389,751.7,389.1,751.4,389.1z M634.3,378.6c-0.3,0-0.7-0.2-0.9-0.5c-1.4-1.9-2.7-3.9-3.9-5.9c-0.3-0.5-0.1-1.2,0.4-1.6
			c0.5-0.3,1.2-0.1,1.6,0.4c1.2,2,2.5,3.9,3.8,5.8c0.4,0.5,0.3,1.2-0.2,1.6C634.8,378.6,634.5,378.6,634.3,378.6z M760.6,378.6
			c-0.2,0-0.5-0.1-0.7-0.2c-0.5-0.4-0.6-1.1-0.2-1.6c1.3-1.9,2.6-3.8,3.8-5.8c0.3-0.5,1-0.7,1.6-0.4c0.5,0.3,0.7,1,0.4,1.6
			c-1.2,2-2.5,4-3.9,5.9C761.3,378.4,761,378.6,760.6,378.6z M627.1,366.6c-0.4,0-0.8-0.2-1-0.6c-1-2.1-2-4.3-2.8-6.5
			c-0.2-0.6,0.1-1.2,0.7-1.5c0.6-0.2,1.2,0.1,1.5,0.7c0.8,2.1,1.7,4.3,2.7,6.3c0.3,0.6,0,1.2-0.5,1.5
			C627.4,366.6,627.3,366.6,627.1,366.6z M767.8,366.6c-0.2,0-0.3,0-0.5-0.1c-0.6-0.3-0.8-0.9-0.5-1.5c1-2.1,1.9-4.2,2.7-6.3
			c0.2-0.6,0.9-0.9,1.5-0.7c0.6,0.2,0.9,0.9,0.7,1.5c-0.8,2.2-1.8,4.4-2.8,6.5C768.6,366.3,768.2,366.6,767.8,366.6z M622.2,353.5
			c-0.5,0-1-0.3-1.1-0.8c-0.6-2.3-1.2-4.6-1.6-6.9c-0.1-0.6,0.3-1.2,0.9-1.3c0.6-0.1,1.2,0.3,1.3,0.9c0.4,2.3,0.9,4.5,1.5,6.7
			c0.2,0.6-0.2,1.2-0.8,1.4C622.4,353.5,622.3,353.5,622.2,353.5z M772.7,353.5c-0.1,0-0.2,0-0.3,0c-0.6-0.2-1-0.8-0.8-1.4
			c0.6-2.2,1.1-4.5,1.5-6.7c0.1-0.6,0.7-1,1.3-0.9c0.6,0.1,1,0.7,0.9,1.3c-0.4,2.3-0.9,4.7-1.6,6.9
			C773.7,353.1,773.2,353.5,772.7,353.5z M619.7,339.8c-0.6,0-1.1-0.4-1.1-1c-0.2-2.3-0.3-4.7-0.3-7.1c0-0.6,0.5-1.1,1.1-1.1
			c0,0,0,0,0,0c0.6,0,1.1,0.5,1.1,1.1c0,2.3,0.1,4.6,0.3,6.9c0.1,0.6-0.4,1.2-1,1.2C619.7,339.8,619.7,339.8,619.7,339.8z
			 M775.2,339.7c0,0-0.1,0-0.1,0c-0.6-0.1-1.1-0.6-1-1.2c0.2-2.3,0.3-4.6,0.3-6.9l0-0.2c0-0.6,0.5-1.1,1.1-1.1c0,0,0,0,0,0
			c0.6,0,1.1,0.5,1.1,1.1l0,0.2c0,2.4-0.1,4.8-0.3,7.1C776.3,339.2,775.8,339.7,775.2,339.7z M619.7,325.8c0,0-0.1,0-0.1,0
			c-0.6-0.1-1.1-0.6-1-1.2c0.2-2.4,0.5-4.7,0.9-7c0.1-0.6,0.7-1,1.3-0.9c0.6,0.1,1,0.7,0.9,1.3c-0.4,2.3-0.7,4.6-0.9,6.8
			C620.7,325.3,620.2,325.8,619.7,325.8z M775.2,325.5c-0.6,0-1.1-0.4-1.1-1c-0.2-2.3-0.5-4.6-0.9-6.8c-0.1-0.6,0.3-1.2,0.9-1.3
			c0.6-0.1,1.2,0.3,1.3,0.9c0.4,2.3,0.7,4.7,1,7c0.1,0.6-0.4,1.2-1,1.2C775.3,325.5,775.2,325.5,775.2,325.5z M622.1,312
			c-0.1,0-0.2,0-0.3,0c-0.6-0.2-1-0.8-0.8-1.4c0.6-2.3,1.4-4.6,2.2-6.8c0.2-0.6,0.9-0.9,1.5-0.7c0.6,0.2,0.9,0.9,0.7,1.5
			c-0.8,2.1-1.5,4.4-2.1,6.6C623.1,311.7,622.6,312,622.1,312z M772.7,311.7c-0.5,0-1-0.3-1.1-0.8c-0.6-2.2-1.3-4.4-2.1-6.6
			c-0.2-0.6,0.1-1.2,0.7-1.5c0.6-0.2,1.2,0.1,1.5,0.7c0.8,2.2,1.6,4.5,2.2,6.8c0.2,0.6-0.2,1.2-0.8,1.4
			C772.9,311.7,772.8,311.7,772.7,311.7z M627,298.9c-0.2,0-0.3,0-0.5-0.1c-0.6-0.3-0.8-0.9-0.5-1.5c1-2.1,2.2-4.2,3.4-6.3
			c0.3-0.5,1-0.7,1.6-0.4c0.5,0.3,0.7,1,0.4,1.6c-1.2,2-2.3,4-3.3,6.1C627.8,298.7,627.4,298.9,627,298.9z M767.7,298.6
			c-0.4,0-0.8-0.2-1-0.6c-1-2.1-2.1-4.1-3.3-6.1c-0.3-0.5-0.1-1.2,0.4-1.6c0.5-0.3,1.2-0.1,1.6,0.4c1.2,2,2.4,4.1,3.4,6.2
			c0.3,0.6,0,1.2-0.5,1.5C768.1,298.6,767.9,298.6,767.7,298.6z M634.2,286.9c-0.2,0-0.5-0.1-0.7-0.2c-0.5-0.4-0.6-1.1-0.3-1.6
			c1.4-1.9,2.9-3.8,4.4-5.6c0.4-0.5,1.1-0.5,1.6-0.1c0.5,0.4,0.5,1.1,0.1,1.6c-1.5,1.7-3,3.5-4.3,5.4
			C634.9,286.7,634.5,286.9,634.2,286.9z M760.5,286.7c-0.3,0-0.7-0.2-0.9-0.5c-1.4-1.9-2.8-3.7-4.3-5.4c-0.4-0.5-0.4-1.2,0.1-1.6
			c0.5-0.4,1.2-0.4,1.6,0.1c1.6,1.8,3.1,3.6,4.4,5.5c0.4,0.5,0.3,1.2-0.2,1.6C761,286.6,760.8,286.7,760.5,286.7z M643.4,276.3
			c-0.3,0-0.6-0.1-0.8-0.3c-0.4-0.5-0.4-1.2,0-1.6c1.7-1.6,3.5-3.2,5.3-4.7c0.5-0.4,1.2-0.3,1.6,0.2c0.4,0.5,0.3,1.2-0.2,1.6
			c-1.8,1.4-3.5,3-5.2,4.6C644,276.2,643.7,276.3,643.4,276.3z M751.3,276.1c-0.3,0-0.6-0.1-0.8-0.3c-1.7-1.6-3.4-3.1-5.2-4.5
			c-0.5-0.4-0.6-1.1-0.2-1.6c0.4-0.5,1.1-0.6,1.6-0.2c1.8,1.5,3.6,3,5.4,4.7c0.5,0.4,0.5,1.1,0,1.6
			C751.9,276,751.6,276.1,751.3,276.1z M654.3,267.6c-0.4,0-0.7-0.2-0.9-0.5c-0.3-0.5-0.2-1.2,0.3-1.6c2-1.3,4-2.5,6.1-3.7
			c0.6-0.3,1.2-0.1,1.5,0.5c0.3,0.6,0.1,1.2-0.5,1.5c-2,1.1-4,2.3-5.9,3.6C654.8,267.5,654.5,267.6,654.3,267.6z M740.3,267.4
			c-0.2,0-0.4-0.1-0.6-0.2c-1.9-1.3-3.9-2.5-5.9-3.5c-0.6-0.3-0.8-1-0.5-1.5c0.3-0.6,1-0.8,1.5-0.5c2.1,1.1,4.1,2.3,6.1,3.6
			c0.5,0.3,0.7,1,0.3,1.6C741.1,267.2,740.7,267.4,740.3,267.4z M666.6,260.9c-0.4,0-0.9-0.3-1-0.7c-0.2-0.6,0-1.2,0.6-1.5
			c2.2-0.9,4.4-1.8,6.6-2.5c0.6-0.2,1.2,0.1,1.4,0.7c0.2,0.6-0.1,1.2-0.7,1.4c-2.2,0.7-4.3,1.5-6.5,2.4
			C666.9,260.9,666.8,260.9,666.6,260.9z M728,260.8c-0.1,0-0.3,0-0.4-0.1c-2.1-0.9-4.3-1.7-6.5-2.4c-0.6-0.2-0.9-0.8-0.7-1.4
			c0.2-0.6,0.8-0.9,1.4-0.7c2.2,0.7,4.5,1.6,6.7,2.5c0.6,0.2,0.8,0.9,0.6,1.5C728.9,260.5,728.4,260.8,728,260.8z M679.9,256.6
			c-0.5,0-1-0.4-1.1-0.9c-0.1-0.6,0.2-1.2,0.9-1.4c2.3-0.5,4.7-1,7-1.3c0.6-0.1,1.2,0.4,1.3,1c0.1,0.6-0.4,1.2-1,1.3
			c-2.3,0.3-4.6,0.7-6.8,1.2C680.1,256.6,680,256.6,679.9,256.6z M714.7,256.5c-0.1,0-0.2,0-0.3,0c-2.2-0.5-4.5-0.9-6.8-1.2
			c-0.6-0.1-1.1-0.7-1-1.3c0.1-0.6,0.7-1.1,1.3-1c2.3,0.3,4.7,0.7,7,1.2c0.6,0.1,1,0.7,0.9,1.4C715.7,256.1,715.2,256.5,714.7,256.5
			z M693.8,254.7c-0.6,0-1.1-0.5-1.1-1.1c0-0.6,0.5-1.2,1.1-1.2c1.2-0.1,2.5-0.1,3.7-0.1c1.1,0,2.3,0,3.4,0.1c0.6,0,1.1,0.6,1.1,1.2
			c0,0.6-0.6,1.1-1.2,1.1c-1.1,0-2.2-0.1-3.3-0.1c0,0,0,0,0,0C696.2,254.6,695,254.6,693.8,254.7
			C693.8,254.7,693.8,254.7,693.8,254.7z"/>
	</g>
	<g>
		<path class="st2" d="M622.5,293.3c-0.1,0-0.3,0-0.4-0.1l-6.5-2.5c-0.6-0.2-0.9-0.9-0.7-1.5c0.2-0.6,0.9-0.9,1.5-0.7l6.5,2.5
			c0.6,0.2,0.9,0.9,0.7,1.5C623.4,293,623,293.3,622.5,293.3z M609.4,288.4c-0.1,0-0.3,0-0.4-0.1l-6.5-2.5c-0.6-0.2-0.9-0.9-0.7-1.5
			c0.2-0.6,0.9-0.9,1.5-0.7l6.5,2.5c0.6,0.2,0.9,0.9,0.7,1.5C610.3,288.1,609.9,288.4,609.4,288.4z M596.4,283.4
			c-0.1,0-0.3,0-0.4-0.1l-6.5-2.5c-0.6-0.2-0.9-0.9-0.7-1.5c0.2-0.6,0.9-0.9,1.5-0.7l6.5,2.5c0.6,0.2,0.9,0.9,0.7,1.5
			C597.2,283.1,596.8,283.4,596.4,283.4z"/>
	</g>
	<g>
		<path class="st2" d="M576.5,400.3c-0.4,0-0.8-0.2-1-0.6c-0.3-0.6,0-1.2,0.5-1.5l6.3-3c0.6-0.3,1.2,0,1.5,0.5
			c0.3,0.6,0,1.2-0.5,1.5l-6.3,3C576.8,400.3,576.7,400.3,576.5,400.3z M589.1,394.3c-0.4,0-0.8-0.2-1-0.6c-0.3-0.6,0-1.2,0.5-1.5
			l6.3-3c0.6-0.3,1.2,0,1.5,0.5c0.3,0.6,0,1.2-0.5,1.5l-6.3,3C589.4,394.2,589.3,394.3,589.1,394.3z M601.7,388.2
			c-0.4,0-0.8-0.2-1-0.6c-0.3-0.6,0-1.2,0.5-1.5l6.3-3c0.6-0.3,1.2,0,1.5,0.5c0.3,0.6,0,1.2-0.5,1.5l-6.3,3
			C602.1,388.2,601.9,388.2,601.7,388.2z M614.3,382.2c-0.4,0-0.8-0.2-1-0.6c-0.3-0.6,0-1.2,0.5-1.5l6.3-3c0.6-0.3,1.2,0,1.5,0.5
			c0.3,0.6,0,1.2-0.5,1.5l-6.3,3C614.7,382.1,614.5,382.2,614.3,382.2z M626.9,376.1c-0.4,0-0.8-0.2-1-0.6c-0.3-0.6,0-1.2,0.5-1.5
			l4.3-2.1c0.6-0.3,1.2,0,1.5,0.5c0.3,0.6,0,1.2-0.5,1.5l-4.3,2.1C627.3,376.1,627.1,376.1,626.9,376.1z"/>
	</g>
	<g>
		<path class="st2" d="M774.1,292.2c-0.4,0-0.8-0.2-1-0.6c-0.3-0.5-0.1-1.2,0.4-1.5l6.1-3.4c0.5-0.3,1.2-0.1,1.5,0.4
			c0.3,0.5,0.1,1.2-0.4,1.5l-6.1,3.4C774.4,292.2,774.3,292.2,774.1,292.2z M786.3,285.4c-0.4,0-0.8-0.2-1-0.6
			c-0.3-0.5-0.1-1.2,0.4-1.5l6.1-3.4c0.5-0.3,1.2-0.1,1.5,0.4c0.3,0.5,0.1,1.2-0.4,1.5l-6.1,3.4
			C786.7,285.4,786.5,285.4,786.3,285.4z"/>
	</g>
	<g>
		<path class="st2" d="M818.2,403.2c-0.2,0-0.3,0-0.5-0.1l-6.2-3.2c-0.6-0.3-0.8-1-0.5-1.5c0.3-0.6,1-0.8,1.5-0.5l6.2,3.2
			c0.6,0.3,0.8,1,0.5,1.5C819,403,818.6,403.2,818.2,403.2z M805.8,396.9c-0.2,0-0.3,0-0.5-0.1l-6.2-3.2c-0.6-0.3-0.8-1-0.5-1.5
			c0.3-0.6,1-0.8,1.5-0.5l6.2,3.2c0.6,0.3,0.8,1,0.5,1.5C806.6,396.7,806.2,396.9,805.8,396.9z M793.3,390.5c-0.2,0-0.3,0-0.5-0.1
			l-6.2-3.2c-0.6-0.3-0.8-1-0.5-1.5c0.3-0.6,1-0.8,1.5-0.5l6.2,3.2c0.6,0.3,0.8,1,0.5,1.5C794.1,390.3,793.7,390.5,793.3,390.5z
			 M780.8,384.2c-0.2,0-0.3,0-0.5-0.1l-6.2-3.2c-0.6-0.3-0.8-1-0.5-1.5c0.3-0.6,1-0.8,1.5-0.5l6.2,3.2c0.6,0.3,0.8,1,0.5,1.5
			C781.7,384,781.3,384.2,780.8,384.2z M768.4,377.8c-0.2,0-0.3,0-0.5-0.1l-5.4-2.7c-0.6-0.3-0.8-1-0.5-1.5c0.3-0.6,1-0.8,1.5-0.5
			l5.4,2.7c0.6,0.3,0.8,1,0.5,1.5C769.2,377.6,768.8,377.8,768.4,377.8z"/>
	</g>
	<g>
		<path class="st2" d="M526.3,375.1c-0.5,0-1-0.4-1.1-0.9l-0.2-1c-0.1-0.6,0.3-1.2,0.9-1.3c0.6-0.1,1.2,0.3,1.3,0.9l0.2,1
			c0.1,0.6-0.3,1.2-0.9,1.3C526.5,375.1,526.4,375.1,526.3,375.1z M525,367.2c-0.5,0-1-0.4-1.1-0.9l-1.1-6.9
			c-0.1-0.6,0.3-1.2,0.9-1.3c0.6-0.1,1.2,0.3,1.3,0.9l1.1,6.9c0.1,0.6-0.3,1.2-0.9,1.3C525.2,367.2,525.1,367.2,525,367.2z
			 M522.7,353.4c-0.5,0-1-0.4-1.1-0.9l-1.1-6.9c-0.1-0.6,0.3-1.2,0.9-1.3c0.6-0.1,1.2,0.3,1.3,0.9l1.1,6.9c0.1,0.6-0.3,1.2-0.9,1.3
			C522.9,353.4,522.8,353.4,522.7,353.4z M520.5,339.6c-0.5,0-1-0.4-1.1-0.9l-1.1-6.9c-0.1-0.6,0.3-1.2,0.9-1.3
			c0.6-0.1,1.2,0.3,1.3,0.9l1.1,6.9c0.1,0.6-0.3,1.2-0.9,1.3C520.6,339.6,520.5,339.6,520.5,339.6z"/>
	</g>
	<g>
		<path class="st2" d="M814.5,436h-7c-0.6,0-1.1-0.5-1.1-1.1c0-0.6,0.5-1.1,1.1-1.1h7c0.6,0,1.1,0.5,1.1,1.1
			C815.6,435.5,815.1,436,814.5,436z M800.5,436h-7c-0.6,0-1.1-0.5-1.1-1.1c0-0.6,0.5-1.1,1.1-1.1h7c0.6,0,1.1,0.5,1.1,1.1
			C801.6,435.5,801.1,436,800.5,436z M786.5,436h-7c-0.6,0-1.1-0.5-1.1-1.1c0-0.6,0.5-1.1,1.1-1.1h7c0.6,0,1.1,0.5,1.1,1.1
			C787.7,435.5,787.1,436,786.5,436z M772.5,436h-7c-0.6,0-1.1-0.5-1.1-1.1c0-0.6,0.5-1.1,1.1-1.1h7c0.6,0,1.1,0.5,1.1,1.1
			C773.7,435.5,773.2,436,772.5,436z M758.6,436h-7c-0.6,0-1.1-0.5-1.1-1.1c0-0.6,0.5-1.1,1.1-1.1h7c0.6,0,1.1,0.5,1.1,1.1
			C759.7,435.5,759.2,436,758.6,436z M744.6,436h-7c-0.6,0-1.1-0.5-1.1-1.1c0-0.6,0.5-1.1,1.1-1.1h7c0.6,0,1.1,0.5,1.1,1.1
			C745.7,435.5,745.2,436,744.6,436z M730.6,436h-7c-0.6,0-1.1-0.5-1.1-1.1c0-0.6,0.5-1.1,1.1-1.1h7c0.6,0,1.1,0.5,1.1,1.1
			C731.7,435.5,731.2,436,730.6,436z M716.6,436h-7c-0.6,0-1.1-0.5-1.1-1.1c0-0.6,0.5-1.1,1.1-1.1h7c0.6,0,1.1,0.5,1.1,1.1
			C717.7,435.5,717.2,436,716.6,436z M702.6,436h-7c-0.6,0-1.1-0.5-1.1-1.1c0-0.6,0.5-1.1,1.1-1.1h7c0.6,0,1.1,0.5,1.1,1.1
			C703.8,435.5,703.3,436,702.6,436z M688.7,436h-7c-0.6,0-1.1-0.5-1.1-1.1c0-0.6,0.5-1.1,1.1-1.1h7c0.6,0,1.1,0.5,1.1,1.1
			C689.8,435.5,689.3,436,688.7,436z M674.7,436h-7c-0.6,0-1.1-0.5-1.1-1.1c0-0.6,0.5-1.1,1.1-1.1h7c0.6,0,1.1,0.5,1.1,1.1
			C675.8,435.5,675.3,436,674.7,436z M660.7,436h-7c-0.6,0-1.1-0.5-1.1-1.1c0-0.6,0.5-1.1,1.1-1.1h7c0.6,0,1.1,0.5,1.1,1.1
			C661.8,435.5,661.3,436,660.7,436z M646.7,436h-7c-0.6,0-1.1-0.5-1.1-1.1c0-0.6,0.5-1.1,1.1-1.1h7c0.6,0,1.1,0.5,1.1,1.1
			C647.8,435.5,647.3,436,646.7,436z M632.7,436h-7c-0.6,0-1.1-0.5-1.1-1.1c0-0.6,0.5-1.1,1.1-1.1h7c0.6,0,1.1,0.5,1.1,1.1
			C633.9,435.5,633.4,436,632.7,436z M618.7,436h-7c-0.6,0-1.1-0.5-1.1-1.1c0-0.6,0.5-1.1,1.1-1.1h7c0.6,0,1.1,0.5,1.1,1.1
			C619.9,435.5,619.4,436,618.7,436z M604.8,436h-7c-0.6,0-1.1-0.5-1.1-1.1c0-0.6,0.5-1.1,1.1-1.1h7c0.6,0,1.1,0.5,1.1,1.1
			C605.9,435.5,605.4,436,604.8,436z M590.8,436h-7c-0.6,0-1.1-0.5-1.1-1.1c0-0.6,0.5-1.1,1.1-1.1h7c0.6,0,1.1,0.5,1.1,1.1
			C591.9,435.5,591.4,436,590.8,436z"/>
	</g>
	<g>
		<path class="st2" d="M794.4,225.8h-7c-0.6,0-1.1-0.5-1.1-1.1c0-0.6,0.5-1.1,1.1-1.1h7c0.6,0,1.1,0.5,1.1,1.1
			C795.5,225.3,795,225.8,794.4,225.8z M780.4,225.8h-7c-0.6,0-1.1-0.5-1.1-1.1c0-0.6,0.5-1.1,1.1-1.1h7c0.6,0,1.1,0.5,1.1,1.1
			C781.5,225.3,781,225.8,780.4,225.8z M766.4,225.8h-7c-0.6,0-1.1-0.5-1.1-1.1c0-0.6,0.5-1.1,1.1-1.1h7c0.6,0,1.1,0.5,1.1,1.1
			C767.5,225.3,767,225.8,766.4,225.8z M752.4,225.8h-7c-0.6,0-1.1-0.5-1.1-1.1c0-0.6,0.5-1.1,1.1-1.1h7c0.6,0,1.1,0.5,1.1,1.1
			C753.6,225.3,753.1,225.8,752.4,225.8z M738.5,225.8h-7c-0.6,0-1.1-0.5-1.1-1.1c0-0.6,0.5-1.1,1.1-1.1h7c0.6,0,1.1,0.5,1.1,1.1
			C739.6,225.3,739.1,225.8,738.5,225.8z M724.5,225.8h-7c-0.6,0-1.1-0.5-1.1-1.1c0-0.6,0.5-1.1,1.1-1.1h7c0.6,0,1.1,0.5,1.1,1.1
			C725.6,225.3,725.1,225.8,724.5,225.8z M710.5,225.8h-7c-0.6,0-1.1-0.5-1.1-1.1c0-0.6,0.5-1.1,1.1-1.1h7c0.6,0,1.1,0.5,1.1,1.1
			C711.6,225.3,711.1,225.8,710.5,225.8z M696.5,225.8h-7c-0.6,0-1.1-0.5-1.1-1.1c0-0.6,0.5-1.1,1.1-1.1h7c0.6,0,1.1,0.5,1.1,1.1
			C697.6,225.3,697.1,225.8,696.5,225.8z M682.5,225.8h-7c-0.6,0-1.1-0.5-1.1-1.1c0-0.6,0.5-1.1,1.1-1.1h7c0.6,0,1.1,0.5,1.1,1.1
			C683.7,225.3,683.2,225.8,682.5,225.8z M668.5,225.8h-7c-0.6,0-1.1-0.5-1.1-1.1c0-0.6,0.5-1.1,1.1-1.1h7c0.6,0,1.1,0.5,1.1,1.1
			C669.7,225.3,669.2,225.8,668.5,225.8z M654.6,225.8h-7c-0.6,0-1.1-0.5-1.1-1.1c0-0.6,0.5-1.1,1.1-1.1h7c0.6,0,1.1,0.5,1.1,1.1
			C655.7,225.3,655.2,225.8,654.6,225.8z M640.6,225.8h-7c-0.6,0-1.1-0.5-1.1-1.1c0-0.6,0.5-1.1,1.1-1.1h7c0.6,0,1.1,0.5,1.1,1.1
			C641.7,225.3,641.2,225.8,640.6,225.8z M626.6,225.8h-7c-0.6,0-1.1-0.5-1.1-1.1c0-0.6,0.5-1.1,1.1-1.1h7c0.6,0,1.1,0.5,1.1,1.1
			C627.7,225.3,627.2,225.8,626.6,225.8z M612.6,225.8h-7c-0.6,0-1.1-0.5-1.1-1.1c0-0.6,0.5-1.1,1.1-1.1h7c0.6,0,1.1,0.5,1.1,1.1
			C613.8,225.3,613.3,225.8,612.6,225.8z M598.6,225.8h-7c-0.6,0-1.1-0.5-1.1-1.1c0-0.6,0.5-1.1,1.1-1.1h7c0.6,0,1.1,0.5,1.1,1.1
			C599.8,225.3,599.3,225.8,598.6,225.8z M584.7,225.8h-7c-0.6,0-1.1-0.5-1.1-1.1c0-0.6,0.5-1.1,1.1-1.1h7c0.6,0,1.1,0.5,1.1,1.1
			C585.8,225.3,585.3,225.8,584.7,225.8z"/>
	</g>
	<g>
		<path class="st2" d="M864.4,370.8c-0.6,0-1.1-0.5-1.1-1.1v-7c0-0.6,0.5-1.1,1.1-1.1c0.6,0,1.1,0.5,1.1,1.1v7
			C865.5,370.2,865,370.8,864.4,370.8z M864.4,356.8c-0.6,0-1.1-0.5-1.1-1.1v-7c0-0.6,0.5-1.1,1.1-1.1c0.6,0,1.1,0.5,1.1,1.1v7
			C865.5,356.3,865,356.8,864.4,356.8z M864.4,342.8c-0.6,0-1.1-0.5-1.1-1.1v-7c0-0.6,0.5-1.1,1.1-1.1c0.6,0,1.1,0.5,1.1,1.1v7
			C865.5,342.3,865,342.8,864.4,342.8z M864.4,328.8c-0.6,0-1.1-0.5-1.1-1.1v-7c0-0.6,0.5-1.1,1.1-1.1c0.6,0,1.1,0.5,1.1,1.1v7
			C865.5,328.3,865,328.8,864.4,328.8z"/>
	</g>
	<text transform="matrix(1 0 0 1 632.3351 160.2858)" class="st3 st30 st31">NETWORK</text>
</g>
</svg>
